<svg width="49" height="52" viewBox="0 0 49 52" fill="none" xmlns="http://www.w3.org/2000/svg">
<g clip-path="url(#clip0_0_151)">
<path d="M42.572 25.2799C44.9224 26.5922 46.8355 28.3419 48.5845 30.3103C43.7199 33.8097 38.4727 36.653 32.8975 38.8402H16.8278V38.7308C10.9247 36.653 5.28882 33.5363 0.424194 29.5994C2.22794 28.3417 4.36558 26.9749 6.49728 26.4282C7.31715 24.4597 8.07642 22.5459 8.8963 20.5775C12.777 21.7257 15.6434 18.918 19.4107 21.4304C19.5747 21.5398 19.8676 21.717 20.0862 21.881L25.8059 21.8359C32.8767 17.691 36.177 21.4524 41.6429 20.1401C41.9709 21.8898 42.244 23.5849 42.572 25.2799Z" fill="url(#paint0_linear_0_151)"/>
<path d="M40.058 12.2668C41.807 13.7978 43.2828 15.8208 44.1573 18.008C37.5984 18.7735 31.094 17.2908 25.5188 20.8449C23.6604 20.7902 21.9112 20.7356 20.1075 20.6809C16.4454 17.4548 12.0285 18.8584 7.32784 17.5461C7.27318 17.4367 7.20807 17.3518 7.09875 17.1878C8.46522 15.7661 9.72241 14.4539 11.3075 13.251C12.9472 8.76732 14.8603 4.55708 17.4293 0.510872C24.3709 0.401515 31.4765 1.11234 38.1995 2.86205C39.0741 5.86936 39.566 9.15007 40.058 12.2668Z" fill="url(#paint1_linear_0_151)"/>
<path d="M48.5853 30.3107C43.7207 33.8102 38.4735 36.6535 32.8983 38.8406H33.0076C33.3902 39.8794 33.3826 41.1367 33.7652 42.1755C36.6075 41.5194 39.8399 40.5356 42.6822 39.6607C44.5406 36.8174 46.8909 33.0446 48.5853 30.3107C48.64 30.3654 48.5307 30.256 48.5853 30.3107Z" fill="#649700"/>
<path d="M41.6445 20.1404C42.4644 19.5936 43.3903 18.7188 44.2102 18.172C44.2102 18.1173 44.1504 18.1171 44.1556 17.9532C37.5965 18.7188 31.201 17.0235 25.6258 20.5776C23.7674 20.523 21.9623 20.6323 20.1585 20.5776C16.4963 17.3516 12.0162 18.8282 7.31555 17.5159C7.91679 18.5001 8.45826 19.4841 8.89553 20.5776C8.89553 20.523 8.89553 20.6323 8.89553 20.5776C12.7763 21.7259 15.4545 19.1919 19.2807 21.3791C19.4446 21.4884 19.9399 21.762 20.1585 21.926H25.6258C35.2187 17.646 36.2545 22.4216 41.6445 20.1404C41.6908 20.0308 41.4806 20.1404 41.6445 20.1404Z" fill="#649700"/>
<path d="M6.44288 39.8792C6.49753 39.6605 6.44288 39.9339 6.44288 39.8792C9.23051 40.754 11.9088 41.7929 14.6964 42.6678C15.4069 41.3555 16.1174 40.0979 16.8827 38.8403V38.731C10.9796 36.6532 5.28821 33.5365 0.423584 29.5996C2.28198 32.9897 4.52983 36.5438 6.44288 39.8792Z" fill="#649700"/>
<path d="M33.9885 37.6372C34.4804 41.1367 33.7152 44.2533 31.5835 47.0419C29.5611 45.4563 28.14 43.2691 27.9214 40.6992C27.3747 42.5583 26.5002 44.0893 25.1884 45.4563C24.3138 43.8706 23.7126 42.2849 23.6033 40.4805C23.0568 43.105 22.0729 45.1282 20.3784 47.2606C19.4492 45.0188 18.9027 42.5036 18.848 40.0977C18.5747 43.7065 18.0281 47.37 16.607 50.7601C14.8032 46.3858 13.7648 41.6834 13.4914 36.9811C13.4368 35.3407 15.2952 34.3565 16.771 33.591C17.6455 34.3565 18.1921 35.7235 18.5747 36.8717C19.3399 35.8875 20.1598 35.2861 21.1983 34.6299C22.2915 35.2861 23.002 36.489 23.4393 37.6919C23.8766 36.0515 24.7511 34.5205 25.9536 33.3176C27.0468 34.1925 27.7027 35.3954 28.0306 36.7624C29.0145 35.3407 30.4903 34.4112 32.1301 34.0285C33.0593 34.958 33.8245 36.3796 33.9885 37.6372Z" fill="#649700"/>
<path d="M16.6868 49.011C17.3463 46.4486 17.9552 42.7807 18.2088 40.1681C17.6508 39.0125 16.9404 37.9071 16.0273 37.0027C15.1647 38.0076 14.5559 39.1632 14.2515 40.4193C14.3023 40.4193 15.5199 46.6495 16.6868 49.011Z" fill="url(#paint2_linear_0_151)"/>
<path d="M22.9585 39.3565C22.6288 41.6576 21.7808 43.8493 20.5559 45.7121C19.9906 43.4657 19.6608 41.1646 19.6608 38.8634C19.6608 38.8634 20.6972 37.0553 21.3569 36.343C22.2048 37.0005 22.6288 38.3154 22.9585 39.3565Z" fill="url(#paint3_linear_0_151)"/>
<path d="M25.2553 44.2606C26.15 42.8227 26.995 41.1082 27.4423 39.3937C27.2435 38.5088 26.8956 37.5133 26.3986 36.739C25.3547 37.6239 24.5594 38.8406 24.0127 40.1127C24.3109 41.4954 24.7582 43.0439 25.2553 44.2606Z" fill="url(#paint4_linear_0_151)"/>
<path d="M33.1723 37.5291C32.9461 36.4636 32.7 36.0074 32.3924 35.5513C31.0603 36.5911 29.5023 38.8269 28.7622 40.4386C28.8238 43.5666 30.0904 44.5995 31.3962 46.108C32.975 43.6123 33.7896 40.4366 33.1723 37.5291Z" fill="url(#paint5_linear_0_151)"/>
<path d="M14.2903 16.3867C15.4918 16.1359 16.6876 15.9792 17.8345 15.6031C20.0737 14.8823 22.1165 14.2202 23.9187 13.186C24.4103 13.2173 24.9092 13.2487 25.4007 13.28C25.8922 13.3113 26.3217 13.3113 26.8132 13.28C28.0693 14.1262 29.5763 14.6316 31.1601 15.2584C31.9793 15.5718 32.8041 15.7285 33.7325 15.9479C34.6063 16.1673 35.5514 16.23 36.4797 16.3553C35.6059 16.1359 34.7321 15.8853 33.8583 15.6031C33.0391 15.3211 32.1653 15.039 31.4008 14.7256C29.817 14.0988 28.3424 13.3466 27.0863 12.5317L27.0317 12.4691H26.9225C25.9394 12.5631 24.9564 12.4377 23.9187 12.375H23.8096L23.7549 12.4064C21.9527 13.4406 19.8774 14.3495 17.6383 15.039C16.4914 15.3837 15.3445 15.6972 14.143 15.9479C12.9416 16.23 11.7401 16.4807 10.5386 16.7001C11.7946 16.6374 13.0342 16.6061 14.2903 16.3867Z" fill="#649700"/>
<path d="M22.9445 27.1938C24.6936 28.3421 26.06 30.0371 26.8253 32.0055C25.8961 32.0055 25.0762 32.0055 24.147 32.0055C23.8191 31.4588 23.5457 30.9666 23.1085 30.5292C22.7805 30.9666 22.6165 31.4041 22.3979 31.8961C21.742 31.8961 20.9768 31.8961 20.2662 31.8961C20.3209 30.0371 21.3594 28.2327 22.7259 26.9751C22.8352 27.0845 22.8898 27.1392 22.9445 27.1938Z" fill="#191919"/>
<path d="M20.1765 26.0911C20.1765 27.1557 17.9881 25.383 15.1774 25.383C12.3667 25.383 9.99817 27.1557 9.99817 26.0911C9.99817 25.0265 12.3667 22.1965 15.1774 22.1965C17.9881 22.1965 20.1765 25.0265 20.1765 26.0911Z" fill="#191919"/>
<path d="M37.9209 26.0911C37.9209 27.1557 35.7324 25.383 32.9218 25.383C30.1111 25.383 27.7426 27.1557 27.7426 26.0911C27.7426 25.0265 30.1111 22.1965 32.9218 22.1965C35.7324 22.1965 37.9209 25.0265 37.9209 26.0911Z" fill="#191919"/>
</g>
<defs>
<linearGradient id="paint0_linear_0_151" x1="-5.38826" y1="15.5611" x2="-0.324208" y2="49.9176" gradientUnits="userSpaceOnUse">
<stop offset="0.153796" stop-color="#B4D109"/>
<stop offset="0.684991" stop-color="#87CC00"/>
</linearGradient>
<linearGradient id="paint1_linear_0_151" x1="2.62617" y1="-4.06005" x2="10.0121" y2="31.9809" gradientUnits="userSpaceOnUse">
<stop offset="0.153796" stop-color="#B4D109"/>
<stop offset="0.684991" stop-color="#87CC00"/>
</linearGradient>
<linearGradient id="paint2_linear_0_151" x1="13.7738" y1="34.3112" x2="24.7714" y2="44.0203" gradientUnits="userSpaceOnUse">
<stop offset="0.153796" stop-color="#B4D109"/>
<stop offset="0.684991" stop-color="#87CC00"/>
</linearGradient>
<linearGradient id="paint3_linear_0_151" x1="19.2628" y1="34.243" x2="27.8951" y2="42.3827" gradientUnits="userSpaceOnUse">
<stop offset="0.153796" stop-color="#B4D109"/>
<stop offset="0.684991" stop-color="#87CC00"/>
</linearGradient>
<linearGradient id="paint4_linear_0_151" x1="23.5988" y1="35.0531" x2="30.4042" y2="43.3659" gradientUnits="userSpaceOnUse">
<stop offset="0.153796" stop-color="#B4D109"/>
<stop offset="0.684991" stop-color="#87CC00"/>
</linearGradient>
<linearGradient id="paint5_linear_0_151" x1="28.205" y1="33.1851" x2="37.8274" y2="44.4587" gradientUnits="userSpaceOnUse">
<stop offset="0.153796" stop-color="#B4D109"/>
<stop offset="0.684991" stop-color="#87CC00"/>
</linearGradient>
<clipPath id="clip0_0_151">
<rect width="49" height="51" fill="white" transform="translate(0 0.5)"/>
</clipPath>
</defs>
</svg>
