<svg width="49" height="51" viewBox="0 0 49 51" fill="none" xmlns="http://www.w3.org/2000/svg">
<g clip-path="url(#clip0_0_52)">
<g filter="url(#filter0_i_0_52)">
<path d="M42.572 24.7801C44.9224 26.0924 46.8355 27.8422 48.5845 29.8105C43.7199 33.31 38.4727 36.1533 32.8975 38.3404H16.8278V38.231C10.9247 36.1533 5.28882 33.0365 0.424194 29.0996C2.22794 27.842 4.36558 26.4752 6.49728 25.9284C7.31715 23.96 8.07642 22.0461 8.8963 20.0777C12.777 21.226 15.6434 18.4183 19.4107 20.9307C19.5747 21.0401 19.8676 21.2172 20.0862 21.3812L25.8059 21.3362C32.8767 17.1913 36.177 20.9527 41.6429 19.6404C41.9709 21.39 42.244 23.0851 42.572 24.7801Z" fill="#FF0420"/>
<path d="M40.058 11.7668C41.807 13.2978 43.2828 15.3208 44.1573 17.508C37.5984 18.2735 31.094 16.7908 25.5188 20.3449C23.6604 20.2902 21.9112 20.2356 20.1075 20.1809C16.4454 16.9548 12.0285 18.3584 7.32784 17.0461C7.27318 16.9367 7.20807 16.8518 7.09875 16.6878C8.46522 15.2661 9.72241 13.9539 11.3075 12.751C12.9472 8.26732 14.8603 4.05708 17.4293 0.0108717C24.3709 -0.098485 31.4765 0.612336 38.1995 2.36205C39.0741 5.36936 39.566 8.65007 40.058 11.7668Z" fill="#FF0420"/>
<path d="M48.5853 29.8107C43.7207 33.3102 38.4735 36.1535 32.8983 38.3406H33.0076C33.3902 39.3794 33.3826 40.6367 33.7652 41.6755C36.6075 41.0194 39.8399 40.0356 42.6822 39.1607C44.5406 36.3174 46.8909 32.5446 48.5853 29.8107C48.64 29.8654 48.5307 29.756 48.5853 29.8107Z" fill="#A70013"/>
<path d="M41.6445 19.6406C42.4644 19.0939 43.3903 18.219 44.2102 17.6723C44.2102 17.6176 44.1504 17.6173 44.1556 17.4535C37.5965 18.219 31.201 16.5238 25.6258 20.0778C23.7674 20.0232 21.9623 20.1325 20.1585 20.0778C16.4963 16.8519 12.0162 18.3284 7.31555 17.0161C7.91679 18.0003 8.45826 18.9843 8.89553 20.0778C8.89553 20.0232 8.89553 20.1325 8.89553 20.0778C12.7763 21.2261 15.4545 18.6922 19.2807 20.8793C19.4446 20.9886 19.9399 21.2623 20.1585 21.4263H25.6258C35.2187 17.1462 36.2545 21.9218 41.6445 19.6406C41.6908 19.5311 41.4806 19.6406 41.6445 19.6406Z" fill="#A70013"/>
<path d="M6.44288 39.3792C6.49753 39.1605 6.44288 39.4339 6.44288 39.3792C9.23051 40.254 11.9088 41.2929 14.6964 42.1678C15.4069 40.8555 16.1174 39.5979 16.8827 38.3403V38.231C10.9796 36.1532 5.28821 33.0365 0.423584 29.0996C2.28198 32.4897 4.52983 36.0438 6.44288 39.3792Z" fill="#A70013"/>
<path d="M33.9885 37.1375C34.4804 40.6369 33.7152 43.7536 31.5835 46.5422C29.5611 44.9565 28.14 42.7694 27.9214 40.1994C27.3747 42.0585 26.5002 43.5895 25.1884 44.9565C24.3138 43.3708 23.7126 41.7851 23.6033 39.9808C23.0568 42.6053 22.0729 44.6284 20.3784 46.7609C19.4492 44.519 18.9027 42.0038 18.848 39.598C18.5747 43.2067 18.0281 46.8703 16.607 50.2603C14.8032 45.886 13.7648 41.1837 13.4914 36.4813C13.4368 34.8409 15.2952 33.8568 16.771 33.0913C17.6455 33.8568 18.1921 35.2237 18.5747 36.3719C19.3399 35.3878 20.1598 34.7863 21.1983 34.1302C22.2915 34.7863 23.002 35.9892 23.4393 37.1922C23.8766 35.5518 24.7511 34.0208 25.9536 32.8179C27.0468 33.6927 27.7027 34.8956 28.0306 36.2626C29.0145 34.8409 30.4903 33.9114 32.1301 33.5287C33.0593 34.4583 33.8245 35.8799 33.9885 37.1375Z" fill="#A70013"/>
<path d="M16.6868 48.5113C17.3463 45.9488 17.9552 42.281 18.2088 39.6684C17.6508 38.5127 16.9404 37.4073 16.0273 36.5029C15.1647 37.5079 14.5559 38.6635 14.2515 39.9196C14.3023 39.9196 15.5199 46.1498 16.6868 48.5113Z" fill="#FF0420"/>
<path d="M22.9585 38.8563C22.6288 41.1574 21.7808 43.3491 20.5559 45.2119C19.9906 42.9655 19.6608 40.6643 19.6608 38.3631C19.6608 38.3631 20.6972 36.5551 21.3569 35.8428C22.2048 36.5003 22.6288 37.8152 22.9585 38.8563Z" fill="#FF0420"/>
<path d="M25.2553 43.7604C26.15 42.3225 26.995 40.6079 27.4423 38.8935C27.2435 38.0085 26.8956 37.0131 26.3986 36.2388C25.3547 37.1236 24.5594 38.3404 24.0127 39.6124C24.3109 40.9951 24.7582 42.5437 25.2553 43.7604Z" fill="#FF0420"/>
<path d="M33.1723 37.0291C32.9461 35.9636 32.7 35.5074 32.3924 35.0513C31.0603 36.0911 29.5023 38.3269 28.7622 39.9386C28.8238 43.0666 30.0904 44.0995 31.3962 45.608C32.975 43.1123 33.7896 39.9366 33.1723 37.0291Z" fill="#FF0420"/>
<path d="M14.2903 15.8867C15.4918 15.6359 16.6876 15.4792 17.8345 15.1031C20.0737 14.3823 22.1165 13.7202 23.9187 12.686C24.4103 12.7173 24.9092 12.7487 25.4007 12.78C25.8922 12.8113 26.3217 12.8113 26.8132 12.78C28.0693 13.6262 29.5763 14.1316 31.1601 14.7584C31.9793 15.0718 32.8041 15.2285 33.7325 15.4479C34.6063 15.6673 35.5514 15.73 36.4797 15.8553C35.6059 15.6359 34.7321 15.3853 33.8583 15.1031C33.0391 14.8211 32.1653 14.539 31.4008 14.2256C29.817 13.5988 28.3424 12.8466 27.0863 12.0317L27.0317 11.9691H26.9225C25.9394 12.0631 24.9564 11.9377 23.9187 11.875H23.8096L23.7549 11.9064C21.9527 12.9406 19.8774 13.8495 17.6383 14.539C16.4914 14.8837 15.3445 15.1972 14.143 15.4479C12.9416 15.73 11.7401 15.9807 10.5386 16.2001C11.7946 16.1374 13.0342 16.1061 14.2903 15.8867Z" fill="#A70013"/>
<path d="M22.9445 26.6938C24.6936 27.8421 26.06 29.5371 26.8253 31.5055C25.8961 31.5055 25.0762 31.5055 24.147 31.5055C23.8191 30.9588 23.5457 30.4666 23.1085 30.0292C22.7805 30.4666 22.6165 30.9041 22.3979 31.3961C21.742 31.3961 20.9768 31.3961 20.2662 31.3961C20.3209 29.5371 21.3594 27.7327 22.7259 26.4751C22.8352 26.5845 22.8898 26.6392 22.9445 26.6938Z" fill="#F0EBDF"/>
<path d="M20.1765 25.5909C20.1765 26.6555 17.9881 24.8828 15.1774 24.8828C12.3667 24.8828 9.99817 26.6555 9.99817 25.5909C9.99817 24.5262 12.3667 21.6963 15.1774 21.6963C17.9881 21.6963 20.1765 24.5262 20.1765 25.5909Z" fill="#F0EBDF"/>
<path d="M37.9209 25.5909C37.9209 26.6555 35.7324 24.8828 32.9218 24.8828C30.1111 24.8828 27.7426 26.6555 27.7426 25.5909C27.7426 24.5262 30.1111 21.6963 32.9218 21.6963C35.7324 21.6963 37.9209 24.5262 37.9209 25.5909Z" fill="#F0EBDF"/>
</g>
</g>
<defs>
<filter id="filter0_i_0_52" x="0.423584" y="0" width="48.1775" height="54.2603" filterUnits="userSpaceOnUse" color-interpolation-filters="sRGB">
<feFlood flood-opacity="0" result="BackgroundImageFix"/>
<feBlend mode="normal" in="SourceGraphic" in2="BackgroundImageFix" result="shape"/>
<feColorMatrix in="SourceAlpha" type="matrix" values="0 0 0 0 0 0 0 0 0 0 0 0 0 0 0 0 0 0 127 0" result="hardAlpha"/>
<feOffset dy="4"/>
<feGaussianBlur stdDeviation="2"/>
<feComposite in2="hardAlpha" operator="arithmetic" k2="-1" k3="1"/>
<feColorMatrix type="matrix" values="0 0 0 0 0 0 0 0 0 0 0 0 0 0 0 0 0 0 0.25 0"/>
<feBlend mode="normal" in2="shape" result="effect1_innerShadow_0_52"/>
</filter>
<clipPath id="clip0_0_52">
<rect width="49" height="51" fill="white"/>
</clipPath>
</defs>
</svg>
