<svg width="280" height="280" viewBox="0 0 280 280" fill="none" xmlns="http://www.w3.org/2000/svg">
<path d="M93.7802 245.579C93.7802 245.579 93.7507 245.579 93.7802 245.579C93.7802 245.608 93.7802 245.608 93.8096 245.608V245.579C93.8096 245.55 93.8391 245.52 93.8391 245.491L93.8096 245.52C93.8096 245.55 93.7802 245.55 93.7802 245.579C93.7802 245.579 93.7802 245.55 93.7802 245.579Z" fill="white"/>
<path d="M93.7793 245.551C93.7793 245.551 93.8103 245.551 93.7793 245.551C93.8103 245.551 93.8103 245.52 93.7793 245.551C93.8103 245.52 93.8103 245.52 93.7793 245.551Z" fill="white"/>
<path d="M93.7505 245.58C93.7802 245.58 93.7803 245.55 93.7803 245.55L93.81 245.52C93.81 245.52 93.7802 245.52 93.7505 245.58C93.7505 245.55 93.7505 245.55 93.7505 245.58Z" fill="white"/>
<path d="M93.7813 245.55C93.7813 245.55 93.7813 245.581 93.7813 245.55C93.7503 245.581 93.7503 245.581 93.7813 245.55C93.7813 245.581 93.7503 245.581 93.7813 245.55C93.7813 245.55 93.7813 245.581 93.7813 245.55Z" fill="white"/>
<path d="M93.7205 245.579C93.7205 245.579 93.7502 245.579 93.7502 245.55C93.7502 245.579 93.7205 245.579 93.7205 245.579Z" fill="white"/>
<path d="M93.8702 245.433C93.8702 245.433 93.8392 245.402 93.8702 245.433C93.8392 245.402 93.8392 245.402 93.8702 245.433C93.8392 245.433 93.8392 245.433 93.8702 245.433Z" fill="white"/>
<path d="M89.8635 242.693C89.628 242.635 89.7458 242.664 89.8635 242.693V242.693Z" fill="white"/>
<path d="M88.5681 246.138C88.5976 246.168 88.627 246.227 88.627 246.256C88.6565 246.315 88.7153 246.374 88.7448 246.403C88.7153 246.374 88.7153 246.345 88.6859 246.315C88.6565 246.256 88.627 246.197 88.5681 246.138Z" fill="white"/>
<path d="M195.715 119.323C195.803 119.235 195.832 119.206 195.715 119.323V119.323Z" fill="white"/>
<path d="M153.816 43.2701L153.846 43.2404C153.816 43.2701 153.816 43.2701 153.816 43.2701Z" fill="white"/>
<path d="M155.583 107.222C155.554 107.281 155.554 107.311 155.583 107.222V107.222Z" fill="white"/>
<path d="M223.627 154.686C224.157 156.511 224.599 158.337 224.952 160.192C225.541 160.692 226.13 161.222 226.66 161.752C226.866 161.958 227.072 162.164 227.278 162.4C226.307 160.309 225.335 158.219 224.334 156.128C224.099 155.657 223.863 155.157 223.627 154.686Z" fill="#FF0420"/>
<path d="M194.448 122.121C194.448 122.091 194.478 122.032 194.478 121.973C194.448 121.973 194.448 122.062 194.448 122.121Z" fill="white"/>
<path d="M158.38 83.7847C158.38 83.7552 158.409 83.7553 158.409 83.7258C158.468 83.6375 158.439 83.6375 158.38 83.7847Z" fill="white"/>
<path d="M88.5396 246.08C88.5693 246.109 88.5693 246.109 88.5991 246.139C88.5991 246.139 88.5991 246.139 88.5991 246.109C88.5693 246.109 88.5396 246.109 88.5396 246.08Z" fill="white"/>
<path d="M93.8093 245.255C93.8093 245.255 93.8093 245.285 93.8093 245.255C93.8093 245.285 93.8093 245.314 93.8388 245.343C93.8093 245.314 93.8093 245.255 93.8093 245.255Z" fill="white"/>
<path d="M87.686 244.372C87.7155 244.519 87.7155 244.46 87.686 244.372V244.372Z" fill="white"/>
<path d="M158.056 68.2676C158.056 68.3271 158.026 68.3271 158.056 68.2676V68.2676Z" fill="white"/>
<path d="M143.393 109.99C142.539 114.112 141.008 118.057 140.124 122.179C139.565 125.065 139.035 127.951 138.181 130.748C137.798 132.014 137.327 133.25 136.768 134.428C136.856 134.458 136.974 134.487 137.062 134.516C138.328 134.899 139.594 135.223 140.89 135.488C142.951 135.9 145.042 136.195 147.132 136.136C147.78 136.077 148.457 135.989 149.105 135.841C149.458 135.753 149.841 135.665 150.194 135.576C150.253 135.576 150.371 135.518 150.459 135.488C150.577 135.459 150.695 135.4 150.724 135.4C153.463 134.428 156.054 133.015 158.762 131.896C159.499 131.602 160.205 131.278 160.941 130.983C161.736 130.63 162.59 130.424 163.444 130.188C163.473 130.188 163.473 130.188 163.503 130.188C164.062 129.923 164.651 129.658 165.24 129.423C169.568 127.509 174.191 126.066 178.814 125.006C181.051 124.506 183.289 124.034 185.556 123.711C186.44 120.501 187.353 117.262 188.059 114.024C188.354 112.551 188.589 111.109 188.825 109.636C189.59 104.248 189.826 98.7716 189.531 93.3244C189.414 91.5578 189.266 89.8206 189.06 88.054C188.265 81.3996 186.793 74.8337 184.761 68.4443C184.084 66.3538 183.348 64.2633 182.553 62.2317C180.374 56.549 177.754 51.0724 174.486 45.9197C172.307 42.5631 169.804 39.3537 166.86 36.6154C165.446 35.3788 163.945 34.2894 162.296 33.406C161.265 32.9055 160.176 32.5227 159.086 32.2577C158.232 32.1105 157.379 32.0516 156.495 32.0516C155.612 32.14 154.758 32.2872 153.904 32.5522C153.139 32.8172 152.373 33.1705 151.666 33.5827C150.989 34.0538 150.341 34.6132 149.753 35.2316C148.928 36.2032 148.251 37.2338 147.662 38.3526C146.749 40.2665 146.102 42.2687 145.66 44.3297C144.688 49.3352 144.57 54.429 144.835 59.4934C145.1 63.6155 145.542 67.7377 145.866 71.8598C146.543 80.2219 146.484 88.584 145.572 96.9166C145.012 101.274 144.305 105.632 143.393 109.99ZM150.665 78.8969C150.636 78.5141 150.577 78.1019 150.606 77.7192C150.606 77.5425 150.577 77.3953 150.577 77.2186C150.548 76.6003 150.489 75.982 150.43 75.3636C150.224 72.6842 149.87 70.0343 149.458 67.4138C148.575 62.1139 147.485 56.7551 147.839 51.3374C148.015 48.658 148.545 45.9492 149.576 43.4464C150.106 42.1803 150.754 40.9731 151.608 39.8837C152.049 39.3243 152.579 38.7943 153.109 38.2937C153.374 38.0582 153.669 37.7638 153.963 37.6165C154.228 37.4988 154.581 37.4399 154.876 37.3515C154.964 37.3221 155.023 37.3221 155.111 37.3515C155.288 37.2632 155.465 37.2043 155.671 37.116C156.937 36.6743 158.291 36.4976 159.616 36.7038C160.323 36.8215 161 37.0571 161.56 37.4988C162.001 37.8226 162.413 38.3232 162.443 38.8826C162.443 38.8532 162.443 38.8532 162.443 38.8237C162.443 38.7943 162.443 38.7943 162.443 38.7648C162.443 38.7943 162.443 38.7943 162.443 38.8237C162.443 38.8532 162.472 38.8826 162.531 38.912C162.796 39.2654 162.472 39.6776 162.06 39.5893C162.031 39.5893 162.031 39.5893 162.001 39.5893C161.56 39.7365 161.118 39.7954 160.617 39.8248C160.853 39.7954 160.47 39.8543 160.441 39.8543C160.352 39.8543 160.264 39.8837 160.176 39.8837C159.94 39.9132 159.734 39.9132 159.499 39.8837C159.469 39.8837 159.381 39.8837 159.322 39.8837C159.263 39.8837 159.116 39.8837 159.086 39.9132C158.939 39.9426 158.821 39.9426 158.674 39.9721C158.439 40.0015 158.232 40.0604 157.997 40.1193C157.967 40.1193 157.967 40.1193 157.938 40.1193C157.909 40.1193 157.909 40.1193 157.879 40.1487C157.761 40.1782 157.673 40.2371 157.555 40.2665C157.349 40.3548 157.114 40.4431 156.907 40.5315C156.701 40.6198 156.495 40.7376 156.289 40.8554C156.26 40.8848 156.201 40.9142 156.142 40.9731C156.024 41.0615 155.936 41.1204 155.847 41.2087C155.406 41.562 154.964 41.9448 154.581 42.3276C154.552 42.357 154.434 42.4748 154.405 42.5337C154.287 42.6514 154.169 42.7692 154.081 42.9165C153.993 43.0048 153.904 43.0931 153.816 43.1814L153.786 43.2109C153.463 44.1237 153.198 45.0658 152.962 45.9786C152.933 46.0375 152.933 46.1258 152.903 46.1847V46.2142C152.874 46.3319 152.874 46.4497 152.844 46.5675C152.991 46.4203 153.139 46.273 153.286 46.1258C153.404 46.008 153.521 45.8608 153.669 45.7431C153.845 45.5664 154.081 45.4781 154.287 45.3308C154.346 45.272 154.464 45.1542 154.493 45.1542C154.67 45.0364 154.846 44.9481 155.023 44.8303C155.259 44.6831 155.465 44.477 155.671 44.2709C156.142 43.7998 157.114 44.2708 156.996 44.9481C156.937 45.2719 156.849 45.6253 156.819 45.9197C156.79 46.273 156.731 46.6264 156.642 46.9797C156.436 47.7452 156.054 48.393 155.671 49.0997C155.347 49.6591 154.964 50.1891 154.611 50.7485C154.434 51.043 154.258 51.308 154.11 51.6024C154.081 51.6319 154.081 51.6907 154.051 51.7496C153.963 52.0146 153.993 51.8969 154.051 51.7496C154.051 51.7202 154.081 51.6907 154.081 51.6613C154.051 51.8085 153.934 51.9557 153.904 52.0735C153.786 52.3679 153.639 52.6624 153.551 52.9863C153.521 53.104 153.492 53.1924 153.463 53.3101C153.492 53.2512 153.521 53.2218 153.551 53.1629C154.11 52.4563 154.788 51.7791 155.465 51.1902C155.789 50.9252 156.171 50.7485 156.495 50.513C156.849 50.2774 157.231 50.1302 157.555 49.8652C157.997 49.5413 158.792 49.9535 158.527 50.5424C158.468 50.6307 158.439 50.7485 158.38 50.8368C158.262 50.8368 158.232 50.9252 158.321 51.1018C158.321 51.308 158.203 51.4846 158.144 51.6613C157.997 52.0146 157.967 52.3091 157.85 52.6329C157.644 53.1629 157.526 53.2513 157.32 53.7224C157.172 54.0462 157.025 54.3407 156.878 54.6646C156.642 55.1357 156.377 55.5773 156.112 56.0484C156.083 56.1073 155.995 56.284 155.965 56.3429C155.906 56.4607 155.847 56.5784 155.789 56.6962C155.494 57.344 155.229 57.9917 154.964 58.6395C154.846 58.9928 154.729 59.3462 154.611 59.6995C154.699 59.5817 154.817 59.4639 154.905 59.3461C155.73 58.4334 156.672 57.6384 157.614 56.814C158.439 56.1073 159.705 57.2262 159.027 58.1095C158.38 58.9634 157.938 59.8467 157.526 60.8478C157.084 61.8783 156.701 62.9383 156.348 63.9689C156.171 64.4694 156.024 64.9699 155.877 65.4999C155.936 65.441 155.965 65.3822 156.024 65.3233C156.819 64.44 157.644 63.645 158.556 62.8794C159.204 62.3494 160.323 63.0266 159.97 63.8511C159.764 64.3516 159.557 64.8227 159.351 65.3233C159.322 65.4411 159.263 65.5294 159.204 65.6472C159.027 65.971 158.998 66.0888 159.057 65.9416C159.086 65.8533 159.086 65.8827 158.998 66.0299C158.88 66.236 158.792 66.4716 158.674 66.6777C158.497 67.031 158.35 67.3843 158.174 67.7082C158.115 67.826 158.056 67.9143 157.997 68.0321C157.967 68.0615 157.967 68.091 157.938 68.1499C157.702 68.621 157.496 69.0626 157.32 69.5337C156.937 70.5054 156.554 71.477 156.319 72.4781V72.5076V72.537C156.289 72.6548 156.289 72.7726 156.26 72.8904C156.23 73.0965 156.171 73.332 156.142 73.5381C156.23 73.4498 156.319 73.332 156.436 73.2437C157.29 72.4193 158.38 71.7715 159.41 71.1826C160.205 70.7115 161.147 71.8304 160.588 72.5665C160.264 73.0081 159.94 73.4498 159.646 73.9209C159.557 74.0387 159.499 74.1859 159.41 74.3331C159.381 74.3626 159.204 74.7159 159.292 74.5687C159.41 74.3331 159.116 74.922 159.057 75.0103C158.969 75.1576 158.91 75.2753 158.821 75.4225C158.762 75.5403 158.704 75.6581 158.645 75.7464C158.556 75.8937 158.497 76.0409 158.615 75.8053C158.439 76.1586 158.262 76.512 158.085 76.8358C158.056 76.8947 158.026 76.9536 157.997 76.9831C157.938 77.0714 157.909 77.1892 157.85 77.3069C157.732 77.5425 157.644 77.778 157.555 78.0136C157.261 78.6908 156.966 79.3386 156.731 80.0452C157.025 79.7214 157.32 79.4269 157.614 79.1619C158.38 78.5142 159.175 77.9842 159.999 77.4247C160.735 76.9242 161.501 77.6897 161.118 78.4258C160.676 79.2797 160.294 80.1336 159.852 80.9874C159.793 81.1052 159.734 81.223 159.675 81.3408C159.616 81.4291 159.616 81.4291 159.675 81.3702C159.734 81.2524 159.705 81.3113 159.616 81.5174C159.499 81.7824 159.322 81.9885 159.175 82.2241C158.939 82.6069 158.704 82.9896 158.497 83.3724C158.439 83.4607 158.409 83.5491 158.35 83.6374C158.35 83.6668 158.321 83.6668 158.321 83.6963C158.232 83.873 158.174 84.0202 158.085 84.1968C158.085 84.1968 158.026 84.3146 157.967 84.4324C157.938 84.4913 157.85 84.6974 157.85 84.6974C157.82 84.7857 157.761 84.874 157.732 84.9918C157.644 85.1979 157.555 85.404 157.467 85.6396C157.379 85.8457 157.32 86.0812 157.231 86.3168C157.644 85.9046 158.085 85.4924 158.615 85.2274C158.88 85.1096 159.145 84.9918 159.41 84.9035C159.528 84.874 159.646 84.8151 159.764 84.7857C159.793 84.7857 160.205 84.7268 160.058 84.7857C160.47 84.6385 161.03 84.9918 160.824 85.4924C160.794 85.3451 160.765 85.3746 160.794 85.5807C160.794 85.6101 160.794 85.669 160.794 85.6985C160.765 85.8457 160.735 85.9929 160.676 86.1401C160.588 86.3462 160.529 86.5818 160.441 86.7879C160.235 87.3473 159.881 87.8773 159.528 88.3778C158.939 89.2906 158.439 90.2328 157.909 91.2045C157.85 91.3223 157.761 91.44 157.702 91.5578C157.702 91.5578 157.614 91.705 157.585 91.7934C157.555 91.8817 157.496 91.9995 157.467 92.0289C157.408 92.1467 157.349 92.2939 157.29 92.4117C157.084 92.8828 156.878 93.3833 156.672 93.8544C156.613 94.0017 156.554 94.1489 156.495 94.2961C156.849 94.0311 157.261 93.825 157.702 93.7955C157.82 93.7367 157.967 93.6483 158.085 93.5894C158.792 93.2067 159.616 94.1489 159.116 94.7966C159.057 94.885 158.998 94.9733 158.91 95.0616C158.821 95.68 158.409 96.2099 158.085 96.7694C157.761 97.3288 157.408 97.9177 157.084 98.4771C157.055 98.5066 156.907 98.801 156.907 98.801C156.849 98.9188 156.79 99.0071 156.76 99.1249C156.642 99.4193 156.525 99.7138 156.407 100.008C156.171 100.685 155.995 101.363 155.553 101.863C155.524 101.952 155.465 102.01 155.435 102.099C155.376 102.482 155.347 102.835 155.288 103.188C155.641 103.041 155.995 102.953 156.377 103.012C156.79 103.07 157.025 103.365 157.025 103.777C157.025 104.248 156.79 104.631 156.642 105.043C156.525 105.338 156.407 105.603 156.26 105.868C156.201 105.956 156.142 106.044 156.112 106.162C156.112 106.162 156.112 106.191 156.083 106.221C155.936 106.515 155.789 106.81 155.641 107.104C155.641 107.134 155.612 107.163 155.612 107.193C155.553 107.31 155.494 107.428 155.465 107.546C155.259 108.046 154.994 108.488 154.67 108.93C154.493 109.195 154.199 109.371 153.904 109.46C153.816 109.784 153.698 110.137 153.58 110.461C153.58 110.49 153.551 110.52 153.551 110.549C154.051 110.696 154.405 111.285 154.022 111.815C153.256 112.934 152.491 114.112 151.578 115.113C151.048 116.173 150.489 117.203 149.929 118.234C149.517 118.97 148.487 119.117 147.809 118.764C147.044 118.381 146.779 117.557 146.985 116.762C147.368 115.26 147.809 113.759 148.192 112.257C148.604 110.755 149.075 109.283 149.458 107.752C149.546 107.369 149.635 106.986 149.723 106.604C149.753 106.515 149.753 106.427 149.782 106.339C149.811 106.162 149.841 105.985 149.87 105.838C149.988 105.102 150.106 104.366 150.165 103.659C150.341 102.128 150.43 100.597 150.459 99.066C150.636 93.6778 150.842 88.2895 150.754 82.9013C150.754 81.5763 150.724 80.2513 150.665 78.8969Z" fill="#F0EBDF"/>
<path d="M109.857 122.768C109.827 122.768 109.798 122.768 109.768 122.768C109.356 122.798 109.798 122.798 109.857 122.768Z" fill="white"/>
<path d="M196.628 237.717C196.569 237.659 196.54 237.6 196.481 237.541C196.54 237.659 196.599 237.717 196.628 237.717Z" fill="white"/>
<path d="M196.157 236.834C196.216 237.04 196.216 237.07 196.216 237.011C196.186 236.922 196.157 236.834 196.127 236.775C196.157 236.805 196.157 236.834 196.157 236.834Z" fill="white"/>
<path d="M197.275 238.041C197.216 238.012 197.157 238.012 197.098 237.983C196.715 237.865 197.01 238.012 197.275 238.041Z" fill="white"/>
<path d="M127.081 148.473C127.228 148.502 127.346 148.502 127.081 148.473V148.473Z" fill="white"/>
<path d="M192.446 217.813C192.711 213.721 192.711 209.628 192.505 205.506C192.387 203.739 192.24 201.973 192.063 200.235C191.327 193.817 190.002 187.486 188.059 181.362C187.647 180.096 187.205 178.8 186.734 177.564C184.791 172.352 182.347 167.317 179.402 162.606C176.664 158.396 173.455 154.568 169.745 151.182C167.478 149.18 165.004 147.413 162.325 146C162.089 145.882 161.883 145.794 161.648 145.676C161.677 145.676 161.677 145.705 161.707 145.705C160.499 145.116 159.263 144.586 157.997 144.174C157.408 143.997 156.819 143.821 156.23 143.674C155.906 143.585 155.553 143.497 155.229 143.409C155.141 143.379 155.023 143.35 154.934 143.35C154.905 143.35 154.876 143.35 154.846 143.32C154.404 143.232 153.933 143.202 153.492 143.055C153.521 143.055 153.58 143.085 153.61 143.085C153.786 143.144 153.992 143.202 153.61 143.085C153.551 143.055 153.492 143.055 153.433 143.055C153.256 143.026 153.079 142.996 152.932 142.996C152.343 142.937 151.755 142.908 151.136 142.937C150.989 142.937 150.812 142.937 150.665 142.937C150.606 142.937 150.547 142.937 150.459 142.967C150.223 142.996 149.958 142.996 149.723 143.026C151.342 143.35 152.991 143.909 154.522 144.439C156.466 145.116 158.35 146 160.175 146.942C163.62 148.708 166.83 150.946 169.745 153.537C175.692 158.867 180.109 165.58 182.847 173.059C185.497 180.243 186.852 187.781 187.735 195.377C188.677 203.415 189.266 211.483 190.356 219.492C190.679 221.936 191.003 224.379 191.474 226.823C191.592 225.94 191.71 225.086 191.828 224.203C192.093 222.083 192.328 219.963 192.446 217.813Z" fill="#FF0420"/>
<path d="M172.453 176.769C172.453 176.739 172.483 176.739 172.483 176.71C172.542 176.562 172.63 176.415 172.689 176.268C172.983 175.62 173.307 174.972 173.543 174.295C173.66 173.942 173.778 173.618 173.896 173.265C173.925 173.147 173.955 173 173.984 172.882C173.984 172.852 174.014 172.794 174.014 172.735C174.014 172.735 174.073 172.44 174.073 172.352C174.102 172.205 174.102 172.087 174.131 171.94C174.161 171.645 174.19 171.351 174.22 171.056C174.249 170.733 174.22 170.438 174.22 170.114C174.22 169.967 174.22 169.849 174.22 169.702C174.22 169.643 174.19 169.378 174.22 169.408C174.22 169.319 174.19 169.231 174.19 169.201C174.161 169.054 174.161 168.878 174.131 168.73C174.102 168.465 174.043 168.2 173.984 167.965C173.955 167.818 173.896 167.641 173.866 167.494C173.837 167.464 173.837 167.405 173.808 167.376C173.69 167.023 173.543 166.699 173.425 166.345C173.513 166.61 173.366 166.228 173.337 166.169C173.278 166.051 173.248 165.933 173.219 165.786C173.13 165.521 173.013 165.285 172.895 165.02C172.865 164.962 172.865 164.932 172.836 164.873C172.777 164.785 172.718 164.667 172.63 164.579C172.1 163.784 171.511 162.989 170.922 162.253C169.744 160.722 168.449 159.279 167.094 157.924C166.741 157.571 166.417 157.247 166.064 156.923C165.917 156.776 165.74 156.629 165.593 156.482C165.21 156.217 165.298 156.246 165.446 156.334C165.416 156.305 165.416 156.305 165.387 156.276C164.651 155.628 163.914 155.009 163.149 154.421C161.647 153.243 160.057 152.124 158.408 151.123C157.555 150.593 156.701 150.122 155.847 149.651C155.729 149.592 155.611 149.533 155.493 149.474C155.493 149.474 155.435 149.445 155.376 149.415C155.317 149.386 155.258 149.356 155.228 149.327C155.111 149.268 154.993 149.209 154.875 149.15C154.463 148.944 154.051 148.767 153.639 148.561C151.901 147.766 150.105 147.001 148.28 146.441C148.162 146.412 147.338 146.088 147.691 146.206C147.956 146.294 147.455 146.147 147.455 146.147C147.249 146.058 147.043 146 146.866 145.911C146.425 145.735 145.954 145.587 145.512 145.44C145.276 145.352 144.982 145.293 144.746 145.205C144.481 145.116 144.275 144.94 144.04 144.792C143.686 144.616 143.304 144.557 142.891 144.469C142.656 144.41 142.42 144.321 142.273 144.145C140.006 144.174 137.798 143.821 135.56 143.291C133.028 142.702 130.525 141.789 128.111 140.876C128.022 140.847 127.905 140.788 127.816 140.759C124.695 140.435 121.545 140.17 118.424 139.964C114.007 139.669 109.561 139.64 105.144 139.875C103.378 139.993 101.582 140.14 99.815 140.317C93.6318 140.994 87.5074 142.29 81.5598 144.174C80.2053 144.616 78.8509 145.087 77.5259 145.617C73.9043 147.001 70.3711 148.65 66.9556 150.534C69.635 149.621 72.3438 148.767 75.0526 148.002C81.4714 146.176 87.9491 144.675 94.4856 143.35C101.052 142.025 107.794 140.994 114.508 141.112C117.864 141.171 121.339 141.436 124.548 142.466C126.226 142.996 127.816 143.644 129.377 144.469C129.73 144.645 130.083 144.822 130.378 145.116C130.437 145.175 130.525 145.234 130.584 145.293C130.731 145.411 130.878 145.558 131.026 145.676C130.996 145.646 130.967 145.617 130.937 145.587C130.819 145.47 130.819 145.47 130.967 145.587C130.996 145.587 130.996 145.617 131.026 145.617C131.114 145.676 131.173 145.735 131.261 145.764C131.909 146.206 132.557 146.677 133.204 147.118C134.471 148.002 133.44 150.122 131.968 149.562C131.114 149.238 130.26 149.062 129.377 148.826C128.611 148.826 127.846 148.65 127.08 148.473C127.021 148.473 126.962 148.443 126.903 148.443C126.697 148.414 126.462 148.355 126.256 148.326C126.521 148.385 126.697 148.414 126.138 148.296C126.167 148.296 126.197 148.296 126.256 148.326C126.226 148.326 126.197 148.326 126.167 148.296C126.138 148.296 126.108 148.296 126.079 148.267C125.991 148.237 125.902 148.237 125.814 148.208C125.726 148.178 125.608 148.178 125.52 148.149C125.52 148.149 125.52 148.149 125.549 148.149C125.49 148.149 125.461 148.12 125.402 148.12C125.372 148.12 125.343 148.12 125.343 148.12C124.253 147.914 123.135 147.825 122.016 147.678C121.986 147.884 121.957 148.061 121.868 148.267C120.691 151.623 119.484 154.98 118.041 158.248C115.42 164.225 112.564 170.114 109.502 175.885C106.617 181.303 103.437 186.573 100.639 192.05C99.815 193.699 99.0495 195.348 98.3134 197.055C97.695 198.557 97.1062 200.059 96.6645 201.649C96.6056 201.855 96.5467 202.061 96.5173 202.267C95.9284 205.447 95.9284 208.715 96.0756 211.954C96.164 213.25 96.2523 214.545 96.3701 215.841C96.6056 218.52 96.8117 221.17 96.9 223.849C96.9295 225.057 96.9589 226.234 96.8412 227.412C96.8117 227.824 96.7234 228.266 96.6351 228.678C96.6351 229.149 96.6056 229.591 96.5762 230.003C96.5173 230.886 96.4289 231.829 96.1051 232.683C95.5456 234.096 94.7212 235.48 93.8673 236.746C93.4846 237.305 93.1018 237.835 92.6896 238.365C93.4846 238.512 94.2795 238.719 95.0451 238.984C98.0778 239.985 101.052 241.604 103.23 243.96C103.26 243.989 103.289 244.018 103.289 244.048C104.32 242.9 105.439 241.81 106.499 240.691C106.911 240.25 107.353 239.808 107.765 239.396C107.353 239.337 106.911 239.249 106.499 239.19C105.557 239.013 104.879 238.483 104.644 237.541C104.438 236.628 105.027 235.774 105.763 235.333C106.499 234.891 107.235 234.449 107.971 234.008C108.795 233.536 109.767 233.33 110.68 233.036C111.563 232.741 112.417 232.418 113.3 232.153C113.035 232.241 112.77 232.329 112.505 232.418C117.57 230.769 122.34 228.384 126.815 225.557C129.789 223.614 132.616 221.494 135.354 219.256C135.442 219.168 135.56 219.109 135.648 219.021C135.884 218.844 136.119 218.638 136.325 218.432C140.624 214.781 144.54 210.658 148.339 206.507C150.459 204.151 152.52 201.766 154.581 199.352C158.438 194.818 162.207 190.195 165.887 185.513C167.86 183.011 169.833 180.508 171.747 177.976C171.776 177.917 171.805 177.858 171.835 177.829C172.07 177.446 172.247 177.122 172.453 176.769ZM111.74 212.248C111.357 211.836 110.974 211.453 110.562 211.071C110.179 210.658 109.826 210.129 109.532 209.657C109.002 208.745 108.589 207.685 108.236 206.684C108.089 206.301 107.971 205.889 107.853 205.506C107.735 205.653 107.588 205.771 107.47 205.918C107.029 206.389 106.499 207.125 106.057 207.744C105.998 207.802 105.969 207.891 105.91 207.95C105.704 209.54 105.615 211.159 105.645 212.778C105.645 212.926 105.645 213.073 105.645 213.22C105.645 213.25 105.645 213.279 105.645 213.308C105.674 213.573 105.674 213.838 105.704 214.133C105.763 214.751 105.851 215.37 105.969 215.958C106.204 217.225 106.381 218.491 106.528 219.757C106.646 220.728 106.234 221.612 105.35 222.083C104.585 222.495 103.319 222.259 102.818 221.523C102.288 220.758 101.817 219.992 101.493 219.109C101.169 218.196 100.904 217.283 100.728 216.341C100.404 214.663 100.286 212.955 100.257 211.247C100.198 208.244 100.669 205.27 101.346 202.355C102.023 199.44 103.024 196.614 104.261 193.875C107.058 187.574 110.68 181.715 113.801 175.591C114.449 174.295 115.096 172.97 115.774 171.704C115.95 171.38 116.097 171.086 116.245 170.762C116.245 170.733 116.304 170.644 116.333 170.556C116.362 170.468 116.48 170.232 116.51 170.203C116.834 169.555 117.128 168.936 117.452 168.289C118.1 166.875 118.659 165.403 119.366 164.049C119.395 163.99 119.542 163.725 119.513 163.754C119.572 163.637 119.631 163.489 119.719 163.372C119.925 162.989 120.072 162.577 120.337 162.223C120.485 162.017 120.602 161.811 120.72 161.605C121.044 160.309 121.604 159.102 122.222 157.924C122.428 157.512 122.663 157.1 122.899 156.688C122.987 156.276 123.105 155.863 123.252 155.481C123.547 154.656 123.988 153.832 124.43 153.096C124.931 152.271 125.52 151.741 126.344 151.3C126.786 151.064 127.316 151.388 127.404 151.859C127.581 152.713 127.522 153.567 127.345 154.391C127.257 154.744 127.168 155.127 127.08 155.481C127.021 155.687 126.992 155.893 126.933 156.099C126.903 156.246 126.903 156.276 126.903 156.217C126.874 156.305 126.874 156.393 126.845 156.482C126.756 156.864 126.668 157.247 126.58 157.63C126.58 157.689 126.521 157.866 126.521 157.924C126.491 158.13 126.462 158.337 126.432 158.543C126.403 158.896 126.373 159.279 126.373 159.632C126.373 159.838 126.373 160.015 126.373 160.221C126.373 160.28 126.373 160.339 126.373 160.398C126.462 161.104 126.55 161.782 126.727 162.459C126.786 162.753 126.874 163.048 126.962 163.342C126.992 163.401 127.11 163.784 127.168 163.931C127.11 163.695 127.257 164.225 127.286 164.284C127.787 165.727 128.464 167.052 128.376 168.613C128.346 169.26 127.64 169.496 127.139 169.201C125.696 168.377 124.901 166.875 124.195 165.433C124.106 165.256 124.018 165.109 123.959 164.932C123.959 164.991 123.959 165.05 123.959 165.079V165.109C124.047 165.757 124.106 166.404 124.224 167.052C124.489 168.377 124.783 169.702 125.078 171.027C125.402 172.529 125.814 174.06 125.343 175.561C125.225 175.974 124.607 176.209 124.283 175.915C123.606 175.296 123.017 174.472 122.693 173.589C122.399 172.764 122.134 171.94 121.839 171.115C121.751 170.88 121.662 170.615 121.574 170.379C121.545 170.615 121.515 170.85 121.456 171.086C121.368 171.469 121.221 171.881 121.074 172.264V172.293C121.044 172.676 121.044 173.059 121.074 173.441C121.074 173.618 121.074 173.795 121.103 173.971C121.103 174.03 121.103 174.089 121.103 174.148C121.103 174.177 121.103 174.177 121.103 174.207C121.221 175.679 121.456 177.151 121.751 178.594C122.075 180.125 122.399 181.656 122.693 183.217C122.87 184.071 123.017 184.895 122.958 185.808C122.928 186.22 122.87 186.632 122.722 187.015C122.693 187.103 122.575 187.339 122.546 187.398C122.546 187.368 122.605 187.427 122.605 187.486C122.605 187.663 122.575 187.869 122.575 188.046C122.546 188.87 121.456 188.782 121.28 188.104C121.221 187.898 121.162 187.663 121.044 187.486C120.956 187.339 120.809 187.221 120.691 187.074C120.396 186.691 120.19 186.161 120.014 185.72C119.69 184.836 119.513 183.864 119.277 182.952C119.248 182.893 119.248 182.834 119.219 182.775C119.16 182.834 119.101 182.863 119.042 182.922C118.689 183.217 118.424 183.57 118.129 184.012C118.07 184.1 118.011 184.188 117.952 184.277C117.952 184.336 117.923 184.395 117.923 184.483C117.894 184.718 117.835 184.954 117.776 185.19C117.717 185.484 117.599 185.749 117.481 186.043C117.481 186.338 117.452 186.662 117.452 186.956C117.452 187.427 117.452 187.869 117.481 188.34C117.481 188.369 117.481 188.399 117.481 188.428C117.481 188.487 117.481 188.546 117.481 188.605C117.511 188.929 117.511 189.253 117.511 189.577C117.511 189.812 117.511 190.048 117.54 190.283C117.54 190.401 117.57 190.548 117.57 190.607C117.599 191.019 117.658 191.432 117.687 191.844C117.805 192.727 117.894 193.581 117.982 194.464C118.07 195.407 118.129 196.172 118.335 197.055C118.453 197.556 118.1 198.056 117.658 198.204C117.157 198.38 116.686 198.115 116.421 197.674C115.891 196.79 115.391 195.995 114.92 195.024C114.449 193.993 114.125 192.933 113.86 191.844C113.801 191.579 113.742 191.343 113.683 191.078C113.654 191.167 113.595 191.255 113.565 191.343C113.565 191.343 113.33 191.873 113.241 191.991C113.241 192.021 113.212 192.05 113.212 192.05C113.094 192.286 113.006 192.55 112.888 192.815C112.682 193.316 112.446 193.787 112.27 194.288C111.916 195.318 111.74 196.378 111.416 197.409C111.386 197.527 111.328 197.674 111.298 197.792C111.269 197.85 111.239 198.263 111.269 197.909C111.239 198.174 111.21 198.469 111.151 198.734C111.121 198.91 111.092 199.087 111.092 199.264C111.092 199.941 111.092 200.618 111.121 201.266C111.121 201.295 111.121 201.325 111.121 201.384C111.121 201.619 111.151 201.825 111.151 202.061C111.151 202.296 111.151 202.503 111.18 202.738C111.092 202.149 111.21 202.885 111.21 203.033C111.239 203.268 111.239 203.474 111.269 203.71C111.357 204.652 111.534 205.594 111.71 206.536C111.887 207.42 112.152 208.274 112.329 209.157C112.505 210.07 112.564 210.982 112.77 211.895C112.947 212.366 112.123 212.661 111.74 212.248Z" fill="#FF0420"/>
<path d="M197.392 238.1C197.363 238.1 197.304 238.071 197.274 238.071C197.304 238.071 197.333 238.071 197.392 238.1Z" fill="white"/>
<path d="M197.774 110.549C197.774 110.578 197.774 110.578 197.774 110.608C197.804 110.755 197.804 110.902 197.833 111.02C197.863 111.256 197.922 111.491 197.98 111.697C198.01 111.845 198.069 111.962 198.098 112.11C198.01 111.727 198.128 112.168 198.157 112.227C198.245 112.463 198.363 112.698 198.452 112.934C198.834 112.963 199.247 112.993 199.629 113.022C204.753 113.493 209.876 115.201 213.969 118.352C216.265 120.118 218.326 122.268 219.975 124.653C220.829 125.86 221.418 127.244 222.124 128.51C222.478 129.158 222.861 129.776 223.155 130.453C223.332 130.836 223.479 131.16 223.508 131.572C223.538 131.896 223.656 132.102 223.773 132.396C224.215 133.368 222.919 134.193 222.213 133.398C222.095 133.28 221.977 133.074 221.859 132.985C221.742 132.897 221.565 132.838 221.447 132.75C221.065 132.514 220.77 132.131 220.476 131.778C220.005 131.219 219.563 130.63 219.092 130.041C218.15 128.893 217.06 127.892 216.088 126.773C215.235 125.772 214.351 124.829 213.409 123.946C213.232 123.799 213.085 123.652 212.909 123.475L212.879 123.445C212.614 123.239 212.379 123.004 212.114 122.798C211.642 122.415 211.171 122.062 210.671 121.708C210.17 121.384 209.67 121.061 209.14 120.766C208.875 120.619 208.61 120.472 208.345 120.324C208.256 120.295 208.198 120.236 208.109 120.207C207.02 119.706 205.93 119.264 204.782 118.911C204.223 118.734 203.634 118.587 203.045 118.44C202.898 118.411 202.75 118.381 202.603 118.352C202.603 118.352 202.603 118.352 202.574 118.352C202.338 118.322 202.103 118.263 201.897 118.234C200.719 118.028 199.512 117.91 198.304 117.851C198.069 117.851 197.833 117.822 197.598 117.822C197.421 117.939 197.244 118.028 197.068 118.146C197.038 118.146 197.038 118.175 197.009 118.175L196.979 118.204C196.891 118.263 196.803 118.352 196.714 118.411C196.538 118.558 196.361 118.705 196.184 118.852C196.008 118.999 195.861 119.147 195.684 119.323C195.625 119.412 195.537 119.5 195.478 119.588C195.331 119.794 195.213 120.001 195.066 120.207L195.036 120.236C194.977 120.354 194.948 120.442 194.889 120.56C194.712 121.002 194.594 121.443 194.477 121.885C194.447 121.944 194.447 122.032 194.418 122.091C194.418 122.12 194.418 122.121 194.418 122.15C194.418 122.209 194.418 122.238 194.418 122.268C194.388 122.474 194.388 122.68 194.359 122.915C198.923 122.915 203.516 123.887 207.255 126.596C208.109 127.214 208.904 127.891 209.64 128.628C210.406 128.951 211.171 129.393 211.849 129.835C213.792 131.101 215.47 132.779 217.031 134.457C219.681 137.372 221.948 140.582 224.068 143.909C226.099 147.089 227.925 150.416 229.633 153.773C231.34 157.159 232.989 160.574 234.638 163.99C235.463 165.698 236.287 167.405 237.111 169.113C237.906 170.703 238.701 172.322 239.644 173.853C240.115 174.56 240.645 175.237 241.234 175.885C241.027 175.031 240.762 174.177 240.556 173.353C240.203 172.116 239.879 170.909 239.526 169.672C239.408 169.584 239.32 169.496 239.231 169.378C238.937 169.025 238.731 168.554 238.525 168.112C238.26 167.494 238.024 166.875 237.789 166.257C237.259 164.873 236.788 163.371 236.493 161.929C234.55 152.772 234.285 143.291 231.458 134.31C230.192 130.483 228.484 126.802 226.335 123.387C224.451 120.531 222.272 117.91 219.769 115.584C217.531 113.611 215.117 111.933 212.467 110.549C209.699 109.195 206.696 108.164 203.693 107.516C202.515 107.281 201.278 107.104 200.071 106.986C199.806 107.134 199.6 107.281 199.247 107.605C199.011 107.811 198.805 108.017 198.599 108.252C198.687 108.164 198.481 108.37 198.452 108.4C198.334 108.517 198.245 108.665 198.157 108.782C198.039 108.93 197.922 109.077 197.804 109.224C197.745 109.666 197.715 110.078 197.715 110.52C197.774 110.52 197.774 110.52 197.774 110.549Z" fill="#FF0420"/>
<path d="M110.268 133.132C113.448 133.132 116.628 133.25 119.808 133.486C121.986 133.662 124.165 133.869 126.315 134.222C126.55 134.104 126.815 133.986 127.051 133.869C127.757 133.545 128.464 133.162 129.141 132.779C129.318 132.691 129.465 132.573 129.642 132.485C129.642 132.485 129.907 132.308 129.966 132.279C130.025 132.22 130.083 132.19 130.172 132.131C130.967 130.453 131.556 128.686 132.027 126.89C131.938 126.831 131.85 126.802 131.762 126.743C130.054 125.889 128.287 125.183 126.491 124.623C125.549 124.329 124.577 124.064 123.606 123.858C123.135 123.74 122.664 123.652 122.222 123.534C122.134 123.504 122.045 123.504 121.957 123.475C121.692 123.416 121.427 123.387 121.191 123.328C117.688 122.739 114.125 122.562 110.562 122.709C110.356 122.709 110.12 122.739 109.914 122.739C109.885 122.768 109.649 122.739 109.59 122.768C109.119 122.798 108.678 122.827 108.207 122.886C107.323 122.974 106.44 123.063 105.527 123.18C103.702 123.416 101.876 123.71 100.08 124.064C96.4879 124.77 92.9547 125.683 89.4214 126.655C88.597 126.89 87.7725 127.097 86.9481 127.362C86.477 127.509 86.212 127.597 85.6231 127.774C85.7998 127.715 85.5348 127.803 85.5348 127.803C85.4465 127.833 85.3287 127.862 85.2403 127.891C85.0342 127.95 84.8576 128.039 84.6515 128.098C83.8565 128.421 83.0615 128.775 82.2959 129.187C81.9132 129.393 81.5304 129.629 81.1182 129.835C80.7649 130.011 80.441 130.188 80.1171 130.365C79.7638 130.571 79.3516 130.159 79.4988 129.805C79.7049 129.305 79.9404 128.804 80.2349 128.333C80.5588 127.862 81.0299 127.42 81.4715 127.067C82.3548 126.302 83.3559 125.713 84.3865 125.153C86.3592 124.093 88.5675 123.416 90.7169 122.709C98.7845 120.059 107.147 117.939 115.715 117.998C119.925 118.028 124.136 118.587 128.14 119.824C129.848 120.354 131.526 121.002 133.146 121.797C133.352 120.854 133.528 119.912 133.764 118.999C133.617 118.705 133.44 118.411 133.263 118.116C133.263 118.087 133.234 118.087 133.234 118.057C133.234 118.057 133.234 118.028 133.204 117.998C133.175 117.939 133.116 117.881 133.087 117.822C132.969 117.645 132.851 117.498 132.733 117.321C132.527 117.027 132.321 116.762 132.086 116.497C131.615 115.908 131.114 115.378 130.555 114.848C130.496 114.789 130.437 114.73 130.378 114.671C130.319 114.642 130.26 114.612 130.201 114.583C130.054 114.494 129.907 114.436 129.76 114.347C129.73 114.347 129.701 114.318 129.642 114.288C129.553 114.259 129.465 114.2 129.377 114.171C129.112 114.053 128.847 113.906 128.582 113.788C128.14 113.582 127.698 113.346 127.257 113.14C125.284 112.168 123.252 111.256 121.191 110.461C121.162 110.461 121.162 110.431 121.132 110.431C116.068 109.607 110.945 109.195 105.792 109.43C101.346 109.725 96.959 110.549 92.6897 111.874C87.6547 113.552 82.8554 115.878 78.3799 118.734C76.996 119.618 75.6711 120.56 74.3461 121.532C69.3701 125.242 64.8651 129.511 60.6841 134.075C59.2119 135.694 57.7986 137.372 56.4147 139.08C53.8531 142.26 51.4093 145.528 49.0832 148.914C46.5216 152.624 44.0777 156.393 41.9578 160.368C46.6099 156.629 51.1148 152.713 56.0025 149.297C61.2141 145.646 66.8084 142.555 72.6972 140.17C78.5566 137.785 84.6809 136.018 90.8936 134.87C97.3124 133.692 103.79 133.162 110.268 133.132ZM70.7539 133.604C70.3712 133.721 70.1356 133.957 69.8412 134.222C69.5173 134.516 69.1345 134.781 68.8106 135.076C68.0745 135.782 67.309 136.46 66.5434 137.137C65.6896 137.902 64.8063 138.609 63.8935 139.316C63.4224 139.669 62.8924 140.022 62.3624 140.346C61.8913 140.611 61.4202 140.965 60.9196 141.141C60.4191 141.318 59.6536 140.876 59.948 140.258C60.213 139.698 60.6252 139.227 60.9785 138.727C61.3908 138.197 61.8619 137.696 62.3035 137.196C63.1574 136.312 64.0113 135.488 64.924 134.693C65.7779 133.957 66.6023 133.191 67.5445 132.573C68.0451 132.249 68.5456 132.014 69.1345 131.925C69.6056 131.866 70.1356 131.837 70.6067 131.866C71.0484 131.896 71.4017 132.279 71.4311 132.691C71.49 133.132 71.1661 133.486 70.7539 133.604Z" fill="#FF0420"/>
<path d="M215.5 209.657C216.354 206.301 217.208 202.915 217.944 199.529C218.327 197.585 218.68 195.642 219.004 193.669C220.152 186.397 220.682 179.036 220.299 171.675C220.211 170.379 220.123 169.113 219.976 167.818C219.711 165.226 219.298 162.665 218.768 160.133C218.562 159.838 218.474 159.514 218.562 159.161C218.15 157.277 217.649 155.392 217.061 153.567C216.472 151.83 215.824 150.092 215.117 148.414C213.704 145.146 212.085 141.936 210.23 138.904C210.082 138.697 209.965 138.462 209.817 138.256C209.817 138.256 209.817 138.256 209.817 138.226C209.817 138.197 209.788 138.167 209.758 138.138C209.523 137.785 209.287 137.431 209.022 137.107C208.463 136.342 207.903 135.576 207.315 134.84C206.844 134.251 206.372 133.663 205.901 133.103C205.666 132.838 205.401 132.573 205.136 132.338C204.252 131.572 203.31 130.924 202.28 130.365C201.161 129.835 199.983 129.452 198.805 129.187C196.685 128.804 194.536 128.745 192.387 128.834C191.385 128.893 190.355 128.981 189.354 129.069C189.295 129.128 189.265 129.217 189.207 129.275C189.118 129.393 189.059 129.54 188.971 129.658C188.971 129.688 188.942 129.688 188.942 129.717C188.942 129.717 188.942 129.717 188.942 129.747C188.853 129.982 188.735 130.218 188.677 130.453C188.677 130.483 188.647 130.542 188.618 130.6C188.588 130.718 188.588 130.865 188.588 130.983C188.588 131.101 188.588 131.219 188.588 131.337C188.618 131.631 188.677 131.925 188.735 132.249C188.765 132.367 188.794 132.485 188.824 132.603V132.632C188.824 132.661 188.824 132.661 188.853 132.691C189.059 133.191 189.236 133.663 189.472 134.134C189.825 134.87 190.208 135.606 190.561 136.313C193.77 139.551 196.568 143.085 199.041 146.942C202.074 151.653 204.724 156.629 206.461 161.958C207.256 164.402 207.962 166.846 208.345 169.407C208.728 171.91 208.963 174.442 208.993 176.975C209.052 179.36 208.934 181.744 208.669 184.129C208.522 185.425 208.316 186.721 207.874 187.957C207.668 188.575 207.285 189.076 207.108 189.665C207.02 189.989 206.843 190.165 206.696 190.46C206.549 190.695 206.461 190.99 206.343 191.255C206.196 191.638 205.636 191.52 205.666 191.108C205.666 190.813 205.695 190.519 205.607 190.224C205.548 189.959 205.489 189.753 205.489 189.488C205.489 189.282 205.489 189.076 205.46 188.87C205.401 188.605 205.312 188.399 205.283 188.134C205.254 187.545 205.165 186.986 205.165 186.397C205.165 185.896 205.165 185.366 205.195 184.866C205.224 183.835 205.224 182.804 205.195 181.774C205.165 181.273 205.165 180.743 205.136 180.243C205.136 180.213 205.136 180.213 205.136 180.184V180.155C205.136 180.066 205.136 179.948 205.106 179.86C205.077 179.625 205.077 179.389 205.047 179.124C204.753 175.443 204.017 171.91 203.134 168.318C202.898 167.405 202.662 166.522 202.397 165.639C202.339 165.403 202.25 165.168 202.191 164.932C202.427 165.727 202.162 164.873 202.103 164.726C201.956 164.343 201.838 163.931 201.691 163.548C201.014 161.723 200.248 159.927 199.394 158.189C198.452 156.246 197.392 154.391 196.273 152.566C196.126 152.33 195.979 152.094 195.831 151.859C195.566 151.476 195.625 151.535 195.684 151.653V151.623C195.39 151.182 195.125 150.77 194.83 150.328C194.212 149.445 193.594 148.561 192.946 147.678C190.473 144.321 187.705 141.141 184.643 138.315C182.964 136.813 181.168 135.37 179.225 134.193C179.048 134.134 178.872 134.075 178.695 134.016C177.517 133.663 176.987 133.545 175.81 133.368C174.956 133.25 174.131 133.191 173.277 133.221C173.13 133.221 173.012 133.221 172.865 133.221C172.836 133.221 172.836 133.221 172.806 133.221C172.6 133.25 172.394 133.25 172.188 133.28C171.776 133.309 171.364 133.368 170.951 133.456C170.51 133.545 170.039 133.633 169.597 133.751C169.42 133.81 169.244 133.839 169.067 133.898C169.067 133.898 168.979 133.928 168.89 133.957C168.802 133.986 168.684 134.016 168.684 134.016C167.86 134.31 167.065 134.664 166.299 135.076C166.093 135.194 165.887 135.311 165.71 135.429C165.622 135.488 165.563 135.518 165.475 135.576C165.475 135.576 165.475 135.576 165.445 135.576C165.063 135.841 164.68 136.106 164.326 136.43C164.209 136.548 164.091 136.666 163.973 136.754C163.973 136.754 163.973 136.754 163.944 136.784C163.944 136.813 163.914 136.813 163.914 136.843C163.826 136.99 163.708 137.107 163.62 137.255C163.59 137.284 163.561 137.373 163.531 137.431C163.502 137.52 163.473 137.579 163.443 137.667C163.473 137.785 163.414 137.844 163.414 137.844C163.414 137.873 163.414 137.873 163.414 137.873C163.414 137.991 163.384 138.109 163.384 138.256C163.384 138.315 163.443 138.668 163.384 138.403C163.325 138.109 163.414 138.521 163.414 138.55C163.414 138.639 163.443 138.727 163.443 138.815C163.473 138.992 163.531 139.198 163.59 139.375C163.59 139.404 163.59 139.434 163.62 139.463C163.649 139.522 163.679 139.581 163.679 139.61C163.767 139.905 163.855 140.17 163.944 140.464C166.682 141.554 169.244 143.055 171.599 144.792C178.99 150.21 184.613 157.807 188.794 165.904C192.71 173.441 195.478 181.627 197.274 189.93C199.011 197.998 199.747 206.301 199.483 214.575C199.365 218.608 198.982 222.642 198.364 226.617C198.01 228.825 197.451 230.945 196.774 233.095C196.538 233.89 196.273 234.655 196.008 235.45C196.038 235.656 196.067 235.833 196.096 236.039C196.155 236.304 196.214 236.569 196.273 236.864C196.332 236.922 196.361 237.07 196.361 237.099C196.361 237.129 196.391 237.187 196.391 237.187C196.45 237.305 196.509 237.423 196.568 237.541C196.568 237.57 196.597 237.57 196.597 237.6C196.744 237.747 196.774 237.806 196.744 237.806C196.774 237.835 196.774 237.865 196.803 237.894C196.833 237.924 196.891 237.953 196.921 237.982C197.009 238.012 197.127 238.041 197.215 238.071C197.274 238.071 197.304 238.1 197.392 238.13C197.569 238.159 197.716 238.159 197.893 238.159C198.04 238.159 198.187 238.159 198.334 238.159C198.275 238.159 198.216 238.159 198.158 238.159C197.922 238.188 197.569 238.159 198.158 238.159C198.187 238.159 198.216 238.159 198.246 238.159C198.57 238.13 198.894 238.071 199.218 238.012C199.365 237.982 199.512 237.953 199.659 237.894C199.689 237.894 199.718 237.865 199.777 237.865C200.012 237.747 200.277 237.688 200.513 237.57C201.043 237.335 201.573 237.04 202.044 236.746C203.369 235.862 204.547 234.832 205.636 233.654C207.256 231.799 208.61 229.738 209.758 227.559C210.73 225.557 211.584 223.496 212.32 221.376C213.498 217.489 214.499 213.573 215.5 209.657Z" fill="#FF0420"/>
<path d="M163.327 137.696C163.297 137.755 163.297 137.785 163.327 137.814C163.327 137.755 163.356 137.726 163.356 137.667C163.356 137.667 163.356 137.696 163.327 137.696Z" fill="white"/>
<path d="M195.773 151.888C195.744 151.859 195.744 151.829 195.715 151.8L195.744 151.829C195.744 151.859 195.744 151.888 195.773 151.888Z" fill="white"/>
<path d="M195.656 151.741C195.627 151.712 195.597 151.682 195.597 151.623C195.627 151.682 195.686 151.741 195.715 151.8C195.686 151.8 195.685 151.771 195.656 151.741Z" fill="white"/>
<path d="M196.362 237.423C196.392 237.452 196.421 237.511 196.45 237.541C196.45 237.541 196.45 237.541 196.45 237.511C196.421 237.511 196.392 237.482 196.362 237.423Z" fill="white"/>
<path d="M99.9924 248.671C99.9629 248.582 99.9335 248.523 99.9041 248.494C99.9335 248.523 99.9335 248.553 99.9629 248.612C99.9924 248.641 99.9924 248.671 99.9924 248.671Z" fill="white"/>
<path d="M165.623 156.452L165.593 156.423C165.593 156.452 165.593 156.452 165.623 156.452C165.593 156.452 165.593 156.452 165.623 156.452Z" fill="white"/>
<path d="M93.1896 245.814C93.2779 245.785 93.3368 245.726 93.4251 245.697C93.4546 245.697 93.5723 245.638 93.6901 245.608C93.6901 245.608 93.6901 245.608 93.7195 245.579L93.749 245.549C93.749 245.52 93.7784 245.461 93.8373 245.402V245.373C93.8079 245.343 93.8079 245.314 93.8079 245.285C93.7784 245.226 93.749 245.137 93.7195 245.078V245.049C93.6901 245.02 93.6607 244.961 93.6312 244.931C93.5134 244.754 93.3662 244.607 93.219 244.46L93.1896 244.431C93.1307 244.372 93.0423 244.313 92.9835 244.254C92.8362 244.136 92.6596 244.018 92.5124 243.901C92.159 243.665 91.7762 243.43 91.3935 243.253C91.364 243.223 91.3346 243.223 91.2757 243.194C91.2168 243.165 91.1285 243.135 91.0696 243.106C90.8635 243.017 90.6574 242.929 90.4513 242.87C90.2746 242.811 90.1274 242.752 89.9507 242.723C89.8918 242.723 89.7741 242.693 89.7152 242.664C89.4796 242.635 89.2441 242.635 89.0085 242.605C88.9791 242.605 88.9791 242.605 88.9496 242.605C88.9202 242.605 88.9202 242.605 88.8907 242.605C88.5374 242.9 88.0958 243.194 87.6541 243.341C87.6247 243.4 87.6247 243.459 87.5952 243.518C87.5952 243.547 87.5952 243.577 87.5952 243.606C87.5952 243.665 87.5952 243.753 87.5952 243.842C87.6247 243.96 87.6541 244.077 87.6541 244.195C87.6836 244.283 87.713 244.431 87.7424 244.489C87.9191 244.902 88.0958 245.285 88.3019 245.697C88.3902 245.844 88.4785 245.991 88.5669 246.138C88.773 246.403 88.773 246.433 88.7435 246.403C88.9496 246.668 89.1557 246.933 89.3619 247.198C89.0969 246.403 89.6563 245.373 90.6279 245.52C91.2168 245.608 91.7763 245.638 92.3651 245.785C92.4535 245.815 92.5418 245.814 92.5418 245.814C92.6301 245.814 92.689 245.844 92.7773 245.844C92.8362 245.844 92.9246 245.844 92.954 245.844C93.0129 245.844 93.0718 245.814 93.1307 245.814C93.1307 245.844 93.1601 245.844 93.1896 245.814Z" fill="#FF0420"/>
<path d="M99.9318 248.494C99.8729 248.347 99.7845 248.17 99.6962 248.023C99.6373 247.934 99.5784 247.846 99.5196 247.787C99.284 247.463 99.019 247.198 98.7246 246.904C98.3712 246.61 97.9885 246.315 97.6057 246.021C97.5468 246.433 97.3996 246.874 97.164 247.287C96.3985 248.641 94.8674 249.407 93.3363 249.259C92.5413 249.201 91.8052 249.053 91.1575 248.729C91.5697 249.024 91.9819 249.259 92.3941 249.495C92.718 249.642 93.0419 249.789 93.3952 249.907C93.6013 249.966 93.8074 250.054 94.0135 250.113C94.1313 250.143 94.2491 250.172 94.3669 250.202C94.3963 250.202 94.4846 250.231 94.573 250.261C94.6613 250.29 94.7496 250.29 94.838 250.29C95.0735 250.319 95.3091 250.349 95.5446 250.378C95.9274 250.408 96.3396 250.408 96.7224 250.408C96.8107 250.408 96.899 250.408 96.9579 250.378C97.164 250.349 97.3701 250.319 97.5762 250.29C97.9296 250.231 98.4301 250.172 98.7835 250.025C98.6068 250.084 98.2535 250.202 98.6362 250.054C98.754 250.025 98.8423 249.966 98.9601 249.937C99.1662 249.848 99.3723 249.76 99.5784 249.642C99.6373 249.613 99.6668 249.583 99.7257 249.554C99.814 249.259 99.9318 248.965 100.079 248.671C99.9023 248.523 99.9023 248.464 99.9318 248.494Z" fill="#FF0420"/>
<path d="M100.023 248.759C100.023 248.73 99.9929 248.73 99.9929 248.7C100.023 248.7 100.023 248.73 100.023 248.759Z" fill="white"/>
<path d="M93.7793 245.608C93.8087 245.638 93.8676 245.608 93.8382 245.491C93.8087 245.55 93.8087 245.579 93.7793 245.608Z" fill="white"/>
<path d="M125.108 148.061C125.197 148.09 125.256 148.09 125.344 148.119H125.373C125.285 148.119 125.197 148.09 125.108 148.061Z" fill="white"/>
<path d="M165.476 156.334C165.446 156.334 165.446 156.305 165.417 156.305C165.476 156.364 165.505 156.393 165.564 156.452C165.535 156.393 165.505 156.364 165.476 156.334Z" fill="white"/>
<path d="M125.373 148.12C125.403 148.12 125.432 148.12 125.462 148.149C125.432 148.149 125.403 148.12 125.373 148.12Z" fill="white"/>
<path d="M126.199 148.296C126.169 148.296 126.14 148.296 126.081 148.267C126.67 148.385 126.464 148.355 126.199 148.296Z" fill="#636363"/>
<path d="M125.462 148.149C125.433 148.149 125.404 148.149 125.374 148.12H125.345C125.374 148.12 125.433 148.149 125.462 148.149Z" fill="#636363"/>
<path d="M93.7505 245.55C93.7799 245.52 93.8094 245.52 93.8094 245.491C93.8094 245.491 93.8094 245.461 93.8388 245.461C93.8388 245.461 93.8388 245.461 93.8388 245.432V245.402C93.7799 245.461 93.7505 245.52 93.7505 245.55Z" fill="#636363"/>
<path d="M93.8087 245.343C93.8087 245.314 93.7793 245.314 93.7793 245.285C93.7793 245.314 93.8087 245.343 93.8087 245.373C93.8382 245.373 93.8382 245.343 93.8087 245.343Z" fill="#636363"/>
<path d="M88.5681 246.138C88.627 246.227 88.6565 246.286 88.6859 246.345C88.7153 246.374 88.7153 246.403 88.7448 246.433C88.8037 246.433 88.7742 246.374 88.5681 246.138Z" fill="#636363"/>
<path d="M93.7505 245.579C93.7802 245.579 93.7802 245.55 93.7505 245.579C93.7802 245.55 93.7803 245.55 93.7803 245.55C93.7803 245.55 93.7802 245.55 93.7505 245.579Z" fill="#636363"/>
<path d="M93.8702 245.433C93.8702 245.433 93.8702 245.402 93.8702 245.433C93.8392 245.402 93.8392 245.402 93.8702 245.433C93.8702 245.433 93.8392 245.402 93.8702 245.433Z" fill="#636363"/>
<path d="M150.166 103.689C150.078 104.425 149.99 105.161 149.872 105.867C149.842 106.044 149.813 106.221 149.783 106.368C149.754 106.456 149.754 106.545 149.725 106.633C149.636 107.016 149.548 107.399 149.46 107.781C149.077 109.283 148.606 110.785 148.193 112.286C147.781 113.788 147.369 115.29 146.986 116.791C146.78 117.586 147.045 118.411 147.811 118.793C148.488 119.147 149.518 118.999 149.931 118.263C150.52 117.233 151.05 116.202 151.58 115.142C152.492 114.141 153.258 112.934 154.023 111.845C154.406 111.285 154.053 110.726 153.552 110.578C153.552 110.549 153.582 110.52 153.582 110.49C153.699 110.166 153.788 109.813 153.906 109.489C154.229 109.401 154.494 109.224 154.671 108.959C154.966 108.488 155.231 108.076 155.466 107.575C155.525 107.457 155.554 107.34 155.613 107.222C155.613 107.192 155.643 107.163 155.643 107.134C155.79 106.839 155.937 106.545 156.084 106.25C156.084 106.221 156.114 106.221 156.114 106.191C156.173 106.103 156.232 106.015 156.261 105.897C156.408 105.632 156.526 105.337 156.644 105.072C156.821 104.631 157.027 104.277 157.027 103.806C157.027 103.394 156.762 103.1 156.379 103.041C155.996 102.982 155.643 103.07 155.289 103.218C155.348 102.864 155.407 102.481 155.437 102.128C155.466 102.04 155.525 101.981 155.554 101.893C155.996 101.392 156.173 100.715 156.408 100.038C156.526 99.7431 156.644 99.4487 156.762 99.1543C156.821 99.0365 156.85 98.9187 156.909 98.8304C156.909 98.8009 157.056 98.5359 157.086 98.5065C157.409 97.9176 157.763 97.3582 158.087 96.7988C158.41 96.2688 158.823 95.7093 158.911 95.091C158.97 95.0027 159.029 94.9143 159.117 94.826C159.618 94.1782 158.793 93.236 158.087 93.6188C157.969 93.6777 157.822 93.766 157.704 93.8249C157.262 93.8543 156.879 94.0605 156.497 94.3255C156.556 94.1782 156.614 94.031 156.673 93.8838C156.879 93.4127 157.086 92.9121 157.292 92.441C157.351 92.3233 157.409 92.176 157.468 92.0583C157.468 92.0288 157.527 91.9111 157.586 91.8227C157.616 91.7344 157.704 91.5872 157.704 91.5872C157.763 91.4694 157.822 91.3516 157.91 91.2338C158.44 90.2916 158.94 89.32 159.529 88.4072C159.853 87.9067 160.207 87.3767 160.442 86.8173C160.53 86.6111 160.589 86.3756 160.678 86.1695C160.737 86.0222 160.795 85.9045 160.795 85.7278C160.795 85.6984 160.795 85.6395 160.795 85.6101C160.766 85.3745 160.766 85.345 160.825 85.5217C161.031 85.0506 160.472 84.6678 160.059 84.8151C160.207 84.7562 159.794 84.8151 159.765 84.8151C159.647 84.8445 159.529 84.9034 159.412 84.9328C159.147 85.0212 158.882 85.1389 158.617 85.2567C158.116 85.5217 157.645 85.9339 157.233 86.3462C157.321 86.1106 157.38 85.875 157.468 85.6689C157.557 85.4628 157.645 85.2273 157.733 85.0212C157.763 84.9328 157.822 84.8445 157.851 84.7267C157.851 84.7267 157.939 84.5206 157.969 84.4617C158.028 84.3734 158.087 84.2556 158.087 84.2262C158.175 84.079 158.234 83.9023 158.322 83.7256C158.381 83.6079 158.381 83.5784 158.352 83.6667C158.411 83.5784 158.44 83.4901 158.499 83.4018C158.705 83.019 158.94 82.6362 159.176 82.2534C159.323 82.0179 159.5 81.7823 159.618 81.5468C159.735 81.3407 159.735 81.2818 159.677 81.3996C159.647 81.4585 159.647 81.4585 159.677 81.3701C159.735 81.2523 159.794 81.1346 159.853 81.0168C160.295 80.1629 160.678 79.309 161.119 78.4552C161.502 77.6896 160.737 76.9241 160 77.4541C159.176 78.0429 158.381 78.5435 157.616 79.1913C157.292 79.4563 156.997 79.7507 156.732 80.0746C156.968 79.3974 157.262 78.7202 157.557 78.0429C157.674 77.8074 157.763 77.5718 157.851 77.3363C157.881 77.248 157.939 77.1302 157.998 77.0124C158.028 76.983 158.057 76.9241 158.087 76.8652C158.263 76.5119 158.44 76.188 158.617 75.8347C158.499 76.0702 158.587 75.923 158.646 75.7758C158.705 75.658 158.764 75.5402 158.823 75.4519C158.911 75.3047 158.97 75.1869 159.058 75.0397C159.117 74.9513 159.412 74.3625 159.294 74.598C159.205 74.7452 159.412 74.3919 159.412 74.3625C159.47 74.2152 159.559 74.0975 159.647 73.9502C159.912 73.4791 160.236 73.0375 160.589 72.5958C161.149 71.8892 160.207 70.7703 159.412 71.212C158.381 71.8009 157.321 72.4486 156.438 73.273C156.349 73.3614 156.232 73.4497 156.143 73.5675C156.173 73.3614 156.232 73.1258 156.261 72.9197C156.291 72.8019 156.291 72.6842 156.32 72.5664V72.5369V72.5075C156.556 71.477 156.909 70.5053 157.321 69.5631C157.527 69.092 157.733 68.6209 157.939 68.1792C157.969 68.1498 157.969 68.1203 157.998 68.0614C158.057 67.9437 158.116 67.8553 158.175 67.7376C158.352 67.3842 158.499 67.0604 158.675 66.707C158.764 66.5009 158.882 66.2654 158.999 66.0593C159.058 65.9121 159.088 65.8826 159.058 65.9709C158.999 66.1182 159.029 66.0298 159.206 65.6765C159.264 65.5587 159.294 65.4704 159.353 65.3526C159.559 64.8521 159.765 64.381 159.971 63.8804C160.324 63.056 159.205 62.3788 158.558 62.9088C157.645 63.6743 156.791 64.4399 156.026 65.3526C155.967 65.4115 155.937 65.4704 155.878 65.5293C156.026 64.9993 156.173 64.4988 156.349 63.9982C156.703 62.9382 157.086 61.8783 157.527 60.8772C157.939 59.8761 158.381 58.9927 159.029 58.1389C159.706 57.2555 158.411 56.1367 157.616 56.8433C156.673 57.6677 155.731 58.4627 154.907 59.3755C154.789 59.4933 154.701 59.6111 154.612 59.7288C154.701 59.3755 154.818 59.0222 154.966 58.6689C155.201 58.0211 155.496 57.3439 155.79 56.7255C155.849 56.6078 155.908 56.49 155.967 56.3722C155.996 56.3133 156.084 56.1072 156.114 56.0778C156.349 55.6067 156.644 55.165 156.879 54.6939C157.027 54.37 157.174 54.0756 157.321 53.7517C157.557 53.2806 157.674 53.1923 157.851 52.6623C157.969 52.3384 157.998 52.0145 158.146 51.6906C158.204 51.514 158.322 51.3373 158.322 51.1312C158.234 50.9545 158.234 50.8957 158.381 50.8662C158.44 50.7779 158.469 50.6601 158.528 50.5718C158.793 49.9829 157.998 49.5707 157.557 49.8946C157.233 50.1596 156.85 50.2773 156.497 50.5423C156.143 50.7779 155.79 50.9545 155.466 51.2195C154.789 51.8084 154.082 52.4856 153.552 53.1923C153.523 53.2217 153.493 53.2806 153.464 53.3395C153.493 53.2217 153.523 53.1334 153.552 53.0156C153.67 52.7212 153.788 52.3973 153.906 52.1029C153.964 51.9851 154.053 51.8379 154.082 51.6906C154.082 51.7201 154.053 51.7495 154.053 51.779C154.082 51.7201 154.082 51.6906 154.112 51.6318C154.288 51.3373 154.436 51.0429 154.612 50.7779C154.966 50.2184 155.348 49.6885 155.672 49.129C156.055 48.4518 156.438 47.7746 156.644 47.009C156.732 46.6557 156.791 46.3024 156.821 45.9491C156.85 45.6546 156.938 45.3013 156.997 44.9774C157.115 44.3002 156.143 43.8291 155.672 44.3002C155.466 44.5063 155.26 44.7124 155.024 44.8597C154.848 44.9774 154.671 45.0658 154.494 45.1835C154.465 45.1835 154.347 45.3013 154.288 45.3602C154.082 45.5074 153.876 45.5957 153.67 45.7724C153.523 45.8902 153.405 46.0374 153.287 46.1552C153.14 46.3024 152.993 46.4496 152.846 46.5969C152.875 46.4791 152.904 46.3613 152.904 46.2435V46.2141C152.934 46.1552 152.934 46.0669 152.963 46.008C153.169 45.0658 153.464 44.1236 153.788 43.2402L153.817 43.2108C153.906 43.1225 153.994 43.0341 154.082 42.9458C154.2 42.828 154.318 42.7102 154.406 42.563C154.465 42.5041 154.553 42.3864 154.583 42.3569C154.966 41.9447 155.407 41.5619 155.849 41.238C155.937 41.1497 156.055 41.0908 156.143 41.0025C156.202 40.9436 156.291 40.9142 156.291 40.8847C156.497 40.7669 156.703 40.6492 156.909 40.5608C157.115 40.4725 157.321 40.3842 157.557 40.2958C157.674 40.2664 157.763 40.2075 157.881 40.1781C157.91 40.1781 157.91 40.1486 157.939 40.1486C157.939 40.1486 157.969 40.1486 157.998 40.1486C158.234 40.0897 158.44 40.0308 158.675 40.0014C158.823 39.972 158.94 39.9719 159.088 39.9425C159.117 39.9425 159.264 39.9425 159.323 39.9131C159.382 39.9131 159.5 39.9131 159.5 39.9131C159.735 39.9131 159.942 39.9131 160.177 39.9131C160.265 39.9131 160.354 39.8836 160.442 39.8836C160.442 39.8836 160.854 39.8542 160.619 39.8542C161.119 39.8247 161.561 39.7953 162.003 39.6186C162.032 39.6186 162.032 39.6186 162.062 39.6186C162.474 39.7069 162.768 39.2948 162.533 38.9414C162.474 38.912 162.474 38.8825 162.444 38.8531C162.444 38.8825 162.444 38.8825 162.444 38.912C162.415 38.3525 162.003 37.8814 161.561 37.5281C160.972 37.0864 160.324 36.8509 159.618 36.7331C158.293 36.527 156.909 36.6742 155.672 37.1453C155.496 37.2042 155.289 37.2926 155.113 37.3809C155.024 37.3809 154.936 37.3809 154.877 37.3809C154.583 37.4398 154.229 37.4987 153.964 37.6459C153.67 37.7931 153.346 38.0875 153.111 38.3231C152.581 38.7942 152.051 39.3536 151.609 39.9131C150.755 41.0025 150.107 42.2097 149.577 43.4758C148.517 45.9785 148.017 48.6874 147.84 51.3668C147.487 56.7844 148.606 62.1138 149.46 67.4431C149.901 70.0931 150.225 72.743 150.431 75.393C150.49 76.0113 150.52 76.6297 150.578 77.248C150.578 77.4246 150.608 77.5718 150.608 77.7485C150.578 78.1018 150.637 78.5435 150.667 78.9263C150.726 80.2807 150.755 81.6057 150.785 82.9601C150.873 88.3483 150.667 93.7366 150.49 99.1248C150.431 100.626 150.343 102.158 150.166 103.689ZM155.584 107.222C155.554 107.31 155.554 107.281 155.584 107.222V107.222ZM153.817 43.2697L153.847 43.2402C153.817 43.2697 153.817 43.2697 153.817 43.2697ZM158.057 68.2676C158.028 68.3265 158.057 68.3265 158.057 68.2676V68.2676Z" fill="#444444"/>
<path d="M154.052 51.8673C154.022 52.0145 153.993 52.1323 154.052 51.8673V51.8673Z" fill="#636363"/>
<path d="M158.38 83.7852C158.38 83.7555 158.409 83.7555 158.409 83.7257C158.409 83.7257 158.409 83.7555 158.38 83.7852Z" fill="#636363"/>
<path d="M70.6372 131.837C70.1661 131.808 69.6361 131.837 69.165 131.896C68.5467 131.984 68.0756 132.22 67.5751 132.544C66.6034 133.162 65.8084 133.898 64.9546 134.664C64.0418 135.459 63.1879 136.283 62.3341 137.166C61.863 137.667 61.3918 138.168 61.0091 138.698C60.6263 139.198 60.2435 139.669 59.9785 140.229C59.6841 140.847 60.4496 141.289 60.9502 141.112C61.4507 140.935 61.9218 140.611 62.3929 140.317C62.9229 139.993 63.4235 139.669 63.924 139.286C64.8368 138.58 65.7201 137.873 66.574 137.108C67.3395 136.43 68.0756 135.724 68.8412 135.046C69.165 134.752 69.5478 134.487 69.8717 134.193C70.1661 133.928 70.3722 133.663 70.7844 133.574C71.1967 133.457 71.5206 133.103 71.4911 132.662C71.4322 132.249 71.0789 131.867 70.6372 131.837Z" fill="#444444"/>
<path d="M112.33 209.039C112.154 208.156 111.889 207.302 111.712 206.419C111.535 205.476 111.388 204.534 111.27 203.592C111.241 203.356 111.212 203.15 111.212 202.915C111.212 202.767 111.094 202.031 111.182 202.62C111.153 202.414 111.153 202.179 111.153 201.943C111.153 201.707 111.123 201.501 111.123 201.266C111.123 201.236 111.123 201.207 111.123 201.148C111.094 200.471 111.094 199.794 111.094 199.146C111.123 198.969 111.123 198.793 111.153 198.616C111.182 198.351 111.241 198.056 111.27 197.791C111.241 198.145 111.27 197.762 111.3 197.674C111.329 197.556 111.359 197.409 111.418 197.291C111.742 196.26 111.918 195.2 112.272 194.17C112.448 193.669 112.684 193.198 112.89 192.698C113.008 192.433 113.096 192.197 113.214 191.932C113.214 191.903 113.243 191.873 113.243 191.873C113.361 191.726 113.567 191.225 113.567 191.225C113.626 191.137 113.655 191.049 113.685 190.961C113.744 191.226 113.803 191.461 113.861 191.726C114.126 192.815 114.421 193.905 114.921 194.906C115.393 195.878 115.893 196.673 116.423 197.556C116.688 197.998 117.159 198.263 117.66 198.086C118.131 197.939 118.455 197.438 118.337 196.938C118.131 196.054 118.072 195.289 117.984 194.347C117.895 193.463 117.807 192.609 117.689 191.726C117.63 191.314 117.601 190.902 117.571 190.489C117.571 190.431 117.542 190.283 117.542 190.165C117.513 189.93 117.513 189.694 117.513 189.459C117.513 189.135 117.483 188.811 117.483 188.487C117.483 188.428 117.483 188.369 117.483 188.311C117.483 188.281 117.483 188.222 117.483 188.222C117.454 187.751 117.454 187.309 117.454 186.838C117.454 186.544 117.454 186.22 117.483 185.926C117.601 185.661 117.719 185.366 117.778 185.072C117.836 184.836 117.895 184.601 117.925 184.365C117.925 184.306 117.954 184.247 117.954 184.159C118.013 184.071 118.072 183.982 118.131 183.894C118.425 183.482 118.69 183.128 119.044 182.804C119.102 182.746 119.161 182.687 119.22 182.657C119.25 182.716 119.25 182.775 119.279 182.834C119.515 183.747 119.691 184.718 120.015 185.602C120.192 186.073 120.398 186.573 120.692 186.956C120.81 187.103 120.957 187.221 121.046 187.368C121.164 187.545 121.193 187.781 121.281 187.987C121.487 188.664 122.547 188.723 122.577 187.928C122.577 187.751 122.577 187.545 122.606 187.368C122.606 187.309 122.547 187.251 122.547 187.28C122.547 187.221 122.665 187.015 122.724 186.897C122.871 186.485 122.96 186.102 122.96 185.69C122.989 184.807 122.842 183.982 122.695 183.099C122.4 181.568 122.076 180.037 121.752 178.476C121.458 177.033 121.222 175.561 121.105 174.089C121.105 174.06 121.105 174.06 121.105 174.03C121.105 173.971 121.105 173.912 121.105 173.854C121.105 173.677 121.105 173.5 121.075 173.324C121.075 172.941 121.075 172.558 121.075 172.175V172.146C121.222 171.763 121.37 171.38 121.458 170.968C121.517 170.732 121.546 170.497 121.576 170.261C121.664 170.526 121.752 170.762 121.841 170.998C122.135 171.822 122.4 172.646 122.695 173.471C122.989 174.354 123.578 175.179 124.285 175.797C124.638 176.091 125.227 175.856 125.345 175.444C125.816 173.942 125.403 172.381 125.08 170.909C124.785 169.584 124.491 168.259 124.226 166.934C124.108 166.286 124.02 165.639 123.961 164.991V164.962C123.961 164.903 123.961 164.844 123.961 164.814C124.049 164.991 124.108 165.138 124.196 165.315C124.932 166.758 125.727 168.259 127.141 169.084C127.641 169.378 128.348 169.113 128.377 168.495C128.466 166.934 127.788 165.609 127.288 164.167C127.258 164.108 127.111 163.607 127.17 163.813C127.111 163.666 126.993 163.283 126.964 163.224C126.876 162.93 126.787 162.635 126.728 162.341C126.552 161.664 126.463 160.987 126.375 160.28C126.375 160.221 126.375 160.162 126.375 160.103C126.375 159.897 126.375 159.72 126.375 159.514C126.375 159.161 126.405 158.778 126.434 158.425C126.463 158.219 126.493 158.013 126.522 157.807C126.522 157.748 126.581 157.571 126.581 157.512C126.67 157.129 126.787 156.747 126.846 156.364C126.876 156.276 126.876 156.187 126.905 156.099C126.905 156.158 126.905 156.128 126.935 155.981C126.993 155.775 127.023 155.569 127.082 155.363C127.17 155.009 127.258 154.656 127.347 154.273C127.553 153.449 127.612 152.566 127.406 151.741C127.317 151.299 126.787 150.946 126.346 151.182C125.521 151.623 124.932 152.183 124.432 152.978C123.99 153.714 123.549 154.538 123.254 155.363C123.107 155.746 122.989 156.158 122.901 156.57C122.665 156.982 122.43 157.394 122.224 157.807C121.605 158.984 121.046 160.192 120.722 161.487C120.604 161.693 120.457 161.899 120.339 162.105C120.104 162.459 119.927 162.842 119.721 163.254C119.662 163.372 119.603 163.519 119.515 163.637C119.544 163.607 119.397 163.902 119.367 163.931C118.661 165.315 118.131 166.787 117.454 168.171C117.159 168.819 116.835 169.466 116.511 170.085C116.482 170.114 116.364 170.379 116.335 170.438C116.305 170.526 116.246 170.615 116.246 170.644C116.099 170.968 115.923 171.263 115.775 171.586C115.098 172.882 114.45 174.177 113.803 175.473C110.682 181.597 107.06 187.457 104.263 193.758C103.056 196.496 102.025 199.323 101.348 202.237C100.671 205.152 100.199 208.126 100.258 211.13C100.288 212.837 100.406 214.545 100.729 216.223C100.906 217.166 101.171 218.078 101.495 218.991C101.819 219.874 102.29 220.64 102.82 221.406C103.321 222.142 104.587 222.377 105.352 221.965C106.235 221.494 106.648 220.64 106.53 219.639C106.383 218.373 106.206 217.107 105.97 215.841C105.853 215.222 105.764 214.604 105.706 214.015C105.676 213.75 105.647 213.485 105.647 213.191C105.647 213.161 105.647 213.132 105.647 213.102C105.647 212.955 105.647 212.808 105.647 212.661C105.617 211.041 105.706 209.422 105.912 207.832C105.971 207.773 106 207.685 106.059 207.626C106.5 207.007 107.03 206.271 107.472 205.8C107.619 205.653 107.737 205.535 107.855 205.388C107.973 205.771 108.12 206.183 108.238 206.566C108.591 207.567 109.003 208.597 109.533 209.54C109.828 210.04 110.152 210.541 110.564 210.953C110.947 211.336 111.359 211.718 111.742 212.131C112.124 212.543 112.949 212.248 112.772 211.63C112.566 210.865 112.507 209.922 112.33 209.039Z" fill="#444444"/>
<path d="M153.581 143.114C153.964 143.232 153.758 143.173 153.581 143.114V143.114Z" fill="#636363"/>
<path d="M196.157 236.775C196.187 236.834 196.216 236.952 196.246 237.011C196.216 236.981 196.187 236.834 196.157 236.775Z" fill="#636363"/>
<path d="M196.451 237.541C196.451 237.541 196.48 237.541 196.451 237.541C196.51 237.629 196.569 237.688 196.598 237.747C196.628 237.747 196.598 237.688 196.451 237.541Z" fill="#636363"/>
<path d="M198.041 238.071C197.452 238.071 197.805 238.1 198.041 238.071V238.071Z" fill="#636363"/>
<path d="M226.396 181.273C226.602 176.71 226.513 172.087 226.042 167.523C226.307 167.847 226.572 168.2 226.808 168.554C229.016 171.498 230.93 174.678 233.58 177.298C234.345 178.064 235.17 178.83 236.083 179.448C236.23 179.536 236.377 179.625 236.524 179.713C237.673 180.95 239.204 182.333 240.853 182.834C242.001 183.187 243.326 183.187 244.415 182.598C245.564 181.98 246.3 181.097 246.859 179.919C247.566 178.388 247.33 176.592 246.859 175.031C246.388 173.5 245.917 171.969 245.505 170.438C245.063 168.878 244.621 167.317 244.18 165.786C243.974 165.02 243.738 164.255 243.532 163.489C243.326 162.783 243.179 162.017 242.943 161.31C242.825 160.633 242.707 159.985 242.59 159.308C242.06 156.246 241.648 153.154 241.206 150.063C240.323 143.703 239.351 137.372 237.29 131.278C235.258 125.33 232.167 119.647 228.074 114.848C223.952 110.019 218.77 106.191 212.881 103.806C210.025 102.658 207.051 101.922 203.989 101.628C202.399 101.48 200.838 101.48 199.219 101.598C198.365 101.657 197.452 101.716 196.598 101.893C196.775 97.9177 196.657 93.9133 196.304 89.9384C195.803 83.9907 194.743 78.1019 193.183 72.3309C191.622 66.4715 189.65 60.7005 187.265 55.1356C185.586 51.1902 183.613 47.3624 181.376 43.7408C178.726 39.442 175.781 35.261 172.042 31.8455C170.187 30.1672 168.273 28.5772 166.035 27.4289C163.68 26.2217 161.295 25.3384 158.674 25.0734C155.966 24.8084 153.316 25.2795 150.754 26.1922C147.486 27.37 144.777 29.755 142.834 32.611C140.92 35.4377 139.654 38.7354 138.947 42.0331C138.211 45.4191 137.769 48.8641 137.681 52.3385C137.504 58.9339 138.27 65.5293 138.829 72.0953C138.947 73.4792 139.065 74.8336 139.124 76.2175C139.565 84.5501 139.094 92.9417 137.887 101.215C137.563 103.424 137.18 105.632 136.739 107.84C136.65 108.311 136.533 108.753 136.415 109.224C135.502 108.635 134.383 108.194 133.382 107.84C131.38 107.104 129.319 106.515 127.258 105.956C122.988 104.778 118.631 103.954 114.214 103.512C109.768 103.07 105.293 103.129 100.847 103.689C96.7834 104.189 92.8084 105.22 88.9513 106.545C81.5608 109.077 74.7298 113.081 68.5466 117.822C62.2751 122.651 56.6807 128.392 51.6164 134.487C49.1431 137.461 46.817 140.523 44.6087 143.674C42.3121 146.942 40.0743 150.298 38.0427 153.743C37.9249 153.949 37.8072 154.156 37.6894 154.362C37.5127 154.597 37.3655 154.862 37.2183 155.127C36.7177 156.011 36.2172 156.864 35.805 157.807C35.1866 159.249 34.5389 160.663 33.95 162.105C33.685 162.724 33.3611 163.342 33.2139 164.019C33.0372 164.844 32.9195 165.521 33.0667 166.345C33.2139 167.111 33.5378 167.818 34.0383 168.436C35.5989 170.438 38.3666 170.703 40.6043 169.82C41.4288 169.496 42.1649 168.936 42.8421 168.406C43.4604 167.965 44.0493 167.494 44.6676 167.023C45.8748 166.08 47.0526 165.138 48.2303 164.196C48.407 164.049 48.5836 163.901 48.7603 163.754C49.6436 163.254 50.5269 162.753 51.4397 162.282C55.768 159.956 60.3907 158.072 65.0133 156.452C65.6022 156.246 66.1617 156.069 66.7505 155.863C66.9272 155.804 67.9283 155.51 67.1628 155.746C67.5161 155.657 67.84 155.539 68.1933 155.422C69.371 155.068 70.5488 154.715 71.7266 154.391C74.141 153.714 76.5848 153.096 79.0287 152.536C83.8575 151.388 88.7157 150.357 93.574 149.386C98.8739 148.326 104.203 147.442 109.591 147.089C111.594 147.001 113.625 146.942 115.627 147.03C114.479 149.71 113.272 152.389 112.065 155.039C110.74 157.924 109.474 160.839 108.119 163.695C107.413 165.197 106.677 166.669 105.94 168.141C103.791 172.381 101.494 176.562 99.1683 180.685C96.7245 185.072 94.2806 189.459 92.3079 194.082C91.8662 195.141 91.4246 196.201 91.0418 197.261C91.0418 197.291 91.0123 197.32 91.0123 197.35C89.7462 200.824 89.3635 204.622 89.3929 208.303C89.4224 212.219 89.8051 216.135 90.1879 220.051C90.394 222.053 90.6296 224.055 90.7474 226.058C90.8062 226.882 90.8651 227.707 91.0123 228.502C91.0418 228.59 91.0418 228.678 91.0712 228.766C91.0123 229.149 90.9534 229.503 90.8651 229.885C90.659 230.769 90.3057 231.623 89.8935 232.447C89.1279 233.89 88.2152 235.274 87.3024 236.628C86.8019 237.394 86.2719 238.159 85.8008 238.954C85.7419 239.072 85.6536 239.19 85.5947 239.307C84.4758 239.985 83.4453 241.015 83.033 242.222C82.503 243.812 82.8269 245.402 83.3569 246.904C83.7986 248.141 84.5641 249.289 85.3886 250.319C86.2719 251.379 87.3024 252.351 88.4507 253.146C90.659 254.677 93.3384 255.619 96.0178 255.708C98.9916 255.796 102.289 254.972 104.233 252.587C104.733 251.968 105.057 251.321 105.234 250.614C106.706 247.964 108.796 245.697 110.769 243.4C111.829 242.163 112.86 240.927 113.861 239.661C114.126 239.337 114.391 239.013 114.626 238.66C114.656 238.63 114.656 238.601 114.685 238.601C116.894 238.041 119.072 237.217 121.163 236.363C125.55 234.567 129.613 232.211 133.529 229.532C135.767 228.001 137.917 226.352 140.007 224.674C140.154 224.556 140.272 224.438 140.39 224.32C142.245 222.789 144.041 221.199 145.749 219.521C149.017 216.371 152.108 213.043 155.141 209.657C158.292 206.154 161.354 202.591 164.357 198.94C167.331 195.348 170.246 191.697 173.131 188.016C175.222 185.337 177.313 182.628 179.374 179.919C179.521 180.449 179.668 181.008 179.786 181.538C180.669 185.16 181.287 188.84 181.788 192.521C182.848 200.294 183.349 208.126 184.291 215.899C184.791 220.022 185.233 224.173 186.057 228.266C186.47 230.327 187.029 232.359 187.736 234.331C188.442 236.304 189.355 238.247 190.621 239.896C191.033 240.426 191.563 240.75 192.182 240.897C192.623 241.575 193.212 242.193 193.889 242.635C196.657 244.49 200.338 244.107 203.223 242.752C205.638 241.633 207.875 239.926 209.701 238.012C217.121 230.121 219.447 218.991 222.038 208.833C224.334 199.853 225.983 190.607 226.396 181.273ZM198.218 108.782C198.306 108.665 198.394 108.517 198.512 108.4C198.542 108.37 198.718 108.164 198.659 108.252C198.865 108.017 199.101 107.811 199.307 107.605C199.66 107.31 199.837 107.163 200.132 106.986C201.339 107.104 202.546 107.281 203.753 107.516C206.786 108.164 209.76 109.195 212.527 110.549C215.148 111.933 217.592 113.641 219.83 115.584C222.332 117.91 224.511 120.531 226.396 123.387C228.545 126.802 230.223 130.483 231.519 134.31C234.316 143.291 234.61 152.772 236.554 161.929C236.878 163.401 237.319 164.873 237.849 166.257C238.085 166.875 238.32 167.523 238.585 168.112C238.791 168.554 238.998 169.025 239.292 169.378C239.38 169.496 239.469 169.584 239.586 169.673C239.94 170.909 240.264 172.116 240.617 173.353C240.853 174.177 241.117 175.031 241.294 175.885C240.705 175.267 240.175 174.59 239.704 173.854C238.762 172.322 237.967 170.703 237.172 169.113C236.318 167.405 235.523 165.698 234.699 163.99C233.05 160.574 231.401 157.159 229.693 153.773C227.986 150.387 226.16 147.089 224.128 143.909C222.008 140.582 219.771 137.373 217.091 134.458C215.531 132.75 213.852 131.101 211.909 129.835C211.202 129.393 210.466 128.952 209.701 128.628C208.935 127.892 208.14 127.214 207.316 126.596C203.577 123.887 198.983 122.916 194.419 122.916C194.449 122.709 194.449 122.503 194.478 122.268C194.478 122.268 194.478 122.209 194.478 122.15C194.478 122.15 194.478 122.121 194.478 122.091C194.508 122.032 194.508 121.944 194.537 121.885C194.655 121.443 194.802 121.002 194.949 120.56C195.008 120.442 195.038 120.354 195.097 120.236C195.097 120.236 195.097 120.207 195.126 120.207C195.273 120.001 195.391 119.794 195.538 119.588C195.597 119.5 195.686 119.412 195.744 119.323C195.921 119.176 196.068 118.999 196.245 118.852C196.422 118.705 196.598 118.558 196.775 118.411C196.863 118.352 196.952 118.263 197.04 118.205C197.069 118.205 197.069 118.175 197.069 118.175C197.069 118.175 197.099 118.146 197.128 118.146C197.305 118.028 197.482 117.94 197.658 117.822C197.894 117.822 198.129 117.822 198.365 117.851C199.572 117.91 200.75 118.028 201.957 118.234C202.193 118.263 202.428 118.322 202.634 118.352C202.634 118.352 202.634 118.352 202.664 118.352C202.811 118.381 202.958 118.411 203.105 118.44C203.694 118.587 204.254 118.735 204.843 118.911C205.991 119.265 207.08 119.706 208.17 120.207C208.258 120.236 208.317 120.295 208.405 120.324C208.67 120.472 208.935 120.619 209.2 120.766C209.73 121.061 210.231 121.384 210.731 121.708C211.232 122.062 211.703 122.415 212.174 122.798C212.439 123.004 212.704 123.239 212.94 123.446C212.969 123.446 212.969 123.475 212.969 123.475C213.146 123.622 213.293 123.769 213.47 123.946C214.412 124.829 215.325 125.772 216.149 126.773C217.121 127.892 218.21 128.893 219.152 130.041C219.623 130.6 220.065 131.189 220.536 131.778C220.831 132.132 221.125 132.514 221.508 132.75C221.626 132.838 221.802 132.897 221.92 132.985C222.038 133.103 222.156 133.28 222.273 133.398C222.98 134.193 224.276 133.368 223.834 132.396C223.716 132.102 223.598 131.896 223.569 131.572C223.539 131.16 223.392 130.836 223.216 130.453C222.892 129.776 222.538 129.158 222.185 128.51C221.478 127.244 220.86 125.83 220.036 124.653C218.357 122.268 216.326 120.118 214.029 118.352C209.907 115.201 204.813 113.494 199.69 113.022C199.307 112.993 198.895 112.964 198.512 112.934C198.424 112.699 198.306 112.463 198.218 112.227C198.188 112.169 198.07 111.727 198.159 112.11C198.129 111.962 198.07 111.845 198.041 111.697C197.982 111.462 197.953 111.226 197.894 111.02C197.864 110.873 197.864 110.755 197.835 110.608C197.835 110.579 197.835 110.579 197.835 110.549C197.835 110.549 197.835 110.52 197.835 110.49C197.835 110.049 197.864 109.607 197.923 109.195C197.982 109.077 198.1 108.93 198.218 108.782ZM227.279 162.4C227.073 162.194 226.867 161.988 226.661 161.752C226.131 161.193 225.542 160.663 224.953 160.192C224.57 158.337 224.128 156.511 223.628 154.686C223.863 155.157 224.099 155.657 224.334 156.128C225.336 158.219 226.307 160.309 227.279 162.4ZM194.449 122.121C194.449 122.032 194.478 121.973 194.478 121.973C194.478 122.032 194.449 122.091 194.449 122.121ZM195.715 119.323C195.833 119.206 195.803 119.235 195.715 119.323V119.323ZM145.808 71.8009C145.484 67.6787 145.013 63.5566 144.777 59.4345C144.512 54.3701 144.63 49.2763 145.601 44.2708C146.072 42.2098 146.72 40.2076 147.604 38.2937C148.192 37.1748 148.899 36.1443 149.694 35.1726C150.283 34.5543 150.931 34.0243 151.608 33.5238C152.315 33.1116 153.08 32.7877 153.846 32.4933C154.7 32.2577 155.553 32.081 156.437 31.9927C157.291 31.9632 158.174 32.0516 159.028 32.1988C160.147 32.4638 161.207 32.8466 162.237 33.3471C163.886 34.2305 165.388 35.3493 166.801 36.5565C169.745 39.2948 172.219 42.5042 174.427 45.8608C177.666 51.0135 180.316 56.49 182.495 62.1727C183.29 64.2338 184.026 66.2949 184.703 68.3854C186.735 74.7747 188.207 81.3407 189.002 87.9951C189.208 89.7323 189.355 91.4989 189.473 93.2655C189.738 98.7127 189.532 104.16 188.766 109.577C188.56 111.05 188.295 112.522 188.001 113.965C187.294 117.233 186.381 120.442 185.498 123.652C183.231 124.005 180.964 124.447 178.755 124.947C174.133 126.007 169.51 127.45 165.182 129.364C164.622 129.629 164.033 129.864 163.444 130.129C163.415 130.129 163.415 130.129 163.386 130.129C162.532 130.365 161.707 130.6 160.883 130.924C160.147 131.219 159.44 131.543 158.704 131.837C156.025 132.956 153.433 134.369 150.666 135.341C150.607 135.37 150.489 135.4 150.401 135.429C150.283 135.459 150.165 135.488 150.136 135.518C149.782 135.606 149.4 135.694 149.046 135.783C148.399 135.93 147.751 136.018 147.074 136.077C144.983 136.136 142.893 135.841 140.831 135.429C139.536 135.164 138.27 134.84 137.004 134.458C136.915 134.428 136.798 134.399 136.709 134.369C137.269 133.191 137.74 131.955 138.123 130.689C138.977 127.892 139.507 125.006 140.066 122.121C140.949 117.998 142.451 114.053 143.334 109.931C144.247 105.603 144.954 101.215 145.454 96.7988C146.426 88.5251 146.485 80.163 145.808 71.8009ZM56.033 149.327C51.1453 152.742 46.6403 156.688 41.9882 160.398C44.1082 156.423 46.552 152.654 49.1136 148.944C51.4397 145.587 53.8541 142.29 56.4452 139.11C57.829 137.402 59.2423 135.753 60.7145 134.104C64.8661 129.54 69.4005 125.271 74.3765 121.561C75.7015 120.589 77.0265 119.647 78.4103 118.764C82.8858 115.937 87.6852 113.582 92.7201 111.904C96.96 110.579 101.347 109.725 105.823 109.46C110.975 109.224 116.099 109.636 121.163 110.461C121.192 110.461 121.192 110.49 121.222 110.49C123.283 111.256 125.315 112.198 127.287 113.17C127.729 113.376 128.171 113.611 128.612 113.817C128.877 113.935 129.142 114.082 129.407 114.2C129.496 114.23 129.584 114.288 129.672 114.318C129.731 114.347 129.79 114.377 129.79 114.377C129.937 114.465 130.084 114.524 130.232 114.612C130.291 114.642 130.349 114.671 130.408 114.701C130.467 114.76 130.526 114.818 130.585 114.877C131.115 115.378 131.616 115.937 132.116 116.526C132.352 116.791 132.558 117.056 132.764 117.351C132.882 117.498 132.999 117.675 133.117 117.851C133.147 117.91 133.205 117.969 133.235 118.028C133.264 118.087 133.264 118.087 133.264 118.087C133.264 118.116 133.294 118.116 133.294 118.146C133.47 118.44 133.647 118.735 133.794 119.029C133.588 119.971 133.382 120.884 133.176 121.826C131.557 121.061 129.878 120.383 128.171 119.853C124.137 118.617 119.956 118.057 115.745 118.028C107.177 117.969 98.8444 120.06 90.7474 122.739C88.5979 123.446 86.4191 124.123 84.4169 125.183C83.4158 125.742 82.3853 126.331 81.5019 127.097C81.0603 127.479 80.5892 127.892 80.2653 128.363C79.9709 128.834 79.7353 129.334 79.5292 129.835C79.4114 130.188 79.7942 130.6 80.1475 130.394C80.4714 130.218 80.8247 130.012 81.1486 129.864C81.5608 129.658 81.9142 129.452 82.3264 129.217C83.0919 128.804 83.8575 128.422 84.6819 128.127C84.888 128.039 85.0647 127.98 85.2708 127.921C85.3591 127.892 85.4769 127.862 85.5652 127.833C85.5652 127.833 85.8302 127.744 85.6535 127.803C86.2424 127.627 86.5074 127.509 86.9785 127.391C87.8029 127.155 88.6274 126.92 89.4518 126.684C92.9556 125.683 96.5184 124.771 100.111 124.093C101.907 123.74 103.732 123.446 105.558 123.21C106.441 123.092 107.324 123.004 108.237 122.916C108.708 122.886 109.15 122.827 109.621 122.798C109.68 122.798 109.886 122.798 109.945 122.768C110.151 122.768 110.386 122.739 110.593 122.739C114.155 122.592 117.718 122.768 121.222 123.357C121.487 123.416 121.752 123.446 121.987 123.504C122.076 123.534 122.164 123.534 122.252 123.563C122.723 123.652 123.195 123.769 123.636 123.887C124.608 124.123 125.55 124.358 126.522 124.653C128.347 125.212 130.084 125.919 131.792 126.773C131.881 126.832 131.969 126.861 132.057 126.92C131.586 128.716 130.997 130.483 130.202 132.161C130.143 132.22 130.084 132.249 129.996 132.308C129.937 132.338 129.672 132.514 129.672 132.514C129.496 132.603 129.348 132.72 129.172 132.809C128.494 133.221 127.788 133.574 127.081 133.898C126.846 134.016 126.581 134.134 126.345 134.251C124.196 133.898 121.987 133.692 119.838 133.515C116.658 133.28 113.478 133.133 110.298 133.162C103.82 133.192 97.3428 133.721 90.9534 134.899C84.7408 136.048 78.6164 137.844 72.7571 140.199C66.8389 142.584 61.2445 145.676 56.033 149.327ZM109.856 122.768C109.798 122.798 109.356 122.798 109.768 122.768C109.798 122.768 109.827 122.768 109.856 122.768ZM87.6852 244.372C87.7146 244.46 87.7146 244.519 87.6852 244.372V244.372ZM92.9556 245.873C92.9262 245.873 92.8673 245.873 92.779 245.873C92.6906 245.873 92.6318 245.844 92.5434 245.844C92.5434 245.844 92.4257 245.814 92.3668 245.814C91.8073 245.667 91.2184 245.638 90.6296 245.55C89.6579 245.402 89.1279 246.433 89.3635 247.228C89.1279 246.963 88.9218 246.698 88.7451 246.433C88.7157 246.403 88.6568 246.344 88.6274 246.286C88.5979 246.256 88.5685 246.197 88.5685 246.168C88.539 246.138 88.539 246.109 88.5096 246.109C88.5096 246.138 88.5391 246.138 88.5391 246.168C88.4507 246.021 88.3624 245.873 88.2741 245.726C88.0679 245.343 87.8913 244.931 87.7146 244.519C87.6852 244.46 87.6557 244.313 87.6263 244.225C87.5968 244.107 87.5674 243.989 87.5674 243.871C87.5674 243.783 87.5674 243.695 87.5674 243.636C87.5674 243.606 87.5674 243.577 87.5674 243.547C87.5968 243.488 87.5968 243.43 87.6263 243.371C88.0679 243.223 88.5096 242.929 88.8629 242.635C88.8924 242.635 88.8924 242.635 88.9218 242.635C88.9218 242.635 88.9513 242.635 88.9807 242.635C89.2163 242.664 89.4518 242.664 89.6874 242.693C89.7462 242.693 89.864 242.723 89.9229 242.752C90.0996 242.811 90.2762 242.841 90.4235 242.9C90.6296 242.958 90.8357 243.047 91.0418 243.135C91.1007 243.165 91.189 243.194 91.2479 243.223C91.2773 243.253 91.3068 243.253 91.3657 243.282C91.7484 243.488 92.1312 243.695 92.4845 243.93C92.6318 244.048 92.8084 244.166 92.9556 244.283C93.0145 244.342 93.1029 244.401 93.1617 244.46L93.1912 244.489C93.3384 244.637 93.4856 244.784 93.6034 244.961C93.6328 244.99 93.6623 245.049 93.6917 245.078V245.108C93.7212 245.167 93.7506 245.255 93.7801 245.314V245.285C93.7801 245.285 93.7801 245.314 93.8095 245.373V245.402V245.432C93.8095 245.432 93.8095 245.432 93.8095 245.461V245.432V245.461V245.491C93.8095 245.491 93.8095 245.491 93.7801 245.52L93.7506 245.55L93.7801 245.52C93.7801 245.549 93.7506 245.579 93.7506 245.608V245.638C93.7506 245.638 93.7212 245.638 93.7212 245.608C93.7212 245.638 93.6917 245.638 93.6917 245.638C93.6917 245.638 93.6917 245.638 93.7212 245.608C93.7212 245.608 93.6917 245.608 93.6917 245.638L93.7212 245.608L93.6917 245.638L93.6623 245.667C93.574 245.726 93.4267 245.756 93.3973 245.756C93.309 245.785 93.2501 245.844 93.1617 245.873H93.1323C93.1029 245.873 93.1029 245.873 93.0734 245.873C93.0734 245.844 93.0145 245.844 92.9556 245.873ZM88.9807 242.605C89.0396 242.605 89.0985 242.576 89.0985 242.605C89.0985 242.605 89.0396 242.605 88.9807 242.605ZM89.864 242.693C89.7463 242.664 89.6285 242.635 89.864 242.693V242.693ZM93.839 245.402C93.8684 245.402 93.8684 245.402 93.839 245.402C93.8684 245.402 93.8684 245.402 93.839 245.402C93.8684 245.432 93.8684 245.432 93.839 245.402C93.839 245.432 93.839 245.432 93.839 245.432C93.8684 245.432 93.8684 245.432 93.839 245.402C93.839 245.432 93.839 245.432 93.839 245.432C93.8684 245.432 93.8684 245.432 93.839 245.402C93.839 245.432 93.839 245.432 93.839 245.402ZM93.8684 245.432C93.8684 245.432 93.8684 245.461 93.8684 245.432C93.8684 245.461 93.8684 245.461 93.8684 245.432C93.8684 245.461 93.8684 245.461 93.8684 245.432C93.8684 245.432 93.8684 245.461 93.8684 245.432ZM93.7801 245.608C93.7801 245.579 93.8095 245.55 93.839 245.491C93.8684 245.608 93.839 245.638 93.7801 245.608ZM99.5216 249.731C99.3155 249.848 99.1094 249.937 98.9033 250.025C98.815 250.054 98.6972 250.113 98.5794 250.143C98.2261 250.29 98.5794 250.172 98.7266 250.113C98.3733 250.29 97.9022 250.319 97.5195 250.378C97.3133 250.408 97.1072 250.437 96.9011 250.467C96.8128 250.467 96.7245 250.496 96.6656 250.496C96.2828 250.496 95.8706 250.496 95.4878 250.467C95.2523 250.437 95.0167 250.408 94.7812 250.378C94.6928 250.378 94.6045 250.349 94.5162 250.349C94.4573 250.319 94.3689 250.319 94.3101 250.29C94.1923 250.261 94.0745 250.231 93.9567 250.202C93.7506 250.143 93.5445 250.084 93.3384 249.996C93.0145 249.878 92.6612 249.731 92.3373 249.583C91.8957 249.348 91.4834 249.083 91.1007 248.818C91.7484 249.112 92.514 249.289 93.2795 249.348C94.8106 249.466 96.3711 248.729 97.1072 247.375C97.3428 246.963 97.49 246.521 97.5489 246.109C97.9317 246.374 98.3144 246.668 98.6678 246.992C98.9622 247.257 99.2272 247.552 99.4627 247.876C99.5216 247.964 99.5805 248.023 99.6394 248.111C99.7277 248.258 99.7866 248.406 99.875 248.582C99.9044 248.612 99.9339 248.671 99.9633 248.759C99.9633 248.788 99.9927 248.788 99.9927 248.818C99.9927 248.788 99.9927 248.759 99.9633 248.759C99.9633 248.729 99.9338 248.7 99.9338 248.7C99.9044 248.671 99.9044 248.641 99.875 248.582C99.8455 248.553 99.8455 248.582 99.9633 248.847C99.8161 249.142 99.6983 249.436 99.61 249.731C99.61 249.672 99.5805 249.701 99.5216 249.731ZM165.918 185.513C162.237 190.195 158.468 194.818 154.611 199.352C152.55 201.766 150.489 204.151 148.369 206.507C144.571 210.688 140.655 214.781 136.356 218.432C136.12 218.638 135.914 218.814 135.679 219.021C135.561 219.079 135.473 219.168 135.384 219.256C132.646 221.494 129.819 223.614 126.846 225.557C122.341 228.413 117.6 230.769 112.536 232.417C112.801 232.329 113.066 232.241 113.331 232.153C112.448 232.447 111.564 232.741 110.71 233.036C109.798 233.301 108.826 233.507 108.001 234.008C107.265 234.449 106.529 234.891 105.793 235.332C105.028 235.774 104.439 236.628 104.674 237.541C104.88 238.483 105.587 239.042 106.529 239.19C106.942 239.278 107.383 239.337 107.795 239.396C107.354 239.837 106.942 240.279 106.529 240.691C105.44 241.81 104.35 242.9 103.32 244.048C103.29 244.018 103.261 243.989 103.261 243.96C101.112 241.575 98.1083 239.955 95.0756 238.983C94.3101 238.719 93.5151 238.512 92.7201 238.365C93.1323 237.835 93.5151 237.305 93.8978 236.746C94.7517 235.48 95.5762 234.096 96.1356 232.683C96.4595 231.858 96.5478 230.916 96.6067 230.003C96.6361 229.591 96.6656 229.12 96.6656 228.678C96.7539 228.266 96.8128 227.854 96.8717 227.412C96.9895 226.205 96.9895 225.027 96.9306 223.849C96.8422 221.17 96.6361 218.52 96.4006 215.841C96.2828 214.545 96.1945 213.249 96.1061 211.954C95.9295 208.715 95.9589 205.447 96.5478 202.267C96.6067 202.061 96.6361 201.855 96.695 201.649C97.1072 200.088 97.6961 198.557 98.3439 197.055C99.0505 195.348 99.8455 193.699 100.67 192.05C103.467 186.573 106.647 181.303 109.533 175.885C112.595 170.114 115.451 164.225 118.071 158.248C119.514 154.98 120.721 151.623 121.899 148.267C121.958 148.09 122.017 147.884 122.046 147.678C123.165 147.825 124.255 147.913 125.373 148.12C125.403 148.12 125.403 148.12 125.432 148.12C125.344 148.09 125.285 148.09 125.197 148.061C125.285 148.09 125.373 148.09 125.462 148.12C125.491 148.12 125.521 148.12 125.55 148.149C125.638 148.178 125.756 148.178 125.845 148.208C125.933 148.237 126.021 148.237 126.11 148.267C126.139 148.267 126.168 148.267 126.198 148.296C126.227 148.296 126.257 148.296 126.286 148.326C126.492 148.385 126.728 148.414 126.934 148.443C126.993 148.443 127.052 148.473 127.111 148.473C127.876 148.65 128.642 148.797 129.407 148.826C130.261 149.062 131.144 149.268 131.998 149.562C133.47 150.122 134.501 148.002 133.235 147.118C132.587 146.677 131.939 146.206 131.292 145.764C131.203 145.705 131.144 145.646 131.056 145.617C131.027 145.617 131.027 145.587 130.997 145.587C130.85 145.47 130.85 145.47 130.968 145.587C130.997 145.617 131.027 145.646 131.056 145.676C130.909 145.529 130.762 145.411 130.614 145.293C130.556 145.234 130.467 145.175 130.408 145.116C130.114 144.851 129.761 144.675 129.407 144.468C127.847 143.674 126.257 143.026 124.578 142.466C121.369 141.436 117.895 141.171 114.538 141.112C107.825 140.994 101.082 142.025 94.5162 143.35C87.9796 144.645 81.4725 146.147 75.0832 148.002C72.3743 148.767 69.6655 149.621 66.9861 150.534C70.3721 148.65 73.9054 147.001 77.5565 145.617C78.8814 145.116 80.2359 144.645 81.5903 144.174C87.538 142.29 93.6623 141.024 99.8455 140.317C101.612 140.111 103.408 139.964 105.175 139.875C109.591 139.64 114.037 139.699 118.454 139.964C121.575 140.17 124.726 140.435 127.847 140.759C127.935 140.788 128.053 140.817 128.141 140.876C130.585 141.789 133.058 142.702 135.59 143.291C137.828 143.821 140.036 144.145 142.304 144.145C142.451 144.321 142.686 144.41 142.922 144.468C143.305 144.557 143.717 144.616 144.07 144.792C144.306 144.91 144.512 145.087 144.777 145.205C145.013 145.293 145.278 145.352 145.543 145.44C145.984 145.587 146.455 145.764 146.897 145.911C147.103 146 147.309 146.058 147.486 146.147C147.486 146.147 147.957 146.294 147.721 146.206C147.397 146.117 148.192 146.412 148.31 146.441C150.165 147.001 151.932 147.766 153.669 148.561C154.081 148.738 154.493 148.944 154.906 149.15C155.023 149.209 155.141 149.268 155.259 149.327C155.288 149.327 155.347 149.386 155.406 149.415C155.465 149.445 155.524 149.474 155.524 149.474C155.642 149.533 155.76 149.592 155.877 149.651C156.761 150.122 157.615 150.593 158.439 151.123C160.088 152.124 161.648 153.243 163.179 154.421C163.945 155.009 164.681 155.628 165.417 156.276C165.447 156.305 165.447 156.305 165.476 156.334C165.505 156.334 165.505 156.364 165.535 156.364C165.564 156.393 165.594 156.423 165.623 156.452L165.653 156.482C165.653 156.482 165.653 156.482 165.623 156.452C165.77 156.599 165.947 156.747 166.094 156.894C166.448 157.218 166.772 157.571 167.125 157.895C168.479 159.249 169.775 160.692 170.953 162.223C171.542 162.989 172.101 163.754 172.66 164.549C172.719 164.638 172.778 164.755 172.866 164.844C172.866 164.903 172.896 164.932 172.925 164.991C173.043 165.226 173.161 165.491 173.249 165.756C173.308 165.874 173.338 165.992 173.367 166.139C173.396 166.228 173.544 166.581 173.455 166.316C173.573 166.669 173.72 166.993 173.838 167.346C173.868 167.376 173.868 167.435 173.897 167.464C173.926 167.611 173.985 167.788 174.015 167.935C174.074 168.2 174.133 168.465 174.162 168.701C174.191 168.848 174.221 168.995 174.221 169.172C174.221 169.201 174.221 169.29 174.25 169.378C174.25 169.378 174.25 169.643 174.25 169.673C174.25 169.82 174.25 169.937 174.25 170.085C174.25 170.409 174.25 170.703 174.25 171.027C174.25 171.321 174.221 171.616 174.162 171.91C174.133 172.057 174.133 172.175 174.103 172.322C174.103 172.381 174.044 172.676 174.044 172.705C174.015 172.764 174.015 172.823 174.015 172.852C173.985 172.97 173.956 173.117 173.926 173.235C173.838 173.589 173.72 173.942 173.573 174.266C173.338 174.943 173.014 175.591 172.719 176.239C172.66 176.386 172.572 176.533 172.513 176.68C172.513 176.68 172.484 176.71 172.484 176.739C172.307 177.092 172.101 177.416 171.924 177.77C171.895 177.828 171.865 177.887 171.836 177.917C169.863 180.478 167.89 183.011 165.918 185.513ZM127.081 148.473C127.346 148.502 127.228 148.502 127.081 148.473V148.473ZM190.356 219.521C189.296 211.512 188.678 203.445 187.736 195.406C186.852 187.81 185.498 180.272 182.848 173.088C180.08 165.609 175.693 158.896 169.745 153.567C166.86 150.976 163.651 148.767 160.176 146.971C158.351 146.029 156.466 145.146 154.523 144.468C152.962 143.939 151.343 143.379 149.724 143.055C149.959 143.055 150.224 143.026 150.46 142.996C150.519 142.996 150.577 142.996 150.666 142.967C150.813 142.967 150.99 142.967 151.137 142.967C151.726 142.967 152.344 142.967 152.933 143.026C153.11 143.055 153.286 143.055 153.433 143.085C153.463 143.085 153.522 143.114 153.61 143.114C153.581 143.114 153.551 143.085 153.492 143.085C153.934 143.232 154.405 143.261 154.847 143.35C154.876 143.35 154.906 143.35 154.935 143.379C155.023 143.409 155.141 143.438 155.23 143.438C155.553 143.526 155.907 143.615 156.231 143.703C156.82 143.85 157.408 144.027 157.997 144.204C159.263 144.616 160.5 145.146 161.707 145.735C161.678 145.735 161.678 145.705 161.648 145.705C161.884 145.823 162.09 145.911 162.326 146.029C165.005 147.442 167.478 149.209 169.745 151.211C173.426 154.597 176.665 158.425 179.403 162.635C182.377 167.346 184.791 172.381 186.735 177.593C187.206 178.859 187.647 180.125 188.06 181.391C190.003 187.545 191.357 193.875 192.064 200.265C192.27 202.031 192.417 203.769 192.506 205.535C192.712 209.628 192.712 213.721 192.447 217.843C192.299 219.992 192.093 222.112 191.799 224.232C191.681 225.115 191.563 225.969 191.446 226.853C191.004 224.409 190.68 221.965 190.356 219.521ZM205.52 233.595C204.43 234.744 203.223 235.774 201.928 236.687C201.427 236.981 200.927 237.276 200.397 237.511C200.161 237.629 199.896 237.688 199.66 237.806C199.631 237.806 199.602 237.835 199.543 237.835C199.395 237.865 199.248 237.894 199.101 237.953C198.777 238.012 198.453 238.071 198.129 238.1C198.1 238.1 198.07 238.1 198.041 238.1C198.1 238.1 198.129 238.1 198.218 238.1C198.07 238.1 197.923 238.1 197.776 238.1C197.599 238.1 197.452 238.071 197.275 238.071C197.305 238.071 197.334 238.1 197.393 238.1C197.364 238.1 197.305 238.071 197.275 238.071C197.04 238.041 196.716 237.894 197.099 238.012C197.01 237.982 196.893 237.953 196.804 237.924C196.775 237.894 196.716 237.865 196.687 237.835C196.657 237.806 196.657 237.776 196.628 237.747C196.598 237.747 196.539 237.659 196.481 237.57C196.451 237.541 196.422 237.482 196.392 237.452C196.422 237.482 196.451 237.511 196.481 237.541C196.481 237.511 196.451 237.511 196.451 237.482C196.392 237.364 196.333 237.246 196.274 237.129C196.274 237.099 196.245 237.07 196.245 237.04C196.245 237.099 196.216 237.07 196.186 236.864C196.186 236.834 196.186 236.834 196.186 236.805V236.775C196.127 236.51 196.068 236.245 196.009 235.951C195.98 235.745 195.951 235.568 195.921 235.362C196.186 234.596 196.451 233.801 196.687 233.006C197.364 230.886 197.953 228.737 198.277 226.529C198.895 222.554 199.278 218.52 199.395 214.486C199.66 206.242 198.924 197.939 197.187 189.842C195.391 181.538 192.623 173.353 188.707 165.815C184.526 157.718 178.902 150.122 171.512 144.704C169.157 142.967 166.595 141.465 163.857 140.376C163.768 140.081 163.709 139.816 163.592 139.522C163.592 139.492 163.533 139.434 163.533 139.375C163.533 139.345 163.533 139.316 163.503 139.286C163.444 139.11 163.415 138.904 163.356 138.727C163.327 138.639 163.327 138.55 163.327 138.462C163.327 138.433 163.238 138.02 163.297 138.315C163.356 138.58 163.297 138.226 163.297 138.168C163.297 138.05 163.297 137.932 163.327 137.785V137.755C163.327 137.755 163.327 137.726 163.327 137.638V137.608C163.327 137.579 163.327 137.579 163.327 137.549V137.579C163.356 137.49 163.386 137.402 163.415 137.343C163.444 137.314 163.474 137.225 163.503 137.166C163.592 137.019 163.68 136.901 163.798 136.754C163.798 136.725 163.827 136.725 163.827 136.695C163.827 136.695 163.827 136.695 163.857 136.666C163.974 136.548 164.092 136.43 164.21 136.342C164.563 136.018 164.946 135.753 165.329 135.488C165.329 135.488 165.329 135.488 165.358 135.488C165.447 135.429 165.505 135.4 165.594 135.341C165.8 135.223 166.006 135.105 166.183 134.988C166.948 134.575 167.743 134.222 168.568 133.928C168.568 133.928 168.685 133.898 168.774 133.869C168.862 133.839 168.95 133.81 168.95 133.81C169.127 133.751 169.304 133.721 169.48 133.663C169.922 133.545 170.364 133.456 170.835 133.368C171.247 133.309 171.659 133.25 172.071 133.191C172.278 133.162 172.484 133.162 172.69 133.133C172.719 133.133 172.719 133.133 172.749 133.133C172.896 133.133 173.014 133.133 173.161 133.133C174.015 133.133 174.869 133.162 175.693 133.28C176.871 133.456 177.43 133.574 178.579 133.928C178.755 133.986 178.932 134.045 179.109 134.104C181.052 135.282 182.819 136.725 184.526 138.226C187.618 141.053 190.356 144.233 192.829 147.59C193.477 148.473 194.096 149.356 194.714 150.24C195.008 150.652 195.273 151.093 195.568 151.535V151.565C195.597 151.594 195.627 151.653 195.627 151.682C195.627 151.712 195.656 151.741 195.656 151.741C195.686 151.771 195.686 151.8 195.715 151.829C195.715 151.8 195.686 151.8 195.686 151.771C195.833 152.006 195.98 152.242 196.127 152.477C197.246 154.303 198.306 156.187 199.248 158.101C200.102 159.838 200.868 161.634 201.545 163.46C201.692 163.843 201.81 164.255 201.957 164.638C202.016 164.785 202.252 165.639 202.045 164.844C202.104 165.079 202.193 165.315 202.252 165.55C202.517 166.434 202.782 167.346 202.988 168.23C203.871 171.792 204.607 175.355 204.901 179.036C204.931 179.271 204.931 179.507 204.96 179.772C204.96 179.86 204.96 179.978 204.99 180.066C204.99 180.096 204.99 180.096 204.99 180.096C204.99 180.096 204.99 180.125 204.99 180.155C205.019 180.655 205.049 181.185 205.049 181.686C205.078 182.716 205.078 183.747 205.049 184.777C205.049 185.278 205.049 185.808 205.019 186.308C205.019 186.897 205.108 187.457 205.137 188.046C205.166 188.31 205.255 188.546 205.314 188.782C205.373 188.988 205.343 189.194 205.343 189.4C205.343 189.665 205.402 189.871 205.461 190.136C205.52 190.43 205.52 190.725 205.52 191.019C205.52 191.432 206.05 191.549 206.197 191.167C206.315 190.902 206.403 190.637 206.55 190.372C206.727 190.107 206.874 189.9 206.963 189.577C207.169 188.988 207.522 188.458 207.728 187.869C208.14 186.632 208.346 185.337 208.523 184.041C208.818 181.656 208.906 179.271 208.847 176.886C208.788 174.354 208.582 171.822 208.199 169.319C207.816 166.787 207.11 164.314 206.315 161.87C204.578 156.511 201.928 151.565 198.895 146.853C196.422 142.996 193.595 139.463 190.415 136.224C190.032 135.488 189.679 134.781 189.326 134.045C189.09 133.574 188.884 133.074 188.707 132.603C188.707 132.573 188.678 132.573 188.678 132.544V132.514C188.648 132.397 188.619 132.279 188.59 132.161C188.531 131.866 188.472 131.572 188.442 131.248C188.442 131.13 188.442 131.013 188.442 130.895C188.442 130.777 188.442 130.63 188.472 130.512C188.501 130.453 188.531 130.394 188.531 130.365C188.619 130.129 188.707 129.894 188.796 129.658C188.796 129.658 188.796 129.658 188.796 129.629C188.796 129.599 188.825 129.599 188.825 129.57C188.913 129.452 188.972 129.305 189.061 129.187C189.12 129.128 189.149 129.04 189.208 128.981C190.209 128.893 191.21 128.804 192.241 128.745C194.39 128.657 196.539 128.716 198.659 129.099C199.867 129.364 201.015 129.747 202.134 130.277C203.164 130.836 204.106 131.513 204.99 132.249C205.255 132.514 205.49 132.75 205.755 133.015C206.226 133.574 206.727 134.163 207.169 134.752C207.758 135.488 208.317 136.254 208.876 137.019C209.112 137.372 209.348 137.726 209.612 138.05C209.642 138.079 209.671 138.109 209.671 138.138C209.671 138.138 209.671 138.138 209.671 138.168C209.819 138.374 209.936 138.609 210.084 138.815C211.939 141.848 213.587 145.057 214.971 148.326C215.707 150.004 216.355 151.741 216.915 153.478C217.503 155.333 218.004 157.188 218.416 159.073C218.328 159.426 218.416 159.75 218.622 160.044C219.152 162.577 219.565 165.138 219.83 167.729C219.977 168.995 220.065 170.291 220.153 171.586C220.536 178.947 220.006 186.308 218.858 193.581C218.563 195.524 218.181 197.497 217.798 199.44C217.091 202.856 216.237 206.212 215.354 209.569C214.353 213.485 213.352 217.401 212.027 221.229C211.291 223.319 210.466 225.41 209.465 227.412C208.494 229.65 207.139 231.711 205.52 233.595Z" fill="#444444"/>
<path d="M197.275 238.041C197.216 238.012 197.157 238.012 197.098 237.982C197.157 238.012 197.216 238.041 197.275 238.041Z" fill="#636363"/>
<path d="M165.594 156.452C165.535 156.393 165.476 156.364 165.446 156.305C165.299 156.217 165.181 156.158 165.594 156.452Z" fill="#636363"/>
<path d="M195.745 151.859L195.716 151.829C195.686 151.771 195.627 151.712 195.598 151.653C195.539 151.535 195.48 151.476 195.745 151.859Z" fill="#636363"/>
<path d="M163.357 137.638C163.357 137.638 163.357 137.667 163.357 137.638C163.357 137.696 163.327 137.755 163.327 137.814C163.327 137.814 163.386 137.755 163.357 137.638Z" fill="#636363"/>
<circle cx="154" cy="171" r="9" fill="#F0EBDF"/>
<circle cx="145" cy="195" r="5" fill="#F0EBDF"/>
<circle cx="142.5" cy="153.5" r="2.5" fill="#F0EBDF"/>
<circle cx="133.5" cy="179.5" r="3.5" fill="#F0EBDF"/>
<circle cx="126" cy="207" r="7" fill="#F0EBDF"/>
</svg>
