<svg width="280" height="280" viewBox="0 0 280 280" fill="none" xmlns="http://www.w3.org/2000/svg">
<path d="M150.291 223.272C134.004 223.272 118.107 217.474 104.687 206.268C104.231 205.877 104.166 205.161 104.556 204.705C104.947 204.249 105.664 204.184 106.12 204.574C125.013 220.341 149.053 225.096 171.986 217.474C189.902 211.545 205.407 198.646 214.593 182.098C224.04 165.029 225.994 145.875 220.196 128.22C220.001 127.633 220.326 127.047 220.848 126.787L252.901 115.125C253.487 114.929 254.139 115.19 254.334 115.776C254.53 116.363 254.269 117.014 253.683 117.21L222.672 128.48C228.275 146.462 226.125 165.811 216.548 183.075C207.101 200.079 191.14 213.37 172.702 219.494C165.275 222.1 157.718 223.272 150.291 223.272Z" fill="#636363"/>
<path d="M109.899 204.574C109.899 206.659 108.205 208.288 106.185 208.288C104.1 208.288 102.472 206.594 102.472 204.574C102.472 202.49 104.166 200.861 106.185 200.861C108.205 200.796 109.899 202.49 109.899 204.574Z" fill="#636363"/>
<path d="M178.044 203.337C177.653 203.337 177.328 203.141 177.067 202.815C176.741 202.294 176.872 201.578 177.458 201.252C199.348 187.701 210.88 168.026 210.88 144.507C210.88 125.614 203.322 106.46 190.162 92.0621C176.546 77.1429 158.825 68.9342 140.258 68.9342C139.606 68.9342 139.15 68.413 139.15 67.8266V35.5127C139.15 34.8612 139.672 34.4052 140.258 34.4052C140.909 34.4052 141.365 34.9263 141.365 35.5127V66.6539C160.194 66.9797 178.044 75.3839 191.791 90.4985C205.342 105.352 213.095 124.962 213.095 144.442C213.095 168.808 201.172 189.134 178.566 203.141C178.5 203.272 178.24 203.337 178.044 203.337Z" fill="#636363"/>
<path d="M180.846 202.62C180.911 204.705 179.282 206.399 177.263 206.529C175.178 206.594 173.484 204.965 173.354 202.946C173.289 200.861 174.917 199.167 176.937 199.037C179.022 198.972 180.781 200.6 180.846 202.62Z" fill="#636363"/>
<path d="M198.892 133.888C198.371 133.888 197.915 133.562 197.785 133.041C191.726 108.414 175.243 90.0424 152.636 82.7457C134.851 76.9474 114.589 78.511 97.0641 87.0455C79.1481 95.7103 66.1183 110.369 60.3851 128.155C60.32 128.415 60.0594 128.676 59.7988 128.806C59.5382 128.936 59.2125 128.936 58.9519 128.871L26.8334 117.405C26.247 117.21 25.9213 116.558 26.1819 115.972C26.3773 115.385 27.0288 115.06 27.6152 115.32L58.6261 126.396C64.7501 108.48 78.0405 93.821 96.0868 85.0259C114.068 76.2959 134.916 74.6672 153.288 80.5958C176.676 88.153 193.68 107.111 199.934 132.52C200.065 133.106 199.739 133.757 199.087 133.888C199.022 133.888 198.957 133.888 198.892 133.888Z" fill="#636363"/>
<path d="M202.866 133.823C202.866 135.907 201.172 137.536 199.153 137.536C197.068 137.536 195.439 135.842 195.439 133.823C195.439 131.738 197.133 130.109 199.153 130.109C201.237 130.109 202.866 131.803 202.866 133.823Z" fill="#636363"/>
<path d="M69.962 250.114C69.7014 250.114 69.4408 250.049 69.1802 249.853C68.7241 249.462 68.659 248.746 69.115 248.29L90.5491 224.315C75.7602 212.848 65.7273 194.802 62.991 174.671C60.1896 154.149 65.2061 133.562 76.7375 118.187C91.396 98.5118 115.045 88.544 141.43 90.8242C142.082 90.8894 142.538 91.4106 142.473 92.0621C142.408 92.7136 141.887 93.1045 141.235 93.1045C115.566 90.8894 92.699 100.531 78.4965 119.555C67.356 134.474 62.4698 154.475 65.2061 174.41C67.9423 194.411 77.9753 212.197 92.8293 223.337C93.0899 223.533 93.2202 223.793 93.2853 224.119C93.2853 224.445 93.2202 224.771 93.0247 224.966L70.7437 249.853C70.6135 249.983 70.2877 250.114 69.962 250.114Z" fill="#636363"/>
<path d="M146.252 91.9318C146.252 94.0165 144.558 95.6453 142.538 95.6453C140.453 95.6453 138.825 93.9514 138.825 91.9318C138.825 89.847 140.519 88.2183 142.538 88.2183C144.623 88.2183 146.252 89.9121 146.252 91.9318Z" fill="#636363"/>
<path d="M210.293 250.309C209.968 250.309 209.577 250.114 209.381 249.853L191.4 223.989C159.673 246.205 111.332 237.084 87.2268 204.053C72.9591 184.443 70.3532 158.123 80.2558 133.627C80.5164 133.041 81.1679 132.78 81.6891 133.041C82.2754 133.301 82.536 133.953 82.3406 134.474C72.6985 158.188 75.1742 183.727 89.051 202.685C103.775 222.881 127.815 233.892 151.333 233.892C165.471 233.892 179.478 229.852 191.009 221.448C191.27 221.253 191.53 221.188 191.856 221.253C192.182 221.318 192.443 221.448 192.573 221.709L211.205 248.485C211.531 249.006 211.466 249.723 210.945 250.049C210.749 250.244 210.554 250.309 210.293 250.309Z" fill="#636363"/>
<path d="M86.1191 134.474C86.1191 136.559 84.4253 138.188 82.4056 138.188C80.3209 138.188 78.6921 136.494 78.6921 134.474C78.6921 132.389 80.386 130.761 82.4056 130.761C84.4253 130.695 86.1191 132.389 86.1191 134.474Z" fill="#636363"/>
<path d="M178.305 190.698C157.457 211.545 123.645 211.545 102.862 190.698C82.0146 169.85 82.0146 136.038 102.862 115.255C123.71 94.4073 157.522 94.4073 178.305 115.255C199.153 136.038 199.153 169.85 178.305 190.698Z" fill="#FF0420"/>
<path d="M90.6794 152.976C90.6794 125.418 113.026 103.137 140.518 103.137C168.077 103.137 190.358 125.483 190.358 152.976C190.358 180.534 168.011 202.815 140.518 202.815C113.026 202.815 90.6794 180.534 90.6794 152.976Z" fill="#FF0420"/>
<path d="M266.777 132.78C276.55 129.848 282.153 119.49 279.221 109.717C276.289 99.945 265.93 94.3422 256.158 97.2739C248.014 99.7496 242.802 107.307 242.933 115.45L237.591 122.161L245.734 124.832C250.099 131.738 258.634 135.191 266.777 132.78Z" fill="#636363"/>
<path fill-rule="evenodd" clip-rule="evenodd" d="M264.693 108.675C264.693 110.434 263.259 111.802 261.566 111.802C259.807 111.802 258.438 110.369 258.438 108.675C258.438 106.916 259.872 105.548 261.566 105.548C263.259 105.548 264.693 106.916 264.693 108.675Z" fill="white"/>
<path d="M256.484 123.268H266.712L266.842 116.167C266.908 114.343 265.474 112.91 263.65 112.91H259.546C257.722 112.91 256.288 114.408 256.353 116.167L256.484 123.268Z" fill="white"/>
<path d="M268.015 112.779H266.061C267.233 113.301 268.08 114.734 268.015 116.167L267.885 122.487L270.295 121.575L270.426 115.711C270.621 114.017 269.644 112.779 268.015 112.779Z" fill="white"/>
<path fill-rule="evenodd" clip-rule="evenodd" d="M266.582 107.307C266.191 107.307 265.865 107.372 265.54 107.567C265.67 107.893 265.735 108.284 265.735 108.675C265.735 109.652 265.344 110.499 264.758 111.151C265.214 111.672 265.865 111.998 266.582 111.998C267.885 111.998 268.927 110.955 268.927 109.652C268.927 108.349 267.885 107.307 266.582 107.307Z" fill="white"/>
<path d="M255.311 112.779H257.07C255.898 113.301 255.051 114.734 255.116 116.167L255.246 122.487L253.031 121.575L252.901 115.711C252.705 114.017 253.682 112.779 255.311 112.779Z" fill="white"/>
<path fill-rule="evenodd" clip-rule="evenodd" d="M257.396 108.675C257.396 108.284 257.461 107.828 257.591 107.437C257.331 107.307 257.07 107.307 256.744 107.307C255.441 107.307 254.399 108.349 254.399 109.652C254.399 110.955 255.441 111.998 256.744 111.998C257.396 111.998 258.047 111.737 258.438 111.281C257.787 110.564 257.396 109.717 257.396 108.675Z" fill="white"/>
<path d="M12.7613 129.914C3.24953 126.2 -1.4412 115.451 2.27229 105.874C5.98579 96.3618 16.7354 91.6711 26.3123 95.3846C34.2605 98.5118 38.8209 106.46 37.974 114.604L42.7299 121.77L34.3908 123.79C29.5046 130.304 20.7095 133.041 12.7613 129.914Z" fill="#636363"/>
<path fill-rule="evenodd" clip-rule="evenodd" d="M22.6237 106.46C22.6237 108.219 21.1904 109.587 19.4965 109.587C17.7375 109.587 16.3694 108.154 16.3694 106.46C16.3694 104.701 17.8027 103.333 19.4965 103.333C21.1904 103.333 22.6237 104.701 22.6237 106.46Z" fill="white"/>
<path d="M14.4149 121.053H24.6433L24.7736 113.952C24.8388 112.128 23.4055 110.695 21.5813 110.695H17.4769C15.6527 110.695 14.2195 112.193 14.2846 113.952L14.4149 121.053Z" fill="white"/>
<path d="M25.9462 110.564H23.9917C25.1644 111.086 26.0113 112.519 25.9462 113.952L25.8159 120.272L28.2264 119.359L28.3567 113.496C28.5521 111.802 27.5749 110.564 25.9462 110.564Z" fill="white"/>
<path fill-rule="evenodd" clip-rule="evenodd" d="M24.5129 105.092C24.122 105.092 23.7963 105.157 23.4705 105.352C23.6008 105.678 23.666 106.069 23.666 106.46C23.666 107.437 23.2751 108.284 22.6887 108.936C23.1448 109.457 23.7963 109.783 24.5129 109.783C25.8159 109.783 26.8583 108.74 26.8583 107.437C26.8583 106.134 25.8159 105.092 24.5129 105.092Z" fill="white"/>
<path d="M13.2421 110.564H15.0012C13.8285 111.086 12.9815 112.519 13.0467 113.952L13.177 120.272L10.9619 119.359L10.8316 113.496C10.6362 111.802 11.6134 110.564 13.2421 110.564Z" fill="white"/>
<path fill-rule="evenodd" clip-rule="evenodd" d="M15.3269 106.46C15.3269 106.069 15.3921 105.613 15.5224 105.222C15.2618 105.092 15.0012 105.092 14.6754 105.092C13.3725 105.092 12.3301 106.134 12.3301 107.437C12.3301 108.74 13.3725 109.783 14.6754 109.783C15.3269 109.783 15.9784 109.522 16.3693 109.066C15.7178 108.349 15.3269 107.502 15.3269 106.46Z" fill="white"/>
<path d="M197.589 266.075C202.932 274.805 214.333 277.541 223.063 272.199C231.793 266.857 234.529 255.456 229.187 246.726C224.756 239.429 216.092 236.302 208.274 238.582L200.391 235.129L199.87 243.729C194.332 249.658 193.159 258.778 197.589 266.075Z" fill="#636363"/>
<path fill-rule="evenodd" clip-rule="evenodd" d="M216.768 249.136C216.768 250.895 215.335 252.263 213.641 252.263C211.882 252.263 210.514 250.83 210.514 249.136C210.514 247.377 211.947 246.009 213.641 246.009C215.335 246.009 216.768 247.377 216.768 249.136Z" fill="white"/>
<path d="M208.559 263.73H218.787L218.918 256.628C218.983 254.804 217.55 253.371 215.725 253.371H211.621C209.797 253.371 208.364 254.869 208.429 256.628L208.559 263.73Z" fill="white"/>
<path d="M220.09 253.241H218.136C219.309 253.762 220.156 255.195 220.09 256.629L219.96 262.948L222.371 262.036L222.501 256.172C222.696 254.479 221.719 253.241 220.09 253.241Z" fill="white"/>
<path fill-rule="evenodd" clip-rule="evenodd" d="M218.657 247.768C218.266 247.768 217.941 247.833 217.615 248.029C217.745 248.355 217.81 248.745 217.81 249.136C217.81 250.114 217.419 250.961 216.833 251.612C217.289 252.133 217.941 252.459 218.657 252.459C219.96 252.459 221.003 251.417 221.003 250.114C221.003 248.811 219.96 247.768 218.657 247.768Z" fill="white"/>
<path d="M207.386 253.241H209.145C207.973 253.762 207.126 255.195 207.191 256.629L207.321 262.948L205.106 262.036L204.976 256.172C204.78 254.479 205.758 253.241 207.386 253.241Z" fill="white"/>
<path fill-rule="evenodd" clip-rule="evenodd" d="M209.471 249.136C209.471 248.745 209.536 248.289 209.666 247.899C209.406 247.768 209.145 247.768 208.819 247.768C207.517 247.768 206.474 248.811 206.474 250.114C206.474 251.417 207.517 252.459 208.819 252.459C209.471 252.459 210.122 252.198 210.513 251.742C209.862 251.026 209.471 250.179 209.471 249.136Z" fill="white"/>
<path d="M85.142 266.075C79.7997 274.805 68.3987 277.541 59.6687 272.199C50.9387 266.857 48.2024 255.456 53.5447 246.726C57.9748 239.429 66.6396 236.302 74.4575 238.582L82.3406 235.129L82.8617 243.729C88.3994 249.658 89.5721 258.778 85.142 266.075Z" fill="#636363"/>
<path fill-rule="evenodd" clip-rule="evenodd" d="M72.7885 249.136C72.7885 250.895 71.3552 252.263 69.6613 252.263C67.9023 252.263 66.5342 250.83 66.5342 249.136C66.5342 247.377 67.9675 246.009 69.6613 246.009C71.3552 246.009 72.7885 247.377 72.7885 249.136Z" fill="white"/>
<path d="M64.5797 263.73H74.8081L74.9384 256.628C75.0036 254.804 73.5703 253.371 71.7461 253.371H67.6417C65.8175 253.371 64.3843 254.869 64.4494 256.628L64.5797 263.73Z" fill="white"/>
<path d="M76.111 253.241H74.1565C75.3292 253.762 76.1761 255.195 76.111 256.629L75.9807 262.948L78.3912 262.036L78.5215 256.172C78.7169 254.479 77.7397 253.241 76.111 253.241Z" fill="white"/>
<path fill-rule="evenodd" clip-rule="evenodd" d="M74.6777 247.768C74.2868 247.768 73.9611 247.833 73.6353 248.029C73.7656 248.355 73.8308 248.745 73.8308 249.136C73.8308 250.114 73.4399 250.961 72.8535 251.612C73.3096 252.133 73.9611 252.459 74.6777 252.459C75.9807 252.459 77.0231 251.417 77.0231 250.114C77.0231 248.811 75.9807 247.768 74.6777 247.768Z" fill="white"/>
<path d="M63.4069 253.241H65.166C63.9933 253.762 63.1463 255.195 63.2115 256.629L63.3418 262.948L61.1267 262.036L60.9964 256.172C60.801 254.479 61.7782 253.241 63.4069 253.241Z" fill="white"/>
<path fill-rule="evenodd" clip-rule="evenodd" d="M65.4917 249.136C65.4917 248.745 65.5569 248.289 65.6872 247.899C65.4266 247.768 65.166 247.768 64.8402 247.768C63.5373 247.768 62.4949 248.811 62.4949 250.114C62.4949 251.417 63.5373 252.459 64.8402 252.459C65.4917 252.459 66.1432 252.198 66.5341 251.742C65.8826 251.026 65.4917 250.179 65.4917 249.136Z" fill="white"/>
<path d="M159.086 24.5023C159.086 14.2739 150.812 6 140.584 6C130.355 6 122.016 14.2739 122.016 24.5023C122.016 33.0369 127.749 40.2033 135.633 42.3532L140.584 49.3893L145.535 42.3532C153.288 40.2033 159.086 33.0369 159.086 24.5023Z" fill="#636363"/>
<path fill-rule="evenodd" clip-rule="evenodd" d="M143.801 17.8571C143.801 19.6162 142.368 20.9843 140.674 20.9843C138.915 20.9843 137.547 19.551 137.547 17.8571C137.547 16.0981 138.98 14.73 140.674 14.73C142.368 14.73 143.801 16.0981 143.801 17.8571Z" fill="white"/>
<path d="M135.592 32.4505H145.821L145.951 25.3493C146.016 23.5251 144.583 22.0918 142.759 22.0918H138.654C136.83 22.0918 135.397 23.5902 135.462 25.3493L135.592 32.4505Z" fill="white"/>
<path d="M147.123 21.9614H145.169C146.342 22.4826 147.189 23.9159 147.123 25.3492L146.993 31.6686L149.404 30.7565L149.534 24.8931C149.729 23.1993 148.752 21.9614 147.123 21.9614Z" fill="white"/>
<path fill-rule="evenodd" clip-rule="evenodd" d="M145.69 16.4889C145.299 16.4889 144.974 16.554 144.648 16.7495C144.778 17.0752 144.843 17.4661 144.843 17.857C144.843 18.8343 144.452 19.6812 143.866 20.3327C144.322 20.8539 144.974 21.1796 145.69 21.1796C146.993 21.1796 148.036 20.1372 148.036 18.8343C148.036 17.5313 146.993 16.4889 145.69 16.4889Z" fill="white"/>
<path d="M134.419 21.9614H136.178C135.006 22.4826 134.159 23.9159 134.224 25.3492L134.354 31.6686L132.139 30.7565L132.009 24.8931C131.813 23.1993 132.791 21.9614 134.419 21.9614Z" fill="white"/>
<path fill-rule="evenodd" clip-rule="evenodd" d="M136.504 17.857C136.504 17.4661 136.569 17.0101 136.7 16.6192C136.439 16.4889 136.178 16.4889 135.853 16.4889C134.55 16.4889 133.507 17.5313 133.507 18.8343C133.507 20.1372 134.55 21.1796 135.853 21.1796C136.504 21.1796 137.156 20.919 137.547 20.463C136.895 19.7463 136.504 18.8994 136.504 17.857Z" fill="white"/>
<path d="M105.285 166C105.045 166 104.853 165.916 104.709 165.748C104.565 165.58 104.517 165.364 104.565 165.1L109.533 141.7C109.581 141.436 109.701 141.22 109.893 141.052C110.109 140.884 110.349 140.8 110.613 140.8H114.429C114.813 140.8 115.077 140.884 115.221 141.052C115.365 141.22 115.461 141.364 115.509 141.484L121.377 155.416L124.293 141.7C124.341 141.436 124.473 141.22 124.689 141.052C124.905 140.884 125.133 140.8 125.373 140.8H129.693C129.957 140.8 130.149 140.884 130.269 141.052C130.413 141.22 130.461 141.436 130.413 141.7L125.445 165.1C125.397 165.34 125.265 165.556 125.049 165.748C124.857 165.916 124.629 166 124.365 166H120.549C120.165 166 119.901 165.916 119.757 165.748C119.613 165.556 119.517 165.412 119.469 165.316L113.529 151.888L110.685 165.1C110.637 165.364 110.505 165.58 110.289 165.748C110.097 165.916 109.869 166 109.605 166H105.285ZM131.16 166C130.92 166 130.728 165.916 130.584 165.748C130.44 165.58 130.392 165.364 130.44 165.1L135.408 141.7C135.456 141.436 135.588 141.22 135.804 141.052C136.02 140.884 136.248 140.8 136.488 140.8H153.048C153.312 140.8 153.504 140.884 153.624 141.052C153.768 141.22 153.816 141.436 153.768 141.7L153.012 145.336C152.964 145.6 152.832 145.816 152.616 145.984C152.4 146.152 152.16 146.236 151.896 146.236H140.808L139.692 151.528H150.06C150.324 151.528 150.516 151.624 150.636 151.816C150.78 151.984 150.828 152.2 150.78 152.464L149.988 156.064C149.964 156.304 149.844 156.52 149.628 156.712C149.412 156.88 149.172 156.964 148.908 156.964H138.54L136.776 165.1C136.728 165.364 136.596 165.58 136.38 165.748C136.188 165.916 135.96 166 135.696 166H131.16ZM158.957 166C158.693 166 158.489 165.916 158.345 165.748C158.201 165.58 158.153 165.364 158.201 165.1L162.197 146.452H155.789C155.549 146.452 155.357 146.368 155.213 146.2C155.069 146.008 155.021 145.792 155.069 145.552L155.897 141.7C155.945 141.436 156.065 141.22 156.257 141.052C156.473 140.884 156.713 140.8 156.977 140.8H176.345C176.609 140.8 176.801 140.884 176.921 141.052C177.065 141.22 177.113 141.436 177.065 141.7L176.237 145.552C176.189 145.792 176.057 146.008 175.841 146.2C175.649 146.368 175.421 146.452 175.157 146.452H168.749L164.789 165.1C164.741 165.364 164.609 165.58 164.393 165.748C164.201 165.916 163.973 166 163.709 166H158.957Z" fill="#F0EBDF"/>
</svg>
