<svg width="280" height="280" viewBox="0 0 280 280" fill="none" xmlns="http://www.w3.org/2000/svg">
<path d="M41.3578 136.369C42.0573 135.209 40.8726 132.992 40.8726 132.992C41.0358 132.605 41.1505 132.251 41.3137 131.864C41.983 130.236 42.3462 128.462 42.3704 126.702C42.4579 118.065 43.9271 107.4 48.7505 97.5891C59.2446 76.2926 81.6822 80.802 87.0198 82.2308C87.8583 82.4445 88.6493 82.4804 89.4898 82.2743L93.4979 81.3722C94.2091 81.1816 94.6483 80.4732 94.3771 79.7455L93.4693 76.9967C93.2943 76.4146 92.6986 76.0406 92.0845 76.167C89.4027 76.5423 82.1016 77.3165 78.4662 74.3454C70.455 67.9156 48.1651 62.8903 34.4777 90.5496C29.2472 101.117 24.9471 116.581 34.4964 132.737C35.0213 134.483 36.4876 135.12 37.3847 136.69C38.3623 138.276 40.6583 137.528 41.3578 136.369Z" fill="#FFE854"/>
<path d="M93.3576 76.7216C93.4218 76.8187 93.4859 76.9159 93.5015 77.0451L94.4093 79.7939C94.6484 80.4731 94.2413 81.2301 93.5301 81.4206L89.522 82.3227C88.7301 82.4968 87.8905 82.4929 87.0519 82.2793C81.6658 80.8825 59.2767 76.3411 48.7827 97.6375C43.9107 107.48 42.4901 118.113 42.4025 126.751C42.3784 128.511 42.0152 130.285 41.3459 131.912C41.1827 132.299 41.0194 132.686 40.9048 133.041C40.9048 133.041 42.0895 135.258 41.39 136.417C40.7391 137.544 38.5403 138.229 37.6102 136.82C37.5781 136.771 37.5781 136.771 37.5461 136.723C37.4819 136.626 37.4178 136.528 37.3857 136.48C36.6802 135.411 35.7949 134.81 35.1535 133.838C34.9611 133.546 34.7852 133.174 34.6578 132.77C25.1085 116.614 29.3601 101.182 34.6392 90.5826C48.3265 62.9232 70.6164 67.9485 78.6276 74.3784C82.3116 77.3173 89.5642 76.5752 92.246 76.1999C92.6502 76.0726 93.1011 76.3329 93.3576 76.7216ZM94.815 75.7595C94.1736 74.7879 93.0134 74.2982 91.8503 74.4383C83.6106 75.6926 80.3747 73.6436 79.538 73.0101C75.1301 69.5028 66.5401 66.1056 56.908 68.2093C44.4959 70.9623 36.9732 81.4388 32.8667 89.7995C25.1103 105.522 25.1244 120.231 32.8788 133.456C33.0382 133.909 33.2461 134.33 33.5348 134.767C33.9517 135.399 34.4016 135.869 34.8195 136.291C35.2053 136.664 35.5104 137.02 35.767 137.409C35.7991 137.457 35.8311 137.506 35.8953 137.603C35.9273 137.652 35.9915 137.749 36.0235 137.797C36.697 138.818 37.8407 139.388 39.1486 139.362C40.6343 139.288 42.1073 138.455 42.8068 137.295C43.6365 135.911 43.1281 134.084 42.7131 133.033L42.9249 132.614C43.7244 130.761 44.1207 128.825 44.1137 126.807C44.2594 116.039 46.3369 106.506 50.3452 98.4196C54.5654 89.914 61.2083 84.7615 70.1438 83.1875C77.3827 81.8964 84.0602 83.3474 86.576 83.9885C87.6565 84.2517 88.8187 84.3216 89.8855 84.0358L93.8936 83.1337C94.7341 82.9276 95.4308 82.398 95.8378 81.641C96.2449 80.884 96.2973 80.0124 96.0426 79.204L95.1348 76.4552C95.1037 76.1967 94.9754 76.0024 94.815 75.7595Z" fill="#636363"/>
<path d="M40.8561 133.073C40.8561 133.073 42.0408 135.29 41.3413 136.449C40.6418 137.609 38.3944 138.325 37.4974 136.755C36.6004 135.185 35.134 134.548 34.6091 132.802L35.7364 133.453C37.363 134.332 39.3657 134.196 40.8561 133.073Z" fill="#636363"/>
<path d="M39.3344 133.938C29.7851 117.781 34.0366 102.35 39.3157 91.75C48.5546 73.0957 61.6817 69.3126 71.7174 70.7789C61.4327 67.2449 45.2485 68.7215 34.4776 90.5494C29.2471 101.117 24.9469 116.581 34.4963 132.737C35.0212 134.483 36.4875 135.119 37.3845 136.69C38.2495 138.211 40.3511 137.591 41.1634 136.497C40.4724 135.767 39.6843 135.102 39.3344 133.938Z" fill="#F6A800"/>
<path d="M88.0686 82.4453C88.569 82.4637 89.0373 82.4335 89.5222 82.3227L93.5303 81.4206C94.2416 81.2301 94.6807 80.5217 94.4095 79.7939L93.5017 77.0451C93.3267 76.4631 92.7311 76.089 92.117 76.2154C90.8567 76.4196 88.6277 76.6355 86.2383 76.6085L87.6428 80.2153C87.6593 80.1346 88.6709 81.3501 88.0686 82.4453Z" fill="#636363"/>
<path d="M80.1205 79.81L87.2061 80.2942C87.2061 80.2942 88.9823 80.2376 90.1356 78.7091C91.3374 77.1484 93.5334 77.0938 93.5334 77.0938C93.4381 76.7382 93.1165 76.4622 92.8104 76.3156C92.6491 76.2825 92.4071 76.233 92.1972 76.232C89.8545 76.5928 84.1527 77.1482 80.2532 75.4675C79.7052 75.2713 79.2543 75.0109 78.884 74.7671C79.4467 75.3024 80.6343 76.89 80.1205 79.81Z" fill="#F6A800"/>
<path d="M41.1957 136.545C41.1957 136.545 35.5205 131.224 33.7778 116.75" stroke="#636363" stroke-width="3" stroke-miterlimit="10" stroke-linecap="round"/>
<path d="M33.9429 108.759L33.6994 112.617" stroke="#636363" stroke-width="3" stroke-miterlimit="10" stroke-linecap="round"/>
<path d="M80.1202 79.81C80.1202 79.81 75.1557 77.9954 70.0661 78.8441" stroke="#636363" stroke-width="3" stroke-miterlimit="10" stroke-linecap="round"/>
<path d="M83.1574 224.08C84.9511 224.086 86.6641 221.23 86.6641 221.23C87.2147 221.152 87.6958 221.041 88.2465 220.963C90.5518 220.615 92.8155 219.82 94.8316 218.649C104.707 212.868 117.827 207.276 132.26 206.078C163.606 203.503 173.758 232.071 175.769 239.11C176.097 240.208 176.595 241.131 177.401 241.946L181.155 245.887C181.856 246.565 182.96 246.582 183.602 245.778L186.108 242.875C186.65 242.28 186.67 241.348 186.108 240.737C183.855 237.945 178.005 230.175 178.906 224.021C180.758 210.539 171.293 181.787 130.541 185.065C114.971 186.316 94.4706 191.958 82.6125 213.81C80.9857 215.596 81.261 217.695 80.0874 219.784C78.95 221.975 81.3637 224.074 83.1574 224.08Z" fill="#FFE854"/>
<path d="M186.344 242.561C186.278 242.7 186.211 242.839 186.075 242.945L183.569 245.848C182.96 246.582 181.823 246.635 181.122 245.956L177.368 242.016C176.631 241.234 176.063 240.278 175.735 239.179C173.655 232.107 163.572 203.573 132.226 206.147C117.724 207.312 104.673 212.938 94.7983 218.719C92.7822 219.89 90.5185 220.685 88.2132 221.032C87.6626 221.11 87.1119 221.188 86.6309 221.299C86.6309 221.299 84.9178 224.155 83.1241 224.15C81.4 224.177 79.1253 222.145 80.093 220.128C80.1264 220.059 80.1264 220.059 80.1598 219.989C80.2265 219.85 80.2933 219.711 80.3266 219.642C81.0608 218.112 81.1415 216.697 81.8089 215.306C82.0092 214.889 82.3123 214.436 82.6849 214.016C94.543 192.164 114.974 186.489 130.614 185.271C171.365 181.993 180.83 210.745 178.978 224.227C178.147 230.414 183.928 238.151 186.18 240.943C186.6 241.315 186.611 242.005 186.344 242.561ZM188.43 243.562C189.097 242.172 188.864 240.52 187.913 239.294C180.877 230.784 181.003 225.712 181.153 224.329C182.137 216.932 180.149 204.858 171.201 195.344C159.621 183.114 142.594 181.698 130.297 182.724C107.149 184.614 90.4439 194.645 80.6939 212.462C80.2878 212.951 79.9513 213.474 79.651 214.1C79.2171 215.003 78.9891 215.835 78.7944 216.597C78.6331 217.289 78.4357 217.879 78.1687 218.435C78.1353 218.504 78.102 218.574 78.0352 218.713C78.0018 218.782 77.9351 218.922 77.9017 218.991C77.2009 220.451 77.3316 222.139 78.252 223.607C79.3477 225.245 81.297 226.352 83.0907 226.358C85.2292 226.358 86.9589 224.536 87.8711 223.349L88.4912 223.304C91.1414 222.951 93.6108 222.084 95.8995 220.702C108.236 213.536 120.483 209.406 132.402 208.455C144.941 207.46 155.319 211.501 163.191 220.583C169.587 227.931 172.485 236.507 173.469 239.802C173.906 241.209 174.617 242.577 175.669 243.595L179.423 247.536C180.229 248.351 181.305 248.782 182.443 248.729C183.58 248.676 184.606 248.142 185.351 247.302L187.857 244.399C188.13 244.188 188.263 243.91 188.43 243.562Z" fill="#636363"/>
<path d="M86.5614 221.266C86.5614 221.266 84.8483 224.122 83.0547 224.116C81.261 224.111 78.9167 222.044 80.0903 219.956C81.2639 217.868 80.9886 215.768 82.6155 213.983L82.6432 215.707C82.7517 218.154 84.27 220.337 86.5614 221.266Z" fill="#636363"/>
<path d="M84.5429 220.125C96.4009 198.274 116.832 192.598 132.472 191.38C159.961 189.178 173.198 201.52 178.364 213.923C175.378 199.83 162.681 182.443 130.542 185.065C114.972 186.316 94.4711 191.958 82.6131 213.81C80.9862 215.595 81.2615 217.695 80.0879 219.783C78.9477 221.802 81.0834 223.768 82.8798 223.946C83.2386 222.664 83.4583 221.316 84.5429 220.125Z" fill="#F6A800"/>
<path d="M176.239 240.447C176.558 241.029 176.911 241.54 177.368 242.016L181.122 245.956C181.822 246.635 182.926 246.652 183.569 245.848L186.074 242.945C186.617 242.35 186.636 241.418 186.074 240.806C184.984 239.513 183.221 237.127 181.625 234.393L178.483 238.445C178.586 238.409 177.893 240.386 176.239 240.447Z" fill="#636363"/>
<path d="M173.822 229.621L178.096 238.003C178.096 238.003 179.37 239.983 181.892 240.253C184.484 240.556 186.041 243.014 186.041 243.014C186.381 242.664 186.475 242.11 186.433 241.663C186.361 241.457 186.253 241.148 186.111 240.909C184.106 238.492 179.593 232.391 178.847 226.815C178.697 226.059 178.686 225.369 178.711 224.783C178.486 225.786 177.49 228.217 173.822 229.621Z" fill="#F6A800"/>
<path d="M82.8462 224.016C82.8462 224.016 85.0293 213.944 100.291 202.109" stroke="#636363" stroke-width="3" stroke-miterlimit="10" stroke-linecap="round"/>
<path d="M109.484 196.856L104.935 199.206" stroke="#636363" stroke-width="3" stroke-miterlimit="10" stroke-linecap="round"/>
<path d="M173.822 229.621C173.822 229.621 172.504 222.744 168.075 217.538" stroke="#636363" stroke-width="3" stroke-miterlimit="10" stroke-linecap="round"/>
<path d="M185.869 56.6833C184.401 58.0301 185.155 61.6518 185.155 61.6518C184.764 62.1302 184.455 62.5835 184.064 63.0619C182.444 65.0824 181.196 67.437 180.432 69.9116C176.728 82.0704 170.232 96.5198 159.354 108.372C135.708 134.09 105.898 118.421 98.9542 114.191C97.8588 113.541 96.7569 113.163 95.4848 113.105L89.4517 112.717C88.3685 112.691 87.4548 113.509 87.5359 114.649L87.6781 118.907C87.6838 119.801 88.3698 120.576 89.2892 120.652C93.2313 121.234 103.861 123.168 107.762 128.87C116.407 141.27 145.795 157.606 176.588 124.228C188.354 111.476 200.836 91.4254 194.052 64.6552C194.034 61.9723 192.228 60.466 191.612 57.8772C190.89 55.2316 187.338 55.3365 185.869 56.6833Z" fill="#FFE854"/>
<path d="M87.7218 119.342C87.6715 119.178 87.6212 119.014 87.6529 118.825L87.5107 114.568C87.4547 113.51 88.3433 112.61 89.4265 112.635L95.4596 113.023C96.6498 113.106 97.8336 113.459 98.929 114.109C105.955 118.314 135.683 134.008 159.329 108.29C170.288 96.413 176.703 81.9887 180.407 69.8299C181.171 67.3553 182.419 65.0007 184.039 62.9801C184.43 62.5017 184.82 62.0233 185.129 61.5701C185.129 61.5701 184.376 57.9484 185.844 56.6015C187.231 55.2799 190.619 55.2253 191.348 57.6001C191.373 57.682 191.373 57.682 191.398 57.7639C191.448 57.9276 191.499 58.0914 191.524 58.1733C192.077 59.9748 193.077 61.191 193.58 62.8287C193.731 63.32 193.825 63.9184 193.837 64.5419C200.622 91.312 188.222 111.338 176.374 124.115C145.581 157.493 116.193 141.156 107.548 128.757C103.565 123.08 93.0172 121.121 89.0751 120.539C88.4516 120.551 87.9229 119.997 87.7218 119.342ZM85.2652 120.096C85.768 121.734 87.2031 122.906 88.9034 123.19C101.057 124.835 104.777 129.07 105.695 130.311C110.465 137.091 121.185 145.448 135.656 146.472C154.322 147.73 169.287 136.057 178.551 125.955C196.021 106.972 202.099 86.1991 196.634 64.3106C196.596 63.6053 196.477 62.925 196.251 62.188C195.924 61.1235 195.484 60.273 195.069 59.5044C194.679 58.8177 194.396 58.1877 194.194 57.5326C194.169 57.4507 194.144 57.3688 194.094 57.2051C194.069 57.1232 194.019 56.9594 193.993 56.8775C193.465 55.1579 192.087 53.8785 190.229 53.3735C188.101 52.8621 185.676 53.4273 184.208 54.7741C182.462 56.3853 182.423 59.1752 182.573 60.8316L182.1 61.3352C180.203 63.6201 178.841 66.1887 178.014 69.0411C173.344 84.1845 166.459 96.7821 157.447 106.538C147.962 116.798 136.447 121.318 123.178 119.836C112.422 118.658 103.596 113.841 100.31 111.893C98.8931 111.073 97.2812 110.493 95.6564 110.454L89.6233 110.066C88.3512 110.009 87.148 110.468 86.2595 111.368C85.3709 112.268 84.9356 113.477 84.96 114.724L85.1021 118.981C85.0389 119.359 85.1395 119.686 85.2652 120.096Z" fill="#636363"/>
<path d="M185.211 61.5447C185.211 61.5447 184.458 57.9229 185.926 56.5761C187.394 55.2293 190.864 55.1496 191.48 57.7384C192.095 60.3272 193.902 61.8336 193.919 64.5165L192.597 63.1301C190.665 61.2143 187.781 60.5764 185.211 61.5447Z" fill="#636363"/>
<path d="M187.718 60.9545C194.503 87.7246 182.102 107.75 170.254 120.527C149.476 143.035 129.373 142.934 115.811 136.704C128.867 145.957 152.33 150.582 176.587 124.228C188.353 111.476 200.836 91.4255 194.051 64.6553C194.034 61.9724 192.227 60.4661 191.612 57.8773C191.021 55.3704 187.797 55.3746 186.196 56.5828C186.87 57.8995 187.706 59.1659 187.718 60.9545Z" fill="#F6A800"/>
<path d="M97.5625 113.453C96.8636 113.22 96.1898 113.068 95.4593 113.024L89.4262 112.636C88.343 112.61 87.4293 113.428 87.5105 114.568L87.6526 118.825C87.6584 119.719 88.3443 120.495 89.2638 120.571C91.1278 120.805 94.3645 121.424 97.7269 122.453L97.2392 116.778C97.1825 116.885 96.2581 114.75 97.5625 113.453Z" fill="#636363"/>
<path d="M107.691 120.469L97.8878 116.848C97.8878 116.848 95.3565 116.191 93.0945 117.871C90.7506 119.576 87.6274 118.743 87.6274 118.743C87.6145 119.285 87.9542 119.808 88.3256 120.142C88.5397 120.255 88.8607 120.425 89.1567 120.514C92.6139 120.976 100.895 122.555 105.704 126.545C106.396 127.049 106.925 127.604 107.346 128.102C106.774 127.113 105.755 124.379 107.691 120.469Z" fill="#F6A800"/>
<path d="M186.172 56.5011C186.172 56.5011 191.978 66.3672 188.438 87.5258" stroke="#636363" stroke-width="3" stroke-miterlimit="10" stroke-linecap="round"/>
<path d="M184.892 98.7396L186.835 93.394" stroke="#636363" stroke-width="3" stroke-miterlimit="10" stroke-linecap="round"/>
<path d="M107.691 120.469C107.691 120.469 113.948 125.089 121.486 126.001" stroke="#636363" stroke-width="3" stroke-miterlimit="10" stroke-linecap="round"/>
<path d="M89.2007 172.853L78.3263 170.435L70.1718 178.023C68.537 179.545 65.8655 178.53 65.65 176.307L64.5886 165.218L54.8539 159.809C52.9022 158.725 53.043 155.87 55.0909 154.982L60.8842 152.466C60.8838 152.464 60.8863 152.463 60.8863 152.463L65.3087 150.543L67.4452 139.611C67.8728 137.419 70.6283 136.668 72.1079 138.341L79.4859 146.689L90.5445 145.344C92.7607 145.074 94.3261 147.462 93.1915 149.388L87.5335 158.984L91.3889 167.276L92.2303 169.084C93.1709 171.11 91.3851 173.336 89.2007 172.853Z" fill="#FFDA22"/>
<g opacity="0.7">
<path d="M91.8058 168.517L92.4707 169.944C92.4401 169.66 92.3636 169.37 92.2301 169.084L91.3888 167.276L88.0377 160.074L87.9479 160.226L91.8058 168.517Z" fill="white"/>
<path d="M65.0087 166.462L64.6945 166.286L65.653 176.309C65.6965 176.764 65.8461 177.17 66.0676 177.514L65.0087 166.462Z" fill="white"/>
</g>
<path d="M90.5443 145.344L90.3766 145.364C91.5361 146.481 91.8965 147.375 90.1278 149.897C88.8255 151.75 86.812 154.634 85.4396 156.599C84.5358 157.893 84.4287 159.578 85.1644 160.973C86.5936 163.69 88.2154 168.142 87.7055 169.122C86.9479 170.572 76.8335 166.442 76.8335 166.442C76.8335 166.442 69.5699 174.601 68.2525 173.633C67.3828 172.996 66.8585 168.489 66.94 165.416C66.9832 163.739 66.0272 162.196 64.5066 161.488C62.318 160.469 59.2194 158.978 57.3123 157.853C56.0118 157.086 55.2781 155.856 55.5758 154.769L55.0929 154.979C53.0424 155.868 52.9017 158.723 54.8559 159.806L64.5937 165.22L65.6547 176.306C65.6615 176.376 65.6707 176.445 65.6821 176.511C65.6707 176.445 65.6615 176.376 65.6547 176.306L65.6198 175.953C66.3783 177.48 68.4925 178 69.8713 176.718L78.0255 169.128L88.8998 171.545C90.6528 171.932 92.1467 170.574 92.1833 168.978L92.2322 169.082L91.3909 167.273L87.5333 158.984L93.1937 149.388C94.3263 147.465 92.7605 145.074 90.5443 145.344Z" fill="#F6A800"/>
<path d="M68.4157 181.128C67.856 181.203 67.2778 181.14 66.7252 180.927C65.4843 180.452 64.635 179.33 64.508 178.002L63.3855 166.326L53.1949 160.62C52.0352 159.969 51.354 158.738 51.4173 157.406C51.4803 156.072 52.2765 154.915 53.4927 154.384L64.1765 149.72L66.401 138.212C66.6552 136.901 67.6057 135.873 68.8864 135.522C70.1644 135.172 71.509 135.579 72.3876 136.579L80.1112 145.373L91.6779 143.965C92.9948 143.805 94.2652 144.4 94.9929 145.517C95.7206 146.634 95.7539 148.045 95.0827 149.193L89.1725 159.291L94.0959 169.929C94.6559 171.139 94.4889 172.539 93.6581 173.578C92.8273 174.618 91.5084 175.084 90.2115 174.793L78.8338 172.239L70.3098 180.222C69.7702 180.727 69.11 181.035 68.4157 181.128ZM69.5043 136.562C69.3987 136.577 69.2915 136.599 69.185 136.627C68.314 136.865 67.6895 137.539 67.5165 138.433L65.1778 150.533L53.9454 155.435C53.1153 155.798 52.5959 156.555 52.5513 157.465C52.5093 158.374 52.9534 159.181 53.7439 159.624L64.4575 165.622L65.6361 177.897C65.7226 178.802 66.2806 179.537 67.1251 179.862C67.9723 180.186 68.8703 180.009 69.5318 179.39L78.4929 170.999L90.4525 173.684C91.3364 173.882 92.2011 173.576 92.7672 172.867C93.3332 172.158 93.4416 171.243 93.0621 170.417L87.8882 159.233L94.1 148.619C94.5592 147.835 94.5376 146.912 94.0405 146.151C93.5459 145.389 92.7117 145.001 91.8149 145.107L79.6559 146.587L71.5359 137.342C71.0085 136.737 70.2673 136.46 69.5043 136.562Z" fill="#636363"/>
<path d="M68.611 180.329C68.0702 180.402 67.5116 180.341 66.9777 180.135C65.7789 179.677 64.9584 178.592 64.8357 177.309L63.7512 166.029L53.9061 160.517C52.7858 159.888 52.1276 158.698 52.1888 157.411C52.2496 156.122 53.0189 155.005 54.1938 154.492L64.5155 149.987L66.6646 138.869C66.9101 137.602 67.8284 136.608 69.0657 136.27C70.3004 135.932 71.5994 136.325 72.4482 137.29L79.91 145.786L91.0846 144.426C92.3568 144.271 93.5842 144.846 94.2872 145.926C94.9902 147.005 95.0224 148.368 94.374 149.477L88.6641 159.232L93.4206 169.51C93.9617 170.679 93.8003 172.032 92.9977 173.036C92.195 174.04 90.9209 174.491 89.668 174.209L78.6759 171.741L70.4409 179.454C69.9196 179.942 69.2818 180.239 68.611 180.329ZM69.6626 137.274C69.5606 137.288 69.4571 137.31 69.3542 137.337C68.5127 137.567 67.9093 138.218 67.7422 139.082L65.4828 150.772L54.6312 155.508C53.8292 155.858 53.3275 156.59 53.2844 157.468C53.2438 158.347 53.6728 159.126 54.4365 159.554L64.7869 165.349L65.9256 177.208C66.0091 178.083 66.5483 178.792 67.3641 179.106C68.1826 179.42 69.0502 179.248 69.6892 178.65L78.3465 170.544L89.9007 173.137C90.7547 173.329 91.5901 173.034 92.137 172.349C92.6838 171.664 92.7885 170.779 92.4218 169.981L87.4233 159.176L93.4246 148.922C93.8683 148.165 93.8474 147.273 93.3671 146.538C92.8893 145.802 92.0834 145.427 91.217 145.53L79.4701 146.959L71.6254 138.028C71.1159 137.443 70.3998 137.176 69.6626 137.274Z" fill="#636363"/>
<path d="M68.7684 179.251C68.2467 179.321 67.7078 179.263 67.1929 179.066C66.0367 178.628 65.246 177.589 65.1287 176.359L64.092 165.548L54.5981 160.272C53.5178 159.67 52.8838 158.53 52.9439 157.297C53.0037 156.061 53.7468 154.989 54.8808 154.497L64.843 150.169L66.9259 139.51C67.1639 138.296 68.0507 137.342 69.2447 137.017C70.4363 136.692 71.6892 137.067 72.5073 137.992L79.6992 146.13L90.4815 144.816C91.7091 144.667 92.8928 145.217 93.5702 146.251C94.2475 147.285 94.2774 148.591 93.6509 149.655L88.1337 159.011L92.714 168.859C93.235 169.979 93.0781 171.276 92.3029 172.239C91.5277 173.202 90.298 173.635 89.0894 173.366L78.4864 171.01L70.5347 178.41C70.0313 178.879 69.4157 179.164 68.7684 179.251ZM69.8198 137.979C69.7214 137.993 69.6214 138.014 69.5222 138.039C68.7101 138.261 68.1274 138.885 67.9654 139.714L65.7756 150.921L55.302 155.47C54.5279 155.807 54.0432 156.508 54.0009 157.35C53.961 158.193 54.3742 158.939 55.1107 159.349L65.0918 164.895L66.1802 176.261C66.2601 177.1 66.7797 177.779 67.5666 178.079C68.3559 178.379 69.1931 178.214 69.8102 177.641L78.1696 169.863L89.3149 172.339C90.1386 172.522 90.9449 172.238 91.4731 171.581C92.0013 170.924 92.103 170.076 91.75 169.312L86.9366 158.959L92.7354 149.124C93.1641 148.398 93.1447 147.543 92.6819 146.839C92.2216 146.134 91.4443 145.775 90.6084 145.874L79.2738 147.254L71.7128 138.7C71.2217 138.14 70.5311 137.884 69.8198 137.979Z" fill="#636363"/>
<path d="M158.13 54.3375L143.954 57.704L138.693 71.2892C137.639 74.0138 133.916 74.3458 132.393 71.8527L124.81 59.411L110.267 58.6068C107.351 58.4465 105.886 55.0069 107.789 52.7918L113.168 46.5229C113.167 46.5202 113.169 46.5184 113.169 46.5184L117.276 41.7323L113.546 27.6493C112.797 24.826 115.611 22.3693 118.307 23.4928L131.756 29.1014L144 21.2023C146.453 19.6192 149.659 21.5351 149.424 24.4493L148.247 38.9709L157.519 46.5253L159.543 48.173C161.806 50.0195 160.977 53.659 158.13 54.3375Z" fill="#FFDA22"/>
<g opacity="0.7">
<path d="M158.719 47.7482L160.317 49.0471C160.118 48.7303 159.862 48.4324 159.542 48.173L157.519 46.5253L149.463 39.9651L149.444 40.1957L158.719 47.7482Z" fill="white"/>
<path d="M126.015 60.6347L125.545 60.6073L132.397 71.8534C132.708 72.3641 133.116 72.7562 133.573 73.034L126.015 60.6347Z" fill="white"/>
</g>
<path d="M143.999 21.2025L143.813 21.3218C145.816 21.9741 146.75 22.8198 146.109 26.7976C145.636 29.722 144.913 34.2644 144.421 37.3607C144.096 39.3992 144.933 41.4435 146.595 42.6642C149.829 45.0449 154.28 49.3575 154.24 50.8022C154.176 52.9405 139.916 53.8575 139.916 53.8575C139.916 53.8575 136.03 67.6069 133.927 67.22C132.54 66.9667 129.349 61.9631 127.69 58.3013C126.783 56.3036 124.777 55.0343 122.583 55.0696C119.426 55.1203 114.928 55.1358 112.042 54.9017C110.073 54.7413 108.508 53.7136 108.237 52.2645L107.789 52.7875C105.884 55.0044 107.349 58.444 110.267 58.6025L124.817 59.4103L132.397 71.8493C132.445 71.9269 132.495 72.0028 132.546 72.0741C132.495 72.0028 132.445 71.9269 132.397 71.8493L132.154 71.4532C133.919 72.8165 136.704 72.2216 137.594 69.9253L142.853 56.3374L157.029 52.9709C159.312 52.4242 160.294 49.9732 159.426 48.0747L159.543 48.1687L157.52 46.521L148.247 38.9711L149.426 24.4477C149.66 21.538 146.453 19.6194 143.999 21.2025Z" fill="#F6A800"/>
<path d="M138.4 75.9456C137.785 76.3536 137.068 76.6096 136.296 76.6749C134.565 76.8249 132.925 75.9892 132.017 74.4995L124.027 61.4021L108.778 60.5086C107.042 60.4052 105.537 59.3449 104.851 57.742C104.163 56.1362 104.439 54.3205 105.567 53.001L115.474 41.4117L111.519 26.6003C111.069 24.9124 111.6 23.1594 112.907 22.0157C114.21 20.8739 116.025 20.5846 117.63 21.2591L131.74 27.195L144.546 18.9322C146.004 17.9913 147.838 17.9662 149.333 18.8652C150.827 19.7642 151.672 21.405 151.538 23.139L150.351 38.3958L162.22 48.1017C163.57 49.2057 164.173 50.9479 163.789 52.6455C163.406 54.3431 162.12 55.6451 160.428 56.0429L145.581 59.5359L140.111 73.7976C139.765 74.7004 139.164 75.4395 138.4 75.9456ZM114.228 22.8865C114.111 22.9635 113.998 23.0512 113.889 23.1447C113 23.9229 112.65 25.0722 112.957 26.2234L117.116 41.7961L106.7 53.9794C105.93 54.8806 105.752 56.0678 106.219 57.1637C106.689 58.2576 107.672 58.9527 108.855 59.0227L124.887 59.9616L133.284 73.7313C133.903 74.7474 134.979 75.2926 136.158 75.1927C137.341 75.0909 138.296 74.3694 138.721 73.2633L144.472 58.2722L160.078 54.6002C161.231 54.3284 162.074 53.4751 162.335 52.3175C162.596 51.16 162.201 50.0208 161.282 49.266L148.807 39.0614L150.054 23.0244C150.146 21.8396 149.594 20.7666 148.574 20.1548C147.557 19.5411 146.354 19.5602 145.359 20.198L131.898 28.8832L117.064 22.644C116.097 22.2325 115.067 22.3303 114.228 22.8865Z" fill="#636363"/>
<path d="M138.173 74.8945C137.579 75.2887 136.886 75.536 136.141 75.5991C134.468 75.744 132.884 74.9366 132.007 73.4974L124.288 60.844L109.555 59.9808C107.878 59.8809 106.424 58.8566 105.761 57.308C105.096 55.7566 105.363 54.0024 106.453 52.7277L116.024 41.5312L112.203 27.222C111.768 25.5913 112.281 23.8976 113.544 22.7927C114.804 21.6897 116.557 21.4102 118.107 22.0618L131.739 27.7965L144.111 19.8138C145.519 18.9048 147.292 18.8805 148.735 19.749C150.179 20.6176 150.995 22.2027 150.866 23.8779L149.719 38.6176L161.186 47.9945C162.49 49.061 163.073 50.7442 162.702 52.3842C162.331 54.0243 161.089 55.2822 159.454 55.6665L145.111 59.041L139.827 72.8194C139.492 73.6915 138.911 74.4056 138.173 74.8945ZM114.82 23.634C114.708 23.7084 114.599 23.7931 114.493 23.8834C113.634 24.6353 113.296 25.7456 113.593 26.8578L117.611 41.9026L107.548 53.6729C106.804 54.5436 106.631 55.6906 107.083 56.7493C107.537 57.8061 108.486 58.4776 109.63 58.5453L125.118 59.4524L133.231 72.7552C133.829 73.737 134.868 74.2636 136.008 74.1671C137.15 74.0688 138.073 73.3718 138.483 72.3031L144.04 57.8202L159.116 54.2727C160.23 54.0101 161.045 53.1858 161.297 52.0674C161.549 50.9491 161.167 49.8485 160.28 49.1193L148.227 39.2606L149.432 23.7673C149.521 22.6227 148.988 21.586 148.002 20.9949C147.02 20.402 145.857 20.4205 144.897 21.0367L131.891 29.4274L117.56 23.3997C116.626 23.0022 115.631 23.0967 114.82 23.634Z" fill="#636363"/>
<path d="M137.743 73.5357C137.169 73.9161 136.502 74.1556 135.783 74.2185C134.172 74.3626 132.649 73.5919 131.809 72.2122L124.414 60.0827L110.229 59.2975C108.615 59.2066 107.218 58.2271 106.584 56.7418C105.949 55.2538 106.211 53.5683 107.264 52.3407L116.514 41.559L112.877 27.8275C112.463 26.2626 112.962 24.6345 114.181 23.5696C115.397 22.5064 117.086 22.2328 118.577 22.8539L131.687 28.321L143.624 20.6175C144.983 19.7403 146.69 19.7117 148.077 20.5415C149.465 21.3714 150.246 22.8914 150.117 24.5007L148.968 38.6603L159.982 47.6319C161.235 48.6523 161.791 50.2671 161.429 51.8434C161.067 53.4196 159.868 54.6314 158.292 55.0054L144.471 58.2891L139.341 71.5377C139.016 72.3764 138.455 73.0639 137.743 73.5357ZM115.408 24.3738C115.299 24.4455 115.194 24.5272 115.092 24.6143C114.263 25.3389 113.934 26.4063 114.216 27.4736L118.041 41.9109L108.315 53.2453C107.597 54.0838 107.427 55.1858 107.858 56.2013C108.292 57.215 109.205 57.857 110.305 57.9186L125.217 58.7437L132.99 71.4958C133.563 72.4369 134.562 72.9396 135.659 72.8436C136.759 72.7457 137.65 72.0735 138.049 71.0459L143.442 57.1197L157.971 53.6677C159.044 53.4122 159.831 52.6181 160.077 51.5433C160.323 50.4684 159.959 49.4126 159.107 48.7149L147.53 39.2823L148.736 24.3987C148.826 23.2991 148.315 22.305 147.368 21.7403C146.424 21.1738 145.304 21.195 144.377 21.7896L131.829 29.887L118.047 24.1406C117.149 23.7616 116.19 23.8553 115.408 24.3738Z" fill="#636363"/>
<path d="M257.788 157.466L245.201 172.739L250.647 191.764C251.74 195.579 247.982 198.992 244.287 197.542L225.872 190.29L209.465 201.349C206.177 203.566 201.769 201.044 202.012 197.085L202.695 185.885C202.691 185.883 202.692 185.879 202.692 185.879L203.213 177.328L187.623 165.139C184.496 162.696 185.528 157.728 189.369 156.733L208.532 151.774L215.309 133.179C216.668 129.452 221.71 128.897 223.846 132.245L234.483 148.934L250.719 149.508L254.261 149.633C258.227 149.775 260.314 154.397 257.788 157.466Z" fill="#FFDA22"/>
<g opacity="0.7">
<path d="M253.021 149.848L255.815 149.944C255.341 149.764 254.82 149.651 254.26 149.633L250.718 149.508L236.614 149.013L236.783 149.278L253.021 149.848Z" fill="white"/>
<path d="M228.18 190.627L227.648 190.983L244.293 197.539C245.048 197.837 245.812 197.927 246.534 197.853L228.18 190.627Z" fill="white"/>
</g>
<path d="M215.309 133.179L215.206 133.461C217.909 132.524 219.615 132.674 222.184 137.506C224.069 141.061 227.013 146.572 229.02 150.329C230.34 152.802 232.923 154.329 235.724 154.288C241.178 154.213 249.535 155.232 250.677 156.829C252.362 159.196 237.674 171.886 237.674 171.886C237.674 171.886 244.744 189.961 242.149 191.267C240.439 192.131 232.88 189.33 228.08 186.726C225.459 185.307 222.246 185.578 219.9 187.416C216.523 190.06 211.666 193.766 208.348 195.88C206.085 197.321 203.548 197.492 202.066 196.145L202.009 197.079C201.765 201.042 206.173 203.565 209.462 201.343L225.879 190.283L244.29 197.534C244.405 197.579 244.522 197.62 244.635 197.655C244.522 197.62 244.405 197.579 244.29 197.534L243.702 197.305C246.731 197.333 249.258 194.405 248.338 191.188L242.888 172.162L255.475 156.889C257.499 154.424 256.552 150.965 254.055 149.622L254.258 149.628L250.716 149.503L234.483 148.934L223.848 132.241C221.714 128.899 216.667 129.452 215.309 133.179Z" fill="#F6A800"/>
<path d="M253.041 196.094C252.72 197.009 252.174 197.844 251.418 198.524C249.726 200.053 247.348 200.478 245.218 199.64L226.481 192.27L209.821 203.42C207.923 204.687 205.508 204.771 203.521 203.638C201.528 202.503 200.379 200.385 200.513 198.111L201.693 178.137L185.818 165.778C184.01 164.368 183.176 162.114 183.637 159.882C184.096 157.654 185.765 155.914 187.978 155.348L207.442 150.375L214.29 131.584C215.069 129.445 216.969 127.965 219.244 127.721C221.52 127.477 223.704 128.524 224.938 130.444L235.786 147.344L255.894 148.091C258.181 148.176 260.192 149.521 261.136 151.601C262.079 153.681 261.766 156.062 260.311 157.819L247.549 173.238L253.129 192.491C253.482 193.71 253.439 194.959 253.041 196.094ZM185.709 159.746C185.648 159.919 185.599 160.1 185.559 160.285C185.246 161.803 185.79 163.283 187.024 164.243L203.715 177.238L202.473 198.237C202.382 199.789 203.136 201.173 204.493 201.949C205.852 202.721 207.431 202.669 208.724 201.804L226.239 190.082L245.934 197.832C247.387 198.404 248.945 198.122 250.099 197.083C251.255 196.039 251.683 194.528 251.251 193.034L245.388 172.795L258.802 156.587C259.793 155.389 259.999 153.828 259.354 152.411C258.71 150.993 257.394 150.115 255.835 150.053L234.698 149.264L223.294 131.5C222.452 130.188 221.024 129.503 219.473 129.671C217.923 129.835 216.679 130.809 216.144 132.264L208.945 152.017L188.483 157.245C187.146 157.58 186.146 158.499 185.709 159.746Z" fill="#636363"/>
<path d="M251.461 194.976C251.151 195.859 250.625 196.665 249.899 197.322C248.273 198.8 245.991 199.215 243.95 198.411L225.993 191.343L209.991 202.127C208.168 203.353 205.852 203.439 203.948 202.35C202.039 201.26 200.941 199.22 201.074 197.027L202.246 177.766L187.045 165.881C185.313 164.526 184.518 162.353 184.965 160.201C185.409 158.052 187.014 156.37 189.137 155.82L207.817 150.986L214.423 132.854C215.175 130.79 216.999 129.358 219.183 129.119C221.366 128.879 223.458 129.884 224.638 131.733L235.009 148.006L254.294 148.686C256.487 148.764 258.414 150.056 259.315 152.06C260.216 154.063 259.911 156.359 258.511 158.057L246.239 172.949L251.552 191.502C251.888 192.676 251.845 193.881 251.461 194.976ZM186.952 160.065C186.894 160.232 186.846 160.407 186.807 160.585C186.504 162.049 187.023 163.475 188.205 164.399L204.188 176.894L202.954 197.144C202.864 198.641 203.584 199.974 204.884 200.72C206.186 201.461 207.7 201.408 208.943 200.572L225.765 189.234L244.641 196.666C246.033 197.215 247.528 196.94 248.637 195.936C249.748 194.927 250.161 193.469 249.75 192.029L244.167 172.526L257.066 156.872C258.019 155.715 258.219 154.21 257.604 152.844C256.989 151.478 255.729 150.634 254.234 150.577L233.962 149.86L223.059 132.755C222.254 131.491 220.886 130.833 219.398 130.999C217.911 131.16 216.716 132.101 216.2 133.505L209.254 152.566L189.618 157.648C188.335 157.974 187.374 158.862 186.952 160.065Z" fill="#636363"/>
<path d="M148.138 258.976L138.445 259.969L133.77 268.516C132.833 270.231 130.335 270.125 129.543 268.339L125.603 259.427L116.031 257.623C114.112 257.262 113.441 254.853 114.896 253.551L119.011 249.865C119.01 249.863 119.012 249.862 119.012 249.862L122.153 247.048L120.911 237.384C120.661 235.447 122.741 234.064 124.431 235.045L132.858 239.939L141.666 235.771C143.431 234.936 145.389 236.487 144.979 238.398L142.929 247.924L148.416 253.743L149.614 255.012C150.953 256.434 150.085 258.775 148.138 258.976Z" fill="#FFDA22"/>
<g opacity="0.7">
<path d="M149.105 254.658L150.051 255.658C149.947 255.431 149.803 255.211 149.614 255.011L148.416 253.742L143.648 248.688L143.616 248.84L149.105 254.658Z" fill="white"/>
<path d="M126.296 260.343L125.986 260.284L129.547 268.34C129.708 268.705 129.944 269.001 130.223 269.225L126.296 260.343Z" fill="white"/>
</g>
<path d="M141.666 235.771L141.532 235.834C142.803 236.442 143.348 237.084 142.576 239.665C142.006 241.563 141.13 244.511 140.533 246.521C140.14 247.845 140.516 249.273 141.511 250.228C143.447 252.089 146.021 255.337 145.868 256.292C145.639 257.704 136.105 257.065 136.105 257.065C136.105 257.065 132.326 265.842 130.966 265.401C130.068 265.112 128.389 261.516 127.61 258.943C127.183 257.539 125.964 256.522 124.506 256.354C122.409 256.112 119.425 255.729 117.532 255.321C116.241 255.043 115.293 254.225 115.24 253.24L114.897 253.548C113.44 254.851 114.111 257.26 116.032 257.62L125.608 259.427L129.547 268.337C129.571 268.393 129.598 268.447 129.626 268.499C129.598 268.447 129.571 268.393 129.547 268.337L129.42 268.053C130.471 269.111 132.369 268.96 133.16 267.516L137.835 258.966L147.528 257.973C149.09 257.81 149.955 256.271 149.545 254.936L149.614 255.009L148.417 253.74L142.929 247.923L144.98 238.397C145.39 236.489 143.431 234.936 141.666 235.771Z" fill="#F6A800"/>
<path d="M133.176 271.671C132.731 271.889 132.231 271.997 131.711 271.972C130.545 271.92 129.526 271.22 129.052 270.148L124.881 260.724L114.804 258.79C113.657 258.569 112.748 257.731 112.432 256.603C112.114 255.473 112.458 254.288 113.325 253.509L120.94 246.66L119.606 236.449C119.455 235.286 119.962 234.165 120.933 233.518C121.902 232.872 123.135 232.839 124.145 233.429L133.021 238.621L142.274 234.242C143.328 233.743 144.552 233.888 145.468 234.618C146.384 235.348 146.803 236.514 146.562 237.657L144.432 247.714L151.484 255.219C152.286 256.073 152.535 257.286 152.13 258.383C151.726 259.48 150.755 260.234 149.593 260.351L139.399 261.374L134.505 270.391C134.195 270.962 133.73 271.401 133.176 271.671ZM121.736 234.214C121.652 234.255 121.569 234.303 121.488 234.356C120.828 234.796 120.494 235.531 120.597 236.325L122 247.061L113.993 254.26C113.402 254.792 113.179 255.567 113.393 256.338C113.61 257.108 114.204 257.657 114.986 257.808L125.58 259.84L129.964 269.748C130.287 270.479 130.955 270.936 131.75 270.973C132.546 271.009 133.245 270.613 133.625 269.913L138.772 260.435L149.487 259.359C150.279 259.279 150.915 258.785 151.19 258.037C151.466 257.289 151.303 256.496 150.757 255.913L143.345 248.021L145.583 237.451C145.749 236.67 145.475 235.907 144.85 235.41C144.226 234.912 143.423 234.819 142.705 235.156L132.977 239.759L123.646 234.301C123.039 233.942 122.344 233.917 121.736 234.214Z" fill="#636363"/>
<path d="M133.11 270.861C132.681 271.07 132.201 271.174 131.701 271.15C130.579 271.1 129.599 270.426 129.143 269.395L125.132 260.331L115.439 258.471C114.336 258.259 113.461 257.452 113.157 256.368C112.852 255.281 113.182 254.141 114.016 253.391L121.341 246.804L120.058 236.983C119.912 235.864 120.4 234.786 121.334 234.164C122.266 233.542 123.452 233.51 124.423 234.078L132.96 239.071L141.861 234.86C142.874 234.38 144.051 234.519 144.933 235.221C145.814 235.923 146.216 237.046 145.984 238.145L143.936 247.818L150.719 255.037C151.49 255.858 151.729 257.025 151.34 258.08C150.951 259.135 150.018 259.86 148.9 259.972L139.095 260.956L134.387 269.629C134.089 270.178 133.642 270.601 133.11 270.861ZM122.107 234.833C122.026 234.872 121.946 234.919 121.868 234.97C121.233 235.393 120.912 236.1 121.011 236.863L122.36 247.189L114.659 254.114C114.09 254.626 113.876 255.371 114.082 256.113C114.291 256.853 114.862 257.381 115.614 257.526L125.804 259.481L130.02 269.01C130.331 269.714 130.974 270.154 131.738 270.189C132.503 270.224 133.176 269.842 133.542 269.17L138.492 260.053L148.798 259.018C149.559 258.942 150.171 258.466 150.436 257.747C150.701 257.027 150.544 256.264 150.02 255.703L142.89 248.113L145.043 237.946C145.202 237.195 144.939 236.461 144.338 235.983C143.738 235.504 142.966 235.415 142.275 235.74L132.919 240.166L123.944 234.917C123.359 234.572 122.691 234.548 122.107 234.833Z" fill="#636363"/>
<path d="M132.944 269.922C132.53 270.124 132.067 270.225 131.585 270.204C130.504 270.159 129.561 269.514 129.125 268.526L125.282 259.838L115.946 258.077C114.884 257.876 114.043 257.105 113.753 256.064C113.461 255.022 113.783 253.928 114.588 253.206L121.663 246.866L120.452 237.444C120.315 236.37 120.788 235.334 121.689 234.735C122.588 234.136 123.732 234.102 124.666 234.644L132.881 239.415L141.468 235.351C142.446 234.888 143.58 235.018 144.428 235.689C145.275 236.361 145.66 237.437 145.434 238.493L143.435 247.78L149.953 254.691C150.695 255.477 150.922 256.597 150.544 257.61C150.166 258.624 149.265 259.322 148.188 259.432L138.737 260.402L134.178 268.737C133.889 269.265 133.457 269.672 132.944 269.922ZM122.432 235.375C122.354 235.413 122.277 235.458 122.201 235.507C121.589 235.915 121.277 236.594 121.371 237.326L122.645 247.233L115.206 253.897C114.656 254.391 114.448 255.106 114.645 255.817C114.844 256.527 115.393 257.033 116.117 257.17L125.932 259.02L129.971 268.154C130.268 268.828 130.887 269.249 131.623 269.281C132.361 269.313 133.01 268.945 133.364 268.298L138.157 259.536L148.092 258.517C148.826 258.442 149.417 257.984 149.674 257.293C149.931 256.602 149.782 255.87 149.278 255.333L142.427 248.067L144.527 238.304C144.683 237.583 144.431 236.879 143.852 236.422C143.276 235.964 142.532 235.88 141.865 236.194L132.838 240.466L124.202 235.451C123.64 235.121 122.996 235.1 122.432 235.375Z" fill="#636363"/>
</svg>
