<svg width="51" height="51" viewBox="0 0 51 51" fill="none" xmlns="http://www.w3.org/2000/svg">
<g clip-path="url(#clip0_39_2)">
<path d="M27.7198 1.6941C27.5693 0.651286 35.8832 -2.22887 41.2629 -0.412597C42.3956 -0.0278782 43.4617 0.53054 44.4229 1.24267C45.7501 2.29602 45.6794 2.83623 47.1315 4.40272C49.3676 6.81037 50.5308 6.60422 51.044 8.16468C51.3449 9.06755 51.1418 10.0201 50.743 11.9266C50.421 13.4706 50.1727 13.6346 49.6897 15.5381C49.0576 18.027 49.4143 18.0045 48.9373 19.1496C48.1533 21.0351 46.3972 22.9928 44.8743 22.7611C44.7585 22.743 44.6953 22.7205 44.122 22.4601C42.6172 21.7755 41.8648 21.4339 40.9619 20.9554C38.1254 19.4581 37.2872 20.1247 36.2971 19.1496C34.5967 17.4733 36.6236 15.0656 35.808 9.95236C35.5537 8.35428 34.9804 4.84964 32.3846 3.04841C30.1154 1.4729 27.801 2.24335 27.7198 1.6941Z" fill="#FF0420"/>
<path d="M25.2128 26.2008C25.1917 25.793 25.5619 25.3506 25.9516 25.3205C26.1864 25.3009 26.4347 25.5282 26.9192 25.9841C27.33 26.3693 27.5362 26.5665 27.5542 26.7862C27.5858 27.1955 27.2066 27.6454 26.8154 27.6665C26.6047 27.6785 26.391 27.4904 25.9712 27.1157C25.4746 26.6733 25.2263 26.4461 25.2128 26.2008Z" fill="#FF0420"/>
<path d="M28.4566 30.0156C28.422 29.6003 28.7862 29.1338 29.1759 29.0977C29.3986 29.0751 29.6544 29.3054 30.157 29.7658C30.5754 30.148 30.7845 30.3437 30.8056 30.5558C30.8447 30.9606 30.476 31.4226 30.0848 31.4587C29.8741 31.4738 29.6559 31.2902 29.2301 30.9245C28.7275 30.4851 28.4762 30.2639 28.4566 30.0156Z" fill="#FF0420"/>
<path d="M23.922 27.939C23.9346 27.7948 23.9856 27.6566 24.0698 27.5388C24.154 27.421 24.2682 27.328 24.4005 27.2693C24.9031 27.0828 25.7142 27.5989 26.2333 28.7094L25.66 29.513C24.5344 29.2527 23.8693 28.5288 23.922 27.939Z" fill="#FF0420"/>
<path d="M28.9101 33.4629C29.0424 33.4088 29.1594 33.323 29.2507 33.2131C29.342 33.1031 29.4049 32.9724 29.4338 32.8324C29.5421 32.2305 28.9281 31.4299 27.7995 31.0522L26.9493 32.1568C27.4835 33.2086 28.3473 33.6811 28.9101 33.4629Z" fill="#FF0420"/>
<path d="M23.8301 31.5553C23.5747 31.3241 23.3465 31.0646 23.1499 30.7818C22.7993 30.2792 22.5345 29.8985 22.6353 29.4516C22.7015 29.1506 22.9363 28.8211 23.2267 28.7489C23.5773 28.6631 23.8888 28.9821 24.3206 29.423C24.5675 29.6769 24.786 29.9569 24.9722 30.2582C24.8926 30.485 24.7784 30.6982 24.6336 30.8902C24.4209 31.1711 24.1458 31.3988 23.8301 31.5553Z" fill="#FF0420"/>
<path d="M25.4445 34.184C25.6981 34.4837 25.9809 34.7574 26.2886 35.0011C26.8289 35.4285 27.2397 35.7535 27.6866 35.6738C27.9875 35.6211 28.3036 35.3909 28.3517 35.0719C28.4104 34.6851 28.0598 34.3195 27.5737 33.7988C27.2986 33.5074 26.9962 33.2428 26.6709 33.0088C26.4477 33.0813 26.2396 33.194 26.0569 33.3413C25.7832 33.5645 25.5722 33.8548 25.4445 34.184Z" fill="#FF0420"/>
<path d="M23.5799 36.5595C23.8924 36.9173 24.2379 37.2449 24.6119 37.5378C25.2691 38.0521 25.7665 38.4397 26.2928 38.3482C26.6388 38.2881 27.0127 38.0283 27.0567 37.6476C27.1083 37.1939 26.6784 36.7504 26.0826 36.1354C25.7462 35.7911 25.3787 35.4785 24.9849 35.2016C24.7253 35.2813 24.4832 35.4094 24.2714 35.5792C23.956 35.837 23.717 36.1759 23.5799 36.5595Z" fill="#FF0420"/>
<path d="M20.8483 38.5686C20.9269 39.2742 21.187 39.9475 21.6032 40.5228C21.8728 40.8885 22.1284 41.237 22.5372 41.3116C23.2261 41.4385 23.9779 40.7219 24.1588 39.9564C24.2915 39.3906 24.0916 38.8961 23.9204 38.4697C23.706 37.9425 23.3794 37.4682 22.9635 37.0797C22.5139 37.1257 22.0839 37.2873 21.7153 37.5487C21.3443 37.8094 21.0459 38.1604 20.8483 38.5686Z" fill="#FF0420"/>
<path d="M22.1235 33.1033C21.7477 32.7312 21.4035 32.3285 21.0942 31.8995C20.4397 30.9846 20.4652 30.6746 20.4923 30.5452C20.5638 30.2686 20.7313 30.0264 20.9648 29.862C21.1153 29.7416 21.4373 29.4798 21.7669 29.5505C21.8798 29.5746 22.1672 29.6769 22.745 31.1365C22.9391 31.6256 23.0761 32.0394 23.1678 32.3404C22.9798 32.5714 22.7539 32.7688 22.4997 32.9242C22.3795 32.9941 22.2536 33.054 22.1235 33.1033Z" fill="#FF0420"/>
<path d="M18.6085 30.702C18.6792 30.6599 19.087 30.4266 19.4677 30.5606C19.9447 30.7276 20.1073 31.3761 20.2382 31.8953C20.3952 32.5312 20.4111 33.1938 20.2848 33.8365L19.3744 34.2097C18.3211 32.9908 17.8365 31.7599 18.1465 31.1926C18.259 30.9944 18.4175 30.8262 18.6085 30.702Z" fill="#FF0420"/>
<path d="M14.5872 31.3866C15.1752 30.8649 16.1977 30.8221 16.8742 31.2343C18.7338 32.364 17.5709 36.7234 17.0586 38.6491C16.9097 39.2071 16.7466 39.2446 16.6971 39.249C16.6128 39.2513 16.4745 39.2008 16.2685 38.8225C15.4066 37.2367 13.0031 32.8114 14.5872 31.3866Z" fill="#FF0420"/>
<path d="M16.1244 43.165C16.4273 42.5293 16.0665 42.0403 15.0149 39.2422C13.8463 36.1337 13.6661 35.0729 13.2784 35.0882C13.0012 35.0993 12.8634 35.6718 12.222 39.1726C11.5428 42.8731 11.4872 43.379 11.8693 43.8021C12.8103 44.8454 15.4994 44.4698 16.1244 43.165Z" fill="#FF0420"/>
<path d="M10.8851 38.8694C11.0943 39.3404 10.7603 39.9228 10.0891 41.0905C9.53837 42.049 9.12304 42.7713 8.62045 42.7367C8.16901 42.7066 7.89213 42.0927 7.51142 41.262C6.93509 40.0055 6.57695 39.2246 6.91854 38.6693C7.56258 37.6205 10.4187 37.8176 10.8851 38.8694Z" fill="#FF0420"/>
<path d="M10.144 30.61C10.767 30.5212 11.2666 31.0298 11.3193 31.0855C11.8189 31.6092 11.7406 32.3179 11.694 32.7513C11.6503 33.1531 11.6127 33.5037 11.3433 33.7309C11.074 33.9581 10.8182 33.9115 9.93487 33.907C8.49329 33.8995 8.3112 33.9927 8.17276 33.8152C7.87181 33.433 8.39999 32.6114 8.874 31.859C9.34801 31.1066 9.6294 30.6807 10.144 30.61Z" fill="#FF0420"/>
<path d="M7.3828 30.356C7.55852 30.3685 7.7278 30.4272 7.87343 30.5264C8.01907 30.6255 8.13586 30.7614 8.21194 30.9203C8.38499 31.3281 8.06146 31.8231 7.39333 32.8329C6.9735 33.4724 6.82152 33.5732 6.6575 33.6244C6.17748 33.7748 5.5259 33.513 5.34984 33.0721C5.20839 32.714 5.43561 32.3739 5.89307 31.6952C6.41222 30.9203 6.81098 30.3274 7.3828 30.356Z" fill="#FF0420"/>
<path d="M5.59079 38.0998C5.84961 38.2503 5.89175 38.467 6.1927 39.9176C6.39735 40.8897 6.44701 41.1019 6.2875 41.305C6.05878 41.5955 5.55317 41.6812 5.19654 41.5323C4.77219 41.3562 4.6518 40.8897 4.47123 40.187C4.24852 39.3202 4.04838 38.5422 4.49079 38.1721C4.64858 38.0573 4.83566 37.9896 5.03034 37.9768C5.22503 37.964 5.41935 38.0067 5.59079 38.0998Z" fill="#FF0420"/>
<path d="M3.44783 37.7446C3.69913 37.9252 3.49749 38.3164 3.54263 39.132C3.5938 40.0349 3.89626 40.4457 3.64797 40.6744C3.55727 40.7389 3.45047 40.777 3.33943 40.7844C3.22839 40.7918 3.11746 40.7684 3.01897 40.7165C2.6819 40.545 2.6488 40.0785 2.59763 39.1952C2.55249 38.3917 2.53593 37.9914 2.81733 37.7867C2.90775 37.721 3.01494 37.6821 3.1265 37.6747C3.23807 37.6672 3.34946 37.6914 3.44783 37.7446Z" fill="#FF0420"/>
<path d="M3.46435 31.4332C3.93385 30.4174 5.19034 29.7779 5.53193 30.0397C5.56764 30.0762 5.59563 30.1196 5.61425 30.1671C5.63286 30.2147 5.64171 30.2655 5.64028 30.3166C5.68993 30.768 5.30771 30.9953 4.93753 31.6032C4.50265 32.318 4.63658 32.6565 4.2348 32.8883C4.01059 33.0177 3.66148 33.0914 3.4478 32.941C3.09568 32.6927 3.24465 31.9102 3.46435 31.4332Z" fill="#FF0420"/>
<path d="M2.58995 29.5915C2.90897 29.5719 3.30924 29.7269 3.40855 30.0023C3.48981 30.2235 3.31977 30.377 2.85329 31.1234C2.33113 31.9585 2.27997 32.1872 1.98202 32.2655C1.8369 32.3031 1.68411 32.2991 1.54118 32.2538C1.39826 32.2086 1.27099 32.124 1.17395 32.0097C0.933186 31.6741 1.18899 31.176 1.40418 30.7547C1.61936 30.3334 1.976 29.6306 2.58995 29.5915Z" fill="#FF0420"/>
<path d="M1.47129 37.2703C1.51856 37.2428 1.57153 37.2266 1.62608 37.223C1.68063 37.2193 1.73528 37.2283 1.78579 37.2492C2.01452 37.3561 2.01302 37.7669 2.007 38.1626C2.007 38.3236 1.98894 39.234 1.76623 39.2626C1.62779 39.2822 1.47881 38.9542 1.41862 38.8217C1.17334 38.277 1.11015 37.4674 1.47129 37.2703Z" fill="#FF0420"/>
<path d="M33.3173 30.0398C34.6445 29.8601 35.357 30.2319 35.6966 29.6931C35.7709 29.5315 35.8218 29.356 35.847 29.174C36.0168 28.4017 35.9582 27.9167 35.9973 27.4408C36.0601 26.8604 36.2311 26.3043 36.4978 25.8135C37.0569 24.637 37.6777 24.4861 37.6311 24.0173C37.5725 23.4264 36.5083 23.0133 35.6771 22.9397C33.8975 22.7834 31.8699 24.0712 31.7691 25.4542C31.7301 26.0039 31.9706 26.8911 32.0698 27.2504C32.2531 27.9239 32.3538 27.9688 32.3704 28.328C32.4185 29.3321 31.6669 29.905 31.8323 30.2122C31.954 30.4439 32.4034 30.1583 33.3173 30.0398Z" fill="#FF0420"/>
<path d="M38.7043 24.6748C39.414 24.8101 40.0986 25.0541 40.7337 25.3983C40.9541 25.5184 41.1678 25.6504 41.3738 25.7939C40.7955 26.4995 40.3558 27.3081 40.0779 28.1771C39.1817 31.0395 40.8073 32.5458 40.5081 36.2971C40.3756 37.8611 39.9493 39.3861 39.2515 40.792C38.6175 42.138 37.4762 44.5602 35.4066 45.0672C35.0192 45.161 35.0734 45.0746 33.6082 45.2294C33.6082 45.2294 32.0862 45.3908 30.533 45.676C27.8579 46.1696 26.5233 47.1859 24.0289 47.9065C22.8111 48.2581 21.3069 48.3665 18.3473 48.57C12.8274 48.9486 10.0674 49.1371 8.52464 48.5495C7.38083 48.1133 4.34581 46.6601 2.20864 41.4756C2.35978 41.4088 2.51806 41.3595 2.6804 41.3288C3.16943 41.2424 3.67326 41.3179 4.11551 41.5438C4.65753 41.8243 4.53503 42.0574 4.93245 42.2256C5.68466 42.5415 6.24992 41.7562 6.88076 42.0498C7.41191 42.2935 7.20915 42.9267 7.90164 43.3176C8.23099 43.4942 8.60653 43.5658 8.97777 43.5227C9.53134 43.4622 9.64829 43.1842 9.99982 43.1283C10.8041 42.9999 11.0991 44.3104 12.2737 44.8874C13.4721 45.4758 15.3972 45.21 16.2932 44.2226C16.7754 43.6896 16.9663 42.9411 17.5339 42.902C17.8966 42.8693 17.9904 43.1721 18.3103 43.1342C19.0293 43.0482 19.0515 41.502 19.8101 41.3369C20.1064 41.2709 20.1608 41.5062 21.0632 41.8282C21.6143 42.0248 22.0419 42.1766 22.5455 42.1478C22.6234 42.1408 23.7358 42.0616 24.3333 41.2311C24.9307 40.4006 24.5207 39.4903 25.0568 39.2017C25.417 39.0075 25.6566 39.3863 26.2692 39.2434C26.5602 39.1702 26.8279 39.0245 27.0473 38.8197C27.2666 38.615 27.4305 38.3579 27.5235 38.0727C27.6975 37.439 27.2811 37.0611 27.5517 36.7103C27.8222 36.3595 28.2501 36.6473 28.5737 36.3159C29.0158 35.8742 28.4229 35.1299 28.8611 34.4769C29.1892 33.9941 29.659 34.1934 29.9243 33.7011C30.2363 33.123 29.7412 32.5588 30.0889 32.1754C30.3391 31.9005 30.6661 32.1097 30.9611 31.7946C31.2903 31.4415 31.1335 30.9087 31.3296 30.8548C31.4771 30.8158 31.572 31.0973 31.8197 31.2638C32.3458 31.6183 32.9676 31.0757 34.0543 30.9112C35.3286 30.7177 35.8187 31.2597 36.3158 30.8583C36.7778 30.4857 36.6973 29.7436 36.6984 29.2373C36.6995 28.16 37.0659 26.6281 38.7043 24.6748Z" fill="#FF0420"/>
<path d="M15.5391 4.87616C14.9824 4.94839 14.8018 5.88286 14.3353 6.98286C13.5573 8.81419 12.4709 9.96535 12.68 10.1429C12.7944 10.2407 13.1044 9.88559 13.5829 9.99243C13.938 10.0722 14.0103 10.3235 14.1848 10.2934C14.5099 10.2362 14.3865 9.33635 14.7867 8.18669C14.9267 7.78491 15.181 7.26727 15.6896 6.23047C15.9439 5.71282 16.1757 5.2659 15.9906 5.02664C15.9334 4.96654 15.8623 4.9214 15.7836 4.89517C15.7049 4.86893 15.621 4.8624 15.5391 4.87616Z" fill="#FF0420"/>
<path d="M10.7911 18.1716C10.5308 18.292 10.3953 18.5854 10.2464 19.3574C10.0462 20.3851 10.147 20.5853 10.0011 21.2504C9.86565 21.8734 9.76332 21.762 9.39013 22.85C8.84841 24.4285 9.01996 24.7866 9.13582 24.9431C9.2863 25.1433 9.56469 25.3208 9.73774 25.2441C10.0387 25.1132 9.72119 24.3728 10.0387 23.2879C10.1892 22.7778 10.287 22.8364 10.4901 22.2345C10.764 21.4174 10.6165 21.2068 10.7911 20.3641C11.068 19.07 11.6488 18.4816 11.393 18.2062C11.2546 18.0603 10.9656 18.0964 10.7911 18.1716Z" fill="#FF0420"/>
<path d="M39.8332 21.3316C37.6979 20.5793 36.5347 20.8802 35.6198 19.9773C34.9065 19.2731 34.899 18.3868 34.8674 15.9144C34.7801 9.1173 34.7169 7.33714 33.5883 5.60664C33.1032 4.85225 32.4618 4.2108 31.7074 3.72566C30.481 2.95972 29.235 2.83934 27.6444 2.82279C22.2408 2.76711 21.8465 4.01608 19.5186 3.27422C17.6256 2.67231 17.0854 1.59037 15.1306 1.631C14.6792 1.64002 13.4754 1.68216 12.4461 2.52183C11.8532 3.00788 11.5252 3.59625 11.1851 4.44043C10.3605 6.48995 10.3936 7.74193 10.0385 9.44384C9.66987 11.1332 9.06181 12.7613 8.23271 14.2787C6.74749 17.1468 5.43381 17.997 5.82505 19.3754C6.03723 20.1068 6.59851 20.5326 6.72792 21.7831C6.8074 22.2893 6.75559 22.8074 6.57745 23.2879C6.35925 23.8296 6.05228 24.0403 5.22314 24.7927C5.22314 24.7927 4.41507 25.533 3.4174 26.5984C2.81548 27.2334 1.85844 28.2717 2.06309 28.5546C2.18347 28.7201 2.57923 28.4538 3.11644 28.7051C3.449 28.8556 3.4174 29.0166 3.71835 29.1565C4.21493 29.3853 4.44065 29.0437 5.07266 29.1565C5.7453 29.2769 5.79044 29.7268 6.42697 29.7584C6.89646 29.781 6.93859 29.5403 7.32984 29.608C7.91971 29.7103 7.99194 30.2911 8.53367 30.3604C8.87224 30.404 8.90234 30.1843 9.43654 30.0594C9.52081 30.0398 10.5606 29.8096 11.2423 30.3604C11.7163 30.7426 11.6681 31.2211 11.9947 31.2632C12.3949 31.3144 12.6116 30.6132 13.048 30.6613C13.4152 30.7019 13.4453 31.2196 13.8004 31.2632C14.1902 31.3114 14.3015 30.708 15.0042 30.3604C15.4739 30.1399 16.005 30.0868 16.509 30.2099C17.1004 30.3799 17.2885 30.7712 17.5624 30.6613C17.8362 30.5515 17.7399 30.0428 18.1643 29.7584C18.3435 29.6448 18.5546 29.592 18.7662 29.608C19.4358 29.6606 19.7774 30.4522 19.97 30.3604C20.1626 30.2686 19.8045 29.6561 20.1205 29.1565C20.2025 29.0282 20.3131 28.9207 20.4436 28.8423C20.5742 28.764 20.7211 28.717 20.8729 28.7051C21.4869 28.6795 21.8796 29.4214 22.0767 29.307C22.2739 29.1926 21.845 28.3304 22.2272 27.9527C22.3106 27.8742 22.4153 27.8218 22.5282 27.8022C22.9661 27.7225 23.2806 28.195 23.431 28.1032C23.5815 28.0114 23.2384 27.5223 23.431 27.0498C23.51 26.8749 23.6365 26.7258 23.7961 26.6193C23.9558 26.5129 24.1421 26.4535 24.3339 26.4479C24.7477 26.4569 24.9945 26.8226 25.0863 26.7489C25.2052 26.6526 24.674 26.1199 24.7853 25.545C24.8756 25.0816 25.3647 24.6843 25.8387 24.6422C26.3127 24.6 26.6964 24.9236 26.892 25.0936C28.3111 26.329 30.49 28.6675 30.8045 29.0061C30.9414 28.7715 31.0429 28.518 31.1054 28.2537C31.4154 26.9279 30.5156 26.1259 30.5788 25.1688C30.6645 23.8762 32.4598 23.014 32.9864 22.7612C36.5603 21.0442 40.9949 24.0026 41.4885 24.3412C41.9397 24.2618 42.358 24.0526 42.6923 23.7393C42.8752 23.5652 43.0278 23.3618 43.1437 23.1374C42.1429 22.3638 41.0255 21.7542 39.8332 21.3316ZM16.6595 21.3316C16.2713 23.2758 14.6807 24.3728 13.1985 25.3946C11.8322 26.3366 10.7908 27.0498 9.58702 26.7489C9.52381 26.7323 8.31397 26.4073 7.78127 25.2922C7.20795 24.1065 8.05514 23.3977 8.9851 19.6764C9.38688 18.0828 9.37484 17.6389 9.88797 17.2161C10.9639 16.3358 12.732 16.8519 13.6499 17.1182C14.6431 17.4072 15.7431 17.7292 16.3585 18.7735C16.974 19.8178 16.7347 20.9239 16.6595 21.3316ZM18.9167 9.59432C18.217 12.2774 17.8633 13.6196 17.2614 13.6572C16.6399 13.6964 16.5692 12.3962 15.1547 11.701C14.4024 11.355 13.5615 11.2499 12.7471 11.4001C11.4289 11.6438 10.8646 12.482 10.6404 12.3029C10.3394 12.0592 11.2874 10.4626 12.5966 7.93906C13.8094 5.59912 13.4287 4.99269 14.4023 4.32757C15.3759 3.66246 16.8852 3.46984 18.0138 4.17709C18.5641 4.53875 18.9856 5.06559 19.2176 5.68188C19.5321 6.46437 19.5276 7.24987 18.9167 9.59432ZM32.0083 10.3467C31.9195 11.4302 31.444 12.2232 30.5035 13.8077C29.858 14.8942 29.393 15.6541 28.8483 15.6135C28.15 15.5623 28.2358 14.2592 27.0425 13.3563C26.5692 13.0181 26.027 12.7888 25.4546 12.6847C24.8823 12.5807 24.2941 12.6045 23.732 12.7544C22.2272 13.1787 21.6795 14.5014 21.1739 14.2592C20.897 14.1267 20.8849 13.418 20.8729 12.002C20.8495 11.2964 20.8999 10.5903 21.0234 9.89528C21.2867 8.51689 21.6674 8.29569 21.7758 8.24001C22.0226 8.11361 22.4665 8.02934 22.6786 8.24001C23.0127 8.57107 22.638 9.48748 22.5282 10.9486C22.5161 11.1096 22.4966 11.4196 22.6786 11.5505C22.7468 11.5915 22.8248 11.6132 22.9044 11.6132C22.9839 11.6132 23.0619 11.5915 23.1301 11.5505C23.3754 11.4106 23.416 11.057 23.431 10.9486C23.6041 9.72223 25.0863 7.66218 25.5377 7.03619C25.8492 6.60431 26.1713 6.21307 26.0795 6.10773C25.9034 5.90459 24.5371 7.15055 23.8825 6.73523C23.7657 6.65161 23.6754 6.53633 23.6221 6.40301C23.5687 6.26969 23.5547 6.12389 23.5815 5.98284C23.8298 4.94604 27.494 3.89269 29.9016 5.5314C31.5915 6.68407 32.1347 8.81183 32.0083 10.3467Z" fill="#FF0420"/>
</g>
<defs>
<clipPath id="clip0_39_2">
<rect width="51" height="51" fill="white"/>
</clipPath>
</defs>
</svg>
