<svg width="22" height="22" viewBox="0 0 22 22" fill="none" xmlns="http://www.w3.org/2000/svg">
<circle cx="11" cy="11" r="11" fill="#FF0420"/>
<path d="M10.1179 12.348C10.0299 12.348 9.96191 12.32 9.91391 12.264C9.87391 12.2 9.86191 12.128 9.87791 12.048L10.9819 6.9C10.9979 6.812 11.0379 6.74 11.1019 6.684C11.1739 6.628 11.2539 6.6 11.3419 6.6H12.7219C12.8019 6.6 12.8659 6.628 12.9139 6.684C12.9619 6.74 12.9779 6.812 12.9619 6.9L11.8699 12.048C11.8539 12.128 11.8059 12.2 11.7259 12.264C11.6539 12.32 11.5779 12.348 11.4979 12.348H10.1179ZM9.50591 15C9.42591 15 9.36191 14.972 9.31391 14.916C9.26591 14.86 9.24991 14.788 9.26591 14.7L9.57791 13.224C9.59391 13.136 9.63791 13.064 9.70991 13.008C9.78191 12.944 9.86191 12.912 9.94991 12.912H11.4259C11.5059 12.912 11.5699 12.944 11.6179 13.008C11.6659 13.064 11.6819 13.136 11.6659 13.224L11.3419 14.7C11.3259 14.788 11.2819 14.86 11.2099 14.916C11.1459 14.972 11.0699 15 10.9819 15H9.50591Z" fill="#F0EBDF"/>
</svg>
