<svg width="40" height="40" viewBox="0 0 40 40" fill="none" xmlns="http://www.w3.org/2000/svg">
    <circle cx="20.4821" cy="19.5175" r="19.5175" fill="url(#paint0_linear_8_4565)"/>
    <path d="M26.9749 13.6572C25.7804 13.1186 24.5001 12.7204 23.1612 12.494C23.1493 12.4917 23.1369 12.4932 23.1259 12.4982C23.1148 12.5033 23.1056 12.5116 23.0995 12.5221C22.9356 12.8102 22.7529 13.1857 22.6248 13.4824C21.2048 13.2702 19.7612 13.2702 18.3411 13.4824C18.1985 13.1536 18.0377 12.833 17.8594 12.5221C17.8534 12.5115 17.8443 12.5029 17.8332 12.4976C17.8222 12.4923 17.8098 12.4905 17.7978 12.4924C16.4597 12.7188 15.1793 13.117 13.984 13.6565C13.9738 13.6608 13.965 13.6681 13.9591 13.6775C11.5295 17.2493 10.8636 20.7327 11.1907 24.1725C11.1916 24.1809 11.1942 24.1891 11.1984 24.1965C11.2025 24.2038 11.2082 24.2103 11.2149 24.2154C12.633 25.2479 14.2146 26.0343 15.8936 26.5419C15.9053 26.5455 15.9179 26.5455 15.9296 26.5419C15.9413 26.5383 15.9516 26.5312 15.9592 26.5216C16.3205 26.0384 16.6407 25.5258 16.9164 24.9891C16.9202 24.9818 16.9224 24.9737 16.9228 24.9654C16.9233 24.9572 16.9219 24.9489 16.9189 24.9412C16.9158 24.9335 16.9112 24.9266 16.9052 24.9208C16.8993 24.9151 16.8922 24.9107 16.8844 24.9079C16.38 24.718 15.8914 24.4888 15.4229 24.2225C15.4145 24.2177 15.4074 24.2108 15.4022 24.2026C15.3971 24.1944 15.3941 24.185 15.3935 24.1754C15.3929 24.1657 15.3946 24.156 15.3987 24.1472C15.4027 24.1384 15.4089 24.1307 15.4166 24.1249C15.515 24.0523 15.6134 23.9765 15.7071 23.9008C15.7155 23.894 15.7256 23.8897 15.7364 23.8883C15.7471 23.8869 15.7581 23.8886 15.768 23.893C18.8338 25.2702 22.1541 25.2702 25.184 23.893C25.1939 23.8883 25.2049 23.8864 25.2158 23.8877C25.2267 23.8889 25.2371 23.8932 25.2457 23.9C25.3393 23.9765 25.4369 24.0523 25.5361 24.1249C25.5439 24.1306 25.5502 24.1382 25.5543 24.1469C25.5585 24.1556 25.5604 24.1653 25.56 24.1749C25.5595 24.1846 25.5567 24.194 25.5517 24.2023C25.5467 24.2106 25.5397 24.2175 25.5314 24.2225C25.0645 24.491 24.5789 24.7182 24.0691 24.9071C24.0613 24.91 24.0542 24.9145 24.0482 24.9203C24.0423 24.9261 24.0376 24.9331 24.0346 24.9409C24.0315 24.9486 24.0302 24.957 24.0307 24.9653C24.0311 24.9736 24.0333 24.9817 24.0371 24.9891C24.3182 25.5255 24.6398 26.036 24.9935 26.5209C25.0008 26.5308 25.0111 26.5382 25.0228 26.5422C25.0346 26.5461 25.0472 26.5463 25.0591 26.5427C26.741 26.0365 28.3252 25.2497 29.7448 24.2154C29.7518 24.2106 29.7576 24.2043 29.7619 24.1971C29.7662 24.1898 29.7689 24.1817 29.7698 24.1733C30.1602 20.1964 29.1156 16.741 26.9991 13.6791C26.9939 13.6692 26.9853 13.6614 26.9749 13.6572ZM17.3746 22.0779C16.4518 22.0779 15.6907 21.2433 15.6907 20.2198C15.6907 19.1955 16.437 18.3617 17.3746 18.3617C18.3193 18.3617 19.0734 19.2026 19.0586 20.2198C19.0586 21.2441 18.3123 22.0779 17.3746 22.0779ZM23.6007 22.0779C22.6772 22.0779 21.9167 21.2433 21.9167 20.2198C21.9167 19.1955 22.6623 18.3617 23.6007 18.3617C24.5454 18.3617 25.2995 19.2026 25.2847 20.2198C25.2847 21.2441 24.5461 22.0779 23.6007 22.0779Z" fill="#191919"/>
    <defs>
        <linearGradient id="paint0_linear_8_4565" x1="-3.74653" y1="-8.74923" x2="19.861" y2="54.4931" gradientUnits="userSpaceOnUse">
            <stop offset="0.153796" stop-color="#B4D109"/>
            <stop offset="0.684991" stop-color="#87CC00"/>
        </linearGradient>
    </defs>
</svg>
