<svg width="50" height="50" viewBox="0 0 50 50" fill="none" xmlns="http://www.w3.org/2000/svg">
<circle cx="25" cy="25" r="25" fill="#FF0420"/>
<path d="M33.3175 17.493C31.7875 16.803 30.1475 16.293 28.4325 16.003C28.4172 16 28.4014 16.0019 28.3872 16.0084C28.3731 16.0148 28.3613 16.0255 28.3535 16.039C28.1435 16.408 27.9095 16.889 27.7455 17.269C25.9266 16.9972 24.0774 16.9972 22.2585 17.269C22.0758 16.8478 21.8698 16.4372 21.6415 16.039C21.6337 16.0253 21.622 16.0144 21.6079 16.0076C21.5938 16.0008 21.578 15.9985 21.5625 16.001C19.8485 16.291 18.2085 16.801 16.6775 17.492C16.6643 17.4975 16.6531 17.5069 16.6455 17.519C13.5335 22.094 12.6805 26.556 13.0995 30.962C13.1006 30.9727 13.104 30.9832 13.1093 30.9926C13.1147 31.0021 13.1219 31.0104 13.1305 31.017C14.9469 32.3394 16.9728 33.3468 19.1235 33.997C19.1385 34.0016 19.1545 34.0016 19.1695 33.9969C19.1845 33.9923 19.1977 33.9832 19.2075 33.9709C19.6703 33.352 20.0804 32.6954 20.4335 32.0079C20.4384 31.9986 20.4412 31.9882 20.4418 31.9776C20.4423 31.967 20.4406 31.9565 20.4367 31.9466C20.4328 31.9367 20.4269 31.9278 20.4192 31.9205C20.4116 31.9131 20.4025 31.9075 20.3925 31.9039C19.7465 31.6607 19.1206 31.3671 18.5205 31.0259C18.5097 31.0198 18.5006 31.0111 18.494 31.0005C18.4875 30.99 18.4836 30.978 18.4828 30.9656C18.482 30.9532 18.4843 30.9408 18.4895 30.9295C18.4947 30.9183 18.5026 30.9084 18.5125 30.9009C18.6385 30.8079 18.7645 30.711 18.8845 30.614C18.8953 30.6052 18.9083 30.5997 18.9221 30.5979C18.9358 30.5961 18.9498 30.5982 18.9625 30.604C22.8895 32.368 27.1425 32.368 31.0235 30.604C31.0362 30.5979 31.0503 30.5955 31.0643 30.5971C31.0782 30.5987 31.0915 30.6042 31.1025 30.6129C31.2225 30.7109 31.3475 30.8079 31.4745 30.9009C31.4845 30.9083 31.4925 30.918 31.4979 30.9292C31.5032 30.9403 31.5057 30.9527 31.5051 30.9651C31.5045 30.9774 31.5008 30.9895 31.4945 31.0001C31.4881 31.0107 31.4791 31.0196 31.4685 31.0259C30.8705 31.3699 30.2485 31.661 29.5955 31.903C29.5855 31.9066 29.5763 31.9123 29.5687 31.9198C29.561 31.9272 29.5551 31.9362 29.5512 31.9462C29.5473 31.9561 29.5456 31.9668 29.5462 31.9774C29.5467 31.9881 29.5496 31.9985 29.5545 32.0079C29.9145 32.695 30.3265 33.3489 30.7795 33.9699C30.7889 33.9827 30.802 33.9922 30.8171 33.9972C30.8321 34.0022 30.8483 34.0025 30.8635 33.9979C33.0178 33.3496 35.0471 32.3417 36.8655 31.017C36.8744 31.0107 36.8818 31.0027 36.8873 30.9934C36.8928 30.9841 36.8963 30.9737 36.8975 30.9629C37.3975 25.8689 36.0595 21.443 33.3485 17.521C33.3418 17.5082 33.3308 17.4983 33.3175 17.493ZM21.0205 28.2789C19.8385 28.2789 18.8635 27.2099 18.8635 25.8989C18.8635 24.5869 19.8195 23.5189 21.0205 23.5189C22.2305 23.5189 23.1965 24.5959 23.1775 25.8989C23.1775 27.2109 22.2215 28.2789 21.0205 28.2789ZM28.9955 28.2789C27.8125 28.2789 26.8385 27.2099 26.8385 25.8989C26.8385 24.5869 27.7935 23.5189 28.9955 23.5189C30.2055 23.5189 31.1715 24.5959 31.1525 25.8989C31.1525 27.2109 30.2065 28.2789 28.9955 28.2789Z" fill="#F0EBDF"/>
</svg>
