<svg width="33" height="33" viewBox="0 0 33 33" fill="none" xmlns="http://www.w3.org/2000/svg">
    <rect width="33" height="33" rx="16.5" fill="url(#paint0_linear_0_1)"/>
    <path d="M24.9406 9.72172C25.0988 9.55794 25.1863 9.33857 25.1843 9.11087C25.1823 8.88318 25.091 8.66537 24.93 8.50435C24.769 8.34334 24.5512 8.25201 24.3235 8.25003C24.0958 8.24805 23.8764 8.33559 23.7126 8.49378L22.1521 10.0543C21.4443 9.61435 20.6085 9.42672 19.7806 9.52195C18.9527 9.61718 18.1814 9.98967 17.592 10.5789L16.6645 11.5072C16.3797 11.7922 16.2198 12.1786 16.2198 12.5814C16.2198 12.9843 16.3797 13.3707 16.6645 13.6557L19.7778 16.7698C19.9189 16.911 20.0865 17.0229 20.2709 17.0993C20.4553 17.1757 20.6529 17.215 20.8525 17.215C21.0521 17.215 21.2497 17.1757 21.4341 17.0993C21.6185 17.0229 21.786 16.911 21.9271 16.7698L22.8546 15.8424C23.4437 15.2531 23.8163 14.482 23.9116 13.6543C24.007 12.8266 23.8197 11.9909 23.38 11.2831L24.9406 9.72172ZM15.3879 16.6691C15.5461 16.5053 15.6337 16.2859 15.6317 16.0582C15.6297 15.8305 15.5384 15.6127 15.3774 15.4517C15.2163 15.2907 14.9985 15.1994 14.7708 15.1974C14.5431 15.1954 14.3238 15.283 14.16 15.4411L12.8834 16.7177L12.629 16.4633C12.5068 16.3413 12.3413 16.2728 12.1687 16.2728C11.9961 16.2728 11.8306 16.3413 11.7084 16.4633L10.167 18.0047C9.57787 18.5939 9.20535 19.3651 9.10996 20.1928C9.01458 21.0205 9.20194 21.8562 9.64159 22.5639L8.08104 24.1254C7.99809 24.2055 7.93194 24.3013 7.88642 24.4072C7.84091 24.5132 7.81695 24.6271 7.81595 24.7425C7.81495 24.8578 7.83692 24.9721 7.88059 25.0788C7.92425 25.1856 7.98873 25.2825 8.07027 25.3641C8.15181 25.4456 8.24877 25.5101 8.3555 25.5538C8.46222 25.5974 8.57658 25.6194 8.69189 25.6184C8.80719 25.6174 8.92115 25.5934 9.0271 25.5479C9.13305 25.5024 9.22888 25.4362 9.30898 25.3533L10.8704 23.7927C11.5782 24.2324 12.4138 24.4198 13.2415 24.3244C14.0693 24.229 14.8404 23.8565 15.4296 23.2674L16.9711 21.7259C17.093 21.6038 17.1615 21.4382 17.1615 21.2656C17.1615 21.093 17.093 20.9275 16.9711 20.8054L16.7166 20.5509L17.9932 19.2744C18.1514 19.1106 18.2389 18.8912 18.2369 18.6635C18.235 18.4358 18.1436 18.218 17.9826 18.057C17.8216 17.896 17.6038 17.8046 17.3761 17.8027C17.1484 17.8007 16.929 17.8882 16.7652 18.0464L15.4887 19.323L14.1114 17.9457L15.3879 16.6691Z" fill="#191919"/>
    <defs>
        <linearGradient id="paint0_linear_0_1" x1="-3.98276" y1="-7.39655" x2="15.975" y2="46.0682" gradientUnits="userSpaceOnUse">
            <stop offset="0.153796" stop-color="#B4D109"/>
            <stop offset="0.684991" stop-color="#87CC00"/>
        </linearGradient>
    </defs>
</svg>
