<svg width="73" height="73" viewBox="0 0 73 73" fill="none" xmlns="http://www.w3.org/2000/svg">
    <circle cx="36.5" cy="36.5" r="35.75" stroke="#C93041" stroke-width="1.5"/>
    <path fill-rule="evenodd" clip-rule="evenodd" d="M46.583 28.4285C46.7151 28.2966 46.8199 28.1399 46.8914 27.9675C46.963 27.795 46.9999 27.6102 47 27.4235C47.0001 27.2368 46.9635 27.0519 46.8921 26.8793C46.8208 26.7068 46.7161 26.55 46.5842 26.4179C46.4523 26.2858 46.2956 26.181 46.1232 26.1094C45.9507 26.0379 45.7659 26.001 45.5792 26.0009C45.3925 26.0008 45.2076 26.0374 45.035 26.1088C44.8625 26.1801 44.7057 26.2847 44.5736 26.4167L35.9998 34.9906L27.4285 26.4167C27.1617 26.1499 26.7999 26 26.4226 26C26.0453 26 25.6835 26.1499 25.4167 26.4167C25.1499 26.6835 25 27.0453 25 27.4226C25 27.7999 25.1499 28.1618 25.4167 28.4285L33.9905 37L25.4167 45.5715C25.2846 45.7036 25.1798 45.8604 25.1083 46.033C25.0368 46.2056 25 46.3906 25 46.5774C25 46.7642 25.0368 46.9492 25.1083 47.1218C25.1798 47.2944 25.2846 47.4512 25.4167 47.5833C25.6835 47.8501 26.0453 48 26.4226 48C26.6094 48 26.7944 47.9632 26.967 47.8917C27.1396 47.8202 27.2964 47.7154 27.4285 47.5833L35.9998 39.0094L44.5736 47.5833C44.8404 47.8498 45.2021 47.9994 45.5792 47.9991C45.9562 47.9989 46.3178 47.8489 46.5842 47.5821C46.8507 47.3153 47.0002 46.9536 47 46.5765C46.9998 46.1995 46.8498 45.8379 46.583 45.5715L38.0092 37L46.583 28.4285Z" fill="#C93041"/>
</svg>
