<svg width="73" height="73" viewBox="0 0 73 73" fill="none" xmlns="http://www.w3.org/2000/svg">
<circle cx="36.5" cy="36.5" r="35.75" stroke="#FF0420" stroke-width="1.5"/>
<path fill-rule="evenodd" clip-rule="evenodd" d="M46.6019 28.4285C46.728 28.2966 46.8281 28.1399 46.8964 27.9675C46.9647 27.795 46.9999 27.6102 47 27.4235C47.0001 27.2368 46.9651 27.0519 46.897 26.8793C46.8289 26.7068 46.729 26.55 46.6031 26.4179C46.4772 26.2858 46.3276 26.181 46.163 26.1094C45.9984 26.0379 45.822 26.001 45.6437 26.0009C45.4655 26.0008 45.289 26.0374 45.1243 26.1088C44.9597 26.1801 44.81 26.2847 44.6839 26.4167L36.4998 34.9906L28.3181 26.4167C28.0635 26.1499 27.7181 26 27.3579 26C26.9978 26 26.6524 26.1499 26.3977 26.4167C26.1431 26.6835 26 27.0453 26 27.4226C26 27.7999 26.1431 28.1618 26.3977 28.4285L34.5818 37L26.3977 45.5715C26.2716 45.7036 26.1716 45.8604 26.1034 46.033C26.0351 46.2056 26 46.3906 26 46.5774C26 46.7642 26.0351 46.9492 26.1034 47.1218C26.1716 47.2944 26.2716 47.4512 26.3977 47.5833C26.6524 47.8501 26.9978 48 27.3579 48C27.5362 48 27.7128 47.9632 27.8776 47.8917C28.0423 47.8202 28.192 47.7154 28.3181 47.5833L36.4998 39.0094L44.6839 47.5833C44.9386 47.8498 45.2838 47.9994 45.6437 47.9991C46.0037 47.9989 46.3488 47.8489 46.6031 47.5821C46.8575 47.3153 47.0002 46.9536 47 46.5765C46.9998 46.1995 46.8566 45.8379 46.6019 45.5715L38.4179 37L46.6019 28.4285Z" fill="#C93041"/>
</svg>
