<svg width="43" height="26" viewBox="0 0 43 26" fill="none" xmlns="http://www.w3.org/2000/svg">
    <path d="M31.8327 12.066C32.6896 12.3939 32.6896 13.6061 31.8327 13.934L1.67671 25.4711C1.02196 25.7216 0.319384 25.2381 0.319384 24.5371L0.319385 1.46288C0.319385 0.761859 1.02196 0.278412 1.67671 0.528904L31.8327 12.066Z" fill="url(#paint0_linear_0_1)"/>
    <path d="M42.1964 12.0663C43.0533 12.3941 43.0533 13.6064 42.1964 13.9343L21.0405 22.0282C20.3857 22.2786 19.6831 21.7952 19.6831 21.0942L19.6831 4.90641C19.6831 4.20539 20.3857 3.72194 21.0405 3.97243L42.1964 12.0663Z" fill="url(#paint1_linear_0_1)"/>
    <defs>
        <linearGradient id="paint0_linear_0_1" x1="44.4213" y1="-5.62069" x2="-19.0166" y2="30.1154" gradientUnits="userSpaceOnUse">
            <stop offset="0.153796" stop-color="#B4D109"/>
            <stop offset="0.684991" stop-color="#87CC00"/>
        </linearGradient>
        <linearGradient id="paint1_linear_0_1" x1="52.0954" y1="-0.684792" x2="5.47233" y2="25.5791" gradientUnits="userSpaceOnUse">
            <stop offset="0.153796" stop-color="#B4D109"/>
            <stop offset="0.684991" stop-color="#87CC00"/>
        </linearGradient>
    </defs>
</svg>
