<svg width="248" height="136" viewBox="0 0 248 136" fill="none" xmlns="http://www.w3.org/2000/svg">
    <path d="M245 -4.50024C225.283 -10.4987 195.699 -8.8723 175.561 -8.8723C152.694 -8.8723 130.474 -1.88377 107.917 -1.88377C96.7227 -1.88377 85.8378 -2.99029 74.8685 -4.21328C71.0152 -4.67918 64.7993 -6.13513 61.396 -3.04852C59.4272 -1.24315 2.28094 -16.0529 1.99967 -12.5004C0.0589569 -8.42379 0.509226 -7.70182 1.99992 1.49976C70.4996 -1.37293 65.1076 42.4998 66.4306 49.7149C68.4999 60.9998 75.3467 63.0514 80.4938 62.236C85.8941 61.3625 90.6474 53.9663 96.8352 56.354C100.126 57.6353 104.12 62.0613 106.511 67.7686C109.52 74.8736 112.108 86.0553 117.621 87.8607C131.684 92.5197 128.393 60.7801 138.265 79.9403C145.269 93.568 143.384 116.921 151.485 128.336C158.46 138.12 168.67 138.353 175.702 130.083C182.339 122.279 189.258 105.274 190.777 90.1902C192.099 77.1449 196.599 50.3555 206.387 62.469C213.728 71.6123 210.072 98.9259 216.625 106.264C229.226 120.357 230.126 81.2216 230.126 66.8951C230.126 43.5417 230.435 31.6612 241.377 21.7608C253.218 10.9285 253.832 -1.82131 245 -4.50024Z" fill="url(#paint0_linear_8_3732)"/>
    <defs>
        <linearGradient id="paint0_linear_8_3732" x1="-29.5029" y1="-46.4614" x2="28.7748" y2="215.722" gradientUnits="userSpaceOnUse">
            <stop offset="0.153796" stop-color="#B4D109"/>
            <stop offset="0.684991" stop-color="#87CC00"/>
        </linearGradient>
    </defs>
</svg>
