<svg width="41" height="44" viewBox="0 0 41 44" fill="none" xmlns="http://www.w3.org/2000/svg">
<rect y="0.914062" width="41" height="42.1714" rx="20.5" fill="#13192B"/>
<path fill-rule="evenodd" clip-rule="evenodd" d="M23.2007 14.0045L31.2191 17.8224C31.5896 17.9988 31.5954 18.5004 31.2291 18.6845L20.8151 23.9186C20.2344 24.2104 19.5416 24.2177 18.9544 23.9381L12.4159 20.8248C11.6193 20.52 10.7286 21.0766 10.7286 21.915C10.7286 22.589 11.1285 23.2052 11.7616 23.5066L18.317 26.6279C18.7171 26.2399 19.2743 25.9992 19.8906 25.9992C20.4892 25.9992 21.0321 26.2263 21.4294 26.595L29.5944 22.4913C29.5721 22.3713 29.5604 22.2478 29.5604 22.1217C29.5604 20.9617 30.5478 20.0214 31.7659 20.0214C32.9839 20.0214 33.9714 20.9617 33.9714 22.1217C33.9714 23.2817 32.9839 24.222 31.7659 24.222C31.1703 24.222 30.6298 23.9972 30.233 23.6318L22.0635 27.7378C22.0849 27.8553 22.0961 27.9762 22.0961 28.0995C22.0961 29.2595 21.1086 30.1998 19.8906 30.1998C18.6725 30.1998 17.6851 29.2595 17.6851 28.0995C17.6851 27.9922 17.6935 27.8868 17.7098 27.7838L11.0595 24.6174C10.0249 24.1248 9.3714 23.1178 9.3714 22.0163V21.4027C9.3714 20.5638 9.85895 19.7938 10.638 19.4023L21.34 14.024C21.9207 13.7321 22.6135 13.7249 23.2007 14.0045ZM19.8906 28.9073C20.359 28.9073 20.7388 28.5456 20.7388 28.0995C20.7388 27.6534 20.359 27.2917 19.8906 27.2917C19.4221 27.2917 19.0423 27.6534 19.0423 28.0995C19.0423 28.5456 19.4221 28.9073 19.8906 28.9073ZM32.6142 22.1217C32.6142 22.5678 32.2344 22.9295 31.7659 22.9295C31.2974 22.9295 30.9176 22.5678 30.9176 22.1217C30.9176 21.6756 31.2974 21.3139 31.7659 21.3139C32.2344 21.3139 32.6142 21.6756 32.6142 22.1217Z" fill="white"/>
</svg>
