<svg width="73" height="73" viewBox="0 0 73 73" fill="none" xmlns="http://www.w3.org/2000/svg">
<path d="M32.6437 43.1629L26.8445 37.6438C26.532 37.3464 26.1082 37.1793 25.6663 37.1793C25.2243 37.1793 24.8005 37.3464 24.488 37.6438C24.1756 37.9412 24 38.3445 24 38.7651C24 38.9733 24.0431 39.1795 24.1268 39.3719C24.2106 39.5643 24.3333 39.7392 24.488 39.8864L31.4738 46.5348C32.1256 47.1551 33.1785 47.1551 33.8303 46.5348L51.512 29.7071C51.8245 29.4097 52 29.0064 52 28.5858C52 28.1652 51.8245 27.7619 51.512 27.4645C51.1995 27.1671 50.7757 27 50.3337 27C49.8918 27 49.468 27.1671 49.1555 27.4645L32.6437 43.1629Z" fill="#FF0420"/>
<circle cx="36.5" cy="36.5" r="35.75" stroke="#FF0420" stroke-width="1.5"/>
</svg>
