<svg width="40" height="40" viewBox="0 0 40 40" fill="none" xmlns="http://www.w3.org/2000/svg">
    <circle cx="19.5175" cy="19.5185" r="19.5175" fill="url(#paint0_linear_8_4562)"/>
    <path d="M28.6563 14.2011C28.0044 14.4899 27.3041 14.6851 26.5679 14.7733C27.3275 14.3188 27.8958 13.6034 28.1668 12.7607C27.4531 13.1846 26.672 13.483 25.8575 13.6429C25.3097 13.058 24.5842 12.6704 23.7935 12.5401C23.0029 12.4098 22.1914 12.5442 21.4849 12.9225C20.7785 13.3007 20.2167 13.9016 19.8868 14.6318C19.5568 15.362 19.4772 16.1807 19.6603 16.9608C18.2142 16.8882 16.7995 16.5124 15.508 15.8576C14.2166 15.2029 13.0773 14.2839 12.164 13.1604C11.8517 13.6991 11.6721 14.3236 11.6721 14.9888C11.6718 15.5876 11.8192 16.1772 12.1014 16.7053C12.3836 17.2335 12.7918 17.6838 13.2897 18.0163C12.7122 17.998 12.1475 17.8419 11.6425 17.5612V17.608C11.6424 18.4479 11.9329 19.2619 12.4647 19.9119C12.9965 20.5619 13.7368 21.0079 14.5599 21.1743C14.0242 21.3193 13.4625 21.3406 12.9174 21.2367C13.1496 21.9594 13.602 22.5913 14.2113 23.044C14.8205 23.4967 15.5561 23.7476 16.315 23.7615C15.0267 24.7728 13.4356 25.3214 11.7978 25.319C11.5077 25.3191 11.2178 25.3022 10.9297 25.2683C12.5922 26.3372 14.5274 26.9045 16.5039 26.9023C23.1945 26.9023 26.8521 21.3609 26.8521 16.5549C26.8521 16.3987 26.8482 16.241 26.8411 16.0849C27.5526 15.5704 28.1667 14.9333 28.6547 14.2034L28.6563 14.2011Z" fill="#191919"/>
    <defs>
        <linearGradient id="paint0_linear_8_4562" x1="-4.71112" y1="-8.74826" x2="18.8964" y2="54.4941" gradientUnits="userSpaceOnUse">
            <stop offset="0.153796" stop-color="#B4D109"/>
            <stop offset="0.684991" stop-color="#87CC00"/>
        </linearGradient>
    </defs>
</svg>
