<svg width="50" height="50" viewBox="0 0 50 50" fill="none" xmlns="http://www.w3.org/2000/svg">
<circle cx="25" cy="25" r="25" fill="#FF0420"/>
<path d="M36.706 18.1895C35.871 18.5595 34.974 18.8095 34.031 18.9225C35.004 18.3403 35.7319 17.424 36.079 16.3445C35.1648 16.8875 34.1643 17.2697 33.121 17.4745C32.4194 16.7254 31.4901 16.2288 30.4773 16.062C29.4646 15.8951 28.4251 16.0673 27.5202 16.5518C26.6154 17.0362 25.8958 17.8059 25.4732 18.7412C25.0505 19.6766 24.9485 20.7253 25.183 21.7245C23.3307 21.6315 21.5186 21.1501 19.8644 20.3114C18.2102 19.4728 16.7508 18.2957 15.581 16.8565C15.181 17.5465 14.951 18.3465 14.951 19.1985C14.9506 19.9655 15.1394 20.7208 15.5009 21.3973C15.8623 22.0737 16.3852 22.6506 17.023 23.0765C16.2833 23.053 15.5599 22.8531 14.913 22.4935V22.5535C14.9129 23.6293 15.285 24.6719 15.9662 25.5045C16.6473 26.3371 17.5956 26.9084 18.65 27.1215C17.9638 27.3072 17.2443 27.3346 16.546 27.2015C16.8435 28.1271 17.423 28.9365 18.2034 29.5164C18.9837 30.0963 19.9259 30.4177 20.898 30.4355C19.2478 31.7309 17.2099 32.4336 15.112 32.4305C14.7404 32.4306 14.3691 32.4089 14 32.3655C16.1295 33.7347 18.6083 34.4613 21.14 34.4585C29.71 34.4585 34.395 27.3605 34.395 21.2045C34.395 21.0045 34.39 20.8025 34.381 20.6025C35.2923 19.9435 36.0789 19.1274 36.704 18.1925L36.706 18.1895Z" fill="#F0EBDF"/>
</svg>
