<svg width="16" height="9" viewBox="0 0 16 9" fill="none" xmlns="http://www.w3.org/2000/svg">
    <path d="M0.460776 9C0.365153 9 0.301405 8.96207 0.269531 8.88621C0.229688 8.81724 0.237656 8.74828 0.293436 8.67931L6.35352 0.310345C6.4093 0.234483 6.485 0.165517 6.58062 0.103448C6.68421 0.0344828 6.81171 0 6.96311 0L8.60065 0C8.72815 0 8.79588 0.0379312 8.80385 0.113793C8.81978 0.182759 8.80385 0.251724 8.75603 0.320689L2.6601 8.68966C2.61228 8.75862 2.54057 8.82759 2.44494 8.89655C2.34932 8.96552 2.22183 9 2.06245 9H0.460776Z" fill="url(#paint0_linear_8_2561)"/>
    <path d="M7.44104 9C7.34541 9 7.28167 8.96207 7.24979 8.88621C7.20995 8.81724 7.21792 8.74828 7.2737 8.67931L13.3338 0.310345C13.3896 0.234483 13.4653 0.165517 13.5609 0.103448C13.6645 0.0344828 13.792 0 13.9434 0L15.5809 0C15.7084 0 15.7761 0.0379312 15.7841 0.113793C15.8 0.182759 15.7841 0.251724 15.7363 0.320689L9.64036 8.68966C9.59255 8.75862 9.52083 8.82759 9.42521 8.89655C9.32958 8.96552 9.20209 9 9.04272 9H7.44104Z" fill="url(#paint1_linear_8_2561)"/>
    <defs>
        <linearGradient id="paint0_linear_8_2561" x1="-1.63155" y1="-2.01724" x2="1.79857" y2="13.8546" gradientUnits="userSpaceOnUse">
            <stop offset="0.153796" stop-color="#B4D109"/>
            <stop offset="0.684991" stop-color="#87CC00"/>
        </linearGradient>
        <linearGradient id="paint1_linear_8_2561" x1="-1.63155" y1="-2.01724" x2="1.79857" y2="13.8546" gradientUnits="userSpaceOnUse">
            <stop offset="0.153796" stop-color="#B4D109"/>
            <stop offset="0.684991" stop-color="#87CC00"/>
        </linearGradient>
    </defs>
</svg>
