<svg width="23" height="23" viewBox="0 0 23 23" fill="none" xmlns="http://www.w3.org/2000/svg">
<rect width="23" height="23" rx="11.5" fill="#FF0420"/>
<path d="M7.21833 5.96297C6.88539 5.96297 6.56608 6.0926 6.33065 6.32336C6.09523 6.55411 5.96297 6.86708 5.96297 7.19342V15.8066C5.96297 16.1329 6.09523 16.4459 6.33065 16.6766C6.56608 16.9074 6.88539 17.037 7.21833 17.037H16.0059C16.3388 17.037 16.6581 16.9074 16.8935 16.6766C17.129 16.4459 17.2612 16.1329 17.2612 15.8066V14.4039C17.4509 14.2965 17.6087 14.1423 17.7188 13.9567C17.8289 13.7711 17.8876 13.5604 17.8889 13.3457V9.65433C17.8876 9.43959 17.8289 9.22894 17.7188 9.0433C17.6087 8.85766 17.4509 8.7035 17.2612 8.59614V7.19342C17.2612 6.86708 17.129 6.55411 16.8935 6.32336C16.6581 6.0926 16.3388 5.96297 16.0059 5.96297H7.21833ZM7.21833 7.19342H16.0059V8.42387H12.2398C11.9068 8.42387 11.5875 8.55351 11.3521 8.78426C11.1167 9.01502 10.9844 9.32799 10.9844 9.65433V13.3457C10.9844 13.672 11.1167 13.985 11.3521 14.2157C11.5875 14.4465 11.9068 14.5761 12.2398 14.5761H16.0059V15.8066H7.21833V7.19342ZM12.2398 9.65433H16.6335V13.3457H12.2398V9.65433ZM14.1228 10.5772C13.8731 10.5772 13.6336 10.6744 13.4571 10.8475C13.2805 11.0205 13.1813 11.2553 13.1813 11.5C13.1813 11.7448 13.2805 11.9795 13.4571 12.1526C13.6336 12.3256 13.8731 12.4228 14.1228 12.4228C14.3725 12.4228 14.612 12.3256 14.7886 12.1526C14.9651 11.9795 15.0643 11.7448 15.0643 11.5C15.0643 11.2553 14.9651 11.0205 14.7886 10.8475C14.612 10.6744 14.3725 10.5772 14.1228 10.5772Z" fill="#F0EBDF"/>
</svg>
