<svg width="52" height="60" viewBox="0 0 52 60" fill="none" xmlns="http://www.w3.org/2000/svg">
<g clip-path="url(#clip0_102_5)">
<path d="M12.2758 10.8953C18.2619 17.0129 26.1286 21.9709 33.6063 21.7559C34.3197 21.7364 34.9163 22.3032 34.9358 23.0199C34.9423 23.2283 34.8969 23.4303 34.8126 23.6192C31.5245 30.4015 24.2933 37.1772 17.6911 36.252C17.3798 36.2129 17.0945 36.05 16.8934 35.809C12.5871 30.636 9.56494 20.2965 10.0513 11.7031C10.1032 10.9865 10.7323 10.4457 11.4457 10.5044C11.757 10.5304 12.0553 10.6672 12.2758 10.8953Z" fill="#FF0420"/>
<path d="M1.10598 43.1034C8.5286 42.0561 15.5441 39.2677 17.8326 34.3592C18.0518 33.8914 18.7534 33.7673 19.3969 34.0832C19.5843 34.1745 19.7488 34.2963 19.8888 34.4371C24.8268 39.6598 28.4515 47.4159 25.4399 51.2388C25.3019 51.4211 25.0625 51.53 24.7816 51.5489C18.7557 51.9486 8.56334 49.1549 1.08642 44.9045C0.466625 44.5427 0.194582 43.8903 0.483261 43.4583C0.60965 43.27 0.830185 43.1408 1.10598 43.1034Z" fill="#FF0420"/>
<path d="M22.3093 1.05814C25.7749 7.16278 30.3294 12.1143 34.6586 11.9188C35.0716 11.8993 35.417 12.4661 35.4283 13.1827C35.432 13.3912 35.4057 13.5932 35.3569 13.7821C33.4533 20.5643 29.2668 27.34 25.4445 26.4149C25.268 26.3693 25.1028 26.2129 24.9902 25.9719C22.5008 20.7989 20.7511 10.4594 21.029 1.86601C21.037 1.69552 21.0644 1.52948 21.1096 1.37745C21.1548 1.22541 21.2169 1.0904 21.2922 0.980176C21.3676 0.869956 21.4548 0.78671 21.5488 0.735237C21.6429 0.683763 21.7418 0.665079 21.84 0.680261C22.0165 0.706321 22.1854 0.836623 22.3093 1.05814Z" fill="#FF0420"/>
</g>
<defs>
<clipPath id="clip0_102_5">
<rect width="52" height="60" fill="white"/>
</clipPath>
</defs>
</svg>
