<svg width="52" height="60" viewBox="0 0 52 60" fill="none" xmlns="http://www.w3.org/2000/svg">
<g clip-path="url(#clip0_102_6)">
<path d="M37.7384 11.0581C31.7524 17.1628 23.8856 22.1143 16.4079 21.9188C15.6945 21.8993 15.0979 22.4661 15.0784 23.1827C15.072 23.3912 15.1174 23.5932 15.2017 23.7821C18.4898 30.5643 25.721 37.34 32.3231 36.4149C32.6279 36.3693 32.9133 36.2129 33.1078 35.9719C37.4077 30.7989 40.4299 20.4594 39.9499 11.866C39.9361 11.6955 39.8887 11.5295 39.8107 11.3774C39.7327 11.2254 39.6254 11.0904 39.4952 10.9802C39.365 10.87 39.2144 10.7867 39.052 10.7352C38.8896 10.6838 38.7187 10.6651 38.5491 10.6803C38.2443 10.7063 37.9524 10.8366 37.7384 11.0581Z" fill="#FF0420"/>
<path d="M50.6522 43.1338C43.2128 42.3045 36.1221 39.7257 33.6695 34.8979C33.4363 34.4369 32.7312 34.3341 32.0976 34.6692C31.913 34.7662 31.7523 34.8928 31.6166 35.0378C26.8383 40.407 23.4492 48.2689 26.5747 51.9992C26.7215 52.1701 26.9584 52.2749 27.2375 52.2811C33.2704 52.4948 43.3739 49.3951 50.7215 44.9252C50.8658 44.8338 50.9944 44.7233 51.1 44.6002C51.2056 44.4771 51.286 44.3438 51.3367 44.2079C51.3875 44.0721 51.4074 43.9364 51.3955 43.8087C51.3835 43.6809 51.3399 43.5637 51.2671 43.4637C51.1374 43.2834 50.921 43.1618 50.6522 43.1338Z" fill="#FF0420"/>
<path d="M27.7964 1.05814C24.3222 7.16278 19.7565 12.1143 15.4166 11.9188C15.0025 11.8993 14.6562 12.4661 14.6449 13.1827C14.6412 13.3912 14.6675 13.5932 14.7165 13.7821C16.6248 20.5643 20.8217 27.34 24.6534 26.4149C24.8303 26.3693 24.9959 26.2129 25.1089 25.9719C27.6044 20.7989 29.3584 10.4594 29.0799 1.86601C29.0718 1.69552 29.0444 1.52948 28.9991 1.37745C28.9538 1.22541 28.8916 1.0904 28.816 0.980176C28.7404 0.869956 28.653 0.78671 28.5587 0.735237C28.4645 0.683763 28.3653 0.665079 28.2669 0.680261C28.09 0.706321 27.9206 0.836623 27.7964 1.05814Z" fill="#FF0420"/>
</g>
<defs>
<clipPath id="clip0_102_6">
<rect width="52" height="60" fill="white"/>
</clipPath>
</defs>
</svg>
