<svg width="41" height="73" viewBox="0 0 41 73" fill="none" xmlns="http://www.w3.org/2000/svg">
<path d="M29.9889 0.532803C28.097 0.29908 26.0585 1.37722 24.1434 1.77681C22.3674 2.14625 20.1898 2.15378 18.3288 2.16132C16.8153 2.16886 14.5064 1.6788 12.908 1.90498C11.8964 1.77681 10.908 1.88236 10.0277 2.51568C7.5258 4.31007 -1.4266 6.50165 0.195004 8.16033C2.14865 10.1507 12.3201 6.07115 16.1744 15.0689C17.5412 18.2204 17.4562 21.9976 17.6493 25.3376C18.0431 32.0477 1.95367 34.7673 2 41.5C2.02317 44.757 20.0971 37 17.0469 55.0657C16.1744 58.4208 15.4485 62.0548 15.6029 65.5455C15.7265 68.3276 17.4176 72.8211 21.0546 72.4818C23.6106 72.2481 24.5604 69.6018 24.7457 67.4907C24.9619 65.1158 24.3365 62.7559 23.5257 60.5318C22.4755 57.6668 21.7419 54.8697 21.1319 51.8991C18.3288 35.5 34.0618 46.1923 34 40.5C33.9691 37.8989 19.989 30.276 20.0971 27.6749C20.1666 25.9785 19.5952 21.7715 20.6994 20.3917C20.8307 20.2259 20.8848 20.0525 20.9851 19.8715C23.3403 19.585 20.8925 30.9319 21.3326 32.6961C21.7805 34.4754 24.3828 36.9936 25.8808 34.4528C26.792 32.9148 26.46 29.4692 26.1279 27.8106C25.6801 25.5789 24.7843 23.7016 24.6453 21.4397C24.5141 19.3287 24.7843 17.2134 24.7843 15.0312C24.7843 5.37476 41.5637 10.2495 40.8505 8.16033C42.364 6.50165 31.8653 6.09692 32.7843 3.98587C33.6414 2.04823 31.8499 0.766526 29.9889 0.532803Z" fill="#545454"/>
</svg>
