<svg width="54" height="61" viewBox="0 0 54 61" fill="none" xmlns="http://www.w3.org/2000/svg">
<path d="M51.8694 52.951C51.6296 51.2513 51.2072 49.4942 50.8683 47.7736C49.6639 41.6629 49.3719 35.2081 50.4304 29.04C50.7588 27.1422 55.9998 5.5 52.9998 1.00006C51.8632 0.541235 46.8067 21.6206 45.5971 21.5372C44.2519 21.4434 42.9849 20.9897 41.6397 21.0002C39.0067 21.021 36.5822 22.0899 33.9075 22.069C32.5675 22.0586 31.3944 21.4955 30.0231 21.5372C28.7926 21.5737 27.5309 21.824 26.2743 21.923C24.4182 22.069 22.4578 22.1159 20.6277 21.7927C19.8352 21.6571 19.0322 21.5059 18.1876 21.532C17.4055 21.5581 16.4305 21.5893 15.8934 21.7927C13.031 22.8668 0.197593 28.466 0.5 31C10 33.5 17.3898 29.5 12.9528 36.3343C12.1551 37.563 11.665 39.5617 12.1551 41.0372C12.6452 42.5075 14.1624 42.8934 15.2521 41.7672C16.2115 40.7765 16.5347 39.5095 16.4096 38.1435C16.3314 37.3093 15.5806 34.8431 17.3898 34.8796C20.0593 34.9317 19.1678 41.032 19.2251 42.4763C19.3346 45.2605 19.0791 47.8257 18.5317 50.464C18.2658 51.7466 17.833 53.561 18.0781 54.8853C18.2501 55.7874 19.0739 57.388 20.1376 57.216C23.4484 56.6894 20.3357 44.3011 20.2835 42.9559C20.1949 40.7244 19.7778 36.9495 22.6298 36.2821C25.7738 35.547 24.3869 40.4898 24.2044 42.0383C24.0741 43.1384 23.7821 44.7912 24.8926 45.5055C26.2378 46.3763 27.2963 44.7808 27.3745 43.6285C27.4683 42.2938 26.9417 41.2823 26.6967 40.0257C26.4725 38.8526 26.5142 37.5178 26.754 36.3656C26.9678 35.3541 27.8072 33.8107 29.1472 34.5928C30.2265 35.2185 30.1274 36.9182 30.2995 37.9558C30.7374 40.6149 30.4715 43.6129 30.1587 46.272C29.9971 47.6328 29.8511 49.0145 29.7572 50.3857C29.6686 51.7049 29.4548 53.1543 29.7572 54.4526C30.0179 55.5892 30.5132 56.9292 31.921 56.8458C33.4747 56.7519 33.944 55.2972 34.0378 53.9833C34.1421 52.5652 33.8554 51.4025 33.4852 50.0833C33.1254 48.7955 33.1515 47.3825 32.7448 46.0999C31.994 43.7328 31.3005 41.251 32.1035 38.7535C32.9794 36.0423 35.2579 34.4677 38.0943 34.9578C40.5031 35.3749 42.8702 36.7931 42.9536 39.4991C43.0579 42.9872 42.6668 46.298 42.1402 49.7131C41.8118 51.8404 41.5094 54.072 41.5563 56.2462C41.5928 57.9824 42.036 59.8229 43.7618 60.605C47.0882 62.117 46.8067 56.4756 46.2644 54.755C45.3781 51.9656 44.8567 48.8685 44.5074 45.9226C44.3197 44.3637 44.3405 42.7943 44.3718 41.1989C44.3927 40.0727 44.4031 38.4511 45.2999 37.6482C46.4939 36.5793 47.6305 37.3666 47.8599 38.6701C48.0841 39.9475 47.839 41.3605 48.0059 42.6431C48.4074 45.7506 48.7046 48.8998 48.3396 52.0646C48.1884 53.3942 47.4219 55.0939 47.8912 56.387C48.3135 57.5549 49.8725 57.7165 50.9309 57.0595C52.2448 56.2566 52.0519 54.218 51.8694 52.951Z" fill="#FF0420"/>
</svg>
