<svg width="29" height="52" viewBox="0 0 29 52" fill="none" xmlns="http://www.w3.org/2000/svg">
<path d="M21.0228 0.0235519C19.6965 -0.144258 18.2675 0.629832 16.925 0.916732C15.6799 1.18198 14.1534 1.18739 12.8488 1.19281C11.7878 1.19822 10.1693 0.846358 9.04875 1.00875C8.33962 0.91673 7.64672 0.992517 7.02962 1.44723C5.27574 2.73557 -1.00006 4.30909 0.136719 5.5C1.50626 6.92909 8.6366 4 11.3385 10.4602C12.2967 12.723 12.2371 15.435 12.3725 17.833C12.6485 22.6508 12.5998 27.4631 12.6323 32.2971C12.6485 34.6356 12.5294 36.8984 11.9502 39.1773C11.3385 41.5862 10.8297 44.1954 10.938 46.7017C11.0246 48.6992 12.2101 51.9255 14.7597 51.6819C16.5515 51.5141 17.2173 49.614 17.3472 48.0983C17.4988 46.3932 17.0603 44.6988 16.4919 43.1019C15.7557 41.0449 15.2415 39.0366 14.8138 36.9038C14.0127 32.898 13.9044 29.2224 13.8611 25.1355C13.8394 23.2679 14.0127 21.3787 14.0885 19.5111C14.1372 18.2932 13.7366 15.2726 14.5107 14.282C14.6027 14.1629 14.6406 14.0384 14.711 13.9085C16.362 13.7027 14.646 21.8496 14.9546 23.1163C15.2685 24.3938 17.0928 26.2019 18.143 24.3776C18.7817 23.2733 18.5489 20.7995 18.3162 19.6086C18.0022 18.0063 17.3743 16.6584 17.2768 15.0344C17.1848 13.5187 17.3743 12 17.3743 10.4332C17.3743 3.5 29.1369 7 28.6369 5.5C29.6979 4.30909 22.3382 4.0185 22.9824 2.5028C23.5832 1.11161 22.3274 0.191362 21.0228 0.0235519Z" fill="#545454"/>
</svg>
