<svg width="54" height="60" viewBox="0 0 54 60" fill="none" xmlns="http://www.w3.org/2000/svg">
<path d="M12.653 51.7058C12.846 50.0307 13.1859 48.2991 13.4587 46.6034C14.428 40.5812 1.85183 41.0787 1 35C0.735638 33.1296 9.32879 4.94205 11.7432 0.507276C12.658 0.0550973 16.7275 20.8292 17.7011 20.747C18.7837 20.6545 19.8034 20.2075 20.886 20.2177C23.0051 20.2383 24.9563 21.2917 27.109 21.2711C28.1874 21.2608 29.1316 20.7059 30.2352 20.747C31.2255 20.783 32.241 21.0296 33.2523 21.1272C34.7461 21.2711 36.3239 21.3174 37.7968 20.9988C38.4346 20.8652 39.0808 20.7162 39.7606 20.7419C40.39 20.7675 41.1747 20.7984 41.6069 20.9988C43.9107 22.0573 54.2391 27.5755 53.9958 30.0727C46.35 32.5365 40.4026 28.5945 43.9736 35.3298C44.6156 36.5407 45.0101 38.5104 44.6156 39.9646C44.2212 41.4136 43.0001 41.7939 42.1231 40.684C41.351 39.7077 41.0908 38.459 41.1915 37.1128C41.2544 36.2906 41.8587 33.8602 40.4026 33.8961C38.2541 33.9475 46.5462 41.0767 46.5 42.5C36.5 41.5 39.043 46.6548 39.4836 49.2548C39.6976 50.5189 40.0459 52.307 39.8487 53.6122C39.7102 54.5011 39.0472 56.0786 38.1912 55.909C35.5266 55.3901 38.0317 43.1812 38.0737 41.8555C38.145 39.6563 38.4807 35.9361 36.1854 35.2784C33.6551 34.5539 34.7713 39.4251 34.9182 40.9512C35.0231 42.0354 35.258 43.6642 34.3643 44.3682C33.2816 45.2263 32.4298 43.654 32.3668 42.5184C32.2913 41.2029 32.7151 40.2061 32.9124 38.9678C33.0928 37.8116 33.0592 36.4962 32.8662 35.3606C32.6942 34.3637 32.0186 32.8428 30.9401 33.6135C30.0715 34.2301 30.1512 35.9053 30.0128 36.9278C29.6603 39.5484 29.8743 42.503 30.1261 45.1235C30.2561 46.4647 30.3736 47.8263 30.4492 49.1777C30.5205 50.4777 30.6926 51.9062 30.4492 53.1857C30.2394 54.3059 29.8407 55.6264 28.7077 55.5442C27.4573 55.4517 27.0796 54.0181 27.0041 52.7232C26.9202 51.3256 27.1509 50.1797 27.4489 48.8797C27.7384 47.6105 27.7174 46.218 28.0447 44.954C28.649 42.6211 29.2071 40.1753 28.5609 37.714C27.8559 35.042 26.0222 33.4902 23.7394 33.9732C21.8008 34.3843 27.516 38.2843 27.4489 40.9512C27.365 44.3888 20.9531 38.9678 20.4832 48.5149C20.7475 50.6113 20.9909 52.8106 20.9531 54.9533C20.9238 56.6644 20.5671 58.4782 19.1781 59.249C16.5009 60.7391 16.7275 55.1794 17.1639 53.4837C17.8773 50.7347 17.6561 48.5585 18.5781 44.7793C19.5 41 16.2624 43.1559 15.7624 42.1559C15.7456 41.046 18.662 37.416 17.9402 36.6246C16.9793 35.5713 16.0645 36.3472 15.8799 37.6318C15.6995 38.8907 18.0745 41.1936 17.9402 42.4577C13.3989 40.9577 15.2001 47.7133 15.4938 50.8323C15.6155 52.1426 16.2324 53.8177 15.8547 55.092C15.5148 56.243 14.2602 56.4023 13.4083 55.7549C12.3509 54.9636 12.5061 52.9545 12.653 51.7058Z" fill="#FF0420"/>
</svg>
