<svg width="64" height="68" viewBox="0 0 64 68" fill="none" xmlns="http://www.w3.org/2000/svg">
<path d="M18.4877 65.0129C18.4877 65.0129 18.4791 65.0129 18.4877 65.0129C18.4877 65.0215 18.4877 65.0215 18.4964 65.0215V65.0129C18.4964 65.0042 18.5051 64.9955 18.5051 64.9868L18.4964 64.9955C18.4964 65.0042 18.4877 65.0042 18.4877 65.0129C18.4877 65.0042 18.4877 65.0129 18.4877 65.0129Z" fill="white"/>
<path d="M18.489 65.0053C18.489 65.0053 18.4994 65.0053 18.489 65.0053C18.4994 65.0053 18.4994 64.995 18.489 65.0053C18.4994 64.995 18.4994 64.995 18.489 65.0053Z" fill="white"/>
<path d="M18.479 65.0132C18.4878 65.0132 18.4878 65.0044 18.4878 65.0044L18.4965 64.9956C18.4965 64.9956 18.4878 64.9956 18.479 65.0132C18.479 65.0044 18.479 65.0044 18.479 65.0132Z" fill="white"/>
<path d="M18.4902 65.0044C18.4902 65.0044 18.4902 65.0148 18.4902 65.0044C18.4798 65.0148 18.4798 65.0148 18.4902 65.0044C18.4798 65.0148 18.4902 65.0148 18.4902 65.0044C18.4902 65.0148 18.4902 65.0044 18.4902 65.0044Z" fill="white"/>
<path d="M18.4707 65.0137C18.4707 65.0137 18.48 65.0137 18.48 65.0044C18.48 65.0137 18.4707 65.0137 18.4707 65.0137Z" fill="white"/>
<path d="M18.5166 64.9707C18.5166 64.9707 18.5062 64.9603 18.5166 64.9707C18.5062 64.9603 18.5062 64.9603 18.5166 64.9707C18.5062 64.9707 18.5062 64.9707 18.5166 64.9707Z" fill="white"/>
<path d="M17.3338 64.1624C17.2644 64.145 17.2991 64.1537 17.3338 64.1624V64.1624Z" fill="white"/>
<path d="M16.9517 65.1777C16.9603 65.1864 16.969 65.2038 16.969 65.2124C16.9777 65.2298 16.995 65.2472 17.0037 65.2558C16.995 65.2472 16.9951 65.2385 16.9864 65.2298C16.9777 65.2125 16.969 65.1951 16.9517 65.1777Z" fill="white"/>
<path d="M48.5327 27.8013C48.5594 27.7746 48.5683 27.7657 48.5327 27.8013V27.8013Z" fill="white"/>
<path d="M36.1829 5.38526L36.1922 5.37598C36.1829 5.38526 36.1829 5.38526 36.1829 5.38526Z" fill="white"/>
<path d="M36.7043 24.2339C36.6953 24.2519 36.6953 24.2609 36.7043 24.2339V24.2339Z" fill="white"/>
<path d="M56.7588 38.2231C56.915 38.7612 57.0452 39.2993 57.1493 39.846C57.3229 39.9935 57.4964 40.1497 57.6527 40.3059C57.7134 40.3667 57.7741 40.4274 57.8349 40.4969C57.5485 39.8807 57.2621 39.2645 56.9671 38.6484C56.8976 38.5095 56.8282 38.362 56.7588 38.2231Z" fill="#F0EBDF"/>
<path d="M48.1592 28.6249C48.1592 28.6163 48.1679 28.5989 48.1679 28.5815C48.1592 28.5815 48.1592 28.6076 48.1592 28.6249Z" fill="white"/>
<path d="M37.5276 17.3261C37.5276 17.3175 37.5363 17.3175 37.5363 17.3088C37.5536 17.2828 37.5449 17.2827 37.5276 17.3261Z" fill="white"/>
<path d="M16.9434 65.1602C16.9521 65.1689 16.9521 65.1689 16.9609 65.1777C16.9609 65.1777 16.9609 65.1777 16.9609 65.1689C16.9521 65.1689 16.9434 65.1689 16.9434 65.1602Z" fill="white"/>
<path d="M18.4973 64.9175C18.4973 64.9175 18.4973 64.9264 18.4973 64.9175C18.4973 64.9264 18.4973 64.9353 18.5062 64.9442C18.4973 64.9353 18.4973 64.9175 18.4973 64.9175Z" fill="white"/>
<path d="M16.6926 64.6567C16.7015 64.7012 16.7015 64.6834 16.6926 64.6567V64.6567Z" fill="white"/>
<path d="M37.4337 12.7524C37.4337 12.7704 37.4247 12.7704 37.4337 12.7524V12.7524Z" fill="white"/>
<path d="M33.1103 25.0499C32.8586 26.2648 32.4074 27.4277 32.147 28.6426C31.9821 29.4931 31.8259 30.3436 31.5743 31.168C31.4615 31.5412 31.3226 31.9057 31.1577 32.2528C31.1837 32.2615 31.2185 32.2701 31.2445 32.2788C31.6177 32.3916 31.9908 32.4871 32.3727 32.5652C32.9801 32.6867 33.5963 32.7735 34.2124 32.7561C34.4034 32.7388 34.603 32.7127 34.7939 32.6693C34.898 32.6433 35.0108 32.6173 35.115 32.5912C35.1323 32.5912 35.1671 32.5739 35.1931 32.5652C35.2278 32.5565 35.2625 32.5392 35.2712 32.5392C36.0783 32.2528 36.842 31.8362 37.6403 31.5065C37.8573 31.4197 38.0656 31.3242 38.2825 31.2374C38.5168 31.1333 38.7685 31.0725 39.0202 31.0031C39.0289 31.0031 39.0289 31.0031 39.0375 31.0031C39.2024 30.925 39.376 30.8469 39.5496 30.7775C40.8253 30.2134 42.1877 29.7882 43.5502 29.4758C44.2098 29.3282 44.8693 29.1894 45.5375 29.0939C45.7979 28.148 46.0669 27.1934 46.2752 26.2388C46.362 25.8049 46.4314 25.3796 46.5008 24.9457C46.7264 23.3576 46.7959 21.7435 46.7091 20.138C46.6744 19.6173 46.631 19.1053 46.5702 18.5846C46.3359 16.6233 45.902 14.6881 45.3032 12.8049C45.1036 12.1887 44.8867 11.5726 44.6523 10.9738C44.0102 9.29889 43.2378 7.68474 42.2745 6.16605C41.6323 5.17674 40.8947 4.23081 40.0269 3.42374C39.6103 3.05925 39.1677 2.73816 38.6817 2.47781C38.378 2.33028 38.0569 2.21746 37.7358 2.13936C37.4841 2.09597 37.2325 2.07861 36.9721 2.07861C36.7118 2.10465 36.4601 2.14803 36.2084 2.22614C35.9828 2.30424 35.7572 2.40838 35.5489 2.52988C35.3493 2.66873 35.1584 2.83361 34.9848 3.01585C34.7418 3.30224 34.5422 3.60598 34.3687 3.93575C34.0996 4.49984 33.9087 5.08995 33.7785 5.69743C33.4922 7.17272 33.4574 8.67406 33.5355 10.1667C33.6136 11.3817 33.7438 12.5966 33.8393 13.8116C34.0389 16.2762 34.0215 18.7408 33.7525 21.1967C33.5876 22.4811 33.3793 23.7655 33.1103 25.0499ZM35.2538 15.8857C35.2452 15.7728 35.2278 15.6513 35.2365 15.5385C35.2365 15.4865 35.2278 15.4431 35.2278 15.391C35.2191 15.2088 35.2018 15.0265 35.1844 14.8443C35.1237 14.0546 35.0195 13.2735 34.898 12.5012C34.6377 10.9391 34.3166 9.35964 34.4207 7.76285C34.4728 6.97313 34.629 6.17473 34.9327 5.43708C35.0889 5.06392 35.2799 4.70811 35.5315 4.38702C35.6617 4.22213 35.8179 4.06592 35.9741 3.91839C36.0522 3.84897 36.139 3.76219 36.2258 3.7188C36.3039 3.68409 36.408 3.66673 36.4948 3.64069C36.5209 3.63201 36.5382 3.63201 36.5642 3.64069C36.6163 3.61466 36.6684 3.5973 36.7291 3.57126C37.1023 3.44109 37.5015 3.38902 37.892 3.44977C38.1003 3.48448 38.2999 3.55391 38.4648 3.68408C38.595 3.77954 38.7164 3.92707 38.7251 4.09196C38.7251 4.08328 38.7251 4.08328 38.7251 4.0746C38.7251 4.06593 38.7251 4.06592 38.7251 4.05724C38.7251 4.06592 38.7251 4.06593 38.7251 4.0746C38.7251 4.08328 38.7338 4.09195 38.7512 4.10063C38.8293 4.20477 38.7338 4.32627 38.6123 4.30024C38.6036 4.30024 38.6036 4.30024 38.595 4.30024C38.4648 4.34363 38.3346 4.36099 38.1871 4.36967C38.2565 4.36099 38.1437 4.37834 38.135 4.37834C38.109 4.37834 38.0829 4.38702 38.0569 4.38702C37.9875 4.3957 37.9267 4.3957 37.8573 4.38702C37.8486 4.38702 37.8226 4.38702 37.8052 4.38702C37.7879 4.38702 37.7445 4.38702 37.7358 4.39569C37.6924 4.40437 37.6577 4.40438 37.6143 4.41306C37.5449 4.42173 37.4841 4.43909 37.4147 4.45645C37.406 4.45645 37.406 4.45645 37.3974 4.45645C37.3887 4.45645 37.3887 4.45645 37.38 4.46512C37.3453 4.4738 37.3192 4.49116 37.2845 4.49984C37.2238 4.52587 37.1544 4.5519 37.0936 4.57793C37.0329 4.60397 36.9721 4.63869 36.9114 4.6734C36.9027 4.68208 36.8853 4.69075 36.868 4.70811C36.8333 4.73414 36.8072 4.7515 36.7812 4.77754C36.651 4.88168 36.5209 4.9945 36.408 5.10731C36.3994 5.11599 36.3646 5.1507 36.356 5.16806C36.3213 5.20277 36.2865 5.23749 36.2605 5.28088C36.2345 5.30691 36.2084 5.33294 36.1824 5.35897L36.1737 5.36766C36.0783 5.63669 36.0002 5.91438 35.9307 6.1834C35.9221 6.20076 35.9221 6.2268 35.9134 6.24416V6.25284C35.9047 6.28755 35.9047 6.32226 35.896 6.35697C35.9394 6.31358 35.9828 6.27019 36.0262 6.2268C36.0609 6.19208 36.0956 6.1487 36.139 6.11399C36.1911 6.06192 36.2605 6.03588 36.3213 5.99249C36.3386 5.97513 36.3733 5.94042 36.382 5.94042C36.4341 5.90571 36.4861 5.87968 36.5382 5.84496C36.6076 5.80157 36.6684 5.74082 36.7291 5.68007C36.868 5.54122 37.1544 5.68007 37.1197 5.87967C37.1023 5.97513 37.0763 6.07927 37.0676 6.16605C37.0589 6.27019 37.0415 6.37433 37.0155 6.47847C36.9548 6.7041 36.842 6.89503 36.7291 7.1033C36.6337 7.26819 36.5209 7.4244 36.4167 7.58928C36.3646 7.67607 36.3126 7.75417 36.2692 7.84095C36.2605 7.84963 36.2605 7.86699 36.2518 7.88434C36.2258 7.96245 36.2345 7.92774 36.2518 7.88434C36.2518 7.87567 36.2605 7.86698 36.2605 7.85831C36.2518 7.9017 36.2171 7.94509 36.2084 7.9798C36.1737 8.06659 36.1303 8.15337 36.1043 8.24883C36.0956 8.28354 36.0869 8.30957 36.0783 8.34428C36.0869 8.32693 36.0956 8.31825 36.1043 8.30089C36.2692 8.09262 36.4688 7.89302 36.6684 7.71946C36.7638 7.64135 36.8767 7.58928 36.9721 7.51985C37.0763 7.45043 37.1891 7.40704 37.2845 7.32894C37.4147 7.23348 37.649 7.35496 37.5709 7.52853C37.5536 7.55456 37.5449 7.58928 37.5275 7.61531C37.4928 7.61531 37.4841 7.64135 37.5102 7.69342C37.5102 7.75417 37.4755 7.80624 37.4581 7.85831C37.4147 7.96244 37.406 8.04923 37.3713 8.14469C37.3106 8.3009 37.2759 8.32693 37.2151 8.46578C37.1717 8.56124 37.1283 8.64802 37.0849 8.74348C37.0155 8.88233 36.9374 9.01251 36.8593 9.15136C36.8506 9.16872 36.8246 9.22079 36.8159 9.23814C36.7986 9.27286 36.7812 9.30757 36.7638 9.34228C36.6771 9.5332 36.599 9.72412 36.5209 9.91504C36.4861 10.0192 36.4514 10.1233 36.4167 10.2275C36.4427 10.1928 36.4775 10.158 36.5035 10.1233C36.7465 9.85429 37.0242 9.61998 37.3019 9.37699C37.5449 9.16872 37.918 9.49849 37.7184 9.75884C37.5275 10.0105 37.3974 10.2708 37.2759 10.5659C37.1457 10.8696 37.0329 11.1821 36.9287 11.4858C36.8767 11.6333 36.8333 11.7809 36.7899 11.9371C36.8072 11.9197 36.8159 11.9024 36.8333 11.885C37.0676 11.6247 37.3106 11.3903 37.5796 11.1647C37.7705 11.0085 38.1003 11.2081 37.9962 11.4511C37.9354 11.5986 37.8747 11.7375 37.8139 11.885C37.8052 11.9197 37.7879 11.9457 37.7705 11.9805C37.7185 12.0759 37.7098 12.1106 37.7271 12.0672C37.7358 12.0412 37.7358 12.0499 37.7098 12.0933C37.6751 12.154 37.649 12.2235 37.6143 12.2842C37.5622 12.3883 37.5189 12.4925 37.4668 12.5879C37.4494 12.6226 37.4321 12.6487 37.4147 12.6834C37.406 12.6921 37.406 12.7008 37.3974 12.7181C37.3279 12.857 37.2672 12.9871 37.2151 13.126C37.1023 13.4124 36.9895 13.6987 36.9201 13.9938V14.0025V14.0112C36.9114 14.0459 36.9114 14.0806 36.9027 14.1153C36.894 14.176 36.8767 14.2455 36.868 14.3062C36.894 14.2802 36.9201 14.2455 36.9548 14.2194C37.2064 13.9765 37.5275 13.7855 37.8313 13.612C38.0656 13.4731 38.3433 13.8029 38.1784 14.0198C38.0829 14.15 37.9875 14.2802 37.9007 14.419C37.8747 14.4538 37.8573 14.4971 37.8313 14.5405C37.8226 14.5492 37.7705 14.6534 37.7966 14.61C37.8313 14.5405 37.7445 14.7141 37.7271 14.7401C37.7011 14.7835 37.6837 14.8182 37.6577 14.8616C37.6403 14.8963 37.623 14.9311 37.6056 14.9571C37.5796 15.0005 37.5622 15.0439 37.597 14.9744C37.5449 15.0786 37.4928 15.1827 37.4407 15.2782C37.4321 15.2955 37.4234 15.3129 37.4147 15.3216C37.3974 15.3476 37.3887 15.3823 37.3713 15.417C37.3366 15.4865 37.3106 15.5559 37.2845 15.6253C37.1978 15.8249 37.111 16.0158 37.0415 16.2241C37.1283 16.1287 37.2151 16.0419 37.3019 15.9638C37.5275 15.7728 37.7618 15.6166 38.0048 15.4517C38.2218 15.3042 38.4474 15.5299 38.3346 15.7468C38.2044 15.9985 38.0916 16.2501 37.9614 16.5018C37.9441 16.5365 37.9267 16.5712 37.9094 16.606C37.892 16.632 37.892 16.632 37.9094 16.6146C37.9267 16.5799 37.918 16.5973 37.892 16.658C37.8573 16.7361 37.8052 16.7969 37.7618 16.8663C37.6924 16.9791 37.623 17.0919 37.5622 17.2047C37.5449 17.2308 37.5362 17.2568 37.5188 17.2829C37.5188 17.2915 37.5102 17.2915 37.5102 17.3002C37.4841 17.3523 37.4668 17.3957 37.4407 17.4477C37.4407 17.4477 37.4234 17.4825 37.406 17.5172C37.3974 17.5345 37.3713 17.5953 37.3713 17.5953C37.3626 17.6213 37.3453 17.6473 37.3366 17.682C37.3106 17.7428 37.2845 17.8035 37.2585 17.873C37.2325 17.9337 37.2151 18.0031 37.1891 18.0726C37.3106 17.9511 37.4407 17.8296 37.597 17.7515C37.6751 17.7168 37.7532 17.6821 37.8313 17.656C37.866 17.6473 37.9007 17.63 37.9354 17.6213C37.9441 17.6213 38.0656 17.6039 38.0222 17.6213C38.1437 17.5779 38.3086 17.6821 38.2478 17.8296C38.2391 17.7862 38.2305 17.7949 38.2391 17.8556C38.2391 17.8643 38.2391 17.8816 38.2391 17.8903C38.2305 17.9337 38.2218 17.9771 38.2044 18.0205C38.1784 18.0812 38.161 18.1507 38.135 18.2114C38.0743 18.3763 37.9701 18.5325 37.866 18.68C37.6924 18.9491 37.5449 19.2268 37.3887 19.5132C37.3713 19.5479 37.3453 19.5826 37.3279 19.6173C37.3279 19.6173 37.3019 19.6607 37.2932 19.6867C37.2845 19.7128 37.2672 19.7475 37.2585 19.7561C37.2411 19.7909 37.2238 19.8343 37.2064 19.869C37.1457 20.0078 37.0849 20.1553 37.0242 20.2942C37.0068 20.3376 36.9895 20.381 36.9721 20.4244C37.0763 20.3463 37.1978 20.2855 37.3279 20.2768C37.3626 20.2595 37.406 20.2334 37.4407 20.2161C37.649 20.1033 37.892 20.381 37.7445 20.5719C37.7271 20.5979 37.7098 20.624 37.6837 20.65C37.6577 20.8322 37.5362 20.9884 37.4407 21.1533C37.3453 21.3182 37.2411 21.4918 37.1457 21.6567C37.137 21.6654 37.0936 21.7521 37.0936 21.7521C37.0763 21.7868 37.0589 21.8129 37.0502 21.8476C37.0155 21.9344 36.9808 22.0212 36.9461 22.1079C36.8767 22.3075 36.8246 22.5071 36.6944 22.6547C36.6857 22.6807 36.6684 22.6981 36.6597 22.7241C36.6423 22.8369 36.6337 22.9411 36.6163 23.0452C36.7205 23.0018 36.8246 22.9758 36.9374 22.9931C37.0589 23.0105 37.1283 23.0973 37.1283 23.2188C37.1283 23.3576 37.0589 23.4704 37.0155 23.5919C36.9808 23.6787 36.9461 23.7568 36.9027 23.8349C36.8853 23.8609 36.868 23.887 36.8593 23.9217C36.8593 23.9217 36.8593 23.9304 36.8506 23.9391C36.8072 24.0258 36.7638 24.1126 36.7205 24.1994C36.7205 24.2081 36.7118 24.2167 36.7118 24.2254C36.6944 24.2601 36.6771 24.2949 36.6684 24.3296C36.6076 24.4771 36.5295 24.6073 36.4341 24.7374C36.382 24.8155 36.2952 24.8676 36.2084 24.8937C36.1824 24.9891 36.1477 25.0932 36.113 25.1887C36.113 25.1974 36.1043 25.2061 36.1043 25.2147C36.2518 25.2581 36.356 25.4317 36.2432 25.5879C36.0175 25.9177 35.7919 26.2648 35.5229 26.5599C35.3667 26.8723 35.2018 27.176 35.0369 27.4798C34.9154 27.6967 34.6116 27.7401 34.412 27.636C34.1864 27.5232 34.1083 27.2802 34.1691 27.0458C34.2819 26.6033 34.412 26.1607 34.5249 25.7181C34.6464 25.2755 34.7852 24.8416 34.898 24.3903C34.9241 24.2775 34.9501 24.1647 34.9761 24.0519C34.9848 24.0258 34.9848 23.9998 34.9935 23.9738C35.0022 23.9217 35.0108 23.8696 35.0195 23.8262C35.0542 23.6093 35.0889 23.3923 35.1063 23.184C35.1584 22.7328 35.1844 22.2815 35.1931 21.8302C35.2452 20.2421 35.3059 18.654 35.2799 17.0659C35.2799 16.6754 35.2712 16.2849 35.2538 15.8857Z" fill="#F0EBDF"/>
<path d="M23.2263 28.8164C23.2176 28.8164 23.2089 28.8164 23.2002 28.8164C23.0787 28.8251 23.2089 28.8251 23.2263 28.8164Z" fill="white"/>
<path d="M48.8019 62.6961C48.7846 62.6787 48.7759 62.6614 48.7585 62.644C48.7759 62.6788 48.7933 62.6961 48.8019 62.6961Z" fill="white"/>
<path d="M48.6627 62.4353C48.6801 62.4961 48.6801 62.5048 48.6801 62.4874C48.6714 62.4614 48.6627 62.4353 48.6541 62.418C48.6627 62.4266 48.6627 62.4353 48.6627 62.4353Z" fill="white"/>
<path d="M48.9926 62.7914C48.9752 62.7827 48.9579 62.7827 48.9405 62.774C48.8277 62.7393 48.9145 62.7827 48.9926 62.7914Z" fill="white"/>
<path d="M28.3037 36.3921C28.3471 36.4008 28.3818 36.4008 28.3037 36.3921V36.3921Z" fill="white"/>
<path d="M47.5687 56.829C47.6468 55.6227 47.6468 54.4164 47.586 53.2015C47.5513 52.6808 47.5079 52.1601 47.4558 51.6481C47.2389 49.7562 46.8484 47.8904 46.2756 46.0853C46.1541 45.7122 46.0239 45.3303 45.8851 44.9658C45.3123 43.4298 44.592 41.9458 43.7242 40.5573C42.9171 39.3163 41.9712 38.1881 40.8777 37.1901C40.2095 36.6 39.4806 36.0793 38.6908 35.6628C38.6214 35.6281 38.5607 35.602 38.4912 35.5673C38.4999 35.5673 38.4999 35.576 38.5086 35.576C38.1528 35.4024 37.7883 35.2462 37.4151 35.1247C37.2416 35.0727 37.068 35.0206 36.8944 34.9772C36.799 34.9512 36.6949 34.9251 36.5994 34.8991C36.5734 34.8904 36.5386 34.8817 36.5126 34.8817C36.5039 34.8817 36.4952 34.8817 36.4866 34.8731C36.3564 34.847 36.2175 34.8383 36.0874 34.7949C36.0961 34.7949 36.1134 34.8036 36.1221 34.8036C36.1742 34.821 36.2349 34.8383 36.1221 34.8036C36.1047 34.795 36.0874 34.7949 36.07 34.7949C36.0179 34.7863 35.9659 34.7776 35.9225 34.7776C35.7489 34.7602 35.5754 34.7516 35.3931 34.7602C35.3497 34.7602 35.2977 34.7602 35.2543 34.7602C35.2369 34.7602 35.2196 34.7602 35.1935 34.7689C35.1241 34.7776 35.046 34.7776 34.9766 34.7863C35.4539 34.8817 35.9398 35.0466 36.3911 35.2028C36.9639 35.4024 37.5193 35.6628 38.0573 35.9405C39.0727 36.4612 40.0186 37.1207 40.8777 37.8844C42.6307 39.4552 43.9325 41.4338 44.7396 43.6381C45.5206 45.7556 45.9198 47.9772 46.1801 50.2162C46.4579 52.5853 46.6314 54.9631 46.9525 57.3236C47.048 58.0439 47.1434 58.7642 47.2823 59.4845C47.317 59.2241 47.3517 58.9725 47.3864 58.7121C47.4645 58.0873 47.534 57.4625 47.5687 56.829Z" fill="#F0EBDF"/>
<path d="M41.6763 44.7316C41.6763 44.7229 41.685 44.7229 41.685 44.7143C41.7024 44.6709 41.7284 44.6275 41.7458 44.5841C41.8326 44.3932 41.928 44.2022 41.9974 44.0026C42.0322 43.8985 42.0669 43.803 42.1016 43.6989C42.1103 43.6642 42.1189 43.6208 42.1276 43.5861C42.1276 43.5774 42.1363 43.5601 42.1363 43.5427C42.1363 43.5427 42.1537 43.4559 42.1537 43.4299C42.1623 43.3865 42.1623 43.3518 42.171 43.3084C42.1797 43.2216 42.1884 43.1348 42.197 43.048C42.2057 42.9526 42.197 42.8658 42.197 42.7703C42.197 42.727 42.197 42.6922 42.197 42.6488C42.197 42.6315 42.1884 42.5534 42.197 42.5621C42.197 42.536 42.1884 42.51 42.1884 42.5013C42.1797 42.4579 42.1797 42.4059 42.171 42.3625C42.1623 42.2844 42.145 42.2063 42.1276 42.1368C42.1189 42.0934 42.1016 42.0414 42.0929 41.998C42.0842 41.9893 42.0842 41.9719 42.0755 41.9633C42.0408 41.8591 41.9974 41.7637 41.9627 41.6595C41.9888 41.7376 41.9454 41.6248 41.9367 41.6074C41.9193 41.5727 41.9107 41.538 41.902 41.4946C41.8759 41.4165 41.8412 41.3471 41.8065 41.269C41.7978 41.2517 41.7978 41.243 41.7892 41.2256C41.7718 41.1996 41.7544 41.1649 41.7284 41.1388C41.5722 40.9045 41.3986 40.6702 41.2251 40.4533C40.8779 40.002 40.4961 39.5767 40.0969 39.1775C39.9928 39.0734 39.8973 38.978 39.7932 38.8825C39.7498 38.8391 39.6977 38.7957 39.6543 38.7523C39.5415 38.6742 39.5675 38.6829 39.6109 38.7089C39.6022 38.7003 39.6023 38.7003 39.5936 38.6916C39.3766 38.5007 39.1597 38.3184 38.934 38.1448C38.4914 37.7977 38.0228 37.4679 37.5368 37.1729C37.2852 37.0167 37.0335 36.8778 36.7818 36.739C36.7471 36.7216 36.7124 36.7043 36.6777 36.6869C36.6777 36.6869 36.6603 36.6782 36.643 36.6695C36.6256 36.6609 36.6083 36.6522 36.5996 36.6435C36.5649 36.6262 36.5302 36.6088 36.4954 36.5915C36.374 36.5307 36.2525 36.4786 36.131 36.4179C35.6189 36.1836 35.0896 35.9579 34.5515 35.793C34.5168 35.7844 34.2738 35.6889 34.378 35.7236C34.4561 35.7497 34.3085 35.7063 34.3085 35.7063C34.2478 35.6802 34.187 35.6629 34.135 35.6368C34.0048 35.5848 33.8659 35.5414 33.7358 35.498C33.6663 35.472 33.5796 35.4546 33.5101 35.4286C33.432 35.4025 33.3713 35.3505 33.3019 35.3071C33.1977 35.255 33.0849 35.2376 32.9634 35.2116C32.894 35.1942 32.8246 35.1682 32.7812 35.1162C32.1129 35.1248 31.4621 35.0207 30.8025 34.8645C30.0562 34.6909 29.3186 34.4219 28.6069 34.1529C28.5809 34.1442 28.5462 34.1268 28.5202 34.1182C27.6003 34.0227 26.6717 33.9446 25.7518 33.8838C24.4501 33.797 23.1397 33.7884 21.8379 33.8578C21.3172 33.8925 20.7879 33.9359 20.2672 33.988C18.4447 34.1876 16.6397 34.5694 14.8867 35.1248C14.4875 35.255 14.0883 35.3939 13.6978 35.5501C12.6303 35.9579 11.5889 36.4439 10.5823 36.9993C11.372 36.7303 12.1704 36.4786 12.9688 36.253C14.8606 35.7149 16.7698 35.2723 18.6964 34.8818C20.6317 34.4913 22.619 34.1876 24.5976 34.2223C25.5869 34.2397 26.611 34.3177 27.5569 34.6215C28.0515 34.7777 28.5202 34.9686 28.9801 35.2116C29.0842 35.2637 29.1884 35.3157 29.2752 35.4025C29.2925 35.4199 29.3186 35.4372 29.3359 35.4546C29.3793 35.4893 29.4227 35.5327 29.4661 35.5674C29.4574 35.5587 29.4487 35.5501 29.4401 35.5414C29.4053 35.5067 29.4053 35.5067 29.4487 35.5414C29.4574 35.5414 29.4574 35.5501 29.4661 35.5501C29.4921 35.5674 29.5095 35.5848 29.5355 35.5935C29.7264 35.7236 29.9174 35.8625 30.1083 35.9926C30.4814 36.253 30.1777 36.8778 29.7438 36.7129C29.4921 36.6175 29.2405 36.5654 28.9801 36.496C28.7545 36.496 28.5288 36.4439 28.3032 36.3919C28.2858 36.3919 28.2685 36.3832 28.2511 36.3832C28.1904 36.3745 28.121 36.3571 28.0602 36.3485C28.1383 36.3658 28.1904 36.3745 28.0255 36.3398C28.0342 36.3398 28.0429 36.3398 28.0602 36.3485C28.0515 36.3485 28.0429 36.3485 28.0342 36.3398C28.0255 36.3398 28.0168 36.3398 28.0081 36.3311C27.9821 36.3224 27.9561 36.3224 27.93 36.3137C27.904 36.3051 27.8693 36.3051 27.8433 36.2964C27.8433 36.2964 27.8433 36.2964 27.8519 36.2964C27.8346 36.2964 27.8259 36.2877 27.8085 36.2877C27.7999 36.2877 27.7912 36.2877 27.7912 36.2877C27.4701 36.227 27.1403 36.2009 26.8106 36.1575C26.8019 36.2183 26.7932 36.2704 26.7672 36.3311C26.42 37.3204 26.0642 38.3097 25.639 39.273C24.8666 41.0347 24.0248 42.7703 23.1223 44.4713C22.2718 46.0681 21.3346 47.6215 20.5102 49.2356C20.2672 49.7216 20.0415 50.2076 19.8246 50.7109C19.6423 51.1535 19.4688 51.5961 19.3386 52.0647C19.3212 52.1255 19.3039 52.1862 19.2952 52.247C19.1216 53.1842 19.1216 54.1475 19.165 55.1021C19.1911 55.4839 19.2171 55.8658 19.2518 56.2476C19.3212 57.0373 19.382 57.8184 19.408 58.6081C19.4167 58.9639 19.4254 59.311 19.3907 59.6581C19.382 59.7796 19.356 59.9098 19.3299 60.0313C19.3299 60.1702 19.3212 60.3003 19.3126 60.4218C19.2952 60.6822 19.2692 60.9599 19.1737 61.2116C19.0088 61.6281 18.7658 62.036 18.5142 62.4092C18.4014 62.574 18.2885 62.7303 18.167 62.8865C18.4014 62.9299 18.6357 62.9906 18.8613 63.0687C19.7552 63.3638 20.6317 63.8411 21.2738 64.5353C21.2825 64.544 21.2912 64.5527 21.2912 64.5613C21.5949 64.2229 21.9247 63.9018 22.2371 63.572C22.3586 63.4419 22.4888 63.3117 22.6103 63.1902C22.4888 63.1728 22.3586 63.1468 22.2371 63.1294C21.9594 63.0774 21.7598 62.9212 21.6904 62.6435C21.6297 62.3744 21.8032 62.1228 22.0202 61.9926C22.2371 61.8624 22.4541 61.7323 22.671 61.6021C22.914 61.4632 23.2004 61.4025 23.4694 61.3157C23.7298 61.2289 23.9815 61.1335 24.2418 61.0554C24.1637 61.0814 24.0856 61.1074 24.0075 61.1334C25.5001 60.6475 26.906 59.9445 28.2251 59.1114C29.1016 58.5387 29.9347 57.9138 30.7418 57.2543C30.7678 57.2283 30.8025 57.2109 30.8286 57.1849C30.898 57.1328 30.9674 57.072 31.0282 57.0113C32.2952 55.9352 33.4494 54.7202 34.5689 53.4966C35.1937 52.8024 35.8012 52.0994 36.4087 51.3878C37.5455 50.0514 38.6563 48.6889 39.7411 47.3091C40.3225 46.5714 40.904 45.8338 41.4681 45.0874C41.4767 45.0701 41.4854 45.0527 41.4941 45.044C41.5635 44.9312 41.6156 44.8357 41.6763 44.7316ZM23.7819 55.1889C23.669 55.0674 23.5562 54.9546 23.4347 54.8417C23.3219 54.7202 23.2178 54.5641 23.131 54.4252C22.9748 54.1562 22.8533 53.8437 22.7491 53.5487C22.7058 53.4359 22.671 53.3144 22.6363 53.2016C22.6016 53.245 22.5582 53.2797 22.5235 53.323C22.3933 53.4619 22.2371 53.6789 22.107 53.8611C22.0896 53.8785 22.0809 53.9045 22.0636 53.9219C22.0028 54.3905 21.9768 54.8678 21.9855 55.3451C21.9855 55.3885 21.9855 55.4319 21.9855 55.4753C21.9855 55.4839 21.9855 55.4926 21.9855 55.5013C21.9941 55.5794 21.9941 55.6575 22.0028 55.7443C22.0202 55.9265 22.0462 56.1088 22.0809 56.2823C22.1503 56.6555 22.2024 57.0286 22.2458 57.4018C22.2805 57.6882 22.159 57.9486 21.8987 58.0874C21.673 58.2089 21.2999 58.1395 21.1524 57.9225C20.9961 57.6969 20.8573 57.4712 20.7618 57.2109C20.6664 56.9419 20.5883 56.6729 20.5362 56.3951C20.4407 55.9005 20.406 55.3972 20.3973 54.8938C20.38 54.0086 20.5188 53.1321 20.7184 52.273C20.918 51.4139 21.2131 50.5807 21.5776 49.7737C22.402 47.9165 23.4694 46.1895 24.3893 44.3845C24.5802 44.0026 24.7712 43.6121 24.9708 43.239C25.0228 43.1435 25.0662 43.0567 25.1096 42.9613C25.1096 42.9526 25.127 42.9266 25.1357 42.9005C25.1443 42.8745 25.179 42.8051 25.1877 42.7964C25.2832 42.6055 25.37 42.4232 25.4654 42.2323C25.6563 41.8157 25.8212 41.3818 26.0295 40.9826C26.0382 40.9653 26.0816 40.8872 26.0729 40.8958C26.0903 40.8611 26.1076 40.8177 26.1336 40.783C26.1944 40.6702 26.2378 40.5487 26.3159 40.4446C26.3593 40.3838 26.394 40.3231 26.4287 40.2623C26.5242 39.8805 26.6891 39.5247 26.8713 39.1775C26.932 39.0561 27.0015 38.9346 27.0709 38.8131C27.0969 38.6916 27.1316 38.5701 27.175 38.4573C27.2618 38.2143 27.392 37.9713 27.5222 37.7543C27.6697 37.5113 27.8433 37.3551 28.0863 37.2249C28.2164 37.1555 28.3726 37.251 28.3987 37.3898C28.4507 37.6415 28.4334 37.8932 28.3813 38.1362C28.3553 38.2403 28.3292 38.3531 28.3032 38.4573C28.2858 38.518 28.2772 38.5788 28.2598 38.6395C28.2511 38.6829 28.2511 38.6916 28.2511 38.6742C28.2425 38.7003 28.2425 38.7263 28.2338 38.7523C28.2077 38.8651 28.1817 38.9779 28.1557 39.0908C28.1557 39.1081 28.1383 39.1602 28.1383 39.1775C28.1296 39.2383 28.121 39.2991 28.1123 39.3598C28.1036 39.4639 28.0949 39.5767 28.0949 39.6809C28.0949 39.7416 28.0949 39.7937 28.0949 39.8545C28.0949 39.8718 28.0949 39.8892 28.0949 39.9065C28.121 40.1148 28.147 40.3144 28.1991 40.514C28.2164 40.6008 28.2425 40.6876 28.2685 40.7744C28.2772 40.7917 28.3119 40.9045 28.3292 40.9479C28.3119 40.8785 28.3553 41.0347 28.364 41.0521C28.5115 41.4773 28.7111 41.8678 28.685 42.3277C28.6764 42.5187 28.4681 42.5881 28.3206 42.5013C27.8953 42.2583 27.661 41.8157 27.4527 41.3905C27.4267 41.3384 27.4007 41.295 27.3833 41.243C27.3833 41.2603 27.3833 41.2777 27.3833 41.2864V41.295C27.4094 41.486 27.4267 41.6769 27.4614 41.8678C27.5395 42.2583 27.6263 42.6488 27.7131 43.0394C27.8085 43.4819 27.93 43.9332 27.7912 44.3758C27.7565 44.4973 27.5742 44.5667 27.4788 44.4799C27.2792 44.2977 27.1056 44.0547 27.0102 43.7944C26.9234 43.5514 26.8453 43.3084 26.7585 43.0654C26.7324 42.996 26.7064 42.9179 26.6804 42.8484C26.6717 42.9179 26.663 42.9873 26.6457 43.0567C26.6196 43.1695 26.5762 43.291 26.5329 43.4039V43.4125C26.5242 43.5253 26.5242 43.6382 26.5329 43.751C26.5329 43.8031 26.5328 43.8551 26.5415 43.9072C26.5415 43.9245 26.5415 43.9419 26.5415 43.9593C26.5415 43.9679 26.5415 43.9679 26.5415 43.9766C26.5762 44.4105 26.6457 44.8444 26.7324 45.2697C26.8279 45.7209 26.9234 46.1722 27.0102 46.6322C27.0622 46.8838 27.1056 47.1268 27.0883 47.3958C27.0796 47.5173 27.0622 47.6388 27.0188 47.7516C27.0102 47.7777 26.9754 47.8471 26.9668 47.8645C26.9668 47.8558 26.9841 47.8731 26.9841 47.8905C26.9841 47.9426 26.9754 48.0033 26.9754 48.0554C26.9668 48.2984 26.6457 48.2723 26.5936 48.0727C26.5762 48.012 26.5589 47.9426 26.5242 47.8905C26.4981 47.8471 26.4547 47.8124 26.42 47.769C26.3332 47.6562 26.2725 47.5 26.2204 47.3698C26.125 47.1095 26.0729 46.8231 26.0035 46.554C25.9948 46.5367 25.9948 46.5193 25.9861 46.502C25.9688 46.5193 25.9514 46.528 25.9341 46.5454C25.8299 46.6322 25.7518 46.7363 25.665 46.8665C25.6477 46.8925 25.6303 46.9185 25.613 46.9446C25.613 46.9619 25.6043 46.9793 25.6043 47.0053C25.5956 47.0747 25.5782 47.1442 25.5609 47.2136C25.5435 47.3004 25.5088 47.3785 25.4741 47.4652C25.4741 47.552 25.4654 47.6475 25.4654 47.7343C25.4654 47.8731 25.4654 48.0033 25.4741 48.1422C25.4741 48.1508 25.4741 48.1595 25.4741 48.1682C25.4741 48.1855 25.4741 48.2029 25.4741 48.2203C25.4828 48.3157 25.4828 48.4112 25.4828 48.5066C25.4828 48.5761 25.4828 48.6455 25.4915 48.7149C25.4915 48.7496 25.5001 48.793 25.5001 48.8104C25.5088 48.9319 25.5262 49.0534 25.5349 49.1749C25.5696 49.4352 25.5956 49.6869 25.6216 49.9472C25.6477 50.2249 25.665 50.4506 25.7258 50.7109C25.7605 50.8584 25.6563 51.006 25.5262 51.0494C25.3786 51.1014 25.2398 51.0233 25.1617 50.8931C25.0055 50.6328 24.858 50.3985 24.7191 50.1121C24.5802 49.8084 24.4848 49.496 24.4067 49.1749C24.3893 49.0968 24.372 49.0273 24.3546 48.9492C24.3459 48.9753 24.3286 49.0013 24.3199 49.0273C24.3199 49.0273 24.2505 49.1836 24.2244 49.2183C24.2244 49.2269 24.2158 49.2356 24.2158 49.2356C24.1811 49.305 24.155 49.3831 24.1203 49.4612C24.0596 49.6088 23.9901 49.7476 23.9381 49.8951C23.8339 50.1989 23.7819 50.5113 23.6864 50.8151C23.6777 50.8498 23.6604 50.8932 23.6517 50.9279C23.643 50.9452 23.6343 51.0667 23.643 50.9626C23.6343 51.0407 23.6256 51.1275 23.6083 51.2056C23.5996 51.2576 23.5909 51.3097 23.5909 51.3618C23.5909 51.5614 23.5909 51.761 23.5996 51.9519C23.5996 51.9606 23.5996 51.9693 23.5996 51.9866C23.5996 52.056 23.6083 52.1168 23.6083 52.1862C23.6083 52.2556 23.6083 52.3164 23.617 52.3858C23.5909 52.2123 23.6256 52.4292 23.6256 52.4726C23.6343 52.542 23.6343 52.6028 23.643 52.6722C23.669 52.9499 23.7211 53.2276 23.7732 53.5053C23.8252 53.7656 23.9033 54.0173 23.9554 54.2777C24.0075 54.5467 24.0248 54.8157 24.0856 55.0847C24.1377 55.2236 23.8947 55.3104 23.7819 55.1889Z" fill="#F0EBDF"/>
<path d="M49.0274 62.8085C49.0187 62.8085 49.0014 62.7998 48.9927 62.7998C49.0014 62.7998 49.01 62.7998 49.0274 62.8085Z" fill="white"/>
<path d="M49.1378 25.2146C49.1378 25.2233 49.1378 25.2233 49.1378 25.232C49.1465 25.2754 49.1464 25.3187 49.1551 25.3535C49.1638 25.4229 49.1812 25.4923 49.1985 25.5531C49.2072 25.5965 49.2246 25.6312 49.2332 25.6746C49.2072 25.5617 49.2419 25.6919 49.2506 25.7093C49.2766 25.7787 49.3113 25.8481 49.3374 25.9175C49.4502 25.9262 49.5717 25.9349 49.6845 25.9436C51.1945 26.0824 52.7045 26.5858 53.9108 27.5143C54.5877 28.035 55.1952 28.6685 55.6812 29.3715C55.9328 29.7273 56.1064 30.1352 56.3147 30.5083C56.4188 30.6992 56.5316 30.8815 56.6184 31.0811C56.6705 31.1939 56.7139 31.2894 56.7225 31.4109C56.7312 31.5063 56.7659 31.5671 56.8006 31.6538C56.9308 31.9402 56.549 32.1832 56.3407 31.9489C56.306 31.9142 56.2713 31.8534 56.2366 31.8274C56.2018 31.8014 56.1498 31.784 56.1151 31.758C56.0022 31.6886 55.9155 31.5758 55.8287 31.4716C55.6898 31.3067 55.5597 31.1332 55.4208 30.9596C55.1431 30.6211 54.822 30.3261 54.5356 29.9963C54.284 29.7013 54.0236 29.4236 53.7459 29.1632C53.6938 29.1198 53.6505 29.0764 53.5984 29.0244L53.5897 29.0157C53.5116 28.9549 53.4422 28.8855 53.3641 28.8248C53.2252 28.7119 53.0864 28.6078 52.9388 28.5037C52.7913 28.4082 52.6438 28.3127 52.4876 28.226C52.4095 28.1826 52.3314 28.1392 52.2533 28.0958C52.2272 28.0871 52.2099 28.0698 52.1838 28.0611C51.8627 27.9135 51.5416 27.7834 51.2032 27.6792C51.0383 27.6272 50.8647 27.5838 50.6912 27.5404C50.6478 27.5317 50.6044 27.523 50.561 27.5143C50.561 27.5143 50.561 27.5143 50.5523 27.5143C50.4829 27.5057 50.4135 27.4883 50.3527 27.4796C50.0056 27.4189 49.6498 27.3842 49.294 27.3668C49.2246 27.3668 49.1551 27.3581 49.0857 27.3581C49.0336 27.3928 48.9816 27.4189 48.9295 27.4536C48.9208 27.4536 48.9208 27.4623 48.9121 27.4623L48.9035 27.471C48.8774 27.4883 48.8514 27.5143 48.8254 27.5317C48.7733 27.5751 48.7212 27.6185 48.6691 27.6619C48.6171 27.7053 48.5737 27.7487 48.5216 27.8007C48.5043 27.8268 48.4782 27.8528 48.4609 27.8788C48.4175 27.9396 48.3828 28.0003 48.3394 28.0611L48.3307 28.0698C48.3133 28.1045 48.3047 28.1305 48.2873 28.1652C48.2352 28.2954 48.2005 28.4256 48.1658 28.5557C48.1571 28.5731 48.1571 28.5991 48.1485 28.6165C48.1485 28.6252 48.1485 28.6252 48.1485 28.6338C48.1485 28.6512 48.1485 28.6599 48.1485 28.6685C48.1398 28.7293 48.1398 28.79 48.1311 28.8595C49.4762 28.8595 50.83 29.1458 51.9322 29.9442C52.1838 30.1265 52.4181 30.3261 52.6351 30.543C52.8607 30.6385 53.0864 30.7687 53.286 30.8988C53.8587 31.272 54.3534 31.7667 54.8133 32.2613C55.5944 33.1205 56.2626 34.0664 56.8874 35.047C57.4862 35.9843 58.0243 36.9649 58.5276 37.9542C59.0309 38.9522 59.5169 39.9589 60.0029 40.9656C60.2459 41.4689 60.4889 41.9722 60.7319 42.4756C60.9662 42.9442 61.2005 43.4215 61.4782 43.8728C61.6171 44.0811 61.7733 44.2807 61.9468 44.4716C61.8861 44.2199 61.808 43.9683 61.7472 43.7253C61.6431 43.3608 61.5476 43.005 61.4435 42.6405C61.4088 42.6145 61.3827 42.5884 61.3567 42.5537C61.2699 42.4496 61.2092 42.3107 61.1484 42.1805C61.0703 41.9983 61.0009 41.816 60.9315 41.6338C60.7753 41.2259 60.6364 40.7833 60.5496 40.3581C59.9769 37.6592 59.8988 34.8648 59.0657 32.2179C58.6925 31.0898 58.1892 30.005 57.5556 28.9983C57.0002 28.1565 56.3581 27.3842 55.6204 26.6986C54.9609 26.1171 54.2492 25.6225 53.4682 25.2146C52.6525 24.8154 51.7673 24.5117 50.8821 24.3208C50.535 24.2513 50.1705 24.1993 49.8147 24.1646C49.7366 24.2079 49.6758 24.2513 49.5717 24.3468C49.5023 24.4075 49.4415 24.4683 49.3808 24.5377C49.4068 24.5117 49.346 24.5724 49.3374 24.5811C49.3027 24.6158 49.2766 24.6592 49.2506 24.6939C49.2159 24.7373 49.1812 24.7807 49.1465 24.8241C49.1291 24.9543 49.1204 25.0758 49.1204 25.2059C49.1378 25.2059 49.1378 25.2059 49.1378 25.2146Z" fill="#F0EBDF"/>
<path d="M23.3473 31.8706C24.2846 31.8706 25.2218 31.9053 26.1591 31.9747C26.8013 32.0268 27.4435 32.0875 28.077 32.1917C28.1464 32.157 28.2245 32.1222 28.2939 32.0875C28.5022 31.9921 28.7105 31.8793 28.9101 31.7664C28.9621 31.7404 29.0055 31.7057 29.0576 31.6797C29.0576 31.6797 29.1357 31.6276 29.1531 31.6189C29.1704 31.6016 29.1878 31.5929 29.2138 31.5755C29.4481 31.0809 29.6217 30.5602 29.7605 30.0308C29.7345 30.0134 29.7085 30.0048 29.6824 29.9874C29.1791 29.7357 28.6584 29.5275 28.129 29.3626C27.8513 29.2758 27.565 29.1977 27.2786 29.1369C27.1397 29.1022 27.0009 29.0762 26.8707 29.0415C26.8447 29.0328 26.8186 29.0328 26.7926 29.0241C26.7145 29.0068 26.6364 28.9981 26.567 28.9807C25.5343 28.8072 24.4842 28.7551 23.4341 28.7985C23.3734 28.7985 23.3039 28.8072 23.2432 28.8072C23.2345 28.8158 23.1651 28.8072 23.1477 28.8158C23.0089 28.8245 22.8787 28.8332 22.7399 28.8506C22.4795 28.8766 22.2192 28.9026 21.9501 28.9373C21.4121 29.0068 20.874 29.0936 20.3447 29.1977C19.2859 29.406 18.2445 29.675 17.2032 29.9614C16.9602 30.0308 16.7172 30.0916 16.4742 30.1697C16.3353 30.213 16.2572 30.2391 16.0837 30.2911C16.1357 30.2738 16.0576 30.2998 16.0576 30.2998C16.0316 30.3085 15.9969 30.3172 15.9709 30.3258C15.9101 30.3432 15.858 30.3693 15.7973 30.3866C15.563 30.4821 15.3287 30.5862 15.103 30.7077C14.9902 30.7685 14.8774 30.8379 14.7559 30.8986C14.6518 30.9507 14.5563 31.0028 14.4608 31.0548C14.3567 31.1156 14.2352 30.9941 14.2786 30.8899C14.3393 30.7424 14.4088 30.5949 14.4956 30.456C14.591 30.3172 14.7299 30.187 14.86 30.0829C15.1204 29.8572 15.4154 29.6837 15.7192 29.5188C16.3006 29.2064 16.9515 29.0068 17.585 28.7985C19.9628 28.0175 22.4274 27.3926 24.9528 27.41C26.1938 27.4187 27.4348 27.5835 28.615 27.948C29.1184 28.1042 29.613 28.2951 30.0903 28.5295C30.1511 28.2518 30.2031 27.9741 30.2726 27.705C30.2292 27.6182 30.1771 27.5315 30.125 27.4447C30.125 27.436 30.1164 27.436 30.1164 27.4273C30.1164 27.4273 30.1163 27.4187 30.1077 27.41C30.099 27.3926 30.0816 27.3753 30.073 27.3579C30.0382 27.3058 30.0035 27.2624 29.9688 27.2104C29.9081 27.1236 29.8473 27.0455 29.7779 26.9674C29.639 26.7938 29.4915 26.6376 29.3266 26.4814C29.3093 26.464 29.2919 26.4467 29.2746 26.4293C29.2572 26.4207 29.2399 26.412 29.2225 26.4033C29.1791 26.3773 29.1357 26.3599 29.0923 26.3339C29.0836 26.3339 29.075 26.3252 29.0576 26.3165C29.0316 26.3078 29.0055 26.2905 28.9795 26.2818C28.9014 26.2471 28.8233 26.2037 28.7452 26.169C28.615 26.1082 28.4848 26.0388 28.3547 25.9781C27.7732 25.6917 27.1744 25.4227 26.567 25.1883C26.5583 25.1883 26.5583 25.1797 26.5496 25.1797C25.0569 24.9367 23.5469 24.8152 22.0282 24.8846C20.7178 24.9714 19.4248 25.2144 18.1664 25.6049C16.6825 26.0996 15.2679 26.7851 13.9488 27.6269C13.541 27.8873 13.1504 28.165 12.7599 28.4514C11.2933 29.5448 9.96552 30.8032 8.73321 32.1483C8.2993 32.6256 7.88275 33.1202 7.47487 33.6236C6.71987 34.5608 5.99958 35.5241 5.314 36.5221C4.55899 37.6156 3.8387 38.7264 3.21387 39.8979C4.58503 38.7958 5.91279 37.6416 7.35338 36.6349C8.88942 35.5588 10.5383 34.6476 12.2739 33.9447C14.0009 33.2417 15.806 32.7211 17.6371 32.3826C19.5289 32.0355 21.4381 31.8793 23.3473 31.8706ZM11.7012 32.0094C11.5883 32.0441 11.5189 32.1136 11.4321 32.1917C11.3367 32.2784 11.2239 32.3566 11.1284 32.4433C10.9115 32.6516 10.6858 32.8512 10.4602 33.0508C10.2085 33.2765 9.94817 33.4847 9.67914 33.693C9.54029 33.7971 9.38408 33.9013 9.22787 33.9967C9.08902 34.0748 8.95017 34.179 8.80264 34.231C8.65511 34.2831 8.42948 34.1529 8.51626 33.9707C8.59436 33.8058 8.71586 33.667 8.82 33.5194C8.94149 33.3632 9.08034 33.2157 9.21052 33.0682C9.46218 32.8078 9.71385 32.5648 9.98288 32.3305C10.2345 32.1136 10.4775 31.8879 10.7552 31.7057C10.9028 31.6102 11.0503 31.5408 11.2239 31.5148C11.3627 31.4974 11.5189 31.4887 11.6578 31.4974C11.7879 31.5061 11.8921 31.6189 11.9008 31.7404C11.9181 31.8706 11.8227 31.9747 11.7012 32.0094Z" fill="#F0EBDF"/>
<path d="M54.3632 54.4251C54.6149 53.4358 54.8666 52.4378 55.0835 51.4398C55.1964 50.867 55.3005 50.2942 55.396 49.7128C55.7344 47.5693 55.8906 45.3997 55.7778 43.2302C55.7518 42.8483 55.7257 42.4752 55.6823 42.0933C55.6042 41.3296 55.4827 40.5746 55.3265 39.8283C55.2658 39.7415 55.2397 39.6461 55.2658 39.5419C55.1443 38.9865 54.9968 38.4311 54.8232 37.8931C54.6496 37.3811 54.4587 36.869 54.2504 36.3744C53.8339 35.4111 53.3566 34.4652 52.8098 33.5713C52.7664 33.5106 52.7317 33.4411 52.6884 33.3804C52.6884 33.3804 52.6884 33.3804 52.6884 33.3717C52.6884 33.363 52.6797 33.3543 52.671 33.3457C52.6016 33.2415 52.5321 33.1374 52.454 33.0419C52.2891 32.8163 52.1243 32.5907 51.9507 32.3737C51.8119 32.2002 51.673 32.0266 51.5341 31.8617C51.4647 31.7836 51.3866 31.7055 51.3085 31.6361C51.0482 31.4104 50.7705 31.2195 50.4667 31.0546C50.1369 30.8984 49.7898 30.7856 49.4427 30.7075C48.8179 30.5947 48.1843 30.5773 47.5508 30.6034C47.2558 30.6207 46.952 30.6467 46.657 30.6728C46.6396 30.6901 46.631 30.7162 46.6136 30.7335C46.5876 30.7683 46.5702 30.8116 46.5442 30.8463C46.5442 30.855 46.5355 30.855 46.5355 30.8637C46.5355 30.8637 46.5355 30.8637 46.5355 30.8724C46.5095 30.9418 46.4747 31.0112 46.4574 31.0807C46.4574 31.0893 46.4487 31.1067 46.44 31.1241C46.4314 31.1588 46.4313 31.2021 46.4313 31.2369C46.4313 31.2716 46.4313 31.3063 46.4313 31.341C46.44 31.4278 46.4574 31.5146 46.4747 31.61C46.4834 31.6447 46.4921 31.6794 46.5008 31.7142V31.7228C46.5008 31.7315 46.5008 31.7315 46.5095 31.7402C46.5702 31.8877 46.6223 32.0266 46.6917 32.1654C46.7958 32.3824 46.9087 32.5993 47.0128 32.8076C47.9587 33.7622 48.7831 34.8036 49.5121 35.9405C50.406 37.329 51.187 38.7956 51.699 40.3664C51.9333 41.0867 52.1416 41.8069 52.2544 42.5619C52.3673 43.2996 52.4367 44.0459 52.4454 44.7923C52.4627 45.4952 52.428 46.1981 52.3499 46.901C52.3065 47.2829 52.2458 47.6647 52.1156 48.0292C52.0548 48.2115 51.942 48.359 51.8899 48.5326C51.8639 48.628 51.8118 48.6801 51.7685 48.7669C51.7251 48.8363 51.699 48.9231 51.6643 49.0012C51.6209 49.114 51.456 49.0793 51.4647 48.9578C51.4647 48.871 51.4734 48.7842 51.4474 48.6975C51.43 48.6194 51.4126 48.5586 51.4126 48.4805C51.4126 48.4198 51.4127 48.359 51.404 48.2983C51.3866 48.2201 51.3606 48.1594 51.3519 48.0813C51.3432 47.9077 51.3172 47.7429 51.3172 47.5693C51.3172 47.4218 51.3172 47.2655 51.3259 47.118C51.3345 46.8143 51.3345 46.5105 51.3259 46.2068C51.3172 46.0593 51.3172 45.9031 51.3085 45.7555C51.3085 45.7469 51.3085 45.7469 51.3085 45.7382V45.7295C51.3085 45.7035 51.3085 45.6687 51.2998 45.6427C51.2912 45.5733 51.2912 45.5039 51.2825 45.4258C51.1957 44.341 50.9787 43.2996 50.7184 42.2408C50.649 41.9718 50.5795 41.7115 50.5014 41.4511C50.4841 41.3817 50.458 41.3123 50.4407 41.2429C50.5101 41.4772 50.432 41.2255 50.4147 41.1821C50.3713 41.0693 50.3365 40.9478 50.2932 40.835C50.0936 40.2969 49.8679 39.7676 49.6163 39.2555C49.3386 38.6828 49.0261 38.136 48.6964 37.598C48.653 37.5286 48.6096 37.4592 48.5662 37.3897C48.4881 37.2769 48.5055 37.2943 48.5228 37.329V37.3203C48.436 37.1901 48.3579 37.0686 48.2711 36.9385C48.0889 36.6781 47.9066 36.4178 47.7157 36.1574C46.9868 35.1681 46.171 34.2309 45.2685 33.3977C44.7738 32.9552 44.2444 32.5299 43.6717 32.1828C43.6196 32.1654 43.5675 32.1481 43.5155 32.1307C43.1683 32.0266 43.0121 31.9919 42.665 31.9398C42.4133 31.9051 42.1703 31.8877 41.9187 31.8964C41.8753 31.8964 41.8406 31.8964 41.7972 31.8964C41.7885 31.8964 41.7885 31.8964 41.7798 31.8964C41.7191 31.9051 41.6583 31.9051 41.5976 31.9138C41.4761 31.9224 41.3546 31.9398 41.2331 31.9658C41.1029 31.9919 40.9641 32.0179 40.8339 32.0526C40.7818 32.07 40.7298 32.0787 40.6777 32.096C40.6777 32.096 40.6517 32.1047 40.6256 32.1134C40.5996 32.122 40.5649 32.1307 40.5649 32.1307C40.3219 32.2175 40.0876 32.3216 39.8619 32.4431C39.8012 32.4779 39.7404 32.5126 39.6884 32.5473C39.6623 32.5646 39.645 32.5733 39.6189 32.5907C39.6189 32.5907 39.6189 32.5907 39.6103 32.5907C39.4975 32.6688 39.3846 32.7469 39.2805 32.8423C39.2458 32.877 39.2111 32.9118 39.1764 32.9378C39.1764 32.9378 39.1764 32.9378 39.1677 32.9465C39.1677 32.9552 39.159 32.9552 39.159 32.9638C39.133 33.0072 39.0983 33.0419 39.0722 33.0853C39.0635 33.094 39.0549 33.12 39.0462 33.1374C39.0375 33.1634 39.0288 33.1808 39.0201 33.2068C39.0288 33.2415 39.0115 33.2589 39.0115 33.2589C39.0115 33.2676 39.0115 33.2676 39.0115 33.2676C39.0115 33.3023 39.0028 33.337 39.0028 33.3804C39.0028 33.3978 39.0201 33.5019 39.0028 33.4238C38.9854 33.337 39.0115 33.4585 39.0115 33.4672C39.0115 33.4932 39.0201 33.5192 39.0201 33.5453C39.0288 33.5973 39.0462 33.6581 39.0635 33.7102C39.0635 33.7188 39.0635 33.7275 39.0722 33.7362C39.0809 33.7535 39.0896 33.7709 39.0896 33.7796C39.1156 33.8664 39.1416 33.9445 39.1677 34.0313C39.9748 34.3524 40.7298 34.7949 41.424 35.307C43.6023 36.9038 45.2598 39.1427 46.4921 41.5292C47.6463 43.7509 48.4621 46.1634 48.9914 48.6107C49.5034 50.9885 49.7204 53.4358 49.6423 55.8743C49.6076 57.0633 49.4948 58.2522 49.3125 59.4237C49.2084 60.0746 49.0435 60.6994 48.8439 61.3329C48.7745 61.5672 48.6964 61.7929 48.6183 62.0272C48.6269 62.0879 48.6356 62.14 48.6443 62.2008C48.6616 62.2789 48.679 62.357 48.6964 62.4438C48.7137 62.4611 48.7224 62.5045 48.7224 62.5132C48.7224 62.5219 48.7311 62.5392 48.7311 62.5392C48.7484 62.5739 48.7658 62.6086 48.7832 62.6434C48.7832 62.652 48.7918 62.652 48.7918 62.6607C48.8352 62.7041 48.8439 62.7215 48.8352 62.7215C48.8439 62.7301 48.8439 62.7388 48.8526 62.7475C48.8613 62.7562 48.8786 62.7649 48.8873 62.7735C48.9133 62.7822 48.948 62.7909 48.9741 62.7996C48.9914 62.7996 49.0001 62.8082 49.0261 62.8169C49.0782 62.8256 49.1216 62.8256 49.1737 62.8256C49.2171 62.8256 49.2605 62.8256 49.3038 62.8256C49.2865 62.8256 49.2691 62.8256 49.2518 62.8256C49.1823 62.8343 49.0782 62.8256 49.2518 62.8256C49.2604 62.8256 49.2691 62.8256 49.2778 62.8256C49.3733 62.8169 49.4687 62.7995 49.5642 62.7822C49.6076 62.7735 49.651 62.7648 49.6944 62.7475C49.703 62.7475 49.7117 62.7388 49.7291 62.7388C49.7985 62.7041 49.8766 62.6867 49.946 62.652C50.1022 62.5826 50.2584 62.4958 50.3973 62.409C50.7878 62.1487 51.1349 61.845 51.456 61.4978C51.9333 60.9511 52.3325 60.3436 52.671 59.7014C52.9574 59.1113 53.209 58.5038 53.426 57.879C53.7731 56.7335 54.0682 55.5793 54.3632 54.4251Z" fill="#F0EBDF"/>
<path d="M38.9867 33.2157C38.9781 33.2331 38.9781 33.2417 38.9867 33.2504C38.9867 33.2331 38.9954 33.2244 38.9954 33.207C38.9954 33.207 38.9954 33.2157 38.9867 33.2157Z" fill="white"/>
<path d="M48.5505 37.3992C48.5416 37.3903 48.5416 37.3815 48.5327 37.3726L48.5416 37.3814C48.5416 37.3903 48.5416 37.3992 48.5505 37.3992Z" fill="white"/>
<path d="M48.5154 37.3555C48.5067 37.3468 48.498 37.3382 48.498 37.3208C48.5067 37.3382 48.5241 37.3555 48.5328 37.3729C48.5241 37.3729 48.5241 37.3642 48.5154 37.3555Z" fill="white"/>
<path d="M48.7222 62.6089C48.7308 62.6176 48.7395 62.6349 48.7482 62.6436C48.7482 62.6436 48.7482 62.6436 48.7482 62.6349C48.7395 62.6349 48.7308 62.6262 48.7222 62.6089Z" fill="white"/>
<path d="M20.3195 65.9241C20.3108 65.8981 20.3021 65.8807 20.2935 65.8721C20.3021 65.8807 20.3021 65.8894 20.3108 65.9068C20.3195 65.9155 20.3195 65.9241 20.3195 65.9241Z" fill="white"/>
<path d="M39.6636 38.7446L39.6543 38.7354C39.6543 38.7446 39.6543 38.7446 39.6636 38.7446C39.6543 38.7446 39.6543 38.7446 39.6636 38.7446Z" fill="white"/>
<path d="M18.3141 65.0821C18.3402 65.0735 18.3575 65.0561 18.3836 65.0474C18.3922 65.0474 18.427 65.0301 18.4617 65.0214C18.4617 65.0214 18.4617 65.0214 18.4704 65.0127L18.479 65.0041C18.479 64.9954 18.4877 64.978 18.5051 64.9607V64.952C18.4964 64.9433 18.4964 64.9346 18.4964 64.926C18.4877 64.9086 18.479 64.8825 18.4704 64.8652V64.8565C18.4617 64.8478 18.453 64.8305 18.4443 64.8218C18.4096 64.7697 18.3662 64.7264 18.3228 64.683L18.3141 64.6743C18.2968 64.6569 18.2708 64.6396 18.2534 64.6222C18.21 64.5875 18.1579 64.5528 18.1145 64.5181C18.0104 64.4486 17.8976 64.3792 17.7848 64.3271C17.7761 64.3185 17.7674 64.3185 17.7501 64.3098C17.7327 64.3011 17.7067 64.2924 17.6893 64.2838C17.6286 64.2577 17.5678 64.2317 17.5071 64.2143C17.455 64.197 17.4116 64.1796 17.3595 64.1709C17.3422 64.1709 17.3075 64.1623 17.2901 64.1536C17.2207 64.1449 17.1513 64.1449 17.0818 64.1362C17.0732 64.1362 17.0732 64.1362 17.0645 64.1362C17.0558 64.1362 17.0558 64.1362 17.0471 64.1362C16.943 64.223 16.8128 64.3098 16.6826 64.3532C16.674 64.3705 16.674 64.3879 16.6653 64.4053C16.6653 64.4139 16.6653 64.4226 16.6653 64.4313C16.6653 64.4486 16.6653 64.4747 16.6653 64.5007C16.674 64.5354 16.6826 64.5701 16.6826 64.6048C16.6913 64.6309 16.7 64.6743 16.7087 64.6916C16.7607 64.8131 16.8128 64.9259 16.8736 65.0474C16.8996 65.0908 16.9256 65.1342 16.9517 65.1776C17.0124 65.2557 17.0124 65.2644 17.0037 65.2557C17.0645 65.3338 17.1252 65.4119 17.186 65.49C17.1079 65.2557 17.2728 64.952 17.5591 64.9954C17.7327 65.0214 17.8976 65.0301 18.0712 65.0735C18.0972 65.0822 18.1232 65.0821 18.1232 65.0821C18.1493 65.0821 18.1666 65.0908 18.1926 65.0908C18.21 65.0908 18.236 65.0908 18.2447 65.0908C18.2621 65.0908 18.2794 65.0821 18.2968 65.0821C18.2968 65.0908 18.3055 65.0908 18.3141 65.0821Z" fill="#F0EBDF"/>
<path d="M20.3007 65.872C20.2834 65.8286 20.2573 65.7766 20.2313 65.7332C20.2139 65.7071 20.1966 65.6811 20.1792 65.6638C20.1098 65.5683 20.0317 65.4902 19.9449 65.4034C19.8408 65.3166 19.7279 65.2298 19.6151 65.1431C19.5978 65.2646 19.5544 65.3947 19.485 65.5162C19.2593 65.9154 18.8081 66.1411 18.3568 66.0977C18.1225 66.0803 17.9055 66.0369 17.7146 65.9415C17.8361 66.0282 17.9576 66.0977 18.0791 66.1671C18.1745 66.2105 18.27 66.2539 18.3741 66.2886C18.4349 66.3059 18.4956 66.332 18.5564 66.3493C18.5911 66.358 18.6258 66.3667 18.6605 66.3754C18.6692 66.3754 18.6952 66.384 18.7213 66.3927C18.7473 66.4014 18.7733 66.4014 18.7994 66.4014C18.8688 66.4101 18.9382 66.4187 19.0077 66.4274C19.1205 66.4361 19.242 66.4361 19.3548 66.4361C19.3808 66.4361 19.4069 66.4361 19.4242 66.4274C19.485 66.4187 19.5457 66.4101 19.6065 66.4014C19.7106 66.3841 19.8581 66.3667 19.9623 66.3233C19.9102 66.3406 19.8061 66.3754 19.9189 66.332C19.9536 66.3233 19.9796 66.3059 20.0143 66.2973C20.0751 66.2712 20.1358 66.2452 20.1966 66.2105C20.2139 66.2018 20.2226 66.1931 20.24 66.1845C20.266 66.0977 20.3007 66.0109 20.3441 65.9241C20.292 65.8807 20.292 65.8634 20.3007 65.872Z" fill="#F0EBDF"/>
<path d="M20.3288 65.9502C20.3288 65.9414 20.3201 65.9414 20.3201 65.9326C20.3288 65.9326 20.3288 65.9414 20.3288 65.9502Z" fill="white"/>
<path d="M18.489 65.0215C18.4977 65.0302 18.515 65.0215 18.5064 64.9868C18.4977 65.0042 18.4977 65.0128 18.489 65.0215Z" fill="white"/>
<path d="M27.7212 36.2705C27.7472 36.2792 27.7646 36.2792 27.7906 36.2879H27.7993C27.7733 36.2879 27.7472 36.2792 27.7212 36.2705Z" fill="white"/>
<path d="M39.6201 38.7089C39.6115 38.7089 39.6115 38.7002 39.6028 38.7002C39.6201 38.7176 39.6288 38.7262 39.6462 38.7436C39.6375 38.7262 39.6288 38.7176 39.6201 38.7089Z" fill="white"/>
<path d="M27.8008 36.2881C27.8097 36.2881 27.8186 36.2881 27.8275 36.297C27.8186 36.297 27.8097 36.2881 27.8008 36.2881Z" fill="white"/>
<path d="M28.043 36.3397C28.0343 36.3397 28.0257 36.3397 28.0083 36.3311C28.1819 36.3658 28.1211 36.3571 28.043 36.3397Z" fill="#636363"/>
<path d="M27.8255 36.2968C27.8168 36.2968 27.8081 36.2968 27.7994 36.2881H27.7908C27.7994 36.2881 27.8168 36.2968 27.8255 36.2968Z" fill="#636363"/>
<path d="M18.479 65.0038C18.4877 64.9952 18.4964 64.9952 18.4964 64.9865C18.4964 64.9865 18.4964 64.9778 18.505 64.9778C18.505 64.9778 18.505 64.9778 18.505 64.9691V64.9604C18.4877 64.9778 18.479 64.9952 18.479 65.0038Z" fill="#636363"/>
<path d="M18.4979 64.9441C18.4979 64.9352 18.489 64.9352 18.489 64.9263C18.489 64.9352 18.4979 64.944 18.4979 64.9529C18.5068 64.9529 18.5068 64.9441 18.4979 64.9441Z" fill="#636363"/>
<path d="M16.9517 65.1777C16.969 65.2038 16.9777 65.2211 16.9864 65.2385C16.9951 65.2472 16.995 65.2558 17.0037 65.2645C17.0211 65.2645 17.0124 65.2472 16.9517 65.1777Z" fill="#636363"/>
<path d="M18.479 65.0137C18.4883 65.0137 18.4883 65.0044 18.479 65.0137C18.4883 65.0044 18.4883 65.0044 18.4883 65.0044C18.4883 65.0044 18.4883 65.0044 18.479 65.0137Z" fill="#636363"/>
<path d="M18.5166 64.9707C18.5166 64.9707 18.5166 64.9603 18.5166 64.9707C18.5062 64.9603 18.5062 64.9603 18.5166 64.9707C18.5062 64.9603 18.5166 64.9707 18.5166 64.9707Z" fill="#636363"/>
<path d="M35.108 23.1927C35.0819 23.4097 35.0559 23.6266 35.0212 23.8349C35.0125 23.887 35.0038 23.939 34.9952 23.9824C34.9865 24.0085 34.9865 24.0345 34.9778 24.0605C34.9518 24.1733 34.9257 24.2862 34.8997 24.399C34.7869 24.8416 34.648 25.2842 34.5265 25.7268C34.405 26.1693 34.2835 26.6119 34.1707 27.0545C34.11 27.2888 34.1881 27.5318 34.4137 27.6446C34.6133 27.7488 34.917 27.7054 35.0385 27.4884C35.2121 27.1847 35.3683 26.881 35.5245 26.5685C35.7935 26.2735 36.0192 25.9177 36.2448 25.5966C36.3576 25.4317 36.2535 25.2668 36.106 25.2234C36.106 25.2147 36.1146 25.2061 36.1146 25.1974C36.1494 25.1019 36.1754 24.9978 36.2101 24.9023C36.3056 24.8763 36.3837 24.8242 36.4357 24.7461C36.5225 24.6073 36.6006 24.4858 36.67 24.3382C36.6874 24.3035 36.6961 24.2688 36.7134 24.2341C36.7134 24.2254 36.7221 24.2167 36.7221 24.2081C36.7655 24.1213 36.8089 24.0345 36.8523 23.9477C36.8523 23.939 36.861 23.939 36.861 23.9304C36.8783 23.9043 36.8957 23.8783 36.9044 23.8436C36.9478 23.7655 36.9825 23.6787 37.0172 23.6006C37.0692 23.4704 37.13 23.3663 37.13 23.2274C37.13 23.1059 37.0519 23.0191 36.9391 23.0018C36.8263 22.9844 36.7221 23.0105 36.618 23.0539C36.6353 22.9497 36.6527 22.8369 36.6614 22.7328C36.67 22.7067 36.6874 22.6894 36.6961 22.6633C36.8263 22.5158 36.8783 22.3162 36.9478 22.1166C36.9825 22.0298 37.0172 21.9431 37.0519 21.8563C37.0692 21.8216 37.0779 21.7868 37.0953 21.7608C37.0953 21.7521 37.1387 21.674 37.1474 21.6653C37.2428 21.4918 37.3469 21.3269 37.4424 21.162C37.5379 21.0058 37.6594 20.8409 37.6854 20.6587C37.7028 20.6326 37.7201 20.6066 37.7461 20.5806C37.8937 20.3896 37.6507 20.1119 37.4424 20.2248C37.4077 20.2421 37.3643 20.2681 37.3296 20.2855C37.1994 20.2942 37.0866 20.3549 36.9738 20.433C36.9911 20.3896 37.0085 20.3463 37.0259 20.3029C37.0866 20.164 37.1474 20.0165 37.2081 19.8776C37.2255 19.8429 37.2428 19.7995 37.2602 19.7648C37.2602 19.7561 37.2775 19.7214 37.2949 19.6954C37.3036 19.6694 37.3296 19.626 37.3296 19.626C37.3469 19.5912 37.3643 19.5565 37.3903 19.5218C37.5465 19.2441 37.6941 18.9577 37.8676 18.6887C37.9631 18.5412 38.0672 18.385 38.1367 18.2201C38.1627 18.1593 38.1801 18.0899 38.2061 18.0292C38.2235 17.9858 38.2408 17.9511 38.2408 17.899C38.2408 17.8903 38.2408 17.873 38.2408 17.8643C38.2321 17.7949 38.2321 17.7862 38.2495 17.8382C38.3102 17.6994 38.1453 17.5866 38.0238 17.63C38.0672 17.6126 37.9457 17.63 37.9371 17.63C37.9024 17.6386 37.8676 17.656 37.8329 17.6647C37.7548 17.6907 37.6767 17.7254 37.5986 17.7601C37.4511 17.8382 37.3122 17.9597 37.1907 18.0812C37.2168 18.0118 37.2341 17.9424 37.2602 17.8816C37.2862 17.8209 37.3122 17.7515 37.3383 17.6907C37.347 17.6647 37.3643 17.6387 37.373 17.6039C37.373 17.6039 37.399 17.5432 37.4077 17.5258C37.4251 17.4998 37.4424 17.4651 37.4424 17.4564C37.4684 17.413 37.4858 17.3609 37.5118 17.3089C37.5292 17.2742 37.5292 17.2655 37.5205 17.2915C37.5379 17.2655 37.5465 17.2395 37.5639 17.2134C37.6247 17.1006 37.6941 16.9878 37.7635 16.875C37.8069 16.8055 37.859 16.7361 37.8937 16.6667C37.9284 16.6059 37.9284 16.5886 37.911 16.6233C37.9024 16.6407 37.9024 16.6407 37.911 16.6146C37.9284 16.5799 37.9457 16.5452 37.9631 16.5105C38.0933 16.2588 38.2061 16.0071 38.3363 15.7555C38.4491 15.5298 38.2234 15.3042 38.0065 15.4604C37.7635 15.634 37.5292 15.7815 37.3036 15.9724C37.2081 16.0505 37.1213 16.1373 37.0432 16.2328C37.1126 16.0332 37.1994 15.8336 37.2862 15.634C37.3209 15.5646 37.3469 15.4951 37.373 15.4257C37.3817 15.3997 37.399 15.365 37.4164 15.3302C37.4251 15.3216 37.4337 15.3042 37.4424 15.2868C37.4945 15.1827 37.5465 15.0872 37.5986 14.9831C37.5639 15.0525 37.5899 15.0091 37.6073 14.9658C37.6247 14.931 37.642 14.8963 37.6594 14.8703C37.6854 14.8269 37.7028 14.7922 37.7288 14.7488C37.7461 14.7228 37.8329 14.5492 37.7982 14.6186C37.7722 14.662 37.8329 14.5579 37.8329 14.5492C37.8503 14.5058 37.8763 14.4711 37.9024 14.4277C37.9805 14.2889 38.0759 14.1587 38.1801 14.0285C38.3449 13.8202 38.0672 13.4905 37.8329 13.6206C37.5292 13.7942 37.2168 13.9851 36.9564 14.2281C36.9304 14.2541 36.8957 14.2802 36.8696 14.3149C36.8783 14.2541 36.8957 14.1847 36.9044 14.124C36.913 14.0893 36.913 14.0545 36.9217 14.0198V14.0112V14.0025C36.9911 13.6987 37.0953 13.4124 37.2168 13.1347C37.2775 12.9958 37.3383 12.8569 37.399 12.7268C37.4077 12.7181 37.4077 12.7094 37.4164 12.6921C37.4337 12.6573 37.4511 12.6313 37.4684 12.5966C37.5205 12.4925 37.5639 12.397 37.616 12.2929C37.642 12.2321 37.6767 12.1627 37.7114 12.1019C37.7288 12.0586 37.7375 12.0499 37.7288 12.0759C37.7114 12.1193 37.7201 12.0933 37.7722 11.9891C37.7895 11.9544 37.7982 11.9284 37.8156 11.8937C37.8763 11.7461 37.9371 11.6073 37.9978 11.4598C38.102 11.2168 37.7722 11.0172 37.5813 11.1734C37.3122 11.399 37.0606 11.6246 36.8349 11.8937C36.8176 11.911 36.8089 11.9284 36.7915 11.9457C36.8349 11.7895 36.8783 11.642 36.9304 11.4945C37.0345 11.1821 37.1474 10.8696 37.2775 10.5746C37.399 10.2795 37.5292 10.0192 37.7201 9.7675C37.9197 9.50716 37.5379 9.17738 37.3036 9.38566C37.0259 9.62865 36.7482 9.86296 36.5052 10.132C36.4704 10.1667 36.4444 10.2014 36.4184 10.2361C36.4444 10.132 36.4791 10.0279 36.5225 9.92371C36.5919 9.73279 36.6787 9.53319 36.7655 9.35094C36.7829 9.31623 36.8002 9.28152 36.8176 9.24681C36.8263 9.22945 36.8523 9.1687 36.861 9.16003C36.9304 9.02117 37.0172 8.89101 37.0866 8.75215C37.13 8.65669 37.1734 8.56991 37.2168 8.47444C37.2862 8.33559 37.3209 8.30956 37.373 8.15335C37.4077 8.05789 37.4164 7.96243 37.4598 7.86697C37.4771 7.8149 37.5118 7.76283 37.5118 7.70208C37.4858 7.65001 37.4858 7.63266 37.5292 7.62399C37.5465 7.59795 37.5552 7.56324 37.5726 7.5372C37.6507 7.36364 37.4164 7.24214 37.2862 7.3376C37.1907 7.4157 37.0779 7.45041 36.9738 7.52852C36.8696 7.59794 36.7655 7.65002 36.67 7.72812C36.4704 7.90168 36.2622 8.10128 36.106 8.30956C36.0973 8.31823 36.0886 8.33559 36.0799 8.35295C36.0886 8.31823 36.0973 8.2922 36.106 8.25749C36.1407 8.17071 36.1754 8.07525 36.2101 7.98847C36.2275 7.95375 36.2535 7.91036 36.2622 7.86697C36.2622 7.87565 36.2535 7.88433 36.2535 7.89301C36.2622 7.87565 36.2622 7.86697 36.2708 7.84962C36.3229 7.76284 36.3663 7.67605 36.4184 7.59795C36.5225 7.43306 36.6353 7.27685 36.7308 7.11197C36.8436 6.91237 36.9564 6.71276 37.0172 6.48713C37.0432 6.38299 37.0606 6.27885 37.0692 6.17472C37.0779 6.08793 37.104 5.9838 37.1213 5.88834C37.156 5.68874 36.8696 5.54989 36.7308 5.68874C36.67 5.74949 36.6093 5.81023 36.5399 5.85363C36.4878 5.88834 36.4357 5.91437 36.3837 5.94908C36.375 5.94908 36.3403 5.98379 36.3229 6.00115C36.2622 6.04454 36.2014 6.07058 36.1407 6.12265C36.0973 6.15736 36.0626 6.20076 36.0279 6.23547C35.9845 6.27886 35.9411 6.32225 35.8977 6.36564C35.9064 6.33093 35.915 6.29621 35.915 6.2615V6.25282C35.9237 6.23547 35.9237 6.20943 35.9324 6.19208C35.9931 5.91438 36.0799 5.63667 36.1754 5.37632L36.1841 5.36765C36.2101 5.34161 36.2361 5.31558 36.2622 5.28954C36.2969 5.25483 36.3316 5.22011 36.3576 5.17672C36.375 5.15936 36.401 5.12466 36.4097 5.11598C36.5225 4.99448 36.6527 4.88166 36.7829 4.7862C36.8089 4.76017 36.8436 4.74282 36.8696 4.71678C36.887 4.69942 36.913 4.69074 36.913 4.68207C36.9738 4.64735 37.0345 4.61264 37.0953 4.58661C37.156 4.56057 37.2168 4.53454 37.2862 4.5085C37.3209 4.49982 37.347 4.48246 37.3817 4.47379C37.3903 4.47379 37.3903 4.46511 37.399 4.46511C37.399 4.46511 37.4077 4.46511 37.4164 4.46511C37.4858 4.44775 37.5465 4.4304 37.616 4.42172C37.6594 4.41304 37.6941 4.41303 37.7375 4.40436C37.7461 4.40436 37.7895 4.40436 37.8069 4.39568C37.8242 4.39568 37.859 4.39568 37.859 4.39568C37.9284 4.39568 37.9891 4.39568 38.0586 4.39568C38.0846 4.39568 38.1106 4.387 38.1367 4.387C38.1367 4.387 38.2582 4.37833 38.1887 4.37833C38.3363 4.36965 38.4664 4.36097 38.5966 4.3089C38.6053 4.3089 38.6053 4.3089 38.614 4.3089C38.7355 4.33493 38.8222 4.21344 38.7528 4.10931C38.7355 4.10063 38.7355 4.09194 38.7268 4.08327C38.7268 4.09194 38.7268 4.09194 38.7268 4.10062C38.7181 3.93573 38.5966 3.79689 38.4664 3.69275C38.2929 3.56257 38.102 3.49315 37.8937 3.45844C37.5032 3.39769 37.0953 3.44107 36.7308 3.57993C36.6787 3.59728 36.618 3.62332 36.5659 3.64936C36.5399 3.64936 36.5138 3.64936 36.4965 3.64936C36.4097 3.66671 36.3056 3.68407 36.2275 3.72746C36.1407 3.77085 36.0452 3.85763 35.9758 3.92705C35.8196 4.06591 35.6634 4.23079 35.5332 4.39568C35.2815 4.71677 35.0906 5.07258 34.9344 5.44574C34.622 6.18339 34.4745 6.98179 34.4224 7.77151C34.3182 9.3683 34.648 10.9391 34.8997 12.5098C35.0299 13.2909 35.1253 14.0719 35.1861 14.8529C35.2034 15.0352 35.2121 15.2174 35.2295 15.3997C35.2295 15.4517 35.2381 15.4951 35.2381 15.5472C35.2295 15.6513 35.2468 15.7815 35.2555 15.8943C35.2729 16.2935 35.2815 16.684 35.2902 17.0832C35.3162 18.6714 35.2555 20.2595 35.2034 21.8476C35.1861 22.2902 35.16 22.7414 35.108 23.1927ZM36.7048 24.2341C36.6961 24.2601 36.6961 24.2514 36.7048 24.2341V24.2341ZM36.1841 5.385L36.1927 5.37632C36.1841 5.385 36.1841 5.385 36.1841 5.385ZM37.4337 12.7528C37.4251 12.7702 37.4337 12.7702 37.4337 12.7528V12.7528Z" fill="#444444"/>
<path d="M36.2527 7.91895C36.244 7.96234 36.2353 7.99705 36.2527 7.91895V7.91895Z" fill="#636363"/>
<path d="M37.5276 17.3261C37.5276 17.3174 37.5364 17.3174 37.5364 17.3086C37.5364 17.3086 37.5364 17.3174 37.5276 17.3261Z" fill="#636363"/>
<path d="M11.6672 31.4892C11.5283 31.4806 11.3721 31.4892 11.2332 31.5066C11.051 31.5326 10.9121 31.6021 10.7646 31.6975C10.4782 31.8798 10.2439 32.0967 9.99226 32.3223C9.72323 32.5567 9.47157 32.7996 9.2199 33.06C9.08105 33.2075 8.94219 33.3551 8.82938 33.5113C8.71656 33.6588 8.60374 33.7977 8.52564 33.9625C8.43886 34.1448 8.66449 34.275 8.81202 34.2229C8.95955 34.1708 9.0984 34.0754 9.23725 33.9886C9.39346 33.8931 9.54099 33.7977 9.68852 33.6848C9.95754 33.4766 10.2179 33.2683 10.4696 33.0426C10.6952 32.843 10.9121 32.6348 11.1378 32.4352C11.2332 32.3484 11.3461 32.2703 11.4415 32.1835C11.5283 32.1054 11.589 32.0273 11.7105 32.0013C11.832 31.9665 11.9275 31.8624 11.9188 31.7322C11.9015 31.6107 11.7973 31.4979 11.6672 31.4892Z" fill="#444444"/>
<path d="M23.956 54.2434C23.9039 53.983 23.8258 53.7313 23.7738 53.471C23.7217 53.1933 23.6783 52.9156 23.6436 52.6379C23.6349 52.5685 23.6262 52.5077 23.6262 52.4383C23.6262 52.3949 23.5915 52.1779 23.6176 52.3515C23.6089 52.2907 23.6089 52.2213 23.6089 52.1519C23.6089 52.0825 23.6002 52.0217 23.6002 51.9523C23.6002 51.9436 23.6002 51.9349 23.6002 51.9176C23.5915 51.718 23.5915 51.5184 23.5915 51.3275C23.6002 51.2754 23.6002 51.2233 23.6089 51.1713C23.6176 51.0932 23.6349 51.0064 23.6436 50.9283C23.6349 51.0324 23.6436 50.9196 23.6523 50.8936C23.661 50.8588 23.6696 50.8155 23.687 50.7808C23.7825 50.477 23.8345 50.1646 23.9387 49.8609C23.9907 49.7133 24.0602 49.5745 24.1209 49.4269C24.1556 49.3488 24.1817 49.2794 24.2164 49.2013C24.2164 49.1926 24.225 49.1839 24.225 49.1839C24.2598 49.1406 24.3205 48.993 24.3205 48.993C24.3379 48.967 24.3465 48.941 24.3552 48.9149C24.3726 48.993 24.3899 49.0625 24.4073 49.1406C24.4854 49.4616 24.5722 49.7827 24.7197 50.0778C24.8586 50.3642 25.0061 50.5985 25.1623 50.8588C25.2404 50.989 25.3792 51.0671 25.5268 51.0151C25.6656 50.9717 25.7611 50.8241 25.7264 50.6766C25.6656 50.4162 25.6483 50.1906 25.6222 49.9129C25.5962 49.6526 25.5702 49.4009 25.5355 49.1406C25.5181 49.0191 25.5094 48.8976 25.5007 48.7761C25.5007 48.7587 25.4921 48.7153 25.4921 48.6806C25.4834 48.6112 25.4834 48.5418 25.4834 48.4723C25.4834 48.3769 25.4747 48.2814 25.4747 48.186C25.4747 48.1686 25.4747 48.1512 25.4747 48.1339C25.4747 48.1252 25.4747 48.1079 25.4747 48.1079C25.466 47.969 25.466 47.8388 25.466 47.7C25.466 47.6132 25.466 47.5177 25.4747 47.4309C25.5094 47.3528 25.5441 47.2661 25.5615 47.1793C25.5788 47.1099 25.5962 47.0404 25.6049 46.971C25.6049 46.9536 25.6136 46.9363 25.6136 46.9103C25.6309 46.8842 25.6483 46.8582 25.6656 46.8322C25.7524 46.7107 25.8305 46.6065 25.9347 46.511C25.952 46.4937 25.9694 46.4763 25.9867 46.4677C25.9954 46.485 25.9954 46.5024 26.0041 46.5197C26.0735 46.7888 26.1256 47.0751 26.221 47.3355C26.2731 47.4743 26.3338 47.6219 26.4206 47.7347C26.4553 47.7781 26.4987 47.8128 26.5248 47.8562C26.5595 47.9082 26.5682 47.9777 26.5942 48.0384C26.6549 48.238 26.9674 48.2554 26.976 48.0211C26.976 47.969 26.976 47.9082 26.9847 47.8562C26.9847 47.8388 26.9674 47.8215 26.9674 47.8302C26.9674 47.8128 27.0021 47.752 27.0194 47.7173C27.0628 47.5958 27.0889 47.483 27.0889 47.3615C27.0975 47.1012 27.0541 46.8582 27.0108 46.5978C26.924 46.1466 26.8285 45.6953 26.733 45.2354C26.6463 44.8101 26.5768 44.3762 26.5421 43.9423C26.5421 43.9336 26.5421 43.9336 26.5421 43.925C26.5421 43.9076 26.5421 43.8902 26.5421 43.8729C26.5421 43.8208 26.5421 43.7687 26.5335 43.7167C26.5335 43.6038 26.5335 43.491 26.5335 43.3782V43.3695C26.5768 43.2567 26.6202 43.1439 26.6463 43.0224C26.6636 42.953 26.6723 42.8836 26.681 42.8141C26.707 42.8922 26.733 42.9617 26.7591 43.0311C26.8459 43.2741 26.924 43.5171 27.0108 43.7601C27.0975 44.0204 27.2711 44.2634 27.4794 44.4456C27.5835 44.5324 27.7571 44.463 27.7918 44.3415C27.9306 43.8989 27.8091 43.439 27.7137 43.0051C27.6269 42.6145 27.5401 42.224 27.462 41.8335C27.4273 41.6426 27.4013 41.4516 27.3839 41.2607V41.2521C27.3839 41.2347 27.3839 41.2173 27.3839 41.2087C27.41 41.2607 27.4273 41.3041 27.4533 41.3562C27.6703 41.7814 27.9046 42.224 28.3212 42.467C28.4687 42.5538 28.677 42.4757 28.6856 42.2934C28.7117 41.8335 28.5121 41.443 28.3646 41.0178C28.3559 41.0004 28.3125 40.8528 28.3298 40.9136C28.3125 40.8702 28.2778 40.7574 28.2691 40.74C28.2431 40.6533 28.217 40.5665 28.1997 40.4797C28.1476 40.2801 28.1216 40.0805 28.0955 39.8722C28.0955 39.8549 28.0955 39.8375 28.0955 39.8202C28.0955 39.7594 28.0955 39.7073 28.0955 39.6466C28.0955 39.5425 28.1042 39.4296 28.1129 39.3255C28.1216 39.2648 28.1302 39.204 28.1389 39.1432C28.1389 39.1259 28.1563 39.0738 28.1563 39.0565C28.1823 38.9436 28.217 38.8308 28.2344 38.718C28.2431 38.692 28.2431 38.6659 28.2517 38.6399C28.2517 38.6573 28.2517 38.6486 28.2604 38.6052C28.2778 38.5445 28.2864 38.4837 28.3038 38.423C28.3298 38.3188 28.3559 38.2147 28.3819 38.1019C28.4427 37.8589 28.46 37.5985 28.3993 37.3555C28.3732 37.2254 28.217 37.1212 28.0868 37.1906C27.8439 37.3208 27.6703 37.4857 27.5228 37.72C27.3926 37.937 27.2624 38.18 27.1756 38.423C27.1322 38.5358 27.0975 38.6573 27.0715 38.7788C27.0021 38.9003 26.9326 39.0218 26.8719 39.1432C26.6897 39.4904 26.5248 39.8462 26.4293 40.228C26.3946 40.2888 26.3512 40.3495 26.3165 40.4103C26.2471 40.5144 26.195 40.6272 26.1342 40.7487C26.1169 40.7834 26.0995 40.8268 26.0735 40.8615C26.0822 40.8529 26.0388 40.9396 26.0301 40.9483C25.8218 41.3562 25.6656 41.7901 25.466 42.198C25.3792 42.3889 25.2838 42.5798 25.1883 42.7621C25.1796 42.7707 25.1449 42.8488 25.1363 42.8662C25.1276 42.8922 25.1102 42.9183 25.1102 42.927C25.0668 43.0224 25.0148 43.1092 24.9714 43.2047C24.7718 43.5865 24.5809 43.9683 24.3899 44.3502C23.47 46.1553 22.4026 47.8822 21.5782 49.7394C21.2224 50.5464 20.9186 51.3795 20.719 52.2387C20.5194 53.0978 20.3806 53.9743 20.3979 54.8595C20.4066 55.3629 20.4413 55.8662 20.5368 56.3608C20.5889 56.6385 20.667 56.9076 20.7624 57.1766C20.8579 57.4369 20.9967 57.6626 21.153 57.8882C21.3005 58.1052 21.6736 58.1746 21.8993 58.0531C22.1596 57.9142 22.2811 57.6626 22.2464 57.3675C22.203 56.9943 22.1509 56.6212 22.0815 56.248C22.0468 56.0658 22.0208 55.8835 22.0034 55.71C21.9947 55.6319 21.9861 55.5538 21.9861 55.467C21.9861 55.4583 21.9861 55.4496 21.9861 55.441C21.9861 55.3976 21.9861 55.3542 21.9861 55.3108C21.9774 54.8335 22.0034 54.3562 22.0642 53.8875C22.0815 53.8702 22.0902 53.8442 22.1076 53.8268C22.2377 53.6446 22.3939 53.4276 22.5241 53.2887C22.5675 53.2454 22.6022 53.2107 22.6369 53.1673C22.6716 53.2801 22.715 53.4016 22.7497 53.5144C22.8539 53.8095 22.9754 54.1132 23.1316 54.3909C23.2184 54.5384 23.3138 54.6859 23.4353 54.8074C23.5481 54.9203 23.6696 55.0331 23.7825 55.1546C23.8953 55.2761 24.1383 55.1893 24.0862 55.007C24.0254 54.7814 24.0081 54.5037 23.956 54.2434Z" fill="#444444"/>
<path d="M36.1147 34.8125C36.2276 34.8472 36.1668 34.8299 36.1147 34.8125V34.8125Z" fill="#636363"/>
<path d="M48.6624 62.418C48.671 62.4353 48.6797 62.47 48.6884 62.4874C48.6797 62.4787 48.671 62.4353 48.6624 62.418Z" fill="#636363"/>
<path d="M48.7485 62.644C48.7485 62.644 48.7572 62.644 48.7485 62.644C48.7659 62.6701 48.7832 62.6874 48.7919 62.7048C48.8006 62.7048 48.7919 62.6874 48.7485 62.644Z" fill="#636363"/>
<path d="M49.2171 62.7998C49.0435 62.7998 49.1476 62.8085 49.2171 62.7998V62.7998Z" fill="#636363"/>
<path d="M57.5751 46.0596C57.6358 44.7145 57.6098 43.352 57.4709 42.0069C57.549 42.1023 57.6271 42.2065 57.6966 42.3106C58.3474 43.1784 58.9115 44.1157 59.6926 44.888C59.9182 45.1137 60.1612 45.3393 60.4302 45.5215C60.4736 45.5476 60.517 45.5736 60.5604 45.5996C60.8988 45.9641 61.3501 46.372 61.8361 46.5195C62.1745 46.6237 62.5651 46.6237 62.8862 46.4501C63.2246 46.2679 63.4415 46.0075 63.6064 45.6604C63.8147 45.2091 63.7453 44.6798 63.6064 44.2198C63.4676 43.7685 63.3287 43.3173 63.2072 42.866C63.0771 42.4061 62.9469 41.9461 62.8167 41.4949C62.756 41.2692 62.6866 41.0436 62.6258 40.8179C62.5651 40.6097 62.5217 40.384 62.4522 40.1757C62.4175 39.9762 62.3828 39.7852 62.3481 39.5856C62.1919 38.6831 62.0704 37.7719 61.9402 36.8607C61.6799 34.9862 61.3935 33.1204 60.786 31.324C60.1872 29.571 59.276 27.8961 58.0697 26.4815C56.8548 25.0583 55.3274 23.9301 53.5918 23.2272C52.75 22.8887 51.8735 22.6718 50.9709 22.585C50.5023 22.5416 50.0424 22.5416 49.5651 22.5763C49.3134 22.5937 49.0444 22.611 48.7927 22.6631C48.8448 21.4915 48.8101 20.3113 48.7059 19.1397C48.5584 17.3867 48.246 15.6511 47.786 13.9502C47.3261 12.2232 46.7447 10.5223 46.0417 8.8821C45.5471 7.71921 44.9656 6.59104 44.3061 5.52362C43.525 4.2566 42.6572 3.02429 41.5551 2.01761C41.0083 1.52296 40.4443 1.05433 39.7847 0.715881C39.0905 0.360074 38.3875 0.0997273 37.6152 0.0216233C36.8168 -0.0564807 36.0357 0.082375 35.2807 0.3514C34.3174 0.698529 33.519 1.40147 32.9463 2.24326C32.3822 3.07637 32.009 4.04833 31.8008 5.02029C31.5838 6.01828 31.4536 7.03363 31.4276 8.05766C31.3755 10.0016 31.6012 11.9455 31.766 13.8807C31.8008 14.2886 31.8355 14.6878 31.8528 15.0957C31.983 17.5516 31.8441 20.0249 31.4883 22.4635C31.3929 23.1144 31.2801 23.7652 31.1499 24.4161C31.1239 24.555 31.0891 24.6851 31.0544 24.824C30.7854 24.6504 30.4556 24.5203 30.1606 24.4161C29.5705 24.1992 28.963 24.0256 28.3555 23.8607C27.0972 23.5136 25.8128 23.2706 24.511 23.1404C23.2006 23.0102 21.8815 23.0276 20.5711 23.1925C19.3735 23.34 18.202 23.6437 17.0651 24.0343C14.8869 24.7806 12.8736 25.9608 11.0511 27.358C9.20267 28.7812 7.55381 30.4735 6.06115 32.2699C5.33218 33.1464 4.6466 34.0489 3.99574 34.9775C3.31884 35.9408 2.65929 36.9301 2.06049 37.9454C2.02578 38.0062 1.99107 38.067 1.95635 38.1277C1.90429 38.1971 1.86089 38.2752 1.8175 38.3533C1.66997 38.6137 1.52244 38.8653 1.40095 39.143C1.2187 39.5683 1.02778 39.9848 0.85422 40.4101C0.776116 40.5923 0.680655 40.7746 0.637264 40.9742C0.585195 41.2172 0.550482 41.4167 0.593873 41.6597C0.637264 41.8854 0.732724 42.0937 0.880253 42.2759C1.3402 42.866 2.15595 42.9441 2.8155 42.6838C3.05849 42.5883 3.27544 42.4234 3.47504 42.2672C3.65729 42.137 3.83085 41.9982 4.01309 41.8593C4.3689 41.5816 4.71603 41.3039 5.06316 41.0262C5.11523 40.9828 5.16729 40.9394 5.21936 40.896C5.47971 40.7485 5.74006 40.601 6.00909 40.4621C7.28478 39.7766 8.64726 39.2211 10.0097 38.7438C10.1833 38.6831 10.3482 38.631 10.5218 38.5703C10.5738 38.5529 10.8689 38.4661 10.6433 38.5356C10.7474 38.5095 10.8429 38.4748 10.947 38.4401C11.2941 38.336 11.6412 38.2318 11.9884 38.1364C12.7 37.9368 13.4203 37.7545 14.1406 37.5897C15.5638 37.2512 16.9957 36.9474 18.4276 36.6611C19.9897 36.3487 21.5605 36.0883 23.1486 35.9842C23.7387 35.9581 24.3375 35.9408 24.9276 35.9668C24.5892 36.7565 24.2333 37.5463 23.8775 38.3273C23.487 39.1778 23.1139 40.0369 22.7147 40.8787C22.5064 41.3213 22.2894 41.7552 22.0725 42.1891C21.439 43.4388 20.7621 44.6711 20.0765 45.886C19.3562 47.1791 18.6359 48.4721 18.0545 49.8346C17.9243 50.147 17.7941 50.4594 17.6813 50.7719C17.6813 50.7805 17.6726 50.7892 17.6726 50.7979C17.2994 51.8219 17.1866 52.9414 17.1953 54.0262C17.204 55.1804 17.3168 56.3346 17.4296 57.4888C17.4904 58.0789 17.5598 58.669 17.5945 59.2592C17.6119 59.5022 17.6292 59.7452 17.6726 59.9795C17.6813 60.0055 17.6813 60.0315 17.69 60.0576C17.6726 60.1704 17.6553 60.2745 17.6292 60.3873C17.5685 60.6477 17.4643 60.8993 17.3428 61.1423C17.1172 61.5676 16.8482 61.9754 16.5792 62.3746C16.4316 62.6003 16.2754 62.8259 16.1366 63.0602C16.1192 63.0949 16.0932 63.1297 16.0758 63.1644C15.746 63.364 15.4423 63.6677 15.3208 64.0235C15.1646 64.4921 15.2601 64.9608 15.4163 65.4034C15.5464 65.7678 15.7721 66.1063 16.0151 66.41C16.2754 66.7224 16.5792 67.0088 16.9176 67.2431C17.5685 67.6944 18.3582 67.9721 19.1479 67.9981C20.0244 68.0242 20.9964 67.7812 21.5691 67.0782C21.7167 66.896 21.8121 66.7051 21.8642 66.4968C22.2981 65.7158 22.9143 65.0475 23.4957 64.3706C23.8081 64.0061 24.1119 63.6417 24.4069 63.2685C24.485 63.173 24.5631 63.0776 24.6325 62.9734C24.6412 62.9648 24.6412 62.9561 24.6499 62.9561C25.3008 62.7912 25.943 62.5482 26.5591 62.2965C27.8522 61.7672 29.0498 61.0729 30.204 60.2832C30.8635 59.8319 31.497 59.346 32.1132 58.8513C32.1566 58.8166 32.1913 58.7819 32.226 58.7471C32.7727 58.2959 33.3021 57.8273 33.8054 57.3326C34.7687 56.404 35.6799 55.4234 36.5738 54.4254C37.5023 53.3927 38.4049 52.3426 39.2901 51.2665C40.1666 50.2078 41.0257 49.1317 41.8762 48.0469C42.4923 47.2572 43.1085 46.4588 43.716 45.6604C43.7593 45.8166 43.8027 45.9815 43.8375 46.1377C44.0978 47.2051 44.28 48.2899 44.4276 49.3747C44.74 51.6657 44.8875 53.9741 45.1652 56.2652C45.3127 57.4801 45.4429 58.7038 45.6859 59.91C45.8074 60.5175 45.9723 61.1163 46.1806 61.6977C46.3889 62.2792 46.6579 62.8519 47.031 63.3379C47.1525 63.4941 47.3087 63.5896 47.491 63.633C47.6212 63.8326 47.7947 64.0148 47.9943 64.145C48.8101 64.6917 49.8949 64.5789 50.7453 64.1797C51.4569 63.8499 52.1165 63.3466 52.6545 62.7825C54.8414 60.4567 55.527 57.1764 56.2907 54.1824C56.9676 51.5355 57.4536 48.8106 57.5751 46.0596ZM49.27 24.6938C49.2961 24.6591 49.3221 24.6157 49.3568 24.581C49.3655 24.5723 49.4175 24.5116 49.4002 24.5376C49.4609 24.4682 49.5304 24.4074 49.5911 24.3467C49.6952 24.2599 49.7473 24.2165 49.8341 24.1644C50.1899 24.1992 50.5457 24.2512 50.9015 24.3206C51.7954 24.5116 52.6719 24.8153 53.4876 25.2145C54.26 25.6224 54.9803 26.1257 55.6398 26.6985C56.3775 27.3841 57.0197 28.1564 57.5751 28.9982C58.2086 30.0049 58.7032 31.0897 59.0851 32.2178C59.9095 34.8647 59.9963 37.6591 60.5691 40.358C60.6645 40.7919 60.7947 41.2258 60.9509 41.6337C61.0203 41.8159 61.0898 42.0069 61.1679 42.1804C61.2286 42.3106 61.2894 42.4495 61.3761 42.5536C61.4022 42.5883 61.4282 42.6143 61.4629 42.6404C61.5671 43.0049 61.6625 43.3607 61.7667 43.7252C61.8361 43.9681 61.9142 44.2198 61.9662 44.4715C61.7927 44.2892 61.6365 44.0896 61.4976 43.8727C61.2199 43.4214 60.9856 42.9441 60.7513 42.4755C60.4996 41.9721 60.2653 41.4688 60.0223 40.9655C59.5364 39.9588 59.0504 38.9521 58.547 37.9541C58.0437 36.9561 57.5056 35.9842 56.9069 35.0469C56.282 34.0663 55.6225 33.1204 54.8328 32.2612C54.3728 31.7579 53.8782 31.2719 53.3054 30.8987C53.0971 30.7686 52.8802 30.6384 52.6545 30.5429C52.4289 30.326 52.1946 30.1264 51.9516 29.9441C50.8495 29.1457 49.4957 28.8594 48.1505 28.8594C48.1592 28.7986 48.1592 28.7379 48.1679 28.6684C48.1679 28.6684 48.1679 28.6511 48.1679 28.6337C48.1679 28.6337 48.1679 28.625 48.1679 28.6164C48.1766 28.599 48.1766 28.573 48.1852 28.5556C48.22 28.4254 48.2633 28.2953 48.3067 28.1651C48.3241 28.1304 48.3328 28.1044 48.3501 28.0696C48.3501 28.0696 48.3501 28.061 48.3588 28.061C48.4022 28.0002 48.4369 27.9395 48.4803 27.8787C48.4977 27.8527 48.5237 27.8267 48.541 27.8006C48.5931 27.7572 48.6365 27.7051 48.6886 27.6618C48.7406 27.6184 48.7927 27.575 48.8448 27.5316C48.8708 27.5142 48.8969 27.4882 48.9229 27.4708C48.9316 27.4708 48.9316 27.4622 48.9316 27.4622C48.9316 27.4622 48.9402 27.4535 48.9489 27.4535C49.001 27.4188 49.0531 27.3927 49.1051 27.358C49.1746 27.358 49.244 27.358 49.3134 27.3667C49.6692 27.3841 50.0163 27.4188 50.3721 27.4795C50.4416 27.4882 50.511 27.5056 50.5718 27.5142C50.5718 27.5142 50.5718 27.5142 50.5804 27.5142C50.6238 27.5229 50.6672 27.5316 50.7106 27.5403C50.8842 27.5837 51.0491 27.6271 51.2226 27.6791C51.5611 27.7833 51.8822 27.9134 52.2033 28.061C52.2293 28.0696 52.2466 28.087 52.2727 28.0957C52.3508 28.1391 52.4289 28.1825 52.507 28.2258C52.6632 28.3126 52.8107 28.4081 52.9583 28.5036C53.1058 28.6077 53.2446 28.7118 53.3835 28.8246C53.4616 28.8854 53.5397 28.9548 53.6091 29.0156C53.6178 29.0156 53.6178 29.0242 53.6178 29.0242C53.6699 29.0676 53.7133 29.111 53.7653 29.1631C54.043 29.4234 54.3121 29.7012 54.5551 29.9962C54.8414 30.326 55.1625 30.621 55.4402 30.9595C55.5791 31.1244 55.7093 31.2979 55.8481 31.4715C55.9349 31.5756 56.0217 31.6884 56.1345 31.7579C56.1692 31.7839 56.2213 31.8013 56.256 31.8273C56.2907 31.862 56.3254 31.9141 56.3601 31.9488C56.5684 32.1831 56.9502 31.9401 56.8201 31.6537C56.7854 31.567 56.7506 31.5062 56.742 31.4107C56.7333 31.2892 56.6899 31.1938 56.6378 31.081C56.5424 30.8814 56.4382 30.6991 56.3341 30.5082C56.1258 30.1351 55.9436 29.7185 55.7006 29.3714C55.2059 28.6684 54.6071 28.0349 53.9302 27.5142C52.7153 26.5857 51.2139 26.0823 49.7039 25.9435C49.5911 25.9348 49.4696 25.9261 49.3568 25.9174C49.3308 25.848 49.2961 25.7786 49.27 25.7092C49.2613 25.6918 49.2266 25.5616 49.2527 25.6745C49.244 25.6311 49.2266 25.5963 49.218 25.553C49.2006 25.4835 49.1919 25.4141 49.1746 25.3534C49.1659 25.31 49.1659 25.2752 49.1572 25.2319C49.1572 25.2232 49.1572 25.2232 49.1572 25.2145C49.1572 25.2145 49.1572 25.2058 49.1572 25.1972C49.1572 25.067 49.1659 24.9368 49.1832 24.8153C49.2006 24.7806 49.2353 24.7372 49.27 24.6938ZM57.8354 40.4969C57.7747 40.4361 57.7139 40.3753 57.6532 40.3059C57.497 40.141 57.3234 39.9848 57.1498 39.846C57.037 39.2993 56.9068 38.7612 56.7593 38.2231C56.8287 38.362 56.8982 38.5095 56.9676 38.6484C57.2627 39.2645 57.549 39.8807 57.8354 40.4969ZM48.1592 28.625C48.1592 28.599 48.1679 28.5817 48.1679 28.5817C48.1679 28.599 48.1592 28.6164 48.1592 28.625ZM48.5324 27.8006C48.5671 27.7659 48.5584 27.7746 48.5324 27.8006V27.8006ZM33.8228 13.794C33.7273 12.579 33.5885 11.3641 33.519 10.1491C33.4409 8.65646 33.4757 7.15513 33.762 5.67983C33.9009 5.07235 34.0918 4.48223 34.3522 3.91815C34.5257 3.58837 34.734 3.28464 34.9683 2.99826C35.1419 2.81601 35.3328 2.65981 35.5324 2.51228C35.7407 2.39078 35.9663 2.29532 36.1919 2.20854C36.4436 2.13912 36.6953 2.08704 36.9556 2.06101C37.2073 2.05233 37.4676 2.07837 37.7193 2.12176C38.0491 2.19986 38.3615 2.31268 38.6652 2.46021C39.1512 2.72056 39.5938 3.05032 40.0104 3.40613C40.8782 4.2132 41.6071 5.15914 42.258 6.14846C43.2126 7.66714 43.9937 9.28129 44.6358 10.9562C44.8702 11.5637 45.0871 12.1711 45.2867 12.7873C45.8855 14.6705 46.3194 16.6057 46.5537 18.567C46.6145 19.079 46.6579 19.5997 46.6926 20.1204C46.7707 21.7259 46.7099 23.3313 46.4843 24.9281C46.4236 25.362 46.3455 25.7959 46.2587 26.2212C46.0504 27.1845 45.7814 28.1304 45.521 29.0763C44.8528 29.1805 44.1846 29.3106 43.5337 29.4581C42.1712 29.7706 40.8088 30.1958 39.5331 30.7599C39.3682 30.838 39.1946 30.9074 39.021 30.9855C39.0124 30.9855 39.0124 30.9855 39.0037 30.9855C38.752 31.0549 38.509 31.1244 38.266 31.2198C38.0491 31.3066 37.8408 31.4021 37.6238 31.4889C36.8341 31.8186 36.0704 32.2352 35.2547 32.5216C35.2373 32.5302 35.2026 32.5389 35.1766 32.5476C35.1419 32.5563 35.1072 32.565 35.0985 32.5736C34.9943 32.5997 34.8815 32.6257 34.7774 32.6517C34.5865 32.6951 34.3955 32.7212 34.1959 32.7385C33.5798 32.7559 32.9636 32.6691 32.3562 32.5476C31.9743 32.4695 31.6012 32.374 31.228 32.2612C31.202 32.2525 31.1672 32.2439 31.1412 32.2352C31.3061 31.888 31.4449 31.5236 31.5578 31.1504C31.8094 30.326 31.9656 29.4755 32.1305 28.625C32.3909 27.4101 32.8335 26.2472 33.0938 25.0323C33.3628 23.7566 33.5711 22.4635 33.7186 21.1618C34.005 18.7232 34.0224 16.2586 33.8228 13.794ZM7.36289 36.6437C5.9223 37.6504 4.59453 38.8133 3.22337 39.9067C3.8482 38.7352 4.5685 37.6244 5.3235 36.5309C6.00908 35.5416 6.7207 34.5696 7.48438 33.6324C7.89226 33.129 8.30881 32.6431 8.74272 32.1571C9.96635 30.812 11.3028 29.5536 12.7694 28.4602C13.1599 28.1738 13.5505 27.8961 13.9583 27.6357C15.2774 26.8026 16.692 26.1084 18.1759 25.6137C19.4256 25.2232 20.7187 24.9715 22.0378 24.8934C23.5564 24.824 25.0665 24.9455 26.5591 25.1885C26.5678 25.1885 26.5678 25.1972 26.5765 25.1972C27.1839 25.4228 27.7827 25.7005 28.3642 25.9869C28.4944 26.0476 28.6245 26.117 28.7547 26.1778C28.8328 26.2125 28.9109 26.2559 28.989 26.2906C29.015 26.2993 29.0411 26.3166 29.0671 26.3253C29.0845 26.334 29.1018 26.3427 29.1018 26.3427C29.1452 26.3687 29.1886 26.3861 29.232 26.4121C29.2494 26.4208 29.2667 26.4295 29.2841 26.4381C29.3014 26.4555 29.3188 26.4728 29.3361 26.4902C29.4923 26.6377 29.6399 26.8026 29.7874 26.9762C29.8568 27.0543 29.9176 27.1324 29.9783 27.2192C30.013 27.2626 30.0478 27.3146 30.0825 27.3667C30.0911 27.3841 30.1085 27.4014 30.1172 27.4188C30.1259 27.4361 30.1259 27.4361 30.1259 27.4361C30.1259 27.4448 30.1345 27.4448 30.1345 27.4535C30.1866 27.5403 30.2387 27.6271 30.2821 27.7138C30.2213 27.9915 30.1606 28.2606 30.0998 28.5383C29.6225 28.3126 29.1279 28.113 28.6245 27.9568C27.4356 27.5923 26.2033 27.4275 24.9623 27.4188C22.437 27.4014 19.981 28.0176 17.5945 28.8073C16.961 29.0156 16.3188 29.2152 15.7287 29.5276C15.4336 29.6925 15.1299 29.866 14.8695 30.0917C14.7394 30.2045 14.6005 30.326 14.5051 30.4648C14.4183 30.6037 14.3489 30.7512 14.2881 30.8987C14.2534 31.0029 14.3662 31.1244 14.4704 31.0636C14.5658 31.0115 14.6699 30.9508 14.7654 30.9074C14.8869 30.8467 14.991 30.7859 15.1125 30.7165C15.3382 30.595 15.5638 30.4822 15.8068 30.3954C15.8675 30.3694 15.9196 30.352 15.9804 30.3347C16.0064 30.326 16.0411 30.3173 16.0671 30.3086C16.0671 30.3086 16.1452 30.2826 16.0932 30.2999C16.2667 30.2479 16.3448 30.2132 16.4837 30.1784C16.7267 30.109 16.9697 30.0396 17.2127 29.9702C18.2454 29.6751 19.2954 29.4061 20.3542 29.2065C20.8836 29.1023 21.4216 29.0156 21.9597 28.9461C22.22 28.9114 22.4803 28.8854 22.7494 28.8594C22.8882 28.8507 23.0184 28.8333 23.1572 28.8246C23.1746 28.8246 23.2353 28.8246 23.2527 28.816C23.3135 28.816 23.3829 28.8073 23.4436 28.8073C24.4937 28.7639 25.5438 28.816 26.5765 28.9895C26.6546 29.0069 26.7327 29.0156 26.8021 29.0329C26.8281 29.0416 26.8542 29.0416 26.8802 29.0503C27.0191 29.0763 27.1579 29.111 27.2881 29.1457C27.5745 29.2152 27.8522 29.2846 28.1385 29.3714C28.6766 29.5362 29.1886 29.7445 29.6919 29.9962C29.718 30.0136 29.744 30.0222 29.7701 30.0396C29.6312 30.569 29.4576 31.0897 29.2233 31.5843C29.206 31.6017 29.1886 31.6103 29.1626 31.6277C29.1452 31.6364 29.0671 31.6885 29.0671 31.6885C29.015 31.7145 28.9717 31.7492 28.9196 31.7752C28.72 31.8967 28.5117 32.0009 28.3034 32.0963C28.234 32.1311 28.1559 32.1658 28.0865 32.2005C27.453 32.0963 26.8021 32.0356 26.1686 31.9835C25.2313 31.9141 24.2941 31.8707 23.3568 31.8794C21.4476 31.8881 19.5384 32.0443 17.6553 32.3914C15.8241 32.7298 14.0191 33.2592 12.2921 33.9535C10.5478 34.6564 8.89893 35.5676 7.36289 36.6437ZM23.2267 28.816C23.2093 28.8246 23.0791 28.8246 23.2006 28.816C23.2093 28.816 23.218 28.816 23.2267 28.816ZM16.692 64.657C16.7007 64.6831 16.7007 64.7004 16.692 64.657V64.657ZM18.2454 65.0996C18.2367 65.0996 18.2193 65.0996 18.1933 65.0996C18.1673 65.0996 18.1499 65.0909 18.1239 65.0909C18.1239 65.0909 18.0892 65.0822 18.0718 65.0822C17.9069 65.0388 17.7334 65.0302 17.5598 65.0041C17.2734 64.9608 17.1172 65.2645 17.1866 65.4988C17.1172 65.4207 17.0565 65.3426 17.0044 65.2645C16.9957 65.2558 16.9784 65.2385 16.9697 65.2211C16.961 65.2124 16.9523 65.1951 16.9523 65.1864C16.9436 65.1777 16.9436 65.169 16.935 65.169C16.935 65.1777 16.9436 65.1777 16.9436 65.1864C16.9176 65.143 16.8916 65.0996 16.8655 65.0562C16.8048 64.9434 16.7527 64.8219 16.7006 64.7004C16.692 64.6831 16.6833 64.6397 16.6746 64.6136C16.6659 64.5789 16.6573 64.5442 16.6573 64.5095C16.6573 64.4835 16.6573 64.4574 16.6573 64.4401C16.6573 64.4314 16.6573 64.4227 16.6573 64.414C16.6659 64.3967 16.6659 64.3793 16.6746 64.362C16.8048 64.3186 16.935 64.2318 17.0391 64.145C17.0478 64.145 17.0478 64.145 17.0565 64.145C17.0565 64.145 17.0651 64.145 17.0738 64.145C17.1432 64.1537 17.2127 64.1537 17.2821 64.1624C17.2994 64.1624 17.3342 64.171 17.3515 64.1797C17.4036 64.1971 17.4557 64.2057 17.499 64.2231C17.5598 64.2405 17.6205 64.2665 17.6813 64.2925C17.6986 64.3012 17.7247 64.3099 17.742 64.3186C17.7507 64.3272 17.7594 64.3272 17.7768 64.3359C17.8896 64.3967 18.0024 64.4574 18.1065 64.5268C18.1499 64.5616 18.202 64.5963 18.2454 64.631C18.2627 64.6483 18.2888 64.6657 18.3061 64.6831L18.3148 64.6917C18.3582 64.7351 18.4016 64.7785 18.4363 64.8306C18.445 64.8393 18.4537 64.8566 18.4623 64.8653V64.874C18.471 64.8913 18.4797 64.9174 18.4884 64.9347V64.926C18.4884 64.926 18.4884 64.9347 18.497 64.9521V64.9608V64.9694C18.497 64.9694 18.497 64.9694 18.497 64.9781V64.9694V64.9781V64.9868C18.497 64.9868 18.497 64.9868 18.4884 64.9955L18.4797 65.0041L18.4884 64.9955C18.4884 65.0041 18.4797 65.0128 18.4797 65.0215V65.0302C18.4797 65.0302 18.471 65.0302 18.471 65.0215C18.471 65.0302 18.4623 65.0302 18.4623 65.0302C18.4623 65.0302 18.4623 65.0302 18.471 65.0215C18.471 65.0215 18.4623 65.0215 18.4623 65.0302L18.471 65.0215L18.4623 65.0302L18.4536 65.0388C18.4276 65.0562 18.3842 65.0649 18.3755 65.0649C18.3495 65.0736 18.3322 65.0909 18.3061 65.0996H18.2974C18.2888 65.0996 18.2888 65.0996 18.2801 65.0996C18.2801 65.0909 18.2627 65.0909 18.2454 65.0996ZM17.0738 64.1363C17.0912 64.1363 17.1085 64.1276 17.1085 64.1363C17.1085 64.1363 17.0912 64.1363 17.0738 64.1363ZM17.3342 64.1624C17.2994 64.1537 17.2647 64.145 17.3342 64.1624V64.1624ZM18.5057 64.9608C18.5144 64.9608 18.5144 64.9608 18.5057 64.9608C18.5144 64.9608 18.5144 64.9608 18.5057 64.9608C18.5144 64.9694 18.5144 64.9694 18.5057 64.9608C18.5057 64.9694 18.5057 64.9694 18.5057 64.9694C18.5144 64.9694 18.5144 64.9694 18.5057 64.9608C18.5057 64.9694 18.5057 64.9694 18.5057 64.9694C18.5144 64.9694 18.5144 64.9694 18.5057 64.9608C18.5057 64.9694 18.5057 64.9694 18.5057 64.9608ZM18.5144 64.9694C18.5144 64.9694 18.5144 64.9781 18.5144 64.9694C18.5144 64.9781 18.5144 64.9781 18.5144 64.9694C18.5144 64.9781 18.5144 64.9781 18.5144 64.9694C18.5144 64.9781 18.5144 64.9694 18.5144 64.9694ZM18.4884 65.0215C18.4884 65.0128 18.497 65.0042 18.5057 64.9868C18.5144 65.0215 18.5057 65.0302 18.4884 65.0215ZM20.1806 66.2365C20.1199 66.2712 20.0591 66.2972 19.9984 66.3232C19.9723 66.3319 19.9376 66.3493 19.9029 66.358C19.7988 66.4013 19.9029 66.3666 19.9463 66.3493C19.8422 66.4013 19.7033 66.41 19.5905 66.4274C19.5298 66.436 19.469 66.4447 19.4083 66.4534C19.3822 66.4534 19.3562 66.4621 19.3388 66.4621C19.226 66.4621 19.1045 66.4621 18.9917 66.4534C18.9223 66.4447 18.8528 66.436 18.7834 66.4274C18.7574 66.4274 18.7314 66.4187 18.7053 66.4187C18.688 66.41 18.6619 66.41 18.6446 66.4013C18.6099 66.3927 18.5751 66.384 18.5404 66.3753C18.4797 66.3579 18.4189 66.3406 18.3582 66.3146C18.2627 66.2799 18.1586 66.2365 18.0631 66.1931C17.933 66.1236 17.8115 66.0455 17.6986 65.9674C17.8896 66.0542 18.1152 66.1063 18.3408 66.1236C18.7921 66.1583 19.252 65.9414 19.469 65.5422C19.5384 65.4207 19.5818 65.2905 19.5992 65.169C19.712 65.2471 19.8248 65.3339 19.9289 65.4294C20.0157 65.5075 20.0938 65.5943 20.1633 65.6897C20.1806 65.7158 20.198 65.7331 20.2153 65.7591C20.2414 65.8025 20.2587 65.8459 20.2848 65.898C20.2934 65.9067 20.3021 65.924 20.3108 65.9501C20.3108 65.9587 20.3195 65.9588 20.3195 65.9674C20.3195 65.9588 20.3195 65.9501 20.3108 65.9501C20.3108 65.9414 20.3021 65.9327 20.3021 65.9327C20.2934 65.924 20.2934 65.9154 20.2848 65.898C20.2761 65.8893 20.2761 65.898 20.3108 65.9761C20.2674 66.0629 20.2327 66.1497 20.2067 66.2365C20.2067 66.2191 20.198 66.2278 20.1806 66.2365ZM39.75 47.3093C38.6652 48.6891 37.5544 50.0516 36.4176 51.388C35.8101 52.0996 35.2026 52.8026 34.5778 53.4968C33.4583 54.7291 32.3041 55.9354 31.0371 57.0115C30.9676 57.0722 30.9069 57.1243 30.8375 57.1851C30.8028 57.2024 30.7767 57.2285 30.7507 57.2545C29.9436 57.914 29.1105 58.5389 28.234 59.1116C26.9062 59.9534 25.509 60.6477 24.0164 61.1336C24.0945 61.1076 24.1726 61.0816 24.2507 61.0556C23.9904 61.1423 23.73 61.2291 23.4783 61.3159C23.2093 61.394 22.9229 61.4548 22.6799 61.6023C22.463 61.7325 22.246 61.8626 22.0291 61.9928C21.8034 62.123 21.6299 62.3746 21.6993 62.6437C21.7601 62.9214 21.9683 63.0863 22.246 63.1296C22.3675 63.1557 22.4977 63.173 22.6192 63.1904C22.489 63.3206 22.3675 63.4507 22.246 63.5722C21.9249 63.902 21.6038 64.2231 21.3001 64.5615C21.2914 64.5529 21.2828 64.5442 21.2828 64.5355C20.6492 63.8326 19.7641 63.3553 18.8702 63.0689C18.6446 62.9908 18.4103 62.9301 18.1759 62.8867C18.2974 62.7305 18.4103 62.5742 18.5231 62.4094C18.7747 62.0362 19.0177 61.6283 19.1826 61.2118C19.2781 60.9688 19.3041 60.6911 19.3215 60.422C19.3302 60.3005 19.3388 60.1617 19.3388 60.0315C19.3649 59.91 19.3822 59.7885 19.3996 59.6584C19.4343 59.3025 19.4343 58.9554 19.4169 58.6083C19.3909 57.8186 19.3301 57.0375 19.2607 56.2478C19.226 55.866 19.2 55.4841 19.1739 55.1023C19.1219 54.1477 19.1306 53.1844 19.3041 52.2472C19.3215 52.1864 19.3301 52.1257 19.3475 52.0649C19.469 51.605 19.6426 51.1537 19.8335 50.7111C20.0418 50.2078 20.2761 49.7218 20.5191 49.2358C21.3435 47.6217 22.2807 46.0683 23.1312 44.4715C24.0337 42.7705 24.8755 41.0349 25.6479 39.2732C26.0731 38.3099 26.4289 37.3206 26.7761 36.3313C26.7934 36.2792 26.8108 36.2185 26.8195 36.1577C27.1492 36.2011 27.4703 36.2272 27.8001 36.2879C27.8088 36.2879 27.8088 36.2879 27.8175 36.2879C27.7914 36.2792 27.7741 36.2792 27.748 36.2705C27.7741 36.2792 27.8001 36.2792 27.8261 36.2879C27.8348 36.2879 27.8435 36.2879 27.8522 36.2966C27.8782 36.3053 27.9129 36.3053 27.9389 36.3139C27.965 36.3226 27.991 36.3226 28.017 36.3313C28.0257 36.3313 28.0344 36.3313 28.0431 36.34C28.0518 36.34 28.0604 36.34 28.0691 36.3487C28.1299 36.366 28.1993 36.3747 28.26 36.3834C28.2774 36.3834 28.2948 36.3921 28.3121 36.3921C28.5377 36.4441 28.7634 36.4875 28.989 36.4962C29.2407 36.5656 29.501 36.6264 29.7527 36.7131C30.1866 36.878 30.4903 36.2532 30.1172 35.9929C29.9263 35.8627 29.7353 35.7238 29.5444 35.5937C29.5184 35.5763 29.501 35.559 29.475 35.5503C29.4663 35.5503 29.4663 35.5416 29.4576 35.5416C29.4142 35.5069 29.4142 35.5069 29.449 35.5416C29.4576 35.5503 29.4663 35.5589 29.475 35.5676C29.4316 35.5242 29.3882 35.4895 29.3448 35.4548C29.3275 35.4374 29.3014 35.4201 29.2841 35.4027C29.1973 35.3246 29.0932 35.2726 28.989 35.2118C28.5291 34.9775 28.0604 34.7866 27.5658 34.6217C26.6199 34.3179 25.5958 34.2399 24.6065 34.2225C22.6279 34.1878 20.6406 34.4915 18.7053 34.882C16.7788 35.2639 14.8609 35.7065 12.9777 36.2532C12.1793 36.4788 11.3809 36.7305 10.5912 36.9995C11.5892 36.4441 12.6306 35.9581 13.7067 35.5503C14.0972 35.4027 14.4964 35.2639 14.8956 35.125C16.6486 34.5696 18.4536 34.1965 20.2761 33.9882C20.7968 33.9274 21.3261 33.8841 21.8468 33.858C23.1486 33.7886 24.459 33.8059 25.7607 33.884C26.6806 33.9448 27.6092 34.0229 28.5291 34.1184C28.5551 34.127 28.5898 34.1357 28.6159 34.1531C29.3361 34.4221 30.0651 34.6911 30.8114 34.8647C31.471 35.0209 32.1218 35.1164 32.7901 35.1164C32.8335 35.1684 32.9029 35.1945 32.9723 35.2118C33.0851 35.2378 33.2066 35.2552 33.3108 35.3073C33.3802 35.342 33.4409 35.3941 33.519 35.4288C33.5885 35.4548 33.6666 35.4722 33.7447 35.4982C33.8749 35.5416 34.0137 35.5937 34.1439 35.6371C34.2046 35.6631 34.2654 35.6804 34.3174 35.7065C34.3174 35.7065 34.4563 35.7499 34.3869 35.7238C34.2914 35.6978 34.5257 35.7846 34.5604 35.7932C35.1072 35.9581 35.6278 36.1838 36.1399 36.4181C36.2614 36.4702 36.3829 36.5309 36.5043 36.5917C36.5391 36.609 36.5738 36.6264 36.6085 36.6437C36.6172 36.6437 36.6345 36.6611 36.6519 36.6698C36.6692 36.6784 36.6866 36.6871 36.6866 36.6871C36.7213 36.7045 36.756 36.7218 36.7907 36.7392C37.0511 36.878 37.3027 37.0169 37.5457 37.1731C38.0317 37.4682 38.4917 37.7979 38.9429 38.1451C39.1686 38.3186 39.3855 38.5009 39.6025 38.6918C39.6112 38.7005 39.6112 38.7005 39.6198 38.7091C39.6285 38.7091 39.6285 38.7178 39.6372 38.7178C39.6459 38.7265 39.6545 38.7352 39.6632 38.7438L39.6719 38.7525C39.6719 38.7525 39.6719 38.7525 39.6632 38.7438C39.7066 38.7872 39.7587 38.8306 39.8021 38.874C39.9062 38.9695 40.0017 39.0736 40.1058 39.1691C40.505 39.5683 40.8869 39.9935 41.234 40.4448C41.4076 40.6704 41.5724 40.896 41.7373 41.1304C41.7547 41.1564 41.772 41.1911 41.7981 41.2171C41.7981 41.2345 41.8067 41.2432 41.8154 41.2605C41.8501 41.33 41.8848 41.4081 41.9109 41.4862C41.9282 41.5209 41.9369 41.5556 41.9456 41.599C41.9543 41.625 41.9977 41.7291 41.9716 41.651C42.0063 41.7552 42.0497 41.8506 42.0844 41.9548C42.0931 41.9635 42.0931 41.9808 42.1018 41.9895C42.1105 42.0329 42.1278 42.085 42.1365 42.1283C42.1539 42.2065 42.1712 42.2846 42.1799 42.354C42.1886 42.3974 42.1973 42.4408 42.1973 42.4929C42.1973 42.5015 42.1973 42.5276 42.2059 42.5536C42.2059 42.5536 42.2059 42.6317 42.2059 42.6404C42.2059 42.6838 42.2059 42.7185 42.2059 42.7619C42.2059 42.8573 42.2059 42.9441 42.2059 43.0396C42.2059 43.1263 42.1973 43.2131 42.1799 43.2999C42.1712 43.3433 42.1712 43.378 42.1626 43.4214C42.1626 43.4388 42.1452 43.5256 42.1452 43.5342C42.1365 43.5516 42.1365 43.569 42.1365 43.5776C42.1278 43.6123 42.1192 43.6557 42.1105 43.6904C42.0844 43.7946 42.0497 43.8987 42.0063 43.9942C41.9369 44.1938 41.8415 44.3847 41.7547 44.5756C41.7373 44.619 41.7113 44.6624 41.6939 44.7058C41.6939 44.7058 41.6852 44.7145 41.6852 44.7231C41.6332 44.8273 41.5724 44.9227 41.5204 45.0269C41.5117 45.0442 41.503 45.0616 41.4943 45.0703C40.9129 45.8253 40.3314 46.5716 39.75 47.3093ZM28.3034 36.3921C28.3815 36.4007 28.3468 36.4007 28.3034 36.3921V36.3921ZM46.9529 57.3326C46.6405 54.9721 46.4583 52.5943 46.1806 50.2251C45.9202 47.9861 45.521 45.7645 44.74 43.647C43.9242 41.4428 42.6312 39.4641 40.8782 37.8934C40.0277 37.1297 39.0818 36.4788 38.0578 35.9495C37.5197 35.6718 36.9643 35.4114 36.3915 35.2118C35.9316 35.0556 35.4543 34.8907 34.977 34.7952C35.0464 34.7952 35.1245 34.7866 35.1939 34.7779C35.2113 34.7779 35.2287 34.7779 35.2547 34.7692C35.2981 34.7692 35.3501 34.7692 35.3935 34.7692C35.5671 34.7692 35.7493 34.7692 35.9229 34.7866C35.975 34.7953 36.027 34.7953 36.0704 34.8039C36.0791 34.8039 36.0965 34.8126 36.1225 34.8126C36.1138 34.8126 36.1052 34.8039 36.0878 34.8039C36.218 34.8473 36.3568 34.856 36.487 34.882C36.4957 34.882 36.5044 34.882 36.513 34.8907C36.5391 34.8994 36.5738 34.9081 36.5998 34.9081C36.6953 34.9341 36.7994 34.9602 36.8949 34.9862C37.0684 35.0296 37.242 35.0816 37.4156 35.1337C37.7887 35.2552 38.1532 35.4114 38.509 35.585C38.5003 35.585 38.5003 35.5763 38.4917 35.5763C38.5611 35.611 38.6218 35.637 38.6913 35.6718C39.481 36.0883 40.2099 36.609 40.8782 37.1991C41.9629 38.1971 42.9176 39.3253 43.7246 40.5663C44.6011 41.9548 45.3127 43.4388 45.8855 44.9748C46.0244 45.348 46.1545 45.7211 46.276 46.0943C46.8488 47.9081 47.248 49.7739 47.4563 51.657C47.517 52.1777 47.5604 52.6898 47.5864 53.2104C47.6472 54.4167 47.6472 55.623 47.5691 56.8379C47.5257 57.4714 47.4649 58.0963 47.3782 58.7211C47.3434 58.9815 47.3087 59.2331 47.274 59.4935C47.1439 58.7732 47.0484 58.0529 46.9529 57.3326ZM51.4222 61.4808C51.1011 61.8192 50.7453 62.123 50.3635 62.392C50.2159 62.4788 50.0684 62.5656 49.9122 62.635C49.8428 62.6697 49.7647 62.6871 49.6953 62.7218C49.6866 62.7218 49.6779 62.7305 49.6605 62.7305C49.6171 62.7391 49.5738 62.7478 49.5304 62.7652C49.4349 62.7825 49.3394 62.7999 49.244 62.8086C49.2353 62.8086 49.2266 62.8086 49.218 62.8086C49.2353 62.8086 49.244 62.8086 49.27 62.8086C49.2266 62.8086 49.1832 62.8086 49.1398 62.8086C49.0878 62.8086 49.0444 62.7999 48.9923 62.7999C49.001 62.7999 49.0097 62.8086 49.027 62.8086C49.0183 62.8086 49.001 62.7999 48.9923 62.7999C48.9229 62.7912 48.8274 62.7478 48.9402 62.7825C48.9142 62.7738 48.8795 62.7652 48.8535 62.7565C48.8448 62.7478 48.8274 62.7391 48.8187 62.7305C48.8101 62.7218 48.8101 62.7131 48.8014 62.7044C48.7927 62.7044 48.7754 62.6784 48.758 62.6523C48.7493 62.6437 48.7406 62.6263 48.732 62.6176C48.7406 62.6263 48.7493 62.635 48.758 62.6437C48.758 62.635 48.7493 62.635 48.7493 62.6263C48.732 62.5916 48.7146 62.5569 48.6973 62.5222C48.6973 62.5135 48.6886 62.5048 48.6886 62.4961C48.6886 62.5135 48.6799 62.5048 48.6712 62.4441C48.6712 62.4354 48.6712 62.4354 48.6712 62.4267V62.418C48.6539 62.3399 48.6365 62.2618 48.6192 62.175C48.6105 62.1143 48.6018 62.0622 48.5931 62.0015C48.6712 61.7758 48.7493 61.5415 48.8187 61.3072C49.0183 60.6824 49.1919 60.0489 49.2874 59.398C49.4696 58.2264 49.5824 57.0375 49.6171 55.8486C49.6953 53.4187 49.4783 50.9715 48.9663 48.585C48.4369 46.1377 47.6212 43.7251 46.4669 41.5035C45.2346 39.117 43.5771 36.878 41.3989 35.2812C40.7046 34.7692 39.9496 34.3266 39.1425 34.0055C39.1165 33.9188 39.0991 33.8406 39.0644 33.7539C39.0644 33.7452 39.0471 33.7278 39.0471 33.7105C39.0471 33.7018 39.0471 33.6931 39.0384 33.6845C39.021 33.6324 39.0124 33.5716 38.995 33.5196C38.9863 33.4935 38.9863 33.4675 38.9863 33.4415C38.9863 33.4328 38.9603 33.3113 38.9776 33.3981C38.995 33.4762 38.9776 33.372 38.9776 33.3547C38.9776 33.32 38.9776 33.2852 38.9863 33.2419V33.2332C38.9863 33.2332 38.9863 33.2245 38.9863 33.1985V33.1898C38.9863 33.1811 38.9863 33.1811 38.9863 33.1724V33.1811C38.995 33.1551 39.0037 33.129 39.0124 33.1117C39.021 33.103 39.0297 33.077 39.0384 33.0596C39.0644 33.0162 39.0905 32.9815 39.1252 32.9381C39.1252 32.9294 39.1339 32.9294 39.1339 32.9208C39.1339 32.9208 39.1339 32.9208 39.1425 32.9121C39.1772 32.8774 39.212 32.8427 39.2467 32.8166C39.3508 32.7212 39.4636 32.6431 39.5764 32.565C39.5764 32.565 39.5764 32.565 39.5851 32.565C39.6112 32.5476 39.6285 32.5389 39.6545 32.5216C39.7153 32.4868 39.776 32.4521 39.8281 32.4174C40.0537 32.2959 40.2881 32.1918 40.531 32.105C40.531 32.105 40.5658 32.0963 40.5918 32.0877C40.6178 32.079 40.6439 32.0703 40.6439 32.0703C40.6959 32.0529 40.748 32.0443 40.8001 32.0269C40.9302 31.9922 41.0604 31.9662 41.1993 31.9401C41.3208 31.9228 41.4423 31.9054 41.5638 31.888C41.6245 31.8794 41.6852 31.8794 41.746 31.8707C41.7547 31.8707 41.7547 31.8707 41.7634 31.8707C41.8067 31.8707 41.8415 31.8707 41.8849 31.8707C42.1365 31.8707 42.3882 31.8794 42.6312 31.9141C42.9783 31.9662 43.1432 32.0009 43.4816 32.105C43.5337 32.1224 43.5858 32.1397 43.6378 32.1571C44.2106 32.5042 44.7313 32.9294 45.2346 33.372C46.1459 34.2051 46.9529 35.1424 47.6819 36.1317C47.8728 36.3921 48.0551 36.6524 48.2373 36.9128C48.3241 37.0342 48.4022 37.1644 48.489 37.2946V37.3033C48.4977 37.3119 48.5063 37.3293 48.5063 37.338C48.5063 37.3467 48.515 37.3553 48.515 37.3553C48.5237 37.364 48.5237 37.3727 48.5324 37.3814C48.5324 37.3727 48.5237 37.3727 48.5237 37.364C48.5671 37.4334 48.6105 37.5029 48.6539 37.5723C48.9836 38.1103 49.2961 38.6657 49.5738 39.2298C49.8254 39.7418 50.0511 40.2712 50.2507 40.8093C50.294 40.9221 50.3288 41.0436 50.3721 41.1564C50.3895 41.1998 50.4589 41.4514 50.3982 41.2171C50.4155 41.2866 50.4416 41.356 50.4589 41.4254C50.537 41.6858 50.6151 41.9548 50.6759 42.2151C50.9362 43.2652 51.1532 44.3153 51.24 45.4001C51.2486 45.4695 51.2487 45.5389 51.2573 45.617C51.2573 45.643 51.2573 45.6778 51.266 45.7038C51.266 45.7125 51.266 45.7125 51.266 45.7125C51.266 45.7125 51.266 45.7211 51.266 45.7298C51.2747 45.8773 51.2834 46.0336 51.2834 46.1811C51.292 46.4848 51.292 46.7886 51.2834 47.0923C51.2834 47.2398 51.2834 47.396 51.2747 47.5436C51.2747 47.7171 51.3007 47.882 51.3094 48.0556C51.3181 48.1337 51.3441 48.2031 51.3615 48.2725C51.3788 48.3333 51.3701 48.394 51.3701 48.4548C51.3701 48.5329 51.3875 48.5936 51.4049 48.6717C51.4222 48.7585 51.4222 48.8453 51.4222 48.9321C51.4222 49.0536 51.5784 49.0883 51.6218 48.9755C51.6565 48.8974 51.6826 48.8193 51.7259 48.7412C51.778 48.6631 51.8214 48.6023 51.8474 48.5068C51.9082 48.3333 52.0123 48.1771 52.0731 48.0035C52.1946 47.639 52.2553 47.2572 52.3074 46.8754C52.3942 46.1724 52.4202 45.4695 52.4029 44.7665C52.3855 44.0202 52.3248 43.2739 52.2119 42.5362C52.0991 41.7899 51.8908 41.0609 51.6565 40.3406C51.1445 38.7612 50.3635 37.3033 49.4696 35.9148C48.7406 34.7779 47.9075 33.7365 46.9703 32.7819C46.8575 32.565 46.7533 32.3567 46.6492 32.1397C46.5798 32.0009 46.519 31.8533 46.4669 31.7145C46.4669 31.7058 46.4583 31.7058 46.4583 31.6971V31.6885C46.4496 31.6538 46.4409 31.619 46.4322 31.5843C46.4149 31.4975 46.3975 31.4108 46.3888 31.3153C46.3888 31.2806 46.3888 31.2459 46.3888 31.2112C46.3888 31.1765 46.3889 31.1331 46.3975 31.0983C46.4062 31.081 46.4149 31.0636 46.4149 31.055C46.4409 30.9855 46.467 30.9161 46.493 30.8467C46.493 30.8467 46.493 30.8467 46.493 30.838C46.493 30.8293 46.5017 30.8293 46.5017 30.8206C46.5277 30.7859 46.5451 30.7425 46.5711 30.7078C46.5885 30.6905 46.5971 30.6644 46.6145 30.6471C46.9095 30.621 47.2046 30.595 47.5083 30.5776C48.1418 30.5516 48.7754 30.569 49.4002 30.6818C49.756 30.7599 50.0944 30.8727 50.4242 31.0289C50.728 31.1938 51.0057 31.3934 51.266 31.6103C51.3441 31.6885 51.4135 31.7579 51.4916 31.836C51.6305 32.0009 51.778 32.1744 51.9082 32.348C52.0818 32.565 52.2466 32.7906 52.4115 33.0162C52.481 33.1204 52.5504 33.2245 52.6285 33.32C52.6372 33.3286 52.6458 33.3373 52.6458 33.346C52.6458 33.346 52.6458 33.346 52.6458 33.3547C52.6892 33.4154 52.7239 33.4848 52.7673 33.5456C53.3141 34.4395 53.8001 35.3854 54.2079 36.3487C54.4249 36.8433 54.6158 37.3553 54.7807 37.8674C54.9543 38.4141 55.1018 38.9608 55.2233 39.5162C55.1972 39.6204 55.2233 39.7158 55.284 39.8026C55.4402 40.5489 55.5617 41.3039 55.6398 42.0676C55.6832 42.4408 55.7093 42.8226 55.7353 43.2045C55.8481 45.374 55.6919 47.5436 55.3535 49.6871C55.2667 50.2598 55.1539 50.8413 55.041 51.414C54.8328 52.4207 54.5811 53.41 54.3207 54.3994C54.0257 55.5536 53.7306 56.7078 53.3401 57.8359C53.1231 58.4521 52.8802 59.0682 52.5851 59.6584C52.2987 60.3179 51.8995 60.9254 51.4222 61.4808Z" fill="#444444"/>
<path d="M48.9915 62.7913C48.9742 62.7826 48.9568 62.7826 48.9395 62.7739C48.9568 62.7826 48.9742 62.7913 48.9915 62.7913Z" fill="#636363"/>
<path d="M39.6549 38.7438C39.6375 38.7264 39.6201 38.7177 39.6115 38.7004C39.5681 38.6744 39.5334 38.657 39.6549 38.7438Z" fill="#636363"/>
<path d="M48.5411 37.3902L48.5324 37.3815C48.5237 37.3641 48.5064 37.3468 48.4977 37.3294C48.4804 37.2947 48.463 37.2773 48.5411 37.3902Z" fill="#636363"/>
<path d="M38.9955 33.1987C38.9955 33.1987 38.9955 33.2074 38.9955 33.1987C38.9955 33.2161 38.9868 33.2335 38.9868 33.2508C38.9868 33.2508 39.0042 33.2334 38.9955 33.1987Z" fill="#636363"/>
<circle cx="36.2374" cy="43.0315" r="2.65263" fill="#F0EBDF"/>
<circle cx="33.5843" cy="50.1055" r="1.47369" fill="#F0EBDF"/>
<circle cx="32.8474" cy="37.8736" r="0.736843" fill="#F0EBDF"/>
<circle cx="30.1954" cy="45.537" r="1.03158" fill="#F0EBDF"/>
<circle cx="27.9845" cy="53.6423" r="2.06316" fill="#F0EBDF"/>
</svg>
