<svg width="1427" height="1696" viewBox="0 0 1427 1696" fill="none" xmlns="http://www.w3.org/2000/svg">
<g clip-path="url(#clip0_134_2)">
<path d="M474.68 1186.05C469.98 1208.05 465.38 1230.05 460.68 1252.05C499.38 1293.05 545.78 1349.85 587.68 1424.05C636.08 1509.75 662.08 1589.35 676.68 1649.05C702.08 1648.15 730.68 1648.75 761.68 1652.05C821.88 1658.45 872.58 1673.15 911.68 1688.05C929.18 1657.35 956.88 1615.15 998.68 1572.05C1070.98 1497.45 1182.68 1424.55 1210.68 1449.05C1217.78 1455.25 1222.18 1470.05 1209.68 1508.05C1261.18 1462.65 1280.58 1407.65 1262.68 1378.05C1250.88 1358.65 1223.68 1351.15 1208.68 1347.05C1174.38 1337.65 1144.98 1343.95 1130.68 1348.05C1120.98 1340.75 1111.38 1333.35 1101.68 1326.05C1061.98 1337.35 1022.38 1348.75 982.68 1360.05L765.68 1400.05L647.68 1349.05L571.68 1251.05L497.88 1175.25L474.68 1186.05Z" fill="#FF0E03" stroke="white" stroke-miterlimit="10"/>
<path d="M852.68 1076.05C840.68 1052.35 832.18 1012.95 855.68 947.051C894.98 943.051 934.38 939.051 973.68 935.051C991.68 1007.95 1005.78 1101.75 999.68 1210.05C997.58 1247.75 993.28 1282.85 987.68 1315.05L870.68 1370.05L688.68 1351.05L562.68 1178.05L466.68 1100.05L480.68 1010.05C494.08 1016.55 511.98 1025.45 532.68 1036.85C584.68 1065.35 623.88 1086.85 663.58 1121.05C721.78 1171.25 730.18 1205.15 773.68 1214.05C784.58 1216.25 794.48 1216.35 822.68 1222.05C863.88 1230.45 870.88 1236.05 880.68 1231.05C901.28 1220.45 904.78 1177.55 895.68 1145.05C886.08 1110.65 866.88 1104.05 852.68 1076.05Z" fill="#FF0E03" stroke="#050505" stroke-width="11" stroke-miterlimit="10"/>
<path d="M672.18 136.55C712.18 126.65 786.08 113.95 875.18 132.55C947.48 147.65 1001.08 177.35 1033.18 198.55C1007.68 214.15 974.58 231.45 934.18 245.55C885.58 262.55 841.88 269.65 808.18 272.55C786.38 260.85 756.58 241.65 727.18 211.55C700.68 184.35 683.28 157.15 672.18 136.55Z" fill="#FF0E03" stroke="black" stroke-width="11" stroke-miterlimit="10"/>
<path d="M199.68 718.051C220.58 764.551 234.78 807.251 244.68 843.051C251.68 868.551 263.58 912.451 269.68 971.051C276.88 1040.35 280.48 1075.05 273.68 1100.05C270.68 1111.05 265.68 1125.05 272.68 1137.05C281.98 1153.05 304.08 1150.45 335.68 1163.05C358.48 1172.15 375.08 1184.65 385.68 1194.05C391.98 1118.35 398.38 1042.75 404.68 967.051L371.58 711.551L270.38 664.051C246.88 682.051 223.28 700.051 199.68 718.051Z" fill="#FF0E03" stroke="#050505" stroke-width="11" stroke-miterlimit="10"/>
<path d="M1419.58 549.951C1417.48 535.551 1414.68 515.551 1398.58 505.951C1386.38 498.651 1367.78 498.051 1355.58 506.951C1332.98 523.551 1353.08 558.651 1331.58 582.951C1313.18 603.651 1272.28 607.651 1247.58 590.951C1227.08 577.151 1223.08 552.751 1217.58 515.951C1212.38 481.451 1215.78 464.551 1216.58 425.951C1217.78 364.351 1218.48 333.451 1206.58 299.951C1201.48 285.651 1181.48 228.951 1127.58 202.951C1090.78 185.151 1055.98 190.351 1004.58 197.951C966.479 203.551 927.879 209.351 882.579 230.951C855.479 243.851 839.079 256.251 815.579 251.951C794.579 248.051 781.779 233.451 766.579 216.951C738.879 187.051 708.179 160.051 679.579 130.951C679.579 130.951 587.879 36.8505 489.679 9.05048C478.179 5.75048 468.179 4.75048 458.679 5.05048C458.679 5.05048 443.279 5.65048 428.679 11.0505C394.879 23.6505 374.879 65.1505 356.579 103.951C350.279 117.351 342.179 136.251 334.579 159.751C251.479 170.851 192.379 199.351 156.579 220.951C121.679 241.951 47.0787 286.951 52.5787 333.951C55.5787 359.751 79.6787 359.551 101.579 399.951C126.779 446.351 110.879 475.851 125.079 518.951C134.879 548.951 159.879 587.451 227.579 621.951C216.179 626.851 202.779 631.551 187.579 634.951C145.579 644.451 109.179 640.051 85.5787 634.951C84.1787 629.551 82.3787 621.551 80.5787 611.951C74.8787 580.851 77.4787 571.351 69.5787 562.951C61.5787 554.451 47.3787 551.751 36.5787 554.951C12.3787 562.151 7.47872 598.651 6.57872 604.951C4.27872 621.951 8.67872 627.451 22.5787 679.451C34.7787 724.951 33.6787 728.851 41.5787 738.951C49.4787 748.951 53.6787 748.951 87.5787 774.951C118.479 798.551 115.279 798.851 119.579 799.951C152.879 808.851 176.879 751.251 255.579 715.951C298.079 696.951 314.179 703.251 320.579 706.951C334.079 714.551 338.679 729.351 345.579 757.951C359.979 817.651 367.179 847.551 369.579 891.951C370.979 917.551 371.479 952.451 367.579 993.951C609.779 955.751 851.879 917.651 1094.08 879.451L1103.98 828.551C1126.48 755.551 1156.48 732.551 1179.58 724.951C1195.38 719.651 1216.08 721.151 1257.58 723.951C1307.68 727.351 1337.58 736.151 1355.58 718.951C1359.78 714.951 1364.18 708.751 1375.58 698.951C1389.18 687.251 1393.78 686.751 1399.58 680.951C1411.18 669.251 1407.28 656.351 1410.58 621.951C1414.78 578.451 1423.28 575.451 1419.58 549.951ZM424.979 536.551C404.779 528.251 374.779 515.351 356.979 484.551C344.479 462.951 343.679 442.351 342.979 413.551C341.479 354.951 354.979 310.151 358.979 297.551C380.779 229.151 416.679 187.951 433.979 168.551C461.079 138.151 475.179 132.751 483.979 130.551C509.279 124.151 531.679 134.051 567.979 150.551C596.179 163.451 620.479 174.451 646.479 196.751C657.679 206.351 726.779 267.551 733.979 366.551C736.079 395.251 739.479 442.551 708.979 481.551C687.379 509.151 659.979 518.251 619.579 531.551C583.179 543.551 504.779 569.451 424.979 536.551ZM890.679 647.051C868.979 669.551 847.179 684.051 831.679 693.051C818.279 685.051 799.479 672.851 778.679 656.051C745.279 629.051 689.179 575.951 697.879 561.551C701.079 556.251 717.479 549.151 827.679 596.151C867.779 572.151 932.379 536.651 944.679 551.051C955.779 564.051 921.179 615.551 890.679 647.051ZM1131.18 443.051C1113.88 469.851 1074.78 450.451 993.179 464.051C905.279 478.651 863.279 515.751 842.179 495.051C833.479 486.451 832.079 464.051 829.179 419.051C827.879 398.151 827.179 387.651 828.179 380.051C836.379 317.851 916.879 281.751 930.179 276.051C978.579 255.351 1035.28 252.851 1056.18 270.051C1058.58 272.051 1065.98 278.751 1078.18 288.051C1093.78 299.951 1098.28 301.551 1104.18 307.051C1114.18 316.351 1119.18 328.351 1124.18 351.051C1135.48 402.051 1141.18 427.651 1131.18 443.051Z" fill="#FF0E03" stroke="white" stroke-miterlimit="10"/>
<path d="M1102.98 826.151C1093.18 821.651 1083.78 816.151 1075.18 809.651C1070.88 806.351 1066.78 802.951 1062.88 799.151C1060.88 797.251 1059.08 795.351 1057.18 793.351L1054.48 790.451L1051.88 787.451C1044.88 779.451 1038.38 770.651 1033.68 760.951C1031.28 756.051 1029.48 750.951 1028.08 745.751C1026.68 740.551 1025.88 735.151 1025.68 729.751C1025.58 727.051 1025.58 724.351 1025.78 721.651C1025.98 718.951 1026.38 716.251 1026.88 713.651C1027.88 708.351 1029.48 703.251 1031.08 698.351C1032.78 693.351 1034.58 688.551 1036.38 683.551C1038.28 678.651 1040.28 673.851 1042.48 669.051C1044.68 664.251 1047.08 659.651 1049.58 655.051C1052.08 650.451 1054.78 645.951 1057.48 641.551C1063.08 632.751 1069.08 624.251 1075.68 616.051C1069.48 624.451 1063.88 633.151 1058.68 642.251C1056.18 646.751 1053.68 651.351 1051.48 656.051C1049.18 660.751 1047.08 665.451 1045.08 670.251C1043.08 675.051 1041.28 679.851 1039.68 684.751C1038.08 689.651 1036.48 694.651 1035.08 699.551C1033.68 704.551 1032.38 709.451 1031.68 714.451C1031.28 716.951 1031.08 719.451 1030.98 721.951C1030.88 724.451 1030.98 726.951 1031.18 729.451C1031.58 734.451 1032.58 739.351 1034.08 744.151C1035.58 748.951 1037.48 753.551 1039.88 757.951C1044.68 766.751 1050.98 774.651 1057.98 782.051L1060.68 784.851L1063.38 787.551C1065.18 789.351 1066.98 791.051 1068.88 792.651C1072.68 795.951 1076.68 799.051 1080.78 801.851C1089.08 807.551 1097.98 812.251 1107.28 816.051L1102.98 826.151Z" fill="black"/>
<path d="M122.178 443.551C123.778 454.151 128.578 475.351 145.178 494.551C149.178 499.151 175.278 529.351 196.178 522.551C202.878 520.351 208.078 514.751 224.678 468.051C235.978 436.451 238.878 423.951 245.178 406.551C251.178 389.951 259.48 365.251 277.18 337.051C255.18 390.251 248.778 434.251 245.178 464.551C244.078 473.651 243.678 479.951 241.178 509.551C237.278 555.951 233.878 593.351 231.678 618.051C212.778 611.151 184.378 597.351 159.678 570.051C152.578 562.251 139.478 547.351 130.178 524.051C116.278 489.451 119.578 458.251 122.178 443.551Z" fill="#FF0E03"/>
<path d="M339.679 162.051C338.679 165.251 355.279 117.051 400.679 72.0508C417.279 55.5508 435.179 38.1508 464.179 29.5508C502.279 18.1508 536.079 29.0508 550.179 34.5508C536.379 25.3508 517.279 15.3508 493.179 10.0508C474.579 5.95081 451.579 1.25081 428.679 11.0508C413.579 17.5508 403.679 28.7508 389.679 51.0508C374.579 75.0508 354.979 111.751 339.679 162.051Z" fill="#FF0E03"/>
<path d="M362.179 275.551C351.479 292.351 337.579 318.451 329.179 352.551C320.779 386.551 304.079 454.151 343.179 509.551C384.179 567.651 458.279 572.351 470.079 572.951C476.479 589.551 492.879 599.951 510.179 598.551C526.279 597.251 540.079 585.851 544.679 570.051C559.879 567.851 574.979 565.751 590.179 563.551C591.779 566.051 617.479 605.151 650.179 601.551C659.479 600.551 665.979 596.351 667.179 595.551C691.179 579.651 686.479 541.551 686.179 539.551C697.879 530.451 715.179 514.651 729.179 490.551C758.679 439.651 751.979 388.251 749.179 366.551C742.679 317.051 721.179 280.951 707.179 261.551C715.479 287.251 723.879 312.851 732.179 338.551C734.779 352.751 737.379 373.451 736.179 398.551C735.579 411.951 734.879 424.251 730.579 438.951C721.879 468.551 704.079 487.351 697.279 494.451C666.879 526.051 628.179 533.851 582.579 542.351C533.979 551.451 494.879 558.751 447.279 543.551C426.679 536.951 376.779 520.951 353.179 474.951C340.979 451.251 341.079 429.951 341.279 396.551C341.279 368.751 344.779 326.251 362.179 275.551Z" fill="#FF0E03"/>
<path d="M824.179 364.551C810.179 404.251 810.479 436.251 812.179 454.551C815.079 486.351 824.279 498.251 829.179 503.551C840.479 515.751 854.579 520.051 861.179 521.551C886.379 527.351 902.579 515.051 947.179 500.551C947.179 500.551 973.679 492.451 1000.18 486.551C1046.58 476.151 1122.58 497.251 1149.18 464.551C1166.78 442.951 1156.78 405.451 1150.18 380.551C1143.08 353.851 1130.78 334.251 1122.18 322.551C1126.68 349.051 1131.18 375.551 1135.78 402.051L1131.28 442.951L1098.68 458.051L1008.28 461.751L930.979 479.351L878.779 497.351C872.979 498.651 857.379 501.351 845.279 492.451C837.479 486.651 834.279 478.351 832.279 471.451C821.879 436.351 823.679 378.551 824.179 364.551Z" fill="#FF0E03"/>
<path d="M12.6797 623.551C17.4797 629.851 27.1797 640.451 35.1797 652.551C61.5797 692.451 59.7797 702.951 77.1797 721.551C85.5797 730.551 108.18 754.851 138.18 754.551C157.38 754.351 178.78 744.151 184.18 741.551C192.68 737.458 220.98 730.451 224.68 728.051C225.98 731.051 210.68 739.551 204.18 741.551C196.48 748.451 188.88 755.351 181.18 762.251C181.18 762.251 138.08 811.151 115.58 792.851L42.6797 735.051C36.8797 719.951 31.0797 702.751 26.1797 683.551C20.6797 662.051 14.7797 641.151 12.6797 623.551Z" fill="#FF0E03"/>
<path d="M360.68 807.051C368.18 803.751 407.08 789.251 418.18 778.551C440.98 756.651 447.08 730.251 450.38 715.851C453.08 704.351 455.88 685.751 453.18 662.551C461.08 671.851 471.68 685.851 481.18 704.551C491.18 724.251 496.18 734.051 496.98 745.951C497.68 756.551 495.78 776.651 420.88 857.651C411.88 867.351 380.88 901.251 375.68 906.551C368.68 876.051 364.38 834.351 360.68 807.051Z" fill="#FF0E03"/>
<path d="M1075.18 616.551C1071.48 625.151 1066.38 638.951 1064.18 656.551C1062.68 667.951 1055.98 720.951 1086.18 751.551C1086.18 751.551 1087.48 752.851 1123.28 778.551C1117.58 791.251 1111.88 803.951 1106.18 816.551C1085.78 808.151 1071.78 797.251 1063.48 789.751C1052.78 780.151 1041.58 769.951 1035.18 752.551C1029.38 736.951 1030.38 723.551 1031.18 713.551C1032.78 693.651 1039.28 679.451 1047.18 662.551C1052.78 650.651 1061.58 634.351 1075.18 616.551Z" fill="#FF0E03"/>
<path d="M1360.18 507.55C1363.28 507.35 1368.48 507.55 1373.98 510.15C1386.38 515.85 1390.38 528.85 1391.18 531.55C1394.78 543.45 1390.08 548.95 1385.98 571.65C1383.28 586.75 1382.78 599.55 1382.18 614.55C1381.08 638.85 1382.78 646.45 1376.18 654.55C1371.78 659.95 1368.78 659.15 1357.18 667.55C1344.98 676.35 1338.48 684.25 1335.18 687.55C1309.38 713.15 1249.08 681.85 1191.18 707.55C1179.08 712.95 1168.88 723.751 1164.18 727.551C1178.78 724.551 1197.98 717.65 1218.18 717.55C1230.28 717.55 1241.28 718.35 1251.18 719.55C1278.38 722.65 1305.48 725.65 1332.68 728.75L1351.68 723.051L1368.18 705.85C1376.38 696.65 1383.88 690.05 1389.18 685.65C1397.38 678.95 1402.58 675.95 1406.18 668.65C1409.58 661.75 1409.28 655.55 1409.18 650.65C1409.08 645.25 1411.08 629.35 1415.18 597.65C1418.58 571.15 1420.58 569.95 1420.18 556.65C1420.08 553.65 1419.58 539.25 1413.08 523.15C1410.18 515.95 1407.68 512.45 1405.08 509.65C1397.58 501.85 1388.58 500.05 1386.18 499.55C1382.78 498.95 1376.88 497.95 1370.18 500.65C1365.18 502.55 1361.88 505.65 1360.18 507.55Z" fill="#FF0E03"/>
<path d="M1307.18 603.551C1309.38 603.851 1310.78 604.751 1311.48 605.451C1315.48 609.151 1314.78 618.151 1309.18 627.551C1312.38 625.451 1315.88 622.851 1319.18 619.551C1333.28 605.551 1336.98 588.151 1338.18 579.551C1336.08 583.351 1331.88 589.951 1324.18 595.551C1317.58 600.351 1311.18 602.551 1307.18 603.551Z" fill="#FF0E03"/>
<path d="M948.179 547.551C951.579 550.651 957.079 556.651 959.179 565.551C961.379 574.951 958.779 583.351 956.179 589.551C941.179 625.251 907.179 655.551 907.179 655.551C887.079 673.451 861.179 694.851 829.179 717.551C759.579 666.551 711.279 623.751 698.179 604.551C694.179 598.651 685.679 586.151 688.179 571.551C689.279 565.251 692.079 560.451 694.179 557.551C694.879 562.451 696.379 569.351 700.179 576.551C700.479 577.151 703.179 582.051 707.279 586.851C735.879 619.951 750.079 636.451 826.279 690.751L831.679 692.951C831.679 692.951 905.879 650.951 924.779 606.951C943.679 562.951 924.779 606.951 924.779 606.951L947.179 550.751C947.479 549.751 947.879 548.651 948.179 547.551Z" fill="#FF0E03"/>
<path d="M500.178 1294.55C505.478 1279.85 510.878 1265.25 516.178 1250.55C520.378 1265.65 528.378 1284.15 539.978 1304.75C555.978 1333.25 580.178 1364.55 613.178 1375.55C613.178 1375.55 620.978 1448.95 701.778 1462.95C701.778 1462.95 749.678 1512.05 833.678 1470.05C833.678 1470.05 930.678 1498.85 969.678 1425.45C969.678 1425.45 1032.98 1414.95 1045.38 1390.95C1045.38 1390.95 1112.68 1408.05 1139.68 1349.05L1107.38 1331.25L756.478 1396.05L561.578 1240.65L501.778 1201.05L478.578 1271.75C485.678 1279.35 492.978 1286.95 500.178 1294.55Z" fill="#FF0E03"/>
<path d="M666.68 1594.05C690.48 1587.85 718.88 1582.55 751.18 1580.55C816.98 1576.55 871.68 1588.05 909.18 1599.55C967.38 1524.45 1027.88 1482.55 1068.18 1459.55C1107.28 1437.25 1184.28 1393.25 1223.18 1422.55C1232.48 1429.55 1237.38 1439.15 1240.18 1446.55C1244.28 1440.65 1248.58 1433.05 1251.98 1423.65C1260.78 1398.75 1256.88 1376.35 1254.18 1365.55C1258.18 1372.15 1262.18 1378.85 1266.18 1385.45C1266.18 1385.45 1276.38 1428.25 1255.58 1452.15C1234.68 1476.05 1255.58 1452.15 1255.58 1452.15L1221.38 1497.55L1217.68 1467.35C1217.68 1467.35 1217.28 1432.25 1176.48 1447.65C1135.68 1463.05 1176.48 1447.65 1176.48 1447.65C1161.98 1451.85 1140.98 1459.15 1117.18 1471.55C1065.18 1498.75 1033.88 1533.15 1003.18 1567.55C1003.18 1567.55 984.78 1588.15 911.78 1688.35C911.78 1688.35 738.88 1629.65 676.78 1649.35C614.68 1669.05 676.78 1649.35 676.78 1649.35L666.68 1594.05Z" fill="#FF0E03"/>
<path d="M474.78 1186.35C470.08 1208.35 465.48 1230.35 460.78 1252.35C499.48 1293.35 545.88 1350.15 587.78 1424.35C636.18 1510.05 662.18 1589.65 676.78 1649.35C702.18 1648.45 730.78 1649.05 761.78 1652.35C821.98 1658.75 872.68 1673.45 911.78 1688.35C929.28 1657.65 956.98 1615.45 998.78 1572.35C1071.08 1497.75 1182.78 1424.85 1210.78 1449.35C1217.88 1455.55 1222.28 1470.35 1209.78 1508.35C1261.28 1462.95 1280.68 1407.95 1262.78 1378.35C1250.98 1358.95 1223.78 1351.45 1208.78 1347.35C1174.48 1337.95 1145.08 1344.25 1130.78 1348.35C1121.08 1341.05 1111.48 1333.65 1101.78 1326.35C1062.08 1337.65 1022.48 1349.05 982.78 1360.35L765.78 1400.35L647.78 1349.35L571.78 1251.35L497.98 1175.55L474.78 1186.35Z" stroke="#050505" stroke-width="11" stroke-miterlimit="5"/>
<path d="M1343.18 576.65C1343.08 582.45 1342.18 588.05 1340.48 593.35C1338.78 598.65 1336.38 603.75 1333.28 608.25C1330.18 612.75 1326.48 616.75 1322.28 620.05C1318.08 623.35 1313.48 626.05 1308.68 627.95C1313.08 625.25 1317.08 621.85 1320.38 618.05C1323.78 614.25 1326.48 609.95 1328.48 605.55C1330.48 601.05 1331.78 596.35 1332.38 591.55C1332.98 586.75 1332.88 581.95 1332.08 577.35L1343.18 576.65Z" fill="#050505"/>
<path d="M1419.98 551.151C1417.88 536.751 1415.08 516.751 1398.98 507.151C1386.78 499.851 1368.18 499.251 1355.98 508.151C1333.38 524.751 1353.48 559.851 1331.98 584.151C1313.58 604.851 1272.68 608.851 1247.98 592.151C1227.48 578.351 1223.48 553.951 1217.98 517.151C1212.78 482.651 1216.18 465.751 1216.98 427.151C1218.18 365.551 1218.88 334.651 1206.98 301.151C1201.88 286.851 1181.88 230.151 1127.98 204.151C1091.18 186.351 1056.38 191.551 1004.98 199.151C966.88 204.751 928.279 210.551 882.979 232.151C855.879 245.051 839.479 257.451 815.979 253.151C794.979 249.251 782.179 234.651 766.979 218.151C739.279 188.251 708.579 161.251 679.979 132.151C679.979 132.151 588.279 38.0507 490.079 10.2507C478.579 6.95068 468.579 5.95068 459.079 6.25068C459.079 6.25068 443.679 6.85068 429.079 12.2507C395.279 24.8507 375.279 66.3507 356.979 105.151C350.679 118.551 342.579 137.451 334.979 160.951C251.879 172.051 192.779 200.551 156.979 222.151C122.079 243.151 47.4791 288.151 52.9791 335.151C55.9791 360.951 80.0791 360.751 101.979 401.151C127.179 447.551 111.279 477.051 125.479 520.151C135.279 550.151 160.279 588.651 227.979 623.151C216.579 628.051 203.179 632.751 187.979 636.151C145.979 645.651 109.579 641.251 85.9791 636.151C84.5791 630.751 82.7791 622.751 80.9791 613.151C75.2791 582.051 77.8791 572.551 69.9791 564.151C61.9791 555.651 47.7791 552.951 36.9791 556.151C12.7791 563.351 7.87911 599.851 6.97911 606.151C4.67911 623.151 9.07911 628.651 22.9791 680.651C35.1791 726.151 34.0791 730.051 41.9791 740.151C49.8791 750.151 54.0791 750.151 87.9791 776.151C118.879 799.751 115.679 800.051 119.979 801.151C153.279 810.051 177.279 752.451 255.979 717.151C298.479 698.151 314.579 704.451 320.979 708.151C334.479 715.751 339.079 730.551 345.979 759.151C360.379 818.851 367.579 848.751 369.979 893.151C371.379 918.751 371.879 953.651 367.979 995.151C610.179 956.951 852.279 918.851 1094.48 880.651L1104.38 829.751C1126.88 756.751 1156.88 733.751 1179.98 726.151C1195.78 720.851 1216.48 722.351 1257.98 725.151C1308.08 728.551 1337.98 737.351 1355.98 720.151C1360.18 716.151 1364.58 709.951 1375.98 700.151C1389.58 688.451 1394.18 687.951 1399.98 682.151C1411.58 670.451 1407.68 657.551 1410.98 623.151C1415.18 579.651 1423.58 576.651 1419.98 551.151ZM425.279 537.851C405.079 529.551 375.079 516.651 357.279 485.851C344.779 464.251 343.979 443.651 343.279 414.851C341.779 356.251 355.279 311.451 359.279 298.851C381.079 230.451 416.979 189.251 434.279 169.851C461.379 139.451 475.479 134.051 484.279 131.851C509.579 125.451 531.979 135.351 568.279 151.851C596.479 164.751 620.779 175.751 646.779 198.051C657.979 207.651 727.079 268.851 734.279 367.851C736.379 396.551 739.779 443.851 709.279 482.851C687.679 510.451 660.279 519.551 619.879 532.851C583.579 544.851 505.079 570.751 425.279 537.851ZM891.079 648.251C869.379 670.751 847.579 685.251 832.079 694.251C818.679 686.251 799.879 674.051 779.079 657.251C745.679 630.251 689.579 577.151 698.279 562.751C701.479 557.451 717.879 550.351 828.079 597.351C868.179 573.351 932.779 537.851 945.079 552.251C956.179 565.351 921.479 616.851 891.079 648.251ZM1131.58 444.251C1114.28 471.051 1075.18 451.651 993.579 465.251C905.679 479.851 863.679 516.951 842.579 496.251C833.879 487.651 832.479 465.251 829.579 420.251C828.279 399.351 827.579 388.851 828.579 381.251C836.779 319.051 917.279 282.951 930.579 277.251C978.979 256.551 1035.68 254.051 1056.58 271.251C1058.98 273.251 1066.38 279.951 1078.58 289.251C1094.18 301.151 1098.68 302.751 1104.58 308.251C1114.58 317.551 1119.58 329.551 1124.58 352.251C1135.88 403.351 1141.48 428.851 1131.58 444.251Z" stroke="#050505" stroke-width="11" stroke-miterlimit="10"/>
<path d="M366.68 911.651C383.68 892.251 400.88 873.151 418.28 854.251C426.98 844.851 435.88 835.451 444.68 826.151C453.48 816.851 462.38 807.551 470.78 797.951C474.98 793.151 478.98 788.251 482.68 783.151C486.38 778.051 489.68 772.651 491.98 766.951C494.28 761.251 495.58 755.051 495.38 748.951C495.28 742.751 493.78 736.651 491.58 730.651C489.38 724.651 486.78 718.851 484.18 712.951C481.58 707.051 478.78 701.351 475.68 695.751C469.48 684.551 462.18 673.951 453.98 664.051C462.48 673.651 470.28 684.051 476.88 695.051C480.18 700.551 483.28 706.251 486.08 712.051C488.88 717.851 491.68 723.651 494.18 729.651C496.68 735.651 498.48 742.151 498.88 748.751C499.28 755.451 498.18 762.151 495.88 768.451C493.58 774.751 490.28 780.451 486.68 785.951C483.08 791.351 479.08 796.551 474.98 801.551C466.78 811.651 458.28 821.251 449.78 830.851C441.28 840.451 432.78 850.151 424.48 859.851C407.78 879.251 391.28 898.951 375.08 918.851L366.68 911.651Z" fill="black"/>
<path d="M227.68 622.65L230.38 586.35L233.08 550.05C234.98 525.85 236.78 501.65 239.18 477.35C240.38 465.25 241.88 453.05 244.18 441.05C246.38 429.05 249.18 417.15 252.38 405.45C258.88 381.95 267.18 359.05 277.18 336.95C268.08 359.45 260.58 382.55 255.08 406.15C252.38 417.95 250.08 429.85 248.28 441.75C246.48 453.65 245.48 465.65 244.68 477.75C243.18 501.95 242.28 526.15 241.28 550.45L239.88 586.85L240.881 623.551L227.68 622.65Z" fill="black"/>
<path d="M89.1797 630.051C89.2797 633.451 89.5797 636.851 90.1797 640.251C90.7797 643.651 91.7797 647.051 92.9797 650.351C94.1797 653.651 95.6797 656.851 97.4797 660.051C99.2797 663.151 101.38 666.151 103.68 668.951C100.68 666.751 97.8797 664.351 95.2797 661.651C92.6797 658.951 90.2797 656.051 88.0797 652.851C85.8797 649.651 83.9797 646.351 82.2797 642.751C80.5797 639.151 78.6797 630.551 78.1797 626.551L89.1797 630.051Z" fill="black"/>
<path d="M371.578 176.15L656.678 538.05C671.278 554.05 668.278 574.75 658.678 581.05C650.978 586.15 636.778 583.45 626.178 572.95L358.678 227.05C349.078 202.75 350.378 182.55 359.678 177.05C361.578 175.95 365.178 174.55 371.578 176.15Z" fill="#D12A06"/>
<path d="M655.779 583.85L359.479 201.45C357.479 206.45 357.279 210.45 357.579 213.45C357.579 213.45 357.879 216.25 361.779 227.35L631.779 572.05C634.579 574.05 637.879 576.15 641.679 578.15C646.879 580.85 651.679 582.65 655.779 583.85Z" fill="#FF0E03"/>
<path d="M372.78 176.951L657.88 538.851C672.48 554.851 669.48 575.551 659.88 581.851C652.18 586.951 637.98 584.251 627.38 573.751L359.88 227.851C350.28 203.551 351.58 183.351 360.88 177.851C362.68 176.751 366.28 175.451 372.78 176.951Z" stroke="black" stroke-width="11" stroke-miterlimit="5"/>
<path d="M497.879 105.651L487.679 548.051C485.979 566.051 499.879 579.051 511.679 578.051C521.279 577.251 530.979 566.851 531.679 553.051L538.979 123.051C533.779 100.451 519.979 88.2505 510.679 90.0505C503.079 91.5505 499.079 102.451 497.879 105.651Z" fill="#D12A06"/>
<path d="M522.98 104.551L512.28 579.651C516.98 577.051 519.68 574.051 521.28 571.651C521.28 571.651 522.88 569.351 526.78 558.451L530.88 318.451L534.08 128.351C533.18 125.051 531.98 121.451 530.28 117.551C527.98 112.451 525.38 108.051 522.98 104.551Z" fill="#FF0E03"/>
<path d="M497.879 105.851L487.679 548.251C485.979 566.251 499.879 579.251 511.679 578.251C521.279 577.451 530.979 567.051 531.679 553.251L538.979 123.251C533.779 100.651 519.979 88.4507 510.679 90.2507C503.079 91.6507 499.079 102.551 497.879 105.851Z" stroke="#050505" stroke-width="11" stroke-miterlimit="5"/>
<path d="M539.677 1221.05C534.477 1220.75 522.077 1219.35 513.677 1210.05C505.777 1201.25 505.677 1190.35 505.677 1174.05C505.577 1153.25 511.277 1138.55 512.677 1135.05C518.277 1121.05 522.177 1111.45 532.677 1106.05C543.277 1100.65 557.877 1100.85 567.677 1108.05C577.477 1115.35 579.477 1127.65 582.677 1152.05C584.877 1168.55 584.977 1182.15 584.677 1191.05C569.677 1201.05 554.677 1211.05 539.677 1221.05Z" fill="white" stroke="black" stroke-width="11" stroke-miterlimit="10"/>
<path d="M533.678 1234.05C554.578 1198.15 583.478 1177.95 602.678 1184.05C615.178 1188.05 627.078 1204.35 629.678 1208.05C637.678 1219.15 634.878 1221.05 644.678 1235.05C652.778 1246.55 658.578 1250.75 659.678 1260.05C660.478 1266.75 658.378 1272.45 656.678 1276.05C647.978 1298.05 639.378 1320.05 630.678 1342.05C626.478 1341.95 620.478 1341.35 613.678 1339.05C596.578 1333.35 585.878 1320.65 569.678 1296.05C559.078 1279.85 546.478 1259.15 533.678 1234.05Z" fill="white" stroke="black" stroke-width="11" stroke-miterlimit="10"/>
<path d="M837.678 1360.05C854.578 1327.55 882.978 1308.05 909.678 1311.05C915.578 1311.75 924.578 1313.85 934.678 1321.05C946.378 1339.75 957.978 1358.35 969.678 1377.05C968.378 1386.25 965.178 1400.25 955.678 1414.05C935.878 1443.05 894.078 1463.45 856.678 1450.05C831.678 1441.15 818.578 1420.75 813.678 1412.05L837.678 1360.05Z" fill="white" stroke="black" stroke-width="11" stroke-miterlimit="10"/>
<path d="M1103.68 1278.05C1126.38 1236.95 1142.08 1200.65 1152.68 1173.05C1167.48 1134.55 1179.38 1103.75 1185.68 1061.05C1192.08 1017.35 1189.88 980.351 1186.68 955.051C1203.88 972.651 1229.78 1004.15 1244.68 1050.05C1259.88 1096.85 1256.08 1135.45 1251.68 1175.05C1247.38 1214.45 1235.68 1275.45 1200.68 1345.05C1192.18 1343.25 1181.28 1341.75 1168.68 1342.05C1151.68 1342.45 1137.68 1345.75 1127.68 1349.05C1123.88 1345.05 1119.88 1341.05 1115.68 1337.05C1109.48 1331.05 1103.38 1325.45 1097.38 1320.25C1099.48 1306.25 1101.58 1292.15 1103.68 1278.05Z" fill="white" stroke="black" stroke-width="11" stroke-miterlimit="10"/>
<path d="M1058.68 1273.05C1061.18 1272.15 1077.58 1266.65 1092.68 1275.35C1111.78 1286.45 1112.48 1311.05 1112.68 1317.05C1112.78 1319.35 1113.28 1354.35 1088.68 1366.05C1087.48 1366.65 1067.38 1375.85 1052.68 1364.05C1043.78 1356.95 1042.08 1346.35 1041.68 1343.05C1041.88 1339.85 1041.98 1334.95 1041.68 1329.05C1040.58 1304.85 1034.38 1297.75 1038.68 1288.05C1042.88 1278.65 1053.48 1274.85 1058.68 1273.05Z" fill="white" stroke="black" stroke-width="11" stroke-miterlimit="10"/>
<path d="M930.678 1341.05C924.878 1326.45 938.378 1302.75 955.678 1292.05C983.678 1274.75 1029.38 1286.85 1041.98 1316.75C1051.48 1339.25 1038.18 1362.05 1035.68 1366.05C1016.88 1396.85 971.078 1408.85 956.878 1394.95C953.378 1391.55 952.078 1386.85 951.578 1382.45C951.378 1379.15 950.778 1373.85 948.578 1367.75C943.278 1352.85 934.078 1349.65 930.678 1341.05Z" fill="white" stroke="black" stroke-width="11" stroke-miterlimit="10"/>
<path d="M702.678 1407.05C704.678 1388.35 708.878 1362.25 718.678 1331.05C727.378 1308.05 735.978 1279.85 741.678 1247.05C749.178 1204.15 749.578 1166.45 747.678 1137.05C778.578 1171.55 797.278 1203.95 808.478 1226.45C856.578 1323.45 844.178 1399.55 834.678 1416.05C829.278 1425.45 821.678 1435.05 821.678 1435.05C815.478 1442.95 811.178 1448.35 805.678 1452.05C800.678 1455.35 792.678 1458.75 767.678 1456.05C734.378 1452.35 713.578 1450.15 704.978 1434.15C701.378 1427.65 701.178 1421.15 702.678 1407.05Z" fill="white" stroke="black" stroke-width="11" stroke-miterlimit="10"/>
<path d="M628.678 1356.05C627.078 1341.65 630.178 1330.65 632.678 1322.05C636.378 1309.35 646.278 1275.65 667.678 1272.05C682.878 1269.55 696.778 1283.35 712.678 1299.05C723.178 1309.45 731.378 1317.55 735.678 1331.05C741.678 1349.95 736.078 1366.35 729.678 1385.05C721.378 1409.25 712.578 1434.75 695.678 1437.05C681.778 1438.95 669.478 1424.15 653.678 1405.05C642.978 1392.15 631.178 1377.95 628.678 1356.05Z" fill="white" stroke="black" stroke-width="11" stroke-miterlimit="10"/>
<path d="M994.678 866.05C1012.78 842.65 1040.68 833.05 1040.68 833.05C1070.98 822.65 1097.38 830.25 1106.28 833.25C1120.38 865.95 1156.28 960.55 1130.68 1079.05C1102.48 1209.65 1017.98 1284.45 991.678 1306.05C1016.58 1170.75 1005.58 1076.15 989.678 1013.05C981.778 981.75 960.478 910.15 994.678 866.05Z" fill="white" stroke="black" stroke-miterlimit="10"/>
<path d="M892.478 875.951C895.178 866.551 899.678 862.151 902.678 860.051C908.978 855.551 914.378 856.651 938.678 856.051C957.878 855.651 957.878 854.851 960.678 856.051C977.178 863.151 979.578 890.451 980.678 903.051C981.778 915.451 982.878 927.751 975.678 940.051C970.278 949.351 962.878 953.851 952.678 960.051C936.678 969.751 919.878 979.951 902.678 974.051C899.078 972.851 887.978 968.251 879.678 952.051C883.978 926.651 888.178 901.351 892.478 875.951Z" fill="white" stroke="black" stroke-width="11" stroke-miterlimit="10"/>
<path d="M787.078 872.451C791.078 866.751 801.778 853.051 820.578 848.051C845.778 841.251 874.278 853.051 885.678 873.051C889.978 880.651 890.678 887.451 891.878 899.551C893.878 919.751 890.078 929.551 886.678 954.051C880.578 996.851 887.078 1003.25 877.678 1014.05C863.278 1030.55 837.078 1028.35 833.678 1028.05C814.978 1026.25 802.878 1015.65 797.678 1011.05C782.278 997.251 777.278 980.651 775.678 974.051L787.078 872.451Z" fill="white" stroke="black" stroke-width="11" stroke-miterlimit="10"/>
<path d="M642.678 847.051C639.678 852.151 640.078 857.151 640.678 865.051C641.978 883.351 640.278 901.851 642.678 920.051C644.978 937.351 646.678 963.451 643.678 1001.05C654.478 1017.85 666.278 1028.65 674.278 1034.95C686.378 1044.45 694.678 1050.95 706.678 1051.05C718.078 1051.15 727.378 1045.45 737.678 1039.05C742.178 1036.25 749.178 1031.55 756.678 1024.05C762.578 1018.15 778.778 1002.25 785.678 978.051C787.478 971.951 787.178 955.251 786.678 922.051C786.178 891.551 785.878 888.651 784.678 884.051C782.678 876.451 776.478 852.251 755.678 839.051C744.478 831.951 726.678 832.851 691.178 834.151C656.278 835.551 646.978 839.851 642.678 847.051Z" fill="white" stroke="black" stroke-width="11" stroke-miterlimit="10"/>
<path d="M370.878 933.55C372.878 926.45 381.678 897.85 410.678 880.05C417.378 875.95 446.378 858.15 478.678 870.05C504.578 879.55 522.878 904.45 526.678 934.05C526.978 989.65 523.378 1053.95 511.978 1124.65C494.378 1234.45 463.478 1325.95 433.678 1396.05C415.278 1349.85 397.478 1294.95 384.678 1232.05C360.478 1113.45 362.678 1009.85 370.878 933.55Z" fill="white" stroke="black" stroke-width="11" stroke-miterlimit="10"/>
<path d="M523.879 920.551C526.479 912.351 531.779 901.051 542.679 893.051C568.979 873.851 605.579 890.751 612.679 894.051C630.279 902.151 640.579 914.151 645.679 920.051C652.179 927.751 658.779 935.651 661.679 948.051C664.779 961.351 661.979 972.351 660.679 977.051C654.179 1001.05 635.579 1013.95 629.679 1018.05C623.979 1021.95 606.879 1033.55 582.679 1033.05C578.479 1032.95 564.079 1032.25 548.679 1024.05C541.679 1020.35 535.279 1016.95 530.679 1010.05C523.379 999.251 525.779 987.751 526.679 971.051C527.279 959.251 527.279 942.051 523.879 920.551Z" fill="white" stroke="black" stroke-width="11" stroke-miterlimit="10"/>
<path d="M523.779 929.151C520.479 924.951 499.179 899.251 471.679 902.051C464.979 902.751 450.079 905.851 432.679 928.051C411.579 954.951 403.079 989.251 401.679 1121.05C400.779 1199.55 403.279 1234.35 408.679 1267.05C411.679 1285.45 415.579 1308.95 424.679 1338.05C424.679 1338.05 425.879 1341.85 439.379 1382.45L433.579 1396.05C411.379 1343.15 398.879 1298.15 391.679 1266.15C391.679 1266.15 379.679 1213.55 365.179 1038.75C365.179 1038.75 345.479 874.151 453.079 866.151C560.679 858.151 453.079 866.151 453.079 866.151C456.979 866.051 489.979 865.651 510.279 891.851C521.679 906.451 523.479 922.251 523.779 929.151Z" fill="#E0E0E0"/>
<path d="M533.678 1010.85C533.178 956.65 559.478 915.45 587.178 910.55C599.078 908.45 620.878 911.35 640.178 921.55C646.178 924.75 650.878 928.05 654.178 930.55C647.378 922.25 635.578 909.95 617.678 899.95C596.578 888.15 576.978 884.95 565.578 883.95C565.578 883.95 519.278 891.75 526.678 937.15C534.178 982.55 526.678 937.15 526.678 937.15L533.678 1010.85Z" fill="#E0E0E0"/>
<path d="M645.18 902.551C648.48 897.951 668.98 870.851 705.88 866.751C752.48 861.651 782.28 898.151 784.18 900.551C784.58 894.751 784.58 885.651 781.48 875.251C780.38 871.551 775.68 856.651 764.58 846.151C749.98 832.151 729.48 832.851 702.18 833.651C687.98 834.051 666.98 836.051 642.18 843.651C643.18 863.251 644.18 882.851 645.18 902.551Z" fill="#E0E0E0"/>
<path d="M790.979 915.651C797.879 893.851 817.279 878.651 839.179 877.551C857.879 876.651 875.879 886.351 886.279 902.551C886.279 902.551 893.379 884.651 886.279 874.051C879.179 863.551 886.279 874.051 886.279 874.051C886.279 874.051 861.679 849.751 851.379 848.151C841.079 846.551 851.379 848.151 851.379 848.151C851.379 848.151 823.379 840.151 814.779 849.851C806.179 859.551 814.779 849.851 814.779 849.851C814.779 849.851 784.779 864.151 786.979 872.351C789.179 880.551 786.979 872.351 786.979 872.351L790.979 915.651Z" fill="#E0E0E0"/>
<path d="M892.48 896.451C893.68 895.051 913.28 872.251 942.18 876.551C961.68 879.451 972.98 892.951 975.78 896.451C975.78 896.451 979.48 883.351 972.78 868.451C966.18 853.551 972.78 868.451 972.78 868.451C972.78 868.451 960.18 851.551 944.18 856.551L909.28 857.051C909.28 857.051 890.78 860.251 892.48 896.451Z" fill="#E0E0E0"/>
<path d="M522.178 1121.55C517.478 1154.75 524.578 1183.05 540.178 1193.55C550.378 1200.45 559.978 1200.35 559.978 1200.35C572.378 1200.25 581.878 1192.15 582.178 1192.55C582.378 1192.85 578.378 1195.85 562.178 1206.55C554.678 1211.35 547.178 1216.15 539.578 1220.95C533.978 1219.85 515.078 1215.55 507.978 1200.45C505.678 1195.55 504.478 1189.35 508.278 1169.35C510.678 1157.25 514.678 1140.75 522.178 1121.55Z" fill="#E0E0E0"/>
<path d="M546.18 1216.55C549.28 1222.15 554.48 1230.85 562.18 1240.55C576.68 1258.85 581.98 1258.05 593.18 1273.55C604.48 1289.25 603.68 1296.45 615.18 1305.55C622.48 1311.35 629.98 1314.15 635.18 1315.55C633.28 1324.35 631.28 1333.15 629.38 1341.95C629.38 1341.95 589.98 1328.45 587.08 1319.95C584.18 1311.55 563.28 1286.05 563.28 1286.05C553.78 1269.35 544.28 1252.65 534.68 1236.05C538.48 1229.55 542.38 1223.05 546.18 1216.55Z" fill="#E0E0E0"/>
<path d="M752.18 1138.55C757.18 1164.75 762.98 1205.55 761.18 1255.55C758.08 1342.05 734.08 1401.25 760.98 1420.65C775.48 1431.15 798.38 1425.25 801.18 1424.55C826.08 1418.15 838.48 1397.35 841.18 1392.55C837.68 1407.35 832.28 1418.45 828.18 1425.55C821.28 1437.65 816.18 1446.55 805.58 1451.95C795.68 1457.05 786.28 1456.45 773.18 1455.55C754.98 1454.25 755.88 1449.75 734.18 1447.55C722.38 1446.35 717.18 1447.15 712.18 1442.55C705.08 1435.95 702.28 1424.95 702.38 1424.95C702.48 1424.95 703.28 1426.75 704.18 1428.55C710.28 1422.15 737.08 1392.65 734.18 1351.55C733.18 1337.25 728.88 1325.55 724.78 1317.25C730.98 1301.05 736.88 1282.75 741.68 1262.55C752.98 1214.55 754.18 1171.75 752.18 1138.55Z" fill="#E0E0E0"/>
<path d="M838.178 1401.55C842.378 1406.25 858.478 1423.25 881.778 1423.65C910.978 1424.15 940.178 1398.15 947.178 1359.55C954.878 1366.25 962.478 1372.85 970.178 1379.55C968.078 1388.05 963.578 1401.55 953.478 1415.25C948.278 1422.35 936.378 1438.15 914.678 1446.95C912.678 1447.75 874.078 1462.95 845.078 1444.45C843.278 1442.95 841.478 1441.25 839.678 1439.45C834.878 1434.65 831.078 1429.85 828.078 1425.45C831.478 1417.55 834.878 1409.55 838.178 1401.55Z" fill="#E0E0E0"/>
<path d="M948.18 1355.55C950.18 1358.25 953.48 1361.75 958.18 1364.55C975.48 1374.65 998.18 1365.75 1010.18 1357.55C1032.28 1342.35 1035.68 1317.05 1036.18 1312.55C1037.98 1316.65 1047.38 1338.75 1037.18 1361.55C1027.88 1382.25 1008.68 1389.65 993.18 1395.55C987.98 1397.55 979.28 1400.25 969.18 1398.55C965.58 1397.95 957.48 1396.55 954.18 1390.55C952.38 1387.25 952.98 1384.15 953.18 1380.55C953.48 1374.75 952.88 1366.35 948.18 1355.55Z" fill="#E0E0E0"/>
<path d="M1042.18 1331.55C1043.98 1333.55 1055.88 1346.35 1073.18 1345.55C1091.08 1344.65 1107.38 1329.65 1111.18 1308.55C1112.48 1313.35 1114.48 1323.25 1111.48 1335.25C1107.98 1349.35 1099.68 1358.15 1096.18 1361.55C1092.68 1363.65 1086.38 1366.65 1077.98 1367.15C1062.78 1368.05 1052.08 1359.85 1049.18 1357.55C1046.88 1348.85 1044.48 1340.25 1042.18 1331.55Z" fill="#E0E0E0"/>
<path d="M1194.18 970.551C1208.48 1000.35 1226.28 1048.15 1227.68 1108.45C1230.48 1234.35 1159.48 1322.05 1138.18 1346.55C1158.98 1346.05 1179.78 1345.55 1200.58 1344.95C1212.18 1321.55 1227.48 1286.25 1239.18 1241.55C1252.58 1190.05 1265.48 1140.55 1252.18 1081.55C1246.98 1058.35 1233.48 1015.45 1194.18 970.551Z" fill="#E0E0E0"/>
<path d="M1099.68 1279.05C1124.58 1238.05 1141.38 1201.25 1152.58 1172.95C1165.88 1139.55 1178.88 1106.65 1185.58 1060.95C1191.98 1017.25 1189.78 980.25 1186.58 954.95C1203.78 972.55 1229.68 1004.05 1244.58 1049.95C1259.78 1096.75 1255.98 1135.35 1251.58 1174.95C1247.28 1214.35 1235.58 1275.35 1200.58 1344.95C1192.38 1343.05 1181.38 1341.45 1168.58 1341.95C1150.48 1342.65 1136.08 1347.15 1126.68 1351.05C1123.18 1348.25 1118.58 1343.65 1115.58 1336.95C1111.98 1328.85 1112.68 1321.75 1112.68 1317.05C1112.68 1308.15 1110.38 1295.35 1099.68 1279.05Z" stroke="black" stroke-width="11" stroke-miterlimit="10"/>
<path d="M541.678 1221.05C536.778 1220.95 522.778 1220.15 513.578 1209.95C505.678 1201.25 505.578 1190.45 505.578 1173.95C505.478 1153.15 511.178 1138.45 512.578 1134.95C518.178 1120.95 522.078 1111.35 532.578 1105.95C543.178 1100.55 557.778 1100.75 567.578 1107.95C575.978 1114.15 578.278 1126.85 582.578 1151.95C584.778 1165.05 585.978 1176.15 586.678 1184.05C581.778 1185.95 576.378 1188.45 570.678 1192.05C555.978 1201.35 546.878 1212.95 541.678 1221.05Z" stroke="black" stroke-width="11" stroke-miterlimit="10"/>
<path d="M533.578 1233.95C554.478 1198.05 583.378 1177.85 602.578 1183.95C615.078 1187.95 626.978 1204.25 629.578 1207.95C637.578 1219.05 634.778 1220.95 644.578 1234.95C651.878 1245.35 658.078 1249.95 659.578 1259.95C660.378 1265.25 659.478 1269.85 658.678 1273.05C652.778 1279.45 644.978 1289.35 638.678 1303.05C631.378 1319.15 629.278 1333.65 628.678 1343.05C625.078 1342.55 619.678 1341.45 613.578 1338.95C596.478 1332.15 585.278 1319.85 569.578 1295.95C558.978 1279.85 546.378 1259.15 533.578 1233.95Z" stroke="black" stroke-width="11" stroke-miterlimit="10"/>
<path d="M842.678 1348.05C847.178 1341.25 856.778 1328.75 873.678 1320.05C879.078 1317.25 891.878 1310.85 909.578 1310.95C919.478 1311.05 927.478 1313.15 932.678 1315.05C929.078 1320.45 925.078 1328.45 926.678 1337.05C929.078 1349.55 940.878 1349.85 946.678 1365.05C951.378 1377.45 946.578 1385.15 953.678 1393.05C957.678 1397.45 962.878 1399.25 966.678 1400.05C964.078 1404.55 959.678 1411.65 952.678 1419.05C931.278 1441.85 893.078 1460.55 856.578 1449.95C850.278 1448.15 840.478 1444.35 829.678 1436.05C834.178 1425.65 838.978 1411.35 841.678 1394.05C844.478 1375.65 843.978 1359.75 842.678 1348.05Z" stroke="black" stroke-width="11" stroke-miterlimit="10"/>
<path d="M1058.58 1272.95C1061.08 1272.05 1077.48 1266.55 1092.58 1275.25C1111.68 1286.35 1112.38 1310.95 1112.58 1316.95C1112.68 1319.25 1113.18 1354.25 1088.58 1365.95C1079.48 1370.35 1063.58 1372.95 1052.58 1363.95C1047.08 1359.45 1044.68 1353.55 1043.68 1350.05C1044.48 1345.25 1045.28 1337.85 1044.68 1329.05C1043.08 1307.05 1034.18 1299.05 1038.58 1287.95C1042.28 1278.75 1052.98 1274.95 1058.58 1272.95Z" stroke="black" stroke-width="11" stroke-miterlimit="10"/>
<path d="M930.578 1340.95C924.778 1326.35 938.278 1302.65 955.578 1291.95C983.578 1274.65 1029.28 1286.75 1041.88 1316.65C1051.38 1339.15 1038.08 1361.95 1035.58 1365.95C1016.78 1396.75 970.978 1408.75 956.778 1394.85C953.278 1391.45 951.978 1386.75 951.478 1382.35C951.278 1379.05 950.678 1373.75 948.478 1367.65C943.178 1352.85 933.978 1349.55 930.578 1340.95Z" stroke="black" stroke-width="11" stroke-miterlimit="10"/>
<path d="M712.678 1423.05C721.378 1412.35 724.478 1402.45 729.678 1386.05C735.778 1366.65 739.878 1353.65 736.678 1337.05C734.378 1325.25 729.278 1316.35 725.678 1311.05C731.778 1292.35 737.478 1270.85 741.578 1246.95C748.978 1204.65 749.478 1167.15 747.578 1136.95C778.478 1171.45 797.178 1203.85 808.378 1226.35C856.478 1323.35 844.078 1399.45 834.578 1415.95C829.178 1425.35 821.578 1434.95 821.578 1434.95C815.378 1442.85 811.078 1448.25 805.578 1451.95C800.578 1455.25 792.578 1458.65 767.578 1455.95C758.978 1455.05 705.678 1448.75 704.878 1434.05C704.678 1430.75 707.478 1429.35 712.678 1423.05Z" stroke="black" stroke-width="11" stroke-miterlimit="10"/>
<path d="M890.678 877.051C893.978 866.851 899.178 862.251 902.578 859.951C908.778 855.851 913.578 856.751 938.578 855.951C957.778 855.351 957.978 854.751 960.578 855.951C973.178 861.551 976.578 878.751 980.678 900.051C982.978 912.051 982.878 920.151 980.678 928.051C978.978 934.151 976.478 938.551 975.578 939.951C971.578 946.551 965.678 952.651 952.578 959.951C932.178 971.351 917.578 979.551 902.578 973.951C898.478 972.451 891.778 968.951 885.678 960.051C888.778 948.751 891.778 934.151 892.678 917.051C893.478 901.551 892.378 887.951 890.678 877.051Z" stroke="black" stroke-width="11" stroke-miterlimit="10"/>
<path d="M786.978 872.349C790.978 866.649 801.678 852.949 820.478 847.949C845.678 841.149 874.178 852.949 885.578 872.949C889.878 880.549 890.578 887.349 891.778 899.449C893.778 919.649 889.978 929.449 886.578 953.949C880.478 996.749 886.978 1003.15 877.578 1013.95C863.178 1030.45 836.978 1028.25 833.578 1027.95C815.778 1026.25 803.178 1015.55 797.578 1010.95C792.678 1006.85 789.078 1002.95 786.678 1000.05C786.678 990.049 786.678 980.049 786.678 970.049C786.778 937.449 786.878 904.949 786.978 872.349Z" stroke="black" stroke-width="11" stroke-miterlimit="10"/>
<path d="M642.579 846.95C640.179 850.95 640.279 854.65 640.579 864.95C640.979 878.35 641.679 894.55 642.679 913.05C646.079 916.15 662.079 931.65 663.679 957.05C665.379 983.95 649.579 1001.95 646.679 1005.05C656.479 1019.75 666.979 1029.25 674.279 1034.85C686.379 1044.25 694.679 1050.85 706.679 1050.95C718.079 1051.05 727.379 1045.35 737.679 1038.95C742.179 1036.15 749.179 1031.45 756.679 1023.95C762.579 1018.05 778.779 1002.15 785.679 977.95C787.479 971.85 787.179 955.15 786.679 921.95C786.179 891.45 785.879 888.55 784.679 883.95C782.679 876.35 776.479 852.15 755.679 838.95C744.479 831.85 726.679 832.75 691.179 834.05C656.179 835.45 646.879 839.85 642.579 846.95Z" stroke="black" stroke-width="11" stroke-miterlimit="10"/>
<path d="M370.878 933.451C372.878 926.351 381.678 897.751 410.678 879.951C417.378 875.851 446.378 858.051 478.678 869.951C504.578 879.451 522.878 904.351 526.678 933.951C526.978 989.551 523.378 1053.85 511.978 1124.55C494.378 1234.35 463.478 1325.85 433.678 1395.95C415.278 1349.75 397.478 1294.85 384.678 1231.95C360.378 1113.45 362.678 1009.85 370.878 933.451Z" stroke="black" stroke-width="11" stroke-miterlimit="10"/>
<path d="M523.778 920.451C526.378 912.251 531.678 900.951 542.578 892.951C569.078 873.651 605.878 890.851 612.578 893.951C628.878 901.551 639.478 912.451 645.578 919.951C648.278 923.151 667.478 947.151 660.578 976.951C655.278 999.951 637.678 1012.25 629.578 1017.95C623.878 1021.85 606.778 1033.45 582.578 1032.95C578.378 1032.85 563.978 1032.15 548.578 1023.95C541.578 1020.25 535.178 1016.85 530.578 1009.95C523.278 999.151 525.678 987.651 526.578 970.951C527.178 959.151 527.178 941.951 523.778 920.451Z" stroke="black" stroke-width="11" stroke-miterlimit="10"/>
<path d="M999.68 1280.55L1001.18 1277.55L1010.68 1283.55L998.18 1295.05L999.68 1280.55Z" fill="white"/>
<path d="M978.78 920.35C1019.98 865.15 1041.08 864.85 1049.78 867.35C1087.88 878.25 1083.78 998.25 1082.78 1027.35C1080.68 1089.25 1067.78 1138.05 1057.78 1168.35C1038.18 1227.85 1011.38 1272.85 990.78 1302.35C1008.98 1287.05 1022.68 1273.05 1032.08 1262.75C1032.08 1262.75 1054.18 1249.65 1090.88 1185.05C1128.78 1118.35 1090.88 1185.05 1090.88 1185.05C1108.88 1150.75 1140.58 1078.75 1137.28 983.95C1135.08 919.85 1117.68 869.15 1103.78 837.35C1090.58 835.45 1077.48 833.55 1064.28 831.75C1046.38 834.35 1033.58 840.05 1024.78 845.35C1024.78 845.35 1016.38 850.45 986.88 877.55C984.18 891.85 981.48 906.05 978.78 920.35Z" fill="#E0E0E0"/>
<path d="M631.978 1330.75C631.978 1330.75 675.378 1422.95 721.278 1411.05C767.178 1399.15 721.278 1411.05 721.278 1411.05L708.378 1430.65C708.378 1430.65 690.578 1440.95 679.978 1429.55C669.378 1418.15 679.978 1429.55 679.978 1429.55C679.978 1429.55 615.778 1370.25 631.978 1330.75Z" fill="#E0E0E0"/>
<path d="M984.68 875.05C991.48 858.75 1006.08 850.65 1024.68 840.75C1028.38 838.75 1033.98 835.95 1040.88 833.05C1071.18 822.65 1097.58 830.25 1106.48 833.25C1120.58 865.95 1156.48 960.55 1130.88 1079.05C1102.68 1209.65 1018.18 1284.45 991.88 1306.05C1003.48 1222.95 1007.28 1123.25 989.88 1013.05C986.18 989.45 981.68 966.75 976.68 945.05C982.68 933.65 983.78 924.45 983.68 918.05C983.48 905.75 978.58 896.35 982.68 881.05C983.58 877.85 984.48 875.55 984.68 875.05Z" stroke="black" stroke-width="11" stroke-miterlimit="10"/>
<path d="M628.979 1355.35C627.379 1340.95 630.479 1329.95 632.979 1321.35C636.679 1308.65 646.579 1274.95 667.979 1271.35C683.179 1268.85 697.079 1282.65 712.979 1298.35C723.479 1308.75 731.679 1316.85 735.979 1330.35C741.979 1349.25 736.379 1365.65 729.979 1384.35C721.679 1408.55 712.879 1434.05 695.979 1436.35C682.079 1438.25 669.779 1423.45 653.979 1404.35C643.279 1391.55 631.479 1377.25 628.979 1355.35Z" stroke="black" stroke-width="11" stroke-miterlimit="10"/>
</g>
<defs>
<clipPath id="clip0_134_2">
<rect width="1427" height="1696" fill="white"/>
</clipPath>
</defs>
</svg>
