<svg width="51" height="51" viewBox="0 0 51 51" fill="none" xmlns="http://www.w3.org/2000/svg">
<g clip-path="url(#clip0_39_2)">
<path d="M27.7198 3.6941C27.5693 2.65129 35.8832 -0.228873 41.2629 1.5874C42.3956 1.97212 43.4617 2.53054 44.4229 3.24267C45.7501 4.29602 45.6794 4.83623 47.1315 6.40272C49.3676 8.81037 50.5308 8.60422 51.044 10.1647C51.3449 11.0676 51.1418 12.0201 50.743 13.9266C50.421 15.4706 50.1727 15.6346 49.6897 17.5381C49.0576 20.027 49.4143 20.0045 48.9373 21.1496C48.1533 23.0351 46.3972 24.9928 44.8743 24.7611C44.7585 24.743 44.6953 24.7205 44.1219 24.4601C42.6172 23.7755 41.8648 23.4339 40.9619 22.9554C38.1254 21.4581 37.2872 22.1247 36.2971 21.1496C34.5967 19.4733 36.6236 17.0656 35.808 11.9524C35.5537 10.3543 34.9804 6.84964 32.3846 5.04841C30.1154 3.4729 27.801 4.24335 27.7198 3.6941Z" fill="#FF0420"/>
<path d="M25.2128 28.2008C25.1917 27.793 25.5619 27.3506 25.9516 27.3205C26.1864 27.3009 26.4347 27.5282 26.9192 27.9841C27.33 28.3693 27.5362 28.5665 27.5542 28.7862C27.5858 29.1955 27.2066 29.6454 26.8154 29.6665C26.6047 29.6785 26.391 29.4904 25.9712 29.1157C25.4746 28.6733 25.2263 28.4461 25.2128 28.2008Z" fill="#FF0420"/>
<path d="M28.4566 32.0156C28.422 31.6003 28.7862 31.1338 29.1759 31.0977C29.3986 31.0751 29.6544 31.3054 30.157 31.7658C30.5754 32.148 30.7845 32.3437 30.8056 32.5558C30.8447 32.9606 30.476 33.4226 30.0848 33.4587C29.8741 33.4738 29.6559 33.2902 29.2301 32.9245C28.7275 32.4851 28.4762 32.2639 28.4566 32.0156Z" fill="#FF0420"/>
<path d="M23.922 29.939C23.9346 29.7948 23.9856 29.6566 24.0698 29.5388C24.154 29.421 24.2682 29.328 24.4005 29.2693C24.9031 29.0828 25.7142 29.5989 26.2333 30.7094L25.66 31.513C24.5344 31.2527 23.8693 30.5288 23.922 29.939Z" fill="#FF0420"/>
<path d="M28.9101 35.4629C29.0424 35.4088 29.1594 35.323 29.2507 35.2131C29.342 35.1031 29.4049 34.9724 29.4338 34.8324C29.5421 34.2305 28.9281 33.4299 27.7995 33.0522L26.9493 34.1568C27.4835 35.2086 28.3473 35.6811 28.9101 35.4629Z" fill="#FF0420"/>
<path d="M23.8301 33.5553C23.5747 33.3241 23.3465 33.0646 23.1499 32.7818C22.7993 32.2792 22.5345 31.8985 22.6353 31.4516C22.7015 31.1506 22.9363 30.8211 23.2267 30.7489C23.5773 30.6631 23.8888 30.9821 24.3206 31.423C24.5675 31.6769 24.786 31.9569 24.9722 32.2582C24.8926 32.485 24.7784 32.6982 24.6336 32.8902C24.4209 33.1711 24.1458 33.3988 23.8301 33.5553V33.5553Z" fill="#FF0420"/>
<path d="M25.4445 36.184C25.6981 36.4837 25.9809 36.7574 26.2886 37.0011C26.8289 37.4285 27.2397 37.7535 27.6866 37.6738C27.9875 37.6211 28.3036 37.3909 28.3517 37.0719C28.4104 36.6851 28.0598 36.3195 27.5737 35.7988C27.2986 35.5074 26.9962 35.2428 26.6709 35.0088C26.4477 35.0813 26.2396 35.194 26.0569 35.3413C25.7832 35.5645 25.5722 35.8548 25.4445 36.184V36.184Z" fill="#FF0420"/>
<path d="M23.5799 38.5595C23.8924 38.9173 24.2379 39.2449 24.6119 39.5378C25.2691 40.0521 25.7665 40.4397 26.2928 40.3482C26.6388 40.2881 27.0127 40.0283 27.0567 39.6476C27.1083 39.1939 26.6784 38.7504 26.0826 38.1354C25.7462 37.7911 25.3787 37.4785 24.9849 37.2016C24.7253 37.2813 24.4832 37.4094 24.2714 37.5792C23.956 37.837 23.717 38.1759 23.5799 38.5595V38.5595Z" fill="#FF0420"/>
<path d="M20.8483 40.5686C20.9269 41.2742 21.187 41.9475 21.6032 42.5228C21.8728 42.8885 22.1284 43.237 22.5372 43.3116C23.2261 43.4385 23.9779 42.7219 24.1588 41.9564C24.2915 41.3906 24.0916 40.8961 23.9204 40.4697C23.706 39.9425 23.3794 39.4682 22.9635 39.0797C22.5139 39.1257 22.0839 39.2873 21.7153 39.5487C21.3443 39.8094 21.0459 40.1604 20.8483 40.5686V40.5686Z" fill="#FF0420"/>
<path d="M22.1235 35.1033C21.7477 34.7312 21.4035 34.3285 21.0942 33.8995C20.4397 32.9846 20.4652 32.6746 20.4923 32.5452C20.5638 32.2686 20.7313 32.0264 20.9648 31.862C21.1153 31.7416 21.4373 31.4798 21.7669 31.5505C21.8798 31.5746 22.1672 31.6769 22.745 33.1365C22.9391 33.6256 23.0761 34.0394 23.1678 34.3404C22.9798 34.5714 22.7539 34.7688 22.4997 34.9242C22.3795 34.9941 22.2536 35.054 22.1235 35.1033V35.1033Z" fill="#FF0420"/>
<path d="M18.6085 32.702C18.6792 32.6599 19.087 32.4266 19.4677 32.5606C19.9447 32.7276 20.1073 33.3761 20.2382 33.8953C20.3952 34.5312 20.4111 35.1938 20.2848 35.8365L19.3744 36.2097C18.3211 34.9908 17.8365 33.7599 18.1465 33.1926C18.259 32.9944 18.4175 32.8262 18.6085 32.702Z" fill="#FF0420"/>
<path d="M14.5872 33.3866C15.1752 32.8649 16.1977 32.8221 16.8742 33.2343C18.7338 34.364 17.5709 38.7234 17.0586 40.6491C16.9097 41.2071 16.7466 41.2446 16.6971 41.249C16.6128 41.2513 16.4745 41.2008 16.2685 40.8225C15.4066 39.2367 13.0031 34.8114 14.5872 33.3866Z" fill="#FF0420"/>
<path d="M16.1244 45.165C16.4273 44.5293 16.0665 44.0403 15.0149 41.2422C13.8463 38.1337 13.6661 37.0729 13.2784 37.0882C13.0012 37.0993 12.8634 37.6718 12.222 41.1726C11.5428 44.8731 11.4872 45.379 11.8693 45.8021C12.8103 46.8454 15.4994 46.4698 16.1244 45.165Z" fill="#FF0420"/>
<path d="M10.8851 40.8694C11.0943 41.3404 10.7603 41.9228 10.0891 43.0905C9.53837 44.049 9.12305 44.7713 8.62045 44.7367C8.16901 44.7066 7.89213 44.0927 7.51142 43.262C6.93509 42.0055 6.57695 41.2246 6.91854 40.6693C7.56258 39.6205 10.4187 39.8176 10.8851 40.8694Z" fill="#FF0420"/>
<path d="M10.144 32.61C10.767 32.5212 11.2666 33.0298 11.3193 33.0855C11.8189 33.6092 11.7406 34.3179 11.694 34.7513C11.6503 35.1531 11.6127 35.5037 11.3433 35.7309C11.074 35.9581 10.8182 35.9115 9.93487 35.907C8.49329 35.8995 8.3112 35.9927 8.17276 35.8152C7.87181 35.433 8.39999 34.6114 8.874 33.859C9.34801 33.1066 9.6294 32.6807 10.144 32.61Z" fill="#FF0420"/>
<path d="M7.3828 32.356C7.55852 32.3685 7.7278 32.4272 7.87343 32.5264C8.01907 32.6255 8.13586 32.7614 8.21194 32.9203C8.38499 33.3281 8.06146 33.8231 7.39333 34.8329C6.9735 35.4724 6.82152 35.5732 6.6575 35.6244C6.17748 35.7748 5.5259 35.513 5.34984 35.0721C5.20839 34.714 5.43561 34.3739 5.89307 33.6952C6.41222 32.9203 6.81098 32.3274 7.3828 32.356Z" fill="#FF0420"/>
<path d="M5.59079 40.0998C5.84961 40.2503 5.89175 40.467 6.1927 41.9176C6.39735 42.8897 6.44701 43.1019 6.2875 43.305C6.05878 43.5955 5.55317 43.6812 5.19654 43.5323C4.77219 43.3562 4.6518 42.8897 4.47123 42.187C4.24852 41.3202 4.04838 40.5422 4.49079 40.1721C4.64858 40.0573 4.83566 39.9896 5.03034 39.9768C5.22503 39.964 5.41935 40.0067 5.59079 40.0998Z" fill="#FF0420"/>
<path d="M3.44783 39.7446C3.69913 39.9252 3.49749 40.3164 3.54263 41.132C3.5938 42.0349 3.89626 42.4457 3.64797 42.6744C3.55727 42.7389 3.45047 42.777 3.33943 42.7844C3.22839 42.7918 3.11746 42.7684 3.01897 42.7165C2.6819 42.545 2.6488 42.0785 2.59763 41.1952C2.55249 40.3917 2.53593 39.9914 2.81733 39.7867C2.90775 39.721 3.01494 39.6821 3.1265 39.6747C3.23807 39.6672 3.34946 39.6914 3.44783 39.7446V39.7446Z" fill="#FF0420"/>
<path d="M3.46435 33.4332C3.93385 32.4174 5.19034 31.7779 5.53193 32.0397C5.56764 32.0762 5.59563 32.1196 5.61425 32.1671C5.63286 32.2147 5.64171 32.2655 5.64028 32.3166C5.68993 32.768 5.30771 32.9953 4.93753 33.6032C4.50265 34.318 4.63658 34.6565 4.2348 34.8883C4.01059 35.0177 3.66148 35.0914 3.4478 34.941C3.09568 34.6927 3.24465 33.9102 3.46435 33.4332Z" fill="#FF0420"/>
<path d="M2.58995 31.5915C2.90897 31.5719 3.30924 31.7269 3.40855 32.0023C3.48981 32.2235 3.31977 32.377 2.85329 33.1234C2.33113 33.9585 2.27997 34.1872 1.98202 34.2655C1.8369 34.3031 1.68411 34.2991 1.54118 34.2538C1.39826 34.2086 1.27099 34.124 1.17395 34.0097C0.933186 33.6741 1.18899 33.176 1.40418 32.7547C1.61936 32.3334 1.976 31.6306 2.58995 31.5915Z" fill="#FF0420"/>
<path d="M1.47129 39.2703C1.51856 39.2428 1.57153 39.2266 1.62608 39.223C1.68063 39.2193 1.73528 39.2283 1.78579 39.2492C2.01452 39.3561 2.01302 39.7669 2.007 40.1626C2.007 40.3236 1.98894 41.234 1.76623 41.2626C1.62779 41.2822 1.47881 40.9542 1.41862 40.8217C1.17334 40.277 1.11015 39.4674 1.47129 39.2703Z" fill="#FF0420"/>
<path d="M33.3173 32.0398C34.6445 31.8601 35.357 32.2319 35.6966 31.6931C35.7709 31.5315 35.8218 31.356 35.847 31.174C36.0168 30.4017 35.9582 29.9167 35.9973 29.4408C36.0601 28.8604 36.2311 28.3043 36.4978 27.8135C37.0569 26.637 37.6777 26.4861 37.6311 26.0173C37.5725 25.4264 36.5083 25.0133 35.6771 24.9397C33.8975 24.7834 31.8699 26.0712 31.7691 27.4542C31.7301 28.0039 31.9706 28.8911 32.0698 29.2504C32.2531 29.9239 32.3538 29.9688 32.3704 30.328C32.4185 31.3321 31.6669 31.905 31.8323 32.2122C31.954 32.4439 32.4034 32.1583 33.3173 32.0398Z" fill="#FF0420"/>
<path d="M38.7043 26.6748C39.414 26.8101 40.0986 27.0541 40.7337 27.3983C40.9541 27.5184 41.1678 27.6504 41.3738 27.7939C40.7955 28.4995 40.3558 29.3081 40.0779 30.1771C39.1817 33.0395 40.8073 34.5458 40.5081 38.2971C40.3756 39.8611 39.9493 41.3861 39.2515 42.792C38.6175 44.138 37.4762 46.5602 35.4066 47.0672C35.0192 47.161 35.0734 47.0746 33.6082 47.2294C33.6082 47.2294 32.0862 47.3908 30.533 47.676C27.8579 48.1696 26.5233 49.1859 24.0289 49.9065C22.8111 50.2581 21.3069 50.3665 18.3473 50.57C12.8274 50.9486 10.0674 51.1371 8.52464 50.5495C7.38083 50.1133 4.34581 48.6601 2.20864 43.4756C2.35978 43.4088 2.51806 43.3595 2.6804 43.3288C3.16943 43.2424 3.67326 43.3179 4.11551 43.5438C4.65753 43.8243 4.53503 44.0574 4.93245 44.2256C5.68466 44.5415 6.24992 43.7562 6.88076 44.0498C7.41191 44.2935 7.20915 44.9267 7.90164 45.3176C8.23099 45.4942 8.60653 45.5658 8.97777 45.5227C9.53134 45.4622 9.64829 45.1842 9.99982 45.1283C10.8041 44.9999 11.0991 46.3104 12.2737 46.8874C13.4721 47.4758 15.3972 47.21 16.2932 46.2226C16.7754 45.6896 16.9663 44.9411 17.5339 44.902C17.8966 44.8693 17.9904 45.1721 18.3103 45.1342C19.0293 45.0482 19.0515 43.502 19.8101 43.3369C20.1064 43.2709 20.1608 43.5062 21.0632 43.8282C21.6143 44.0248 22.0419 44.1766 22.5455 44.1478C22.6234 44.1408 23.7358 44.0616 24.3333 43.2311C24.9307 42.4006 24.5207 41.4903 25.0568 41.2017C25.417 41.0075 25.6566 41.3863 26.2692 41.2434C26.5602 41.1702 26.8279 41.0245 27.0473 40.8197C27.2666 40.615 27.4305 40.3579 27.5235 40.0727C27.6975 39.439 27.2811 39.0611 27.5517 38.7103C27.8222 38.3595 28.2501 38.6473 28.5737 38.3159C29.0158 37.8742 28.4229 37.1299 28.8611 36.4769C29.1892 35.9941 29.659 36.1934 29.9243 35.7011C30.2363 35.123 29.7412 34.5588 30.0889 34.1754C30.3391 33.9005 30.6661 34.1097 30.9611 33.7946C31.2903 33.4415 31.1335 32.9087 31.3296 32.8548C31.4771 32.8158 31.572 33.0973 31.8197 33.2638C32.3458 33.6183 32.9676 33.0757 34.0543 32.9112C35.3286 32.7177 35.8187 33.2597 36.3158 32.8583C36.7778 32.4857 36.6973 31.7436 36.6984 31.2373C36.6995 30.16 37.0659 28.6281 38.7043 26.6748Z" fill="#FF0420"/>
<path d="M15.5391 6.87616C14.9824 6.94839 14.8018 7.88286 14.3353 8.98286C13.5573 10.8142 12.4709 11.9653 12.68 12.1429C12.7944 12.2407 13.1044 11.8856 13.5829 11.9924C13.938 12.0722 14.0103 12.3235 14.1848 12.2934C14.5099 12.2362 14.3865 11.3363 14.7867 10.1867C14.9267 9.78491 15.181 9.26727 15.6896 8.23047C15.9439 7.71282 16.1757 7.2659 15.9906 7.02664C15.9334 6.96654 15.8623 6.9214 15.7836 6.89517C15.7049 6.86893 15.621 6.8624 15.5391 6.87616V6.87616Z" fill="#FF0420"/>
<path d="M10.7911 20.1716C10.5308 20.292 10.3953 20.5854 10.2464 21.3574C10.0462 22.3851 10.147 22.5853 10.0011 23.2504C9.86565 23.8734 9.76332 23.762 9.39013 24.85C8.84841 26.4285 9.01996 26.7866 9.13582 26.9431C9.2863 27.1433 9.56469 27.3208 9.73774 27.2441C10.0387 27.1132 9.72119 26.3728 10.0387 25.2879C10.1892 24.7778 10.287 24.8364 10.4901 24.2345C10.764 23.4174 10.6165 23.2068 10.7911 22.3641C11.068 21.07 11.6488 20.4816 11.393 20.2062C11.2546 20.0603 10.9656 20.0964 10.7911 20.1716Z" fill="#FF0420"/>
<path d="M39.8332 23.3316C37.6979 22.5793 36.5347 22.8802 35.6198 21.9773C34.9065 21.2731 34.899 20.3868 34.8674 17.9144C34.7801 11.1173 34.7169 9.33714 33.5883 7.60664C33.1032 6.85225 32.4618 6.2108 31.7074 5.72566C30.481 4.95972 29.235 4.83934 27.6444 4.82279C22.2408 4.76711 21.8465 6.01608 19.5186 5.27422C17.6256 4.67231 17.0854 3.59037 15.1306 3.631C14.6792 3.64002 13.4754 3.68216 12.4461 4.52183C11.8532 5.00788 11.5252 5.59625 11.1851 6.44043C10.3605 8.48995 10.3936 9.74193 10.0385 11.4438C9.66987 13.1332 9.06181 14.7613 8.23271 16.2787C6.74749 19.1468 5.43381 19.997 5.82505 21.3754C6.03723 22.1068 6.59851 22.5326 6.72792 23.7831C6.8074 24.2893 6.75559 24.8074 6.57745 25.2879C6.35925 25.8296 6.05228 26.0403 5.22314 26.7927C5.22314 26.7927 4.41507 27.533 3.4174 28.5984C2.81548 29.2334 1.85844 30.2717 2.06309 30.5546C2.18347 30.7201 2.57923 30.4538 3.11644 30.7051C3.449 30.8556 3.4174 31.0166 3.71835 31.1565C4.21493 31.3853 4.44065 31.0437 5.07266 31.1565C5.7453 31.2769 5.79044 31.7268 6.42697 31.7584C6.89646 31.781 6.93859 31.5403 7.32984 31.608C7.91971 31.7103 7.99194 32.2911 8.53367 32.3604C8.87224 32.404 8.90234 32.1843 9.43654 32.0594C9.52081 32.0398 10.5606 31.8096 11.2423 32.3604C11.7163 32.7426 11.6681 33.2211 11.9947 33.2632C12.3949 33.3144 12.6116 32.6132 13.048 32.6613C13.4152 32.7019 13.4453 33.2196 13.8004 33.2632C14.1902 33.3114 14.3015 32.708 15.0042 32.3604C15.4739 32.1399 16.005 32.0868 16.509 32.2099C17.1004 32.3799 17.2885 32.7712 17.5624 32.6613C17.8362 32.5515 17.7399 32.0428 18.1643 31.7584C18.3435 31.6448 18.5546 31.592 18.7662 31.608C19.4358 31.6606 19.7774 32.4522 19.97 32.3604C20.1626 32.2686 19.8045 31.6561 20.1205 31.1565C20.2025 31.0282 20.3131 30.9207 20.4436 30.8423C20.5742 30.764 20.7211 30.717 20.8729 30.7051C21.4869 30.6795 21.8796 31.4214 22.0767 31.307C22.2739 31.1926 21.845 30.3304 22.2272 29.9527C22.3106 29.8742 22.4153 29.8218 22.5282 29.8022C22.9661 29.7225 23.2806 30.195 23.431 30.1032C23.5815 30.0114 23.2384 29.5223 23.431 29.0498C23.51 28.8749 23.6365 28.7258 23.7961 28.6193C23.9558 28.5129 24.1421 28.4535 24.3339 28.4479C24.7477 28.4569 24.9945 28.8226 25.0863 28.7489C25.2052 28.6526 24.674 28.1199 24.7853 27.545C24.8756 27.0816 25.3647 26.6843 25.8387 26.6422C26.3127 26.6 26.6964 26.9236 26.892 27.0936C28.3111 28.329 30.49 30.6675 30.8045 31.0061C30.9414 30.7715 31.0429 30.518 31.1054 30.2537C31.4154 28.9279 30.5156 28.1259 30.5788 27.1688C30.6645 25.8762 32.4598 25.014 32.9864 24.7612C36.5603 23.0442 40.9949 26.0026 41.4885 26.3412C41.9397 26.2618 42.358 26.0526 42.6923 25.7393C42.8752 25.5652 43.0278 25.3618 43.1437 25.1374C42.1429 24.3638 41.0255 23.7542 39.8332 23.3316ZM16.6595 23.3316C16.2713 25.2758 14.6807 26.3728 13.1985 27.3946C11.8322 28.3366 10.7908 29.0498 9.58702 28.7489C9.52381 28.7323 8.31397 28.4073 7.78127 27.2922C7.20795 26.1065 8.05514 25.3977 8.9851 21.6764C9.38688 20.0828 9.37484 19.6389 9.88797 19.2161C10.9639 18.3358 12.732 18.8519 13.6499 19.1182C14.6431 19.4072 15.7431 19.7292 16.3585 20.7735C16.974 21.8178 16.7347 22.9239 16.6595 23.3316ZM18.9167 11.5943C18.217 14.2774 17.8633 15.6196 17.2614 15.6572C16.6399 15.6964 16.5692 14.3962 15.1547 13.701C14.4024 13.355 13.5615 13.2499 12.7471 13.4001C11.4289 13.6438 10.8646 14.482 10.6404 14.3029C10.3394 14.0592 11.2874 12.4626 12.5966 9.93906C13.8094 7.59912 13.4287 6.99269 14.4023 6.32757C15.3759 5.66246 16.8852 5.46984 18.0138 6.17709C18.5641 6.53875 18.9856 7.06559 19.2176 7.68188C19.5321 8.46437 19.5276 9.24987 18.9167 11.5943ZM32.0083 12.3467C31.9195 13.4302 31.444 14.2232 30.5035 15.8077C29.858 16.8942 29.393 17.6541 28.8483 17.6135C28.15 17.5623 28.2358 16.2592 27.0425 15.3563C26.5692 15.0181 26.027 14.7888 25.4546 14.6847C24.8823 14.5807 24.2941 14.6045 23.732 14.7544C22.2272 15.1787 21.6795 16.5014 21.1739 16.2592C20.897 16.1267 20.8849 15.418 20.8729 14.002C20.8495 13.2964 20.8999 12.5903 21.0234 11.8953C21.2867 10.5169 21.6674 10.2957 21.7758 10.24C22.0226 10.1136 22.4665 10.0293 22.6786 10.24C23.0127 10.5711 22.638 11.4875 22.5282 12.9486C22.5161 13.1096 22.4966 13.4196 22.6786 13.5505C22.7468 13.5915 22.8248 13.6132 22.9044 13.6132C22.9839 13.6132 23.0619 13.5915 23.1301 13.5505C23.3754 13.4106 23.416 13.057 23.431 12.9486C23.6041 11.7222 25.0863 9.66218 25.5377 9.03619C25.8492 8.60431 26.1713 8.21307 26.0795 8.10773C25.9034 7.90459 24.5371 9.15055 23.8825 8.73523C23.7657 8.65161 23.6754 8.53633 23.6221 8.40301C23.5687 8.26969 23.5547 8.12389 23.5815 7.98284C23.8298 6.94604 27.494 5.89269 29.9016 7.5314C31.5915 8.68407 32.1347 10.8118 32.0083 12.3467Z" fill="#FF0420"/>
</g>
<defs>
<clipPath id="clip0_39_2">
<rect width="51" height="51" fill="white"/>
</clipPath>
</defs>
</svg>
