<svg width="415" height="24" viewBox="0 0 415 24" fill="none" xmlns="http://www.w3.org/2000/svg">
<path d="M2 10.5C1.17157 10.5 0.5 11.1716 0.5 12C0.5 12.8284 1.17157 13.5 2 13.5V10.5ZM414.061 13.0607C414.646 12.4749 414.646 11.5251 414.061 10.9393L404.515 1.3934C403.929 0.807611 402.979 0.807611 402.393 1.3934C401.808 1.97919 401.808 2.92893 402.393 3.51472L410.879 12L402.393 20.4853C401.808 21.0711 401.808 22.0208 402.393 22.6066C402.979 23.1924 403.929 23.1924 404.515 22.6066L414.061 13.0607ZM2 13.5H413V10.5H2V13.5Z" fill="#FF0420"/>
</svg>
