<svg viewBox="0 0 26 26" width="36" height="36">
  <defs>
    <linearGradient id="mouse-gradient" x1="0%" y1="0%" x2="0%" y2="100%">
      <stop offset="0%" stop-color="#fff" stop-opacity="1.0">
        <animate
          dur="1s"
          values="1.0; 1.0; 0.0; 0.0; 1.0"
          repeatCount="indefinite"
          attributeName="stop-opacity"
        ></animate>
      </stop>
      <stop offset="100%" stop-color="#fff" stop-opacity="0.0">
        <animate
          dur="1s"
          values="0.0; 1.0; 1.0; 0.0; 0.0"
          repeatCount="indefinite"
          attributeName="stop-opacity"
        ></animate>
      </stop>
    </linearGradient>
  </defs>
  <path
    d="M13.2,26h-0.4c-4.5,0-8.2-3.7-8.2-8.2V8.2C4.6,3.7,8.3,0,12.8,0h0.4c4.5,0,8.2,3.7,8.2,8.2v9.6C21.4,22.3,17.7,26,13.2,26zM12.8,1.5c-3.7,0-6.8,3-6.8,6.7v9.6c0,3.7,3,6.8,6.8,6.8h0.4c3.7,0,6.8-3,6.8-6.8V8.2c0-3.7-3-6.7-6.8-6.7H12.8z"
  ></path>
  <path
    d="M14,10.6C14,10.6,14.1,10.6,14,10.6c0-0.1,0-0.1,0-0.1v-0.1h0C14,9.9,13.5,9.5,13,9.5c-0.5,0-1,0.4-1.1,0.9h0v4.7h0c0,0.6,0.5,1.1,1.1,1.1c0.6,0,1.1-0.5,1.1-1.1c0,0,0,0,0-0.1V10.6z"
    fill="url(#mouse-gradient)"
    class="wheel"
  ></path>
</svg>
