<svg width="36" height="36" viewBox="0 0 36 36" fill="none" xmlns="http://www.w3.org/2000/svg">
<g clip-path="url(#clip0_242_8)">
<path d="M18.2769 36H17.723C11.4923 36 6.3692 30.8769 6.3692 24.6462V11.3538C6.3692 5.12308 11.4923 0 17.723 0H18.2769C24.5077 0 29.6307 5.12308 29.6307 11.3538V24.6462C29.6307 30.8769 24.5077 36 18.2769 36ZM17.723 2.07692C12.6 2.07692 8.30766 6.23077 8.30766 11.3538V24.6462C8.30766 29.7692 12.4615 34.0615 17.723 34.0615H18.2769C23.4 34.0615 27.6923 29.9077 27.6923 24.6462V11.3538C27.6923 6.23077 23.5384 2.07692 18.2769 2.07692H17.723Z" fill="#636363"/>
<path fill-rule="evenodd" clip-rule="evenodd" d="M16.9032 12.5183C17.1915 12.1917 17.5831 12 18 12C18.4169 12 18.8085 12.1917 19.0968 12.5183C19.0968 12.5183 19.0967 12.5183 19.0968 12.5183L22.2565 16.097C22.2566 16.0971 22.2565 16.097 22.2565 16.097C22.4945 16.3665 22.6815 16.6884 22.8084 17.0412C22.9352 17.394 23 17.7722 23 18.1532C23 18.1533 23 18.1532 23 18.1532V22.1728C23 22.6406 22.8454 23.0992 22.5565 23.4454C22.2661 23.7934 21.8615 24 21.4286 24H14.5714C14.1385 24 13.7339 23.7934 13.4435 23.4454C13.1546 23.0992 13 22.6406 13 22.1728V18.1533C13 18.1533 13 18.1533 13 18.1533C13 17.7723 13.0648 17.394 13.1916 17.0412C13.3185 16.6884 13.5054 16.3666 13.7434 16.0971C13.7434 16.0971 13.7434 16.0972 13.7434 16.0971L16.9032 12.5183C16.9033 12.5182 16.9032 12.5183 16.9032 12.5183ZM18 13.6C17.9789 13.6 17.9491 13.6092 17.9191 13.6432L14.7592 17.2222C14.658 17.3368 14.5746 17.4781 14.5168 17.6389C14.459 17.7997 14.4286 17.9749 14.4286 18.1532V22.1728C14.4286 22.2499 14.4546 22.3138 14.4872 22.3529C14.5183 22.3902 14.5497 22.4 14.5714 22.4H21.4286C21.4503 22.4 21.4817 22.3902 21.5128 22.3529C21.5454 22.3138 21.5714 22.2499 21.5714 22.1728V18.1532C21.5714 17.9749 21.541 17.7997 21.4832 17.6389C21.4254 17.4781 21.3421 17.3369 21.2409 17.2222L18.081 13.6433C18.0509 13.6093 18.0211 13.6 18 13.6Z" fill="#636363"/>
</g>
<defs>
<clipPath id="clip0_242_8">
<rect width="36" height="36" fill="white"/>
</clipPath>
</defs>
</svg>
