<svg width="36" height="36" viewBox="0 0 36 36" fill="none" xmlns="http://www.w3.org/2000/svg">
<path d="M18 36C27.9411 36 36 27.9411 36 18C36 8.05888 27.9411 0 18 0C8.05888 0 0 8.05888 0 18C0 27.9411 8.05888 36 18 36Z" fill="#636363"/>
<path d="M8.88048 18.605L8.95824 18.4829L13.6404 11.1577C13.656 11.1334 13.6778 11.1138 13.7036 11.1009C13.7294 11.088 13.7582 11.0823 13.7869 11.0844C13.8157 11.0865 13.8433 11.0963 13.8669 11.1128C13.8906 11.1293 13.9093 11.1519 13.9212 11.1782C14.7035 12.9314 15.3785 15.1115 15.0624 16.4691C14.9274 17.0275 14.5577 17.7838 14.1415 18.4829C14.0875 18.5848 14.0285 18.6845 13.9658 18.7807C13.9512 18.8025 13.9313 18.8203 13.9081 18.8325C13.8848 18.8448 13.8589 18.8511 13.8326 18.8509H9.01728C8.88768 18.8509 8.81208 18.7105 8.88048 18.605Z" fill="#F0EBDF"/>
<path d="M29.7518 19.9662V21.1254C29.7518 21.1923 29.7112 21.2514 29.6521 21.2773C29.2896 21.4328 28.0487 22.0023 27.5328 22.7198C26.2159 24.5522 25.2101 27.173 22.9612 27.173H13.5796C10.2546 27.173 7.56 24.4694 7.56 21.1329V21.026C7.56 20.9371 7.632 20.8651 7.72092 20.8651H12.951C13.0543 20.8651 13.1303 20.9612 13.1209 21.0631C13.0841 21.4088 13.149 21.7578 13.3078 22.0671C13.4598 22.3747 13.6949 22.6337 13.9864 22.8147C14.2778 22.9958 14.6141 23.0917 14.9573 23.0917H17.5464V21.0703H14.9868C14.9568 21.0699 14.9275 21.0614 14.9021 21.0456C14.8766 21.0298 14.8559 21.0074 14.8422 20.9808C14.8285 20.9541 14.8223 20.9242 14.8243 20.8943C14.8263 20.8644 14.8365 20.8357 14.8536 20.8111C14.8817 20.7686 14.913 20.7247 14.9461 20.6743C15.2801 20.1936 15.5912 19.6974 15.8785 19.1875C16.1132 18.7771 16.3408 18.3386 16.5236 17.8987C16.5607 17.8191 16.5902 17.7378 16.6198 17.6582C16.6698 17.5178 16.7216 17.3864 16.7587 17.255C16.7954 17.1441 16.8253 17.0275 16.8548 16.9184C16.9416 16.5447 16.9787 16.1491 16.9787 15.7387C16.9787 15.5778 16.9715 15.4093 16.9564 15.2484C16.9492 15.0727 16.9268 14.897 16.9045 14.7213C16.8873 14.5637 16.8633 14.407 16.8325 14.2515C16.794 14.0152 16.7447 13.7807 16.6849 13.5488L16.6644 13.4602C16.6198 13.2993 16.583 13.146 16.5312 12.985C16.3881 12.4925 16.2239 12.0063 16.0391 11.5278C15.9743 11.3445 15.9005 11.1688 15.8267 10.9932C15.7176 10.7286 15.6064 10.4884 15.5048 10.2609C15.453 10.1572 15.4087 10.0629 15.3644 9.9668C15.3151 9.85864 15.2638 9.75134 15.2107 9.64496C15.1736 9.56576 15.1312 9.4916 15.1016 9.41744L14.7852 8.83316C14.7753 8.81547 14.7708 8.79526 14.7723 8.77505C14.7739 8.75484 14.7813 8.73552 14.7938 8.71953C14.8062 8.70354 14.8231 8.69158 14.8424 8.68515C14.8616 8.67872 14.8823 8.67811 14.9018 8.6834L16.8808 9.2198H16.8862C16.8898 9.2198 16.8919 9.2216 16.8934 9.2216L17.1544 9.2936L17.4409 9.37496L17.5464 9.40448V8.22836C17.5464 7.66064 18.0014 7.2002 18.5634 7.2002C18.8446 7.2002 19.0998 7.31468 19.283 7.50152C19.4659 7.68872 19.5808 7.9436 19.5808 8.22872V9.97436L19.7914 10.0334C19.8086 10.0388 19.8249 10.0469 19.8396 10.0575C19.8914 10.0964 19.9656 10.1536 20.0596 10.2238C20.1337 10.2829 20.2133 10.3552 20.3094 10.429C20.4998 10.5828 20.727 10.7804 20.9768 11.0079C21.0434 11.0655 21.1082 11.1246 21.1676 11.1836C21.526 11.5134 21.8684 11.8603 22.1936 12.2229C22.2901 12.332 22.3844 12.4429 22.4806 12.5595C22.5767 12.678 22.6786 12.7942 22.7671 12.9109C22.8838 13.0664 23.0094 13.2273 23.1185 13.3954C23.1703 13.475 23.2294 13.5564 23.2794 13.6359C23.4198 13.8483 23.5436 14.0686 23.6621 14.2886C23.7121 14.3905 23.764 14.5014 23.8082 14.6104C23.9396 14.9046 24.043 15.2044 24.1096 15.5036C24.1301 15.5684 24.1448 15.6386 24.152 15.7016V15.7164C24.1744 15.8053 24.1819 15.8996 24.1891 15.9957C24.2198 16.3041 24.2023 16.6154 24.1373 16.9184C24.1087 17.0493 24.0722 17.1784 24.0282 17.305C23.9839 17.431 23.9396 17.5621 23.882 17.6859C23.7706 17.948 23.6377 18.2003 23.4846 18.4405C23.4346 18.529 23.3755 18.6234 23.3161 18.7123C23.2513 18.8066 23.1851 18.8955 23.1257 18.9823C23.0443 19.0932 22.9576 19.2098 22.8686 19.3135C22.7894 19.4226 22.7077 19.5316 22.6192 19.6278C22.5003 19.7697 22.3783 19.909 22.253 20.0454C22.1789 20.1325 22.0993 20.2214 22.018 20.301C21.9388 20.3895 21.857 20.4691 21.7832 20.5432C21.6594 20.6671 21.5557 20.7632 21.469 20.8428L21.2656 21.0296C21.2353 21.0559 21.1966 21.0703 21.1565 21.0703H19.5804V23.0917H21.5629C22.0051 23.0915 22.4327 22.9333 22.7686 22.6456C22.8852 22.5441 23.3935 22.1038 23.9947 21.44C24.0149 21.4176 24.0411 21.4015 24.0703 21.3939L29.5463 19.8106C29.5703 19.8039 29.5955 19.8028 29.62 19.8075C29.6445 19.8122 29.6676 19.8224 29.6875 19.8375C29.7073 19.8525 29.7235 19.872 29.7346 19.8943C29.7457 19.9166 29.7515 19.9412 29.7515 19.9662H29.7518Z" fill="#F0EBDF"/>
</svg>
