<svg width="1082" height="1082" viewBox="0 0 1082 1082" fill="none" xmlns="http://www.w3.org/2000/svg">
<g clip-path="url(#clip0_246_3869)">
<path d="M541 1082C839.786 1082 1082 839.786 1082 541C1082 242.214 839.786 0 541 0C242.214 0 0 242.214 0 541C0 839.786 242.214 1082 541 1082Z" fill="#FF0420"/>
<path d="M383.316 684.789C351.103 684.789 324.711 677.209 304.138 662.05C283.835 646.621 273.684 624.695 273.684 596.271C273.684 590.315 274.361 583.005 275.713 574.343C279.234 554.854 284.242 531.437 290.738 504.097C309.145 429.656 356.654 392.435 433.261 392.435C454.105 392.435 472.782 395.954 489.296 402.991C505.809 409.758 518.802 420.045 528.276 433.852C537.75 447.385 542.489 463.628 542.489 482.576C542.489 488.261 541.812 495.435 540.457 504.097C536.398 528.189 531.524 551.606 525.839 574.343C516.365 611.43 499.988 639.176 476.708 657.583C453.428 675.72 422.298 684.789 383.316 684.789ZM389.001 626.318C404.162 626.318 417.018 621.851 427.576 612.918C438.405 603.985 446.12 590.315 450.72 571.908C456.946 546.462 461.685 524.264 464.934 505.316C466.016 499.631 466.557 493.812 466.557 487.854C466.557 463.222 453.698 450.904 427.983 450.904C412.822 450.904 399.83 455.371 389.001 464.304C378.445 473.239 370.865 486.909 366.264 505.316C361.391 523.452 356.517 545.65 351.646 571.908C350.562 577.321 350.021 583.005 350.021 588.961C350.021 613.866 363.016 626.318 389.001 626.318Z" fill="white"/>
<path d="M561.131 680.73C558.153 680.73 555.851 679.782 554.228 677.886C552.873 675.72 552.468 673.285 553.009 670.578L609.044 406.646C609.585 403.668 611.074 401.232 613.51 399.336C615.947 397.442 618.518 396.495 621.225 396.495H729.235C759.282 396.495 783.374 402.72 801.51 415.172C819.919 427.626 829.123 445.626 829.123 469.177C829.123 475.944 828.311 482.983 826.686 490.291C819.919 521.422 806.249 544.432 785.676 559.32C765.373 574.209 737.49 581.653 702.029 581.653H647.213L628.535 670.578C627.992 673.556 626.503 675.99 624.069 677.886C621.632 679.782 619.059 680.73 616.354 680.73H561.131ZM704.872 525.618C716.24 525.618 726.121 522.504 734.513 516.279C743.175 510.053 748.86 501.12 751.567 489.48C752.379 484.877 752.786 480.817 752.786 477.298C752.786 469.447 750.485 463.492 745.882 459.432C741.28 455.1 733.431 452.936 722.332 452.936H673.605L658.175 525.618H704.872Z" fill="white"/>
</g>
<defs>
<clipPath id="clip0_246_3869">
<rect width="1082" height="1082" fill="white"/>
</clipPath>
</defs>
</svg>
