<svg width="180" height="253" viewBox="0 0 180 253" fill="none" xmlns="http://www.w3.org/2000/svg">
<circle cx="25.5" cy="26" r="25.5" fill="url(#paint0_linear_115_12)"/>
<path d="M22.1002 31.2384L17.3365 26.5472C17.0799 26.2944 16.7317 26.1524 16.3687 26.1524C16.0057 26.1524 15.6576 26.2944 15.4009 26.5472C15.1442 26.8 15 27.1428 15 27.5003C15 27.6773 15.0354 27.8526 15.1042 28.0162C15.173 28.1797 15.2738 28.3283 15.4009 28.4534L21.1392 34.1046C21.6746 34.6318 22.5395 34.6318 23.0749 34.1046L37.5991 19.801C37.8558 19.5482 38 19.2054 38 18.8479C38 18.4904 37.8558 18.1476 37.5991 17.8948C37.3424 17.642 36.9943 17.5 36.6313 17.5C36.2683 17.5 35.9201 17.642 35.6635 17.8948L22.1002 31.2384Z" fill="#191919"/>
<path d="M25 50.5V151.5C25 162.546 33.9543 171.5 45 171.5H98.5C109.546 171.5 118.5 162.558 118.5 151.513C118.5 127.734 118.5 86.127 118.5 45.4993C118.5 34.4536 127.454 25.5 138.5 25.5H180" stroke="url(#paint1_linear_115_12)" stroke-width="2"/>
<path d="M51.9998 171.501C49.785 171.22 47.4753 171.021 45.2333 171.501C43.154 171.944 40.6786 169.992 38.4998 170.001C36.7279 170.01 31.3712 164.729 29.4999 165C28.3156 164.846 30.5305 163.241 29.4999 164C25.9998 158 23.1014 153.511 24.9998 155.5C22.5 157 35.4233 173.181 39.9357 183.97C41.5358 187.748 41.4364 192.278 41.6624 196.282C42.1234 204.328 42.0421 212.365 42.0963 220.438C42.1234 224.344 41.9245 228.122 40.9572 231.928C39.9357 235.951 39.0859 240.309 39.2667 244.494C39.4113 247.83 41.3912 253.218 45.6492 252.811C48.6415 252.531 49.7535 249.358 49.9704 246.827C50.2236 243.979 49.4913 241.149 48.5421 238.483C47.3126 235.047 46.4537 231.693 45.7396 228.131C44.4016 221.442 44.2208 215.303 44.1485 208.478C44.1123 205.359 44.4016 202.204 44.5282 199.085C44.6095 197.051 43.9405 192.006 45.2333 190.352C45.387 190.153 45.4503 189.945 45.5678 189.728C48.3251 189.385 45.4593 202.99 45.9746 205.106C46.4989 207.239 49.5455 210.259 51.2994 207.212C52.3661 205.368 51.9774 201.237 51.5886 199.248C51.0643 196.572 50.0156 194.321 49.8529 191.609C49.6992 189.077 50.0156 186.541 50.0156 183.924C50.0156 172.346 56.9998 172.5 88.9998 172.5C90.7717 170.512 58.3056 173.212 59.3814 170.68C54.4998 171.501 54.1786 171.781 51.9998 171.501Z" fill="#88CD01"/>
<defs>
<linearGradient id="paint0_linear_115_12" x1="-6.15517" y1="-10.931" x2="24.6886" y2="71.6963" gradientUnits="userSpaceOnUse">
<stop offset="0.153796" stop-color="#B4D109"/>
<stop offset="0.684991" stop-color="#87CC00"/>
</linearGradient>
<linearGradient id="paint1_linear_115_12" x1="6.29311" y1="-7.22414" x2="90.6269" y2="232.624" gradientUnits="userSpaceOnUse">
<stop offset="0.153796" stop-color="#B4D109"/>
<stop offset="0.684991" stop-color="#87CC00"/>
</linearGradient>
</defs>
</svg>
