<svg width="397" height="77" viewBox="0 0 397 77" fill="none" xmlns="http://www.w3.org/2000/svg">
<g clip-path="url(#clip0_60_9)">
<path d="M396.699 68.1456C397.253 70.7541 396.886 72.8767 395.598 74.5132C394.31 76.1498 392.306 76.9841 389.587 77.0162L25.1735 76.6916C22.5096 76.9846 20.1736 76.2538 18.1654 74.4993C16.2126 73.0056 14.9593 70.9545 14.4055 68.346L1.86144 9.26296C1.30762 6.65444 1.70246 4.66233 3.04605 3.28663C4.33425 1.65008 6.31033 0.685309 8.97423 0.39234L14.7013 0.403153C17.4206 0.371035 19.7844 1.23223 21.7925 2.98676C23.7453 4.48043 24.9987 6.53153 25.5525 9.14005L34.8567 52.9632L369.769 53.0087L360.464 9.18547C359.91 6.57695 360.278 4.45441 361.566 2.81785C362.909 1.44215 364.941 0.738244 367.66 0.706128L373.387 0.716934C376.107 0.684813 378.443 1.41559 380.395 2.90926C382.348 4.40294 383.601 6.45404 384.155 9.06256L396.699 68.1456Z" fill="#FF0420"/>
</g>
<defs>
<clipPath id="clip0_60_9">
<rect width="397" height="77" fill="white"/>
</clipPath>
</defs>
</svg>
