<svg width="397" height="78" viewBox="0 0 397 78" fill="none" xmlns="http://www.w3.org/2000/svg">
<g clip-path="url(#clip0_0_332)">
<path d="M396.699 68.6456C397.253 71.2541 396.886 73.3767 395.598 75.0132C394.31 76.6498 392.306 77.4841 389.587 77.5162L25.1735 77.1916C22.5096 77.4846 20.1736 76.7538 18.1654 74.9993C16.2126 73.5056 14.9593 71.4545 14.4055 68.846L1.86144 9.76296C1.30762 7.15444 1.70246 5.16233 3.04605 3.78663C4.33426 2.15007 6.31034 1.18531 8.97423 0.89234L14.7013 0.903153C17.4206 0.871037 19.7844 1.73224 21.7925 3.48676C23.7453 4.98043 24.9987 7.03153 25.5525 9.64005L34.8567 53.4632L369.769 53.5087L360.464 9.68547C359.91 7.07695 360.278 4.95441 361.566 3.31785C362.909 1.94215 364.941 1.23825 367.66 1.20613L373.387 1.21693C376.107 1.18481 378.443 1.91559 380.395 3.40926C382.348 4.90294 383.601 6.95403 384.155 9.56256L396.699 68.6456Z" fill="url(#paint0_linear_0_332)"/>
</g>
<defs>
<linearGradient id="paint0_linear_0_332" x1="444.33" y1="-110.644" x2="144.345" y2="304.166" gradientUnits="userSpaceOnUse">
<stop offset="0.153796" stop-color="#B4D109"/>
<stop offset="0.684991" stop-color="#87CC00"/>
</linearGradient>
<clipPath id="clip0_0_332">
<rect width="397" height="77" fill="white" transform="translate(0 0.5)"/>
</clipPath>
</defs>
</svg>
