<svg width="232" height="76" viewBox="0 0 232 76" fill="none" xmlns="http://www.w3.org/2000/svg">
<path d="M3.70001 48.0003C3.55334 48.0003 3.44001 47.9536 3.36001 47.8603C3.28001 47.767 3.25334 47.647 3.28001 47.5003L5.50001 37.1403H1.94001C1.80667 37.1403 1.70001 37.0936 1.62001 37.0003C1.54001 36.8936 1.51334 36.7736 1.54001 36.6403L2.00001 34.5003C2.02667 34.3536 2.09334 34.2336 2.20001 34.1403C2.32001 34.047 2.45334 34.0003 2.60001 34.0003H13.36C13.5067 34.0003 13.6133 34.047 13.68 34.1403C13.76 34.2336 13.7867 34.3536 13.76 34.5003L13.3 36.6403C13.2733 36.7736 13.2 36.8936 13.08 37.0003C12.9733 37.0936 12.8467 37.1403 12.7 37.1403H9.14001L6.94001 47.5003C6.91334 47.647 6.84001 47.767 6.72001 47.8603C6.61334 47.9536 6.48667 48.0003 6.34001 48.0003H3.70001Z" fill="#FF0420"/>
<path d="M13.1791 48.0003C13.0457 48.0003 12.9391 47.9536 12.8591 47.8603C12.7791 47.767 12.7524 47.647 12.7791 47.5003L15.5391 34.5003C15.5657 34.3536 15.6391 34.2336 15.7591 34.1403C15.8791 34.047 16.0057 34.0003 16.1391 34.0003H18.7191C18.8657 34.0003 18.9791 34.047 19.0591 34.1403C19.1391 34.2336 19.1657 34.3536 19.1391 34.5003L18.0991 39.3203H23.0391L24.0591 34.5003C24.0857 34.3536 24.1524 34.2336 24.2591 34.1403C24.3791 34.047 24.5124 34.0003 24.6591 34.0003H27.2391C27.3857 34.0003 27.4991 34.047 27.5791 34.1403C27.6591 34.2336 27.6857 34.3536 27.6591 34.5003L24.8791 47.5003C24.8524 47.647 24.7791 47.767 24.6591 47.8603C24.5524 47.9536 24.4257 48.0003 24.2791 48.0003H21.6991C21.5524 48.0003 21.4391 47.9536 21.3591 47.8603C21.2924 47.767 21.2724 47.647 21.2991 47.5003L22.3591 42.5203H17.4391L16.3591 47.5003C16.3324 47.647 16.2591 47.767 16.1391 47.8603C16.0324 47.9536 15.9057 48.0003 15.7591 48.0003H13.1791Z" fill="#FF0420"/>
<path d="M28.0814 48.0003C27.9481 48.0003 27.8414 47.9536 27.7614 47.8603C27.6814 47.767 27.6547 47.647 27.6814 47.5003L30.4414 34.5003C30.4681 34.3536 30.5414 34.2336 30.6614 34.1403C30.7814 34.047 30.9081 34.0003 31.0414 34.0003H40.3814C40.5281 34.0003 40.6347 34.047 40.7014 34.1403C40.7814 34.2336 40.8081 34.3536 40.7814 34.5003L40.4014 36.3803C40.3747 36.527 40.3014 36.647 40.1814 36.7403C40.0614 36.8336 39.9281 36.8803 39.7814 36.8803H33.4014L32.8214 39.5803H38.7414C38.8881 39.5803 39.0014 39.6336 39.0814 39.7403C39.1614 39.8336 39.1881 39.9536 39.1614 40.1003L38.7814 41.8403C38.7547 41.9736 38.6814 42.0936 38.5614 42.2003C38.4547 42.2936 38.3281 42.3403 38.1814 42.3403H32.2414L31.6614 45.1203H38.1814C38.3281 45.1203 38.4347 45.167 38.5014 45.2603C38.5814 45.3536 38.6081 45.4736 38.5814 45.6203L38.1814 47.5003C38.1547 47.647 38.0814 47.767 37.9614 47.8603C37.8547 47.9536 37.7281 48.0003 37.5814 48.0003H28.0814Z" fill="#FF0420"/>
<path d="M45.1713 48.0003C45.0379 48.0003 44.9313 47.9536 44.8513 47.8603C44.7713 47.767 44.7446 47.647 44.7713 47.5003L47.5313 34.5003C47.5579 34.3536 47.6313 34.2336 47.7513 34.1403C47.8713 34.047 47.9979 34.0003 48.1313 34.0003H53.9913C55.0579 34.0003 55.9446 34.1603 56.6513 34.4803C57.3713 34.8003 57.8779 35.2603 58.1713 35.8603C58.4779 36.447 58.5446 37.147 58.3713 37.9603C58.2646 38.467 58.0779 38.907 57.8113 39.2803C57.5579 39.6403 57.2779 39.9336 56.9713 40.1603C56.6779 40.387 56.3979 40.5536 56.1313 40.6603C56.5979 40.927 56.9713 41.327 57.2513 41.8603C57.5313 42.3936 57.5913 43.027 57.4313 43.7603C57.2446 44.6403 56.9179 45.4003 56.4513 46.0403C55.9979 46.667 55.3779 47.1536 54.5913 47.5003C53.8179 47.8336 52.8579 48.0003 51.7113 48.0003H45.1713ZM48.8113 45.4003H51.5913C52.1513 45.4003 52.6179 45.2336 52.9913 44.9003C53.3646 44.567 53.5979 44.187 53.6913 43.7603C53.7979 43.2936 53.7446 42.9003 53.5313 42.5803C53.3313 42.2603 52.9246 42.1003 52.3113 42.1003H49.5113L48.8113 45.4003ZM50.0513 39.5603H52.6113C53.1579 39.5603 53.6046 39.4203 53.9513 39.1403C54.2979 38.8603 54.5179 38.5003 54.6113 38.0603C54.7046 37.6336 54.6579 37.287 54.4713 37.0203C54.2846 36.7403 53.9179 36.6003 53.3713 36.6003H50.6913L50.0513 39.5603Z" fill="#FF0420"/>
<path d="M59.2533 48.0003C59.1199 48.0003 59.0133 47.9536 58.9333 47.8603C58.8533 47.767 58.8266 47.647 58.8533 47.5003L61.6133 34.5003C61.64 34.3536 61.7133 34.2336 61.8333 34.1403C61.9533 34.047 62.0799 34.0003 62.2133 34.0003H71.5533C71.7 34.0003 71.8066 34.047 71.8733 34.1403C71.9533 34.2336 71.98 34.3536 71.9533 34.5003L71.5733 36.3803C71.5466 36.527 71.4733 36.647 71.3533 36.7403C71.2333 36.8336 71.1 36.8803 70.9533 36.8803H64.5733L63.9933 39.5803H69.9133C70.06 39.5803 70.1733 39.6336 70.2533 39.7403C70.3333 39.8336 70.36 39.9536 70.3333 40.1003L69.9533 41.8403C69.9266 41.9736 69.8533 42.0936 69.7333 42.2003C69.6266 42.2936 69.5 42.3403 69.3533 42.3403H63.4133L62.8333 45.1203H69.3533C69.5 45.1203 69.6066 45.167 69.6733 45.2603C69.7533 45.3536 69.78 45.4736 69.7533 45.6203L69.3533 47.5003C69.3266 47.647 69.2533 47.767 69.1333 47.8603C69.0266 47.9536 68.9 48.0003 68.7533 48.0003H59.2533Z" fill="#FF0420"/>
<path d="M76.9672 48.2003C75.6339 48.2003 74.5405 48.0136 73.6872 47.6403C72.8472 47.267 72.2405 46.7736 71.8672 46.1603C71.5072 45.5336 71.3805 44.8736 71.4872 44.1803C71.5139 44.0736 71.5672 43.9803 71.6472 43.9003C71.7405 43.807 71.8472 43.7603 71.9672 43.7603H74.5272C74.7139 43.7603 74.8472 43.7936 74.9272 43.8603C75.0072 43.927 75.0872 44.0136 75.1672 44.1203C75.2205 44.3203 75.3272 44.5136 75.4872 44.7003C75.6472 44.887 75.8672 45.0403 76.1472 45.1603C76.4405 45.267 76.8005 45.3203 77.2272 45.3203C78.0005 45.3203 78.6205 45.2003 79.0872 44.9603C79.5539 44.7203 79.8272 44.3936 79.9072 43.9803C79.9872 43.687 79.9339 43.447 79.7472 43.2603C79.5739 43.0603 79.2605 42.887 78.8072 42.7403C78.3672 42.5803 77.7739 42.4203 77.0272 42.2603C76.0539 42.047 75.2539 41.7536 74.6272 41.3803C74.0005 40.9936 73.5605 40.507 73.3072 39.9203C73.0672 39.3203 73.0339 38.607 73.2072 37.7803C73.4739 36.5536 74.1339 35.587 75.1872 34.8803C76.2405 34.1603 77.6072 33.8003 79.2872 33.8003C80.1539 33.8003 80.9205 33.9203 81.5872 34.1603C82.2672 34.4003 82.8339 34.7203 83.2872 35.1203C83.7405 35.5203 84.0672 35.947 84.2672 36.4003C84.4672 36.8403 84.5339 37.2736 84.4672 37.7003C84.4539 37.807 84.4005 37.907 84.3072 38.0003C84.2139 38.0803 84.1072 38.1203 83.9872 38.1203H81.3072C81.1739 38.1203 81.0539 38.0936 80.9472 38.0403C80.8539 37.987 80.7739 37.9003 80.7072 37.7803C80.7072 37.487 80.5539 37.2336 80.2472 37.0203C79.9405 36.7936 79.5339 36.6803 79.0272 36.6803C78.4539 36.6803 77.9739 36.787 77.5872 37.0003C77.2005 37.2003 76.9605 37.5136 76.8672 37.9403C76.8005 38.207 76.8339 38.4403 76.9672 38.6403C77.1139 38.8403 77.3805 39.0136 77.7672 39.1603C78.1672 39.307 78.7139 39.4603 79.4072 39.6203C80.5805 39.847 81.5005 40.1536 82.1672 40.5403C82.8339 40.9136 83.2805 41.387 83.5072 41.9603C83.7472 42.5336 83.7805 43.2336 83.6072 44.0603C83.3139 45.4203 82.6005 46.4536 81.4672 47.1603C80.3472 47.8536 78.8472 48.2003 76.9672 48.2003Z" fill="#FF0420"/>
<path d="M88.3094 48.0003C88.1627 48.0003 88.0494 47.9536 87.9694 47.8603C87.8894 47.767 87.8627 47.647 87.8894 47.5003L90.1094 37.1403H86.5494C86.4161 37.1403 86.3094 37.0936 86.2294 37.0003C86.1494 36.8936 86.1227 36.7736 86.1494 36.6403L86.6094 34.5003C86.636 34.3536 86.7027 34.2336 86.8094 34.1403C86.9294 34.047 87.0627 34.0003 87.2094 34.0003H97.9694C98.1161 34.0003 98.2227 34.047 98.2894 34.1403C98.3694 34.2336 98.396 34.3536 98.3694 34.5003L97.9094 36.6403C97.8827 36.7736 97.8094 36.8936 97.6894 37.0003C97.5827 37.0936 97.4561 37.1403 97.3094 37.1403H93.7494L91.5494 47.5003C91.5227 47.647 91.4494 47.767 91.3294 47.8603C91.2227 47.9536 91.096 48.0003 90.9494 48.0003H88.3094Z" fill="#FF0420"/>
<path d="M102.124 48.0003C101.991 48.0003 101.884 47.9536 101.804 47.8603C101.724 47.767 101.698 47.647 101.724 47.5003L104.484 34.5003C104.511 34.3536 104.584 34.2336 104.704 34.1403C104.824 34.047 104.951 34.0003 105.084 34.0003H109.964C110.831 34.0003 111.624 34.1203 112.344 34.3603C113.078 34.6003 113.698 34.9536 114.204 35.4203C114.724 35.8736 115.091 36.4403 115.304 37.1203C115.531 37.8003 115.558 38.5803 115.384 39.4603C115.291 40.047 115.198 40.5603 115.104 41.0003C115.011 41.4403 114.891 41.947 114.744 42.5203C114.438 43.7603 113.998 44.787 113.424 45.6003C112.851 46.4136 112.104 47.0203 111.184 47.4203C110.278 47.807 109.131 48.0003 107.744 48.0003H102.124ZM105.824 45.1203H107.924C108.511 45.1203 109.011 45.0336 109.424 44.8603C109.851 44.6736 110.198 44.387 110.464 44.0003C110.744 43.6136 110.958 43.107 111.104 42.4803C111.198 42.0936 111.278 41.747 111.344 41.4403C111.424 41.1336 111.491 40.827 111.544 40.5203C111.611 40.2136 111.678 39.8736 111.744 39.5003C111.904 38.5936 111.804 37.9336 111.444 37.5203C111.084 37.0936 110.464 36.8803 109.584 36.8803H107.584L105.824 45.1203Z" fill="#FF0420"/>
<path d="M116.441 48.0003C116.307 48.0003 116.201 47.9536 116.121 47.8603C116.041 47.767 116.014 47.647 116.041 47.5003L118.801 34.5003C118.827 34.3536 118.901 34.2336 119.021 34.1403C119.141 34.047 119.267 34.0003 119.401 34.0003H128.741C128.887 34.0003 128.994 34.047 129.061 34.1403C129.141 34.2336 129.167 34.3536 129.141 34.5003L128.761 36.3803C128.734 36.527 128.661 36.647 128.541 36.7403C128.421 36.8336 128.287 36.8803 128.141 36.8803H121.761L121.181 39.5803H127.101C127.247 39.5803 127.361 39.6336 127.441 39.7403C127.521 39.8336 127.547 39.9536 127.521 40.1003L127.141 41.8403C127.114 41.9736 127.041 42.0936 126.921 42.2003C126.814 42.2936 126.687 42.3403 126.541 42.3403H120.601L120.021 45.1203H126.541C126.687 45.1203 126.794 45.167 126.861 45.2603C126.941 45.3536 126.967 45.4736 126.941 45.6203L126.541 47.5003C126.514 47.647 126.441 47.767 126.321 47.8603C126.214 47.9536 126.087 48.0003 125.941 48.0003H116.441Z" fill="#FF0420"/>
<path d="M129.475 48.0003C129.328 48.0003 129.215 47.9536 129.135 47.8603C129.068 47.767 129.048 47.647 129.075 47.5003L131.835 34.5003C131.861 34.3536 131.935 34.2336 132.055 34.1403C132.175 34.047 132.308 34.0003 132.455 34.0003H137.895C139.615 34.0003 140.881 34.4003 141.695 35.2003C142.521 35.987 142.781 37.107 142.475 38.5603C142.275 39.507 141.875 40.307 141.275 40.9603C140.688 41.6136 139.988 42.107 139.175 42.4403L140.875 47.3603C140.888 47.4003 140.895 47.4336 140.895 47.4603C140.895 47.487 140.888 47.527 140.875 47.5803C140.861 47.687 140.801 47.787 140.695 47.8803C140.588 47.9603 140.475 48.0003 140.355 48.0003H137.715C137.461 48.0003 137.288 47.9403 137.195 47.8203C137.115 47.687 137.055 47.567 137.015 47.4603L135.675 43.0603H133.615L132.675 47.5003C132.648 47.647 132.575 47.767 132.455 47.8603C132.335 47.9536 132.201 48.0003 132.055 48.0003H129.475ZM134.215 40.2403H136.535C137.161 40.2403 137.661 40.087 138.035 39.7803C138.408 39.4736 138.655 39.0536 138.775 38.5203C138.881 38.0003 138.815 37.5803 138.575 37.2603C138.348 36.9403 137.908 36.7803 137.255 36.7803L134.955 36.7803L134.215 40.2403Z" fill="#FF0420"/>
<path d="M143.023 48.0003C142.876 48.0003 142.763 47.9536 142.683 47.8603C142.603 47.767 142.576 47.647 142.603 47.5003L145.383 34.5003C145.409 34.3536 145.483 34.2336 145.603 34.1403C145.723 34.047 145.849 34.0003 145.983 34.0003H148.683C148.816 34.0003 148.923 34.047 149.003 34.1403C149.083 34.2336 149.109 34.3536 149.083 34.5003L146.303 47.5003C146.276 47.647 146.203 47.767 146.083 47.8603C145.976 47.9536 145.856 48.0003 145.723 48.0003H143.023Z" fill="#FF0420"/>
<path d="M152.987 48.0003C152.761 48.0003 152.587 47.9403 152.467 47.8203C152.361 47.7003 152.301 47.5603 152.287 47.4003L150.927 34.5403C150.914 34.367 150.954 34.2336 151.047 34.1403C151.141 34.047 151.261 34.0003 151.407 34.0003H153.807C154.021 34.0003 154.174 34.0603 154.267 34.1803C154.361 34.287 154.414 34.4003 154.427 34.5203L155.287 43.7603L160.087 34.5203C160.141 34.4003 160.234 34.287 160.367 34.1803C160.501 34.0603 160.674 34.0003 160.887 34.0003H163.567C163.727 34.0003 163.827 34.067 163.867 34.2003C163.921 34.3203 163.914 34.4536 163.847 34.6003L157.047 47.4003C156.967 47.5603 156.847 47.7003 156.687 47.8203C156.541 47.9403 156.347 48.0003 156.107 48.0003H152.987Z" fill="#FF0420"/>
<path d="M163.094 48.0003C162.948 48.0003 162.834 47.9536 162.754 47.8603C162.674 47.767 162.648 47.647 162.674 47.5003L163.214 44.9603C163.241 44.827 163.314 44.7136 163.434 44.6203C163.554 44.5136 163.688 44.4603 163.834 44.4603H166.354C166.501 44.4603 166.608 44.5136 166.674 44.6203C166.754 44.7136 166.781 44.827 166.754 44.9603L166.214 47.5003C166.188 47.647 166.114 47.767 165.994 47.8603C165.888 47.9536 165.761 48.0003 165.614 48.0003H163.094Z" fill="#FF0420"/>
<path d="M6.12001 75.2003C5.28001 75.2003 4.50001 75.087 3.78001 74.8603C3.06001 74.6336 2.45334 74.2936 1.96001 73.8403C1.46667 73.387 1.11334 72.8203 0.900006 72.1403C0.700006 71.4603 0.673339 70.667 0.820006 69.7603C0.926672 69.187 1.04001 68.6136 1.16001 68.0403C1.29334 67.467 1.42667 66.887 1.56001 66.3003C2.00001 64.5003 2.79334 63.1336 3.94001 62.2003C5.08667 61.267 6.63334 60.8003 8.58001 60.8003C9.42001 60.8003 10.1933 60.9203 10.9 61.1603C11.62 61.387 12.2267 61.7336 12.72 62.2003C13.2267 62.667 13.58 63.2403 13.78 63.9203C13.9933 64.6003 14.02 65.3936 13.86 66.3003C13.7667 66.887 13.6533 67.467 13.52 68.0403C13.4 68.6136 13.2733 69.187 13.14 69.7603C12.6867 71.587 11.8867 72.9536 10.74 73.8603C9.59334 74.7536 8.05334 75.2003 6.12001 75.2003ZM6.38001 72.3203C7.10001 72.3203 7.73334 72.107 8.28001 71.6803C8.82667 71.2536 9.21334 70.5736 9.44001 69.6403C9.58667 69.0536 9.71334 68.5003 9.82001 67.9803C9.94001 67.4603 10.0467 66.9203 10.14 66.3603C10.3133 65.427 10.2333 64.747 9.90001 64.3203C9.56667 63.8936 9.04001 63.6803 8.32001 63.6803C7.60001 63.6803 6.96667 63.8936 6.42001 64.3203C5.88667 64.747 5.50667 65.427 5.28001 66.3603C5.13334 66.9203 5.00001 67.4603 4.88001 67.9803C4.77334 68.5003 4.66667 69.0536 4.56001 69.6403C4.40001 70.5736 4.48001 71.2536 4.80001 71.6803C5.12001 72.107 5.64667 72.3203 6.38001 72.3203Z" fill="#FF0420"/>
<path d="M14.8783 75.0003C14.745 75.0003 14.6383 74.9536 14.5583 74.8603C14.4783 74.767 14.4516 74.647 14.4783 74.5003L17.2383 61.5003C17.265 61.3536 17.3316 61.2336 17.4383 61.1403C17.5583 61.047 17.6916 61.0003 17.8383 61.0003H19.9583C20.1716 61.0003 20.3183 61.047 20.3983 61.1403C20.4783 61.2336 20.5316 61.3136 20.5583 61.3803L23.8183 69.1203L25.4383 61.5003C25.465 61.3536 25.5383 61.2336 25.6583 61.1403C25.7783 61.047 25.905 61.0003 26.0383 61.0003H28.4383C28.585 61.0003 28.6916 61.047 28.7583 61.1403C28.8383 61.2336 28.865 61.3536 28.8383 61.5003L26.0783 74.5003C26.0516 74.6336 25.9783 74.7536 25.8583 74.8603C25.7516 74.9536 25.625 75.0003 25.4783 75.0003H23.3583C23.145 75.0003 22.9983 74.9536 22.9183 74.8603C22.8383 74.7536 22.785 74.6736 22.7583 74.6203L19.4583 67.1603L17.8783 74.5003C17.8516 74.647 17.7783 74.767 17.6583 74.8603C17.5516 74.9536 17.425 75.0003 17.2783 75.0003H14.8783Z" fill="#FF0420"/>
<path d="M36.6492 75.0003C36.5026 75.0003 36.3892 74.9536 36.3092 74.8603C36.2292 74.767 36.2026 74.647 36.2292 74.5003L38.4492 64.1403H34.8892C34.7559 64.1403 34.6492 64.0936 34.5692 64.0003C34.4892 63.8936 34.4626 63.7736 34.4892 63.6403L34.9492 61.5003C34.9759 61.3536 35.0426 61.2336 35.1492 61.1403C35.2692 61.047 35.4026 61.0003 35.5492 61.0003H46.3092C46.4559 61.0003 46.5626 61.047 46.6292 61.1403C46.7092 61.2336 46.7359 61.3536 46.7092 61.5003L46.2492 63.6403C46.2226 63.7736 46.1492 63.8936 46.0292 64.0003C45.9226 64.0936 45.7959 64.1403 45.6492 64.1403H42.0892L39.8892 74.5003C39.8626 74.647 39.7892 74.767 39.6692 74.8603C39.5626 74.9536 39.4359 75.0003 39.2892 75.0003H36.6492Z" fill="#FF0420"/>
<path d="M46.1283 75.0003C45.9949 75.0003 45.8883 74.9536 45.8083 74.8603C45.7283 74.767 45.7016 74.647 45.7283 74.5003L48.4883 61.5003C48.515 61.3536 48.5883 61.2336 48.7083 61.1403C48.8283 61.047 48.9549 61.0003 49.0883 61.0003H51.6683C51.815 61.0003 51.9283 61.047 52.0083 61.1403C52.0883 61.2336 52.115 61.3536 52.0883 61.5003L51.0483 66.3203H55.9883L57.0083 61.5003C57.035 61.3536 57.1016 61.2336 57.2083 61.1403C57.3283 61.047 57.4616 61.0003 57.6083 61.0003H60.1883C60.335 61.0003 60.4483 61.047 60.5283 61.1403C60.6083 61.2336 60.635 61.3536 60.6083 61.5003L57.8283 74.5003C57.8016 74.647 57.7283 74.767 57.6083 74.8603C57.5016 74.9536 57.375 75.0003 57.2283 75.0003H54.6483C54.5016 75.0003 54.3883 74.9536 54.3083 74.8603C54.2416 74.767 54.2216 74.647 54.2483 74.5003L55.3083 69.5203H50.3883L49.3083 74.5003C49.2816 74.647 49.2083 74.767 49.0883 74.8603C48.9816 74.9536 48.855 75.0003 48.7083 75.0003H46.1283Z" fill="#FF0420"/>
<path d="M61.0306 75.0003C60.884 75.0003 60.7706 74.9536 60.6906 74.8603C60.6106 74.767 60.584 74.647 60.6106 74.5003L63.3906 61.5003C63.4173 61.3536 63.4906 61.2336 63.6106 61.1403C63.7306 61.047 63.8573 61.0003 63.9906 61.0003H66.6906C66.824 61.0003 66.9306 61.047 67.0106 61.1403C67.0906 61.2336 67.1173 61.3536 67.0906 61.5003L64.3106 74.5003C64.284 74.647 64.2106 74.767 64.0906 74.8603C63.984 74.9536 63.864 75.0003 63.7306 75.0003H61.0306Z" fill="#FF0420"/>
<path d="M72.475 75.2003C71.1417 75.2003 70.0483 75.0136 69.195 74.6403C68.355 74.267 67.7483 73.7736 67.375 73.1603C67.015 72.5336 66.8883 71.8736 66.995 71.1803C67.0217 71.0736 67.075 70.9803 67.155 70.9003C67.2483 70.807 67.355 70.7603 67.475 70.7603H70.035C70.2217 70.7603 70.355 70.7936 70.435 70.8603C70.515 70.927 70.595 71.0136 70.675 71.1203C70.7283 71.3203 70.835 71.5136 70.995 71.7003C71.155 71.887 71.375 72.0403 71.655 72.1603C71.9483 72.267 72.3083 72.3203 72.735 72.3203C73.5083 72.3203 74.1283 72.2003 74.595 71.9603C75.0617 71.7203 75.335 71.3936 75.415 70.9803C75.495 70.687 75.4417 70.447 75.255 70.2603C75.0817 70.0603 74.7683 69.887 74.315 69.7403C73.875 69.5803 73.2817 69.4203 72.535 69.2603C71.5617 69.047 70.7617 68.7536 70.135 68.3803C69.5083 67.9936 69.0683 67.507 68.815 66.9203C68.575 66.3203 68.5417 65.607 68.715 64.7803C68.9817 63.5536 69.6417 62.587 70.695 61.8803C71.7483 61.1603 73.115 60.8003 74.795 60.8003C75.6617 60.8003 76.4283 60.9203 77.095 61.1603C77.775 61.4003 78.3417 61.7203 78.795 62.1203C79.2483 62.5203 79.575 62.947 79.775 63.4003C79.975 63.8403 80.0417 64.2736 79.975 64.7003C79.9617 64.807 79.9083 64.907 79.815 65.0003C79.7217 65.0803 79.615 65.1203 79.495 65.1203H76.815C76.6817 65.1203 76.5617 65.0936 76.455 65.0403C76.3617 64.987 76.2817 64.9003 76.215 64.7803C76.215 64.487 76.0617 64.2336 75.755 64.0203C75.4483 63.7936 75.0417 63.6803 74.535 63.6803C73.9617 63.6803 73.4817 63.787 73.095 64.0003C72.7083 64.2003 72.4683 64.5136 72.375 64.9403C72.3083 65.207 72.3417 65.4403 72.475 65.6403C72.6217 65.8403 72.8883 66.0136 73.275 66.1603C73.675 66.307 74.2217 66.4603 74.915 66.6203C76.0883 66.847 77.0083 67.1536 77.675 67.5403C78.3417 67.9136 78.7883 68.387 79.015 68.9603C79.255 69.5336 79.2883 70.2336 79.115 71.0603C78.8217 72.4203 78.1083 73.4536 76.975 74.1603C75.855 74.8536 74.355 75.2003 72.475 75.2003Z" fill="#FF0420"/>
<path d="M85.0931 75.0003C84.9598 75.0003 84.8531 74.9536 84.7731 74.8603C84.6931 74.767 84.6665 74.647 84.6931 74.5003L87.4531 61.5003C87.4798 61.3536 87.5531 61.2336 87.6731 61.1403C87.7931 61.047 87.9198 61.0003 88.0531 61.0003H97.2531C97.3998 61.0003 97.5065 61.047 97.5731 61.1403C97.6531 61.2336 97.6798 61.3536 97.6531 61.5003L97.2331 63.5203C97.2065 63.667 97.1331 63.787 97.0131 63.8803C96.8931 63.9736 96.7598 64.0203 96.6131 64.0203H90.4531L89.8331 66.9603H95.5931C95.7398 66.9603 95.8465 67.0136 95.9131 67.1203C95.9931 67.2136 96.0198 67.3336 95.9931 67.4803L95.5531 69.4803C95.5398 69.6136 95.4731 69.7336 95.3531 69.8403C95.2331 69.9336 95.0998 69.9803 94.9531 69.9803H89.1931L88.2131 74.5003C88.1865 74.647 88.1131 74.767 87.9931 74.8603C87.8865 74.9536 87.7598 75.0003 87.6131 75.0003H85.0931Z" fill="#FF0420"/>
<path d="M101.696 62.6403L101.636 61.0003C101.636 60.8403 101.689 60.7003 101.796 60.5803C101.903 60.4603 102.036 60.4003 102.196 60.4003H103.996C104.169 60.4003 104.276 60.4736 104.316 60.6203C104.356 60.7536 104.343 60.8803 104.276 61.0003L103.536 62.6403L105.156 61.7403C105.276 61.6736 105.409 61.647 105.556 61.6603C105.716 61.6736 105.803 61.7736 105.816 61.9603L106.036 63.7003C106.063 63.8603 106.009 63.9936 105.876 64.1003C105.756 64.1936 105.623 64.247 105.476 64.2603L103.736 64.4003L104.796 65.4803C104.903 65.5736 104.943 65.6936 104.916 65.8403C104.903 65.987 104.823 66.107 104.676 66.2003L102.996 67.2803C102.863 67.3736 102.723 67.4003 102.576 67.3603C102.429 67.3203 102.343 67.2136 102.316 67.0403L102.016 65.4603L101.016 67.0803C100.949 67.187 100.843 67.2803 100.696 67.3603C100.549 67.427 100.409 67.407 100.276 67.3003L99.0559 66.2003C98.9359 66.0936 98.9026 65.967 98.9559 65.8203C99.0226 65.6736 99.1159 65.5603 99.2359 65.4803L100.756 64.4003L99.0759 64.2603C98.9426 64.2603 98.8359 64.2003 98.7559 64.0803C98.6893 63.9603 98.6959 63.8203 98.7759 63.6603L99.7159 61.9403C99.7959 61.7936 99.9093 61.707 100.056 61.6803C100.203 61.6403 100.323 61.6536 100.416 61.7203L101.696 62.6403Z" fill="#FF0420"/>
<path d="M110.602 62.6403L110.542 61.0003C110.542 60.8403 110.596 60.7003 110.702 60.5803C110.809 60.4603 110.942 60.4003 111.102 60.4003H112.902C113.076 60.4003 113.182 60.4736 113.222 60.6203C113.262 60.7536 113.249 60.8803 113.182 61.0003L112.442 62.6403L114.062 61.7403C114.182 61.6736 114.316 61.647 114.462 61.6603C114.622 61.6736 114.709 61.7736 114.722 61.9603L114.942 63.7003C114.969 63.8603 114.916 63.9936 114.782 64.1003C114.662 64.1936 114.529 64.247 114.382 64.2603L112.642 64.4003L113.702 65.4803C113.809 65.5736 113.849 65.6936 113.822 65.8403C113.809 65.987 113.729 66.107 113.582 66.2003L111.902 67.2803C111.769 67.3736 111.629 67.4003 111.482 67.3603C111.336 67.3203 111.249 67.2136 111.222 67.0403L110.922 65.4603L109.922 67.0803C109.856 67.187 109.749 67.2803 109.602 67.3603C109.456 67.427 109.316 67.407 109.182 67.3003L107.962 66.2003C107.842 66.0936 107.809 65.967 107.862 65.8203C107.929 65.6736 108.022 65.5603 108.142 65.4803L109.662 64.4003L107.982 64.2603C107.849 64.2603 107.742 64.2003 107.662 64.0803C107.596 63.9603 107.602 63.8203 107.682 63.6603L108.622 61.9403C108.702 61.7936 108.816 61.707 108.962 61.6803C109.109 61.6403 109.229 61.6536 109.322 61.7203L110.602 62.6403Z" fill="#FF0420"/>
<path d="M119.508 62.6403L119.448 61.0003C119.448 60.8403 119.502 60.7003 119.608 60.5803C119.715 60.4603 119.848 60.4003 120.008 60.4003H121.808C121.982 60.4003 122.088 60.4736 122.128 60.6203C122.168 60.7536 122.155 60.8803 122.088 61.0003L121.348 62.6403L122.968 61.7403C123.088 61.6736 123.222 61.647 123.368 61.6603C123.528 61.6736 123.615 61.7736 123.628 61.9603L123.848 63.7003C123.875 63.8603 123.822 63.9936 123.688 64.1003C123.568 64.1936 123.435 64.247 123.288 64.2603L121.548 64.4003L122.608 65.4803C122.715 65.5736 122.755 65.6936 122.728 65.8403C122.715 65.987 122.635 66.107 122.488 66.2003L120.808 67.2803C120.675 67.3736 120.535 67.4003 120.388 67.3603C120.242 67.3203 120.155 67.2136 120.128 67.0403L119.828 65.4603L118.828 67.0803C118.762 67.187 118.655 67.2803 118.508 67.3603C118.362 67.427 118.222 67.407 118.088 67.3003L116.868 66.2003C116.748 66.0936 116.715 65.967 116.768 65.8203C116.835 65.6736 116.928 65.5603 117.048 65.4803L118.568 64.4003L116.888 64.2603C116.755 64.2603 116.648 64.2003 116.568 64.0803C116.502 63.9603 116.508 63.8203 116.588 63.6603L117.528 61.9403C117.608 61.7936 117.722 61.707 117.868 61.6803C118.015 61.6403 118.135 61.6536 118.228 61.7203L119.508 62.6403Z" fill="#FF0420"/>
<path d="M128.415 62.6403L128.355 61.0003C128.355 60.8403 128.408 60.7003 128.515 60.5803C128.621 60.4603 128.755 60.4003 128.915 60.4003H130.715C130.888 60.4003 130.995 60.4736 131.035 60.6203C131.075 60.7536 131.061 60.8803 130.995 61.0003L130.255 62.6403L131.875 61.7403C131.995 61.6736 132.128 61.647 132.275 61.6603C132.435 61.6736 132.521 61.7736 132.535 61.9603L132.755 63.7003C132.781 63.8603 132.728 63.9936 132.595 64.1003C132.475 64.1936 132.341 64.247 132.195 64.2603L130.455 64.4003L131.515 65.4803C131.621 65.5736 131.661 65.6936 131.635 65.8403C131.621 65.987 131.541 66.107 131.395 66.2003L129.715 67.2803C129.581 67.3736 129.441 67.4003 129.295 67.3603C129.148 67.3203 129.061 67.2136 129.035 67.0403L128.735 65.4603L127.735 67.0803C127.668 67.187 127.561 67.2803 127.415 67.3603C127.268 67.427 127.128 67.407 126.995 67.3003L125.775 66.2003C125.655 66.0936 125.621 65.967 125.675 65.8203C125.741 65.6736 125.835 65.5603 125.955 65.4803L127.475 64.4003L125.795 64.2603C125.661 64.2603 125.555 64.2003 125.475 64.0803C125.408 63.9603 125.415 63.8203 125.495 63.6603L126.435 61.9403C126.515 61.7936 126.628 61.707 126.775 61.6803C126.921 61.6403 127.041 61.6536 127.135 61.7203L128.415 62.6403Z" fill="#FF0420"/>
<path d="M133.101 75.0003C132.968 75.0003 132.861 74.9536 132.781 74.8603C132.701 74.767 132.674 74.647 132.701 74.5003L135.461 61.5003C135.488 61.3536 135.554 61.2336 135.661 61.1403C135.781 61.047 135.914 61.0003 136.061 61.0003H138.181C138.394 61.0003 138.541 61.047 138.621 61.1403C138.701 61.2336 138.754 61.3136 138.781 61.3803L142.041 69.1203L143.661 61.5003C143.688 61.3536 143.761 61.2336 143.881 61.1403C144.001 61.047 144.128 61.0003 144.261 61.0003H146.661C146.808 61.0003 146.914 61.047 146.981 61.1403C147.061 61.2336 147.088 61.3536 147.061 61.5003L144.301 74.5003C144.274 74.6336 144.201 74.7536 144.081 74.8603C143.974 74.9536 143.848 75.0003 143.701 75.0003H141.581C141.368 75.0003 141.221 74.9536 141.141 74.8603C141.061 74.7536 141.008 74.6736 140.981 74.6203L137.681 67.1603L136.101 74.5003C136.074 74.647 136.001 74.767 135.881 74.8603C135.774 74.9536 135.648 75.0003 135.501 75.0003H133.101Z" fill="#FF0420"/>
<path d="M151.812 75.0003C151.679 75.0003 151.572 74.9536 151.492 74.8603C151.412 74.767 151.385 74.647 151.412 74.5003L154.172 61.5003C154.199 61.3536 154.272 61.2336 154.392 61.1403C154.512 61.047 154.639 61.0003 154.772 61.0003H160.092C160.905 61.0003 161.639 61.0936 162.292 61.2803C162.959 61.467 163.512 61.7536 163.952 62.1403C164.392 62.527 164.699 63.0136 164.872 63.6003C165.045 64.1736 165.052 64.847 164.892 65.6203C164.559 67.1536 163.879 68.287 162.852 69.0203C161.839 69.7536 160.472 70.1203 158.752 70.1203H156.052L155.132 74.5003C155.105 74.647 155.032 74.767 154.912 74.8603C154.805 74.9536 154.679 75.0003 154.532 75.0003H151.812ZM156.572 67.3603H158.872C159.419 67.3603 159.905 67.2136 160.332 66.9203C160.772 66.627 161.059 66.1803 161.192 65.5803C161.259 65.2336 161.272 64.927 161.232 64.6603C161.192 64.3936 161.052 64.1803 160.812 64.0203C160.585 63.8603 160.232 63.7803 159.752 63.7803H157.352L156.572 67.3603Z" fill="#FF0420"/>
<path d="M165.327 75.0003C165.194 75.0003 165.088 74.9536 165.008 74.8603C164.928 74.767 164.901 74.647 164.928 74.5003L167.688 61.5003C167.714 61.3536 167.788 61.2336 167.908 61.1403C168.027 61.047 168.154 61.0003 168.288 61.0003H170.928C171.074 61.0003 171.188 61.047 171.268 61.1403C171.348 61.2336 171.374 61.3536 171.348 61.5003L169.107 71.9803H175.148C175.294 71.9803 175.401 72.0336 175.467 72.1403C175.548 72.2336 175.574 72.3536 175.548 72.5003L175.128 74.5003C175.101 74.647 175.027 74.767 174.908 74.8603C174.801 74.9536 174.674 75.0003 174.527 75.0003H165.327Z" fill="#FF0420"/>
<path d="M175.903 75.0003C175.743 75.0003 175.63 74.9336 175.563 74.8003C175.497 74.667 175.503 74.5336 175.583 74.4003L183.003 61.5603C183.083 61.4136 183.197 61.287 183.343 61.1803C183.49 61.0603 183.677 61.0003 183.903 61.0003H186.983C187.21 61.0003 187.37 61.0603 187.463 61.1803C187.57 61.287 187.63 61.4136 187.643 61.5603L189.603 74.4003C189.643 74.587 189.61 74.7336 189.503 74.8403C189.397 74.947 189.277 75.0003 189.143 75.0003H186.723C186.523 75.0003 186.377 74.9536 186.283 74.8603C186.203 74.767 186.15 74.6603 186.123 74.5403L185.783 72.5403H180.443L179.243 74.5803C179.177 74.6736 179.083 74.767 178.963 74.8603C178.857 74.9536 178.703 75.0003 178.503 75.0003H175.903ZM181.863 69.6603H185.583L184.843 64.3803L181.863 69.6603Z" fill="#FF0420"/>
<path d="M191.558 75.0003C191.425 75.0003 191.318 74.9536 191.238 74.8603C191.158 74.767 191.131 74.647 191.158 74.5003L193.918 61.5003C193.945 61.3536 194.011 61.2336 194.118 61.1403C194.238 61.047 194.371 61.0003 194.518 61.0003H196.638C196.851 61.0003 196.998 61.047 197.078 61.1403C197.158 61.2336 197.211 61.3136 197.238 61.3803L200.498 69.1203L202.118 61.5003C202.145 61.3536 202.218 61.2336 202.338 61.1403C202.458 61.047 202.585 61.0003 202.718 61.0003H205.118C205.265 61.0003 205.371 61.047 205.438 61.1403C205.518 61.2336 205.545 61.3536 205.518 61.5003L202.758 74.5003C202.731 74.6336 202.658 74.7536 202.538 74.8603C202.431 74.9536 202.305 75.0003 202.158 75.0003H200.038C199.825 75.0003 199.678 74.9536 199.598 74.8603C199.518 74.7536 199.465 74.6736 199.438 74.6203L196.138 67.1603L194.558 74.5003C194.531 74.647 194.458 74.767 194.338 74.8603C194.231 74.9536 194.105 75.0003 193.958 75.0003H191.558Z" fill="#FF0420"/>
<path d="M205.933 75.0003C205.8 75.0003 205.693 74.9536 205.613 74.8603C205.533 74.767 205.506 74.647 205.533 74.5003L208.293 61.5003C208.32 61.3536 208.393 61.2336 208.513 61.1403C208.633 61.047 208.76 61.0003 208.893 61.0003H218.233C218.38 61.0003 218.486 61.047 218.553 61.1403C218.633 61.2336 218.66 61.3536 218.633 61.5003L218.253 63.3803C218.226 63.527 218.153 63.647 218.033 63.7403C217.913 63.8336 217.78 63.8803 217.633 63.8803H211.253L210.673 66.5803H216.593C216.74 66.5803 216.853 66.6336 216.933 66.7403C217.013 66.8336 217.04 66.9536 217.013 67.1003L216.633 68.8403C216.606 68.9736 216.533 69.0936 216.413 69.2003C216.306 69.2936 216.18 69.3403 216.033 69.3403H210.093L209.513 72.1203H216.033C216.18 72.1203 216.286 72.167 216.353 72.2603C216.433 72.3536 216.46 72.4736 216.433 72.6203L216.033 74.5003C216.006 74.647 215.933 74.767 215.813 74.8603C215.706 74.9536 215.58 75.0003 215.433 75.0003H205.933Z" fill="#FF0420"/>
<path d="M221.747 75.0003C221.6 75.0003 221.487 74.9536 221.407 74.8603C221.327 74.767 221.3 74.647 221.327 74.5003L223.547 64.1403H219.987C219.854 64.1403 219.747 64.0936 219.667 64.0003C219.587 63.8936 219.56 63.7736 219.587 63.6403L220.047 61.5003C220.074 61.3536 220.14 61.2336 220.247 61.1403C220.367 61.047 220.5 61.0003 220.647 61.0003H231.407C231.554 61.0003 231.66 61.047 231.727 61.1403C231.807 61.2336 231.834 61.3536 231.807 61.5003L231.347 63.6403C231.32 63.7736 231.247 63.8936 231.127 64.0003C231.02 64.0936 230.894 64.1403 230.747 64.1403H227.187L224.987 74.5003C224.96 74.647 224.887 74.767 224.767 74.8603C224.66 74.9536 224.534 75.0003 224.387 75.0003H221.747Z" fill="#FF0420"/>
<path d="M33.244 20.7641C33.076 20.7641 32.964 20.6871 32.908 20.5331C32.838 20.3931 32.852 20.2531 32.95 20.1131L43.597 3.12414C43.695 2.97014 43.828 2.83014 43.996 2.70414C44.178 2.56414 44.402 2.49414 44.668 2.49414H47.545C47.769 2.49414 47.888 2.57114 47.902 2.72514C47.93 2.86514 47.902 3.00514 47.818 3.14514L37.108 20.1341C37.024 20.2741 36.898 20.4141 36.73 20.5541C36.562 20.6941 36.338 20.7641 36.058 20.7641H33.244Z" fill="#FF0420"/>
<path d="M45.5077 20.7641C45.3397 20.7641 45.2277 20.6871 45.1717 20.5331C45.1017 20.3931 45.1157 20.2531 45.2137 20.1131L55.8607 3.12414C55.9587 2.97014 56.0917 2.83014 56.2597 2.70414C56.4417 2.56414 56.6657 2.49414 56.9317 2.49414H59.8087C60.0327 2.49414 60.1517 2.57114 60.1657 2.72514C60.1937 2.86514 60.1657 3.00514 60.0817 3.14514L49.3717 20.1341C49.2877 20.2741 49.1617 20.4141 48.9937 20.5541C48.8257 20.6941 48.6017 20.7641 48.3217 20.7641H45.5077Z" fill="#FF0420"/>
<path d="M14.0002 14.7455C16.0685 14.7455 17.7453 13.0688 17.7453 11.0004C17.7453 8.93209 16.0685 7.25537 14.0002 7.25537C11.9318 7.25537 10.2551 8.93209 10.2551 11.0004C10.2551 13.0688 11.9318 14.7455 14.0002 14.7455Z" stroke="#FF0420" stroke-width="3" stroke-linecap="round" stroke-linejoin="round"/>
<path d="M25.5562 9.70441C26.1479 10.4784 26.1479 11.5233 25.5562 12.296C23.6924 14.729 19.2208 19.7387 14.0002 19.7387C8.77957 19.7387 4.30796 14.729 2.44417 12.296C2.15628 11.9254 2 11.4695 2 11.0002C2 10.5309 2.15628 10.075 2.44417 9.70441C4.30796 7.27137 8.77957 2.26172 14.0002 2.26172C19.2208 2.26172 23.6924 7.27137 25.5562 9.70441V9.70441Z" stroke="#FF0420" stroke-width="3" stroke-linecap="round" stroke-linejoin="round"/>
</svg>
