<svg width="412" height="331" viewBox="0 0 412 331" fill="none" xmlns="http://www.w3.org/2000/svg">
<path d="M135.031 189.4C136.631 196.2 137.098 203.467 136.431 211.2C136.165 213.6 135.698 216.067 135.031 218.6C134.498 221 133.898 223.4 133.231 225.8C130.031 235.667 125.231 245.133 118.831 254.2C116.165 258.067 113.231 261.8 110.031 265.4C106.965 268.867 103.698 272.2 100.231 275.4C95.1646 280.333 89.4313 284.733 83.0313 288.6C79.9646 290.6 76.8979 292.333 73.8313 293.8C70.7646 295.4 67.6313 296.867 64.4313 298.2C61.2313 299.4 58.0313 300.4 54.8313 301.2C51.6313 302.133 48.4313 302.733 45.2313 303C40.5646 303.667 36.0313 303.667 31.6313 303C27.2313 302.467 23.0979 301.267 19.2313 299.4C10.1646 294.733 4.43126 287.4 2.03126 277.4C1.23126 274.6 0.76459 271.733 0.631257 268.8C0.497924 265.733 0.56459 262.667 0.831257 259.6C1.09792 256.267 1.63126 253 2.43126 249.8C3.23126 246.6 4.16459 243.4 5.23126 240.2C8.56459 230.333 13.0979 220.6 18.8313 211L23.6313 203.2C23.8979 202.933 23.8979 202.667 23.6313 202.4C22.1646 201.333 20.8313 200.2 19.6313 199C18.4313 197.667 17.3646 196.2 16.4313 194.6C15.4979 193.133 14.8313 191.533 14.4313 189.8C14.0313 187.933 13.9646 185.933 14.2313 183.8C14.2313 183.667 14.2313 183.533 14.2313 183.4C14.3646 183.267 14.4313 183.067 14.4313 182.8L15.0313 180.4C15.0313 180.4 15.0979 180.267 15.2313 180C15.7646 178.533 16.3646 177.2 17.0313 176C17.8313 174.8 18.6979 173.533 19.6313 172.2C23.0979 167.8 27.4313 163.933 32.6313 160.6C38.3646 157 44.2313 154.2 50.2313 152.2C58.6313 149.533 66.6979 148.2 74.4313 148.2C74.6979 148.2 74.9646 148.133 75.2313 148C76.4313 147.2 77.6313 146.533 78.8313 146C80.0313 145.333 81.3646 144.867 82.8313 144.6C83.8979 144.467 84.6313 144.6 85.0313 145C85.5646 145.4 85.9646 145.733 86.2313 146C86.4979 146.267 86.6313 146.667 86.6313 147.2C86.6313 147.6 86.2979 148.133 85.6313 148.8L89.2313 149.4C95.7646 150.6 102.031 152.733 108.031 155.8C110.565 157.267 112.965 158.8 115.231 160.4C117.498 162 119.631 163.867 121.631 166C128.165 172.533 132.631 180.333 135.031 189.4ZM83.8313 148.6C83.1646 147.533 82.0979 147.467 80.6313 148.4C82.0979 148.4 83.1646 148.467 83.8313 148.6ZM23.6313 197.6C24.0313 198 24.3646 198.4 24.6313 198.8C25.0313 199.067 25.4979 199.333 26.0313 199.6C32.1646 190.667 38.8313 182.2 46.0313 174.2C53.3646 166.2 61.3646 158.667 70.0313 151.6H69.2313C61.4979 152.267 54.1646 153.933 47.2313 156.6C44.2979 157.667 41.4979 158.933 38.8313 160.4C36.1646 161.867 33.5646 163.533 31.0313 165.4C26.6313 168.6 23.0979 172.267 20.4313 176.4C17.3646 181.6 16.6979 186.4 18.4313 190.8C19.0979 192.267 19.8313 193.533 20.6313 194.6C21.5646 195.533 22.5646 196.533 23.6313 197.6ZM132.831 212.8C133.765 205.333 133.365 198 131.631 190.8C130.565 186.667 129.031 182.867 127.031 179.4C125.165 175.933 122.898 172.667 120.231 169.6C115.165 164.4 109.231 160.267 102.431 157.2C97.3646 154.933 92.2979 153.4 87.2313 152.6C85.3646 152.2 83.4979 151.933 81.6313 151.8C79.7646 151.667 77.8979 151.533 76.0313 151.4C75.8979 151.4 75.4313 151.533 74.6313 151.8C71.8313 153.933 69.0979 156.133 66.4313 158.4C63.8979 160.667 61.4313 162.933 59.0313 165.2C56.2313 167.867 53.4979 170.6 50.8313 173.4C48.2979 176.067 45.8313 178.867 43.4313 181.8C40.7646 184.867 38.1646 188 35.6313 191.2C33.2313 194.4 30.8979 197.667 28.6313 201C28.4979 201.4 28.5646 201.667 28.8313 201.8C29.4979 202.2 30.0979 202.667 30.6313 203.2C31.2979 203.6 31.9646 204 32.6313 204.4C34.7646 205.6 36.8313 206.867 38.8313 208.2C40.9646 209.4 43.0313 210.6 45.0313 211.8C47.5646 213.267 50.0313 214.8 52.4313 216.4C54.9646 218 57.3646 219.667 59.6313 221.4C61.2313 222.733 62.7646 224.067 64.2313 225.4C65.6979 226.733 67.0979 228.2 68.4313 229.8C73.0979 235.8 76.9646 242.6 80.0313 250.2C81.4979 253.8 82.4313 257.333 82.8313 260.8C83.0979 263.467 82.7646 265.867 81.8313 268C80.7646 270.4 79.1646 272.067 77.0313 273C76.0979 273.4 75.4313 273.267 75.0313 272.6C74.7646 272.067 74.9646 271.467 75.6313 270.8L76.6313 269.8C77.6979 269.133 78.4313 268.2 78.8313 267C79.0979 266.333 79.2313 265.6 79.2313 264.8C79.3646 264 79.4313 263.267 79.4313 262.6C79.2979 260.733 79.0313 259 78.6313 257.4C78.2313 255.8 77.6979 254.2 77.0313 252.6C75.9646 249.667 74.6979 246.933 73.2313 244.4C71.8979 241.733 70.4313 239.133 68.8313 236.6C67.6313 234.867 66.3646 233.2 65.0313 231.6C63.6979 230 62.2313 228.533 60.6313 227.2C57.2979 224.133 53.5646 221.333 49.4313 218.8L36.8313 211C35.6313 210.333 34.4313 209.667 33.2313 209C32.1646 208.2 31.0313 207.467 29.8313 206.8C29.2979 206.533 28.7646 206.2 28.2313 205.8C27.6979 205.4 27.0979 205 26.4313 204.6C24.6979 207.4 22.6313 210.8 20.2313 214.8C17.8313 218.8 15.8979 222.467 14.4313 225.8C13.0979 228.6 11.8313 231.467 10.6313 234.4C9.56459 237.2 8.56459 240 7.63126 242.8C6.56459 246.267 5.69792 249.667 5.03126 253C4.49792 256.333 4.16459 259.733 4.03126 263.2C3.76459 267.067 3.96459 270.733 4.63126 274.2C5.29792 277.667 6.49792 280.933 8.23126 284C11.0313 289.067 15.0979 293.067 20.4313 296C26.8313 299.333 34.2979 300.667 42.8313 300C49.6313 299.6 56.6979 297.933 64.0313 295C67.6313 293.533 71.1646 291.867 74.6313 290C78.0979 288.267 81.4313 286.267 84.6313 284C91.0313 279.733 96.8313 275 102.031 269.8C107.231 264.467 111.965 258.8 116.231 252.8C121.165 245.6 125.165 238.2 128.231 230.6C129.298 227.533 130.231 224.6 131.031 221.8C131.831 218.867 132.431 215.867 132.831 212.8Z" fill="#FF0420"/>
<path d="M195.958 223C197.558 223.4 198.158 224.067 197.758 225C197.358 225.933 196.824 226.533 196.158 226.8C195.491 227.2 194.558 227.667 193.358 228.2C192.158 228.733 191.224 229.2 190.558 229.6C188.691 230.4 186.224 231.6 183.158 233.2C180.224 234.667 176.691 236.467 172.558 238.6C169.224 240.2 165.891 241.867 162.558 243.6C159.358 245.2 156.091 246.8 152.758 248.4C151.291 249.067 150.024 249.867 148.958 250.8C147.891 251.6 146.758 252.4 145.558 253.2C141.958 256 138.158 258.4 134.158 260.4C132.958 260.933 132.091 260.8 131.558 260C131.158 260.4 130.891 260.867 130.758 261.4C130.624 261.8 130.358 262.2 129.958 262.6C128.358 266.6 126.824 270.533 125.358 274.4C123.758 278.133 122.224 282 120.758 286C119.824 288.267 118.624 291.533 117.158 295.8C115.558 300.2 113.624 305.467 111.358 311.6C110.558 313.6 109.891 315.667 109.358 317.8C108.691 319.933 108.024 322.067 107.358 324.2C107.091 324.6 106.958 325 106.958 325.4C106.958 325.933 106.891 326.4 106.758 326.8V327.6C107.158 328.4 106.958 329.067 106.158 329.6C105.491 330.267 104.758 330.333 103.958 329.8C103.424 329.267 103.158 328.667 103.158 328C103.291 327.333 103.424 326.6 103.558 325.8C103.558 325.133 103.691 324.467 103.958 323.8C104.758 320.6 105.691 317.4 106.758 314.2C107.824 311.133 108.958 308 110.158 304.8C112.024 299.6 113.758 294.933 115.358 290.8C116.824 286.8 118.358 282.867 119.958 279C121.424 275.133 122.958 271.2 124.558 267.2C126.158 263.067 128.024 258.467 130.158 253.4C132.424 247.933 134.691 242.6 136.958 237.4C139.091 232.067 141.291 226.667 143.558 221.2C143.558 220.533 143.691 219.8 143.958 219C144.224 218.333 144.558 217.667 144.958 217C145.491 216.2 146.158 215.933 146.958 216.2C147.891 216.467 148.224 217.133 147.958 218.2C147.691 218.867 147.424 219.533 147.158 220.2C147.024 220.867 146.824 221.533 146.558 222.2L139.958 238.4C139.691 239.067 139.424 239.8 139.158 240.6C138.891 241.267 138.624 241.933 138.358 242.6C139.158 241.533 139.891 240.667 140.558 240C143.224 236.933 145.958 234.067 148.758 231.4C151.558 228.733 154.624 226.267 157.958 224C159.158 223.2 160.758 222.267 162.758 221.2C164.758 220 166.624 219.733 168.358 220.4C170.224 221.067 171.024 222.267 170.758 224C170.624 225.733 170.224 227.267 169.558 228.6C168.491 230.467 167.358 232.2 166.158 233.8C164.958 235.267 163.691 236.8 162.358 238.4C161.958 238.8 161.558 239.2 161.158 239.6C160.758 240 160.358 240.467 159.958 241C160.091 240.867 160.424 240.667 160.958 240.4C161.224 240.267 161.424 240.2 161.558 240.2C164.758 238.6 167.424 237.267 169.558 236.2C171.691 235.133 173.758 234.133 175.758 233.2C177.758 232.133 179.824 231.067 181.958 230C184.091 228.933 186.758 227.6 189.958 226L195.958 223ZM148.758 246.6C150.491 245.267 152.091 243.867 153.558 242.4C155.158 240.933 156.691 239.467 158.158 238C159.624 236.533 161.024 235 162.358 233.4C163.691 231.8 164.891 230.067 165.958 228.2C166.224 227.667 166.491 227.133 166.758 226.6C167.158 225.933 167.424 225.267 167.558 224.6C167.824 223.8 167.491 223.533 166.558 223.8C165.624 223.933 164.958 224.067 164.558 224.2C163.091 224.867 161.758 225.6 160.558 226.4C159.358 227.067 158.158 227.867 156.958 228.8C152.824 232 149.024 235.467 145.558 239.2C142.091 242.933 138.958 247 136.158 251.4C135.624 252.2 135.158 253 134.758 253.8C134.224 254.6 133.691 255.467 133.158 256.4C133.558 256 134.024 255.667 134.558 255.4C136.424 254.067 138.158 252.933 139.758 252C141.224 251.067 142.958 250.067 144.958 249C145.624 248.6 146.224 248.2 146.758 247.8C147.424 247.4 148.091 247 148.758 246.6Z" fill="#FF0420"/>
<path d="M292.883 184.6C298.883 185.267 302.883 186.667 304.883 188.8C306.883 190.8 306.616 192.667 304.083 194.4C303.016 194.933 302.216 194.933 301.683 194.4C301.15 193.867 301.016 193.267 301.283 192.6C301.416 192.333 301.483 192.133 301.483 192C301.616 191.867 301.816 191.667 302.083 191.4C301.416 191.133 300.683 190.8 299.883 190.4C299.083 190 297.949 189.667 296.483 189.4C294.616 189 292.749 188.733 290.883 188.6C289.016 188.467 287.149 188.267 285.283 188C273.549 187.333 261.883 187 250.283 187C238.816 187 227.149 187.2 215.283 187.6C207.283 205.733 199.683 223.4 192.483 240.6C185.283 257.8 178.216 275.533 171.283 293.8C169.816 297.933 168.349 302.067 166.883 306.2C165.416 310.333 164.016 314.533 162.683 318.8C162.416 319.867 162.216 320.8 162.083 321.6C161.816 322.533 161.549 323.533 161.283 324.6C161.016 325.8 161.149 326.733 161.683 327.4C161.949 327.933 161.949 328.4 161.683 328.8C161.416 329.333 161.016 329.6 160.483 329.6C159.149 329.867 158.283 329.333 157.883 328C157.616 326.667 157.616 325.267 157.883 323.8C158.149 322.333 158.549 320.733 159.083 319C160.149 315.267 161.349 311.533 162.683 307.8C163.883 304.2 165.149 300.533 166.483 296.8C173.283 278.667 180.483 260.333 188.083 241.8C195.683 223.267 203.416 205.267 211.283 187.8C201.283 188.067 191.816 188.467 182.883 189C173.816 189.4 164.416 189.8 154.683 190.2C152.683 190.2 151.283 190.133 150.483 190C149.683 189.867 149.149 189.733 148.883 189.6C148.483 189.467 148.149 189.2 147.883 188.8C147.616 188.4 147.616 188.067 147.883 187.8C148.149 187.267 148.616 186.933 149.283 186.8C149.816 186.533 150.883 186.4 152.483 186.4C156.349 186.267 160.749 186.133 165.683 186C170.616 185.733 175.816 185.533 181.283 185.4C186.616 185.133 191.949 184.933 197.283 184.8C202.749 184.533 207.883 184.267 212.683 184C215.616 177.867 218.483 172 221.283 166.4C224.216 160.667 227.349 154.333 230.683 147.4C231.216 146.333 231.483 145.467 231.483 144.8C231.483 144.133 231.816 143.4 232.483 142.6C233.149 141.667 233.883 141.467 234.683 142C235.749 142.933 235.949 144.067 235.283 145.4C232.483 151.8 229.483 158.133 226.283 164.4C223.216 170.667 220.083 177.2 216.883 184C223.416 183.867 229.949 183.733 236.483 183.6C243.016 183.333 249.416 183.2 255.683 183.2C262.083 183.067 268.35 183.133 274.483 183.4C280.75 183.533 286.883 183.933 292.883 184.6Z" fill="#FF0420"/>
<path d="M241.889 223C243.622 223.267 244.156 223.867 243.489 224.8C242.956 225.733 242.289 226.467 241.489 227C237.222 230.067 233.156 233 229.289 235.8C225.556 238.467 221.489 241.267 217.089 244.2C216.022 244.867 214.556 245.8 212.689 247C210.956 248.067 209.289 248.6 207.689 248.6C206.089 248.6 205.089 247.867 204.689 246.4C204.422 245.6 204.489 244.467 204.889 243C205.156 241.4 205.622 239.733 206.289 238C206.822 236.133 207.489 234.267 208.289 232.4C209.089 230.533 209.889 228.8 210.689 227.2C210.689 226.533 210.822 225.867 211.089 225.2C211.356 224.4 211.689 223.8 212.089 223.4C212.356 222.867 212.556 222.533 212.689 222.4C213.356 221.733 214.022 221.467 214.689 221.6C215.489 221.6 215.889 222.133 215.889 223.2C215.889 223.467 215.756 224 215.489 224.8C214.022 227.733 212.689 230.6 211.489 233.4C211.089 234.2 210.689 235.2 210.289 236.4C209.756 237.6 209.289 238.8 208.889 240C208.489 241.2 208.222 242.267 208.089 243.2C207.822 244.133 207.756 244.733 207.889 245C208.156 245.4 209.022 245.2 210.489 244.4C211.822 243.6 212.689 243.067 213.089 242.8C214.822 241.6 217.022 240.067 219.689 238.2C222.489 236.333 225.289 234.467 228.089 232.6C230.889 230.6 233.556 228.733 236.089 227C238.622 225.267 240.556 223.933 241.889 223ZM221.689 202.4C220.889 201.867 220.689 201.2 221.089 200.4C221.756 199.333 222.422 198.333 223.089 197.4C223.756 196.333 224.422 195.267 225.089 194.2C225.489 193.533 226.089 193.333 226.889 193.6C227.956 194 228.222 194.667 227.689 195.6C227.022 196.667 226.422 197.733 225.889 198.8C225.356 199.733 224.689 200.733 223.889 201.8C223.356 202.467 222.622 202.667 221.689 202.4Z" fill="#FF0420"/>
<path d="M255.977 232.4C255.577 232.8 255.11 233.267 254.577 233.8C254.043 234.2 253.577 234.6 253.177 235C251.31 236.867 249.377 238.733 247.377 240.6C245.377 242.333 243.443 244.133 241.577 246C241.177 246.4 240.777 246.8 240.377 247.2C239.843 247.6 239.31 248 238.777 248.4C238.377 248.8 238.043 249 237.777 249C236.71 249.533 235.843 249.6 235.177 249.2C234.51 248.8 234.11 248.067 233.977 247C233.843 246.333 233.843 245.667 233.977 245C234.11 244.2 234.31 243.467 234.577 242.8C235.11 240.667 235.777 238.533 236.577 236.4C237.243 234.267 237.977 232.133 238.777 230C239.443 228.4 240.177 226.8 240.977 225.2C241.777 223.467 242.51 221.733 243.177 220C243.31 219.6 243.643 219.133 244.177 218.6C244.843 217.933 245.643 218.067 246.577 219C247.243 219.667 247.11 220.4 246.177 221.2C246.043 221.333 245.977 221.467 245.977 221.6C244.51 225.067 243.11 228.533 241.777 232C240.443 235.333 239.243 238.8 238.177 242.4C237.91 243.467 237.777 244.267 237.777 244.8C238.043 244.667 238.243 244.533 238.377 244.4C238.777 244 238.977 243.8 238.977 243.8C240.577 242.2 241.977 240.8 243.177 239.6C244.51 238.267 245.977 236.867 247.577 235.4C248.643 234.333 249.71 233.333 250.777 232.4C251.843 231.333 253.043 230.4 254.377 229.6C255.177 229.067 255.843 228.733 256.377 228.6C258.243 228.067 259.31 228.8 259.577 230.8C259.577 231.2 259.51 231.667 259.377 232.2C259.377 232.6 259.377 233.067 259.377 233.6C259.11 234.533 258.91 235.4 258.777 236.2C258.777 237 258.643 237.867 258.377 238.8C258.377 239.067 258.31 239.333 258.177 239.6C258.443 239.467 258.777 239.2 259.177 238.8C259.71 238.4 260.043 238.133 260.177 238C261.51 236.8 262.577 235.8 263.377 235C264.31 234.067 265.443 233 266.777 231.8C268.11 230.467 269.443 229.2 270.777 228C272.11 226.8 273.51 225.667 274.977 224.6C275.643 224.067 276.51 223.6 277.577 223.2C278.643 222.933 279.51 223.133 280.177 223.8C280.977 224.333 281.243 225.133 280.977 226.2C280.977 226.733 280.91 227.267 280.777 227.8C280.643 228.2 280.51 228.733 280.377 229.4C279.977 230.867 279.51 232.4 278.977 234C278.577 235.467 278.177 236.933 277.777 238.4C277.777 238.667 277.71 239.067 277.577 239.6C277.577 240 277.577 240.333 277.577 240.6C277.843 240.333 278.043 240.2 278.177 240.2C278.443 240.067 278.71 239.867 278.977 239.6C280.31 238.667 281.577 237.8 282.777 237C284.11 236.067 285.377 235.133 286.577 234.2C288.043 233.133 289.71 231.933 291.577 230.6C293.443 229.267 295.11 228.067 296.577 227C298.31 225.667 300.11 224.333 301.977 223C303.443 223.267 304.177 223.8 304.177 224.6C304.177 225.267 303.843 225.933 303.177 226.6C301.577 227.667 300.177 228.6 298.977 229.4C297.91 230.2 296.843 231 295.777 231.8C294.843 232.467 293.777 233.2 292.577 234C291.51 234.8 290.177 235.8 288.577 237C285.777 239.133 283.043 241.067 280.377 242.8C279.577 243.333 278.91 243.667 278.377 243.8C275.843 244.467 274.443 243.467 274.177 240.8C274.043 240 274.043 239.2 274.177 238.4C274.31 237.6 274.51 236.8 274.777 236C275.177 234.667 275.51 233.533 275.777 232.6C276.043 231.667 276.377 230.533 276.777 229.2C276.777 229.067 276.91 228.467 277.177 227.4C276.91 227.533 276.71 227.667 276.577 227.8C276.443 227.933 276.243 228.067 275.977 228.2C274.243 229.667 272.577 231.133 270.977 232.6C269.377 234.067 267.777 235.533 266.177 237C264.177 239 262.11 240.867 259.977 242.6C259.443 243.133 258.91 243.467 258.377 243.6C257.443 244 256.577 244 255.777 243.6C255.11 243.2 254.777 242.467 254.777 241.4C254.777 240.733 254.777 240.067 254.777 239.4C254.91 238.733 255.043 238.067 255.177 237.4C255.31 236.733 255.377 236.067 255.377 235.4C255.51 234.6 255.71 233.867 255.977 233.2V232.4Z" fill="#FF0420"/>
<path d="M340.538 232.2C342.138 232.867 343.404 233.867 344.338 235.2C345.271 236.4 345.604 238.067 345.338 240.2C345.071 243 343.938 246.2 341.938 249.8C340.071 253.267 337.804 256.8 335.138 260.4C332.471 264 329.604 267.533 326.538 271C323.604 274.467 321.004 277.467 318.738 280C312.738 286.667 306.871 293.2 301.138 299.6C295.271 306.133 289.338 312.733 283.338 319.4C283.071 319.667 282.671 319.933 282.138 320.2C281.604 320.6 281.071 320.6 280.538 320.2C279.471 319.4 279.604 318.333 280.938 317C287.738 309.4 294.471 301.867 301.138 294.4C307.804 287.067 314.538 279.6 321.338 272C322.938 270.267 324.871 268 327.138 265.2C329.538 262.4 331.871 259.4 334.138 256.2C336.404 253 338.271 249.867 339.738 246.8C341.338 243.733 342.138 241.067 342.138 238.8C342.138 237.333 341.471 236.333 340.138 235.8C338.938 235.133 337.604 234.667 336.138 234.4C334.538 234.133 332.871 233.933 331.138 233.8C329.538 233.667 327.871 233.267 326.138 232.6C324.138 231.933 322.871 230.8 322.338 229.2C321.804 227.6 321.871 225.867 322.538 224C321.338 224.8 319.804 225.867 317.938 227.2C316.071 228.533 314.138 229.867 312.138 231.2C310.138 232.533 308.204 233.733 306.338 234.8C304.471 235.867 303.004 236.467 301.938 236.6C299.671 237 298.404 236.067 298.138 233.8C297.871 231.8 298.404 229.533 299.738 227C300.938 224.333 302.338 222.067 303.938 220.2C304.871 219.133 305.738 219 306.538 219.8C307.204 220.467 307.271 221.133 306.738 221.8C306.204 222.467 305.738 223.133 305.338 223.8C304.404 225.267 303.604 226.8 302.938 228.4C302.271 229.867 301.804 231.467 301.538 233.2C303.538 232.267 305.404 231.267 307.138 230.2C309.004 229 310.871 227.733 312.738 226.4C314.604 225.2 316.538 224 318.538 222.8C320.538 221.467 322.538 220.267 324.538 219.2C325.604 218.667 326.471 218.733 327.138 219.4C327.804 220.067 327.938 220.8 327.538 221.6C326.204 223.2 325.404 224.733 325.138 226.2C324.738 227.8 325.338 228.933 326.938 229.6C328.404 230.267 330.471 230.667 333.138 230.8C335.804 230.933 338.271 231.4 340.538 232.2ZM309.538 209.8C309.004 209.4 308.871 208.867 309.138 208.2C309.404 207.533 309.671 206.867 309.938 206.2C310.604 205 311.204 203.867 311.738 202.8C312.404 201.733 313.071 200.6 313.738 199.4C314.004 199.133 314.338 198.867 314.738 198.6C315.138 198.2 315.604 198.133 316.138 198.4C316.671 198.667 316.938 199 316.938 199.4C316.938 199.8 316.804 200.333 316.538 201C316.004 202.067 315.471 203.133 314.938 204.2C314.404 205.267 313.804 206.333 313.138 207.4C312.471 208.467 311.871 209.267 311.338 209.8C310.938 210.2 310.338 210.2 309.538 209.8Z" fill="#FF0420"/>
<path d="M363.008 232.4C362.608 232.8 362.141 233.267 361.608 233.8C361.075 234.2 360.608 234.6 360.208 235C358.341 236.867 356.408 238.733 354.408 240.6C352.408 242.333 350.475 244.133 348.608 246C348.208 246.4 347.808 246.8 347.408 247.2C346.874 247.6 346.341 248 345.808 248.4C345.408 248.8 345.074 249 344.808 249C343.741 249.533 342.875 249.6 342.208 249.2C341.541 248.8 341.141 248.067 341.008 247C340.874 246.333 340.874 245.667 341.008 245C341.141 244.2 341.341 243.467 341.608 242.8C342.141 240.667 342.808 238.533 343.608 236.4C344.275 234.267 345.008 232.133 345.808 230C346.474 228.4 347.208 226.8 348.008 225.2C348.808 223.467 349.541 221.733 350.208 220C350.341 219.6 350.675 219.133 351.208 218.6C351.875 217.933 352.675 218.067 353.608 219C354.275 219.667 354.141 220.4 353.208 221.2C353.075 221.333 353.008 221.467 353.008 221.6C351.541 225.067 350.141 228.533 348.808 232C347.474 235.333 346.275 238.8 345.208 242.4C344.941 243.467 344.808 244.267 344.808 244.8C345.074 244.667 345.274 244.533 345.408 244.4C345.808 244 346.008 243.8 346.008 243.8C347.608 242.2 349.008 240.8 350.208 239.6C351.541 238.267 353.008 236.867 354.608 235.4C355.675 234.333 356.741 233.333 357.808 232.4C358.874 231.333 360.074 230.4 361.408 229.6C362.208 229.067 362.874 228.733 363.408 228.6C365.274 228.067 366.341 228.8 366.608 230.8C366.608 231.2 366.541 231.667 366.408 232.2C366.408 232.6 366.408 233.067 366.408 233.6C366.141 234.533 365.941 235.4 365.808 236.2C365.808 237 365.674 237.867 365.408 238.8C365.408 239.067 365.341 239.333 365.208 239.6C365.475 239.467 365.808 239.2 366.208 238.8C366.741 238.4 367.075 238.133 367.208 238C368.541 236.8 369.608 235.8 370.408 235C371.341 234.067 372.474 233 373.808 231.8C375.141 230.467 376.474 229.2 377.808 228C379.141 226.8 380.541 225.667 382.008 224.6C382.674 224.067 383.541 223.6 384.608 223.2C385.675 222.933 386.541 223.133 387.208 223.8C388.008 224.333 388.274 225.133 388.008 226.2C388.008 226.733 387.941 227.267 387.808 227.8C387.674 228.2 387.541 228.733 387.408 229.4C387.008 230.867 386.541 232.4 386.008 234C385.608 235.467 385.208 236.933 384.808 238.4C384.808 238.667 384.741 239.067 384.608 239.6C384.608 240 384.608 240.333 384.608 240.6C384.875 240.333 385.075 240.2 385.208 240.2C385.475 240.067 385.741 239.867 386.008 239.6C387.341 238.667 388.608 237.8 389.808 237C391.141 236.067 392.408 235.133 393.608 234.2C395.075 233.133 396.741 231.933 398.608 230.6C400.475 229.267 402.141 228.067 403.608 227C405.341 225.667 407.141 224.333 409.008 223C410.474 223.267 411.208 223.8 411.208 224.6C411.208 225.267 410.875 225.933 410.208 226.6C408.608 227.667 407.208 228.6 406.008 229.4C404.941 230.2 403.875 231 402.808 231.8C401.875 232.467 400.808 233.2 399.608 234C398.541 234.8 397.208 235.8 395.608 237C392.808 239.133 390.074 241.067 387.408 242.8C386.608 243.333 385.941 243.667 385.408 243.8C382.874 244.467 381.475 243.467 381.208 240.8C381.075 240 381.075 239.2 381.208 238.4C381.341 237.6 381.541 236.8 381.808 236C382.208 234.667 382.541 233.533 382.808 232.6C383.074 231.667 383.408 230.533 383.808 229.2C383.808 229.067 383.941 228.467 384.208 227.4C383.941 227.533 383.741 227.667 383.608 227.8C383.475 227.933 383.274 228.067 383.008 228.2C381.274 229.667 379.608 231.133 378.008 232.6C376.408 234.067 374.808 235.533 373.208 237C371.208 239 369.141 240.867 367.008 242.6C366.474 243.133 365.941 243.467 365.408 243.6C364.474 244 363.608 244 362.808 243.6C362.141 243.2 361.808 242.467 361.808 241.4C361.808 240.733 361.808 240.067 361.808 239.4C361.941 238.733 362.075 238.067 362.208 237.4C362.341 236.733 362.408 236.067 362.408 235.4C362.541 234.6 362.741 233.867 363.008 233.2V232.4Z" fill="#FF0420"/>
<path d="M162.402 72.4003C162.802 73.067 162.869 73.7337 162.602 74.4003C162.202 75.067 161.669 75.4003 161.002 75.4003C160.736 75.4003 160.536 75.4003 160.402 75.4003C160.402 75.267 160.269 75.2003 160.002 75.2003C159.469 74.9337 159.136 74.8003 159.002 74.8003C157.136 74.667 155.202 74.667 153.202 74.8003C151.336 74.8003 149.469 74.8003 147.602 74.8003C147.202 75.6003 146.736 76.467 146.202 77.4003C145.669 78.2003 145.202 79.0003 144.802 79.8003C146.536 79.8003 148.269 79.867 150.002 80.0003C151.869 80.0003 153.669 80.1337 155.402 80.4003C156.869 80.9337 157.669 81.667 157.802 82.6003C158.069 83.8003 157.536 84.5337 156.202 84.8003C155.536 84.8003 154.936 84.667 154.402 84.4003C154.002 84.0003 153.469 83.7337 152.802 83.6003C151.736 83.6003 150.602 83.6003 149.402 83.6003C148.336 83.467 147.202 83.4003 146.002 83.4003H143.002C142.869 83.4003 142.402 84.067 141.602 85.4003C140.802 86.7337 139.936 88.267 139.002 90.0003C138.069 91.6003 137.136 93.267 136.202 95.0003C135.269 96.7337 134.602 98.0003 134.202 98.8003C133.936 99.3337 133.736 99.867 133.602 100.4C133.469 100.934 133.269 101.467 133.002 102C132.736 102.8 132.202 103.334 131.402 103.6C130.602 103.867 130.069 103.467 129.802 102.4C129.669 101.6 129.802 100.667 130.202 99.6003C131.002 98.1337 131.736 96.667 132.402 95.2003C133.202 93.6003 134.002 92.067 134.802 90.6003C135.469 89.4003 136.136 88.267 136.802 87.2003C137.469 86.0003 138.136 84.8003 138.802 83.6003H136.402C135.736 83.6003 135.136 83.6003 134.602 83.6003C134.069 83.6003 133.469 83.667 132.802 83.8003C132.402 83.8003 132.136 83.9337 132.002 84.2003L125.402 96.2003C125.136 96.6003 124.869 97.3337 124.602 98.4003C124.336 99.2003 123.802 99.7337 123.002 100C122.202 100.267 121.669 99.9337 121.402 99.0003C121.136 98.6003 121.069 98.2003 121.202 97.8003C121.336 97.267 121.536 96.8003 121.802 96.4003C122.469 94.9337 123.136 93.6003 123.802 92.4003C124.602 91.067 125.336 89.667 126.002 88.2003L128.402 84.0003C126.536 84.1337 125.069 84.267 124.002 84.4003C122.936 84.5337 121.536 84.667 119.802 84.8003C118.736 84.8003 118.136 84.4003 118.002 83.6003C118.002 83.2003 118.069 82.8003 118.202 82.4003C118.469 81.867 119.002 81.467 119.802 81.2003C120.869 80.9337 122.402 80.8003 124.402 80.8003C126.402 80.8003 128.269 80.667 130.002 80.4003H130.402C130.536 80.4003 130.602 80.3337 130.602 80.2003C131.136 79.267 131.602 78.4003 132.002 77.6003C132.536 76.8003 133.069 75.9337 133.602 75.0003H120.602C119.536 75.0003 119.002 74.5337 119.002 73.6003C119.136 72.667 119.736 72.067 120.802 71.8003C123.336 71.8003 125.736 71.7337 128.002 71.6003C130.402 71.467 132.869 71.4003 135.402 71.4003C135.669 71.4003 135.936 71.2003 136.202 70.8003L142.802 60.6003C143.602 59.5337 144.269 58.7337 144.802 58.2003C145.336 57.667 145.869 57.467 146.402 57.6003C147.069 57.7337 147.469 58.1337 147.602 58.8003C147.602 59.6003 147.269 60.2003 146.602 60.6003C146.469 60.6003 146.269 60.7337 146.002 61.0003C144.936 62.7337 143.869 64.467 142.802 66.2003C141.736 67.8003 140.669 69.467 139.602 71.2003H141.602H145.602C145.869 71.2003 146.136 71.0003 146.402 70.6003C147.469 68.867 148.602 67.2003 149.802 65.6003C151.002 63.867 152.136 62.1337 153.202 60.4003C153.469 60.1337 153.736 59.867 154.002 59.6003C154.402 59.2003 155.002 59.1337 155.802 59.4003C156.736 59.667 156.802 60.3337 156.002 61.4003C154.936 63.1337 153.936 64.8003 153.002 66.4003C152.069 67.867 151.069 69.4003 150.002 71.0003C151.736 71.0003 153.469 71.0003 155.202 71.0003C156.936 71.0003 158.669 71.1337 160.402 71.4003C161.336 71.4003 162.002 71.7337 162.402 72.4003ZM144.002 74.6003C142.936 74.7337 141.936 74.8003 141.002 74.8003C140.069 74.8003 139.069 74.8003 138.002 74.8003C137.602 74.8003 137.402 74.9337 137.402 75.2003C136.869 76.1337 136.336 77.0003 135.802 77.8003C135.402 78.467 134.936 79.267 134.402 80.2003C135.469 80.2003 136.469 80.2003 137.402 80.2003C138.469 80.067 139.536 80.0003 140.602 80.0003L144.002 74.6003Z" fill="#FF0420"/>
<path d="M161.235 173.2C158.035 172.534 156.235 170.467 155.835 167C155.702 165.534 155.835 164.067 156.235 162.6C156.502 161.267 156.902 159.934 157.435 158.6C158.368 156.067 159.502 153.667 160.835 151.4C162.169 149.267 163.568 147.134 165.035 145C168.502 140.2 172.235 135.734 176.235 131.6C180.368 127.334 184.702 123.267 189.235 119.4C190.302 118.467 191.435 117.534 192.635 116.6C193.835 115.667 195.102 114.867 196.435 114.2C198.302 113.134 200.302 112.6 202.435 112.6C205.902 112.6 207.635 114.334 207.635 117.8C207.635 120.067 206.969 122.667 205.635 125.6C204.435 128.134 203.102 130.534 201.635 132.8C200.169 135.067 198.635 137.334 197.035 139.6C196.502 140.134 195.902 140.4 195.235 140.4C194.568 140.134 194.235 139.667 194.235 139C194.235 138.467 194.369 138.134 194.635 138C195.435 136.534 196.235 135.134 197.035 133.8C197.968 132.334 198.902 130.867 199.835 129.4C201.568 126.6 202.902 123.8 203.835 121L204.435 118V117.2C204.302 116.267 203.702 115.8 202.635 115.8C200.902 115.8 199.302 116.267 197.835 117.2C196.368 118.134 194.969 119.134 193.635 120.2C192.302 121.267 190.969 122.334 189.635 123.4C183.235 128.867 177.235 135 171.635 141.8C169.902 143.934 168.302 146.067 166.835 148.2C165.369 150.334 163.968 152.6 162.635 155C161.968 156.467 161.369 157.934 160.835 159.4C160.169 160.867 159.702 162.334 159.435 163.8C159.302 165 159.302 166.134 159.435 167.2C159.568 168.934 160.702 169.934 162.835 170.2C163.902 170.334 164.968 170.267 166.035 170C167.102 169.734 168.168 169.4 169.235 169C171.502 168.2 173.568 167.267 175.435 166.2C177.435 165.134 179.368 163.867 181.235 162.4C184.702 159.734 187.835 156.867 190.635 153.8C193.569 150.867 196.368 147.734 199.035 144.4C202.102 140.534 204.902 136.6 207.435 132.6C210.102 128.6 212.635 124.467 215.035 120.2C216.502 117.667 217.902 115.2 219.235 112.8C220.568 110.267 221.902 107.734 223.235 105.2C224.835 102.134 226.368 99.0003 227.835 95.8003C229.435 92.6003 230.969 89.3337 232.435 86.0003C236.835 76.267 240.635 66.267 243.835 56.0003C245.835 49.7337 247.435 43.467 248.635 37.2003C249.168 34.667 249.569 32.2003 249.835 29.8003C250.102 27.267 250.168 24.667 250.035 22.0003C250.035 18.8003 249.502 15.6003 248.435 12.4003C246.435 7.06699 242.635 4.13365 237.035 3.60032C234.768 3.33366 232.635 3.40033 230.635 3.80033C228.635 4.06699 226.569 4.53366 224.435 5.20032C221.369 6.26699 218.502 7.46699 215.835 8.80033C213.169 10.1337 210.502 11.667 207.835 13.4003C202.502 16.7337 197.502 20.467 192.835 24.6003C188.169 28.6003 183.702 32.9337 179.435 37.6003C176.102 41.067 173.302 44.7337 171.035 48.6003L169.835 51.0003C169.702 51.267 169.635 51.8003 169.635 52.6003C169.902 53.4003 169.635 53.9337 168.835 54.2003C167.902 54.467 167.235 54.2003 166.835 53.4003C166.569 53.0003 166.435 52.6003 166.435 52.2003C166.568 51.667 166.702 51.2003 166.835 50.8003C167.369 48.9337 168.302 47.0003 169.635 45.0003C170.969 42.867 172.369 40.867 173.835 39.0003C175.435 37.1337 177.035 35.267 178.635 33.4003C181.302 30.6003 184.035 27.9337 186.835 25.4003C189.635 22.7337 192.569 20.267 195.635 18.0003C198.702 15.7337 201.702 13.6003 204.635 11.6003C207.702 9.467 210.969 7.53366 214.435 5.80033C216.702 4.73366 219.035 3.73366 221.435 2.80032C223.835 1.86699 226.368 1.20032 229.035 0.800321C231.035 0.400326 232.969 0.200328 234.835 0.200328C236.835 0.0669888 238.835 0.333652 240.835 1.00032C245.369 2.33366 248.635 5.13366 250.635 9.40033C251.435 11.0003 251.969 12.6003 252.235 14.2003C252.635 15.8003 252.969 17.467 253.235 19.2003C253.502 21.467 253.568 23.7337 253.435 26.0003C253.302 28.1337 253.102 30.3337 252.835 32.6003C252.169 37.1337 251.302 41.6003 250.235 46.0003C249.168 50.267 247.902 54.5337 246.435 58.8003C244.969 63.467 243.302 68.1337 241.435 72.8003C239.702 77.3337 237.835 81.9337 235.835 86.6003L229.235 100.4C227.635 103.734 225.968 107 224.235 110.2C222.635 113.4 220.902 116.6 219.035 119.8C216.368 124.334 213.635 128.8 210.835 133.2C208.035 137.467 205.102 141.667 202.035 145.8C199.768 148.734 197.368 151.534 194.835 154.2C192.435 156.867 189.835 159.4 187.035 161.8C185.035 163.534 182.969 165.134 180.835 166.6C178.702 168.067 176.435 169.4 174.035 170.6C172.568 171.267 170.702 172 168.435 172.8C166.168 173.6 163.768 173.734 161.235 173.2Z" fill="#FF0420"/>
<path d="M289.107 78.0003C290.574 78.8003 291.307 79.667 291.307 80.6003C291.307 81.1337 291.174 81.6003 290.907 82.0003C290.24 82.9337 289.307 83.267 288.107 83.0003C287.574 82.867 287.04 82.6003 286.507 82.2003C283.84 81.5337 280.84 81.2003 277.507 81.2003C274.307 81.2003 271.374 81.4003 268.707 81.8003C265.374 82.3337 262.174 83.0003 259.107 83.8003C259.507 84.2003 259.974 84.8003 260.507 85.6003C262.374 87.867 262.774 90.3337 261.707 93.0003C260.64 95.8003 258.707 98.667 255.907 101.6C253.24 104.4 250.374 106.134 247.307 106.8C246.107 107.067 245.107 106.934 244.307 106.4C243.374 105.734 242.774 104.734 242.507 103.4C242.24 100.867 242.64 98.3337 243.707 95.8003C244.774 93.1337 245.974 90.7337 247.307 88.6003C249.84 84.2003 252.574 80.3337 255.507 77.0003L256.707 75.8003C257.374 75.1337 258.174 75.1337 259.107 75.8003C259.374 76.067 259.574 76.467 259.707 77.0003C259.84 77.4003 259.84 77.8003 259.707 78.2003C259.574 78.6003 259.107 78.9337 258.307 79.2003C258.04 79.2003 257.84 79.267 257.707 79.4003C257.44 79.667 257.174 80.0003 256.907 80.4003C256.774 80.8003 256.574 81.1337 256.307 81.4003C259.24 80.067 262.574 79.1337 266.307 78.6003C270.04 78.067 273.64 77.7337 277.107 77.6003C281.107 77.467 285.107 77.6003 289.107 78.0003ZM258.307 91.8003C258.84 90.467 258.64 89.067 257.707 87.6003C257.44 87.2003 256.907 86.6003 256.107 85.8003C255.44 84.6003 255.174 83.6003 255.307 82.8003C254.64 83.6003 253.974 84.5337 253.307 85.6003C252.64 86.5337 251.974 87.5337 251.307 88.6003C250.24 90.2003 249.307 91.867 248.507 93.6003C247.707 95.2003 247.04 96.9337 246.507 98.8003C246.107 100 245.907 101.334 245.907 102.8C246.174 103.334 246.707 103.534 247.507 103.4C248.174 103.134 248.707 102.867 249.107 102.6C250.974 101.534 252.84 100 254.707 98.0003C256.44 96.0003 257.64 93.9337 258.307 91.8003Z" fill="#FF0420"/>
<path d="M318.682 78.0003C320.415 78.267 320.949 78.867 320.282 79.8003C319.749 80.7337 319.082 81.467 318.282 82.0003C314.015 85.067 309.949 88.0003 306.082 90.8003C302.349 93.467 298.282 96.267 293.882 99.2003C292.815 99.867 291.349 100.8 289.482 102C287.749 103.067 286.082 103.6 284.482 103.6C282.882 103.6 281.882 102.867 281.482 101.4C281.215 100.6 281.282 99.467 281.682 98.0003C281.949 96.4003 282.415 94.7337 283.082 93.0003C283.615 91.1337 284.282 89.267 285.082 87.4003C285.882 85.5337 286.682 83.8003 287.482 82.2003C287.482 81.5337 287.615 80.867 287.882 80.2003C288.149 79.4003 288.482 78.8003 288.882 78.4003C289.149 77.867 289.349 77.5337 289.482 77.4003C290.149 76.7337 290.815 76.467 291.482 76.6003C292.282 76.6003 292.682 77.1337 292.682 78.2003C292.682 78.467 292.549 79.0003 292.282 79.8003C290.815 82.7337 289.482 85.6003 288.282 88.4003C287.882 89.2003 287.482 90.2003 287.082 91.4003C286.549 92.6003 286.082 93.8003 285.682 95.0003C285.282 96.2003 285.015 97.267 284.882 98.2003C284.615 99.1337 284.549 99.7337 284.682 100C284.949 100.4 285.815 100.2 287.282 99.4003C288.615 98.6003 289.482 98.067 289.882 97.8003C291.615 96.6003 293.815 95.067 296.482 93.2003C299.282 91.3337 302.082 89.467 304.882 87.6003C307.682 85.6003 310.349 83.7337 312.882 82.0003C315.415 80.267 317.349 78.9337 318.682 78.0003ZM298.482 57.4003C297.682 56.867 297.482 56.2003 297.882 55.4003C298.549 54.3337 299.215 53.3337 299.882 52.4003C300.549 51.3337 301.215 50.267 301.882 49.2003C302.282 48.5337 302.882 48.3337 303.682 48.6003C304.749 49.0003 305.015 49.667 304.482 50.6003C303.815 51.667 303.215 52.7337 302.682 53.8003C302.149 54.7337 301.482 55.7337 300.682 56.8003C300.149 57.467 299.415 57.667 298.482 57.4003Z" fill="#FF0420"/>
<path d="M335.97 85.8003C335.57 86.067 335.103 86.3337 334.57 86.6003C334.036 86.867 333.636 87.1337 333.37 87.4003C331.77 88.6003 330.236 89.8003 328.77 91.0003C327.303 92.067 325.703 93.267 323.97 94.6003L314.97 101.8C314.303 102.334 313.436 102.8 312.37 103.2C311.57 103.467 310.903 103.4 310.37 103C309.703 102.467 309.37 101.8 309.37 101C309.37 100.467 309.436 100 309.57 99.6003C309.703 99.067 309.836 98.5337 309.97 98.0003C310.77 96.1337 311.57 94.3337 312.37 92.6003C313.036 90.7337 313.77 88.867 314.57 87.0003C315.37 85.1337 316.236 83.3337 317.17 81.6003C317.97 79.7337 318.77 77.867 319.57 76.0003C319.703 75.7337 319.836 75.5337 319.97 75.4003C320.103 75.267 320.236 75.067 320.37 74.8003C321.036 74.1337 321.703 74.067 322.37 74.6003C323.036 75.1337 323.17 75.8003 322.77 76.6003C321.303 79.667 319.97 82.8003 318.77 86.0003C317.436 89.2003 316.036 92.3337 314.57 95.4003C314.303 95.9337 314.103 96.467 313.97 97.0003C313.836 97.5337 313.636 98.1337 313.37 98.8003C314.036 98.267 314.703 97.7337 315.37 97.2003C316.036 96.667 316.57 96.267 316.97 96.0003C319.236 94.1337 321.303 92.467 323.17 91.0003C325.17 89.4003 327.37 87.667 329.77 85.8003C330.57 85.1337 331.37 84.5337 332.17 84.0003C332.97 83.3337 333.903 82.8003 334.97 82.4003C335.77 82.1337 336.436 82.0003 336.97 82.0003C338.836 82.267 339.636 83.267 339.37 85.0003C339.37 86.6003 339.17 88.2003 338.77 89.8003C338.636 90.7337 338.503 91.667 338.37 92.6003C338.236 93.4003 338.17 94.267 338.17 95.2003C338.303 95.867 338.636 96.067 339.17 95.8003C340.636 95.267 342.17 94.5337 343.77 93.6003L359.37 83.4003C360.036 82.867 360.836 82.3337 361.77 81.8003C362.836 81.267 363.77 80.667 364.57 80.0003C365.503 79.467 366.503 78.8003 367.57 78.0003C368.903 78.267 369.57 78.8003 369.57 79.6003C369.703 80.267 369.37 80.867 368.57 81.4003C368.036 81.667 367.17 82.2003 365.97 83.0003C364.903 83.8003 363.57 84.7337 361.97 85.8003C359.036 87.667 356.17 89.6003 353.37 91.6003C350.57 93.467 347.636 95.267 344.57 97.0003C342.97 97.9337 341.436 98.667 339.97 99.2003C336.77 100.267 335.036 99.067 334.77 95.6003C334.636 94.5337 334.636 93.5337 334.77 92.6003C334.903 91.667 335.103 90.667 335.37 89.6003C335.503 88.9337 335.636 88.3337 335.77 87.8003C335.903 87.1337 335.97 86.467 335.97 85.8003Z" fill="#FF0420"/>
</svg>
