<svg width="180" height="172" viewBox="0 0 180 172" fill="none" xmlns="http://www.w3.org/2000/svg">
<path d="M25 50V151C25 162.046 33.9543 171 45 171H98.5C109.546 171 118.5 162.058 118.5 151.013C118.5 127.234 118.5 85.627 118.5 44.9993C118.5 33.9536 127.454 25 138.5 25H180" stroke="#FF0420" stroke-width="2"/>
<circle cx="25.5" cy="25.5" r="24.5" fill="#FF0420" stroke="#FF0420" stroke-width="2"/>
<path d="M19.0015 39.006C19.0015 39.006 18.9976 39.006 19.0015 39.006C19.0015 39.0099 19.0015 39.0099 19.0055 39.0099V39.006C19.0055 39.002 19.0094 38.9981 19.0094 38.9941L19.0055 38.9981C19.0055 39.002 19.0015 39.002 19.0015 39.006C19.0015 39.002 19.0015 39.006 19.0015 39.006Z" fill="#FF0420"/>
<path d="M19.002 39.0025C19.002 39.0025 19.0066 39.0025 19.002 39.0025C19.0066 39.0025 19.0066 38.9979 19.002 39.0025C19.0066 38.9979 19.0066 38.9979 19.002 39.0025Z" fill="#FF0420"/>
<path d="M18.9983 39.0068C19.0027 39.0068 19.0027 39.0024 19.0027 39.0024L19.0072 38.9979C19.0072 38.9979 19.0027 38.9979 18.9983 39.0068C18.9983 39.0024 18.9983 39.0024 18.9983 39.0068Z" fill="#FF0420"/>
<path d="M19.0018 39.0018C19.0018 39.0018 19.0018 39.0065 19.0018 39.0018C18.9971 39.0065 18.9971 39.0065 19.0018 39.0018C18.9971 39.0065 19.0018 39.0065 19.0018 39.0018C19.0018 39.0065 19.0018 39.0018 19.0018 39.0018Z" fill="#FF0420"/>
<path d="M18.9941 39.0066C18.9941 39.0066 18.9989 39.0066 18.9989 39.0018C18.9989 39.0066 18.9941 39.0066 18.9941 39.0066Z" fill="#FF0420"/>
<path d="M19.0133 38.9868C19.0133 38.9868 19.0086 38.9821 19.0133 38.9868C19.0086 38.9821 19.0086 38.9821 19.0133 38.9868C19.0086 38.9868 19.0086 38.9868 19.0133 38.9868Z" fill="#FF0420"/>
<path d="M18.4847 38.6249C18.4537 38.6172 18.4692 38.6211 18.4847 38.6249V38.6249Z" fill="#FF0420"/>
<path d="M18.3145 39.0796C18.3183 39.0834 18.3221 39.091 18.3221 39.0948C18.3259 39.1024 18.3335 39.1101 18.3373 39.1139C18.3335 39.1101 18.3335 39.1063 18.3297 39.1025C18.3259 39.0948 18.3221 39.0872 18.3145 39.0796Z" fill="#FF0420"/>
<path d="M32.4551 22.3429C32.466 22.3319 32.4697 22.3283 32.4551 22.3429V22.3429Z" fill="#FF0420"/>
<path d="M26.924 12.3075L26.9287 12.3027C26.924 12.3075 26.924 12.3075 26.924 12.3075Z" fill="#FF0420"/>
<path d="M27.1593 20.7465C27.1552 20.7546 27.1552 20.7587 27.1593 20.7465V20.7465Z" fill="#FF0420"/>
<path d="M36.1367 27.0103C36.2067 27.2512 36.2649 27.4921 36.3116 27.7369C36.3893 27.803 36.467 27.8729 36.537 27.9428C36.5642 27.97 36.5914 27.9972 36.6186 28.0283C36.4903 27.7524 36.3621 27.4766 36.23 27.2007C36.1989 27.1385 36.1678 27.0724 36.1367 27.0103Z" fill="#FF0420"/>
<path d="M32.2871 22.7126C32.2871 22.7087 32.291 22.701 32.291 22.6932C32.2871 22.6932 32.2871 22.7048 32.2871 22.7126Z" fill="#FF0420"/>
<path d="M27.5275 17.6535C27.5275 17.6496 27.5314 17.6496 27.5314 17.6457C27.5393 17.6338 27.5354 17.6338 27.5275 17.6535Z" fill="#FF0420"/>
<path d="M18.3105 39.0718C18.315 39.0762 18.315 39.0762 18.3194 39.0806C18.3194 39.0806 18.3194 39.0806 18.3194 39.0762C18.315 39.0762 18.3105 39.0762 18.3105 39.0718Z" fill="#FF0420"/>
<path d="M19.0039 38.963C19.0039 38.963 19.0039 38.9667 19.0039 38.963C19.0039 38.9667 19.0039 38.9703 19.0076 38.974C19.0039 38.9703 19.0039 38.963 19.0039 38.963Z" fill="#FF0420"/>
<path d="M18.1973 38.8464C18.2009 38.8647 18.2009 38.8574 18.1973 38.8464V38.8464Z" fill="#FF0420"/>
<path d="M27.4842 15.6057C27.4842 15.6135 27.4803 15.6135 27.4842 15.6057V15.6057Z" fill="#FF0420"/>
<path d="M25.5481 21.1118C25.4354 21.6558 25.2334 22.1765 25.1168 22.7205C25.043 23.1013 24.973 23.4821 24.8603 23.8513C24.8098 24.0184 24.7477 24.1816 24.6738 24.337C24.6855 24.3409 24.701 24.3448 24.7127 24.3486C24.8798 24.3992 25.0469 24.4419 25.2178 24.4769C25.4898 24.5313 25.7657 24.5701 26.0416 24.5624C26.1271 24.5546 26.2165 24.5429 26.302 24.5235C26.3486 24.5118 26.3991 24.5002 26.4457 24.4885C26.4535 24.4885 26.4691 24.4808 26.4807 24.4769C26.4963 24.473 26.5118 24.4652 26.5157 24.4652C26.8771 24.337 27.219 24.1505 27.5765 24.0028C27.6736 23.964 27.7669 23.9212 27.864 23.8824C27.969 23.8357 28.0816 23.8085 28.1943 23.7774C28.1982 23.7774 28.1982 23.7774 28.2021 23.7774C28.2759 23.7425 28.3537 23.7075 28.4314 23.6764C29.0026 23.4238 29.6126 23.2334 30.2227 23.0936C30.518 23.0275 30.8133 22.9653 31.1126 22.9226C31.2291 22.499 31.3496 22.0716 31.4428 21.6442C31.4817 21.4499 31.5128 21.2595 31.5439 21.0652C31.6449 20.3541 31.676 19.6313 31.6371 18.9125C31.6216 18.6793 31.6022 18.4501 31.575 18.2169C31.47 17.3387 31.2758 16.4722 31.0076 15.629C30.9183 15.3531 30.8211 15.0772 30.7162 14.8091C30.4287 14.0591 30.0828 13.3364 29.6515 12.6564C29.364 12.2134 29.0337 11.7898 28.6451 11.4285C28.4586 11.2653 28.2604 11.1215 28.0428 11.0049C27.9068 10.9389 27.763 10.8883 27.6192 10.8534C27.5066 10.8339 27.3939 10.8262 27.2773 10.8262C27.1607 10.8378 27.048 10.8573 26.9353 10.8922C26.8343 10.9272 26.7333 10.9738 26.64 11.0282C26.5507 11.0904 26.4652 11.1642 26.3875 11.2458C26.2787 11.3741 26.1893 11.5101 26.1116 11.6577C25.9911 11.9103 25.9056 12.1745 25.8473 12.4465C25.7191 13.1071 25.7036 13.7794 25.7385 14.4477C25.7735 14.9917 25.8318 15.5357 25.8745 16.0797C25.9639 17.1833 25.9561 18.2868 25.8357 19.3865C25.7618 19.9616 25.6686 20.5367 25.5481 21.1118ZM26.5079 17.0084C26.504 16.9579 26.4963 16.9035 26.5001 16.853C26.5001 16.8297 26.4963 16.8103 26.4963 16.7869C26.4924 16.7053 26.4846 16.6237 26.4768 16.5421C26.4496 16.1885 26.403 15.8388 26.3486 15.493C26.232 14.7935 26.0882 14.0863 26.1349 13.3714C26.1582 13.0177 26.2281 12.6603 26.3641 12.33C26.4341 12.1629 26.5196 12.0036 26.6323 11.8598C26.6905 11.786 26.7605 11.716 26.8304 11.65C26.8654 11.6189 26.9043 11.58 26.9431 11.5606C26.9781 11.545 27.0247 11.5373 27.0636 11.5256C27.0752 11.5217 27.083 11.5217 27.0947 11.5256C27.118 11.514 27.1413 11.5062 27.1685 11.4945C27.3356 11.4362 27.5143 11.4129 27.6892 11.4401C27.7824 11.4557 27.8718 11.4868 27.9456 11.545C28.0039 11.5878 28.0583 11.6538 28.0622 11.7277C28.0622 11.7238 28.0622 11.7238 28.0622 11.7199C28.0622 11.716 28.0622 11.716 28.0622 11.7121C28.0622 11.716 28.0622 11.716 28.0622 11.7199C28.0622 11.7238 28.0661 11.7277 28.0739 11.7316C28.1088 11.7782 28.0661 11.8326 28.0117 11.8209C28.0078 11.8209 28.0078 11.8209 28.0039 11.8209C27.9456 11.8404 27.8874 11.8481 27.8213 11.852C27.8524 11.8481 27.8019 11.8559 27.798 11.8559C27.7863 11.8559 27.7747 11.8598 27.763 11.8598C27.7319 11.8637 27.7047 11.8637 27.6736 11.8598C27.6698 11.8598 27.6581 11.8598 27.6503 11.8598C27.6426 11.8598 27.6231 11.8598 27.6192 11.8637C27.5998 11.8676 27.5843 11.8676 27.5648 11.8714C27.5338 11.8753 27.5066 11.8831 27.4755 11.8909C27.4716 11.8909 27.4716 11.8909 27.4677 11.8909C27.4638 11.8909 27.4638 11.8909 27.4599 11.8948C27.4444 11.8986 27.4327 11.9064 27.4172 11.9103C27.39 11.922 27.3589 11.9336 27.3317 11.9453C27.3045 11.9569 27.2773 11.9725 27.2501 11.988C27.2462 11.9919 27.2384 11.9958 27.2307 12.0036C27.2151 12.0152 27.2035 12.023 27.1918 12.0346C27.1335 12.0813 27.0752 12.1318 27.0247 12.1823C27.0208 12.1862 27.0053 12.2017 27.0014 12.2095C26.9859 12.225 26.9703 12.2406 26.9587 12.26C26.947 12.2717 26.9353 12.2833 26.9237 12.295L26.9198 12.2989C26.8771 12.4193 26.8421 12.5437 26.811 12.6641C26.8071 12.6719 26.8071 12.6836 26.8032 12.6913V12.6952C26.7993 12.7108 26.7993 12.7263 26.7955 12.7419C26.8149 12.7224 26.8343 12.703 26.8537 12.6836C26.8693 12.668 26.8848 12.6486 26.9043 12.6331C26.9276 12.6097 26.9587 12.5981 26.9859 12.5787C26.9936 12.5709 27.0092 12.5553 27.0131 12.5553C27.0364 12.5398 27.0597 12.5281 27.083 12.5126C27.1141 12.4932 27.1413 12.466 27.1685 12.4388C27.2307 12.3766 27.3589 12.4388 27.3434 12.5281C27.3356 12.5709 27.3239 12.6175 27.32 12.6564C27.3162 12.703 27.3084 12.7496 27.2967 12.7963C27.2695 12.8973 27.219 12.9828 27.1685 13.076C27.1257 13.1499 27.0752 13.2198 27.0286 13.2936C27.0053 13.3325 26.982 13.3675 26.9625 13.4063C26.9587 13.4102 26.9587 13.418 26.9548 13.4258C26.9431 13.4607 26.947 13.4452 26.9548 13.4258C26.9548 13.4219 26.9587 13.418 26.9587 13.4141C26.9548 13.4335 26.9392 13.453 26.9353 13.4685C26.9198 13.5074 26.9004 13.5462 26.8887 13.589C26.8848 13.6045 26.8809 13.6162 26.8771 13.6317C26.8809 13.6239 26.8848 13.62 26.8887 13.6123C26.9625 13.519 27.0519 13.4296 27.1413 13.3519C27.184 13.317 27.2346 13.2936 27.2773 13.2625C27.3239 13.2315 27.3744 13.212 27.4172 13.1771C27.4755 13.1343 27.5804 13.1887 27.5454 13.2664C27.5376 13.2781 27.5338 13.2936 27.526 13.3053C27.5104 13.3053 27.5066 13.3169 27.5182 13.3403C27.5182 13.3675 27.5027 13.3908 27.4949 13.4141C27.4755 13.4607 27.4716 13.4996 27.456 13.5423C27.4288 13.6123 27.4133 13.6239 27.3861 13.6861C27.3667 13.7288 27.3472 13.7677 27.3278 13.8104C27.2967 13.8726 27.2618 13.9309 27.2268 13.9931C27.2229 14.0008 27.2112 14.0242 27.2074 14.0319C27.1996 14.0475 27.1918 14.063 27.184 14.0786C27.1452 14.164 27.1102 14.2495 27.0752 14.335C27.0597 14.3816 27.0441 14.4283 27.0286 14.4749C27.0403 14.4594 27.0558 14.4438 27.0675 14.4283C27.1763 14.3078 27.3006 14.2029 27.425 14.0941C27.5338 14.0008 27.7008 14.1485 27.6115 14.2651C27.526 14.3778 27.4677 14.4943 27.4133 14.6265C27.355 14.7625 27.3045 14.9023 27.2579 15.0383C27.2346 15.1044 27.2151 15.1705 27.1957 15.2404C27.2035 15.2326 27.2073 15.2249 27.2151 15.2171C27.32 15.1005 27.4288 14.9956 27.5493 14.8946C27.6348 14.8246 27.7824 14.914 27.7358 15.0228C27.7086 15.0889 27.6814 15.151 27.6542 15.2171C27.6503 15.2326 27.6426 15.2443 27.6348 15.2598C27.6115 15.3026 27.6076 15.3181 27.6154 15.2987C27.6192 15.287 27.6192 15.2909 27.6076 15.3104C27.592 15.3376 27.5804 15.3686 27.5648 15.3958C27.5415 15.4425 27.5221 15.4891 27.4988 15.5318C27.491 15.5474 27.4832 15.559 27.4755 15.5746C27.4716 15.5785 27.4716 15.5824 27.4677 15.5901C27.4366 15.6523 27.4094 15.7106 27.3861 15.7728C27.3356 15.901 27.2851 16.0292 27.254 16.1613V16.1652V16.1691C27.2501 16.1846 27.2501 16.2002 27.2462 16.2157C27.2423 16.2429 27.2346 16.274 27.2307 16.3012C27.2423 16.2896 27.254 16.274 27.2695 16.2624C27.3822 16.1536 27.526 16.0681 27.662 15.9904C27.7669 15.9282 27.8912 16.0758 27.8174 16.173C27.7747 16.2313 27.7319 16.2896 27.6931 16.3517C27.6814 16.3673 27.6736 16.3867 27.662 16.4061C27.6581 16.41 27.6348 16.4567 27.6464 16.4372C27.662 16.4061 27.6231 16.4839 27.6154 16.4955C27.6037 16.5149 27.5959 16.5305 27.5843 16.5499C27.5765 16.5655 27.5687 16.581 27.561 16.5927C27.5493 16.6121 27.5415 16.6315 27.5571 16.6004C27.5338 16.6471 27.5104 16.6937 27.4871 16.7364C27.4832 16.7442 27.4794 16.752 27.4755 16.7559C27.4677 16.7675 27.4638 16.7831 27.456 16.7986C27.4405 16.8297 27.4288 16.8608 27.4172 16.8919C27.3783 16.9812 27.3395 17.0667 27.3084 17.16C27.3472 17.1172 27.3861 17.0784 27.425 17.0434C27.526 16.9579 27.6309 16.888 27.7397 16.8141C27.8368 16.7481 27.9379 16.8491 27.8874 16.9463C27.8291 17.0589 27.7786 17.1716 27.7203 17.2843C27.7125 17.2999 27.7047 17.3154 27.697 17.331C27.6892 17.3426 27.6892 17.3426 27.697 17.3348C27.7047 17.3193 27.7008 17.3271 27.6892 17.3543C27.6736 17.3892 27.6503 17.4164 27.6309 17.4475C27.5998 17.498 27.5687 17.5486 27.5415 17.5991C27.5338 17.6107 27.5299 17.6224 27.5221 17.634C27.5221 17.6379 27.5182 17.6379 27.5182 17.6418C27.5066 17.6651 27.4988 17.6846 27.4871 17.7079C27.4871 17.7079 27.4794 17.7234 27.4716 17.739C27.4677 17.7467 27.456 17.7739 27.456 17.7739C27.4522 17.7856 27.4444 17.7972 27.4405 17.8128C27.4288 17.84 27.4172 17.8672 27.4055 17.8983C27.3939 17.9255 27.3861 17.9566 27.3744 17.9876C27.4288 17.9332 27.4871 17.8788 27.5571 17.8439C27.592 17.8283 27.627 17.8128 27.662 17.8011C27.6775 17.7972 27.6931 17.7895 27.7086 17.7856C27.7125 17.7856 27.7669 17.7778 27.7475 17.7856C27.8019 17.7662 27.8757 17.8128 27.8485 17.8788C27.8446 17.8594 27.8407 17.8633 27.8446 17.8905C27.8446 17.8944 27.8446 17.9022 27.8446 17.906C27.8407 17.9255 27.8368 17.9449 27.8291 17.9643C27.8174 17.9915 27.8096 18.0226 27.798 18.0498C27.7708 18.1236 27.7242 18.1936 27.6775 18.2596C27.5998 18.3801 27.5338 18.5045 27.4638 18.6327C27.456 18.6482 27.4444 18.6638 27.4366 18.6793C27.4366 18.6793 27.425 18.6987 27.4211 18.7104C27.4172 18.7221 27.4094 18.7376 27.4055 18.7415C27.3978 18.757 27.39 18.7765 27.3822 18.792C27.355 18.8542 27.3278 18.9202 27.3006 18.9824C27.2928 19.0018 27.2851 19.0213 27.2773 19.0407C27.3239 19.0057 27.3783 18.9785 27.4366 18.9746C27.4522 18.9669 27.4716 18.9552 27.4871 18.9474C27.5804 18.8969 27.6892 19.0213 27.6231 19.1067C27.6154 19.1184 27.6076 19.1301 27.5959 19.1417C27.5843 19.2233 27.5299 19.2933 27.4871 19.3671C27.4444 19.4409 27.3978 19.5186 27.355 19.5925C27.3511 19.5964 27.3317 19.6352 27.3317 19.6352C27.3239 19.6508 27.3162 19.6624 27.3123 19.678C27.2967 19.7168 27.2812 19.7557 27.2656 19.7945C27.2346 19.8839 27.2112 19.9733 27.1529 20.0393C27.1491 20.051 27.1413 20.0588 27.1374 20.0704C27.1296 20.1209 27.1257 20.1676 27.118 20.2142C27.1646 20.1948 27.2112 20.1831 27.2618 20.1909C27.3162 20.1986 27.3472 20.2375 27.3472 20.2919C27.3472 20.3541 27.3162 20.4046 27.2967 20.459C27.2812 20.4979 27.2656 20.5328 27.2462 20.5678C27.2384 20.5795 27.2307 20.5911 27.2268 20.6067C27.2268 20.6067 27.2268 20.6105 27.2229 20.6144C27.2035 20.6533 27.184 20.6921 27.1646 20.731C27.1646 20.7349 27.1607 20.7388 27.1607 20.7427C27.1529 20.7582 27.1452 20.7737 27.1413 20.7893C27.1141 20.8553 27.0791 20.9136 27.0364 20.9719C27.0131 21.0069 26.9742 21.0302 26.9353 21.0419C26.9237 21.0846 26.9081 21.1312 26.8926 21.174C26.8926 21.1779 26.8887 21.1817 26.8887 21.1856C26.9548 21.2051 27.0014 21.2828 26.9509 21.3527C26.8499 21.5004 26.7488 21.6558 26.6284 21.7879C26.5584 21.9278 26.4846 22.0638 26.4108 22.1998C26.3564 22.297 26.2204 22.3164 26.131 22.2698C26.03 22.2192 25.995 22.1104 26.0222 22.0055C26.0727 21.8074 26.131 21.6092 26.1815 21.411C26.2359 21.2128 26.2981 21.0185 26.3486 20.8165C26.3603 20.766 26.3719 20.7155 26.3836 20.6649C26.3875 20.6533 26.3875 20.6416 26.3913 20.63C26.3952 20.6067 26.3991 20.5833 26.403 20.5639C26.4185 20.4668 26.4341 20.3696 26.4419 20.2764C26.4652 20.0743 26.4768 19.8722 26.4807 19.6702C26.504 18.9591 26.5312 18.248 26.5196 17.5369C26.5196 17.362 26.5157 17.1872 26.5079 17.0084Z" fill="#FF0420"/>
<path d="M21.1218 22.7982C21.118 22.7982 21.1142 22.7982 21.1104 22.7982C21.0571 22.802 21.1142 22.802 21.1218 22.7982Z" fill="#FF0420"/>
<path d="M32.574 37.9681C32.5663 37.9604 32.5624 37.9527 32.5547 37.9449C32.5624 37.9604 32.5702 37.9681 32.574 37.9681Z" fill="#FF0420"/>
<path d="M32.5117 37.8515C32.5194 37.8782 32.5194 37.882 32.5194 37.8744C32.5156 37.8629 32.5117 37.8515 32.5079 37.8439C32.5117 37.8477 32.5117 37.8515 32.5117 37.8515Z" fill="#FF0420"/>
<path d="M32.6579 38.0108C32.6503 38.0069 32.6427 38.0069 32.6351 38.0031C32.5855 37.9879 32.6236 38.0069 32.6579 38.0108Z" fill="#FF0420"/>
<path d="M23.3965 26.1904C23.4158 26.1943 23.4313 26.1943 23.3965 26.1904V26.1904Z" fill="#FF0420"/>
<path d="M32.023 35.3414C32.058 34.8013 32.058 34.2612 32.0308 33.7172C32.0152 33.484 31.9958 33.2509 31.9725 33.0216C31.8754 32.1745 31.7005 31.3391 31.444 30.5308C31.3896 30.3637 31.3314 30.1928 31.2692 30.0296C31.0127 29.3418 30.6902 28.6773 30.3016 28.0556C29.9402 27.4999 29.5167 26.9948 29.0271 26.5479C28.7279 26.2837 28.4015 26.0505 28.0479 25.864C28.0168 25.8485 27.9896 25.8368 27.9585 25.8213C27.9624 25.8213 27.9624 25.8252 27.9663 25.8252C27.807 25.7474 27.6438 25.6775 27.4767 25.6231C27.399 25.5998 27.3212 25.5765 27.2435 25.557C27.2008 25.5454 27.1541 25.5337 27.1114 25.5221C27.0997 25.5182 27.0842 25.5143 27.0725 25.5143C27.0687 25.5143 27.0648 25.5143 27.0609 25.5104C27.0026 25.4988 26.9404 25.4949 26.8821 25.4754C26.886 25.4754 26.8938 25.4793 26.8977 25.4793C26.921 25.4871 26.9482 25.4949 26.8977 25.4793C26.8899 25.4754 26.8821 25.4754 26.8744 25.4754C26.8511 25.4716 26.8277 25.4677 26.8083 25.4677C26.7306 25.4599 26.6529 25.456 26.5713 25.4599C26.5519 25.4599 26.5285 25.4599 26.5091 25.4599C26.5013 25.4599 26.4936 25.4599 26.4819 25.4638C26.4508 25.4677 26.4159 25.4677 26.3848 25.4716C26.5985 25.5143 26.8161 25.5881 27.0181 25.6581C27.2746 25.7474 27.5233 25.864 27.7642 25.9884C28.2188 26.2215 28.6424 26.5168 29.0271 26.8588C29.812 27.5621 30.3949 28.4481 30.7563 29.435C31.106 30.3832 31.2847 31.3779 31.4013 32.3805C31.5256 33.4413 31.6034 34.506 31.7471 35.5629C31.7899 35.8854 31.8326 36.2079 31.8948 36.5305C31.9103 36.4139 31.9259 36.3012 31.9414 36.1846C31.9764 35.9049 32.0075 35.6251 32.023 35.3414Z" fill="#FF0420"/>
<path d="M29.3856 29.9246C29.3856 29.9207 29.3895 29.9207 29.3895 29.9169C29.3973 29.8974 29.4089 29.878 29.4167 29.8586C29.4556 29.7731 29.4983 29.6876 29.5294 29.5982C29.5449 29.5516 29.5605 29.5089 29.576 29.4622C29.5799 29.4467 29.5838 29.4272 29.5877 29.4117C29.5877 29.4078 29.5916 29.4 29.5916 29.3923C29.5916 29.3923 29.5993 29.3534 29.5993 29.3418C29.6032 29.3223 29.6032 29.3068 29.6071 29.2874C29.611 29.2485 29.6149 29.2096 29.6188 29.1708C29.6226 29.128 29.6188 29.0892 29.6188 29.0464C29.6188 29.027 29.6188 29.0115 29.6188 28.992C29.6188 28.9843 29.6149 28.9493 29.6188 28.9532C29.6188 28.9415 29.6149 28.9299 29.6149 28.926C29.611 28.9066 29.611 28.8832 29.6071 28.8638C29.6032 28.8288 29.5954 28.7939 29.5877 28.7628C29.5838 28.7434 29.576 28.72 29.5721 28.7006C29.5682 28.6967 29.5682 28.689 29.5644 28.6851C29.5488 28.6384 29.5294 28.5957 29.5138 28.5491C29.5255 28.584 29.5061 28.5335 29.5022 28.5257C29.4944 28.5102 29.4905 28.4947 29.4866 28.4752C29.475 28.4403 29.4594 28.4092 29.4439 28.3742C29.44 28.3664 29.44 28.3625 29.4361 28.3548C29.4284 28.3431 29.4206 28.3276 29.4089 28.3159C29.339 28.211 29.2613 28.1061 29.1835 28.0089C29.0281 27.8069 28.8571 27.6165 28.6784 27.4377C28.6318 27.3911 28.589 27.3484 28.5424 27.3056C28.523 27.2862 28.4997 27.2668 28.4802 27.2473C28.4297 27.2124 28.4414 27.2162 28.4608 27.2279C28.4569 27.224 28.4569 27.224 28.453 27.2201C28.3559 27.1346 28.2587 27.053 28.1577 26.9753C27.9595 26.8199 27.7497 26.6722 27.5321 26.5401C27.4194 26.4702 27.3067 26.408 27.194 26.3458C27.1785 26.3381 27.1629 26.3303 27.1474 26.3225C27.1474 26.3225 27.1396 26.3186 27.1319 26.3147C27.1241 26.3109 27.1163 26.307 27.1124 26.3031C27.0969 26.2953 27.0813 26.2876 27.0658 26.2798C27.0114 26.2526 26.957 26.2293 26.9026 26.2021C26.6733 26.0971 26.4363 25.9961 26.1954 25.9223C26.1798 25.9184 26.071 25.8757 26.1177 25.8912C26.1526 25.9029 26.0866 25.8834 26.0866 25.8834C26.0594 25.8718 26.0322 25.864 26.0089 25.8523C25.9506 25.829 25.8884 25.8096 25.8301 25.7902C25.799 25.7785 25.7602 25.7707 25.7291 25.7591C25.6941 25.7474 25.6669 25.7241 25.6358 25.7047C25.5892 25.6814 25.5387 25.6736 25.4843 25.6619C25.4532 25.6542 25.4221 25.6425 25.4027 25.6192C25.1035 25.6231 24.8121 25.5764 24.5167 25.5065C24.1826 25.4288 23.8523 25.3083 23.5336 25.1879C23.522 25.184 23.5064 25.1762 23.4948 25.1723C23.0829 25.1296 22.6671 25.0946 22.2552 25.0674C21.6724 25.0286 21.0856 25.0247 20.5027 25.0558C20.2696 25.0713 20.0326 25.0907 19.7994 25.114C18.9834 25.2034 18.1752 25.3744 17.3902 25.6231C17.2115 25.6814 17.0327 25.7435 16.8579 25.8135C16.3799 25.9961 15.9136 26.2137 15.4629 26.4624C15.8165 26.3419 16.174 26.2293 16.5315 26.1282C17.3786 25.8873 18.2334 25.6891 19.0961 25.5143C19.9626 25.3394 20.8525 25.2034 21.7384 25.219C22.1814 25.2267 22.6399 25.2617 23.0635 25.3977C23.2849 25.4676 23.4948 25.5531 23.7007 25.6619C23.7474 25.6853 23.794 25.7086 23.8328 25.7474C23.8406 25.7552 23.8523 25.763 23.86 25.7707C23.8795 25.7863 23.8989 25.8057 23.9183 25.8213C23.9144 25.8174 23.9106 25.8135 23.9067 25.8096C23.8911 25.7941 23.8911 25.7941 23.9106 25.8096C23.9144 25.8096 23.9144 25.8135 23.9183 25.8135C23.93 25.8213 23.9378 25.829 23.9494 25.8329C24.0349 25.8912 24.1204 25.9534 24.2059 26.0117C24.373 26.1282 24.237 26.408 24.0427 26.3342C23.93 26.2914 23.8173 26.2681 23.7007 26.237C23.5997 26.237 23.4987 26.2137 23.3976 26.1904C23.3899 26.1904 23.3821 26.1865 23.3743 26.1865C23.3471 26.1826 23.316 26.1749 23.2888 26.171C23.3238 26.1787 23.3471 26.1826 23.2733 26.1671C23.2772 26.1671 23.2811 26.1671 23.2888 26.171C23.2849 26.171 23.2811 26.171 23.2772 26.1671C23.2733 26.1671 23.2694 26.1671 23.2655 26.1632C23.2539 26.1593 23.2422 26.1593 23.2305 26.1554C23.2189 26.1515 23.2033 26.1515 23.1917 26.1477C23.1917 26.1477 23.1917 26.1477 23.1956 26.1477C23.1878 26.1477 23.1839 26.1438 23.1761 26.1438C23.1723 26.1438 23.1684 26.1438 23.1684 26.1438C23.0246 26.1166 22.8769 26.1049 22.7293 26.0855C22.7254 26.1127 22.7215 26.136 22.7099 26.1632C22.5544 26.6062 22.3951 27.0492 22.2047 27.4805C21.8589 28.2693 21.4819 29.0464 21.0778 29.8081C20.697 30.523 20.2774 31.2186 19.9082 31.9413C19.7994 32.1589 19.6984 32.3766 19.6012 32.6019C19.5196 32.8001 19.4419 32.9983 19.3836 33.2081C19.3759 33.2353 19.3681 33.2625 19.3642 33.2897C19.2865 33.7094 19.2865 34.1407 19.3059 34.5681C19.3176 34.7391 19.3292 34.9101 19.3448 35.081C19.3759 35.4347 19.4031 35.7844 19.4147 36.138C19.4186 36.2973 19.4225 36.4527 19.4069 36.6081C19.4031 36.6626 19.3914 36.7208 19.3797 36.7752C19.3797 36.8374 19.3759 36.8957 19.372 36.9501C19.3642 37.0667 19.3525 37.191 19.3098 37.3037C19.236 37.4902 19.1272 37.6729 19.0145 37.8399C18.964 37.9138 18.9135 37.9837 18.8591 38.0537C18.964 38.0731 19.0689 38.1003 19.1699 38.1353C19.5702 38.2674 19.9626 38.4811 20.2502 38.792C20.254 38.7958 20.2579 38.7997 20.2579 38.8036C20.3939 38.6521 20.5416 38.5083 20.6815 38.3606C20.7359 38.3024 20.7942 38.2441 20.8486 38.1897C20.7942 38.1819 20.7359 38.1702 20.6815 38.1625C20.5571 38.1391 20.4678 38.0692 20.4367 37.9449C20.4095 37.8244 20.4872 37.7117 20.5843 37.6534C20.6815 37.5951 20.7786 37.5369 20.8758 37.4786C20.9846 37.4164 21.1128 37.3892 21.2333 37.3503C21.3498 37.3115 21.4625 37.2687 21.5791 37.2338C21.5441 37.2454 21.5092 37.2571 21.4742 37.2687C22.1425 37.0511 22.772 36.7364 23.3627 36.3634C23.7551 36.1069 24.1282 35.8271 24.4895 35.5318C24.5012 35.5201 24.5167 35.5124 24.5284 35.5007C24.5595 35.4774 24.5906 35.4502 24.6178 35.423C25.1851 34.9412 25.7019 34.3971 26.2032 33.8493C26.4829 33.5384 26.7549 33.2237 27.0269 32.905C27.536 32.3066 28.0334 31.6965 28.5191 31.0787C28.7794 30.7484 29.0398 30.4181 29.2924 30.0839C29.2962 30.0762 29.3001 30.0684 29.304 30.0645C29.3351 30.014 29.3584 29.9713 29.3856 29.9246ZM21.3731 34.607C21.3226 34.5526 21.2721 34.5021 21.2177 34.4515C21.1672 34.3971 21.1206 34.3272 21.0817 34.265C21.0118 34.1446 20.9574 34.0047 20.9107 33.8726C20.8913 33.8221 20.8758 33.7677 20.8602 33.7171C20.8447 33.7366 20.8253 33.7521 20.8097 33.7715C20.7514 33.8337 20.6815 33.9309 20.6232 34.0125C20.6154 34.0202 20.6115 34.0319 20.6038 34.0397C20.5766 34.2495 20.5649 34.4632 20.5688 34.6769C20.5688 34.6964 20.5688 34.7158 20.5688 34.7352C20.5688 34.7391 20.5688 34.743 20.5688 34.7469C20.5727 34.7818 20.5727 34.8168 20.5766 34.8557C20.5843 34.9373 20.596 35.0189 20.6115 35.0966C20.6426 35.2637 20.6659 35.4308 20.6854 35.5978C20.7009 35.7261 20.6465 35.8427 20.5299 35.9048C20.4289 35.9592 20.2618 35.9281 20.1958 35.831C20.1258 35.73 20.0636 35.6289 20.0209 35.5124C19.9782 35.3919 19.9432 35.2715 19.9199 35.1471C19.8771 34.9256 19.8616 34.7002 19.8577 34.4749C19.8499 34.0785 19.9121 33.6861 20.0015 33.3014C20.0908 32.9167 20.223 32.5436 20.3862 32.1823C20.7553 31.3507 21.2333 30.5774 21.6452 29.7692C21.7306 29.5982 21.8161 29.4234 21.9055 29.2563C21.9288 29.2135 21.9482 29.1747 21.9677 29.1319C21.9677 29.128 21.9754 29.1164 21.9793 29.1047C21.9832 29.0931 21.9988 29.062 22.0026 29.0581C22.0454 28.9726 22.0842 28.891 22.127 28.8055C22.2125 28.619 22.2863 28.4247 22.3796 28.246C22.3834 28.2382 22.4029 28.2032 22.399 28.2071C22.4068 28.1916 22.4145 28.1721 22.4262 28.1566C22.4534 28.1061 22.4728 28.0517 22.5078 28.0051C22.5272 27.9779 22.5428 27.9507 22.5583 27.9235C22.6011 27.7525 22.6749 27.5932 22.7565 27.4377C22.7837 27.3833 22.8148 27.3289 22.8459 27.2745C22.8575 27.2201 22.8731 27.1657 22.8925 27.1152C22.9313 27.0064 22.9896 26.8976 23.0479 26.8005C23.114 26.6917 23.1917 26.6217 23.3005 26.5634C23.3588 26.5323 23.4287 26.5751 23.4404 26.6373C23.4637 26.75 23.4559 26.8626 23.4326 26.9714C23.421 27.0181 23.4093 27.0686 23.3976 27.1152C23.3899 27.1424 23.386 27.1696 23.3782 27.1968C23.3743 27.2162 23.3743 27.2201 23.3743 27.2124C23.3704 27.224 23.3704 27.2357 23.3665 27.2473C23.3549 27.2978 23.3432 27.3484 23.3316 27.3989C23.3316 27.4066 23.3238 27.43 23.3238 27.4377C23.3199 27.4649 23.316 27.4921 23.3121 27.5193C23.3083 27.566 23.3044 27.6165 23.3044 27.6631C23.3044 27.6903 23.3044 27.7136 23.3044 27.7408C23.3044 27.7486 23.3044 27.7564 23.3044 27.7641C23.316 27.8574 23.3277 27.9468 23.351 28.0361C23.3588 28.075 23.3704 28.1139 23.3821 28.1527C23.386 28.1605 23.4015 28.211 23.4093 28.2304C23.4015 28.1993 23.421 28.2693 23.4248 28.2771C23.4909 28.4675 23.5803 28.6423 23.5686 28.8483C23.5647 28.9338 23.4715 28.9648 23.4054 28.926C23.215 28.8172 23.1101 28.619 23.0168 28.4286C23.0052 28.4053 22.9935 28.3859 22.9857 28.3625C22.9857 28.3703 22.9857 28.3781 22.9857 28.382V28.3859C22.9974 28.4714 23.0052 28.5568 23.0207 28.6423C23.0557 28.8172 23.0945 28.992 23.1334 29.1669C23.1761 29.3651 23.2305 29.5671 23.1684 29.7653C23.1528 29.8197 23.0712 29.8508 23.0285 29.8119C22.9391 29.7303 22.8614 29.6215 22.8187 29.505C22.7798 29.3962 22.7448 29.2874 22.706 29.1786C22.6943 29.1475 22.6827 29.1125 22.671 29.0814C22.6671 29.1125 22.6632 29.1436 22.6555 29.1747C22.6438 29.2252 22.6244 29.2796 22.6049 29.3301V29.334C22.6011 29.3845 22.6011 29.435 22.6049 29.4855C22.6049 29.5089 22.6049 29.5322 22.6088 29.5555C22.6088 29.5632 22.6088 29.571 22.6088 29.5788C22.6088 29.5827 22.6088 29.5827 22.6088 29.5866C22.6244 29.7809 22.6555 29.9751 22.6943 30.1655C22.7371 30.3676 22.7798 30.5697 22.8187 30.7756C22.842 30.8883 22.8614 30.9971 22.8536 31.1176C22.8497 31.172 22.842 31.2264 22.8225 31.2769C22.8187 31.2885 22.8031 31.3196 22.7992 31.3274C22.7992 31.3235 22.807 31.3313 22.807 31.3391C22.807 31.3624 22.8031 31.3896 22.8031 31.4129C22.7992 31.5217 22.6555 31.51 22.6321 31.4206C22.6244 31.3934 22.6166 31.3624 22.6011 31.3391C22.5894 31.3196 22.57 31.3041 22.5544 31.2846C22.5156 31.2341 22.4884 31.1642 22.4651 31.1059C22.4223 30.9893 22.399 30.8611 22.3679 30.7406C22.364 30.7329 22.364 30.7251 22.3601 30.7173C22.3524 30.7251 22.3446 30.729 22.3368 30.7368C22.2902 30.7756 22.2552 30.8222 22.2164 30.8805C22.2086 30.8922 22.2008 30.9038 22.193 30.9155C22.193 30.9233 22.1892 30.931 22.1892 30.9427C22.1853 30.9738 22.1775 31.0049 22.1697 31.036C22.162 31.0748 22.1464 31.1098 22.1309 31.1486C22.1309 31.1875 22.127 31.2302 22.127 31.2691C22.127 31.3313 22.127 31.3896 22.1309 31.4517C22.1309 31.4556 22.1309 31.4595 22.1309 31.4634C22.1309 31.4712 22.1309 31.4789 22.1309 31.4867C22.1348 31.5295 22.1348 31.5722 22.1348 31.6149C22.1348 31.646 22.1348 31.6771 22.1386 31.7082C22.1386 31.7237 22.1425 31.7432 22.1425 31.7509C22.1464 31.8053 22.1542 31.8597 22.1581 31.9141C22.1736 32.0307 22.1853 32.1434 22.1969 32.26C22.2086 32.3843 22.2164 32.4854 22.2436 32.6019C22.2591 32.668 22.2125 32.734 22.1542 32.7535C22.0881 32.7768 22.026 32.7418 21.991 32.6835C21.921 32.5669 21.855 32.462 21.7928 32.3338C21.7306 32.1978 21.6879 32.0579 21.6529 31.9141C21.6452 31.8792 21.6374 31.8481 21.6296 31.8131C21.6257 31.8248 21.618 31.8364 21.6141 31.8481C21.6141 31.8481 21.583 31.918 21.5713 31.9336C21.5713 31.9375 21.5674 31.9413 21.5674 31.9413C21.5519 31.9724 21.5402 32.0074 21.5247 32.0424C21.4975 32.1084 21.4664 32.1706 21.4431 32.2367C21.3965 32.3727 21.3731 32.5126 21.3304 32.6486C21.3265 32.6641 21.3187 32.6835 21.3149 32.6991C21.311 32.7068 21.3071 32.7612 21.311 32.7146C21.3071 32.7496 21.3032 32.7884 21.2954 32.8234C21.2915 32.8467 21.2877 32.87 21.2877 32.8934C21.2877 32.9827 21.2877 33.0721 21.2915 33.1576C21.2915 33.1615 21.2915 33.1654 21.2915 33.1731C21.2915 33.2042 21.2954 33.2314 21.2954 33.2625C21.2954 33.2936 21.2954 33.3208 21.2993 33.3519C21.2877 33.2742 21.3032 33.3713 21.3032 33.3907C21.3071 33.4218 21.3071 33.449 21.311 33.4801C21.3226 33.6044 21.3459 33.7288 21.3693 33.8531C21.3926 33.9697 21.4276 34.0824 21.4509 34.199C21.4742 34.3194 21.482 34.4399 21.5092 34.5604C21.5325 34.6225 21.4237 34.6614 21.3731 34.607Z" fill="#FF0420"/>
<path d="M32.6759 38.0187C32.672 38.0187 32.6641 38.0148 32.6602 38.0148C32.6641 38.0148 32.668 38.0148 32.6759 38.0187Z" fill="#FF0420"/>
<path d="M32.728 21.1856C32.728 21.1895 32.728 21.1895 32.728 21.1934C32.7319 21.2128 32.7319 21.2323 32.7357 21.2478C32.7396 21.2789 32.7474 21.31 32.7552 21.3372C32.7591 21.3566 32.7668 21.3722 32.7707 21.3916C32.7591 21.3411 32.7746 21.3993 32.7785 21.4071C32.7901 21.4382 32.8057 21.4693 32.8173 21.5004C32.8679 21.5043 32.9223 21.5082 32.9728 21.512C33.6489 21.5742 34.325 21.7996 34.8651 22.2154C35.1682 22.4485 35.4402 22.7322 35.6578 23.0469C35.7705 23.2062 35.8482 23.3889 35.9415 23.556C35.9881 23.6414 36.0386 23.723 36.0775 23.8124C36.1008 23.8629 36.1202 23.9057 36.1241 23.9601C36.128 24.0028 36.1436 24.03 36.1591 24.0689C36.2174 24.1971 36.0464 24.3059 35.9532 24.201C35.9376 24.1855 35.9221 24.1582 35.9065 24.1466C35.891 24.1349 35.8677 24.1272 35.8521 24.1155C35.8016 24.0844 35.7628 24.0339 35.7239 23.9873C35.6617 23.9134 35.6034 23.8357 35.5413 23.758C35.4169 23.6065 35.2731 23.4744 35.1449 23.3267C35.0322 23.1946 34.9157 23.0702 34.7913 22.9537C34.768 22.9342 34.7486 22.9148 34.7253 22.8915L34.7214 22.8876C34.6864 22.8604 34.6553 22.8293 34.6203 22.8021C34.5582 22.7516 34.496 22.705 34.4299 22.6583C34.3639 22.6156 34.2978 22.5728 34.2279 22.534C34.1929 22.5146 34.1579 22.4951 34.123 22.4757C34.1113 22.4718 34.1035 22.4641 34.0919 22.4602C33.9481 22.3941 33.8043 22.3358 33.6528 22.2892C33.579 22.2659 33.5012 22.2464 33.4235 22.227C33.4041 22.2231 33.3847 22.2192 33.3652 22.2154C33.3652 22.2154 33.3652 22.2154 33.3613 22.2154C33.3303 22.2115 33.2992 22.2037 33.272 22.1998C33.1165 22.1726 32.9572 22.1571 32.7979 22.1493C32.7668 22.1493 32.7357 22.1454 32.7047 22.1454C32.6813 22.161 32.658 22.1726 32.6347 22.1882C32.6308 22.1882 32.6308 22.192 32.6269 22.192L32.6231 22.1959C32.6114 22.2037 32.5997 22.2154 32.5881 22.2231C32.5648 22.2426 32.5415 22.262 32.5181 22.2814C32.4948 22.3008 32.4754 22.3203 32.4521 22.3436C32.4443 22.3553 32.4326 22.3669 32.4249 22.3786C32.4054 22.4058 32.3899 22.433 32.3705 22.4602L32.3666 22.4641C32.3588 22.4796 32.3549 22.4913 32.3472 22.5068C32.3238 22.5651 32.3083 22.6234 32.2928 22.6817C32.2889 22.6894 32.2889 22.7011 32.285 22.7089C32.285 22.7127 32.285 22.7127 32.285 22.7166C32.285 22.7244 32.285 22.7283 32.285 22.7322C32.2811 22.7594 32.2811 22.7866 32.2772 22.8177C32.8795 22.8177 33.4857 22.9459 33.9792 23.3034C34.0919 23.385 34.1968 23.4743 34.2939 23.5715C34.395 23.6142 34.496 23.6725 34.5854 23.7308C34.8418 23.8979 35.0633 24.1194 35.2693 24.3409C35.619 24.7256 35.9182 25.1491 36.198 25.5882C36.4661 26.0079 36.707 26.447 36.9324 26.8899C37.1577 27.3368 37.3753 27.7876 37.593 28.2383C37.7018 28.4637 37.8106 28.6891 37.9194 28.9144C38.0243 29.1243 38.1292 29.338 38.2535 29.54C38.3157 29.6333 38.3857 29.7227 38.4634 29.8082C38.4362 29.6955 38.4012 29.5828 38.374 29.474C38.3274 29.3108 38.2846 29.1515 38.238 28.9883C38.2224 28.9766 38.2108 28.9649 38.1991 28.9494C38.1603 28.9028 38.1331 28.8406 38.1059 28.7823C38.0709 28.7007 38.0398 28.6191 38.0087 28.5375C37.9388 28.3549 37.8766 28.1567 37.8378 27.9663C37.5813 26.7578 37.5463 25.5066 37.1733 24.3214C37.0062 23.8163 36.7808 23.3306 36.4972 22.8798C36.2485 22.5029 35.9609 22.1571 35.6306 21.8501C35.3353 21.5898 35.0167 21.3683 34.667 21.1856C34.3017 21.0069 33.9054 20.8709 33.509 20.7854C33.3536 20.7543 33.1904 20.731 33.0311 20.7155C32.9961 20.7349 32.9689 20.7543 32.9223 20.7971C32.8912 20.8243 32.864 20.8515 32.8368 20.8825C32.8484 20.8709 32.8212 20.8981 32.8173 20.902C32.8018 20.9175 32.7901 20.9369 32.7785 20.9525C32.7629 20.9719 32.7474 20.9913 32.7319 21.0108C32.7241 21.0691 32.7202 21.1235 32.7202 21.1817C32.728 21.1817 32.728 21.1817 32.728 21.1856Z" fill="#FF0420"/>
<path d="M21.1791 24.166C21.5987 24.166 22.0184 24.1816 22.438 24.2126C22.7256 24.236 23.0131 24.2632 23.2968 24.3098C23.3279 24.2942 23.3629 24.2787 23.3939 24.2632C23.4872 24.2204 23.5805 24.1699 23.6698 24.1194C23.6931 24.1077 23.7126 24.0922 23.7359 24.0805C23.7359 24.0805 23.7709 24.0572 23.7786 24.0533C23.7864 24.0456 23.7942 24.0417 23.8058 24.0339C23.9107 23.8124 23.9885 23.5793 24.0506 23.3422C24.039 23.3345 24.0273 23.3306 24.0157 23.3228C23.7903 23.2101 23.5571 23.1169 23.3201 23.043C23.1958 23.0042 23.0675 22.9692 22.9393 22.942C22.8771 22.9265 22.815 22.9148 22.7567 22.8993C22.745 22.8954 22.7334 22.8954 22.7217 22.8915C22.6867 22.8837 22.6518 22.8798 22.6207 22.8721C22.1583 22.7943 21.6881 22.771 21.2179 22.7905C21.1907 22.7905 21.1596 22.7943 21.1324 22.7943C21.1285 22.7982 21.0975 22.7943 21.0897 22.7982C21.0275 22.8021 20.9692 22.806 20.907 22.8138C20.7905 22.8254 20.6739 22.8371 20.5534 22.8526C20.3125 22.8837 20.0716 22.9226 19.8346 22.9692C19.3605 23.0625 18.8942 23.1829 18.4279 23.3111C18.3191 23.3422 18.2103 23.3694 18.1015 23.4044C18.0393 23.4238 18.0044 23.4355 17.9267 23.4588C17.95 23.451 17.915 23.4627 17.915 23.4627C17.9033 23.4666 17.8878 23.4705 17.8761 23.4743C17.8489 23.4821 17.8256 23.4938 17.7984 23.5016C17.6935 23.5443 17.5886 23.5909 17.4876 23.6453C17.4371 23.6725 17.3865 23.7036 17.3321 23.7308C17.2855 23.7541 17.2428 23.7774 17.2 23.8008C17.1534 23.828 17.099 23.7736 17.1184 23.7269C17.1456 23.6609 17.1767 23.5948 17.2156 23.5326C17.2583 23.4705 17.3205 23.4122 17.3788 23.3656C17.4953 23.2645 17.6275 23.1868 17.7635 23.113C18.0238 22.9731 18.3152 22.8837 18.5989 22.7905C19.6636 22.4407 20.7672 22.161 21.8979 22.1687C22.4536 22.1726 23.0092 22.2464 23.5377 22.4097C23.7631 22.4796 23.9846 22.5651 24.1983 22.67C24.2255 22.5457 24.2488 22.4213 24.2799 22.3008C24.2605 22.262 24.2372 22.2231 24.2138 22.1843C24.2138 22.1804 24.21 22.1804 24.21 22.1765C24.21 22.1765 24.21 22.1726 24.2061 22.1687C24.2022 22.161 24.1944 22.1532 24.1905 22.1454C24.175 22.1221 24.1594 22.1027 24.1439 22.0794C24.1167 22.0405 24.0895 22.0055 24.0584 21.9706C23.9962 21.8928 23.9302 21.8229 23.8563 21.753C23.8486 21.7452 23.8408 21.7374 23.833 21.7296C23.8253 21.7258 23.8175 21.7219 23.8097 21.718C23.7903 21.7063 23.7709 21.6986 23.7514 21.6869C23.7475 21.6869 23.7437 21.683 23.7359 21.6791C23.7242 21.6752 23.7126 21.6675 23.7009 21.6636C23.6659 21.648 23.631 21.6286 23.596 21.6131C23.5377 21.5859 23.4794 21.5548 23.4211 21.5276C23.1608 21.3994 22.8927 21.2789 22.6207 21.174C22.6168 21.174 22.6168 21.1701 22.6129 21.1701C21.9445 21.0613 21.2684 21.0069 20.5884 21.038C20.0017 21.0768 19.4227 21.1856 18.8592 21.3605C18.1948 21.582 17.5614 21.889 16.9708 22.2659C16.7881 22.3825 16.6133 22.5068 16.4384 22.635C15.7817 23.1246 15.1872 23.6881 14.6354 24.2904C14.4411 24.5041 14.2546 24.7256 14.072 24.9509C13.7339 25.3706 13.4114 25.8019 13.1044 26.2488C12.7664 26.7384 12.4438 27.2358 12.1641 27.7604C12.778 27.2669 13.3725 26.7501 14.0176 26.2993C14.7054 25.8175 15.4437 25.4095 16.2208 25.0947C16.9941 24.78 17.8023 24.5468 18.6222 24.3953C19.4693 24.2399 20.3242 24.1699 21.1791 24.166ZM15.9643 24.2282C15.9138 24.2437 15.8827 24.2748 15.8439 24.3098C15.8011 24.3486 15.7506 24.3836 15.7079 24.4225C15.6107 24.5157 15.5097 24.6051 15.4087 24.6945C15.296 24.7955 15.1794 24.8888 15.059 24.982C14.9968 25.0287 14.9268 25.0753 14.8569 25.118C14.7947 25.153 14.7326 25.1996 14.6665 25.2229C14.6004 25.2463 14.4994 25.188 14.5383 25.1064C14.5732 25.0325 14.6276 24.9704 14.6743 24.9043C14.7287 24.8344 14.7908 24.7683 14.8491 24.7023C14.9618 24.5857 15.0745 24.4769 15.195 24.372C15.3077 24.2748 15.4165 24.1738 15.5408 24.0922C15.6069 24.0494 15.6729 24.0184 15.7506 24.0067C15.8128 23.9989 15.8827 23.995 15.9449 23.9989C16.0032 24.0028 16.0498 24.0533 16.0537 24.1077C16.0615 24.166 16.0187 24.2127 15.9643 24.2282Z" fill="#FF0420"/>
<path d="M35.0659 34.2652C35.1786 33.8222 35.2913 33.3753 35.3884 32.9285C35.4389 32.672 35.4856 32.4155 35.5283 32.1552C35.6799 31.1954 35.7498 30.224 35.6993 29.2525C35.6876 29.0816 35.676 28.9145 35.6565 28.7435C35.6216 28.4015 35.5672 28.0635 35.4972 27.7293C35.47 27.6904 35.4584 27.6477 35.47 27.6011C35.4156 27.3524 35.3496 27.1037 35.2719 26.8628C35.1941 26.6335 35.1087 26.4043 35.0154 26.1828C34.8289 25.7515 34.6152 25.3279 34.3704 24.9277C34.3509 24.9005 34.3354 24.8694 34.316 24.8422C34.316 24.8422 34.316 24.8422 34.316 24.8383C34.316 24.8344 34.3121 24.8305 34.3082 24.8266C34.2771 24.78 34.246 24.7334 34.211 24.6906C34.1372 24.5896 34.0634 24.4886 33.9857 24.3914C33.9235 24.3137 33.8613 24.236 33.7991 24.1622C33.7681 24.1272 33.7331 24.0922 33.6981 24.0611C33.5815 23.9601 33.4572 23.8746 33.3212 23.8008C33.1735 23.7309 33.0181 23.6803 32.8627 23.6454C32.5829 23.5948 32.2992 23.5871 32.0156 23.5987C31.8835 23.6065 31.7475 23.6182 31.6153 23.6298C31.6076 23.6376 31.6037 23.6493 31.5959 23.657C31.5843 23.6726 31.5765 23.692 31.5648 23.7075C31.5648 23.7114 31.5609 23.7114 31.5609 23.7153C31.5609 23.7153 31.5609 23.7153 31.5609 23.7192C31.5493 23.7503 31.5337 23.7814 31.526 23.8125C31.526 23.8163 31.5221 23.8241 31.5182 23.8319C31.5143 23.8474 31.5143 23.8668 31.5143 23.8824C31.5143 23.8979 31.5143 23.9135 31.5143 23.929C31.5182 23.9679 31.526 24.0067 31.5337 24.0495C31.5376 24.065 31.5415 24.0806 31.5454 24.0961V24.1C31.5454 24.1039 31.5454 24.1039 31.5493 24.1078C31.5765 24.1738 31.5998 24.236 31.6309 24.2982C31.6775 24.3953 31.728 24.4925 31.7747 24.5857C32.1982 25.0132 32.5674 25.4795 32.8938 25.9885C33.294 26.6102 33.6437 27.2669 33.873 27.9702C33.9779 28.2927 34.0712 28.6153 34.1217 28.9533C34.1722 29.2836 34.2033 29.6178 34.2072 29.952C34.2149 30.2667 34.1994 30.5815 34.1644 30.8962C34.145 31.0672 34.1178 31.2382 34.0595 31.4014C34.0323 31.483 33.9818 31.549 33.9585 31.6267C33.9468 31.6695 33.9235 31.6928 33.9041 31.7316C33.8846 31.7627 33.873 31.8016 33.8574 31.8366C33.838 31.8871 33.7642 31.8715 33.7681 31.8171C33.7681 31.7783 33.7719 31.7394 33.7603 31.7006C33.7525 31.6656 33.7447 31.6384 33.7447 31.6034C33.7447 31.5762 33.7447 31.549 33.7409 31.5218C33.7331 31.4868 33.7214 31.4596 33.7175 31.4247C33.7137 31.347 33.702 31.2731 33.702 31.1954C33.702 31.1294 33.702 31.0594 33.7059 30.9934C33.7098 30.8573 33.7098 30.7213 33.7059 30.5853C33.702 30.5193 33.702 30.4493 33.6981 30.3833C33.6981 30.3794 33.6981 30.3794 33.6981 30.3755V30.3716C33.6981 30.36 33.6981 30.3444 33.6942 30.3328C33.6903 30.3017 33.6903 30.2706 33.6865 30.2356C33.6476 29.7499 33.5505 29.2836 33.4339 28.8096C33.4028 28.6891 33.3717 28.5725 33.3367 28.456C33.329 28.4249 33.3173 28.3938 33.3095 28.3627C33.3406 28.4676 33.3057 28.3549 33.2979 28.3355C33.2785 28.285 33.2629 28.2306 33.2435 28.1801C33.1541 27.9391 33.0531 27.7021 32.9404 27.4728C32.8161 27.2164 32.6762 26.9716 32.5285 26.7307C32.5091 26.6996 32.4896 26.6685 32.4702 26.6374C32.4352 26.5869 32.443 26.5947 32.4508 26.6102V26.6063C32.4119 26.548 32.377 26.4936 32.3381 26.4353C32.2565 26.3188 32.1749 26.2022 32.0894 26.0856C31.763 25.6427 31.3977 25.223 30.9936 24.85C30.7721 24.6518 30.5351 24.4614 30.2786 24.3059C30.2553 24.2982 30.232 24.2904 30.2087 24.2826C30.0533 24.236 29.9833 24.2205 29.8279 24.1971C29.7152 24.1816 29.6064 24.1738 29.4937 24.1777C29.4743 24.1777 29.4587 24.1777 29.4393 24.1777C29.4354 24.1777 29.4354 24.1777 29.4315 24.1777C29.4043 24.1816 29.3771 24.1816 29.3499 24.1855C29.2955 24.1894 29.2411 24.1971 29.1867 24.2088C29.1285 24.2205 29.0663 24.2321 29.008 24.2477C28.9847 24.2554 28.9614 24.2593 28.9381 24.2671C28.9381 24.2671 28.9264 24.271 28.9147 24.2749C28.9031 24.2787 28.8875 24.2826 28.8875 24.2826C28.7787 24.3215 28.6738 24.3681 28.5728 24.4225C28.5456 24.4381 28.5184 24.4536 28.4951 24.4691C28.4834 24.4769 28.4756 24.4808 28.464 24.4886C28.464 24.4886 28.464 24.4886 28.4601 24.4886C28.4096 24.5235 28.3591 24.5585 28.3124 24.6013C28.2969 24.6168 28.2814 24.6323 28.2658 24.644C28.2658 24.644 28.2658 24.644 28.2619 24.6479C28.2619 24.6518 28.258 24.6518 28.258 24.6557C28.2464 24.6751 28.2308 24.6906 28.2192 24.7101C28.2153 24.7139 28.2114 24.7256 28.2075 24.7334C28.2036 24.745 28.1998 24.7528 28.1959 24.7645C28.1998 24.78 28.192 24.7878 28.192 24.7878C28.192 24.7917 28.192 24.7917 28.192 24.7917C28.192 24.8072 28.1881 24.8228 28.1881 24.8422C28.1881 24.85 28.1959 24.8966 28.1881 24.8616C28.1803 24.8228 28.192 24.8772 28.192 24.881C28.192 24.8927 28.1959 24.9044 28.1959 24.916C28.1998 24.9393 28.2075 24.9665 28.2153 24.9898C28.2153 24.9937 28.2153 24.9976 28.2192 25.0015C28.2231 25.0093 28.227 25.017 28.227 25.0209C28.2386 25.0598 28.2503 25.0948 28.2619 25.1336C28.6233 25.2774 28.9614 25.4756 29.2722 25.7048C30.2476 26.4198 30.9897 27.4223 31.5415 28.4909C32.0583 29.4857 32.4236 30.5659 32.6606 31.6617C32.8899 32.7264 32.987 33.8222 32.952 34.9141C32.9365 35.4465 32.886 35.9788 32.8044 36.5034C32.7578 36.7948 32.6839 37.0746 32.5946 37.3582C32.5635 37.4632 32.5285 37.5642 32.4935 37.6691C32.4974 37.6963 32.5013 37.7196 32.5052 37.7468C32.513 37.7818 32.5207 37.8168 32.5285 37.8556C32.5363 37.8634 32.5402 37.8828 32.5402 37.8867C32.5402 37.8906 32.544 37.8984 32.544 37.8984C32.5518 37.9139 32.5596 37.9295 32.5674 37.945C32.5674 37.9489 32.5712 37.9489 32.5712 37.9528C32.5907 37.9722 32.5946 37.98 32.5907 37.98C32.5946 37.9839 32.5946 37.9877 32.5984 37.9916C32.6023 37.9955 32.6101 37.9994 32.614 38.0033C32.6256 38.0072 32.6412 38.0111 32.6528 38.0149C32.6606 38.0149 32.6645 38.0188 32.6762 38.0227C32.6995 38.0266 32.7189 38.0266 32.7422 38.0266C32.7617 38.0266 32.7811 38.0266 32.8005 38.0266C32.7927 38.0266 32.785 38.0266 32.7772 38.0266C32.7461 38.0305 32.6995 38.0266 32.7772 38.0266C32.7811 38.0266 32.785 38.0266 32.7888 38.0266C32.8316 38.0227 32.8743 38.0149 32.9171 38.0072C32.9365 38.0033 32.9559 37.9994 32.9754 37.9916C32.9793 37.9916 32.9831 37.9877 32.9909 37.9877C33.022 37.9722 33.057 37.9644 33.0881 37.9489C33.158 37.9178 33.2279 37.8789 33.2901 37.8401C33.465 37.7235 33.6204 37.5875 33.7642 37.4321C33.9779 37.1873 34.1566 36.9153 34.3082 36.6277C34.4364 36.3635 34.5491 36.0915 34.6462 35.8117C34.8017 35.2988 34.9338 34.782 35.0659 34.2652Z" fill="#FF0420"/>
<path d="M28.1806 24.7683C28.1768 24.776 28.1768 24.7799 28.1806 24.7837C28.1806 24.776 28.1845 24.7721 28.1845 24.7644C28.1845 24.7644 28.1845 24.7683 28.1806 24.7683Z" fill="#FF0420"/>
<path d="M32.4624 26.6406C32.4587 26.6369 32.4587 26.6333 32.4551 26.6296L32.4587 26.6333C32.4587 26.6369 32.4587 26.6406 32.4624 26.6406Z" fill="#FF0420"/>
<path d="M32.4452 26.6217C32.4414 26.6178 32.4375 26.6139 32.4375 26.6062C32.4414 26.6139 32.4491 26.6217 32.453 26.6294C32.4491 26.6294 32.4491 26.6255 32.4452 26.6217Z" fill="#FF0420"/>
<path d="M32.5392 37.9293C32.5431 37.9333 32.5471 37.9412 32.551 37.9451C32.551 37.9451 32.551 37.9451 32.551 37.9412C32.5471 37.9412 32.5431 37.9372 32.5392 37.9293Z" fill="#FF0420"/>
<path d="M19.8221 39.4137C19.8183 39.4021 19.8144 39.3944 19.8105 39.3905C19.8144 39.3944 19.8144 39.3982 19.8183 39.406C19.8221 39.4098 19.8221 39.4137 19.8221 39.4137Z" fill="#FF0420"/>
<path d="M28.4833 27.2445L28.4785 27.2397C28.4785 27.2445 28.4785 27.2445 28.4833 27.2445C28.4785 27.2445 28.4785 27.2445 28.4833 27.2445Z" fill="#FF0420"/>
<path d="M18.9238 39.0368C18.9355 39.0329 18.9433 39.0252 18.9549 39.0213C18.9588 39.0213 18.9744 39.0135 18.9899 39.0096C18.9899 39.0096 18.9899 39.0096 18.9938 39.0057L18.9977 39.0019C18.9977 38.998 19.0016 38.9902 19.0093 38.9824V38.9785C19.0054 38.9747 19.0054 38.9708 19.0054 38.9669C19.0016 38.9591 18.9977 38.9475 18.9938 38.9397V38.9358C18.9899 38.9319 18.986 38.9241 18.9821 38.9203C18.9666 38.8969 18.9472 38.8775 18.9277 38.8581L18.9238 38.8542C18.9161 38.8464 18.9044 38.8387 18.8966 38.8309C18.8772 38.8153 18.8539 38.7998 18.8345 38.7843C18.7878 38.7532 18.7373 38.7221 18.6868 38.6988C18.6829 38.6949 18.679 38.6949 18.6713 38.691C18.6635 38.6871 18.6518 38.6832 18.6441 38.6793C18.6169 38.6677 18.5897 38.656 18.5625 38.6482C18.5392 38.6405 18.5197 38.6327 18.4964 38.6288C18.4886 38.6288 18.4731 38.6249 18.4653 38.6211C18.4342 38.6172 18.4031 38.6172 18.3721 38.6133C18.3682 38.6133 18.3682 38.6133 18.3643 38.6133C18.3604 38.6133 18.3604 38.6133 18.3565 38.6133C18.3099 38.6521 18.2516 38.691 18.1933 38.7104C18.1894 38.7182 18.1894 38.726 18.1855 38.7337C18.1855 38.7376 18.1855 38.7415 18.1855 38.7454C18.1855 38.7532 18.1855 38.7648 18.1855 38.7765C18.1894 38.792 18.1933 38.8076 18.1933 38.8231C18.1972 38.8348 18.2011 38.8542 18.205 38.862C18.2283 38.9164 18.2516 38.9669 18.2788 39.0213C18.2905 39.0407 18.3021 39.0601 18.3138 39.0796C18.341 39.1145 18.341 39.1184 18.3371 39.1145C18.3643 39.1495 18.3915 39.1845 18.4187 39.2195C18.3837 39.1145 18.4576 38.9785 18.5858 38.998C18.6635 39.0096 18.7373 39.0135 18.815 39.0329C18.8267 39.0368 18.8384 39.0368 18.8384 39.0368C18.85 39.0368 18.8578 39.0407 18.8694 39.0407C18.8772 39.0407 18.8889 39.0407 18.8928 39.0407C18.9005 39.0407 18.9083 39.0368 18.9161 39.0368C18.9161 39.0407 18.92 39.0407 18.9238 39.0368Z" fill="#FF0420"/>
<path d="M19.8142 39.3905C19.8064 39.3711 19.7948 39.3477 19.7831 39.3283C19.7754 39.3167 19.7676 39.305 19.7598 39.2972C19.7287 39.2545 19.6938 39.2195 19.6549 39.1807C19.6083 39.1418 19.5577 39.1029 19.5072 39.0641C19.4995 39.1185 19.48 39.1768 19.4489 39.2312C19.3479 39.4099 19.1459 39.511 18.9438 39.4915C18.8389 39.4838 18.7417 39.4643 18.6562 39.4216C18.7107 39.4604 18.7651 39.4915 18.8195 39.5226C18.8622 39.542 18.9049 39.5615 18.9516 39.577C18.9788 39.5848 19.006 39.5964 19.0332 39.6042C19.0487 39.6081 19.0643 39.612 19.0798 39.6159C19.0837 39.6159 19.0953 39.6197 19.107 39.6236C19.1187 39.6275 19.1303 39.6275 19.142 39.6275C19.1731 39.6314 19.2041 39.6353 19.2352 39.6392C19.2857 39.6431 19.3401 39.6431 19.3907 39.6431C19.4023 39.6431 19.414 39.6431 19.4217 39.6392C19.4489 39.6353 19.4761 39.6314 19.5033 39.6275C19.55 39.6198 19.616 39.612 19.6627 39.5925C19.6394 39.6003 19.5927 39.6159 19.6432 39.5964C19.6588 39.5925 19.6704 39.5848 19.686 39.5809C19.7132 39.5692 19.7404 39.5576 19.7676 39.542C19.7754 39.5381 19.7792 39.5343 19.787 39.5304C19.7987 39.4915 19.8142 39.4527 19.8336 39.4138C19.8103 39.3944 19.8103 39.3866 19.8142 39.3905Z" fill="#FF0420"/>
<path d="M19.8267 39.4266C19.8267 39.4222 19.8223 39.4222 19.8223 39.4177C19.8267 39.4177 19.8267 39.4222 19.8267 39.4266Z" fill="#FF0420"/>
<path d="M19.002 39.0096C19.0058 39.0135 19.0136 39.0096 19.0097 38.9941C19.0058 39.0019 19.0058 39.0057 19.002 39.0096Z" fill="#FF0420"/>
<path d="M23.1367 26.136C23.1481 26.1398 23.1558 26.1398 23.1672 26.1436H23.171C23.1596 26.1436 23.1481 26.1398 23.1367 26.136Z" fill="#FF0420"/>
<path d="M28.4629 27.2279C28.4591 27.2279 28.4591 27.224 28.4552 27.224C28.4629 27.2317 28.4668 27.2356 28.4745 27.2433C28.4707 27.2356 28.4668 27.2317 28.4629 27.2279Z" fill="#FF0420"/>
<path d="M23.1719 26.1439C23.1755 26.1439 23.1792 26.1439 23.1828 26.1476C23.1792 26.1476 23.1755 26.1439 23.1719 26.1439Z" fill="#FF0420"/>
<path d="M23.2809 26.167C23.2771 26.167 23.2732 26.167 23.2656 26.1632C23.3418 26.1784 23.3151 26.1746 23.2809 26.167Z" fill="#F0EBDF"/>
<path d="M23.1837 26.1479C23.1798 26.1479 23.1759 26.1479 23.1719 26.1439H23.168C23.1719 26.1439 23.1798 26.1479 23.1837 26.1479Z" fill="#F0EBDF"/>
<path d="M18.9983 39.0018C19.0022 38.9979 19.006 38.9979 19.006 38.994C19.006 38.994 19.006 38.9902 19.0099 38.9902C19.0099 38.9902 19.0099 38.9902 19.0099 38.9863V38.9824C19.0022 38.9902 18.9983 38.9979 18.9983 39.0018Z" fill="#F0EBDF"/>
<path d="M19.0056 38.9741C19.0056 38.9705 19.002 38.9705 19.002 38.9668C19.002 38.9705 19.0056 38.9741 19.0056 38.9778C19.0093 38.9778 19.0093 38.9741 19.0056 38.9741Z" fill="#F0EBDF"/>
<path d="M18.3145 39.0796C18.3221 39.091 18.3259 39.0986 18.3297 39.1063C18.3335 39.1101 18.3335 39.1139 18.3373 39.1177C18.3449 39.1177 18.3411 39.1101 18.3145 39.0796Z" fill="#F0EBDF"/>
<path d="M18.9983 39.0066C19.0031 39.0066 19.0031 39.0018 18.9983 39.0066C19.0031 39.0018 19.0031 39.0018 19.0031 39.0018C19.0031 39.0018 19.0031 39.0018 18.9983 39.0066Z" fill="#F0EBDF"/>
<path d="M19.0133 38.9868C19.0133 38.9868 19.0133 38.9821 19.0133 38.9868C19.0086 38.9821 19.0086 38.9821 19.0133 38.9868C19.0086 38.9821 19.0133 38.9868 19.0133 38.9868Z" fill="#F0EBDF"/>
<path d="M26.4441 20.2802C26.4324 20.3774 26.4207 20.4745 26.4052 20.5678C26.4013 20.5911 26.3974 20.6144 26.3935 20.6339C26.3897 20.6455 26.3896 20.6572 26.3858 20.6688C26.3741 20.7193 26.3624 20.7699 26.3508 20.8204C26.3003 21.0185 26.2381 21.2167 26.1837 21.4149C26.1293 21.6131 26.0749 21.8112 26.0244 22.0094C25.9972 22.1143 26.0322 22.2231 26.1332 22.2736C26.2226 22.3203 26.3586 22.3008 26.413 22.2037C26.4907 22.0677 26.5606 21.9317 26.6306 21.7918C26.751 21.6597 26.8521 21.5004 26.9531 21.3566C27.0036 21.2828 26.957 21.2089 26.8909 21.1895C26.8909 21.1856 26.8948 21.1817 26.8948 21.1779C26.9103 21.1351 26.922 21.0885 26.9375 21.0457C26.9803 21.0341 27.0153 21.0108 27.0386 20.9758C27.0774 20.9136 27.1124 20.8592 27.1435 20.7932C27.1513 20.7776 27.1551 20.7621 27.1629 20.7465C27.1629 20.7427 27.1668 20.7388 27.1668 20.7349C27.1862 20.696 27.2057 20.6572 27.2251 20.6183C27.2251 20.6144 27.229 20.6144 27.229 20.6105C27.2367 20.5989 27.2445 20.5872 27.2484 20.5717C27.2678 20.5367 27.2834 20.4979 27.2989 20.4629C27.3222 20.4046 27.3494 20.358 27.3494 20.2958C27.3494 20.2414 27.3145 20.2025 27.2639 20.1948C27.2134 20.187 27.1668 20.1986 27.1202 20.2181C27.1279 20.1714 27.1357 20.1209 27.1396 20.0743C27.1435 20.0626 27.1513 20.0549 27.1551 20.0432C27.2134 19.9772 27.2367 19.8878 27.2678 19.7984C27.2834 19.7596 27.2989 19.7207 27.3145 19.6818C27.3222 19.6663 27.3261 19.6507 27.3339 19.6391C27.3339 19.6352 27.3533 19.6002 27.3572 19.5963C27.4 19.5186 27.4466 19.4448 27.4893 19.371C27.5321 19.301 27.5865 19.2272 27.5981 19.1456C27.6059 19.1339 27.6137 19.1223 27.6253 19.1106C27.6914 19.0251 27.5826 18.9008 27.4893 18.9513C27.4738 18.9591 27.4543 18.9707 27.4388 18.9785C27.3805 18.9824 27.33 19.0096 27.2795 19.0446C27.2873 19.0251 27.295 19.0057 27.3028 18.9863C27.33 18.9241 27.3572 18.8581 27.3844 18.7959C27.3922 18.7803 27.3999 18.7609 27.4077 18.7454C27.4077 18.7415 27.4155 18.7259 27.4233 18.7143C27.4272 18.7026 27.4388 18.6832 27.4388 18.6832C27.4466 18.6677 27.4544 18.6521 27.466 18.6366C27.536 18.5122 27.602 18.384 27.6797 18.2635C27.7225 18.1975 27.7691 18.1275 27.8002 18.0537C27.8118 18.0265 27.8196 17.9954 27.8313 17.9682C27.839 17.9488 27.8468 17.9332 27.8468 17.9099C27.8468 17.906 27.8468 17.8983 27.8468 17.8944C27.8429 17.8633 27.8429 17.8594 27.8507 17.8827C27.8779 17.8206 27.8041 17.77 27.7497 17.7895C27.7691 17.7817 27.7147 17.7895 27.7108 17.7895C27.6953 17.7934 27.6797 17.8011 27.6642 17.805C27.6292 17.8167 27.5942 17.8322 27.5593 17.8478C27.4932 17.8827 27.431 17.9371 27.3766 17.9915C27.3883 17.9604 27.3961 17.9294 27.4077 17.9022C27.4194 17.875 27.431 17.8439 27.4427 17.8167C27.4466 17.805 27.4543 17.7934 27.4582 17.7778C27.4582 17.7778 27.4699 17.7506 27.4738 17.7428C27.4816 17.7312 27.4893 17.7156 27.4893 17.7118C27.501 17.6923 27.5088 17.669 27.5204 17.6457C27.5282 17.6302 27.5282 17.6263 27.5243 17.6379C27.5321 17.6263 27.536 17.6146 27.5437 17.603C27.5709 17.5524 27.602 17.5019 27.6331 17.4514C27.6525 17.4203 27.6758 17.3892 27.6914 17.3581C27.7069 17.3309 27.7069 17.3232 27.6992 17.3387C27.6953 17.3465 27.6953 17.3465 27.6992 17.3348C27.7069 17.3193 27.7147 17.3037 27.7225 17.2882C27.7808 17.1755 27.8313 17.0628 27.8896 16.9501C27.9401 16.8491 27.839 16.7481 27.7419 16.818C27.6331 16.8957 27.5282 16.9618 27.4272 17.0473C27.3844 17.0823 27.3455 17.1211 27.3106 17.1639C27.3417 17.0745 27.3805 16.9851 27.4194 16.8957C27.4349 16.8647 27.4466 16.8336 27.4582 16.8025C27.4621 16.7908 27.4699 16.7753 27.4777 16.7597C27.4816 16.7559 27.4854 16.7481 27.4893 16.7403C27.5126 16.6937 27.536 16.6509 27.5593 16.6043C27.5437 16.6354 27.5554 16.616 27.5632 16.5965C27.5709 16.581 27.5787 16.5655 27.5865 16.5538C27.5981 16.5344 27.6059 16.5188 27.6176 16.4994C27.6253 16.4877 27.6642 16.41 27.6486 16.4411C27.637 16.4605 27.6642 16.4139 27.6642 16.41C27.672 16.3906 27.6836 16.375 27.6953 16.3556C27.7302 16.2934 27.773 16.2352 27.8196 16.1769C27.8934 16.0836 27.7691 15.936 27.6642 15.9942C27.5282 16.072 27.3883 16.1574 27.2717 16.2662C27.2601 16.2779 27.2445 16.2896 27.2329 16.3051C27.2367 16.2779 27.2445 16.2468 27.2484 16.2196C27.2523 16.2041 27.2523 16.1885 27.2562 16.173V16.1691V16.1652C27.2873 16.0292 27.3339 15.901 27.3883 15.7766C27.4155 15.7145 27.4427 15.6523 27.4699 15.594C27.4738 15.5901 27.4738 15.5862 27.4777 15.5785C27.4854 15.5629 27.4932 15.5513 27.501 15.5357C27.5243 15.4891 27.5437 15.4463 27.567 15.3997C27.5787 15.3725 27.5942 15.3414 27.6098 15.3142C27.6176 15.2948 27.6214 15.2909 27.6176 15.3026C27.6098 15.322 27.6137 15.3103 27.637 15.2637C27.6448 15.2482 27.6486 15.2365 27.6564 15.221C27.6836 15.1549 27.7108 15.0927 27.738 15.0267C27.7846 14.9179 27.637 14.8285 27.5515 14.8985C27.431 14.9995 27.3183 15.1005 27.2173 15.221C27.2095 15.2287 27.2057 15.2365 27.1979 15.2443C27.2173 15.1743 27.2367 15.1083 27.2601 15.0422C27.3067 14.9023 27.3572 14.7625 27.4155 14.6303C27.4699 14.4982 27.5282 14.3816 27.6137 14.269C27.703 14.1524 27.5321 14.0047 27.4272 14.098C27.3028 14.2068 27.1785 14.3117 27.0697 14.4322C27.0541 14.4477 27.0425 14.4632 27.0308 14.4788C27.0425 14.4322 27.058 14.3855 27.0774 14.3389C27.1085 14.2534 27.1474 14.164 27.1862 14.0824C27.194 14.0669 27.2018 14.0514 27.2095 14.0358C27.2134 14.028 27.2251 14.0008 27.229 13.997C27.2601 13.9348 27.2989 13.8765 27.33 13.8143C27.3494 13.7716 27.3689 13.7327 27.3883 13.69C27.4194 13.6278 27.4349 13.6162 27.4582 13.5462C27.4738 13.5035 27.4777 13.4607 27.4971 13.418C27.5049 13.3947 27.5204 13.3713 27.5204 13.3441C27.5088 13.3208 27.5088 13.3131 27.5282 13.3092C27.536 13.2975 27.5398 13.282 27.5476 13.2703C27.5826 13.1926 27.4777 13.1382 27.4194 13.1809C27.3766 13.2159 27.3261 13.2315 27.2795 13.2664C27.2329 13.2975 27.1862 13.3208 27.1435 13.3558C27.0541 13.4335 26.9609 13.5229 26.8909 13.6161C26.887 13.62 26.8831 13.6278 26.8793 13.6356C26.8831 13.62 26.887 13.6084 26.8909 13.5928C26.9065 13.554 26.922 13.5112 26.9375 13.4724C26.9453 13.4568 26.957 13.4374 26.9609 13.418C26.9609 13.4219 26.957 13.4257 26.957 13.4296C26.9609 13.4219 26.9609 13.418 26.9647 13.4102C26.9881 13.3713 27.0075 13.3325 27.0308 13.2975C27.0774 13.2237 27.1279 13.1537 27.1707 13.0799C27.2212 12.9905 27.2717 12.9012 27.2989 12.8001C27.3106 12.7535 27.3183 12.7069 27.3222 12.6602C27.3261 12.6214 27.3378 12.5748 27.3455 12.532C27.3611 12.4426 27.2329 12.3805 27.1707 12.4426C27.1435 12.4698 27.1163 12.497 27.0852 12.5165C27.0619 12.532 27.0386 12.5437 27.0153 12.5592C27.0114 12.5592 26.9958 12.5748 26.9881 12.5825C26.9609 12.602 26.9337 12.6136 26.9065 12.6369C26.887 12.6525 26.8715 12.6719 26.8559 12.6875C26.8365 12.7069 26.8171 12.7263 26.7977 12.7457C26.8015 12.7302 26.8054 12.7147 26.8054 12.6991V12.6952C26.8093 12.6875 26.8093 12.6758 26.8132 12.668C26.8404 12.5437 26.8793 12.4193 26.922 12.3028L26.9259 12.2989C26.9375 12.2872 26.9492 12.2756 26.9609 12.2639C26.9764 12.2484 26.9919 12.2328 27.0036 12.2134C27.0114 12.2056 27.023 12.1901 27.0269 12.1862C27.0774 12.1318 27.1357 12.0813 27.194 12.0385C27.2057 12.0269 27.2212 12.0191 27.2329 12.0074C27.2406 11.9997 27.2523 11.9958 27.2523 11.9919C27.2795 11.9764 27.3067 11.9608 27.3339 11.9492C27.3611 11.9375 27.3883 11.9258 27.4194 11.9142C27.4349 11.9103 27.4466 11.9025 27.4621 11.8986C27.466 11.8986 27.466 11.8948 27.4699 11.8948C27.4699 11.8948 27.4738 11.8948 27.4777 11.8948C27.5088 11.887 27.536 11.8792 27.567 11.8753C27.5865 11.8714 27.602 11.8714 27.6214 11.8676C27.6253 11.8676 27.6448 11.8676 27.6525 11.8637C27.6603 11.8637 27.6758 11.8637 27.6758 11.8637C27.7069 11.8637 27.7341 11.8637 27.7652 11.8637C27.7769 11.8637 27.7885 11.8598 27.8002 11.8598C27.8002 11.8598 27.8546 11.8559 27.8235 11.8559C27.8896 11.852 27.9478 11.8481 28.0061 11.8248C28.01 11.8248 28.01 11.8248 28.0139 11.8248C28.0683 11.8365 28.1072 11.7821 28.0761 11.7354C28.0683 11.7316 28.0683 11.7277 28.0644 11.7238C28.0644 11.7277 28.0644 11.7277 28.0644 11.7315C28.0605 11.6577 28.0061 11.5955 27.9478 11.5489C27.8701 11.4906 27.7846 11.4595 27.6914 11.444C27.5165 11.4168 27.3339 11.4362 27.1707 11.4984C27.1474 11.5062 27.1202 11.5178 27.0969 11.5295C27.0852 11.5295 27.0735 11.5295 27.0658 11.5295C27.0269 11.5373 26.9803 11.545 26.9453 11.5645C26.9065 11.5839 26.8637 11.6227 26.8326 11.6538C26.7627 11.716 26.6927 11.7898 26.6345 11.8637C26.5218 12.0074 26.4363 12.1668 26.3663 12.3338C26.2264 12.6641 26.1604 13.0216 26.1371 13.3752C26.0904 14.0902 26.2381 14.7935 26.3508 15.4969C26.4091 15.8466 26.4518 16.1963 26.479 16.546C26.4868 16.6276 26.4907 16.7092 26.4984 16.7908C26.4984 16.8141 26.5023 16.8336 26.5023 16.8569C26.4985 16.9035 26.5062 16.9618 26.5101 17.0123C26.5179 17.1911 26.5218 17.3659 26.5257 17.5447C26.5373 18.2558 26.5101 18.9669 26.4868 19.6779C26.479 19.8761 26.4674 20.0782 26.4441 20.2802ZM27.159 20.7465C27.1551 20.7582 27.1551 20.7543 27.159 20.7465V20.7465ZM26.9259 12.3066L26.9298 12.3028C26.9259 12.3066 26.9259 12.3066 26.9259 12.3066ZM27.4854 15.6057C27.4816 15.6134 27.4854 15.6134 27.4854 15.6057V15.6057Z" fill="#F0EBDF"/>
<path d="M26.9576 13.4412C26.9537 13.4605 26.9499 13.476 26.9576 13.4412V13.4412Z" fill="#F0EBDF"/>
<path d="M27.5275 17.6545C27.5275 17.6501 27.5319 17.6501 27.5319 17.6456C27.5319 17.6456 27.5319 17.6501 27.5275 17.6545Z" fill="#F0EBDF"/>
<path d="M15.9465 23.9951C15.8844 23.9912 15.8144 23.9951 15.7522 24.0028C15.6706 24.0145 15.6085 24.0456 15.5424 24.0883C15.4142 24.1699 15.3093 24.2671 15.1966 24.3681C15.0761 24.473 14.9634 24.5818 14.8507 24.6984C14.7886 24.7644 14.7264 24.8305 14.6759 24.9004C14.6254 24.9665 14.5749 25.0287 14.5399 25.1025C14.501 25.1841 14.6021 25.2424 14.6681 25.2191C14.7342 25.1958 14.7963 25.153 14.8585 25.1142C14.9285 25.0714 14.9945 25.0287 15.0606 24.9782C15.181 24.8849 15.2976 24.7916 15.4103 24.6906C15.5113 24.6012 15.6085 24.508 15.7095 24.4186C15.7522 24.3797 15.8028 24.3448 15.8455 24.3059C15.8844 24.2709 15.9116 24.236 15.966 24.2243C16.0204 24.2088 16.0631 24.1621 16.0592 24.1039C16.0515 24.0495 16.0048 23.9989 15.9465 23.9951Z" fill="#F0EBDF"/>
<path d="M21.4493 34.1834C21.426 34.0669 21.391 33.9542 21.3677 33.8376C21.3444 33.7133 21.3249 33.5889 21.3094 33.4646C21.3055 33.4335 21.3016 33.4063 21.3016 33.3752C21.3016 33.3558 21.2861 33.2586 21.2977 33.3363C21.2939 33.3091 21.2939 33.2781 21.2939 33.247C21.2939 33.2159 21.29 33.1887 21.29 33.1576C21.29 33.1537 21.29 33.1498 21.29 33.1421C21.2861 33.0527 21.2861 32.9633 21.2861 32.8778C21.29 32.8545 21.29 32.8312 21.2939 32.8079C21.2977 32.7729 21.3055 32.734 21.3094 32.6991C21.3055 32.7457 21.3094 32.6952 21.3133 32.6835C21.3172 32.668 21.3211 32.6486 21.3288 32.633C21.3716 32.497 21.3949 32.3571 21.4415 32.2211C21.4648 32.1551 21.4959 32.0929 21.5231 32.0268C21.5387 31.9919 21.5503 31.9608 21.5659 31.9258C21.5659 31.9219 21.5697 31.918 21.5697 31.918C21.5853 31.8986 21.6125 31.8325 21.6125 31.8325C21.6203 31.8209 21.6241 31.8092 21.628 31.7976C21.6358 31.8326 21.6436 31.8636 21.6514 31.8986C21.6863 32.0424 21.7252 32.1862 21.7912 32.3183C21.8534 32.4465 21.9195 32.5514 21.9894 32.668C22.0244 32.7263 22.0866 32.7613 22.1526 32.7379C22.2148 32.7185 22.2575 32.6524 22.242 32.5864C22.2148 32.4698 22.207 32.3688 22.1954 32.2444C22.1837 32.1279 22.172 32.0152 22.1565 31.8986C22.1487 31.8442 22.1448 31.7898 22.141 31.7354C22.141 31.7276 22.1371 31.7082 22.1371 31.6927C22.1332 31.6616 22.1332 31.6305 22.1332 31.5994C22.1332 31.5567 22.1293 31.5139 22.1293 31.4712C22.1293 31.4634 22.1293 31.4556 22.1293 31.4479C22.1293 31.444 22.1293 31.4362 22.1293 31.4362C22.1254 31.374 22.1254 31.3157 22.1254 31.2536C22.1254 31.2147 22.1254 31.172 22.1293 31.1331C22.1448 31.0981 22.1604 31.0593 22.1682 31.0204C22.1759 30.9893 22.1837 30.9582 22.1876 30.9272C22.1876 30.9194 22.1915 30.9116 22.1915 30.9C22.1992 30.8883 22.207 30.8767 22.2148 30.865C22.2536 30.8106 22.2886 30.764 22.3352 30.7212C22.343 30.7134 22.3508 30.7057 22.3586 30.7018C22.3624 30.7096 22.3624 30.7173 22.3663 30.7251C22.3974 30.8456 22.4207 30.9738 22.4635 31.0904C22.4868 31.1525 22.514 31.2186 22.5528 31.2691C22.5684 31.2885 22.5878 31.3041 22.5995 31.3235C22.615 31.3468 22.6189 31.3779 22.6306 31.4051C22.6578 31.4945 22.7977 31.5023 22.8015 31.3973C22.8015 31.374 22.8015 31.3468 22.8054 31.3235C22.8054 31.3157 22.7977 31.308 22.7977 31.3119C22.7977 31.3041 22.8132 31.2769 22.821 31.2613C22.8404 31.2069 22.8521 31.1564 22.8521 31.102C22.8559 30.9854 22.8365 30.8766 22.8171 30.7601C22.7782 30.558 22.7355 30.356 22.6927 30.15C22.6539 29.9596 22.6228 29.7653 22.6072 29.571C22.6072 29.5671 22.6072 29.5671 22.6072 29.5633C22.6072 29.5555 22.6072 29.5477 22.6072 29.5399C22.6072 29.5166 22.6073 29.4933 22.6034 29.47C22.6034 29.4195 22.6034 29.369 22.6034 29.3185V29.3146C22.6228 29.2641 22.6422 29.2135 22.6539 29.1591C22.6617 29.1281 22.6655 29.097 22.6694 29.0659C22.6811 29.1009 22.6927 29.1319 22.7044 29.163C22.7433 29.2718 22.7782 29.3806 22.8171 29.4894C22.8559 29.606 22.9337 29.7148 23.0269 29.7964C23.0735 29.8353 23.1513 29.8042 23.1668 29.7498C23.229 29.5516 23.1746 29.3457 23.1318 29.1514C23.093 28.9765 23.0541 28.8016 23.0191 28.6268C23.0036 28.5413 22.9919 28.4558 22.9842 28.3703V28.3664C22.9842 28.3587 22.9842 28.3509 22.9842 28.347C22.9958 28.3703 23.0036 28.3898 23.0153 28.4131C23.1124 28.6035 23.2173 28.8016 23.4038 28.9105C23.4699 28.9493 23.5631 28.9143 23.567 28.8327C23.5787 28.6268 23.4893 28.4519 23.4233 28.2615C23.4194 28.2538 23.3999 28.1877 23.4077 28.2149C23.3999 28.1955 23.3844 28.1449 23.3805 28.1372C23.3689 28.0983 23.3572 28.0595 23.3494 28.0206C23.3261 27.9312 23.3145 27.8419 23.3028 27.7486C23.3028 27.7408 23.3028 27.7331 23.3028 27.7253C23.3028 27.6981 23.3028 27.6748 23.3028 27.6476C23.3028 27.6009 23.3067 27.5504 23.3106 27.5038C23.3145 27.4766 23.3183 27.4494 23.3222 27.4222C23.3222 27.4144 23.33 27.3911 23.33 27.3833C23.3417 27.3328 23.3572 27.2823 23.365 27.2318C23.3689 27.2201 23.3689 27.2085 23.3727 27.1968C23.3727 27.2046 23.3727 27.2007 23.3766 27.1813C23.3844 27.1541 23.3883 27.1269 23.3961 27.0997C23.4077 27.053 23.4194 27.0064 23.431 26.9559C23.4582 26.8471 23.466 26.7305 23.4388 26.6217C23.4271 26.5634 23.3572 26.5168 23.2989 26.5479C23.1901 26.6062 23.1124 26.68 23.0463 26.7849C22.9881 26.8821 22.9298 26.9909 22.8909 27.0997C22.8715 27.1502 22.8559 27.2046 22.8443 27.259C22.8132 27.3134 22.7821 27.3678 22.7549 27.4222C22.6733 27.5776 22.5995 27.7369 22.5567 27.9079C22.5412 27.9351 22.5218 27.9623 22.5062 27.9895C22.4751 28.0362 22.4518 28.0867 22.4246 28.1411C22.4168 28.1566 22.4091 28.176 22.3974 28.1916C22.4013 28.1877 22.3819 28.2266 22.378 28.2304C22.2847 28.4131 22.2148 28.6074 22.1254 28.79C22.0866 28.8755 22.0438 28.961 22.0011 29.0426C21.9972 29.0464 21.9816 29.0814 21.9778 29.0892C21.9739 29.1008 21.9661 29.1125 21.9661 29.1164C21.9467 29.1591 21.9234 29.198 21.9039 29.2407C21.8146 29.4117 21.7291 29.5827 21.6436 29.7537C21.2317 30.5619 20.7537 31.3352 20.3846 32.1667C20.2253 32.5281 20.0893 32.9011 19.9999 33.2858C19.9105 33.6705 19.8484 34.063 19.8561 34.4593C19.86 34.6847 19.8756 34.9101 19.9183 35.1316C19.9416 35.2559 19.9766 35.3764 20.0193 35.4968C20.0621 35.6134 20.1242 35.7144 20.1942 35.8155C20.2602 35.9126 20.4273 35.9437 20.5284 35.8893C20.6449 35.8271 20.6993 35.7144 20.6838 35.5823C20.6644 35.4152 20.641 35.2481 20.61 35.0811C20.5944 34.9995 20.5828 34.9178 20.575 34.8401C20.5711 34.8052 20.5672 34.7702 20.5672 34.7313C20.5672 34.7275 20.5672 34.7236 20.5672 34.7197C20.5672 34.7002 20.5672 34.6808 20.5672 34.6614C20.5633 34.4477 20.575 34.234 20.6022 34.0241C20.61 34.0163 20.6138 34.0047 20.6216 33.9969C20.6799 33.9153 20.7499 33.8182 20.8081 33.756C20.8276 33.7366 20.8431 33.721 20.8587 33.7016C20.8742 33.7521 20.8936 33.8065 20.9092 33.857C20.9558 33.9892 21.0102 34.1252 21.0801 34.2495C21.119 34.3156 21.1617 34.3816 21.2161 34.436C21.2667 34.4865 21.3211 34.537 21.3716 34.5914C21.4221 34.6458 21.5309 34.607 21.5076 34.5254C21.4804 34.4244 21.4726 34.3 21.4493 34.1834Z" fill="#F0EBDF"/>
<path d="M26.8945 25.4833C26.9458 25.4991 26.9182 25.4912 26.8945 25.4833V25.4833Z" fill="#F0EBDF"/>
<path d="M32.5117 37.8439C32.5155 37.8515 32.5193 37.8667 32.5231 37.8744C32.5193 37.8705 32.5155 37.8515 32.5117 37.8439Z" fill="#F0EBDF"/>
<path d="M32.5508 37.9449C32.5508 37.9449 32.5547 37.9449 32.5508 37.9449C32.5587 37.9568 32.5666 37.9647 32.5705 37.9726C32.5745 37.9726 32.5705 37.9647 32.5508 37.9449Z" fill="#F0EBDF"/>
<path d="M32.7585 38.0148C32.6823 38.0148 32.728 38.0186 32.7585 38.0148V38.0148Z" fill="#F0EBDF"/>
<path d="M36.5032 30.5192C36.5304 29.9169 36.5188 29.3068 36.4566 28.7045C36.4916 28.7473 36.5266 28.7939 36.5576 28.8406C36.8491 29.2291 37.1016 29.6488 37.4514 29.9946C37.5524 30.0957 37.6612 30.1967 37.7817 30.2783C37.8011 30.2899 37.8205 30.3016 37.8399 30.3133C37.9915 30.4765 38.1935 30.6591 38.4112 30.7251C38.5627 30.7718 38.7376 30.7718 38.8813 30.6941C39.0329 30.6125 39.13 30.4959 39.2038 30.3405C39.2971 30.1384 39.266 29.9014 39.2038 29.6954C39.1417 29.4934 39.0795 29.2913 39.0251 29.0892C38.9668 28.8833 38.9085 28.6774 38.8502 28.4753C38.823 28.3743 38.792 28.2732 38.7648 28.1722C38.7376 28.0789 38.7181 27.9779 38.687 27.8846C38.6715 27.7953 38.656 27.7098 38.6404 27.6204C38.5705 27.2163 38.5161 26.8083 38.4578 26.4003C38.3412 25.561 38.213 24.7255 37.941 23.9212C37.6729 23.1362 37.2649 22.3863 36.7247 21.7529C36.1807 21.1156 35.4968 20.6105 34.7197 20.2957C34.3427 20.1442 33.9503 20.0471 33.5462 20.0082C33.3363 19.9888 33.1304 19.9888 32.9167 20.0043C32.804 20.0121 32.6835 20.0199 32.5708 20.0432C32.5942 19.5186 32.5786 18.9901 32.532 18.4655C32.4659 17.6806 32.326 16.9035 32.1201 16.1419C31.9141 15.3686 31.6538 14.607 31.339 13.8726C31.1176 13.3519 30.8572 12.8467 30.5619 12.3688C30.2122 11.8014 29.8236 11.2497 29.3301 10.7989C29.0853 10.5774 28.8327 10.3676 28.5374 10.2161C28.2265 10.0567 27.9118 9.94016 27.566 9.90519C27.2085 9.87022 26.8588 9.93239 26.5207 10.0529C26.0894 10.2083 25.7319 10.523 25.4754 10.9C25.2228 11.273 25.0558 11.7082 24.9625 12.1434C24.8654 12.5903 24.8071 13.0449 24.7954 13.5034C24.7721 14.3738 24.8731 15.2442 24.947 16.1108C24.9625 16.2934 24.978 16.4721 24.9858 16.6548C25.0441 17.7544 24.9819 18.8619 24.8226 19.9538C24.7799 20.2452 24.7294 20.5367 24.6711 20.8281C24.6594 20.8903 24.6439 20.9486 24.6283 21.0107C24.5079 20.933 24.3602 20.8747 24.2281 20.8281C23.9639 20.731 23.6919 20.6532 23.4199 20.5794C22.8564 20.424 22.2813 20.3152 21.6985 20.2569C21.1117 20.1986 20.5211 20.2064 19.9343 20.2802C19.3981 20.3463 18.8735 20.4823 18.3645 20.6571C17.3891 20.9913 16.4876 21.5198 15.6716 22.1454C14.844 22.7826 14.1057 23.5404 13.4373 24.3447C13.1109 24.7372 12.8039 25.1413 12.5125 25.5571C12.2094 25.9884 11.9141 26.4314 11.646 26.886C11.6304 26.9132 11.6149 26.9404 11.5993 26.9676C11.576 26.9987 11.5566 27.0337 11.5372 27.0686C11.4711 27.1852 11.405 27.2979 11.3506 27.4222C11.269 27.6126 11.1836 27.7992 11.1058 27.9896C11.0709 28.0712 11.0281 28.1528 11.0087 28.2421C10.9854 28.3509 10.9698 28.4403 10.9893 28.5491C11.0087 28.6502 11.0514 28.7434 11.1175 28.825C11.3234 29.0892 11.6887 29.1242 11.984 29.0076C12.0928 28.9649 12.19 28.8911 12.2793 28.8211C12.3609 28.7628 12.4387 28.7007 12.5203 28.6385C12.6796 28.5141 12.835 28.3898 12.9904 28.2655C13.0138 28.246 13.0371 28.2266 13.0604 28.2072C13.177 28.1411 13.2935 28.0751 13.414 28.0129C13.9852 27.7059 14.5953 27.4572 15.2053 27.2435C15.283 27.2163 15.3569 27.193 15.4346 27.1658C15.4579 27.158 15.59 27.1192 15.489 27.1502C15.5356 27.1386 15.5784 27.123 15.625 27.1075C15.7804 27.0609 15.9359 27.0142 16.0913 26.9715C16.4099 26.8821 16.7324 26.8005 17.055 26.7267C17.6922 26.5752 18.3334 26.4391 18.9745 26.3109C19.674 26.171 20.3773 26.0545 21.0884 26.0078C21.3526 25.9962 21.6207 25.9884 21.885 26C21.7334 26.3537 21.5741 26.7073 21.4148 27.057C21.2399 27.4378 21.0728 27.8225 20.8941 28.1994C20.8008 28.3976 20.7037 28.5919 20.6066 28.7862C20.3229 29.3457 20.0198 29.8975 19.7128 30.4415C19.3903 31.0205 19.0678 31.5994 18.8074 32.2095C18.7492 32.3494 18.6909 32.4893 18.6404 32.6292C18.6404 32.6331 18.6365 32.637 18.6365 32.6408C18.4694 33.0994 18.4189 33.6006 18.4227 34.0863C18.4266 34.6031 18.4771 35.12 18.5277 35.6368C18.5549 35.901 18.586 36.1652 18.6015 36.4295C18.6093 36.5383 18.617 36.6471 18.6365 36.752C18.6404 36.7636 18.6404 36.7753 18.6442 36.787C18.6365 36.8375 18.6287 36.8841 18.617 36.9346C18.5898 37.0512 18.5432 37.1639 18.4888 37.2727C18.3878 37.4631 18.2673 37.6457 18.1469 37.8245C18.0808 37.9255 18.0109 38.0265 17.9487 38.1314C17.9409 38.147 17.9293 38.1625 17.9215 38.1781C17.7738 38.2674 17.6378 38.4034 17.5834 38.5627C17.5135 38.7726 17.5562 38.9824 17.6262 39.1806C17.6845 39.3438 17.7855 39.4953 17.8943 39.6313C18.0109 39.7712 18.1469 39.8995 18.2984 40.0044C18.5898 40.2064 18.9434 40.3308 19.297 40.3424C19.6895 40.3541 20.1247 40.2453 20.3812 39.9305C20.4472 39.8489 20.49 39.7635 20.5133 39.6702C20.7076 39.3205 20.9835 39.0213 21.2438 38.7182C21.3837 38.555 21.5197 38.3918 21.6518 38.2247C21.6868 38.1819 21.7218 38.1392 21.7529 38.0926C21.7567 38.0887 21.7567 38.0848 21.7606 38.0848C22.0521 38.011 22.3396 37.9022 22.6155 37.7895C23.1945 37.5525 23.7307 37.2416 24.2475 36.888C24.5428 36.6859 24.8265 36.4683 25.1024 36.2468C25.1218 36.2313 25.1374 36.2157 25.1529 36.2002C25.3977 35.9981 25.6347 35.7883 25.8601 35.5668C26.2914 35.151 26.6994 34.712 27.0997 34.2651C27.5154 33.8027 27.9196 33.3325 28.3159 32.8507C28.7084 32.3766 29.0931 31.8948 29.4739 31.409C29.7498 31.0554 30.0257 30.698 30.2977 30.3405C30.3171 30.4104 30.3365 30.4842 30.3521 30.5542C30.4686 31.0321 30.5502 31.5178 30.6163 32.0036C30.7562 33.0294 30.8222 34.063 30.9466 35.0889C31.0126 35.6329 31.0709 36.1808 31.1797 36.7209C31.2341 36.9929 31.308 37.261 31.4012 37.5214C31.4945 37.7817 31.6149 38.0382 31.782 38.2558C31.8364 38.3257 31.9064 38.3685 31.988 38.3879C32.0463 38.4773 32.124 38.5589 32.2133 38.6172C32.5786 38.862 33.0643 38.8114 33.4451 38.6327C33.7638 38.485 34.0591 38.2597 34.3 38.0071C35.2792 36.9657 35.5862 35.4969 35.9281 34.1563C36.2312 32.9711 36.4488 31.751 36.5032 30.5192ZM32.7846 20.9524C32.7962 20.9369 32.8079 20.9175 32.8234 20.9019C32.8273 20.898 32.8506 20.8708 32.8428 20.8825C32.87 20.8514 32.9011 20.8242 32.9283 20.797C32.975 20.7581 32.9983 20.7387 33.0371 20.7154C33.1964 20.731 33.3558 20.7543 33.5151 20.7853C33.9153 20.8708 34.3078 21.0068 34.673 21.1856C35.0189 21.3682 35.3414 21.5936 35.6367 21.85C35.967 22.157 36.2545 22.5029 36.5032 22.8798C36.7869 23.3305 37.0084 23.8162 37.1794 24.3214C37.5485 25.5066 37.5874 26.7578 37.8438 27.9663C37.8866 28.1605 37.9449 28.3548 38.0148 28.5375C38.0459 28.6191 38.077 28.7045 38.1119 28.7823C38.1391 28.8406 38.1664 28.9027 38.2052 28.9494C38.2169 28.9649 38.2285 28.9766 38.2441 28.9882C38.2907 29.1514 38.3334 29.3107 38.3801 29.4739C38.4112 29.5827 38.4461 29.6954 38.4694 29.8081C38.3917 29.7265 38.3218 29.6371 38.2596 29.54C38.1353 29.3379 38.0303 29.1242 37.9254 28.9144C37.8127 28.689 37.7078 28.4636 37.599 28.2383C37.3814 27.7875 37.1638 27.3368 36.9384 26.8899C36.7131 26.443 36.4722 26.0078 36.204 25.5882C35.9243 25.1491 35.6289 24.7255 35.2753 24.3408C35.0694 24.1155 34.8479 23.8979 34.5914 23.7308C34.4982 23.6725 34.401 23.6142 34.3 23.5714C34.199 23.4743 34.0941 23.3849 33.9853 23.3033C33.4918 22.9458 32.8856 22.8176 32.2833 22.8176C32.2872 22.7904 32.2872 22.7632 32.2911 22.7321C32.2911 22.7321 32.2911 22.7243 32.2911 22.7166C32.2911 22.7166 32.2911 22.7127 32.2911 22.7088C32.2949 22.701 32.295 22.6894 32.2988 22.6816C32.3144 22.6233 32.3338 22.565 32.3532 22.5067C32.361 22.4912 32.3649 22.4795 32.3727 22.464C32.3727 22.464 32.3727 22.4601 32.3766 22.4601C32.396 22.4329 32.4115 22.4057 32.431 22.3785C32.4387 22.3669 32.4504 22.3552 32.4582 22.3435C32.4815 22.3241 32.5009 22.3008 32.5242 22.2814C32.5475 22.2619 32.5708 22.2425 32.5942 22.2231C32.6058 22.2153 32.6175 22.2037 32.6291 22.1959C32.633 22.1959 32.633 22.192 32.633 22.192C32.633 22.192 32.6369 22.1881 32.6408 22.1881C32.6641 22.1726 32.6874 22.1609 32.7107 22.1454C32.7418 22.1454 32.7729 22.1454 32.804 22.1493C32.9633 22.157 33.1187 22.1726 33.278 22.1998C33.3091 22.2037 33.3402 22.2114 33.3674 22.2153C33.3674 22.2153 33.3674 22.2153 33.3713 22.2153C33.3907 22.2192 33.4102 22.2231 33.4296 22.227C33.5073 22.2464 33.5811 22.2658 33.6589 22.2891C33.8104 22.3358 33.9542 22.3941 34.0979 22.4601C34.1096 22.464 34.1174 22.4718 34.129 22.4757C34.164 22.4951 34.199 22.5145 34.2339 22.5339C34.3039 22.5728 34.37 22.6155 34.436 22.6583C34.5021 22.7049 34.5642 22.7515 34.6264 22.8021C34.6614 22.8293 34.6964 22.8604 34.7274 22.8876C34.7313 22.8876 34.7313 22.8914 34.7313 22.8914C34.7546 22.9109 34.7741 22.9303 34.7974 22.9536C34.9217 23.0702 35.0422 23.1945 35.151 23.3266C35.2792 23.4743 35.423 23.6064 35.5473 23.758C35.6095 23.8318 35.6678 23.9095 35.73 23.9872C35.7688 24.0339 35.8077 24.0844 35.8582 24.1155C35.8737 24.1271 35.8971 24.1349 35.9126 24.1465C35.9281 24.1621 35.9437 24.1854 35.9592 24.2009C36.0525 24.3059 36.2235 24.1971 36.1652 24.0688C36.1496 24.03 36.1341 24.0028 36.1302 23.96C36.1263 23.9056 36.1069 23.8629 36.0836 23.8124C36.0408 23.723 35.9942 23.6414 35.9476 23.5559C35.8543 23.3888 35.7727 23.2023 35.6639 23.0469C35.4424 22.7321 35.1743 22.4485 34.8712 22.2153C34.3272 21.7995 33.655 21.5742 32.9788 21.512C32.9283 21.5081 32.8739 21.5042 32.8234 21.5003C32.8118 21.4692 32.7962 21.4382 32.7846 21.4071C32.7807 21.3993 32.7651 21.341 32.7768 21.3915C32.7729 21.3721 32.7651 21.3566 32.7612 21.3371C32.7535 21.306 32.7496 21.275 32.7418 21.2478C32.7379 21.2283 32.7379 21.2128 32.734 21.1934C32.734 21.1895 32.734 21.1895 32.734 21.1856C32.734 21.1856 32.734 21.1817 32.734 21.1778C32.734 21.1195 32.7379 21.0612 32.7457 21.0068C32.7535 20.9913 32.769 20.9719 32.7846 20.9524ZM36.6198 28.0284C36.5926 28.0012 36.5654 27.974 36.5382 27.9429C36.4683 27.8691 36.3906 27.7992 36.3128 27.737C36.2623 27.4922 36.204 27.2513 36.138 27.0104C36.1691 27.0725 36.2001 27.1386 36.2312 27.2008C36.3634 27.4766 36.4916 27.7525 36.6198 28.0284ZM32.2872 22.7127C32.2872 22.701 32.2911 22.6933 32.2911 22.6933C32.2911 22.701 32.2872 22.7088 32.2872 22.7127ZM32.4543 22.3435C32.4698 22.328 32.4659 22.3319 32.4543 22.3435V22.3435ZM25.8679 16.0719C25.8251 15.5279 25.763 14.9839 25.7319 14.4399C25.6969 13.7715 25.7125 13.0993 25.8407 12.4387C25.9029 12.1667 25.9883 11.9025 26.1049 11.6499C26.1826 11.5022 26.2759 11.3662 26.3808 11.238C26.4585 11.1564 26.544 11.0865 26.6334 11.0204C26.7266 10.966 26.8277 10.9233 26.9287 10.8844C27.0414 10.8533 27.1541 10.83 27.2706 10.8183C27.3833 10.8145 27.4999 10.8261 27.6126 10.8455C27.7603 10.8805 27.9001 10.931 28.0361 10.9971C28.2537 11.1137 28.4519 11.2613 28.6384 11.4206C29.027 11.782 29.3534 12.2056 29.6449 12.6485C30.0723 13.3286 30.422 14.0513 30.7096 14.8013C30.8145 15.0733 30.9116 15.3453 31.001 15.6212C31.2691 16.4644 31.4634 17.3309 31.5683 18.2091C31.5955 18.4383 31.6149 18.6715 31.6305 18.9046C31.6655 19.6235 31.6383 20.3424 31.5372 21.0574C31.51 21.2516 31.475 21.4459 31.4362 21.6363C31.3429 22.0677 31.2225 22.4912 31.1059 22.9148C30.8067 22.9614 30.5075 23.0197 30.2161 23.0857C29.606 23.2256 28.9959 23.416 28.4247 23.6686C28.3509 23.7036 28.2732 23.7346 28.1955 23.7696C28.1916 23.7696 28.1916 23.7696 28.1877 23.7696C28.075 23.8007 27.9662 23.8318 27.8574 23.8745C27.7603 23.9134 27.667 23.9561 27.5699 23.995C27.2162 24.1427 26.8743 24.3292 26.509 24.4574C26.5013 24.4613 26.4857 24.4652 26.4741 24.4691C26.4585 24.4729 26.443 24.4768 26.4391 24.4807C26.3925 24.4924 26.3419 24.504 26.2953 24.5157C26.2098 24.5351 26.1243 24.5468 26.035 24.5545C25.7591 24.5623 25.4832 24.5235 25.2112 24.4691C25.0402 24.4341 24.8731 24.3913 24.706 24.3408C24.6944 24.3369 24.6788 24.3331 24.6672 24.3292C24.741 24.1737 24.8032 24.0105 24.8537 23.8434C24.9664 23.4743 25.0363 23.0935 25.1102 22.7127C25.2267 22.1687 25.4249 21.648 25.5415 21.104C25.6619 20.5328 25.7552 19.9538 25.8213 19.3709C25.9495 18.279 25.9573 17.1755 25.8679 16.0719ZM14.0202 26.3031C13.3751 26.7539 12.7806 27.2746 12.1667 27.7642C12.4464 27.2396 12.769 26.7422 13.107 26.2526C13.414 25.8096 13.7326 25.3744 14.0746 24.9548C14.2572 24.7294 14.4437 24.5118 14.638 24.2942C15.1859 23.6919 15.7843 23.1285 16.441 22.6389C16.6159 22.5106 16.7907 22.3863 16.9734 22.2697C17.564 21.8967 18.1974 21.5858 18.8618 21.3643C19.4214 21.1895 20.0004 21.0768 20.591 21.0418C21.271 21.0107 21.9471 21.0651 22.6155 21.1739C22.6194 21.1739 22.6194 21.1778 22.6233 21.1778C22.8953 21.2788 23.1634 21.4032 23.4237 21.5314C23.482 21.5586 23.5403 21.5897 23.5986 21.6169C23.6336 21.6324 23.6685 21.6519 23.7035 21.6674C23.7152 21.6713 23.7268 21.6791 23.7385 21.683C23.7463 21.6869 23.754 21.6907 23.754 21.6907C23.7735 21.7024 23.7929 21.7102 23.8123 21.7218C23.8201 21.7257 23.8279 21.7296 23.8356 21.7335C23.8434 21.7412 23.8512 21.749 23.8589 21.7568C23.9289 21.8228 23.9949 21.8967 24.061 21.9744C24.0921 22.0094 24.1193 22.0443 24.1465 22.0832C24.162 22.1026 24.1776 22.1259 24.1931 22.1493C24.197 22.157 24.2048 22.1648 24.2087 22.1726C24.2125 22.1803 24.2125 22.1803 24.2125 22.1803C24.2125 22.1842 24.2164 22.1842 24.2164 22.1881C24.2397 22.227 24.2631 22.2658 24.2825 22.3047C24.2553 22.429 24.2281 22.5495 24.2009 22.6738C23.9872 22.5728 23.7657 22.4834 23.5403 22.4135C23.008 22.2503 22.4562 22.1765 21.9005 22.1726C20.7698 22.1648 19.6701 22.4407 18.6015 22.7943C18.3178 22.8876 18.0303 22.9769 17.7661 23.1168C17.6339 23.1906 17.4979 23.2684 17.3814 23.3694C17.3231 23.4199 17.2609 23.4743 17.2182 23.5365C17.1793 23.5986 17.1482 23.6647 17.121 23.7308C17.1055 23.7774 17.156 23.8318 17.2026 23.8046C17.2454 23.7813 17.292 23.7541 17.3347 23.7347C17.3891 23.7075 17.4358 23.6802 17.4902 23.6492C17.5912 23.5948 17.6922 23.5442 17.801 23.5054C17.8282 23.4937 17.8515 23.486 17.8787 23.4782C17.8904 23.4743 17.9059 23.4704 17.9176 23.4665C17.9176 23.4665 17.9526 23.4549 17.9293 23.4626C18.007 23.4393 18.0419 23.4238 18.1041 23.4082C18.2129 23.3772 18.3217 23.3461 18.4305 23.315C18.8929 23.1829 19.3631 23.0624 19.8372 22.973C20.0742 22.9264 20.3151 22.8876 20.556 22.8565C20.6726 22.8409 20.7892 22.8293 20.9096 22.8176C20.9718 22.8137 21.0301 22.8059 21.0923 22.8021C21.1 22.8021 21.1272 22.8021 21.135 22.7982C21.1622 22.7982 21.1933 22.7943 21.2205 22.7943C21.6907 22.7749 22.1609 22.7982 22.6233 22.8759C22.6582 22.8837 22.6932 22.8876 22.7243 22.8953C22.736 22.8992 22.7476 22.8992 22.7593 22.9031C22.8214 22.9148 22.8836 22.9303 22.9419 22.9458C23.0701 22.9769 23.1945 23.008 23.3227 23.0469C23.5636 23.1207 23.7929 23.214 24.0183 23.3266C24.0299 23.3344 24.0416 23.3383 24.0532 23.3461C23.9911 23.5831 23.9133 23.8162 23.8084 24.0377C23.8007 24.0455 23.7929 24.0494 23.7812 24.0572C23.7735 24.0611 23.7385 24.0844 23.7385 24.0844C23.7152 24.096 23.6957 24.1116 23.6724 24.1232C23.5831 24.1776 23.4898 24.2243 23.3965 24.267C23.3654 24.2825 23.3305 24.2981 23.2994 24.3136C23.0157 24.267 22.7243 24.2398 22.4406 24.2165C22.021 24.1854 21.6013 24.166 21.1816 24.1699C20.3268 24.1737 19.4719 24.2437 18.6287 24.3991C17.8088 24.5507 17.0006 24.7877 16.2273 25.0986C15.4462 25.4133 14.708 25.8213 14.0202 26.3031ZM21.1234 22.7982C21.1156 22.8021 21.0573 22.8021 21.1117 22.7982C21.1156 22.7982 21.1195 22.7982 21.1234 22.7982ZM18.1974 38.8464C18.2013 38.8581 18.2013 38.8658 18.1974 38.8464V38.8464ZM18.8929 39.0446C18.889 39.0446 18.8813 39.0446 18.8696 39.0446C18.858 39.0446 18.8502 39.0407 18.8385 39.0407C18.8385 39.0407 18.823 39.0368 18.8152 39.0368C18.7414 39.0174 18.6637 39.0135 18.586 39.0018C18.4577 38.9824 18.3878 39.1184 18.4189 39.2233C18.3878 39.1884 18.3606 39.1534 18.3373 39.1184C18.3334 39.1145 18.3256 39.1068 18.3217 39.099C18.3178 39.0951 18.3139 39.0873 18.3139 39.0834C18.3101 39.0796 18.3101 39.0757 18.3062 39.0757C18.3062 39.0796 18.3101 39.0796 18.3101 39.0834C18.2984 39.064 18.2867 39.0446 18.2751 39.0252C18.2479 38.9746 18.2246 38.9202 18.2013 38.8658C18.1974 38.8581 18.1935 38.8386 18.1896 38.827C18.1857 38.8114 18.1818 38.7959 18.1818 38.7804C18.1818 38.7687 18.1818 38.757 18.1818 38.7493C18.1818 38.7454 18.1818 38.7415 18.1818 38.7376C18.1857 38.7298 18.1857 38.7221 18.1896 38.7143C18.2479 38.6949 18.3062 38.656 18.3528 38.6172C18.3567 38.6172 18.3567 38.6172 18.3606 38.6172C18.3606 38.6172 18.3645 38.6172 18.3683 38.6172C18.3994 38.621 18.4305 38.621 18.4616 38.6249C18.4694 38.6249 18.4849 38.6288 18.4927 38.6327C18.516 38.6405 18.5393 38.6444 18.5587 38.6521C18.5859 38.6599 18.6132 38.6716 18.6404 38.6832C18.6481 38.6871 18.6598 38.691 18.6676 38.6949C18.6714 38.6988 18.6753 38.6988 18.6831 38.7026C18.7336 38.7298 18.7841 38.757 18.8308 38.7881C18.8502 38.8037 18.8735 38.8192 18.8929 38.8348C18.9007 38.8425 18.9124 38.8503 18.9201 38.8581L18.924 38.8619C18.9434 38.8814 18.9629 38.9008 18.9784 38.9241C18.9823 38.928 18.9862 38.9358 18.9901 38.9397V38.9436C18.994 38.9513 18.9978 38.963 19.0017 38.9708V38.9669C19.0017 38.9669 19.0017 38.9708 19.0056 38.9785V38.9824V38.9863C19.0056 38.9863 19.0056 38.9863 19.0056 38.9902V38.9863V38.9902V38.9941C19.0056 38.9941 19.0056 38.9941 19.0017 38.998L18.9978 39.0018L19.0017 38.998C19.0017 39.0018 18.9978 39.0057 18.9978 39.0096V39.0135C18.9978 39.0135 18.994 39.0135 18.994 39.0096C18.994 39.0135 18.9901 39.0135 18.9901 39.0135C18.9901 39.0135 18.9901 39.0135 18.994 39.0096C18.994 39.0096 18.9901 39.0096 18.9901 39.0135L18.994 39.0096L18.9901 39.0135L18.9862 39.0174C18.9745 39.0252 18.9551 39.029 18.9512 39.029C18.9396 39.0329 18.9318 39.0407 18.9201 39.0446H18.9162C18.9124 39.0446 18.9124 39.0446 18.9085 39.0446C18.9085 39.0407 18.9007 39.0407 18.8929 39.0446ZM18.3683 38.6133C18.3761 38.6133 18.3839 38.6094 18.3839 38.6133C18.3839 38.6133 18.3761 38.6133 18.3683 38.6133ZM18.4849 38.6249C18.4694 38.621 18.4538 38.6172 18.4849 38.6249V38.6249ZM19.0095 38.9824C19.0134 38.9824 19.0134 38.9824 19.0095 38.9824C19.0134 38.9824 19.0134 38.9824 19.0095 38.9824C19.0134 38.9863 19.0134 38.9863 19.0095 38.9824C19.0095 38.9863 19.0095 38.9863 19.0095 38.9863C19.0134 38.9863 19.0134 38.9863 19.0095 38.9824C19.0095 38.9863 19.0095 38.9863 19.0095 38.9863C19.0134 38.9863 19.0134 38.9863 19.0095 38.9824C19.0095 38.9863 19.0095 38.9863 19.0095 38.9824ZM19.0134 38.9863C19.0134 38.9863 19.0134 38.9902 19.0134 38.9863C19.0134 38.9902 19.0134 38.9902 19.0134 38.9863C19.0134 38.9902 19.0134 38.9902 19.0134 38.9863C19.0134 38.9902 19.0134 38.9863 19.0134 38.9863ZM19.0017 39.0096C19.0017 39.0057 19.0056 39.0018 19.0095 38.9941C19.0134 39.0096 19.0095 39.0135 19.0017 39.0096ZM19.7595 39.5536C19.7323 39.5692 19.7051 39.5808 19.6779 39.5925C19.6662 39.5964 19.6507 39.6041 19.6351 39.608C19.5885 39.6275 19.6351 39.6119 19.6545 39.6041C19.6079 39.6275 19.5457 39.6313 19.4952 39.6391C19.468 39.643 19.4408 39.6469 19.4136 39.6508C19.402 39.6508 19.3903 39.6547 19.3825 39.6547C19.332 39.6547 19.2776 39.6546 19.2271 39.6508C19.196 39.6469 19.1649 39.643 19.1338 39.6391C19.1222 39.6391 19.1105 39.6352 19.0989 39.6352C19.0911 39.6313 19.0794 39.6313 19.0717 39.6275C19.0561 39.6236 19.0406 39.6197 19.025 39.6158C18.9978 39.608 18.9706 39.6003 18.9434 39.5886C18.9007 39.5731 18.8541 39.5536 18.8113 39.5342C18.753 39.5031 18.6986 39.4681 18.6481 39.4332C18.7336 39.472 18.8346 39.4953 18.9357 39.5031C19.1377 39.5186 19.3437 39.4215 19.4408 39.2428C19.4719 39.1884 19.4913 39.1301 19.4991 39.0757C19.5496 39.1106 19.6001 39.1495 19.6468 39.1922C19.6856 39.2272 19.7206 39.2661 19.7517 39.3088C19.7595 39.3205 19.7672 39.3282 19.775 39.3399C19.7867 39.3593 19.7944 39.3788 19.8061 39.4021C19.81 39.406 19.8139 39.4137 19.8177 39.4254C19.8177 39.4293 19.8216 39.4293 19.8216 39.4332C19.8216 39.4293 19.8216 39.4254 19.8177 39.4254C19.8177 39.4215 19.8139 39.4176 19.8139 39.4176C19.81 39.4137 19.81 39.4098 19.8061 39.4021C19.8022 39.3982 19.8022 39.4021 19.8177 39.437C19.7983 39.4759 19.7828 39.5148 19.7711 39.5536C19.7711 39.5458 19.7672 39.5497 19.7595 39.5536ZM28.5219 31.0788C28.0361 31.6966 27.5388 32.3067 27.0297 32.9051C26.7577 33.2237 26.4857 33.5384 26.2059 33.8493C25.7047 34.4011 25.1879 34.9412 24.6206 35.423C24.5895 35.4502 24.5623 35.4736 24.5312 35.5008C24.5156 35.5085 24.504 35.5202 24.4923 35.5318C24.1309 35.8272 23.7579 36.1069 23.3654 36.3634C22.7709 36.7403 22.1453 37.0512 21.477 37.2688C21.5119 37.2571 21.5469 37.2455 21.5819 37.2338C21.4653 37.2727 21.3487 37.3115 21.236 37.3504C21.1156 37.3854 20.9874 37.4126 20.8786 37.4786C20.7814 37.5369 20.6843 37.5952 20.5871 37.6535C20.4861 37.7118 20.4084 37.8245 20.4395 37.9449C20.4667 38.0693 20.5599 38.1431 20.6843 38.1625C20.7387 38.1742 20.797 38.1819 20.8514 38.1897C20.7931 38.248 20.7387 38.3063 20.6843 38.3607C20.5405 38.5083 20.3967 38.6521 20.2607 38.8037C20.2568 38.7998 20.2529 38.7959 20.2529 38.792C19.9693 38.4773 19.5729 38.2635 19.1727 38.1353C19.0717 38.1003 18.9668 38.0731 18.8618 38.0537C18.9162 37.9838 18.9668 37.9138 19.0173 37.84C19.13 37.6729 19.2388 37.4903 19.3126 37.3038C19.3553 37.195 19.367 37.0706 19.3748 36.9502C19.3786 36.8958 19.3825 36.8336 19.3825 36.7753C19.3942 36.7209 19.402 36.6665 19.4097 36.6082C19.4253 36.4489 19.4253 36.2935 19.4175 36.138C19.4058 35.7844 19.3786 35.4347 19.3476 35.0811C19.332 34.9101 19.3204 34.7391 19.3087 34.5682C19.2854 34.1407 19.2893 33.7094 19.367 33.2898C19.3748 33.2626 19.3786 33.2354 19.3864 33.2082C19.4408 33.0022 19.5185 32.8002 19.604 32.602C19.6973 32.3766 19.8022 32.159 19.911 31.9414C20.2801 31.2186 20.6998 30.5231 21.0806 29.8081C21.4847 29.0465 21.8617 28.2693 22.2075 27.4805C22.3979 27.0492 22.5572 26.6062 22.7126 26.1633C22.7204 26.1399 22.7282 26.1127 22.7321 26.0855C22.8797 26.105 23.0235 26.1166 23.1712 26.1438C23.175 26.1438 23.175 26.1438 23.1789 26.1438C23.1673 26.1399 23.1595 26.1399 23.1478 26.1361C23.1595 26.1399 23.1712 26.1399 23.1828 26.1438C23.1867 26.1438 23.1906 26.1438 23.1945 26.1477C23.2061 26.1516 23.2217 26.1516 23.2333 26.1555C23.245 26.1594 23.2566 26.1594 23.2683 26.1633C23.2722 26.1633 23.2761 26.1633 23.28 26.1671C23.2838 26.1671 23.2877 26.1671 23.2916 26.171C23.3188 26.1788 23.3499 26.1827 23.3771 26.1866C23.3849 26.1866 23.3926 26.1905 23.4004 26.1905C23.5015 26.2138 23.6025 26.2332 23.7035 26.2371C23.8162 26.2682 23.9328 26.2954 24.0455 26.3342C24.2397 26.4081 24.3757 26.1283 24.2087 26.0117C24.1232 25.9534 24.0377 25.8913 23.9522 25.833C23.9405 25.8252 23.9328 25.8174 23.9211 25.8135C23.9172 25.8135 23.9172 25.8097 23.9133 25.8097C23.8939 25.7941 23.8939 25.7941 23.9095 25.8097C23.9133 25.8135 23.9172 25.8174 23.9211 25.8213C23.9017 25.8019 23.8823 25.7863 23.8628 25.7708C23.8551 25.763 23.8434 25.7552 23.8356 25.7475C23.7968 25.7125 23.7501 25.6892 23.7035 25.662C23.4976 25.5571 23.2877 25.4716 23.0662 25.3978C22.6427 25.2618 22.1842 25.2268 21.7412 25.219C20.8552 25.2035 19.9654 25.3395 19.0989 25.5143C18.2362 25.6853 17.3775 25.8835 16.5343 26.1283C16.1768 26.2293 15.8193 26.342 15.4657 26.4625C15.9125 26.2138 16.3788 25.9962 16.8607 25.8135C17.0355 25.7475 17.2143 25.6853 17.393 25.6231C18.1779 25.3744 18.9862 25.2074 19.8022 25.1141C20.0353 25.0869 20.2724 25.0675 20.5055 25.0558C21.0884 25.0247 21.6751 25.0325 22.258 25.0675C22.6699 25.0947 23.0857 25.1296 23.4976 25.1724C23.5092 25.1763 23.5248 25.1802 23.5364 25.1879C23.8589 25.3084 24.1853 25.4288 24.5195 25.5066C24.8148 25.5765 25.1063 25.6193 25.4055 25.6193C25.4249 25.6426 25.456 25.6542 25.4871 25.662C25.5376 25.6736 25.592 25.6814 25.6386 25.7047C25.6697 25.7203 25.6969 25.7436 25.7319 25.7591C25.763 25.7708 25.7979 25.7786 25.8329 25.7902C25.8912 25.8097 25.9534 25.833 26.0117 25.8524C26.0389 25.8641 26.0661 25.8718 26.0894 25.8835C26.0894 25.8835 26.1515 25.9029 26.1205 25.8913C26.0777 25.8796 26.1826 25.9184 26.1982 25.9223C26.443 25.9962 26.6761 26.0972 26.9054 26.2021C26.9598 26.2254 27.0142 26.2526 27.0686 26.2798C27.0841 26.2876 27.0997 26.2954 27.1152 26.3031C27.1191 26.3031 27.1269 26.3109 27.1346 26.3148C27.1424 26.3187 27.1502 26.3226 27.1502 26.3226C27.1657 26.3303 27.1813 26.3381 27.1968 26.3459C27.3134 26.4081 27.4261 26.4702 27.5349 26.5402C27.7525 26.6723 27.9584 26.82 28.1605 26.9754C28.2615 27.0531 28.3587 27.1347 28.4558 27.2202C28.4597 27.2241 28.4597 27.2241 28.4636 27.228C28.4675 27.228 28.4675 27.2318 28.4714 27.2318C28.4752 27.2357 28.4791 27.2396 28.483 27.2435L28.4869 27.2474C28.4869 27.2474 28.4869 27.2474 28.483 27.2435C28.5024 27.2629 28.5258 27.2824 28.5452 27.3018C28.5918 27.3445 28.6346 27.3912 28.6812 27.4339C28.8599 27.6126 29.0309 27.8031 29.1863 28.0051C29.264 28.1061 29.3379 28.2072 29.4117 28.3121C29.4195 28.3237 29.4273 28.3393 29.4389 28.3509C29.4389 28.3587 29.4428 28.3626 29.4467 28.3704C29.4622 28.4015 29.4778 28.4364 29.4894 28.4714C29.4972 28.4869 29.5011 28.5025 29.505 28.5219C29.5089 28.5336 29.5283 28.5802 29.5166 28.5452C29.5322 28.5919 29.5516 28.6346 29.5671 28.6812C29.571 28.6851 29.571 28.6929 29.5749 28.6968C29.5788 28.7162 29.5866 28.7395 29.5905 28.7589C29.5982 28.7939 29.606 28.8289 29.6099 28.86C29.6138 28.8794 29.6177 28.8988 29.6177 28.9222C29.6177 28.926 29.6177 28.9377 29.6215 28.9494C29.6215 28.9494 29.6215 28.9843 29.6215 28.9882C29.6215 29.0076 29.6215 29.0232 29.6215 29.0426C29.6215 29.0854 29.6215 29.1242 29.6215 29.167C29.6215 29.2058 29.6177 29.2447 29.6099 29.2835C29.606 29.303 29.606 29.3185 29.6021 29.3379C29.6021 29.3457 29.5943 29.3846 29.5943 29.3884C29.5905 29.3962 29.5905 29.404 29.5905 29.4079C29.5866 29.4234 29.5827 29.4428 29.5788 29.4584C29.5671 29.505 29.5516 29.5516 29.5322 29.5944C29.5011 29.6838 29.4583 29.7693 29.4195 29.8547C29.4117 29.8742 29.4 29.8936 29.3923 29.913C29.3923 29.913 29.3884 29.9169 29.3884 29.9208C29.3651 29.9674 29.3379 30.0102 29.3146 30.0568C29.3107 30.0646 29.3068 30.0723 29.3029 30.0762C29.0426 30.4143 28.7822 30.7485 28.5219 31.0788ZM23.3965 26.1905C23.4315 26.1943 23.416 26.1943 23.3965 26.1905V26.1905ZM31.7471 35.5668C31.6072 34.5099 31.5256 33.4452 31.4012 32.3844C31.2847 31.3818 31.1059 30.3871 30.7562 29.439C30.3909 28.452 29.8119 27.566 29.027 26.8627C28.6462 26.5208 28.2227 26.2293 27.7641 25.9923C27.5232 25.8679 27.2745 25.7514 27.0181 25.662C26.8121 25.592 26.5984 25.5182 26.3847 25.4755C26.4158 25.4755 26.4508 25.4716 26.4818 25.4677C26.4896 25.4677 26.4974 25.4677 26.509 25.4638C26.5285 25.4638 26.5518 25.4638 26.5712 25.4638C26.6489 25.4638 26.7305 25.4638 26.8082 25.4716C26.8316 25.4755 26.8549 25.4755 26.8743 25.4794C26.8782 25.4794 26.886 25.4833 26.8976 25.4833C26.8937 25.4833 26.8898 25.4794 26.8821 25.4794C26.9404 25.4988 27.0025 25.5027 27.0608 25.5143C27.0647 25.5143 27.0686 25.5143 27.0725 25.5182C27.0841 25.5221 27.0997 25.526 27.1113 25.526C27.1541 25.5376 27.2007 25.5493 27.2434 25.561C27.3212 25.5804 27.3989 25.6037 27.4766 25.627C27.6437 25.6814 27.8069 25.7514 27.9662 25.8291C27.9623 25.8291 27.9623 25.8252 27.9584 25.8252C27.9895 25.8407 28.0167 25.8524 28.0478 25.8679C28.4014 26.0545 28.7278 26.2876 29.027 26.5518C29.5127 26.9987 29.9402 27.5038 30.3015 28.0595C30.694 28.6812 31.0126 29.3457 31.2691 30.0335C31.3313 30.2006 31.3896 30.3677 31.444 30.5347C31.7004 31.3469 31.8792 32.1823 31.9724 33.0255C31.9996 33.2587 32.0191 33.4879 32.0307 33.7211C32.0579 34.2612 32.0579 34.8013 32.0229 35.3453C32.0035 35.629 31.9763 35.9088 31.9375 36.1885C31.9219 36.3051 31.9064 36.4178 31.8908 36.5344C31.8325 36.2119 31.7898 35.8893 31.7471 35.5668ZM33.7482 37.4242C33.6045 37.5758 33.4451 37.7118 33.2742 37.8322C33.2081 37.8711 33.142 37.9099 33.0721 37.941C33.041 37.9566 33.006 37.9643 32.975 37.9799C32.9711 37.9799 32.9672 37.9838 32.9594 37.9838C32.94 37.9877 32.9206 37.9915 32.9011 37.9993C32.8584 38.0071 32.8156 38.0149 32.7729 38.0187C32.769 38.0187 32.7651 38.0187 32.7612 38.0187C32.769 38.0187 32.7729 38.0187 32.7846 38.0187C32.7651 38.0187 32.7457 38.0187 32.7263 38.0187C32.703 38.0187 32.6835 38.0149 32.6602 38.0149C32.6641 38.0149 32.668 38.0187 32.6758 38.0187C32.6719 38.0187 32.6641 38.0149 32.6602 38.0149C32.6291 38.011 32.5864 37.9915 32.6369 38.0071C32.6252 38.0032 32.6097 37.9993 32.598 37.9954C32.5942 37.9915 32.5864 37.9877 32.5825 37.9838C32.5786 37.9799 32.5786 37.976 32.5747 37.9721C32.5708 37.9721 32.5631 37.9605 32.5553 37.9488C32.5514 37.9449 32.5475 37.9371 32.5436 37.9333C32.5475 37.9371 32.5514 37.941 32.5553 37.9449C32.5553 37.941 32.5514 37.941 32.5514 37.9371C32.5436 37.9216 32.5359 37.906 32.5281 37.8905C32.5281 37.8866 32.5242 37.8827 32.5242 37.8789C32.5242 37.8866 32.5203 37.8827 32.5164 37.8555C32.5164 37.8517 32.5164 37.8517 32.5164 37.8478V37.8439C32.5087 37.8089 32.5009 37.7739 32.4931 37.7351C32.4892 37.7079 32.4854 37.6846 32.4815 37.6574C32.5164 37.5563 32.5514 37.4514 32.5825 37.3465C32.6719 37.0667 32.7496 36.7831 32.7923 36.4916C32.8739 35.9671 32.9244 35.4347 32.94 34.9024C32.975 33.8143 32.8778 32.7186 32.6486 31.65C32.4115 30.5542 32.0463 29.4739 31.5295 28.4792C30.9777 27.4106 30.2355 26.4081 29.2602 25.6931C28.9493 25.4638 28.6112 25.2656 28.2499 25.1219C28.2382 25.083 28.2304 25.048 28.2149 25.0092C28.2149 25.0053 28.2071 24.9975 28.2071 24.9897C28.2071 24.9859 28.2071 24.982 28.2032 24.9781C28.1955 24.9548 28.1916 24.9276 28.1838 24.9043C28.1799 24.8926 28.1799 24.881 28.1799 24.8693C28.1799 24.8654 28.1683 24.811 28.176 24.8499C28.1838 24.8848 28.176 24.8382 28.176 24.8304C28.176 24.8149 28.176 24.7994 28.1799 24.7799V24.776C28.1799 24.776 28.1799 24.7722 28.1799 24.7605V24.7566C28.1799 24.7527 28.1799 24.7527 28.1799 24.7488V24.7527C28.1838 24.7411 28.1877 24.7294 28.1916 24.7216C28.1955 24.7177 28.1993 24.7061 28.2032 24.6983C28.2149 24.6789 28.2265 24.6633 28.2421 24.6439C28.2421 24.64 28.246 24.64 28.246 24.6362C28.246 24.6362 28.246 24.6361 28.2499 24.6323C28.2654 24.6167 28.2809 24.6012 28.2965 24.5895C28.3431 24.5468 28.3936 24.5118 28.4442 24.4768C28.4442 24.4768 28.4441 24.4768 28.448 24.4768C28.4597 24.4691 28.4675 24.4652 28.4791 24.4574C28.5063 24.4419 28.5335 24.4263 28.5568 24.4108C28.6579 24.3564 28.7628 24.3097 28.8716 24.2709C28.8716 24.2709 28.8871 24.267 28.8988 24.2631C28.9104 24.2592 28.9221 24.2553 28.9221 24.2553C28.9454 24.2476 28.9687 24.2437 28.992 24.2359C29.0503 24.2204 29.1086 24.2087 29.1708 24.1971C29.2252 24.1893 29.2796 24.1815 29.334 24.1737C29.3612 24.1699 29.3884 24.1699 29.4156 24.166C29.4195 24.166 29.4195 24.166 29.4234 24.166C29.4428 24.166 29.4583 24.166 29.4778 24.166C29.5905 24.166 29.7031 24.1699 29.8119 24.1854C29.9674 24.2087 30.0412 24.2243 30.1927 24.2709C30.2161 24.2787 30.2394 24.2864 30.2627 24.2942C30.5192 24.4496 30.7523 24.64 30.9777 24.8382C31.3857 25.2112 31.7471 25.6309 32.0735 26.0739C32.1589 26.1905 32.2405 26.307 32.3222 26.4236C32.361 26.478 32.396 26.5363 32.4348 26.5946V26.5985C32.4387 26.6024 32.4426 26.6101 32.4426 26.614C32.4426 26.6179 32.4465 26.6218 32.4465 26.6218C32.4504 26.6257 32.4504 26.6295 32.4543 26.6334C32.4543 26.6295 32.4504 26.6295 32.4504 26.6257C32.4698 26.6567 32.4892 26.6878 32.5087 26.7189C32.6563 26.9598 32.7962 27.2085 32.9206 27.4611C33.0332 27.6904 33.1343 27.9274 33.2236 28.1683C33.2431 28.2188 33.2586 28.2732 33.278 28.3237C33.2858 28.3432 33.3169 28.4559 33.2897 28.3509C33.2975 28.382 33.3091 28.4131 33.3169 28.4442C33.3519 28.5608 33.3869 28.6812 33.4141 28.7978C33.5306 29.268 33.6278 29.7382 33.6666 30.2239C33.6705 30.255 33.6705 30.2861 33.6744 30.321C33.6744 30.3327 33.6744 30.3482 33.6783 30.3599C33.6783 30.3638 33.6783 30.3638 33.6783 30.3638C33.6783 30.3638 33.6783 30.3677 33.6783 30.3715C33.6822 30.4376 33.6861 30.5076 33.6861 30.5736C33.6899 30.7096 33.6899 30.8456 33.6861 30.9816C33.6861 31.0477 33.6861 31.1176 33.6822 31.1837C33.6822 31.2614 33.6938 31.3352 33.6977 31.4129C33.7016 31.4479 33.7133 31.479 33.721 31.5101C33.7288 31.5373 33.7249 31.5645 33.7249 31.5917C33.7249 31.6266 33.7327 31.6539 33.7405 31.6888C33.7482 31.7277 33.7482 31.7665 33.7482 31.8054C33.7482 31.8598 33.8182 31.8753 33.8376 31.8248C33.8531 31.7899 33.8648 31.7549 33.8842 31.7199C33.9075 31.6849 33.927 31.6577 33.9386 31.615C33.9658 31.5373 34.0125 31.4673 34.0397 31.3896C34.0941 31.2264 34.1213 31.0554 34.1446 30.8845C34.1834 30.5697 34.1951 30.255 34.1873 29.9402C34.1795 29.6061 34.1524 29.2719 34.1018 28.9416C34.0513 28.6074 33.9581 28.281 33.8531 27.9585C33.6239 27.2513 33.2742 26.5985 32.8739 25.9767C32.5475 25.4677 32.1745 25.0014 31.7548 24.574C31.7043 24.4768 31.6577 24.3836 31.6111 24.2864C31.58 24.2243 31.5528 24.1582 31.5295 24.096C31.5295 24.0921 31.5256 24.0921 31.5256 24.0883V24.0844C31.5217 24.0688 31.5178 24.0533 31.5139 24.0377C31.5061 23.9989 31.4984 23.96 31.4945 23.9173C31.4945 23.9017 31.4945 23.8862 31.4945 23.8707C31.4945 23.8551 31.4945 23.8357 31.4984 23.8201C31.5023 23.8124 31.5061 23.8046 31.5061 23.8007C31.5178 23.7696 31.5295 23.7385 31.5411 23.7074C31.5411 23.7074 31.5411 23.7075 31.5411 23.7036C31.5411 23.6997 31.545 23.6997 31.545 23.6958C31.5567 23.6803 31.5644 23.6608 31.5761 23.6453C31.5839 23.6375 31.5877 23.6259 31.5955 23.6181C31.7276 23.6064 31.8597 23.5948 31.9957 23.587C32.2794 23.5753 32.5631 23.5831 32.8428 23.6336C33.0022 23.6686 33.1537 23.7191 33.3014 23.7891C33.4374 23.8629 33.5617 23.9523 33.6783 24.0494C33.7133 24.0844 33.7443 24.1155 33.7793 24.1504C33.8415 24.2243 33.9075 24.302 33.9658 24.3797C34.0435 24.4768 34.1174 24.5779 34.1912 24.6789C34.2223 24.7255 34.2534 24.7721 34.2883 24.8149C34.2922 24.8188 34.2961 24.8227 34.2961 24.8265C34.2961 24.8265 34.2961 24.8266 34.2961 24.8304C34.3156 24.8576 34.3311 24.8887 34.3505 24.9159C34.5953 25.3162 34.8129 25.7397 34.9956 26.171C35.0927 26.3925 35.1782 26.6218 35.252 26.851C35.3297 27.0958 35.3958 27.3406 35.4502 27.5893C35.4385 27.636 35.4502 27.6787 35.4774 27.7176C35.5473 28.0517 35.6017 28.3898 35.6367 28.7317C35.6561 28.8988 35.6678 29.0698 35.6795 29.2408C35.73 30.2122 35.66 31.1837 35.5085 32.1435C35.4696 32.3999 35.4191 32.6603 35.3686 32.9167C35.2753 33.3675 35.1626 33.8105 35.0461 34.2534C34.914 34.7702 34.7818 35.287 34.607 35.7922C34.5098 36.0681 34.401 36.344 34.2689 36.6082C34.1407 36.9035 33.9619 37.1755 33.7482 37.4242Z" fill="#F0EBDF"/>
<path d="M32.6599 38.0109C32.6522 38.007 32.6445 38.007 32.6367 38.0032C32.6445 38.007 32.6522 38.0109 32.6599 38.0109Z" fill="#F0EBDF"/>
<path d="M28.4761 27.243C28.4685 27.2353 28.4609 27.2315 28.4571 27.2239C28.438 27.2125 28.4228 27.2049 28.4761 27.243Z" fill="#F0EBDF"/>
<path d="M32.4572 26.6366L32.4534 26.6327C32.4496 26.6251 32.4419 26.6175 32.4381 26.6099C32.4305 26.5947 32.4229 26.587 32.4572 26.6366Z" fill="#F0EBDF"/>
<path d="M28.1836 24.7605C28.1836 24.7605 28.1836 24.7644 28.1836 24.7605C28.1836 24.7682 28.1797 24.776 28.1797 24.7837C28.1797 24.7837 28.1874 24.776 28.1836 24.7605Z" fill="#F0EBDF"/>
<circle cx="26.9475" cy="29.1633" r="1.18775" fill="#FF0420"/>
<circle cx="25.7634" cy="32.3308" r="0.659859" fill="#FF0420"/>
<circle cx="25.4334" cy="26.8539" r="0.32993" fill="#FF0420"/>
<circle cx="24.2429" cy="30.2851" r="0.461902" fill="#FF0420"/>
<circle cx="23.2538" cy="33.9144" r="0.923803" fill="#FF0420"/>
</svg>
