<svg width="181" height="173" viewBox="0 0 181 173" fill="none" xmlns="http://www.w3.org/2000/svg">
<path d="M26 51V152C26 163.046 34.9543 172 46 172H99.5C110.546 172 119.5 163.058 119.5 152.013C119.5 128.234 119.5 86.627 119.5 45.9993C119.5 34.9536 128.454 26 139.5 26H181" stroke="#F4A6A6" stroke-width="2"/>
<circle opacity="0.3" cx="26.5" cy="26.5" r="25.5" stroke="#FF0420" stroke-width="2"/>
<path d="M20.0015 40.006C20.0015 40.006 19.9976 40.006 20.0015 40.006C20.0015 40.0099 20.0015 40.0099 20.0055 40.0099V40.006C20.0055 40.002 20.0094 39.9981 20.0094 39.9941L20.0055 39.9981C20.0055 40.002 20.0015 40.002 20.0015 40.006C20.0015 40.002 20.0015 40.006 20.0015 40.006Z" fill="white"/>
<path d="M20.002 40.0025C20.002 40.0025 20.0066 40.0025 20.002 40.0025C20.0066 40.0025 20.0066 39.9979 20.002 40.0025C20.0066 39.9979 20.0066 39.9979 20.002 40.0025Z" fill="white"/>
<path d="M19.9983 40.0068C20.0027 40.0068 20.0027 40.0024 20.0027 40.0024L20.0072 39.9979C20.0072 39.9979 20.0027 39.9979 19.9983 40.0068C19.9983 40.0024 19.9983 40.0024 19.9983 40.0068Z" fill="white"/>
<path d="M20.0018 40.0018C20.0018 40.0018 20.0018 40.0065 20.0018 40.0018C19.9971 40.0065 19.9971 40.0065 20.0018 40.0018C19.9971 40.0065 20.0018 40.0065 20.0018 40.0018C20.0018 40.0065 20.0018 40.0018 20.0018 40.0018Z" fill="white"/>
<path d="M19.9941 40.0066C19.9941 40.0066 19.9989 40.0066 19.9989 40.0018C19.9989 40.0066 19.9941 40.0066 19.9941 40.0066Z" fill="white"/>
<path d="M20.0133 39.9868C20.0133 39.9868 20.0086 39.9821 20.0133 39.9868C20.0086 39.9821 20.0086 39.9821 20.0133 39.9868C20.0086 39.9868 20.0086 39.9868 20.0133 39.9868Z" fill="white"/>
<path d="M19.4847 39.6249C19.4537 39.6172 19.4692 39.6211 19.4847 39.6249V39.6249Z" fill="white"/>
<path d="M19.3145 40.0796C19.3183 40.0834 19.3221 40.091 19.3221 40.0948C19.3259 40.1024 19.3335 40.1101 19.3373 40.1139C19.3335 40.1101 19.3335 40.1063 19.3297 40.1025C19.3259 40.0948 19.3221 40.0872 19.3145 40.0796Z" fill="white"/>
<path d="M33.4551 23.3429C33.466 23.3319 33.4697 23.3283 33.4551 23.3429V23.3429Z" fill="white"/>
<path d="M27.924 13.3075L27.9287 13.3027C27.924 13.3075 27.924 13.3075 27.924 13.3075Z" fill="white"/>
<path d="M28.1593 21.7465C28.1552 21.7546 28.1552 21.7587 28.1593 21.7465V21.7465Z" fill="white"/>
<path d="M37.1367 28.0103C37.2067 28.2512 37.2649 28.4921 37.3116 28.7369C37.3893 28.803 37.467 28.8729 37.537 28.9428C37.5642 28.97 37.5914 28.9972 37.6186 29.0283C37.4903 28.7524 37.3621 28.4766 37.23 28.2007C37.1989 28.1385 37.1678 28.0724 37.1367 28.0103Z" fill="#F0EBDF"/>
<path d="M33.2871 23.7126C33.2871 23.7087 33.291 23.701 33.291 23.6932C33.2871 23.6932 33.2871 23.7048 33.2871 23.7126Z" fill="white"/>
<path d="M28.5275 18.6535C28.5275 18.6496 28.5314 18.6496 28.5314 18.6457C28.5393 18.6338 28.5354 18.6338 28.5275 18.6535Z" fill="white"/>
<path d="M19.3105 40.0718C19.315 40.0762 19.315 40.0762 19.3194 40.0806C19.3194 40.0806 19.3194 40.0806 19.3194 40.0762C19.315 40.0762 19.3105 40.0762 19.3105 40.0718Z" fill="white"/>
<path d="M20.0039 39.963C20.0039 39.963 20.0039 39.9667 20.0039 39.963C20.0039 39.9667 20.0039 39.9703 20.0076 39.974C20.0039 39.9703 20.0039 39.963 20.0039 39.963Z" fill="white"/>
<path d="M19.1973 39.8464C19.2009 39.8647 19.2009 39.8574 19.1973 39.8464V39.8464Z" fill="white"/>
<path d="M28.4842 16.6057C28.4842 16.6135 28.4803 16.6135 28.4842 16.6057V16.6057Z" fill="white"/>
<path d="M26.5481 22.1118C26.4354 22.6558 26.2334 23.1765 26.1168 23.7205C26.043 24.1013 25.973 24.4821 25.8603 24.8513C25.8098 25.0184 25.7477 25.1816 25.6738 25.337C25.6855 25.3409 25.701 25.3448 25.7127 25.3486C25.8798 25.3992 26.0469 25.4419 26.2178 25.4769C26.4898 25.5313 26.7657 25.5701 27.0416 25.5624C27.1271 25.5546 27.2165 25.5429 27.302 25.5235C27.3486 25.5118 27.3991 25.5002 27.4457 25.4885C27.4535 25.4885 27.4691 25.4808 27.4807 25.4769C27.4963 25.473 27.5118 25.4652 27.5157 25.4652C27.8771 25.337 28.219 25.1505 28.5765 25.0028C28.6736 24.964 28.7669 24.9212 28.864 24.8824C28.969 24.8357 29.0816 24.8085 29.1943 24.7774C29.1982 24.7774 29.1982 24.7774 29.2021 24.7774C29.2759 24.7425 29.3537 24.7075 29.4314 24.6764C30.0026 24.4238 30.6126 24.2334 31.2227 24.0936C31.518 24.0275 31.8133 23.9653 32.1126 23.9226C32.2291 23.499 32.3496 23.0716 32.4428 22.6442C32.4817 22.4499 32.5128 22.2595 32.5439 22.0652C32.6449 21.3541 32.676 20.6313 32.6371 19.9125C32.6216 19.6793 32.6022 19.4501 32.575 19.2169C32.47 18.3387 32.2758 17.4722 32.0076 16.629C31.9183 16.3531 31.8211 16.0772 31.7162 15.8091C31.4287 15.0591 31.0828 14.3364 30.6515 13.6564C30.364 13.2134 30.0337 12.7898 29.6451 12.4285C29.4586 12.2653 29.2604 12.1215 29.0428 12.0049C28.9068 11.9389 28.763 11.8883 28.6192 11.8534C28.5066 11.8339 28.3939 11.8262 28.2773 11.8262C28.1607 11.8378 28.048 11.8573 27.9353 11.8922C27.8343 11.9272 27.7333 11.9738 27.64 12.0282C27.5507 12.0904 27.4652 12.1642 27.3875 12.2458C27.2787 12.3741 27.1893 12.5101 27.1116 12.6577C26.9911 12.9103 26.9056 13.1745 26.8473 13.4465C26.7191 14.1071 26.7036 14.7794 26.7385 15.4477C26.7735 15.9917 26.8318 16.5357 26.8745 17.0797C26.9639 18.1833 26.9561 19.2868 26.8357 20.3865C26.7618 20.9616 26.6686 21.5367 26.5481 22.1118ZM27.5079 18.0084C27.504 17.9579 27.4963 17.9035 27.5001 17.853C27.5001 17.8297 27.4963 17.8103 27.4963 17.7869C27.4924 17.7053 27.4846 17.6237 27.4768 17.5421C27.4496 17.1885 27.403 16.8388 27.3486 16.493C27.232 15.7935 27.0882 15.0863 27.1349 14.3714C27.1582 14.0177 27.2281 13.6603 27.3641 13.33C27.4341 13.1629 27.5196 13.0036 27.6323 12.8598C27.6905 12.786 27.7605 12.716 27.8304 12.65C27.8654 12.6189 27.9043 12.58 27.9431 12.5606C27.9781 12.545 28.0247 12.5373 28.0636 12.5256C28.0752 12.5217 28.083 12.5217 28.0947 12.5256C28.118 12.514 28.1413 12.5062 28.1685 12.4945C28.3356 12.4362 28.5143 12.4129 28.6892 12.4401C28.7824 12.4557 28.8718 12.4868 28.9456 12.545C29.0039 12.5878 29.0583 12.6538 29.0622 12.7277C29.0622 12.7238 29.0622 12.7238 29.0622 12.7199C29.0622 12.716 29.0622 12.716 29.0622 12.7121C29.0622 12.716 29.0622 12.716 29.0622 12.7199C29.0622 12.7238 29.0661 12.7277 29.0739 12.7316C29.1088 12.7782 29.0661 12.8326 29.0117 12.8209C29.0078 12.8209 29.0078 12.8209 29.0039 12.8209C28.9456 12.8404 28.8874 12.8481 28.8213 12.852C28.8524 12.8481 28.8019 12.8559 28.798 12.8559C28.7863 12.8559 28.7747 12.8598 28.763 12.8598C28.7319 12.8637 28.7047 12.8637 28.6736 12.8598C28.6698 12.8598 28.6581 12.8598 28.6503 12.8598C28.6426 12.8598 28.6231 12.8598 28.6192 12.8637C28.5998 12.8676 28.5843 12.8676 28.5648 12.8714C28.5338 12.8753 28.5066 12.8831 28.4755 12.8909C28.4716 12.8909 28.4716 12.8909 28.4677 12.8909C28.4638 12.8909 28.4638 12.8909 28.4599 12.8948C28.4444 12.8986 28.4327 12.9064 28.4172 12.9103C28.39 12.922 28.3589 12.9336 28.3317 12.9453C28.3045 12.9569 28.2773 12.9725 28.2501 12.988C28.2462 12.9919 28.2384 12.9958 28.2307 13.0036C28.2151 13.0152 28.2035 13.023 28.1918 13.0346C28.1335 13.0813 28.0752 13.1318 28.0247 13.1823C28.0208 13.1862 28.0053 13.2017 28.0014 13.2095C27.9859 13.225 27.9703 13.2406 27.9587 13.26C27.947 13.2717 27.9353 13.2833 27.9237 13.295L27.9198 13.2989C27.8771 13.4193 27.8421 13.5437 27.811 13.6641C27.8071 13.6719 27.8071 13.6836 27.8032 13.6913V13.6952C27.7993 13.7108 27.7993 13.7263 27.7955 13.7419C27.8149 13.7224 27.8343 13.703 27.8537 13.6836C27.8693 13.668 27.8848 13.6486 27.9043 13.6331C27.9276 13.6097 27.9587 13.5981 27.9859 13.5787C27.9936 13.5709 28.0092 13.5553 28.0131 13.5553C28.0364 13.5398 28.0597 13.5281 28.083 13.5126C28.1141 13.4932 28.1413 13.466 28.1685 13.4388C28.2307 13.3766 28.3589 13.4388 28.3434 13.5281C28.3356 13.5709 28.3239 13.6175 28.32 13.6564C28.3162 13.703 28.3084 13.7496 28.2967 13.7963C28.2695 13.8973 28.219 13.9828 28.1685 14.076C28.1257 14.1499 28.0752 14.2198 28.0286 14.2936C28.0053 14.3325 27.982 14.3675 27.9625 14.4063C27.9587 14.4102 27.9587 14.418 27.9548 14.4258C27.9431 14.4607 27.947 14.4452 27.9548 14.4258C27.9548 14.4219 27.9587 14.418 27.9587 14.4141C27.9548 14.4335 27.9392 14.453 27.9353 14.4685C27.9198 14.5074 27.9004 14.5462 27.8887 14.589C27.8848 14.6045 27.8809 14.6162 27.8771 14.6317C27.8809 14.6239 27.8848 14.62 27.8887 14.6123C27.9625 14.519 28.0519 14.4296 28.1413 14.3519C28.184 14.317 28.2346 14.2936 28.2773 14.2625C28.3239 14.2315 28.3744 14.212 28.4172 14.1771C28.4755 14.1343 28.5804 14.1887 28.5454 14.2664C28.5376 14.2781 28.5338 14.2936 28.526 14.3053C28.5104 14.3053 28.5066 14.3169 28.5182 14.3403C28.5182 14.3675 28.5027 14.3908 28.4949 14.4141C28.4755 14.4607 28.4716 14.4996 28.456 14.5423C28.4288 14.6123 28.4133 14.6239 28.3861 14.6861C28.3667 14.7288 28.3472 14.7677 28.3278 14.8104C28.2967 14.8726 28.2618 14.9309 28.2268 14.9931C28.2229 15.0008 28.2112 15.0242 28.2074 15.0319C28.1996 15.0475 28.1918 15.063 28.184 15.0786C28.1452 15.164 28.1102 15.2495 28.0752 15.335C28.0597 15.3816 28.0441 15.4283 28.0286 15.4749C28.0403 15.4594 28.0558 15.4438 28.0675 15.4283C28.1763 15.3078 28.3006 15.2029 28.425 15.0941C28.5338 15.0008 28.7008 15.1485 28.6115 15.2651C28.526 15.3778 28.4677 15.4943 28.4133 15.6265C28.355 15.7625 28.3045 15.9023 28.2579 16.0383C28.2346 16.1044 28.2151 16.1705 28.1957 16.2404C28.2035 16.2326 28.2073 16.2249 28.2151 16.2171C28.32 16.1005 28.4288 15.9956 28.5493 15.8946C28.6348 15.8246 28.7824 15.914 28.7358 16.0228C28.7086 16.0889 28.6814 16.151 28.6542 16.2171C28.6503 16.2326 28.6426 16.2443 28.6348 16.2598C28.6115 16.3026 28.6076 16.3181 28.6154 16.2987C28.6192 16.287 28.6192 16.2909 28.6076 16.3104C28.592 16.3376 28.5804 16.3686 28.5648 16.3958C28.5415 16.4425 28.5221 16.4891 28.4988 16.5318C28.491 16.5474 28.4832 16.559 28.4755 16.5746C28.4716 16.5785 28.4716 16.5824 28.4677 16.5901C28.4366 16.6523 28.4094 16.7106 28.3861 16.7728C28.3356 16.901 28.2851 17.0292 28.254 17.1613V17.1652V17.1691C28.2501 17.1846 28.2501 17.2002 28.2462 17.2157C28.2423 17.2429 28.2346 17.274 28.2307 17.3012C28.2423 17.2896 28.254 17.274 28.2695 17.2624C28.3822 17.1536 28.526 17.0681 28.662 16.9904C28.7669 16.9282 28.8912 17.0758 28.8174 17.173C28.7747 17.2313 28.7319 17.2896 28.6931 17.3517C28.6814 17.3673 28.6736 17.3867 28.662 17.4061C28.6581 17.41 28.6348 17.4567 28.6464 17.4372C28.662 17.4061 28.6231 17.4839 28.6154 17.4955C28.6037 17.5149 28.5959 17.5305 28.5843 17.5499C28.5765 17.5655 28.5687 17.581 28.561 17.5927C28.5493 17.6121 28.5415 17.6315 28.5571 17.6004C28.5338 17.6471 28.5104 17.6937 28.4871 17.7364C28.4832 17.7442 28.4794 17.752 28.4755 17.7559C28.4677 17.7675 28.4638 17.7831 28.456 17.7986C28.4405 17.8297 28.4288 17.8608 28.4172 17.8919C28.3783 17.9812 28.3395 18.0667 28.3084 18.16C28.3472 18.1172 28.3861 18.0784 28.425 18.0434C28.526 17.9579 28.6309 17.888 28.7397 17.8141C28.8368 17.7481 28.9379 17.8491 28.8874 17.9463C28.8291 18.0589 28.7786 18.1716 28.7203 18.2843C28.7125 18.2999 28.7047 18.3154 28.697 18.331C28.6892 18.3426 28.6892 18.3426 28.697 18.3348C28.7047 18.3193 28.7008 18.3271 28.6892 18.3543C28.6736 18.3892 28.6503 18.4164 28.6309 18.4475C28.5998 18.498 28.5687 18.5486 28.5415 18.5991C28.5338 18.6107 28.5299 18.6224 28.5221 18.634C28.5221 18.6379 28.5182 18.6379 28.5182 18.6418C28.5066 18.6651 28.4988 18.6846 28.4871 18.7079C28.4871 18.7079 28.4794 18.7234 28.4716 18.739C28.4677 18.7467 28.456 18.7739 28.456 18.7739C28.4522 18.7856 28.4444 18.7972 28.4405 18.8128C28.4288 18.84 28.4172 18.8672 28.4055 18.8983C28.3939 18.9255 28.3861 18.9566 28.3744 18.9876C28.4288 18.9332 28.4871 18.8788 28.5571 18.8439C28.592 18.8283 28.627 18.8128 28.662 18.8011C28.6775 18.7972 28.6931 18.7895 28.7086 18.7856C28.7125 18.7856 28.7669 18.7778 28.7475 18.7856C28.8019 18.7662 28.8757 18.8128 28.8485 18.8788C28.8446 18.8594 28.8407 18.8633 28.8446 18.8905C28.8446 18.8944 28.8446 18.9022 28.8446 18.906C28.8407 18.9255 28.8368 18.9449 28.8291 18.9643C28.8174 18.9915 28.8096 19.0226 28.798 19.0498C28.7708 19.1236 28.7242 19.1936 28.6775 19.2596C28.5998 19.3801 28.5338 19.5045 28.4638 19.6327C28.456 19.6482 28.4444 19.6638 28.4366 19.6793C28.4366 19.6793 28.425 19.6987 28.4211 19.7104C28.4172 19.7221 28.4094 19.7376 28.4055 19.7415C28.3978 19.757 28.39 19.7765 28.3822 19.792C28.355 19.8542 28.3278 19.9202 28.3006 19.9824C28.2928 20.0018 28.2851 20.0213 28.2773 20.0407C28.3239 20.0057 28.3783 19.9785 28.4366 19.9746C28.4522 19.9669 28.4716 19.9552 28.4871 19.9474C28.5804 19.8969 28.6892 20.0213 28.6231 20.1067C28.6154 20.1184 28.6076 20.1301 28.5959 20.1417C28.5843 20.2233 28.5299 20.2933 28.4871 20.3671C28.4444 20.4409 28.3978 20.5186 28.355 20.5925C28.3511 20.5964 28.3317 20.6352 28.3317 20.6352C28.3239 20.6508 28.3162 20.6624 28.3123 20.678C28.2967 20.7168 28.2812 20.7557 28.2656 20.7945C28.2346 20.8839 28.2112 20.9733 28.1529 21.0393C28.1491 21.051 28.1413 21.0588 28.1374 21.0704C28.1296 21.1209 28.1257 21.1676 28.118 21.2142C28.1646 21.1948 28.2112 21.1831 28.2618 21.1909C28.3162 21.1986 28.3472 21.2375 28.3472 21.2919C28.3472 21.3541 28.3162 21.4046 28.2967 21.459C28.2812 21.4979 28.2656 21.5328 28.2462 21.5678C28.2384 21.5795 28.2307 21.5911 28.2268 21.6067C28.2268 21.6067 28.2268 21.6105 28.2229 21.6144C28.2035 21.6533 28.184 21.6921 28.1646 21.731C28.1646 21.7349 28.1607 21.7388 28.1607 21.7427C28.1529 21.7582 28.1452 21.7737 28.1413 21.7893C28.1141 21.8553 28.0791 21.9136 28.0364 21.9719C28.0131 22.0069 27.9742 22.0302 27.9353 22.0419C27.9237 22.0846 27.9081 22.1312 27.8926 22.174C27.8926 22.1779 27.8887 22.1817 27.8887 22.1856C27.9548 22.2051 28.0014 22.2828 27.9509 22.3527C27.8499 22.5004 27.7488 22.6558 27.6284 22.7879C27.5584 22.9278 27.4846 23.0638 27.4108 23.1998C27.3564 23.297 27.2204 23.3164 27.131 23.2698C27.03 23.2192 26.995 23.1104 27.0222 23.0055C27.0727 22.8074 27.131 22.6092 27.1815 22.411C27.2359 22.2128 27.2981 22.0185 27.3486 21.8165C27.3603 21.766 27.3719 21.7155 27.3836 21.6649C27.3875 21.6533 27.3875 21.6416 27.3913 21.63C27.3952 21.6067 27.3991 21.5833 27.403 21.5639C27.4185 21.4668 27.4341 21.3696 27.4419 21.2764C27.4652 21.0743 27.4768 20.8722 27.4807 20.6702C27.504 19.9591 27.5312 19.248 27.5196 18.5369C27.5196 18.362 27.5157 18.1872 27.5079 18.0084Z" fill="#F0EBDF"/>
<path d="M22.1218 23.7982C22.118 23.7982 22.1142 23.7982 22.1104 23.7982C22.0571 23.802 22.1142 23.802 22.1218 23.7982Z" fill="white"/>
<path d="M33.574 38.9681C33.5663 38.9604 33.5624 38.9527 33.5547 38.9449C33.5624 38.9604 33.5702 38.9681 33.574 38.9681Z" fill="white"/>
<path d="M33.5117 38.8515C33.5194 38.8782 33.5194 38.882 33.5194 38.8744C33.5156 38.8629 33.5117 38.8515 33.5079 38.8439C33.5117 38.8477 33.5117 38.8515 33.5117 38.8515Z" fill="white"/>
<path d="M33.6579 39.0108C33.6503 39.0069 33.6427 39.0069 33.6351 39.0031C33.5855 38.9879 33.6236 39.0069 33.6579 39.0108Z" fill="white"/>
<path d="M24.3965 27.1904C24.4158 27.1943 24.4313 27.1943 24.3965 27.1904V27.1904Z" fill="white"/>
<path d="M33.023 36.3414C33.058 35.8013 33.058 35.2612 33.0308 34.7172C33.0152 34.484 32.9958 34.2509 32.9725 34.0216C32.8754 33.1745 32.7005 32.3391 32.444 31.5308C32.3896 31.3637 32.3314 31.1928 32.2692 31.0296C32.0127 30.3418 31.6902 29.6773 31.3016 29.0556C30.9402 28.4999 30.5167 27.9948 30.0271 27.5479C29.7279 27.2837 29.4015 27.0505 29.0479 26.864C29.0168 26.8485 28.9896 26.8368 28.9585 26.8213C28.9624 26.8213 28.9624 26.8252 28.9663 26.8252C28.807 26.7474 28.6438 26.6775 28.4767 26.6231C28.399 26.5998 28.3212 26.5765 28.2435 26.557C28.2008 26.5454 28.1541 26.5337 28.1114 26.5221C28.0997 26.5182 28.0842 26.5143 28.0725 26.5143C28.0687 26.5143 28.0648 26.5143 28.0609 26.5104C28.0026 26.4988 27.9404 26.4949 27.8821 26.4754C27.886 26.4754 27.8938 26.4793 27.8977 26.4793C27.921 26.4871 27.9482 26.4949 27.8977 26.4793C27.8899 26.4754 27.8821 26.4754 27.8744 26.4754C27.8511 26.4716 27.8277 26.4677 27.8083 26.4677C27.7306 26.4599 27.6529 26.456 27.5713 26.4599C27.5519 26.4599 27.5285 26.4599 27.5091 26.4599C27.5013 26.4599 27.4936 26.4599 27.4819 26.4638C27.4508 26.4677 27.4159 26.4677 27.3848 26.4716C27.5985 26.5143 27.8161 26.5881 28.0181 26.6581C28.2746 26.7474 28.5233 26.864 28.7642 26.9884C29.2188 27.2215 29.6424 27.5168 30.0271 27.8588C30.812 28.5621 31.3949 29.4481 31.7563 30.435C32.106 31.3832 32.2847 32.3779 32.4013 33.3805C32.5256 34.4413 32.6034 35.506 32.7471 36.5629C32.7899 36.8854 32.8326 37.2079 32.8948 37.5305C32.9103 37.4139 32.9259 37.3012 32.9414 37.1846C32.9764 36.9049 33.0075 36.6251 33.023 36.3414Z" fill="#F0EBDF"/>
<path d="M30.3856 30.9246C30.3856 30.9207 30.3895 30.9207 30.3895 30.9169C30.3973 30.8974 30.4089 30.878 30.4167 30.8586C30.4556 30.7731 30.4983 30.6876 30.5294 30.5982C30.5449 30.5516 30.5605 30.5089 30.576 30.4622C30.5799 30.4467 30.5838 30.4272 30.5877 30.4117C30.5877 30.4078 30.5916 30.4 30.5916 30.3923C30.5916 30.3923 30.5993 30.3534 30.5993 30.3418C30.6032 30.3223 30.6032 30.3068 30.6071 30.2874C30.611 30.2485 30.6149 30.2096 30.6188 30.1708C30.6226 30.128 30.6188 30.0892 30.6188 30.0464C30.6188 30.027 30.6188 30.0115 30.6188 29.992C30.6188 29.9843 30.6149 29.9493 30.6188 29.9532C30.6188 29.9415 30.6149 29.9299 30.6149 29.926C30.611 29.9066 30.611 29.8832 30.6071 29.8638C30.6032 29.8288 30.5954 29.7939 30.5877 29.7628C30.5838 29.7434 30.576 29.72 30.5721 29.7006C30.5682 29.6967 30.5682 29.689 30.5644 29.6851C30.5488 29.6384 30.5294 29.5957 30.5138 29.5491C30.5255 29.584 30.5061 29.5335 30.5022 29.5257C30.4944 29.5102 30.4905 29.4947 30.4866 29.4752C30.475 29.4403 30.4594 29.4092 30.4439 29.3742C30.44 29.3664 30.44 29.3625 30.4361 29.3548C30.4284 29.3431 30.4206 29.3276 30.4089 29.3159C30.339 29.211 30.2613 29.1061 30.1835 29.0089C30.0281 28.8069 29.8571 28.6165 29.6784 28.4377C29.6318 28.3911 29.589 28.3484 29.5424 28.3056C29.523 28.2862 29.4997 28.2668 29.4802 28.2473C29.4297 28.2124 29.4414 28.2162 29.4608 28.2279C29.4569 28.224 29.4569 28.224 29.453 28.2201C29.3559 28.1346 29.2587 28.053 29.1577 27.9753C28.9595 27.8199 28.7497 27.6722 28.5321 27.5401C28.4194 27.4702 28.3067 27.408 28.194 27.3458C28.1785 27.3381 28.1629 27.3303 28.1474 27.3225C28.1474 27.3225 28.1396 27.3186 28.1319 27.3147C28.1241 27.3109 28.1163 27.307 28.1124 27.3031C28.0969 27.2953 28.0813 27.2876 28.0658 27.2798C28.0114 27.2526 27.957 27.2293 27.9026 27.2021C27.6733 27.0971 27.4363 26.9961 27.1954 26.9223C27.1798 26.9184 27.071 26.8757 27.1177 26.8912C27.1526 26.9029 27.0866 26.8834 27.0866 26.8834C27.0594 26.8718 27.0322 26.864 27.0089 26.8523C26.9506 26.829 26.8884 26.8096 26.8301 26.7902C26.799 26.7785 26.7602 26.7707 26.7291 26.7591C26.6941 26.7474 26.6669 26.7241 26.6358 26.7047C26.5892 26.6814 26.5387 26.6736 26.4843 26.6619C26.4532 26.6542 26.4221 26.6425 26.4027 26.6192C26.1035 26.6231 25.8121 26.5764 25.5167 26.5065C25.1826 26.4288 24.8523 26.3083 24.5336 26.1879C24.522 26.184 24.5064 26.1762 24.4948 26.1723C24.0829 26.1296 23.6671 26.0946 23.2552 26.0674C22.6724 26.0286 22.0856 26.0247 21.5027 26.0558C21.2696 26.0713 21.0326 26.0907 20.7994 26.114C19.9834 26.2034 19.1752 26.3744 18.3902 26.6231C18.2115 26.6814 18.0327 26.7435 17.8579 26.8135C17.3799 26.9961 16.9136 27.2137 16.4629 27.4624C16.8165 27.3419 17.174 27.2293 17.5315 27.1282C18.3786 26.8873 19.2334 26.6891 20.0961 26.5143C20.9626 26.3394 21.8525 26.2034 22.7384 26.219C23.1814 26.2267 23.6399 26.2617 24.0635 26.3977C24.2849 26.4676 24.4948 26.5531 24.7007 26.6619C24.7474 26.6853 24.794 26.7086 24.8328 26.7474C24.8406 26.7552 24.8523 26.763 24.86 26.7707C24.8795 26.7863 24.8989 26.8057 24.9183 26.8213C24.9144 26.8174 24.9106 26.8135 24.9067 26.8096C24.8911 26.7941 24.8911 26.7941 24.9106 26.8096C24.9144 26.8096 24.9144 26.8135 24.9183 26.8135C24.93 26.8213 24.9378 26.829 24.9494 26.8329C25.0349 26.8912 25.1204 26.9534 25.2059 27.0117C25.373 27.1282 25.237 27.408 25.0427 27.3342C24.93 27.2914 24.8173 27.2681 24.7007 27.237C24.5997 27.237 24.4987 27.2137 24.3976 27.1904C24.3899 27.1904 24.3821 27.1865 24.3743 27.1865C24.3471 27.1826 24.316 27.1749 24.2888 27.171C24.3238 27.1787 24.3471 27.1826 24.2733 27.1671C24.2772 27.1671 24.2811 27.1671 24.2888 27.171C24.2849 27.171 24.2811 27.171 24.2772 27.1671C24.2733 27.1671 24.2694 27.1671 24.2655 27.1632C24.2539 27.1593 24.2422 27.1593 24.2305 27.1554C24.2189 27.1515 24.2033 27.1515 24.1917 27.1477C24.1917 27.1477 24.1917 27.1477 24.1956 27.1477C24.1878 27.1477 24.1839 27.1438 24.1761 27.1438C24.1723 27.1438 24.1684 27.1438 24.1684 27.1438C24.0246 27.1166 23.8769 27.1049 23.7293 27.0855C23.7254 27.1127 23.7215 27.136 23.7099 27.1632C23.5544 27.6062 23.3951 28.0492 23.2047 28.4805C22.8589 29.2693 22.4819 30.0464 22.0778 30.8081C21.697 31.523 21.2774 32.2186 20.9082 32.9413C20.7994 33.1589 20.6984 33.3766 20.6012 33.6019C20.5196 33.8001 20.4419 33.9983 20.3836 34.2081C20.3759 34.2353 20.3681 34.2625 20.3642 34.2897C20.2865 34.7094 20.2865 35.1407 20.3059 35.5681C20.3176 35.7391 20.3292 35.9101 20.3448 36.081C20.3759 36.4347 20.4031 36.7844 20.4147 37.138C20.4186 37.2973 20.4225 37.4527 20.4069 37.6081C20.4031 37.6626 20.3914 37.7208 20.3797 37.7752C20.3797 37.8374 20.3759 37.8957 20.372 37.9501C20.3642 38.0667 20.3525 38.191 20.3098 38.3037C20.236 38.4902 20.1272 38.6729 20.0145 38.8399C19.964 38.9138 19.9135 38.9837 19.8591 39.0537C19.964 39.0731 20.0689 39.1003 20.1699 39.1353C20.5702 39.2674 20.9626 39.4811 21.2502 39.792C21.254 39.7958 21.2579 39.7997 21.2579 39.8036C21.3939 39.6521 21.5416 39.5083 21.6815 39.3606C21.7359 39.3024 21.7942 39.2441 21.8486 39.1897C21.7942 39.1819 21.7359 39.1702 21.6815 39.1625C21.5571 39.1391 21.4678 39.0692 21.4367 38.9449C21.4095 38.8244 21.4872 38.7117 21.5843 38.6534C21.6815 38.5951 21.7786 38.5369 21.8758 38.4786C21.9846 38.4164 22.1128 38.3892 22.2333 38.3503C22.3498 38.3115 22.4625 38.2687 22.5791 38.2338C22.5441 38.2454 22.5092 38.2571 22.4742 38.2687C23.1425 38.0511 23.772 37.7364 24.3627 37.3634C24.7551 37.1069 25.1282 36.8271 25.4895 36.5318C25.5012 36.5201 25.5167 36.5124 25.5284 36.5007C25.5595 36.4774 25.5906 36.4502 25.6178 36.423C26.1851 35.9412 26.7019 35.3971 27.2032 34.8493C27.4829 34.5384 27.7549 34.2237 28.0269 33.905C28.536 33.3066 29.0334 32.6965 29.5191 32.0787C29.7794 31.7484 30.0398 31.4181 30.2924 31.0839C30.2962 31.0762 30.3001 31.0684 30.304 31.0645C30.3351 31.014 30.3584 30.9713 30.3856 30.9246ZM22.3731 35.607C22.3226 35.5526 22.2721 35.5021 22.2177 35.4515C22.1672 35.3971 22.1206 35.3272 22.0817 35.265C22.0118 35.1446 21.9574 35.0047 21.9107 34.8726C21.8913 34.8221 21.8758 34.7677 21.8602 34.7171C21.8447 34.7366 21.8253 34.7521 21.8097 34.7715C21.7514 34.8337 21.6815 34.9309 21.6232 35.0125C21.6154 35.0202 21.6115 35.0319 21.6038 35.0397C21.5766 35.2495 21.5649 35.4632 21.5688 35.6769C21.5688 35.6964 21.5688 35.7158 21.5688 35.7352C21.5688 35.7391 21.5688 35.743 21.5688 35.7469C21.5727 35.7818 21.5727 35.8168 21.5766 35.8557C21.5843 35.9373 21.596 36.0189 21.6115 36.0966C21.6426 36.2637 21.6659 36.4308 21.6854 36.5978C21.7009 36.7261 21.6465 36.8427 21.5299 36.9048C21.4289 36.9592 21.2618 36.9281 21.1958 36.831C21.1258 36.73 21.0636 36.6289 21.0209 36.5124C20.9782 36.3919 20.9432 36.2715 20.9199 36.1471C20.8771 35.9256 20.8616 35.7002 20.8577 35.4749C20.8499 35.0785 20.9121 34.6861 21.0015 34.3014C21.0908 33.9167 21.223 33.5436 21.3862 33.1823C21.7553 32.3507 22.2333 31.5774 22.6452 30.7692C22.7306 30.5982 22.8161 30.4234 22.9055 30.2563C22.9288 30.2135 22.9482 30.1747 22.9677 30.1319C22.9677 30.128 22.9754 30.1164 22.9793 30.1047C22.9832 30.0931 22.9988 30.062 23.0026 30.0581C23.0454 29.9726 23.0842 29.891 23.127 29.8055C23.2125 29.619 23.2863 29.4247 23.3796 29.246C23.3834 29.2382 23.4029 29.2032 23.399 29.2071C23.4068 29.1916 23.4145 29.1721 23.4262 29.1566C23.4534 29.1061 23.4728 29.0517 23.5078 29.0051C23.5272 28.9779 23.5428 28.9507 23.5583 28.9235C23.6011 28.7525 23.6749 28.5932 23.7565 28.4377C23.7837 28.3833 23.8148 28.3289 23.8459 28.2745C23.8575 28.2201 23.8731 28.1657 23.8925 28.1152C23.9313 28.0064 23.9896 27.8976 24.0479 27.8005C24.114 27.6917 24.1917 27.6217 24.3005 27.5634C24.3588 27.5323 24.4287 27.5751 24.4404 27.6373C24.4637 27.75 24.4559 27.8626 24.4326 27.9714C24.421 28.0181 24.4093 28.0686 24.3976 28.1152C24.3899 28.1424 24.386 28.1696 24.3782 28.1968C24.3743 28.2162 24.3743 28.2201 24.3743 28.2124C24.3704 28.224 24.3704 28.2357 24.3665 28.2473C24.3549 28.2978 24.3432 28.3484 24.3316 28.3989C24.3316 28.4066 24.3238 28.43 24.3238 28.4377C24.3199 28.4649 24.316 28.4921 24.3121 28.5193C24.3083 28.566 24.3044 28.6165 24.3044 28.6631C24.3044 28.6903 24.3044 28.7136 24.3044 28.7408C24.3044 28.7486 24.3044 28.7564 24.3044 28.7641C24.316 28.8574 24.3277 28.9468 24.351 29.0361C24.3588 29.075 24.3704 29.1139 24.3821 29.1527C24.386 29.1605 24.4015 29.211 24.4093 29.2304C24.4015 29.1993 24.421 29.2693 24.4248 29.2771C24.4909 29.4675 24.5803 29.6423 24.5686 29.8483C24.5647 29.9338 24.4715 29.9648 24.4054 29.926C24.215 29.8172 24.1101 29.619 24.0168 29.4286C24.0052 29.4053 23.9935 29.3859 23.9857 29.3625C23.9857 29.3703 23.9857 29.3781 23.9857 29.382V29.3859C23.9974 29.4714 24.0052 29.5568 24.0207 29.6423C24.0557 29.8172 24.0945 29.992 24.1334 30.1669C24.1761 30.3651 24.2305 30.5671 24.1684 30.7653C24.1528 30.8197 24.0712 30.8508 24.0285 30.8119C23.9391 30.7303 23.8614 30.6215 23.8187 30.505C23.7798 30.3962 23.7448 30.2874 23.706 30.1786C23.6943 30.1475 23.6827 30.1125 23.671 30.0814C23.6671 30.1125 23.6632 30.1436 23.6555 30.1747C23.6438 30.2252 23.6244 30.2796 23.6049 30.3301V30.334C23.6011 30.3845 23.6011 30.435 23.6049 30.4855C23.6049 30.5089 23.6049 30.5322 23.6088 30.5555C23.6088 30.5632 23.6088 30.571 23.6088 30.5788C23.6088 30.5827 23.6088 30.5827 23.6088 30.5866C23.6244 30.7809 23.6555 30.9751 23.6943 31.1655C23.7371 31.3676 23.7798 31.5697 23.8187 31.7756C23.842 31.8883 23.8614 31.9971 23.8536 32.1176C23.8497 32.172 23.842 32.2264 23.8225 32.2769C23.8187 32.2885 23.8031 32.3196 23.7992 32.3274C23.7992 32.3235 23.807 32.3313 23.807 32.3391C23.807 32.3624 23.8031 32.3896 23.8031 32.4129C23.7992 32.5217 23.6555 32.51 23.6321 32.4206C23.6244 32.3934 23.6166 32.3624 23.6011 32.3391C23.5894 32.3196 23.57 32.3041 23.5544 32.2846C23.5156 32.2341 23.4884 32.1642 23.4651 32.1059C23.4223 31.9893 23.399 31.8611 23.3679 31.7406C23.364 31.7329 23.364 31.7251 23.3601 31.7173C23.3524 31.7251 23.3446 31.729 23.3368 31.7368C23.2902 31.7756 23.2552 31.8222 23.2164 31.8805C23.2086 31.8922 23.2008 31.9038 23.193 31.9155C23.193 31.9233 23.1892 31.931 23.1892 31.9427C23.1853 31.9738 23.1775 32.0049 23.1697 32.036C23.162 32.0748 23.1464 32.1098 23.1309 32.1486C23.1309 32.1875 23.127 32.2302 23.127 32.2691C23.127 32.3313 23.127 32.3896 23.1309 32.4517C23.1309 32.4556 23.1309 32.4595 23.1309 32.4634C23.1309 32.4712 23.1309 32.4789 23.1309 32.4867C23.1348 32.5295 23.1348 32.5722 23.1348 32.6149C23.1348 32.646 23.1348 32.6771 23.1386 32.7082C23.1386 32.7237 23.1425 32.7432 23.1425 32.7509C23.1464 32.8053 23.1542 32.8597 23.1581 32.9141C23.1736 33.0307 23.1853 33.1434 23.1969 33.26C23.2086 33.3843 23.2164 33.4854 23.2436 33.6019C23.2591 33.668 23.2125 33.734 23.1542 33.7535C23.0881 33.7768 23.026 33.7418 22.991 33.6835C22.921 33.5669 22.855 33.462 22.7928 33.3338C22.7306 33.1978 22.6879 33.0579 22.6529 32.9141C22.6452 32.8792 22.6374 32.8481 22.6296 32.8131C22.6257 32.8248 22.618 32.8364 22.6141 32.8481C22.6141 32.8481 22.583 32.918 22.5713 32.9336C22.5713 32.9375 22.5674 32.9413 22.5674 32.9413C22.5519 32.9724 22.5402 33.0074 22.5247 33.0424C22.4975 33.1084 22.4664 33.1706 22.4431 33.2367C22.3965 33.3727 22.3731 33.5126 22.3304 33.6486C22.3265 33.6641 22.3187 33.6835 22.3149 33.6991C22.311 33.7068 22.3071 33.7612 22.311 33.7146C22.3071 33.7496 22.3032 33.7884 22.2954 33.8234C22.2915 33.8467 22.2877 33.87 22.2877 33.8934C22.2877 33.9827 22.2877 34.0721 22.2915 34.1576C22.2915 34.1615 22.2915 34.1654 22.2915 34.1731C22.2915 34.2042 22.2954 34.2314 22.2954 34.2625C22.2954 34.2936 22.2954 34.3208 22.2993 34.3519C22.2877 34.2742 22.3032 34.3713 22.3032 34.3907C22.3071 34.4218 22.3071 34.449 22.311 34.4801C22.3226 34.6044 22.3459 34.7288 22.3693 34.8531C22.3926 34.9697 22.4276 35.0824 22.4509 35.199C22.4742 35.3194 22.482 35.4399 22.5092 35.5604C22.5325 35.6225 22.4237 35.6614 22.3731 35.607Z" fill="#F0EBDF"/>
<path d="M33.6759 39.0187C33.672 39.0187 33.6641 39.0148 33.6602 39.0148C33.6641 39.0148 33.668 39.0148 33.6759 39.0187Z" fill="white"/>
<path d="M33.728 22.1856C33.728 22.1895 33.728 22.1895 33.728 22.1934C33.7319 22.2128 33.7319 22.2323 33.7357 22.2478C33.7396 22.2789 33.7474 22.31 33.7552 22.3372C33.7591 22.3566 33.7668 22.3722 33.7707 22.3916C33.7591 22.3411 33.7746 22.3993 33.7785 22.4071C33.7901 22.4382 33.8057 22.4693 33.8173 22.5004C33.8679 22.5043 33.9223 22.5082 33.9728 22.512C34.6489 22.5742 35.325 22.7996 35.8651 23.2154C36.1682 23.4485 36.4402 23.7322 36.6578 24.0469C36.7705 24.2062 36.8482 24.3889 36.9415 24.556C36.9881 24.6414 37.0386 24.723 37.0775 24.8124C37.1008 24.8629 37.1202 24.9057 37.1241 24.9601C37.128 25.0028 37.1436 25.03 37.1591 25.0689C37.2174 25.1971 37.0464 25.3059 36.9532 25.201C36.9376 25.1855 36.9221 25.1582 36.9065 25.1466C36.891 25.1349 36.8677 25.1272 36.8521 25.1155C36.8016 25.0844 36.7628 25.0339 36.7239 24.9873C36.6617 24.9134 36.6034 24.8357 36.5413 24.758C36.4169 24.6065 36.2731 24.4744 36.1449 24.3267C36.0322 24.1946 35.9157 24.0702 35.7913 23.9537C35.768 23.9342 35.7486 23.9148 35.7253 23.8915L35.7214 23.8876C35.6864 23.8604 35.6553 23.8293 35.6203 23.8021C35.5582 23.7516 35.496 23.705 35.4299 23.6583C35.3639 23.6156 35.2978 23.5728 35.2279 23.534C35.1929 23.5146 35.1579 23.4951 35.123 23.4757C35.1113 23.4718 35.1035 23.4641 35.0919 23.4602C34.9481 23.3941 34.8043 23.3358 34.6528 23.2892C34.579 23.2659 34.5012 23.2464 34.4235 23.227C34.4041 23.2231 34.3847 23.2192 34.3652 23.2154C34.3652 23.2154 34.3652 23.2154 34.3613 23.2154C34.3303 23.2115 34.2992 23.2037 34.272 23.1998C34.1165 23.1726 33.9572 23.1571 33.7979 23.1493C33.7668 23.1493 33.7357 23.1454 33.7047 23.1454C33.6813 23.161 33.658 23.1726 33.6347 23.1882C33.6308 23.1882 33.6308 23.192 33.6269 23.192L33.6231 23.1959C33.6114 23.2037 33.5997 23.2154 33.5881 23.2231C33.5648 23.2426 33.5415 23.262 33.5181 23.2814C33.4948 23.3008 33.4754 23.3203 33.4521 23.3436C33.4443 23.3553 33.4326 23.3669 33.4249 23.3786C33.4054 23.4058 33.3899 23.433 33.3705 23.4602L33.3666 23.4641C33.3588 23.4796 33.3549 23.4913 33.3472 23.5068C33.3238 23.5651 33.3083 23.6234 33.2928 23.6817C33.2889 23.6894 33.2889 23.7011 33.285 23.7089C33.285 23.7127 33.285 23.7127 33.285 23.7166C33.285 23.7244 33.285 23.7283 33.285 23.7322C33.2811 23.7594 33.2811 23.7866 33.2772 23.8177C33.8795 23.8177 34.4857 23.9459 34.9792 24.3034C35.0919 24.385 35.1968 24.4743 35.2939 24.5715C35.395 24.6142 35.496 24.6725 35.5854 24.7308C35.8418 24.8979 36.0633 25.1194 36.2693 25.3409C36.619 25.7256 36.9182 26.1491 37.198 26.5882C37.4661 27.0079 37.707 27.447 37.9324 27.8899C38.1577 28.3368 38.3753 28.7876 38.593 29.2383C38.7018 29.4637 38.8106 29.6891 38.9194 29.9144C39.0243 30.1243 39.1292 30.338 39.2535 30.54C39.3157 30.6333 39.3857 30.7227 39.4634 30.8082C39.4362 30.6955 39.4012 30.5828 39.374 30.474C39.3274 30.3108 39.2846 30.1515 39.238 29.9883C39.2224 29.9766 39.2108 29.9649 39.1991 29.9494C39.1603 29.9028 39.1331 29.8406 39.1059 29.7823C39.0709 29.7007 39.0398 29.6191 39.0087 29.5375C38.9388 29.3549 38.8766 29.1567 38.8378 28.9663C38.5813 27.7578 38.5463 26.5066 38.1733 25.3214C38.0062 24.8163 37.7808 24.3306 37.4972 23.8798C37.2485 23.5029 36.9609 23.1571 36.6306 22.8501C36.3353 22.5898 36.0167 22.3683 35.667 22.1856C35.3017 22.0069 34.9054 21.8709 34.509 21.7854C34.3536 21.7543 34.1904 21.731 34.0311 21.7155C33.9961 21.7349 33.9689 21.7543 33.9223 21.7971C33.8912 21.8243 33.864 21.8515 33.8368 21.8825C33.8484 21.8709 33.8212 21.8981 33.8173 21.902C33.8018 21.9175 33.7901 21.9369 33.7785 21.9525C33.7629 21.9719 33.7474 21.9913 33.7319 22.0108C33.7241 22.0691 33.7202 22.1235 33.7202 22.1817C33.728 22.1817 33.728 22.1817 33.728 22.1856Z" fill="#F0EBDF"/>
<path d="M22.1791 25.166C22.5987 25.166 23.0184 25.1816 23.438 25.2126C23.7256 25.236 24.0131 25.2632 24.2968 25.3098C24.3279 25.2942 24.3629 25.2787 24.3939 25.2632C24.4872 25.2204 24.5805 25.1699 24.6698 25.1194C24.6931 25.1077 24.7126 25.0922 24.7359 25.0805C24.7359 25.0805 24.7709 25.0572 24.7786 25.0533C24.7864 25.0456 24.7942 25.0417 24.8058 25.0339C24.9107 24.8124 24.9885 24.5793 25.0506 24.3422C25.039 24.3345 25.0273 24.3306 25.0157 24.3228C24.7903 24.2101 24.5571 24.1169 24.3201 24.043C24.1958 24.0042 24.0675 23.9692 23.9393 23.942C23.8771 23.9265 23.815 23.9148 23.7567 23.8993C23.745 23.8954 23.7334 23.8954 23.7217 23.8915C23.6867 23.8837 23.6518 23.8798 23.6207 23.8721C23.1583 23.7943 22.6881 23.771 22.2179 23.7905C22.1907 23.7905 22.1596 23.7943 22.1324 23.7943C22.1285 23.7982 22.0975 23.7943 22.0897 23.7982C22.0275 23.8021 21.9692 23.806 21.907 23.8138C21.7905 23.8254 21.6739 23.8371 21.5534 23.8526C21.3125 23.8837 21.0716 23.9226 20.8346 23.9692C20.3605 24.0625 19.8942 24.1829 19.4279 24.3111C19.3191 24.3422 19.2103 24.3694 19.1015 24.4044C19.0393 24.4238 19.0044 24.4355 18.9267 24.4588C18.95 24.451 18.915 24.4627 18.915 24.4627C18.9033 24.4666 18.8878 24.4705 18.8761 24.4743C18.8489 24.4821 18.8256 24.4938 18.7984 24.5016C18.6935 24.5443 18.5886 24.5909 18.4876 24.6453C18.4371 24.6725 18.3865 24.7036 18.3321 24.7308C18.2855 24.7541 18.2428 24.7774 18.2 24.8008C18.1534 24.828 18.099 24.7736 18.1184 24.7269C18.1456 24.6609 18.1767 24.5948 18.2156 24.5326C18.2583 24.4705 18.3205 24.4122 18.3788 24.3656C18.4953 24.2645 18.6275 24.1868 18.7635 24.113C19.0238 23.9731 19.3152 23.8837 19.5989 23.7905C20.6636 23.4407 21.7672 23.161 22.8979 23.1687C23.4536 23.1726 24.0092 23.2464 24.5377 23.4097C24.7631 23.4796 24.9846 23.5651 25.1983 23.67C25.2255 23.5457 25.2488 23.4213 25.2799 23.3008C25.2605 23.262 25.2372 23.2231 25.2138 23.1843C25.2138 23.1804 25.21 23.1804 25.21 23.1765C25.21 23.1765 25.21 23.1726 25.2061 23.1687C25.2022 23.161 25.1944 23.1532 25.1905 23.1454C25.175 23.1221 25.1594 23.1027 25.1439 23.0794C25.1167 23.0405 25.0895 23.0055 25.0584 22.9706C24.9962 22.8928 24.9302 22.8229 24.8563 22.753C24.8486 22.7452 24.8408 22.7374 24.833 22.7296C24.8253 22.7258 24.8175 22.7219 24.8097 22.718C24.7903 22.7063 24.7709 22.6986 24.7514 22.6869C24.7475 22.6869 24.7437 22.683 24.7359 22.6791C24.7242 22.6752 24.7126 22.6675 24.7009 22.6636C24.6659 22.648 24.631 22.6286 24.596 22.6131C24.5377 22.5859 24.4794 22.5548 24.4211 22.5276C24.1608 22.3994 23.8927 22.2789 23.6207 22.174C23.6168 22.174 23.6168 22.1701 23.6129 22.1701C22.9445 22.0613 22.2684 22.0069 21.5884 22.038C21.0017 22.0768 20.4227 22.1856 19.8592 22.3605C19.1948 22.582 18.5614 22.889 17.9708 23.2659C17.7881 23.3825 17.6133 23.5068 17.4384 23.635C16.7817 24.1246 16.1872 24.6881 15.6354 25.2904C15.4411 25.5041 15.2546 25.7256 15.072 25.9509C14.7339 26.3706 14.4114 26.8019 14.1044 27.2488C13.7664 27.7384 13.4438 28.2358 13.1641 28.7604C13.778 28.2669 14.3725 27.7501 15.0176 27.2993C15.7054 26.8175 16.4437 26.4095 17.2208 26.0947C17.9941 25.78 18.8023 25.5468 19.6222 25.3953C20.4693 25.2399 21.3242 25.1699 22.1791 25.166ZM16.9643 25.2282C16.9138 25.2437 16.8827 25.2748 16.8439 25.3098C16.8011 25.3486 16.7506 25.3836 16.7079 25.4225C16.6107 25.5157 16.5097 25.6051 16.4087 25.6945C16.296 25.7955 16.1794 25.8888 16.059 25.982C15.9968 26.0287 15.9268 26.0753 15.8569 26.118C15.7947 26.153 15.7326 26.1996 15.6665 26.2229C15.6004 26.2463 15.4994 26.188 15.5383 26.1064C15.5732 26.0325 15.6276 25.9704 15.6743 25.9043C15.7287 25.8344 15.7908 25.7683 15.8491 25.7023C15.9618 25.5857 16.0745 25.4769 16.195 25.372C16.3077 25.2748 16.4165 25.1738 16.5408 25.0922C16.6069 25.0494 16.6729 25.0184 16.7506 25.0067C16.8128 24.9989 16.8827 24.995 16.9449 24.9989C17.0032 25.0028 17.0498 25.0533 17.0537 25.1077C17.0615 25.166 17.0187 25.2127 16.9643 25.2282Z" fill="#F0EBDF"/>
<path d="M36.0659 35.2652C36.1786 34.8222 36.2913 34.3753 36.3884 33.9285C36.4389 33.672 36.4856 33.4155 36.5283 33.1552C36.6799 32.1954 36.7498 31.224 36.6993 30.2525C36.6876 30.0816 36.676 29.9145 36.6565 29.7435C36.6216 29.4015 36.5672 29.0635 36.4972 28.7293C36.47 28.6904 36.4584 28.6477 36.47 28.6011C36.4156 28.3524 36.3496 28.1037 36.2719 27.8628C36.1941 27.6335 36.1087 27.4043 36.0154 27.1828C35.8289 26.7515 35.6152 26.3279 35.3704 25.9277C35.3509 25.9005 35.3354 25.8694 35.316 25.8422C35.316 25.8422 35.316 25.8422 35.316 25.8383C35.316 25.8344 35.3121 25.8305 35.3082 25.8266C35.2771 25.78 35.246 25.7334 35.211 25.6906C35.1372 25.5896 35.0634 25.4886 34.9857 25.3914C34.9235 25.3137 34.8613 25.236 34.7991 25.1622C34.7681 25.1272 34.7331 25.0922 34.6981 25.0611C34.5815 24.9601 34.4572 24.8746 34.3212 24.8008C34.1735 24.7309 34.0181 24.6803 33.8627 24.6454C33.5829 24.5948 33.2992 24.5871 33.0156 24.5987C32.8835 24.6065 32.7475 24.6182 32.6153 24.6298C32.6076 24.6376 32.6037 24.6493 32.5959 24.657C32.5843 24.6726 32.5765 24.692 32.5648 24.7075C32.5648 24.7114 32.5609 24.7114 32.5609 24.7153C32.5609 24.7153 32.5609 24.7153 32.5609 24.7192C32.5493 24.7503 32.5337 24.7814 32.526 24.8125C32.526 24.8163 32.5221 24.8241 32.5182 24.8319C32.5143 24.8474 32.5143 24.8668 32.5143 24.8824C32.5143 24.8979 32.5143 24.9135 32.5143 24.929C32.5182 24.9679 32.526 25.0067 32.5337 25.0495C32.5376 25.065 32.5415 25.0806 32.5454 25.0961V25.1C32.5454 25.1039 32.5454 25.1039 32.5493 25.1078C32.5765 25.1738 32.5998 25.236 32.6309 25.2982C32.6775 25.3953 32.728 25.4925 32.7747 25.5857C33.1982 26.0132 33.5674 26.4795 33.8938 26.9885C34.294 27.6102 34.6437 28.2669 34.873 28.9702C34.9779 29.2927 35.0712 29.6153 35.1217 29.9533C35.1722 30.2836 35.2033 30.6178 35.2072 30.952C35.2149 31.2667 35.1994 31.5815 35.1644 31.8962C35.145 32.0672 35.1178 32.2382 35.0595 32.4014C35.0323 32.483 34.9818 32.549 34.9585 32.6267C34.9468 32.6695 34.9235 32.6928 34.9041 32.7316C34.8846 32.7627 34.873 32.8016 34.8574 32.8366C34.838 32.8871 34.7642 32.8715 34.7681 32.8171C34.7681 32.7783 34.7719 32.7394 34.7603 32.7006C34.7525 32.6656 34.7447 32.6384 34.7447 32.6034C34.7447 32.5762 34.7447 32.549 34.7409 32.5218C34.7331 32.4868 34.7214 32.4596 34.7175 32.4247C34.7137 32.347 34.702 32.2731 34.702 32.1954C34.702 32.1294 34.702 32.0594 34.7059 31.9934C34.7098 31.8573 34.7098 31.7213 34.7059 31.5853C34.702 31.5193 34.702 31.4493 34.6981 31.3833C34.6981 31.3794 34.6981 31.3794 34.6981 31.3755V31.3716C34.6981 31.36 34.6981 31.3444 34.6942 31.3328C34.6903 31.3017 34.6903 31.2706 34.6865 31.2356C34.6476 30.7499 34.5505 30.2836 34.4339 29.8096C34.4028 29.6891 34.3717 29.5725 34.3367 29.456C34.329 29.4249 34.3173 29.3938 34.3095 29.3627C34.3406 29.4676 34.3057 29.3549 34.2979 29.3355C34.2785 29.285 34.2629 29.2306 34.2435 29.1801C34.1541 28.9391 34.0531 28.7021 33.9404 28.4728C33.8161 28.2164 33.6762 27.9716 33.5285 27.7307C33.5091 27.6996 33.4896 27.6685 33.4702 27.6374C33.4352 27.5869 33.443 27.5947 33.4508 27.6102V27.6063C33.4119 27.548 33.377 27.4936 33.3381 27.4353C33.2565 27.3188 33.1749 27.2022 33.0894 27.0856C32.763 26.6427 32.3977 26.223 31.9936 25.85C31.7721 25.6518 31.5351 25.4614 31.2786 25.3059C31.2553 25.2982 31.232 25.2904 31.2087 25.2826C31.0533 25.236 30.9833 25.2205 30.8279 25.1971C30.7152 25.1816 30.6064 25.1738 30.4937 25.1777C30.4743 25.1777 30.4587 25.1777 30.4393 25.1777C30.4354 25.1777 30.4354 25.1777 30.4315 25.1777C30.4043 25.1816 30.3771 25.1816 30.3499 25.1855C30.2955 25.1894 30.2411 25.1971 30.1867 25.2088C30.1285 25.2205 30.0663 25.2321 30.008 25.2477C29.9847 25.2554 29.9614 25.2593 29.9381 25.2671C29.9381 25.2671 29.9264 25.271 29.9147 25.2749C29.9031 25.2787 29.8875 25.2826 29.8875 25.2826C29.7787 25.3215 29.6738 25.3681 29.5728 25.4225C29.5456 25.4381 29.5184 25.4536 29.4951 25.4691C29.4834 25.4769 29.4756 25.4808 29.464 25.4886C29.464 25.4886 29.464 25.4886 29.4601 25.4886C29.4096 25.5235 29.3591 25.5585 29.3124 25.6013C29.2969 25.6168 29.2814 25.6323 29.2658 25.644C29.2658 25.644 29.2658 25.644 29.2619 25.6479C29.2619 25.6518 29.258 25.6518 29.258 25.6557C29.2464 25.6751 29.2308 25.6906 29.2192 25.7101C29.2153 25.7139 29.2114 25.7256 29.2075 25.7334C29.2036 25.745 29.1998 25.7528 29.1959 25.7645C29.1998 25.78 29.192 25.7878 29.192 25.7878C29.192 25.7917 29.192 25.7917 29.192 25.7917C29.192 25.8072 29.1881 25.8228 29.1881 25.8422C29.1881 25.85 29.1959 25.8966 29.1881 25.8616C29.1803 25.8228 29.192 25.8772 29.192 25.881C29.192 25.8927 29.1959 25.9044 29.1959 25.916C29.1998 25.9393 29.2075 25.9665 29.2153 25.9898C29.2153 25.9937 29.2153 25.9976 29.2192 26.0015C29.2231 26.0093 29.227 26.017 29.227 26.0209C29.2386 26.0598 29.2503 26.0948 29.2619 26.1336C29.6233 26.2774 29.9614 26.4756 30.2722 26.7048C31.2476 27.4198 31.9897 28.4223 32.5415 29.4909C33.0583 30.4857 33.4236 31.5659 33.6606 32.6617C33.8899 33.7264 33.987 34.8222 33.952 35.9141C33.9365 36.4465 33.886 36.9788 33.8044 37.5034C33.7578 37.7948 33.6839 38.0746 33.5946 38.3582C33.5635 38.4632 33.5285 38.5642 33.4935 38.6691C33.4974 38.6963 33.5013 38.7196 33.5052 38.7468C33.513 38.7818 33.5207 38.8168 33.5285 38.8556C33.5363 38.8634 33.5402 38.8828 33.5402 38.8867C33.5402 38.8906 33.544 38.8984 33.544 38.8984C33.5518 38.9139 33.5596 38.9295 33.5674 38.945C33.5674 38.9489 33.5712 38.9489 33.5712 38.9528C33.5907 38.9722 33.5946 38.98 33.5907 38.98C33.5946 38.9839 33.5946 38.9877 33.5984 38.9916C33.6023 38.9955 33.6101 38.9994 33.614 39.0033C33.6256 39.0072 33.6412 39.0111 33.6528 39.0149C33.6606 39.0149 33.6645 39.0188 33.6762 39.0227C33.6995 39.0266 33.7189 39.0266 33.7422 39.0266C33.7617 39.0266 33.7811 39.0266 33.8005 39.0266C33.7927 39.0266 33.785 39.0266 33.7772 39.0266C33.7461 39.0305 33.6995 39.0266 33.7772 39.0266C33.7811 39.0266 33.785 39.0266 33.7888 39.0266C33.8316 39.0227 33.8743 39.0149 33.9171 39.0072C33.9365 39.0033 33.9559 38.9994 33.9754 38.9916C33.9793 38.9916 33.9831 38.9877 33.9909 38.9877C34.022 38.9722 34.057 38.9644 34.0881 38.9489C34.158 38.9178 34.2279 38.8789 34.2901 38.8401C34.465 38.7235 34.6204 38.5875 34.7642 38.4321C34.9779 38.1873 35.1566 37.9153 35.3082 37.6277C35.4364 37.3635 35.5491 37.0915 35.6462 36.8117C35.8017 36.2988 35.9338 35.782 36.0659 35.2652Z" fill="#F0EBDF"/>
<path d="M29.1806 25.7683C29.1768 25.776 29.1768 25.7799 29.1806 25.7837C29.1806 25.776 29.1845 25.7721 29.1845 25.7644C29.1845 25.7644 29.1845 25.7683 29.1806 25.7683Z" fill="white"/>
<path d="M33.4624 27.6406C33.4587 27.6369 33.4587 27.6333 33.4551 27.6296L33.4587 27.6333C33.4587 27.6369 33.4587 27.6406 33.4624 27.6406Z" fill="white"/>
<path d="M33.4452 27.6217C33.4414 27.6178 33.4375 27.6139 33.4375 27.6062C33.4414 27.6139 33.4491 27.6217 33.453 27.6294C33.4491 27.6294 33.4491 27.6255 33.4452 27.6217Z" fill="white"/>
<path d="M33.5392 38.9293C33.5431 38.9333 33.5471 38.9412 33.551 38.9451C33.551 38.9451 33.551 38.9451 33.551 38.9412C33.5471 38.9412 33.5431 38.9372 33.5392 38.9293Z" fill="white"/>
<path d="M20.8221 40.4137C20.8183 40.4021 20.8144 40.3944 20.8105 40.3905C20.8144 40.3944 20.8144 40.3982 20.8183 40.406C20.8221 40.4098 20.8221 40.4137 20.8221 40.4137Z" fill="white"/>
<path d="M29.4833 28.2445L29.4785 28.2397C29.4785 28.2445 29.4785 28.2445 29.4833 28.2445C29.4785 28.2445 29.4785 28.2445 29.4833 28.2445Z" fill="white"/>
<path d="M19.9238 40.0368C19.9355 40.0329 19.9433 40.0252 19.9549 40.0213C19.9588 40.0213 19.9744 40.0135 19.9899 40.0096C19.9899 40.0096 19.9899 40.0096 19.9938 40.0057L19.9977 40.0019C19.9977 39.998 20.0016 39.9902 20.0093 39.9824V39.9785C20.0054 39.9747 20.0054 39.9708 20.0054 39.9669C20.0016 39.9591 19.9977 39.9475 19.9938 39.9397V39.9358C19.9899 39.9319 19.986 39.9241 19.9821 39.9203C19.9666 39.8969 19.9472 39.8775 19.9277 39.8581L19.9238 39.8542C19.9161 39.8464 19.9044 39.8387 19.8966 39.8309C19.8772 39.8153 19.8539 39.7998 19.8345 39.7843C19.7878 39.7532 19.7373 39.7221 19.6868 39.6988C19.6829 39.6949 19.679 39.6949 19.6713 39.691C19.6635 39.6871 19.6518 39.6832 19.6441 39.6793C19.6169 39.6677 19.5897 39.656 19.5625 39.6482C19.5392 39.6405 19.5197 39.6327 19.4964 39.6288C19.4886 39.6288 19.4731 39.6249 19.4653 39.6211C19.4342 39.6172 19.4031 39.6172 19.3721 39.6133C19.3682 39.6133 19.3682 39.6133 19.3643 39.6133C19.3604 39.6133 19.3604 39.6133 19.3565 39.6133C19.3099 39.6521 19.2516 39.691 19.1933 39.7104C19.1894 39.7182 19.1894 39.726 19.1855 39.7337C19.1855 39.7376 19.1855 39.7415 19.1855 39.7454C19.1855 39.7532 19.1855 39.7648 19.1855 39.7765C19.1894 39.792 19.1933 39.8076 19.1933 39.8231C19.1972 39.8348 19.2011 39.8542 19.205 39.862C19.2283 39.9164 19.2516 39.9669 19.2788 40.0213C19.2905 40.0407 19.3021 40.0601 19.3138 40.0796C19.341 40.1145 19.341 40.1184 19.3371 40.1145C19.3643 40.1495 19.3915 40.1845 19.4187 40.2195C19.3837 40.1145 19.4576 39.9785 19.5858 39.998C19.6635 40.0096 19.7373 40.0135 19.815 40.0329C19.8267 40.0368 19.8384 40.0368 19.8384 40.0368C19.85 40.0368 19.8578 40.0407 19.8694 40.0407C19.8772 40.0407 19.8889 40.0407 19.8928 40.0407C19.9005 40.0407 19.9083 40.0368 19.9161 40.0368C19.9161 40.0407 19.92 40.0407 19.9238 40.0368Z" fill="#F0EBDF"/>
<path d="M20.8142 40.3905C20.8064 40.3711 20.7948 40.3477 20.7831 40.3283C20.7754 40.3167 20.7676 40.305 20.7598 40.2972C20.7287 40.2545 20.6938 40.2195 20.6549 40.1807C20.6083 40.1418 20.5577 40.1029 20.5072 40.0641C20.4995 40.1185 20.48 40.1768 20.4489 40.2312C20.3479 40.4099 20.1459 40.511 19.9438 40.4915C19.8389 40.4838 19.7417 40.4643 19.6562 40.4216C19.7107 40.4604 19.7651 40.4915 19.8195 40.5226C19.8622 40.542 19.9049 40.5615 19.9516 40.577C19.9788 40.5848 20.006 40.5964 20.0332 40.6042C20.0487 40.6081 20.0643 40.612 20.0798 40.6159C20.0837 40.6159 20.0953 40.6197 20.107 40.6236C20.1187 40.6275 20.1303 40.6275 20.142 40.6275C20.1731 40.6314 20.2041 40.6353 20.2352 40.6392C20.2857 40.6431 20.3401 40.6431 20.3907 40.6431C20.4023 40.6431 20.414 40.6431 20.4217 40.6392C20.4489 40.6353 20.4761 40.6314 20.5033 40.6275C20.55 40.6198 20.616 40.612 20.6627 40.5925C20.6394 40.6003 20.5927 40.6159 20.6432 40.5964C20.6588 40.5925 20.6704 40.5848 20.686 40.5809C20.7132 40.5692 20.7404 40.5576 20.7676 40.542C20.7754 40.5381 20.7792 40.5343 20.787 40.5304C20.7987 40.4915 20.8142 40.4527 20.8336 40.4138C20.8103 40.3944 20.8103 40.3866 20.8142 40.3905Z" fill="#F0EBDF"/>
<path d="M20.8267 40.4266C20.8267 40.4222 20.8223 40.4222 20.8223 40.4177C20.8267 40.4177 20.8267 40.4222 20.8267 40.4266Z" fill="white"/>
<path d="M20.002 40.0096C20.0058 40.0135 20.0136 40.0096 20.0097 39.9941C20.0058 40.0019 20.0058 40.0057 20.002 40.0096Z" fill="white"/>
<path d="M24.1367 27.136C24.1481 27.1398 24.1558 27.1398 24.1672 27.1436H24.171C24.1596 27.1436 24.1481 27.1398 24.1367 27.136Z" fill="white"/>
<path d="M29.4629 28.2279C29.4591 28.2279 29.4591 28.224 29.4552 28.224C29.4629 28.2317 29.4668 28.2356 29.4745 28.2433C29.4707 28.2356 29.4668 28.2317 29.4629 28.2279Z" fill="white"/>
<path d="M24.1719 27.1439C24.1755 27.1439 24.1792 27.1439 24.1828 27.1476C24.1792 27.1476 24.1755 27.1439 24.1719 27.1439Z" fill="white"/>
<path d="M24.2809 27.167C24.2771 27.167 24.2732 27.167 24.2656 27.1632C24.3418 27.1784 24.3151 27.1746 24.2809 27.167Z" fill="#636363"/>
<path d="M24.1837 27.1479C24.1798 27.1479 24.1759 27.1479 24.1719 27.1439H24.168C24.1719 27.1439 24.1798 27.1479 24.1837 27.1479Z" fill="#636363"/>
<path d="M19.9983 40.0018C20.0022 39.9979 20.006 39.9979 20.006 39.994C20.006 39.994 20.006 39.9902 20.0099 39.9902C20.0099 39.9902 20.0099 39.9902 20.0099 39.9863V39.9824C20.0022 39.9902 19.9983 39.9979 19.9983 40.0018Z" fill="#636363"/>
<path d="M20.0056 39.9741C20.0056 39.9705 20.002 39.9705 20.002 39.9668C20.002 39.9705 20.0056 39.9741 20.0056 39.9778C20.0093 39.9778 20.0093 39.9741 20.0056 39.9741Z" fill="#636363"/>
<path d="M19.3145 40.0796C19.3221 40.091 19.3259 40.0986 19.3297 40.1063C19.3335 40.1101 19.3335 40.1139 19.3373 40.1177C19.3449 40.1177 19.3411 40.1101 19.3145 40.0796Z" fill="#636363"/>
<path d="M19.9983 40.0066C20.0031 40.0066 20.0031 40.0018 19.9983 40.0066C20.0031 40.0018 20.0031 40.0018 20.0031 40.0018C20.0031 40.0018 20.0031 40.0018 19.9983 40.0066Z" fill="#636363"/>
<path d="M20.0133 39.9868C20.0133 39.9868 20.0133 39.9821 20.0133 39.9868C20.0086 39.9821 20.0086 39.9821 20.0133 39.9868C20.0086 39.9821 20.0133 39.9868 20.0133 39.9868Z" fill="#636363"/>
<path d="M27.4441 21.2802C27.4324 21.3774 27.4207 21.4745 27.4052 21.5678C27.4013 21.5911 27.3974 21.6144 27.3935 21.6339C27.3897 21.6455 27.3896 21.6572 27.3858 21.6688C27.3741 21.7193 27.3624 21.7699 27.3508 21.8204C27.3003 22.0185 27.2381 22.2167 27.1837 22.4149C27.1293 22.6131 27.0749 22.8112 27.0244 23.0094C26.9972 23.1143 27.0322 23.2231 27.1332 23.2736C27.2226 23.3203 27.3586 23.3008 27.413 23.2037C27.4907 23.0677 27.5606 22.9317 27.6306 22.7918C27.751 22.6597 27.8521 22.5004 27.9531 22.3566C28.0036 22.2828 27.957 22.2089 27.8909 22.1895C27.8909 22.1856 27.8948 22.1817 27.8948 22.1779C27.9103 22.1351 27.922 22.0885 27.9375 22.0457C27.9803 22.0341 28.0153 22.0108 28.0386 21.9758C28.0774 21.9136 28.1124 21.8592 28.1435 21.7932C28.1513 21.7776 28.1551 21.7621 28.1629 21.7465C28.1629 21.7427 28.1668 21.7388 28.1668 21.7349C28.1862 21.696 28.2057 21.6572 28.2251 21.6183C28.2251 21.6144 28.229 21.6144 28.229 21.6105C28.2367 21.5989 28.2445 21.5872 28.2484 21.5717C28.2678 21.5367 28.2834 21.4979 28.2989 21.4629C28.3222 21.4046 28.3494 21.358 28.3494 21.2958C28.3494 21.2414 28.3145 21.2025 28.2639 21.1948C28.2134 21.187 28.1668 21.1986 28.1202 21.2181C28.1279 21.1714 28.1357 21.1209 28.1396 21.0743C28.1435 21.0626 28.1513 21.0549 28.1551 21.0432C28.2134 20.9772 28.2367 20.8878 28.2678 20.7984C28.2834 20.7596 28.2989 20.7207 28.3145 20.6818C28.3222 20.6663 28.3261 20.6507 28.3339 20.6391C28.3339 20.6352 28.3533 20.6002 28.3572 20.5963C28.4 20.5186 28.4466 20.4448 28.4893 20.371C28.5321 20.301 28.5865 20.2272 28.5981 20.1456C28.6059 20.1339 28.6137 20.1223 28.6253 20.1106C28.6914 20.0251 28.5826 19.9008 28.4893 19.9513C28.4738 19.9591 28.4543 19.9707 28.4388 19.9785C28.3805 19.9824 28.33 20.0096 28.2795 20.0446C28.2873 20.0251 28.295 20.0057 28.3028 19.9863C28.33 19.9241 28.3572 19.8581 28.3844 19.7959C28.3922 19.7803 28.3999 19.7609 28.4077 19.7454C28.4077 19.7415 28.4155 19.7259 28.4233 19.7143C28.4272 19.7026 28.4388 19.6832 28.4388 19.6832C28.4466 19.6677 28.4544 19.6521 28.466 19.6366C28.536 19.5122 28.602 19.384 28.6797 19.2635C28.7225 19.1975 28.7691 19.1275 28.8002 19.0537C28.8118 19.0265 28.8196 18.9954 28.8313 18.9682C28.839 18.9488 28.8468 18.9332 28.8468 18.9099C28.8468 18.906 28.8468 18.8983 28.8468 18.8944C28.8429 18.8633 28.8429 18.8594 28.8507 18.8827C28.8779 18.8206 28.8041 18.77 28.7497 18.7895C28.7691 18.7817 28.7147 18.7895 28.7108 18.7895C28.6953 18.7934 28.6797 18.8011 28.6642 18.805C28.6292 18.8167 28.5942 18.8322 28.5593 18.8478C28.4932 18.8827 28.431 18.9371 28.3766 18.9915C28.3883 18.9604 28.3961 18.9294 28.4077 18.9022C28.4194 18.875 28.431 18.8439 28.4427 18.8167C28.4466 18.805 28.4543 18.7934 28.4582 18.7778C28.4582 18.7778 28.4699 18.7506 28.4738 18.7428C28.4816 18.7312 28.4893 18.7156 28.4893 18.7118C28.501 18.6923 28.5088 18.669 28.5204 18.6457C28.5282 18.6302 28.5282 18.6263 28.5243 18.6379C28.5321 18.6263 28.536 18.6146 28.5437 18.603C28.5709 18.5524 28.602 18.5019 28.6331 18.4514C28.6525 18.4203 28.6758 18.3892 28.6914 18.3581C28.7069 18.3309 28.7069 18.3232 28.6992 18.3387C28.6953 18.3465 28.6953 18.3465 28.6992 18.3348C28.7069 18.3193 28.7147 18.3037 28.7225 18.2882C28.7808 18.1755 28.8313 18.0628 28.8896 17.9501C28.9401 17.8491 28.839 17.7481 28.7419 17.818C28.6331 17.8957 28.5282 17.9618 28.4272 18.0473C28.3844 18.0823 28.3455 18.1211 28.3106 18.1639C28.3417 18.0745 28.3805 17.9851 28.4194 17.8957C28.4349 17.8647 28.4466 17.8336 28.4582 17.8025C28.4621 17.7908 28.4699 17.7753 28.4777 17.7597C28.4816 17.7559 28.4854 17.7481 28.4893 17.7403C28.5126 17.6937 28.536 17.6509 28.5593 17.6043C28.5437 17.6354 28.5554 17.616 28.5632 17.5965C28.5709 17.581 28.5787 17.5655 28.5865 17.5538C28.5981 17.5344 28.6059 17.5188 28.6176 17.4994C28.6253 17.4877 28.6642 17.41 28.6486 17.4411C28.637 17.4605 28.6642 17.4139 28.6642 17.41C28.672 17.3906 28.6836 17.375 28.6953 17.3556C28.7302 17.2934 28.773 17.2352 28.8196 17.1769C28.8934 17.0836 28.7691 16.936 28.6642 16.9942C28.5282 17.072 28.3883 17.1574 28.2717 17.2662C28.2601 17.2779 28.2445 17.2896 28.2329 17.3051C28.2367 17.2779 28.2445 17.2468 28.2484 17.2196C28.2523 17.2041 28.2523 17.1885 28.2562 17.173V17.1691V17.1652C28.2873 17.0292 28.3339 16.901 28.3883 16.7766C28.4155 16.7145 28.4427 16.6523 28.4699 16.594C28.4738 16.5901 28.4738 16.5862 28.4777 16.5785C28.4854 16.5629 28.4932 16.5513 28.501 16.5357C28.5243 16.4891 28.5437 16.4463 28.567 16.3997C28.5787 16.3725 28.5942 16.3414 28.6098 16.3142C28.6176 16.2948 28.6214 16.2909 28.6176 16.3026C28.6098 16.322 28.6137 16.3103 28.637 16.2637C28.6448 16.2482 28.6486 16.2365 28.6564 16.221C28.6836 16.1549 28.7108 16.0927 28.738 16.0267C28.7846 15.9179 28.637 15.8285 28.5515 15.8985C28.431 15.9995 28.3183 16.1005 28.2173 16.221C28.2095 16.2287 28.2057 16.2365 28.1979 16.2443C28.2173 16.1743 28.2367 16.1083 28.2601 16.0422C28.3067 15.9023 28.3572 15.7625 28.4155 15.6303C28.4699 15.4982 28.5282 15.3816 28.6137 15.269C28.703 15.1524 28.5321 15.0047 28.4272 15.098C28.3028 15.2068 28.1785 15.3117 28.0697 15.4322C28.0541 15.4477 28.0425 15.4632 28.0308 15.4788C28.0425 15.4322 28.058 15.3855 28.0774 15.3389C28.1085 15.2534 28.1474 15.164 28.1862 15.0824C28.194 15.0669 28.2018 15.0514 28.2095 15.0358C28.2134 15.028 28.2251 15.0008 28.229 14.997C28.2601 14.9348 28.2989 14.8765 28.33 14.8143C28.3494 14.7716 28.3689 14.7327 28.3883 14.69C28.4194 14.6278 28.4349 14.6162 28.4582 14.5462C28.4738 14.5035 28.4777 14.4607 28.4971 14.418C28.5049 14.3947 28.5204 14.3713 28.5204 14.3441C28.5088 14.3208 28.5088 14.3131 28.5282 14.3092C28.536 14.2975 28.5398 14.282 28.5476 14.2703C28.5826 14.1926 28.4777 14.1382 28.4194 14.1809C28.3766 14.2159 28.3261 14.2315 28.2795 14.2664C28.2329 14.2975 28.1862 14.3208 28.1435 14.3558C28.0541 14.4335 27.9609 14.5229 27.8909 14.6161C27.887 14.62 27.8831 14.6278 27.8793 14.6356C27.8831 14.62 27.887 14.6084 27.8909 14.5928C27.9065 14.554 27.922 14.5112 27.9375 14.4724C27.9453 14.4568 27.957 14.4374 27.9609 14.418C27.9609 14.4219 27.957 14.4257 27.957 14.4296C27.9609 14.4219 27.9609 14.418 27.9647 14.4102C27.9881 14.3713 28.0075 14.3325 28.0308 14.2975C28.0774 14.2237 28.1279 14.1537 28.1707 14.0799C28.2212 13.9905 28.2717 13.9012 28.2989 13.8001C28.3106 13.7535 28.3183 13.7069 28.3222 13.6602C28.3261 13.6214 28.3378 13.5748 28.3455 13.532C28.3611 13.4426 28.2329 13.3805 28.1707 13.4426C28.1435 13.4698 28.1163 13.497 28.0852 13.5165C28.0619 13.532 28.0386 13.5437 28.0153 13.5592C28.0114 13.5592 27.9958 13.5748 27.9881 13.5825C27.9609 13.602 27.9337 13.6136 27.9065 13.6369C27.887 13.6525 27.8715 13.6719 27.8559 13.6875C27.8365 13.7069 27.8171 13.7263 27.7977 13.7457C27.8015 13.7302 27.8054 13.7147 27.8054 13.6991V13.6952C27.8093 13.6875 27.8093 13.6758 27.8132 13.668C27.8404 13.5437 27.8793 13.4193 27.922 13.3028L27.9259 13.2989C27.9375 13.2872 27.9492 13.2756 27.9609 13.2639C27.9764 13.2484 27.9919 13.2328 28.0036 13.2134C28.0114 13.2056 28.023 13.1901 28.0269 13.1862C28.0774 13.1318 28.1357 13.0813 28.194 13.0385C28.2057 13.0269 28.2212 13.0191 28.2329 13.0074C28.2406 12.9997 28.2523 12.9958 28.2523 12.9919C28.2795 12.9764 28.3067 12.9608 28.3339 12.9492C28.3611 12.9375 28.3883 12.9258 28.4194 12.9142C28.4349 12.9103 28.4466 12.9025 28.4621 12.8986C28.466 12.8986 28.466 12.8948 28.4699 12.8948C28.4699 12.8948 28.4738 12.8948 28.4777 12.8948C28.5088 12.887 28.536 12.8792 28.567 12.8753C28.5865 12.8714 28.602 12.8714 28.6214 12.8676C28.6253 12.8676 28.6448 12.8676 28.6525 12.8637C28.6603 12.8637 28.6758 12.8637 28.6758 12.8637C28.7069 12.8637 28.7341 12.8637 28.7652 12.8637C28.7769 12.8637 28.7885 12.8598 28.8002 12.8598C28.8002 12.8598 28.8546 12.8559 28.8235 12.8559C28.8896 12.852 28.9478 12.8481 29.0061 12.8248C29.01 12.8248 29.01 12.8248 29.0139 12.8248C29.0683 12.8365 29.1072 12.7821 29.0761 12.7354C29.0683 12.7316 29.0683 12.7277 29.0644 12.7238C29.0644 12.7277 29.0644 12.7277 29.0644 12.7315C29.0605 12.6577 29.0061 12.5955 28.9478 12.5489C28.8701 12.4906 28.7846 12.4595 28.6914 12.444C28.5165 12.4168 28.3339 12.4362 28.1707 12.4984C28.1474 12.5062 28.1202 12.5178 28.0969 12.5295C28.0852 12.5295 28.0735 12.5295 28.0658 12.5295C28.0269 12.5373 27.9803 12.545 27.9453 12.5645C27.9065 12.5839 27.8637 12.6227 27.8326 12.6538C27.7627 12.716 27.6927 12.7898 27.6345 12.8637C27.5218 13.0074 27.4363 13.1668 27.3663 13.3338C27.2264 13.6641 27.1604 14.0216 27.1371 14.3752C27.0904 15.0902 27.2381 15.7935 27.3508 16.4969C27.4091 16.8466 27.4518 17.1963 27.479 17.546C27.4868 17.6276 27.4907 17.7092 27.4984 17.7908C27.4984 17.8141 27.5023 17.8336 27.5023 17.8569C27.4985 17.9035 27.5062 17.9618 27.5101 18.0123C27.5179 18.1911 27.5218 18.3659 27.5257 18.5447C27.5373 19.2558 27.5101 19.9669 27.4868 20.6779C27.479 20.8761 27.4674 21.0782 27.4441 21.2802ZM28.159 21.7465C28.1551 21.7582 28.1551 21.7543 28.159 21.7465V21.7465ZM27.9259 13.3066L27.9298 13.3028C27.9259 13.3066 27.9259 13.3066 27.9259 13.3066ZM28.4854 16.6057C28.4816 16.6134 28.4854 16.6134 28.4854 16.6057V16.6057Z" fill="#444444"/>
<path d="M27.9576 14.4412C27.9537 14.4605 27.9499 14.476 27.9576 14.4412V14.4412Z" fill="#636363"/>
<path d="M28.5275 18.6545C28.5275 18.6501 28.5319 18.6501 28.5319 18.6456C28.5319 18.6456 28.5319 18.6501 28.5275 18.6545Z" fill="#636363"/>
<path d="M16.9465 24.9951C16.8844 24.9912 16.8144 24.9951 16.7522 25.0028C16.6706 25.0145 16.6085 25.0456 16.5424 25.0883C16.4142 25.1699 16.3093 25.2671 16.1966 25.3681C16.0761 25.473 15.9634 25.5818 15.8507 25.6984C15.7886 25.7644 15.7264 25.8305 15.6759 25.9004C15.6254 25.9665 15.5749 26.0287 15.5399 26.1025C15.501 26.1841 15.6021 26.2424 15.6681 26.2191C15.7342 26.1958 15.7963 26.153 15.8585 26.1142C15.9285 26.0714 15.9945 26.0287 16.0606 25.9782C16.181 25.8849 16.2976 25.7916 16.4103 25.6906C16.5113 25.6012 16.6085 25.508 16.7095 25.4186C16.7522 25.3797 16.8028 25.3448 16.8455 25.3059C16.8844 25.2709 16.9116 25.236 16.966 25.2243C17.0204 25.2088 17.0631 25.1621 17.0592 25.1039C17.0515 25.0495 17.0048 24.9989 16.9465 24.9951Z" fill="#444444"/>
<path d="M22.4493 35.1834C22.426 35.0669 22.391 34.9542 22.3677 34.8376C22.3444 34.7133 22.3249 34.5889 22.3094 34.4646C22.3055 34.4335 22.3016 34.4063 22.3016 34.3752C22.3016 34.3558 22.2861 34.2586 22.2977 34.3363C22.2939 34.3091 22.2939 34.2781 22.2939 34.247C22.2939 34.2159 22.29 34.1887 22.29 34.1576C22.29 34.1537 22.29 34.1498 22.29 34.1421C22.2861 34.0527 22.2861 33.9633 22.2861 33.8778C22.29 33.8545 22.29 33.8312 22.2939 33.8079C22.2977 33.7729 22.3055 33.734 22.3094 33.6991C22.3055 33.7457 22.3094 33.6952 22.3133 33.6835C22.3172 33.668 22.3211 33.6486 22.3288 33.633C22.3716 33.497 22.3949 33.3571 22.4415 33.2211C22.4648 33.1551 22.4959 33.0929 22.5231 33.0268C22.5387 32.9919 22.5503 32.9608 22.5659 32.9258C22.5659 32.9219 22.5697 32.918 22.5697 32.918C22.5853 32.8986 22.6125 32.8325 22.6125 32.8325C22.6203 32.8209 22.6241 32.8092 22.628 32.7976C22.6358 32.8326 22.6436 32.8636 22.6514 32.8986C22.6863 33.0424 22.7252 33.1862 22.7912 33.3183C22.8534 33.4465 22.9195 33.5514 22.9894 33.668C23.0244 33.7263 23.0866 33.7613 23.1526 33.7379C23.2148 33.7185 23.2575 33.6524 23.242 33.5864C23.2148 33.4698 23.207 33.3688 23.1954 33.2444C23.1837 33.1279 23.172 33.0152 23.1565 32.8986C23.1487 32.8442 23.1448 32.7898 23.141 32.7354C23.141 32.7276 23.1371 32.7082 23.1371 32.6927C23.1332 32.6616 23.1332 32.6305 23.1332 32.5994C23.1332 32.5567 23.1293 32.5139 23.1293 32.4712C23.1293 32.4634 23.1293 32.4556 23.1293 32.4479C23.1293 32.444 23.1293 32.4362 23.1293 32.4362C23.1254 32.374 23.1254 32.3157 23.1254 32.2536C23.1254 32.2147 23.1254 32.172 23.1293 32.1331C23.1448 32.0981 23.1604 32.0593 23.1682 32.0204C23.1759 31.9893 23.1837 31.9582 23.1876 31.9272C23.1876 31.9194 23.1915 31.9116 23.1915 31.9C23.1992 31.8883 23.207 31.8767 23.2148 31.865C23.2536 31.8106 23.2886 31.764 23.3352 31.7212C23.343 31.7134 23.3508 31.7057 23.3586 31.7018C23.3624 31.7096 23.3624 31.7173 23.3663 31.7251C23.3974 31.8456 23.4207 31.9738 23.4635 32.0904C23.4868 32.1525 23.514 32.2186 23.5528 32.2691C23.5684 32.2885 23.5878 32.3041 23.5995 32.3235C23.615 32.3468 23.6189 32.3779 23.6306 32.4051C23.6578 32.4945 23.7977 32.5023 23.8015 32.3973C23.8015 32.374 23.8015 32.3468 23.8054 32.3235C23.8054 32.3157 23.7977 32.308 23.7977 32.3119C23.7977 32.3041 23.8132 32.2769 23.821 32.2613C23.8404 32.2069 23.8521 32.1564 23.8521 32.102C23.8559 31.9854 23.8365 31.8766 23.8171 31.7601C23.7782 31.558 23.7355 31.356 23.6927 31.15C23.6539 30.9596 23.6228 30.7653 23.6072 30.571C23.6072 30.5671 23.6072 30.5671 23.6072 30.5633C23.6072 30.5555 23.6072 30.5477 23.6072 30.5399C23.6072 30.5166 23.6073 30.4933 23.6034 30.47C23.6034 30.4195 23.6034 30.369 23.6034 30.3185V30.3146C23.6228 30.2641 23.6422 30.2135 23.6539 30.1591C23.6617 30.1281 23.6655 30.097 23.6694 30.0659C23.6811 30.1009 23.6927 30.1319 23.7044 30.163C23.7433 30.2718 23.7782 30.3806 23.8171 30.4894C23.8559 30.606 23.9337 30.7148 24.0269 30.7964C24.0735 30.8353 24.1513 30.8042 24.1668 30.7498C24.229 30.5516 24.1746 30.3457 24.1318 30.1514C24.093 29.9765 24.0541 29.8016 24.0191 29.6268C24.0036 29.5413 23.9919 29.4558 23.9842 29.3703V29.3664C23.9842 29.3587 23.9842 29.3509 23.9842 29.347C23.9958 29.3703 24.0036 29.3898 24.0153 29.4131C24.1124 29.6035 24.2173 29.8016 24.4038 29.9105C24.4699 29.9493 24.5631 29.9143 24.567 29.8327C24.5787 29.6268 24.4893 29.4519 24.4233 29.2615C24.4194 29.2538 24.3999 29.1877 24.4077 29.2149C24.3999 29.1955 24.3844 29.1449 24.3805 29.1372C24.3689 29.0983 24.3572 29.0595 24.3494 29.0206C24.3261 28.9312 24.3145 28.8419 24.3028 28.7486C24.3028 28.7408 24.3028 28.7331 24.3028 28.7253C24.3028 28.6981 24.3028 28.6748 24.3028 28.6476C24.3028 28.6009 24.3067 28.5504 24.3106 28.5038C24.3145 28.4766 24.3183 28.4494 24.3222 28.4222C24.3222 28.4144 24.33 28.3911 24.33 28.3833C24.3417 28.3328 24.3572 28.2823 24.365 28.2318C24.3689 28.2201 24.3689 28.2085 24.3727 28.1968C24.3727 28.2046 24.3727 28.2007 24.3766 28.1813C24.3844 28.1541 24.3883 28.1269 24.3961 28.0997C24.4077 28.053 24.4194 28.0064 24.431 27.9559C24.4582 27.8471 24.466 27.7305 24.4388 27.6217C24.4271 27.5634 24.3572 27.5168 24.2989 27.5479C24.1901 27.6062 24.1124 27.68 24.0463 27.7849C23.9881 27.8821 23.9298 27.9909 23.8909 28.0997C23.8715 28.1502 23.8559 28.2046 23.8443 28.259C23.8132 28.3134 23.7821 28.3678 23.7549 28.4222C23.6733 28.5776 23.5995 28.7369 23.5567 28.9079C23.5412 28.9351 23.5218 28.9623 23.5062 28.9895C23.4751 29.0362 23.4518 29.0867 23.4246 29.1411C23.4168 29.1566 23.4091 29.176 23.3974 29.1916C23.4013 29.1877 23.3819 29.2266 23.378 29.2304C23.2847 29.4131 23.2148 29.6074 23.1254 29.79C23.0866 29.8755 23.0438 29.961 23.0011 30.0426C22.9972 30.0464 22.9816 30.0814 22.9778 30.0892C22.9739 30.1008 22.9661 30.1125 22.9661 30.1164C22.9467 30.1591 22.9234 30.198 22.9039 30.2407C22.8146 30.4117 22.7291 30.5827 22.6436 30.7537C22.2317 31.5619 21.7537 32.3352 21.3846 33.1667C21.2253 33.5281 21.0893 33.9011 20.9999 34.2858C20.9105 34.6705 20.8484 35.063 20.8561 35.4593C20.86 35.6847 20.8756 35.9101 20.9183 36.1316C20.9416 36.2559 20.9766 36.3764 21.0193 36.4968C21.0621 36.6134 21.1242 36.7144 21.1942 36.8155C21.2602 36.9126 21.4273 36.9437 21.5284 36.8893C21.6449 36.8271 21.6993 36.7144 21.6838 36.5823C21.6644 36.4152 21.641 36.2481 21.61 36.0811C21.5944 35.9995 21.5828 35.9178 21.575 35.8401C21.5711 35.8052 21.5672 35.7702 21.5672 35.7313C21.5672 35.7275 21.5672 35.7236 21.5672 35.7197C21.5672 35.7002 21.5672 35.6808 21.5672 35.6614C21.5633 35.4477 21.575 35.234 21.6022 35.0241C21.61 35.0163 21.6138 35.0047 21.6216 34.9969C21.6799 34.9153 21.7499 34.8182 21.8081 34.756C21.8276 34.7366 21.8431 34.721 21.8587 34.7016C21.8742 34.7521 21.8936 34.8065 21.9092 34.857C21.9558 34.9892 22.0102 35.1252 22.0801 35.2495C22.119 35.3156 22.1617 35.3816 22.2161 35.436C22.2667 35.4865 22.3211 35.537 22.3716 35.5914C22.4221 35.6458 22.5309 35.607 22.5076 35.5254C22.4804 35.4244 22.4726 35.3 22.4493 35.1834Z" fill="#444444"/>
<path d="M27.8945 26.4833C27.9458 26.4991 27.9182 26.4912 27.8945 26.4833V26.4833Z" fill="#636363"/>
<path d="M33.5117 38.8439C33.5155 38.8515 33.5193 38.8667 33.5231 38.8744C33.5193 38.8705 33.5155 38.8515 33.5117 38.8439Z" fill="#636363"/>
<path d="M33.5508 38.9449C33.5508 38.9449 33.5547 38.9449 33.5508 38.9449C33.5587 38.9568 33.5666 38.9647 33.5705 38.9726C33.5745 38.9726 33.5705 38.9647 33.5508 38.9449Z" fill="#636363"/>
<path d="M33.7585 39.0148C33.6823 39.0148 33.728 39.0186 33.7585 39.0148V39.0148Z" fill="#636363"/>
<path d="M37.5032 31.5192C37.5304 30.9169 37.5188 30.3068 37.4566 29.7045C37.4916 29.7473 37.5266 29.7939 37.5576 29.8406C37.8491 30.2291 38.1016 30.6488 38.4514 30.9946C38.5524 31.0957 38.6612 31.1967 38.7817 31.2783C38.8011 31.2899 38.8205 31.3016 38.8399 31.3133C38.9915 31.4765 39.1935 31.6591 39.4112 31.7251C39.5627 31.7718 39.7376 31.7718 39.8813 31.6941C40.0329 31.6125 40.13 31.4959 40.2038 31.3405C40.2971 31.1384 40.266 30.9014 40.2038 30.6954C40.1417 30.4934 40.0795 30.2913 40.0251 30.0892C39.9668 29.8833 39.9085 29.6774 39.8502 29.4753C39.823 29.3743 39.792 29.2732 39.7648 29.1722C39.7376 29.0789 39.7181 28.9779 39.687 28.8846C39.6715 28.7953 39.656 28.7098 39.6404 28.6204C39.5705 28.2163 39.5161 27.8083 39.4578 27.4003C39.3412 26.561 39.213 25.7255 38.941 24.9212C38.6729 24.1362 38.2649 23.3863 37.7247 22.7529C37.1807 22.1156 36.4968 21.6105 35.7197 21.2957C35.3427 21.1442 34.9503 21.0471 34.5462 21.0082C34.3363 20.9888 34.1304 20.9888 33.9167 21.0043C33.804 21.0121 33.6835 21.0199 33.5708 21.0432C33.5942 20.5186 33.5786 19.9901 33.532 19.4655C33.4659 18.6806 33.326 17.9035 33.1201 17.1419C32.9141 16.3686 32.6538 15.607 32.339 14.8726C32.1176 14.3519 31.8572 13.8467 31.5619 13.3688C31.2122 12.8014 30.8236 12.2497 30.3301 11.7989C30.0853 11.5774 29.8327 11.3676 29.5374 11.2161C29.2265 11.0567 28.9118 10.9402 28.566 10.9052C28.2085 10.8702 27.8588 10.9324 27.5207 11.0529C27.0894 11.2083 26.7319 11.523 26.4754 11.9C26.2228 12.273 26.0558 12.7082 25.9625 13.1434C25.8654 13.5903 25.8071 14.0449 25.7954 14.5034C25.7721 15.3738 25.8731 16.2442 25.947 17.1108C25.9625 17.2934 25.978 17.4721 25.9858 17.6548C26.0441 18.7544 25.9819 19.8619 25.8226 20.9538C25.7799 21.2452 25.7294 21.5367 25.6711 21.8281C25.6594 21.8903 25.6439 21.9486 25.6283 22.0107C25.5079 21.933 25.3602 21.8747 25.2281 21.8281C24.9639 21.731 24.6919 21.6532 24.4199 21.5794C23.8564 21.424 23.2813 21.3152 22.6985 21.2569C22.1117 21.1986 21.5211 21.2064 20.9343 21.2802C20.3981 21.3463 19.8735 21.4823 19.3645 21.6571C18.3891 21.9913 17.4876 22.5198 16.6716 23.1454C15.844 23.7826 15.1057 24.5404 14.4373 25.3447C14.1109 25.7372 13.8039 26.1413 13.5125 26.5571C13.2094 26.9884 12.9141 27.4314 12.646 27.886C12.6304 27.9132 12.6149 27.9404 12.5993 27.9676C12.576 27.9987 12.5566 28.0337 12.5372 28.0686C12.4711 28.1852 12.405 28.2979 12.3506 28.4222C12.269 28.6126 12.1836 28.7992 12.1058 28.9896C12.0709 29.0712 12.0281 29.1528 12.0087 29.2421C11.9854 29.3509 11.9698 29.4403 11.9893 29.5491C12.0087 29.6502 12.0514 29.7434 12.1175 29.825C12.3234 30.0892 12.6887 30.1242 12.984 30.0076C13.0928 29.9649 13.19 29.8911 13.2793 29.8211C13.3609 29.7628 13.4387 29.7007 13.5203 29.6385C13.6796 29.5141 13.835 29.3898 13.9904 29.2655C14.0138 29.246 14.0371 29.2266 14.0604 29.2072C14.177 29.1411 14.2935 29.0751 14.414 29.0129C14.9852 28.7059 15.5953 28.4572 16.2053 28.2435C16.283 28.2163 16.3569 28.193 16.4346 28.1658C16.4579 28.158 16.59 28.1192 16.489 28.1502C16.5356 28.1386 16.5784 28.123 16.625 28.1075C16.7804 28.0609 16.9359 28.0142 17.0913 27.9715C17.4099 27.8821 17.7324 27.8005 18.055 27.7267C18.6922 27.5752 19.3334 27.4391 19.9745 27.3109C20.674 27.171 21.3773 27.0545 22.0884 27.0078C22.3526 26.9962 22.6207 26.9884 22.885 27C22.7334 27.3537 22.5741 27.7073 22.4148 28.057C22.2399 28.4378 22.0728 28.8225 21.8941 29.1994C21.8008 29.3976 21.7037 29.5919 21.6066 29.7862C21.3229 30.3457 21.0198 30.8975 20.7128 31.4415C20.3903 32.0205 20.0678 32.5994 19.8074 33.2095C19.7492 33.3494 19.6909 33.4893 19.6404 33.6292C19.6404 33.6331 19.6365 33.637 19.6365 33.6408C19.4694 34.0994 19.4189 34.6006 19.4227 35.0863C19.4266 35.6031 19.4771 36.12 19.5277 36.6368C19.5549 36.901 19.586 37.1652 19.6015 37.4295C19.6093 37.5383 19.617 37.6471 19.6365 37.752C19.6404 37.7636 19.6404 37.7753 19.6442 37.787C19.6365 37.8375 19.6287 37.8841 19.617 37.9346C19.5898 38.0512 19.5432 38.1639 19.4888 38.2727C19.3878 38.4631 19.2673 38.6457 19.1469 38.8245C19.0808 38.9255 19.0109 39.0265 18.9487 39.1314C18.9409 39.147 18.9293 39.1625 18.9215 39.1781C18.7738 39.2674 18.6378 39.4034 18.5834 39.5627C18.5135 39.7726 18.5562 39.9824 18.6262 40.1806C18.6845 40.3438 18.7855 40.4953 18.8943 40.6313C19.0109 40.7712 19.1469 40.8995 19.2984 41.0044C19.5898 41.2064 19.9434 41.3308 20.297 41.3424C20.6895 41.3541 21.1247 41.2453 21.3812 40.9305C21.4472 40.8489 21.49 40.7635 21.5133 40.6702C21.7076 40.3205 21.9835 40.0213 22.2438 39.7182C22.3837 39.555 22.5197 39.3918 22.6518 39.2247C22.6868 39.1819 22.7218 39.1392 22.7529 39.0926C22.7567 39.0887 22.7567 39.0848 22.7606 39.0848C23.0521 39.011 23.3396 38.9022 23.6155 38.7895C24.1945 38.5525 24.7307 38.2416 25.2475 37.888C25.5428 37.6859 25.8265 37.4683 26.1024 37.2468C26.1218 37.2313 26.1374 37.2157 26.1529 37.2002C26.3977 36.9981 26.6347 36.7883 26.8601 36.5668C27.2914 36.151 27.6994 35.712 28.0997 35.2651C28.5154 34.8027 28.9196 34.3325 29.3159 33.8507C29.7084 33.3766 30.0931 32.8948 30.4739 32.409C30.7498 32.0554 31.0257 31.698 31.2977 31.3405C31.3171 31.4104 31.3365 31.4842 31.3521 31.5542C31.4686 32.0321 31.5502 32.5178 31.6163 33.0036C31.7562 34.0294 31.8222 35.063 31.9466 36.0889C32.0126 36.6329 32.0709 37.1808 32.1797 37.7209C32.2341 37.9929 32.308 38.261 32.4012 38.5214C32.4945 38.7817 32.6149 39.0382 32.782 39.2558C32.8364 39.3257 32.9064 39.3685 32.988 39.3879C33.0463 39.4773 33.124 39.5589 33.2133 39.6172C33.5786 39.862 34.0643 39.8114 34.4451 39.6327C34.7638 39.485 35.0591 39.2597 35.3 39.0071C36.2792 37.9657 36.5862 36.4969 36.9281 35.1563C37.2312 33.9711 37.4488 32.751 37.5032 31.5192ZM33.7846 21.9524C33.7962 21.9369 33.8079 21.9175 33.8234 21.9019C33.8273 21.898 33.8506 21.8708 33.8428 21.8825C33.87 21.8514 33.9011 21.8242 33.9283 21.797C33.975 21.7581 33.9983 21.7387 34.0371 21.7154C34.1964 21.731 34.3558 21.7543 34.5151 21.7853C34.9153 21.8708 35.3078 22.0068 35.673 22.1856C36.0189 22.3682 36.3414 22.5936 36.6367 22.85C36.967 23.157 37.2545 23.5029 37.5032 23.8798C37.7869 24.3305 38.0084 24.8162 38.1794 25.3214C38.5485 26.5066 38.5874 27.7578 38.8438 28.9663C38.8866 29.1605 38.9449 29.3548 39.0148 29.5375C39.0459 29.6191 39.077 29.7045 39.1119 29.7823C39.1391 29.8406 39.1664 29.9027 39.2052 29.9494C39.2169 29.9649 39.2285 29.9766 39.2441 29.9882C39.2907 30.1514 39.3334 30.3107 39.3801 30.4739C39.4112 30.5827 39.4461 30.6954 39.4694 30.8081C39.3917 30.7265 39.3218 30.6371 39.2596 30.54C39.1353 30.3379 39.0303 30.1242 38.9254 29.9144C38.8127 29.689 38.7078 29.4636 38.599 29.2383C38.3814 28.7875 38.1638 28.3368 37.9384 27.8899C37.7131 27.443 37.4722 27.0078 37.204 26.5882C36.9243 26.1491 36.6289 25.7255 36.2753 25.3408C36.0694 25.1155 35.8479 24.8979 35.5914 24.7308C35.4982 24.6725 35.401 24.6142 35.3 24.5714C35.199 24.4743 35.0941 24.3849 34.9853 24.3033C34.4918 23.9458 33.8856 23.8176 33.2833 23.8176C33.2872 23.7904 33.2872 23.7632 33.2911 23.7321C33.2911 23.7321 33.2911 23.7243 33.2911 23.7166C33.2911 23.7166 33.2911 23.7127 33.2911 23.7088C33.2949 23.701 33.295 23.6894 33.2988 23.6816C33.3144 23.6233 33.3338 23.565 33.3532 23.5067C33.361 23.4912 33.3649 23.4795 33.3727 23.464C33.3727 23.464 33.3727 23.4601 33.3766 23.4601C33.396 23.4329 33.4115 23.4057 33.431 23.3785C33.4387 23.3669 33.4504 23.3552 33.4582 23.3435C33.4815 23.3241 33.5009 23.3008 33.5242 23.2814C33.5475 23.2619 33.5708 23.2425 33.5942 23.2231C33.6058 23.2153 33.6175 23.2037 33.6291 23.1959C33.633 23.1959 33.633 23.192 33.633 23.192C33.633 23.192 33.6369 23.1881 33.6408 23.1881C33.6641 23.1726 33.6874 23.1609 33.7107 23.1454C33.7418 23.1454 33.7729 23.1454 33.804 23.1493C33.9633 23.157 34.1187 23.1726 34.278 23.1998C34.3091 23.2037 34.3402 23.2114 34.3674 23.2153C34.3674 23.2153 34.3674 23.2153 34.3713 23.2153C34.3907 23.2192 34.4102 23.2231 34.4296 23.227C34.5073 23.2464 34.5811 23.2658 34.6589 23.2891C34.8104 23.3358 34.9542 23.3941 35.0979 23.4601C35.1096 23.464 35.1174 23.4718 35.129 23.4757C35.164 23.4951 35.199 23.5145 35.2339 23.5339C35.3039 23.5728 35.37 23.6155 35.436 23.6583C35.5021 23.7049 35.5642 23.7515 35.6264 23.8021C35.6614 23.8293 35.6964 23.8604 35.7274 23.8876C35.7313 23.8876 35.7313 23.8914 35.7313 23.8914C35.7546 23.9109 35.7741 23.9303 35.7974 23.9536C35.9217 24.0702 36.0422 24.1945 36.151 24.3266C36.2792 24.4743 36.423 24.6064 36.5473 24.758C36.6095 24.8318 36.6678 24.9095 36.73 24.9872C36.7688 25.0339 36.8077 25.0844 36.8582 25.1155C36.8737 25.1271 36.8971 25.1349 36.9126 25.1465C36.9281 25.1621 36.9437 25.1854 36.9592 25.2009C37.0525 25.3059 37.2235 25.1971 37.1652 25.0688C37.1496 25.03 37.1341 25.0028 37.1302 24.96C37.1263 24.9056 37.1069 24.8629 37.0836 24.8124C37.0408 24.723 36.9942 24.6414 36.9476 24.5559C36.8543 24.3888 36.7727 24.2023 36.6639 24.0469C36.4424 23.7321 36.1743 23.4485 35.8712 23.2153C35.3272 22.7995 34.655 22.5742 33.9788 22.512C33.9283 22.5081 33.8739 22.5042 33.8234 22.5003C33.8118 22.4692 33.7962 22.4382 33.7846 22.4071C33.7807 22.3993 33.7651 22.341 33.7768 22.3915C33.7729 22.3721 33.7651 22.3566 33.7612 22.3371C33.7535 22.306 33.7496 22.275 33.7418 22.2478C33.7379 22.2283 33.7379 22.2128 33.734 22.1934C33.734 22.1895 33.734 22.1895 33.734 22.1856C33.734 22.1856 33.734 22.1817 33.734 22.1778C33.734 22.1195 33.7379 22.0612 33.7457 22.0068C33.7535 21.9913 33.769 21.9719 33.7846 21.9524ZM37.6198 29.0284C37.5926 29.0012 37.5654 28.974 37.5382 28.9429C37.4683 28.8691 37.3906 28.7992 37.3128 28.737C37.2623 28.4922 37.204 28.2513 37.138 28.0104C37.1691 28.0725 37.2001 28.1386 37.2312 28.2008C37.3634 28.4766 37.4916 28.7525 37.6198 29.0284ZM33.2872 23.7127C33.2872 23.701 33.2911 23.6933 33.2911 23.6933C33.2911 23.701 33.2872 23.7088 33.2872 23.7127ZM33.4543 23.3435C33.4698 23.328 33.4659 23.3319 33.4543 23.3435V23.3435ZM26.8679 17.0719C26.8251 16.5279 26.763 15.9839 26.7319 15.4399C26.6969 14.7715 26.7125 14.0993 26.8407 13.4387C26.9029 13.1667 26.9883 12.9025 27.1049 12.6499C27.1826 12.5022 27.2759 12.3662 27.3808 12.238C27.4585 12.1564 27.544 12.0865 27.6334 12.0204C27.7266 11.966 27.8277 11.9233 27.9287 11.8844C28.0414 11.8533 28.1541 11.83 28.2706 11.8183C28.3833 11.8145 28.4999 11.8261 28.6126 11.8455C28.7603 11.8805 28.9001 11.931 29.0361 11.9971C29.2537 12.1137 29.4519 12.2613 29.6384 12.4206C30.027 12.782 30.3534 13.2056 30.6449 13.6485C31.0723 14.3286 31.422 15.0513 31.7096 15.8013C31.8145 16.0733 31.9116 16.3453 32.001 16.6212C32.2691 17.4644 32.4634 18.3309 32.5683 19.2091C32.5955 19.4383 32.6149 19.6715 32.6305 19.9046C32.6655 20.6235 32.6383 21.3424 32.5372 22.0574C32.51 22.2516 32.475 22.4459 32.4362 22.6363C32.3429 23.0677 32.2225 23.4912 32.1059 23.9148C31.8067 23.9614 31.5075 24.0197 31.2161 24.0857C30.606 24.2256 29.9959 24.416 29.4247 24.6686C29.3509 24.7036 29.2732 24.7346 29.1955 24.7696C29.1916 24.7696 29.1916 24.7696 29.1877 24.7696C29.075 24.8007 28.9662 24.8318 28.8574 24.8745C28.7603 24.9134 28.667 24.9561 28.5699 24.995C28.2162 25.1427 27.8743 25.3292 27.509 25.4574C27.5013 25.4613 27.4857 25.4652 27.4741 25.4691C27.4585 25.4729 27.443 25.4768 27.4391 25.4807C27.3925 25.4924 27.3419 25.504 27.2953 25.5157C27.2098 25.5351 27.1243 25.5468 27.035 25.5545C26.7591 25.5623 26.4832 25.5235 26.2112 25.4691C26.0402 25.4341 25.8731 25.3913 25.706 25.3408C25.6944 25.3369 25.6788 25.3331 25.6672 25.3292C25.741 25.1737 25.8032 25.0105 25.8537 24.8434C25.9664 24.4743 26.0363 24.0935 26.1102 23.7127C26.2267 23.1687 26.4249 22.648 26.5415 22.104C26.6619 21.5328 26.7552 20.9538 26.8213 20.3709C26.9495 19.279 26.9573 18.1755 26.8679 17.0719ZM15.0202 27.3031C14.3751 27.7539 13.7806 28.2746 13.1667 28.7642C13.4464 28.2396 13.769 27.7422 14.107 27.2526C14.414 26.8096 14.7326 26.3744 15.0746 25.9548C15.2572 25.7294 15.4437 25.5118 15.638 25.2942C16.1859 24.6919 16.7843 24.1285 17.441 23.6389C17.6159 23.5106 17.7907 23.3863 17.9734 23.2697C18.564 22.8967 19.1974 22.5858 19.8618 22.3643C20.4214 22.1895 21.0004 22.0768 21.591 22.0418C22.271 22.0107 22.9471 22.0651 23.6155 22.1739C23.6194 22.1739 23.6194 22.1778 23.6233 22.1778C23.8953 22.2788 24.1634 22.4032 24.4237 22.5314C24.482 22.5586 24.5403 22.5897 24.5986 22.6169C24.6336 22.6324 24.6685 22.6519 24.7035 22.6674C24.7152 22.6713 24.7268 22.6791 24.7385 22.683C24.7463 22.6869 24.754 22.6907 24.754 22.6907C24.7735 22.7024 24.7929 22.7102 24.8123 22.7218C24.8201 22.7257 24.8279 22.7296 24.8356 22.7335C24.8434 22.7412 24.8512 22.749 24.8589 22.7568C24.9289 22.8228 24.9949 22.8967 25.061 22.9744C25.0921 23.0094 25.1193 23.0443 25.1465 23.0832C25.162 23.1026 25.1776 23.1259 25.1931 23.1493C25.197 23.157 25.2048 23.1648 25.2087 23.1726C25.2125 23.1803 25.2125 23.1803 25.2125 23.1803C25.2125 23.1842 25.2164 23.1842 25.2164 23.1881C25.2397 23.227 25.2631 23.2658 25.2825 23.3047C25.2553 23.429 25.2281 23.5495 25.2009 23.6738C24.9872 23.5728 24.7657 23.4834 24.5403 23.4135C24.008 23.2503 23.4562 23.1765 22.9005 23.1726C21.7698 23.1648 20.6701 23.4407 19.6015 23.7943C19.3178 23.8876 19.0303 23.9769 18.7661 24.1168C18.6339 24.1906 18.4979 24.2684 18.3814 24.3694C18.3231 24.4199 18.2609 24.4743 18.2182 24.5365C18.1793 24.5986 18.1482 24.6647 18.121 24.7308C18.1055 24.7774 18.156 24.8318 18.2026 24.8046C18.2454 24.7813 18.292 24.7541 18.3347 24.7347C18.3891 24.7075 18.4358 24.6802 18.4902 24.6492C18.5912 24.5948 18.6922 24.5442 18.801 24.5054C18.8282 24.4937 18.8515 24.486 18.8787 24.4782C18.8904 24.4743 18.9059 24.4704 18.9176 24.4665C18.9176 24.4665 18.9526 24.4549 18.9293 24.4626C19.007 24.4393 19.0419 24.4238 19.1041 24.4082C19.2129 24.3772 19.3217 24.3461 19.4305 24.315C19.8929 24.1829 20.3631 24.0624 20.8372 23.973C21.0742 23.9264 21.3151 23.8876 21.556 23.8565C21.6726 23.8409 21.7892 23.8293 21.9096 23.8176C21.9718 23.8137 22.0301 23.8059 22.0923 23.8021C22.1 23.8021 22.1272 23.8021 22.135 23.7982C22.1622 23.7982 22.1933 23.7943 22.2205 23.7943C22.6907 23.7749 23.1609 23.7982 23.6233 23.8759C23.6582 23.8837 23.6932 23.8876 23.7243 23.8953C23.736 23.8992 23.7476 23.8992 23.7593 23.9031C23.8214 23.9148 23.8836 23.9303 23.9419 23.9458C24.0701 23.9769 24.1945 24.008 24.3227 24.0469C24.5636 24.1207 24.7929 24.214 25.0183 24.3266C25.0299 24.3344 25.0416 24.3383 25.0532 24.3461C24.9911 24.5831 24.9133 24.8162 24.8084 25.0377C24.8007 25.0455 24.7929 25.0494 24.7812 25.0572C24.7735 25.0611 24.7385 25.0844 24.7385 25.0844C24.7152 25.096 24.6957 25.1116 24.6724 25.1232C24.5831 25.1776 24.4898 25.2243 24.3965 25.267C24.3654 25.2825 24.3305 25.2981 24.2994 25.3136C24.0157 25.267 23.7243 25.2398 23.4406 25.2165C23.021 25.1854 22.6013 25.166 22.1816 25.1699C21.3268 25.1737 20.4719 25.2437 19.6287 25.3991C18.8088 25.5507 18.0006 25.7877 17.2273 26.0986C16.4462 26.4133 15.708 26.8213 15.0202 27.3031ZM22.1234 23.7982C22.1156 23.8021 22.0573 23.8021 22.1117 23.7982C22.1156 23.7982 22.1195 23.7982 22.1234 23.7982ZM19.1974 39.8464C19.2013 39.8581 19.2013 39.8658 19.1974 39.8464V39.8464ZM19.8929 40.0446C19.889 40.0446 19.8813 40.0446 19.8696 40.0446C19.858 40.0446 19.8502 40.0407 19.8385 40.0407C19.8385 40.0407 19.823 40.0368 19.8152 40.0368C19.7414 40.0174 19.6637 40.0135 19.586 40.0018C19.4577 39.9824 19.3878 40.1184 19.4189 40.2233C19.3878 40.1884 19.3606 40.1534 19.3373 40.1184C19.3334 40.1145 19.3256 40.1068 19.3217 40.099C19.3178 40.0951 19.3139 40.0873 19.3139 40.0834C19.3101 40.0796 19.3101 40.0757 19.3062 40.0757C19.3062 40.0796 19.3101 40.0796 19.3101 40.0834C19.2984 40.064 19.2867 40.0446 19.2751 40.0252C19.2479 39.9746 19.2246 39.9202 19.2013 39.8658C19.1974 39.8581 19.1935 39.8386 19.1896 39.827C19.1857 39.8114 19.1818 39.7959 19.1818 39.7804C19.1818 39.7687 19.1818 39.757 19.1818 39.7493C19.1818 39.7454 19.1818 39.7415 19.1818 39.7376C19.1857 39.7298 19.1857 39.7221 19.1896 39.7143C19.2479 39.6949 19.3062 39.656 19.3528 39.6172C19.3567 39.6172 19.3567 39.6172 19.3606 39.6172C19.3606 39.6172 19.3645 39.6172 19.3683 39.6172C19.3994 39.621 19.4305 39.621 19.4616 39.6249C19.4694 39.6249 19.4849 39.6288 19.4927 39.6327C19.516 39.6405 19.5393 39.6444 19.5587 39.6521C19.5859 39.6599 19.6132 39.6716 19.6404 39.6832C19.6481 39.6871 19.6598 39.691 19.6676 39.6949C19.6714 39.6988 19.6753 39.6988 19.6831 39.7026C19.7336 39.7298 19.7841 39.757 19.8308 39.7881C19.8502 39.8037 19.8735 39.8192 19.8929 39.8348C19.9007 39.8425 19.9124 39.8503 19.9201 39.8581L19.924 39.8619C19.9434 39.8814 19.9629 39.9008 19.9784 39.9241C19.9823 39.928 19.9862 39.9358 19.9901 39.9397V39.9436C19.994 39.9513 19.9978 39.963 20.0017 39.9708V39.9669C20.0017 39.9669 20.0017 39.9708 20.0056 39.9785V39.9824V39.9863C20.0056 39.9863 20.0056 39.9863 20.0056 39.9902V39.9863V39.9902V39.9941C20.0056 39.9941 20.0056 39.9941 20.0017 39.998L19.9978 40.0018L20.0017 39.998C20.0017 40.0018 19.9978 40.0057 19.9978 40.0096V40.0135C19.9978 40.0135 19.994 40.0135 19.994 40.0096C19.994 40.0135 19.9901 40.0135 19.9901 40.0135C19.9901 40.0135 19.9901 40.0135 19.994 40.0096C19.994 40.0096 19.9901 40.0096 19.9901 40.0135L19.994 40.0096L19.9901 40.0135L19.9862 40.0174C19.9745 40.0252 19.9551 40.029 19.9512 40.029C19.9396 40.0329 19.9318 40.0407 19.9201 40.0446H19.9162C19.9124 40.0446 19.9124 40.0446 19.9085 40.0446C19.9085 40.0407 19.9007 40.0407 19.8929 40.0446ZM19.3683 39.6133C19.3761 39.6133 19.3839 39.6094 19.3839 39.6133C19.3839 39.6133 19.3761 39.6133 19.3683 39.6133ZM19.4849 39.6249C19.4694 39.621 19.4538 39.6172 19.4849 39.6249V39.6249ZM20.0095 39.9824C20.0134 39.9824 20.0134 39.9824 20.0095 39.9824C20.0134 39.9824 20.0134 39.9824 20.0095 39.9824C20.0134 39.9863 20.0134 39.9863 20.0095 39.9824C20.0095 39.9863 20.0095 39.9863 20.0095 39.9863C20.0134 39.9863 20.0134 39.9863 20.0095 39.9824C20.0095 39.9863 20.0095 39.9863 20.0095 39.9863C20.0134 39.9863 20.0134 39.9863 20.0095 39.9824C20.0095 39.9863 20.0095 39.9863 20.0095 39.9824ZM20.0134 39.9863C20.0134 39.9863 20.0134 39.9902 20.0134 39.9863C20.0134 39.9902 20.0134 39.9902 20.0134 39.9863C20.0134 39.9902 20.0134 39.9902 20.0134 39.9863C20.0134 39.9902 20.0134 39.9863 20.0134 39.9863ZM20.0017 40.0096C20.0017 40.0057 20.0056 40.0018 20.0095 39.9941C20.0134 40.0096 20.0095 40.0135 20.0017 40.0096ZM20.7595 40.5536C20.7323 40.5692 20.7051 40.5808 20.6779 40.5925C20.6662 40.5964 20.6507 40.6041 20.6351 40.608C20.5885 40.6275 20.6351 40.6119 20.6545 40.6041C20.6079 40.6275 20.5457 40.6313 20.4952 40.6391C20.468 40.643 20.4408 40.6469 20.4136 40.6508C20.402 40.6508 20.3903 40.6547 20.3825 40.6547C20.332 40.6547 20.2776 40.6546 20.2271 40.6508C20.196 40.6469 20.1649 40.643 20.1338 40.6391C20.1222 40.6391 20.1105 40.6352 20.0989 40.6352C20.0911 40.6313 20.0794 40.6313 20.0717 40.6275C20.0561 40.6236 20.0406 40.6197 20.025 40.6158C19.9978 40.608 19.9706 40.6003 19.9434 40.5886C19.9007 40.5731 19.8541 40.5536 19.8113 40.5342C19.753 40.5031 19.6986 40.4681 19.6481 40.4332C19.7336 40.472 19.8346 40.4953 19.9357 40.5031C20.1377 40.5186 20.3437 40.4215 20.4408 40.2428C20.4719 40.1884 20.4913 40.1301 20.4991 40.0757C20.5496 40.1106 20.6001 40.1495 20.6468 40.1922C20.6856 40.2272 20.7206 40.2661 20.7517 40.3088C20.7595 40.3205 20.7672 40.3282 20.775 40.3399C20.7867 40.3593 20.7944 40.3788 20.8061 40.4021C20.81 40.406 20.8139 40.4137 20.8177 40.4254C20.8177 40.4293 20.8216 40.4293 20.8216 40.4332C20.8216 40.4293 20.8216 40.4254 20.8177 40.4254C20.8177 40.4215 20.8139 40.4176 20.8139 40.4176C20.81 40.4137 20.81 40.4098 20.8061 40.4021C20.8022 40.3982 20.8022 40.4021 20.8177 40.437C20.7983 40.4759 20.7828 40.5148 20.7711 40.5536C20.7711 40.5458 20.7672 40.5497 20.7595 40.5536ZM29.5219 32.0788C29.0361 32.6966 28.5388 33.3067 28.0297 33.9051C27.7577 34.2237 27.4857 34.5384 27.2059 34.8493C26.7047 35.4011 26.1879 35.9412 25.6206 36.423C25.5895 36.4502 25.5623 36.4736 25.5312 36.5008C25.5156 36.5085 25.504 36.5202 25.4923 36.5318C25.1309 36.8272 24.7579 37.1069 24.3654 37.3634C23.7709 37.7403 23.1453 38.0512 22.477 38.2688C22.5119 38.2571 22.5469 38.2455 22.5819 38.2338C22.4653 38.2727 22.3487 38.3115 22.236 38.3504C22.1156 38.3854 21.9874 38.4126 21.8786 38.4786C21.7814 38.5369 21.6843 38.5952 21.5871 38.6535C21.4861 38.7118 21.4084 38.8245 21.4395 38.9449C21.4667 39.0693 21.5599 39.1431 21.6843 39.1625C21.7387 39.1742 21.797 39.1819 21.8514 39.1897C21.7931 39.248 21.7387 39.3063 21.6843 39.3607C21.5405 39.5083 21.3967 39.6521 21.2607 39.8037C21.2568 39.7998 21.2529 39.7959 21.2529 39.792C20.9693 39.4773 20.5729 39.2635 20.1727 39.1353C20.0717 39.1003 19.9668 39.0731 19.8618 39.0537C19.9162 38.9838 19.9668 38.9138 20.0173 38.84C20.13 38.6729 20.2388 38.4903 20.3126 38.3038C20.3553 38.195 20.367 38.0706 20.3748 37.9502C20.3786 37.8958 20.3825 37.8336 20.3825 37.7753C20.3942 37.7209 20.402 37.6665 20.4097 37.6082C20.4253 37.4489 20.4253 37.2935 20.4175 37.138C20.4058 36.7844 20.3786 36.4347 20.3476 36.0811C20.332 35.9101 20.3204 35.7391 20.3087 35.5682C20.2854 35.1407 20.2893 34.7094 20.367 34.2898C20.3748 34.2626 20.3786 34.2354 20.3864 34.2082C20.4408 34.0022 20.5185 33.8002 20.604 33.602C20.6973 33.3766 20.8022 33.159 20.911 32.9414C21.2801 32.2186 21.6998 31.5231 22.0806 30.8081C22.4847 30.0465 22.8617 29.2693 23.2075 28.4805C23.3979 28.0492 23.5572 27.6062 23.7126 27.1633C23.7204 27.1399 23.7282 27.1127 23.7321 27.0855C23.8797 27.105 24.0235 27.1166 24.1712 27.1438C24.175 27.1438 24.175 27.1438 24.1789 27.1438C24.1673 27.1399 24.1595 27.1399 24.1478 27.1361C24.1595 27.1399 24.1712 27.1399 24.1828 27.1438C24.1867 27.1438 24.1906 27.1438 24.1945 27.1477C24.2061 27.1516 24.2217 27.1516 24.2333 27.1555C24.245 27.1594 24.2566 27.1594 24.2683 27.1633C24.2722 27.1633 24.2761 27.1633 24.28 27.1671C24.2838 27.1671 24.2877 27.1671 24.2916 27.171C24.3188 27.1788 24.3499 27.1827 24.3771 27.1866C24.3849 27.1866 24.3926 27.1905 24.4004 27.1905C24.5015 27.2138 24.6025 27.2332 24.7035 27.2371C24.8162 27.2682 24.9328 27.2954 25.0455 27.3342C25.2397 27.4081 25.3757 27.1283 25.2087 27.0117C25.1232 26.9534 25.0377 26.8913 24.9522 26.833C24.9405 26.8252 24.9328 26.8174 24.9211 26.8135C24.9172 26.8135 24.9172 26.8097 24.9133 26.8097C24.8939 26.7941 24.8939 26.7941 24.9095 26.8097C24.9133 26.8135 24.9172 26.8174 24.9211 26.8213C24.9017 26.8019 24.8823 26.7863 24.8628 26.7708C24.8551 26.763 24.8434 26.7552 24.8356 26.7475C24.7968 26.7125 24.7501 26.6892 24.7035 26.662C24.4976 26.5571 24.2877 26.4716 24.0662 26.3978C23.6427 26.2618 23.1842 26.2268 22.7412 26.219C21.8552 26.2035 20.9654 26.3395 20.0989 26.5143C19.2362 26.6853 18.3775 26.8835 17.5343 27.1283C17.1768 27.2293 16.8193 27.342 16.4657 27.4625C16.9125 27.2138 17.3788 26.9962 17.8607 26.8135C18.0355 26.7475 18.2143 26.6853 18.393 26.6231C19.1779 26.3744 19.9862 26.2074 20.8022 26.1141C21.0353 26.0869 21.2724 26.0675 21.5055 26.0558C22.0884 26.0247 22.6751 26.0325 23.258 26.0675C23.6699 26.0947 24.0857 26.1296 24.4976 26.1724C24.5092 26.1763 24.5248 26.1802 24.5364 26.1879C24.8589 26.3084 25.1853 26.4288 25.5195 26.5066C25.8148 26.5765 26.1063 26.6193 26.4055 26.6193C26.4249 26.6426 26.456 26.6542 26.4871 26.662C26.5376 26.6736 26.592 26.6814 26.6386 26.7047C26.6697 26.7203 26.6969 26.7436 26.7319 26.7591C26.763 26.7708 26.7979 26.7786 26.8329 26.7902C26.8912 26.8097 26.9534 26.833 27.0117 26.8524C27.0389 26.8641 27.0661 26.8718 27.0894 26.8835C27.0894 26.8835 27.1515 26.9029 27.1205 26.8913C27.0777 26.8796 27.1826 26.9184 27.1982 26.9223C27.443 26.9962 27.6761 27.0972 27.9054 27.2021C27.9598 27.2254 28.0142 27.2526 28.0686 27.2798C28.0841 27.2876 28.0997 27.2954 28.1152 27.3031C28.1191 27.3031 28.1269 27.3109 28.1346 27.3148C28.1424 27.3187 28.1502 27.3226 28.1502 27.3226C28.1657 27.3303 28.1813 27.3381 28.1968 27.3459C28.3134 27.4081 28.4261 27.4702 28.5349 27.5402C28.7525 27.6723 28.9584 27.82 29.1605 27.9754C29.2615 28.0531 29.3587 28.1347 29.4558 28.2202C29.4597 28.2241 29.4597 28.2241 29.4636 28.228C29.4675 28.228 29.4675 28.2318 29.4714 28.2318C29.4752 28.2357 29.4791 28.2396 29.483 28.2435L29.4869 28.2474C29.4869 28.2474 29.4869 28.2474 29.483 28.2435C29.5024 28.2629 29.5258 28.2824 29.5452 28.3018C29.5918 28.3445 29.6346 28.3912 29.6812 28.4339C29.8599 28.6126 30.0309 28.8031 30.1863 29.0051C30.264 29.1061 30.3379 29.2072 30.4117 29.3121C30.4195 29.3237 30.4273 29.3393 30.4389 29.3509C30.4389 29.3587 30.4428 29.3626 30.4467 29.3704C30.4622 29.4015 30.4778 29.4364 30.4894 29.4714C30.4972 29.4869 30.5011 29.5025 30.505 29.5219C30.5089 29.5336 30.5283 29.5802 30.5166 29.5452C30.5322 29.5919 30.5516 29.6346 30.5671 29.6812C30.571 29.6851 30.571 29.6929 30.5749 29.6968C30.5788 29.7162 30.5866 29.7395 30.5905 29.7589C30.5982 29.7939 30.606 29.8289 30.6099 29.86C30.6138 29.8794 30.6177 29.8988 30.6177 29.9222C30.6177 29.926 30.6177 29.9377 30.6215 29.9494C30.6215 29.9494 30.6215 29.9843 30.6215 29.9882C30.6215 30.0076 30.6215 30.0232 30.6215 30.0426C30.6215 30.0854 30.6215 30.1242 30.6215 30.167C30.6215 30.2058 30.6177 30.2447 30.6099 30.2835C30.606 30.303 30.606 30.3185 30.6021 30.3379C30.6021 30.3457 30.5943 30.3846 30.5943 30.3884C30.5905 30.3962 30.5905 30.404 30.5905 30.4079C30.5866 30.4234 30.5827 30.4428 30.5788 30.4584C30.5671 30.505 30.5516 30.5516 30.5322 30.5944C30.5011 30.6838 30.4583 30.7693 30.4195 30.8547C30.4117 30.8742 30.4 30.8936 30.3923 30.913C30.3923 30.913 30.3884 30.9169 30.3884 30.9208C30.3651 30.9674 30.3379 31.0102 30.3146 31.0568C30.3107 31.0646 30.3068 31.0723 30.3029 31.0762C30.0426 31.4143 29.7822 31.7485 29.5219 32.0788ZM24.3965 27.1905C24.4315 27.1943 24.416 27.1943 24.3965 27.1905V27.1905ZM32.7471 36.5668C32.6072 35.5099 32.5256 34.4452 32.4012 33.3844C32.2847 32.3818 32.1059 31.3871 31.7562 30.439C31.3909 29.452 30.8119 28.566 30.027 27.8627C29.6462 27.5208 29.2227 27.2293 28.7641 26.9923C28.5232 26.8679 28.2745 26.7514 28.0181 26.662C27.8121 26.592 27.5984 26.5182 27.3847 26.4755C27.4158 26.4755 27.4508 26.4716 27.4818 26.4677C27.4896 26.4677 27.4974 26.4677 27.509 26.4638C27.5285 26.4638 27.5518 26.4638 27.5712 26.4638C27.6489 26.4638 27.7305 26.4638 27.8082 26.4716C27.8316 26.4755 27.8549 26.4755 27.8743 26.4794C27.8782 26.4794 27.886 26.4833 27.8976 26.4833C27.8937 26.4833 27.8898 26.4794 27.8821 26.4794C27.9404 26.4988 28.0025 26.5027 28.0608 26.5143C28.0647 26.5143 28.0686 26.5143 28.0725 26.5182C28.0841 26.5221 28.0997 26.526 28.1113 26.526C28.1541 26.5376 28.2007 26.5493 28.2434 26.561C28.3212 26.5804 28.3989 26.6037 28.4766 26.627C28.6437 26.6814 28.8069 26.7514 28.9662 26.8291C28.9623 26.8291 28.9623 26.8252 28.9584 26.8252C28.9895 26.8407 29.0167 26.8524 29.0478 26.8679C29.4014 27.0545 29.7278 27.2876 30.027 27.5518C30.5127 27.9987 30.9402 28.5038 31.3015 29.0595C31.694 29.6812 32.0126 30.3457 32.2691 31.0335C32.3313 31.2006 32.3896 31.3677 32.444 31.5347C32.7004 32.3469 32.8792 33.1823 32.9724 34.0255C32.9996 34.2587 33.0191 34.4879 33.0307 34.7211C33.0579 35.2612 33.0579 35.8013 33.0229 36.3453C33.0035 36.629 32.9763 36.9088 32.9375 37.1885C32.9219 37.3051 32.9064 37.4178 32.8908 37.5344C32.8325 37.2119 32.7898 36.8893 32.7471 36.5668ZM34.7482 38.4242C34.6045 38.5758 34.4451 38.7118 34.2742 38.8322C34.2081 38.8711 34.142 38.9099 34.0721 38.941C34.041 38.9566 34.006 38.9643 33.975 38.9799C33.9711 38.9799 33.9672 38.9838 33.9594 38.9838C33.94 38.9877 33.9206 38.9915 33.9011 38.9993C33.8584 39.0071 33.8156 39.0149 33.7729 39.0187C33.769 39.0187 33.7651 39.0187 33.7612 39.0187C33.769 39.0187 33.7729 39.0187 33.7846 39.0187C33.7651 39.0187 33.7457 39.0187 33.7263 39.0187C33.703 39.0187 33.6835 39.0149 33.6602 39.0149C33.6641 39.0149 33.668 39.0187 33.6758 39.0187C33.6719 39.0187 33.6641 39.0149 33.6602 39.0149C33.6291 39.011 33.5864 38.9915 33.6369 39.0071C33.6252 39.0032 33.6097 38.9993 33.598 38.9954C33.5942 38.9915 33.5864 38.9877 33.5825 38.9838C33.5786 38.9799 33.5786 38.976 33.5747 38.9721C33.5708 38.9721 33.5631 38.9605 33.5553 38.9488C33.5514 38.9449 33.5475 38.9371 33.5436 38.9333C33.5475 38.9371 33.5514 38.941 33.5553 38.9449C33.5553 38.941 33.5514 38.941 33.5514 38.9371C33.5436 38.9216 33.5359 38.906 33.5281 38.8905C33.5281 38.8866 33.5242 38.8827 33.5242 38.8789C33.5242 38.8866 33.5203 38.8827 33.5164 38.8555C33.5164 38.8517 33.5164 38.8517 33.5164 38.8478V38.8439C33.5087 38.8089 33.5009 38.7739 33.4931 38.7351C33.4892 38.7079 33.4854 38.6846 33.4815 38.6574C33.5164 38.5563 33.5514 38.4514 33.5825 38.3465C33.6719 38.0667 33.7496 37.7831 33.7923 37.4916C33.8739 36.9671 33.9244 36.4347 33.94 35.9024C33.975 34.8143 33.8778 33.7186 33.6486 32.65C33.4115 31.5542 33.0463 30.4739 32.5295 29.4792C31.9777 28.4106 31.2355 27.4081 30.2602 26.6931C29.9493 26.4638 29.6112 26.2656 29.2499 26.1219C29.2382 26.083 29.2304 26.048 29.2149 26.0092C29.2149 26.0053 29.2071 25.9975 29.2071 25.9897C29.2071 25.9859 29.2071 25.982 29.2032 25.9781C29.1955 25.9548 29.1916 25.9276 29.1838 25.9043C29.1799 25.8926 29.1799 25.881 29.1799 25.8693C29.1799 25.8654 29.1683 25.811 29.176 25.8499C29.1838 25.8848 29.176 25.8382 29.176 25.8304C29.176 25.8149 29.176 25.7994 29.1799 25.7799V25.776C29.1799 25.776 29.1799 25.7722 29.1799 25.7605V25.7566C29.1799 25.7527 29.1799 25.7527 29.1799 25.7488V25.7527C29.1838 25.7411 29.1877 25.7294 29.1916 25.7216C29.1955 25.7177 29.1993 25.7061 29.2032 25.6983C29.2149 25.6789 29.2265 25.6633 29.2421 25.6439C29.2421 25.64 29.246 25.64 29.246 25.6362C29.246 25.6362 29.246 25.6361 29.2499 25.6323C29.2654 25.6167 29.2809 25.6012 29.2965 25.5895C29.3431 25.5468 29.3936 25.5118 29.4442 25.4768C29.4442 25.4768 29.4441 25.4768 29.448 25.4768C29.4597 25.4691 29.4675 25.4652 29.4791 25.4574C29.5063 25.4419 29.5335 25.4263 29.5568 25.4108C29.6579 25.3564 29.7628 25.3097 29.8716 25.2709C29.8716 25.2709 29.8871 25.267 29.8988 25.2631C29.9104 25.2592 29.9221 25.2553 29.9221 25.2553C29.9454 25.2476 29.9687 25.2437 29.992 25.2359C30.0503 25.2204 30.1086 25.2087 30.1708 25.1971C30.2252 25.1893 30.2796 25.1815 30.334 25.1737C30.3612 25.1699 30.3884 25.1699 30.4156 25.166C30.4195 25.166 30.4195 25.166 30.4234 25.166C30.4428 25.166 30.4583 25.166 30.4778 25.166C30.5905 25.166 30.7031 25.1699 30.8119 25.1854C30.9674 25.2087 31.0412 25.2243 31.1927 25.2709C31.2161 25.2787 31.2394 25.2864 31.2627 25.2942C31.5192 25.4496 31.7523 25.64 31.9777 25.8382C32.3857 26.2112 32.7471 26.6309 33.0735 27.0739C33.1589 27.1905 33.2405 27.307 33.3222 27.4236C33.361 27.478 33.396 27.5363 33.4348 27.5946V27.5985C33.4387 27.6024 33.4426 27.6101 33.4426 27.614C33.4426 27.6179 33.4465 27.6218 33.4465 27.6218C33.4504 27.6257 33.4504 27.6295 33.4543 27.6334C33.4543 27.6295 33.4504 27.6295 33.4504 27.6257C33.4698 27.6567 33.4892 27.6878 33.5087 27.7189C33.6563 27.9598 33.7962 28.2085 33.9206 28.4611C34.0332 28.6904 34.1343 28.9274 34.2236 29.1683C34.2431 29.2188 34.2586 29.2732 34.278 29.3237C34.2858 29.3432 34.3169 29.4559 34.2897 29.3509C34.2975 29.382 34.3091 29.4131 34.3169 29.4442C34.3519 29.5608 34.3869 29.6812 34.4141 29.7978C34.5306 30.268 34.6278 30.7382 34.6666 31.2239C34.6705 31.255 34.6705 31.2861 34.6744 31.321C34.6744 31.3327 34.6744 31.3482 34.6783 31.3599C34.6783 31.3638 34.6783 31.3638 34.6783 31.3638C34.6783 31.3638 34.6783 31.3677 34.6783 31.3715C34.6822 31.4376 34.6861 31.5076 34.6861 31.5736C34.6899 31.7096 34.6899 31.8456 34.6861 31.9816C34.6861 32.0477 34.6861 32.1176 34.6822 32.1837C34.6822 32.2614 34.6938 32.3352 34.6977 32.4129C34.7016 32.4479 34.7133 32.479 34.721 32.5101C34.7288 32.5373 34.7249 32.5645 34.7249 32.5917C34.7249 32.6266 34.7327 32.6539 34.7405 32.6888C34.7482 32.7277 34.7482 32.7665 34.7482 32.8054C34.7482 32.8598 34.8182 32.8753 34.8376 32.8248C34.8531 32.7899 34.8648 32.7549 34.8842 32.7199C34.9075 32.6849 34.927 32.6577 34.9386 32.615C34.9658 32.5373 35.0125 32.4673 35.0397 32.3896C35.0941 32.2264 35.1213 32.0554 35.1446 31.8845C35.1834 31.5697 35.1951 31.255 35.1873 30.9402C35.1795 30.6061 35.1524 30.2719 35.1018 29.9416C35.0513 29.6074 34.9581 29.281 34.8531 28.9585C34.6239 28.2513 34.2742 27.5985 33.8739 26.9767C33.5475 26.4677 33.1745 26.0014 32.7548 25.574C32.7043 25.4768 32.6577 25.3836 32.6111 25.2864C32.58 25.2243 32.5528 25.1582 32.5295 25.096C32.5295 25.0921 32.5256 25.0921 32.5256 25.0883V25.0844C32.5217 25.0688 32.5178 25.0533 32.5139 25.0377C32.5061 24.9989 32.4984 24.96 32.4945 24.9173C32.4945 24.9017 32.4945 24.8862 32.4945 24.8707C32.4945 24.8551 32.4945 24.8357 32.4984 24.8201C32.5023 24.8124 32.5061 24.8046 32.5061 24.8007C32.5178 24.7696 32.5295 24.7385 32.5411 24.7074C32.5411 24.7074 32.5411 24.7075 32.5411 24.7036C32.5411 24.6997 32.545 24.6997 32.545 24.6958C32.5567 24.6803 32.5644 24.6608 32.5761 24.6453C32.5839 24.6375 32.5877 24.6259 32.5955 24.6181C32.7276 24.6064 32.8597 24.5948 32.9957 24.587C33.2794 24.5753 33.5631 24.5831 33.8428 24.6336C34.0022 24.6686 34.1537 24.7191 34.3014 24.7891C34.4374 24.8629 34.5617 24.9523 34.6783 25.0494C34.7133 25.0844 34.7443 25.1155 34.7793 25.1504C34.8415 25.2243 34.9075 25.302 34.9658 25.3797C35.0435 25.4768 35.1174 25.5779 35.1912 25.6789C35.2223 25.7255 35.2534 25.7721 35.2883 25.8149C35.2922 25.8188 35.2961 25.8227 35.2961 25.8265C35.2961 25.8265 35.2961 25.8266 35.2961 25.8304C35.3156 25.8576 35.3311 25.8887 35.3505 25.9159C35.5953 26.3162 35.8129 26.7397 35.9956 27.171C36.0927 27.3925 36.1782 27.6218 36.252 27.851C36.3297 28.0958 36.3958 28.3406 36.4502 28.5893C36.4385 28.636 36.4502 28.6787 36.4774 28.7176C36.5473 29.0517 36.6017 29.3898 36.6367 29.7317C36.6561 29.8988 36.6678 30.0698 36.6795 30.2408C36.73 31.2122 36.66 32.1837 36.5085 33.1435C36.4696 33.3999 36.4191 33.6603 36.3686 33.9167C36.2753 34.3675 36.1626 34.8105 36.0461 35.2534C35.914 35.7702 35.7818 36.287 35.607 36.7922C35.5098 37.0681 35.401 37.344 35.2689 37.6082C35.1407 37.9035 34.9619 38.1755 34.7482 38.4242Z" fill="#444444"/>
<path d="M33.6599 39.0109C33.6522 39.007 33.6445 39.007 33.6367 39.0032C33.6445 39.007 33.6522 39.0109 33.6599 39.0109Z" fill="#636363"/>
<path d="M29.4761 28.243C29.4685 28.2353 29.4609 28.2315 29.4571 28.2239C29.438 28.2125 29.4228 28.2049 29.4761 28.243Z" fill="#636363"/>
<path d="M33.4572 27.6366L33.4534 27.6327C33.4496 27.6251 33.4419 27.6175 33.4381 27.6099C33.4305 27.5947 33.4229 27.587 33.4572 27.6366Z" fill="#636363"/>
<path d="M29.1836 25.7605C29.1836 25.7605 29.1836 25.7644 29.1836 25.7605C29.1836 25.7682 29.1797 25.776 29.1797 25.7837C29.1797 25.7837 29.1874 25.776 29.1836 25.7605Z" fill="#636363"/>
<circle cx="27.9475" cy="30.1633" r="1.18775" fill="#F0EBDF"/>
<circle cx="26.7634" cy="33.3308" r="0.659859" fill="#F0EBDF"/>
<circle cx="26.4334" cy="27.8539" r="0.32993" fill="#F0EBDF"/>
<circle cx="25.2429" cy="31.2851" r="0.461902" fill="#F0EBDF"/>
<circle cx="24.2538" cy="34.9144" r="0.923803" fill="#F0EBDF"/>
</svg>
