<svg width="232" height="75" viewBox="0 0 232 75" fill="none" xmlns="http://www.w3.org/2000/svg">
<path d="M3.70013 47.7386C3.55346 47.7386 3.44013 47.6919 3.36013 47.5986C3.28013 47.5052 3.25346 47.3852 3.28013 47.2386L5.50013 36.8786H1.94013C1.80679 36.8786 1.70013 36.8319 1.62013 36.7386C1.54013 36.6319 1.51346 36.5119 1.54013 36.3786L2.00013 34.2386C2.02679 34.0919 2.09346 33.9719 2.20013 33.8786C2.32013 33.7852 2.45346 33.7386 2.60013 33.7386H13.3601C13.5068 33.7386 13.6135 33.7852 13.6801 33.8786C13.7601 33.9719 13.7868 34.0919 13.7601 34.2386L13.3001 36.3786C13.2735 36.5119 13.2001 36.6319 13.0801 36.7386C12.9735 36.8319 12.8468 36.8786 12.7001 36.8786H9.14013L6.94013 47.2386C6.91346 47.3852 6.84013 47.5052 6.72013 47.5986C6.61346 47.6919 6.48679 47.7386 6.34013 47.7386H3.70013Z" fill="url(#paint0_linear_120_9)"/>
<path d="M13.1792 47.7386C13.0459 47.7386 12.9392 47.6919 12.8592 47.5986C12.7792 47.5052 12.7525 47.3852 12.7792 47.2386L15.5392 34.2386C15.5659 34.0919 15.6392 33.9719 15.7592 33.8786C15.8792 33.7852 16.0059 33.7386 16.1392 33.7386H18.7192C18.8659 33.7386 18.9792 33.7852 19.0592 33.8786C19.1392 33.9719 19.1659 34.0919 19.1392 34.2386L18.0992 39.0586H23.0392L24.0592 34.2386C24.0859 34.0919 24.1525 33.9719 24.2592 33.8786C24.3792 33.7852 24.5125 33.7386 24.6592 33.7386H27.2392C27.3859 33.7386 27.4992 33.7852 27.5792 33.8786C27.6592 33.9719 27.6859 34.0919 27.6592 34.2386L24.8792 47.2386C24.8525 47.3852 24.7792 47.5052 24.6592 47.5986C24.5525 47.6919 24.4259 47.7386 24.2792 47.7386H21.6992C21.5525 47.7386 21.4392 47.6919 21.3592 47.5986C21.2925 47.5052 21.2725 47.3852 21.2992 47.2386L22.3592 42.2586H17.4392L16.3592 47.2386C16.3325 47.3852 16.2592 47.5052 16.1392 47.5986C16.0325 47.6919 15.9059 47.7386 15.7592 47.7386H13.1792Z" fill="url(#paint1_linear_120_9)"/>
<path d="M28.0815 47.7386C27.9482 47.7386 27.8415 47.6919 27.7615 47.5986C27.6815 47.5052 27.6549 47.3852 27.6815 47.2386L30.4415 34.2386C30.4682 34.0919 30.5415 33.9719 30.6615 33.8786C30.7815 33.7852 30.9082 33.7386 31.0415 33.7386H40.3815C40.5282 33.7386 40.6349 33.7852 40.7015 33.8786C40.7815 33.9719 40.8082 34.0919 40.7815 34.2386L40.4015 36.1186C40.3749 36.2652 40.3015 36.3852 40.1815 36.4786C40.0615 36.5719 39.9282 36.6186 39.7815 36.6186H33.4015L32.8215 39.3186H38.7415C38.8882 39.3186 39.0015 39.3719 39.0815 39.4786C39.1615 39.5719 39.1882 39.6919 39.1615 39.8386L38.7815 41.5786C38.7549 41.7119 38.6815 41.8319 38.5615 41.9386C38.4549 42.0319 38.3282 42.0786 38.1815 42.0786H32.2415L31.6615 44.8586H38.1815C38.3282 44.8586 38.4349 44.9052 38.5015 44.9986C38.5815 45.0919 38.6082 45.2119 38.5815 45.3586L38.1815 47.2386C38.1549 47.3852 38.0815 47.5052 37.9615 47.5986C37.8549 47.6919 37.7282 47.7386 37.5815 47.7386H28.0815Z" fill="url(#paint2_linear_120_9)"/>
<path d="M45.1714 47.7386C45.038 47.7386 44.9314 47.6919 44.8514 47.5986C44.7714 47.5052 44.7447 47.3852 44.7714 47.2386L47.5314 34.2386C47.558 34.0919 47.6314 33.9719 47.7514 33.8786C47.8714 33.7852 47.998 33.7386 48.1314 33.7386H53.9914C55.058 33.7386 55.9447 33.8986 56.6514 34.2186C57.3714 34.5386 57.878 34.9986 58.1714 35.5986C58.478 36.1852 58.5447 36.8852 58.3714 37.6986C58.2647 38.2052 58.078 38.6452 57.8114 39.0186C57.558 39.3786 57.278 39.6719 56.9714 39.8986C56.678 40.1252 56.398 40.2919 56.1314 40.3986C56.598 40.6652 56.9714 41.0652 57.2514 41.5986C57.5314 42.1319 57.5914 42.7652 57.4314 43.4986C57.2447 44.3786 56.918 45.1386 56.4514 45.7786C55.998 46.4052 55.378 46.8919 54.5914 47.2386C53.818 47.5719 52.858 47.7386 51.7114 47.7386H45.1714ZM48.8114 45.1386H51.5914C52.1514 45.1386 52.618 44.9719 52.9914 44.6386C53.3647 44.3052 53.598 43.9252 53.6914 43.4986C53.798 43.0319 53.7447 42.6386 53.5314 42.3186C53.3314 41.9986 52.9247 41.8386 52.3114 41.8386H49.5114L48.8114 45.1386ZM50.0514 39.2986H52.6114C53.158 39.2986 53.6047 39.1586 53.9514 38.8786C54.298 38.5986 54.518 38.2386 54.6114 37.7986C54.7047 37.3719 54.658 37.0252 54.4714 36.7586C54.2847 36.4786 53.918 36.3386 53.3714 36.3386H50.6914L50.0514 39.2986Z" fill="url(#paint3_linear_120_9)"/>
<path d="M59.2534 47.7386C59.1201 47.7386 59.0134 47.6919 58.9334 47.5986C58.8534 47.5052 58.8267 47.3852 58.8534 47.2386L61.6134 34.2386C61.6401 34.0919 61.7134 33.9719 61.8334 33.8786C61.9534 33.7852 62.0801 33.7386 62.2134 33.7386H71.5534C71.7001 33.7386 71.8067 33.7852 71.8734 33.8786C71.9534 33.9719 71.9801 34.0919 71.9534 34.2386L71.5734 36.1186C71.5467 36.2652 71.4734 36.3852 71.3534 36.4786C71.2334 36.5719 71.1001 36.6186 70.9534 36.6186H64.5734L63.9934 39.3186H69.9134C70.0601 39.3186 70.1734 39.3719 70.2534 39.4786C70.3334 39.5719 70.3601 39.6919 70.3334 39.8386L69.9534 41.5786C69.9267 41.7119 69.8534 41.8319 69.7334 41.9386C69.6267 42.0319 69.5001 42.0786 69.3534 42.0786H63.4134L62.8334 44.8586H69.3534C69.5001 44.8586 69.6067 44.9052 69.6734 44.9986C69.7534 45.0919 69.7801 45.2119 69.7534 45.3586L69.3534 47.2386C69.3267 47.3852 69.2534 47.5052 69.1334 47.5986C69.0267 47.6919 68.9001 47.7386 68.7534 47.7386H59.2534Z" fill="url(#paint4_linear_120_9)"/>
<path d="M76.9673 47.9386C75.634 47.9386 74.5407 47.7519 73.6873 47.3786C72.8473 47.0052 72.2407 46.5119 71.8673 45.8986C71.5073 45.2719 71.3807 44.6119 71.4873 43.9186C71.514 43.8119 71.5673 43.7186 71.6473 43.6386C71.7406 43.5452 71.8473 43.4986 71.9673 43.4986H74.5273C74.714 43.4986 74.8473 43.5319 74.9273 43.5986C75.0073 43.6652 75.0873 43.7519 75.1673 43.8586C75.2207 44.0586 75.3273 44.2519 75.4873 44.4386C75.6473 44.6252 75.8673 44.7786 76.1473 44.8986C76.4406 45.0052 76.8007 45.0586 77.2273 45.0586C78.0007 45.0586 78.6207 44.9386 79.0873 44.6986C79.554 44.4586 79.8273 44.1319 79.9073 43.7186C79.9873 43.4252 79.934 43.1852 79.7473 42.9986C79.574 42.7986 79.2607 42.6252 78.8073 42.4786C78.3673 42.3186 77.774 42.1586 77.0273 41.9986C76.054 41.7852 75.254 41.4919 74.6273 41.1186C74.0007 40.7319 73.5607 40.2452 73.3073 39.6586C73.0673 39.0586 73.034 38.3452 73.2073 37.5186C73.474 36.2919 74.134 35.3252 75.1873 34.6186C76.2407 33.8986 77.6073 33.5386 79.2873 33.5386C80.154 33.5386 80.9207 33.6586 81.5873 33.8986C82.2673 34.1386 82.834 34.4586 83.2873 34.8586C83.7406 35.2586 84.0673 35.6852 84.2673 36.1386C84.4673 36.5786 84.534 37.0119 84.4673 37.4386C84.454 37.5452 84.4007 37.6452 84.3073 37.7386C84.214 37.8186 84.1073 37.8586 83.9873 37.8586H81.3073C81.174 37.8586 81.054 37.8319 80.9473 37.7786C80.854 37.7252 80.774 37.6386 80.7073 37.5186C80.7073 37.2252 80.554 36.9719 80.2473 36.7586C79.9406 36.5319 79.534 36.4186 79.0273 36.4186C78.454 36.4186 77.974 36.5252 77.5873 36.7386C77.2007 36.9386 76.9607 37.2519 76.8673 37.6786C76.8007 37.9452 76.834 38.1786 76.9673 38.3786C77.114 38.5786 77.3807 38.7519 77.7673 38.8986C78.1673 39.0452 78.714 39.1986 79.4073 39.3586C80.5807 39.5852 81.5007 39.8919 82.1673 40.2786C82.834 40.6519 83.2806 41.1252 83.5073 41.6986C83.7473 42.2719 83.7806 42.9719 83.6073 43.7986C83.314 45.1586 82.6006 46.1919 81.4673 46.8986C80.3473 47.5919 78.8473 47.9386 76.9673 47.9386Z" fill="url(#paint5_linear_120_9)"/>
<path d="M88.3095 47.7386C88.1628 47.7386 88.0495 47.6919 87.9695 47.5986C87.8895 47.5052 87.8628 47.3852 87.8895 47.2386L90.1095 36.8786H86.5495C86.4162 36.8786 86.3095 36.8319 86.2295 36.7386C86.1495 36.6319 86.1228 36.5119 86.1495 36.3786L86.6095 34.2386C86.6362 34.0919 86.7028 33.9719 86.8095 33.8786C86.9295 33.7852 87.0628 33.7386 87.2095 33.7386H97.9695C98.1162 33.7386 98.2228 33.7852 98.2895 33.8786C98.3695 33.9719 98.3962 34.0919 98.3695 34.2386L97.9095 36.3786C97.8828 36.5119 97.8095 36.6319 97.6895 36.7386C97.5828 36.8319 97.4562 36.8786 97.3095 36.8786H93.7495L91.5495 47.2386C91.5228 47.3852 91.4495 47.5052 91.3295 47.5986C91.2228 47.6919 91.0962 47.7386 90.9495 47.7386H88.3095Z" fill="url(#paint6_linear_120_9)"/>
<path d="M102.125 47.7386C101.991 47.7386 101.885 47.6919 101.805 47.5986C101.725 47.5052 101.698 47.3852 101.725 47.2386L104.485 34.2386C104.511 34.0919 104.585 33.9719 104.705 33.8786C104.825 33.7852 104.951 33.7386 105.085 33.7386H109.965C110.831 33.7386 111.625 33.8586 112.345 34.0986C113.078 34.3386 113.698 34.6919 114.205 35.1586C114.725 35.6119 115.091 36.1786 115.305 36.8586C115.531 37.5386 115.558 38.3186 115.385 39.1986C115.291 39.7852 115.198 40.2986 115.105 40.7386C115.011 41.1786 114.891 41.6852 114.745 42.2586C114.438 43.4986 113.998 44.5252 113.425 45.3386C112.851 46.1519 112.105 46.7586 111.185 47.1586C110.278 47.5452 109.131 47.7386 107.745 47.7386H102.125ZM105.825 44.8586H107.925C108.511 44.8586 109.011 44.7719 109.425 44.5986C109.851 44.4119 110.198 44.1252 110.465 43.7386C110.745 43.3519 110.958 42.8452 111.105 42.2186C111.198 41.8319 111.278 41.4852 111.345 41.1786C111.425 40.8719 111.491 40.5652 111.545 40.2586C111.611 39.9519 111.678 39.6119 111.745 39.2386C111.905 38.3319 111.805 37.6719 111.445 37.2586C111.085 36.8319 110.465 36.6186 109.585 36.6186H107.585L105.825 44.8586Z" fill="url(#paint7_linear_120_9)"/>
<path d="M116.441 47.7386C116.308 47.7386 116.201 47.6919 116.121 47.5986C116.041 47.5052 116.014 47.3852 116.041 47.2386L118.801 34.2386C118.828 34.0919 118.901 33.9719 119.021 33.8786C119.141 33.7852 119.268 33.7386 119.401 33.7386H128.741C128.888 33.7386 128.994 33.7852 129.061 33.8786C129.141 33.9719 129.168 34.0919 129.141 34.2386L128.761 36.1186C128.734 36.2652 128.661 36.3852 128.541 36.4786C128.421 36.5719 128.288 36.6186 128.141 36.6186H121.761L121.181 39.3186H127.101C127.248 39.3186 127.361 39.3719 127.441 39.4786C127.521 39.5719 127.548 39.6919 127.521 39.8386L127.141 41.5786C127.114 41.7119 127.041 41.8319 126.921 41.9386C126.814 42.0319 126.688 42.0786 126.541 42.0786H120.601L120.021 44.8586H126.541C126.688 44.8586 126.794 44.9052 126.861 44.9986C126.941 45.0919 126.968 45.2119 126.941 45.3586L126.541 47.2386C126.514 47.3852 126.441 47.5052 126.321 47.5986C126.214 47.6919 126.088 47.7386 125.941 47.7386H116.441Z" fill="url(#paint8_linear_120_9)"/>
<path d="M129.475 47.7386C129.328 47.7386 129.215 47.6919 129.135 47.5986C129.068 47.5052 129.048 47.3852 129.075 47.2386L131.835 34.2386C131.861 34.0919 131.935 33.9719 132.055 33.8786C132.175 33.7852 132.308 33.7386 132.455 33.7386H137.895C139.615 33.7386 140.881 34.1386 141.695 34.9386C142.521 35.7252 142.781 36.8452 142.475 38.2986C142.275 39.2452 141.875 40.0452 141.275 40.6986C140.688 41.3519 139.988 41.8452 139.175 42.1786L140.875 47.0986C140.888 47.1386 140.895 47.1719 140.895 47.1986C140.895 47.2252 140.888 47.2652 140.875 47.3186C140.861 47.4252 140.801 47.5252 140.695 47.6186C140.588 47.6986 140.475 47.7386 140.355 47.7386H137.715C137.461 47.7386 137.288 47.6786 137.195 47.5586C137.115 47.4252 137.055 47.3052 137.015 47.1986L135.675 42.7986H133.615L132.675 47.2386C132.648 47.3852 132.575 47.5052 132.455 47.5986C132.335 47.6919 132.201 47.7386 132.055 47.7386H129.475ZM134.215 39.9786H136.535C137.161 39.9786 137.661 39.8252 138.035 39.5186C138.408 39.2119 138.655 38.7919 138.775 38.2586C138.881 37.7386 138.815 37.3186 138.575 36.9986C138.348 36.6786 137.908 36.5186 137.255 36.5186L134.955 36.5186L134.215 39.9786Z" fill="url(#paint9_linear_120_9)"/>
<path d="M143.023 47.7386C142.876 47.7386 142.763 47.6919 142.683 47.5986C142.603 47.5052 142.576 47.3852 142.603 47.2386L145.383 34.2386C145.41 34.0919 145.483 33.9719 145.603 33.8786C145.723 33.7852 145.85 33.7386 145.983 33.7386H148.683C148.816 33.7386 148.923 33.7852 149.003 33.8786C149.083 33.9719 149.11 34.0919 149.083 34.2386L146.303 47.2386C146.276 47.3852 146.203 47.5052 146.083 47.5986C145.976 47.6919 145.856 47.7386 145.723 47.7386H143.023Z" fill="url(#paint10_linear_120_9)"/>
<path d="M152.987 47.7386C152.761 47.7386 152.587 47.6786 152.467 47.5586C152.361 47.4386 152.301 47.2986 152.287 47.1386L150.927 34.2786C150.914 34.1052 150.954 33.9719 151.047 33.8786C151.141 33.7852 151.261 33.7386 151.407 33.7386H153.807C154.021 33.7386 154.174 33.7986 154.267 33.9186C154.361 34.0252 154.414 34.1386 154.427 34.2586L155.287 43.4986L160.087 34.2586C160.141 34.1386 160.234 34.0252 160.367 33.9186C160.501 33.7986 160.674 33.7386 160.887 33.7386H163.567C163.727 33.7386 163.827 33.8052 163.867 33.9386C163.921 34.0586 163.914 34.1919 163.847 34.3386L157.047 47.1386C156.967 47.2986 156.847 47.4386 156.687 47.5586C156.541 47.6786 156.347 47.7386 156.107 47.7386H152.987Z" fill="url(#paint11_linear_120_9)"/>
<path d="M163.094 47.7386C162.948 47.7386 162.835 47.6919 162.755 47.5986C162.675 47.5052 162.648 47.3852 162.674 47.2386L163.214 44.6986C163.241 44.5652 163.314 44.4519 163.434 44.3586C163.554 44.2519 163.688 44.1986 163.835 44.1986H166.354C166.501 44.1986 166.608 44.2519 166.674 44.3586C166.754 44.4519 166.781 44.5652 166.755 44.6986L166.214 47.2386C166.188 47.3852 166.114 47.5052 165.994 47.5986C165.888 47.6919 165.761 47.7386 165.615 47.7386H163.094Z" fill="url(#paint12_linear_120_9)"/>
<path d="M6.12013 74.9386C5.28013 74.9386 4.50013 74.8252 3.78013 74.5986C3.06013 74.3719 2.45346 74.0319 1.96013 73.5786C1.46679 73.1252 1.11346 72.5586 0.900128 71.8786C0.700128 71.1986 0.673461 70.4052 0.820128 69.4986C0.926794 68.9252 1.04013 68.3519 1.16013 67.7786C1.29346 67.2052 1.42679 66.6252 1.56013 66.0386C2.00013 64.2386 2.79346 62.8719 3.94013 61.9386C5.08679 61.0052 6.63346 60.5386 8.58013 60.5386C9.42013 60.5386 10.1935 60.6586 10.9001 60.8986C11.6201 61.1252 12.2268 61.4719 12.7201 61.9386C13.2268 62.4052 13.5801 62.9786 13.7801 63.6586C13.9935 64.3386 14.0201 65.1319 13.8601 66.0386C13.7668 66.6252 13.6535 67.2052 13.5201 67.7786C13.4001 68.3519 13.2735 68.9252 13.1401 69.4986C12.6868 71.3252 11.8868 72.6919 10.7401 73.5986C9.59346 74.4919 8.05346 74.9386 6.12013 74.9386ZM6.38013 72.0586C7.10013 72.0586 7.73346 71.8452 8.28013 71.4186C8.82679 70.9919 9.21346 70.3119 9.44013 69.3786C9.58679 68.7919 9.71346 68.2386 9.82013 67.7186C9.94013 67.1986 10.0468 66.6586 10.1401 66.0986C10.3135 65.1652 10.2335 64.4852 9.90013 64.0586C9.56679 63.6319 9.04013 63.4186 8.32013 63.4186C7.60013 63.4186 6.96679 63.6319 6.42013 64.0586C5.88679 64.4852 5.50679 65.1652 5.28013 66.0986C5.13346 66.6586 5.00013 67.1986 4.88013 67.7186C4.77346 68.2386 4.66679 68.7919 4.56013 69.3786C4.40013 70.3119 4.48013 70.9919 4.80013 71.4186C5.12013 71.8452 5.64679 72.0586 6.38013 72.0586Z" fill="url(#paint13_linear_120_9)"/>
<path d="M14.8784 74.7386C14.7451 74.7386 14.6384 74.6919 14.5584 74.5986C14.4784 74.5052 14.4517 74.3852 14.4784 74.2386L17.2384 61.2386C17.2651 61.0919 17.3317 60.9719 17.4384 60.8786C17.5584 60.7852 17.6917 60.7386 17.8384 60.7386H19.9584C20.1717 60.7386 20.3184 60.7852 20.3984 60.8786C20.4784 60.9719 20.5317 61.0519 20.5584 61.1186L23.8184 68.8586L25.4384 61.2386C25.4651 61.0919 25.5384 60.9719 25.6584 60.8786C25.7784 60.7852 25.9051 60.7386 26.0384 60.7386H28.4384C28.5851 60.7386 28.6917 60.7852 28.7584 60.8786C28.8384 60.9719 28.8651 61.0919 28.8384 61.2386L26.0784 74.2386C26.0517 74.3719 25.9784 74.4919 25.8584 74.5986C25.7517 74.6919 25.6251 74.7386 25.4784 74.7386H23.3584C23.1451 74.7386 22.9984 74.6919 22.9184 74.5986C22.8384 74.4919 22.7851 74.4119 22.7584 74.3586L19.4584 66.8986L17.8784 74.2386C17.8517 74.3852 17.7784 74.5052 17.6584 74.5986C17.5517 74.6919 17.4251 74.7386 17.2784 74.7386H14.8784Z" fill="url(#paint14_linear_120_9)"/>
<path d="M36.6493 74.7386C36.5027 74.7386 36.3893 74.6919 36.3093 74.5986C36.2293 74.5052 36.2027 74.3852 36.2293 74.2386L38.4493 63.8786H34.8893C34.756 63.8786 34.6493 63.8319 34.5693 63.7386C34.4893 63.6319 34.4627 63.5119 34.4893 63.3786L34.9493 61.2386C34.976 61.0919 35.0427 60.9719 35.1493 60.8786C35.2693 60.7852 35.4027 60.7386 35.5493 60.7386H46.3093C46.456 60.7386 46.5627 60.7852 46.6293 60.8786C46.7093 60.9719 46.736 61.0919 46.7093 61.2386L46.2493 63.3786C46.2227 63.5119 46.1493 63.6319 46.0293 63.7386C45.9227 63.8319 45.796 63.8786 45.6493 63.8786H42.0893L39.8893 74.2386C39.8627 74.3852 39.7893 74.5052 39.6693 74.5986C39.5627 74.6919 39.436 74.7386 39.2893 74.7386H36.6493Z" fill="url(#paint15_linear_120_9)"/>
<path d="M46.1284 74.7386C45.9951 74.7386 45.8884 74.6919 45.8084 74.5986C45.7284 74.5052 45.7017 74.3852 45.7284 74.2386L48.4884 61.2386C48.5151 61.0919 48.5884 60.9719 48.7084 60.8786C48.8284 60.7852 48.9551 60.7386 49.0884 60.7386H51.6684C51.8151 60.7386 51.9284 60.7852 52.0084 60.8786C52.0884 60.9719 52.1151 61.0919 52.0884 61.2386L51.0484 66.0586H55.9884L57.0084 61.2386C57.0351 61.0919 57.1017 60.9719 57.2084 60.8786C57.3284 60.7852 57.4617 60.7386 57.6084 60.7386H60.1884C60.3351 60.7386 60.4484 60.7852 60.5284 60.8786C60.6084 60.9719 60.6351 61.0919 60.6084 61.2386L57.8284 74.2386C57.8017 74.3852 57.7284 74.5052 57.6084 74.5986C57.5017 74.6919 57.3751 74.7386 57.2284 74.7386H54.6484C54.5017 74.7386 54.3884 74.6919 54.3084 74.5986C54.2417 74.5052 54.2217 74.3852 54.2484 74.2386L55.3084 69.2586H50.3884L49.3084 74.2386C49.2817 74.3852 49.2084 74.5052 49.0884 74.5986C48.9817 74.6919 48.8551 74.7386 48.7084 74.7386H46.1284Z" fill="url(#paint16_linear_120_9)"/>
<path d="M61.0308 74.7386C60.8841 74.7386 60.7708 74.6919 60.6908 74.5986C60.6108 74.5052 60.5841 74.3852 60.6108 74.2386L63.3908 61.2386C63.4174 61.0919 63.4908 60.9719 63.6108 60.8786C63.7308 60.7852 63.8574 60.7386 63.9907 60.7386H66.6908C66.8241 60.7386 66.9308 60.7852 67.0108 60.8786C67.0908 60.9719 67.1174 61.0919 67.0908 61.2386L64.3107 74.2386C64.2841 74.3852 64.2107 74.5052 64.0907 74.5986C63.9841 74.6919 63.8641 74.7386 63.7308 74.7386H61.0308Z" fill="url(#paint17_linear_120_9)"/>
<path d="M72.4751 74.9386C71.1418 74.9386 70.0485 74.7519 69.1951 74.3786C68.3551 74.0052 67.7485 73.5119 67.3751 72.8986C67.0151 72.2719 66.8885 71.6119 66.9951 70.9186C67.0218 70.8119 67.0751 70.7186 67.1551 70.6386C67.2485 70.5452 67.3551 70.4986 67.4751 70.4986H70.0351C70.2218 70.4986 70.3551 70.5319 70.4351 70.5986C70.5151 70.6652 70.5951 70.7519 70.6751 70.8586C70.7285 71.0586 70.8351 71.2519 70.9951 71.4386C71.1551 71.6252 71.3751 71.7786 71.6551 71.8986C71.9485 72.0052 72.3085 72.0586 72.7351 72.0586C73.5085 72.0586 74.1285 71.9386 74.5951 71.6986C75.0618 71.4586 75.3351 71.1319 75.4151 70.7186C75.4951 70.4252 75.4418 70.1852 75.2551 69.9986C75.0818 69.7986 74.7685 69.6252 74.3151 69.4786C73.8751 69.3186 73.2818 69.1586 72.5351 68.9986C71.5618 68.7852 70.7618 68.4919 70.1351 68.1186C69.5085 67.7319 69.0685 67.2452 68.8151 66.6586C68.5751 66.0586 68.5418 65.3452 68.7151 64.5186C68.9818 63.2919 69.6418 62.3252 70.6951 61.6186C71.7485 60.8986 73.1151 60.5386 74.7951 60.5386C75.6618 60.5386 76.4285 60.6586 77.0951 60.8986C77.7751 61.1386 78.3418 61.4586 78.7951 61.8586C79.2485 62.2586 79.5751 62.6852 79.7751 63.1386C79.9751 63.5786 80.0418 64.0119 79.9751 64.4386C79.9618 64.5452 79.9085 64.6452 79.8151 64.7386C79.7218 64.8186 79.6151 64.8586 79.4951 64.8586H76.8151C76.6818 64.8586 76.5618 64.8319 76.4551 64.7786C76.3618 64.7252 76.2818 64.6386 76.2151 64.5186C76.2151 64.2252 76.0618 63.9719 75.7551 63.7586C75.4485 63.5319 75.0418 63.4186 74.5351 63.4186C73.9618 63.4186 73.4818 63.5252 73.0951 63.7386C72.7085 63.9386 72.4685 64.2519 72.3751 64.6786C72.3085 64.9452 72.3418 65.1786 72.4751 65.3786C72.6218 65.5786 72.8885 65.7519 73.2751 65.8986C73.6751 66.0452 74.2218 66.1986 74.9151 66.3586C76.0885 66.5852 77.0085 66.8919 77.6751 67.2786C78.3418 67.6519 78.7885 68.1252 79.0151 68.6986C79.2551 69.2719 79.2885 69.9719 79.1151 70.7986C78.8218 72.1586 78.1085 73.1919 76.9751 73.8986C75.8551 74.5919 74.3551 74.9386 72.4751 74.9386Z" fill="url(#paint18_linear_120_9)"/>
<path d="M85.0933 74.7386C84.9599 74.7386 84.8533 74.6919 84.7733 74.5986C84.6933 74.5052 84.6666 74.3852 84.6933 74.2386L87.4533 61.2386C87.4799 61.0919 87.5533 60.9719 87.6733 60.8786C87.7933 60.7852 87.9199 60.7386 88.0533 60.7386H97.2533C97.3999 60.7386 97.5066 60.7852 97.5733 60.8786C97.6533 60.9719 97.6799 61.0919 97.6533 61.2386L97.2333 63.2586C97.2066 63.4052 97.1333 63.5252 97.0133 63.6186C96.8933 63.7119 96.7599 63.7586 96.6133 63.7586H90.4533L89.8333 66.6986H95.5933C95.7399 66.6986 95.8466 66.7519 95.9133 66.8586C95.9933 66.9519 96.0199 67.0719 95.9933 67.2186L95.5533 69.2186C95.5399 69.3519 95.4733 69.4719 95.3533 69.5786C95.2333 69.6719 95.0999 69.7186 94.9533 69.7186H89.1933L88.2133 74.2386C88.1866 74.3852 88.1133 74.5052 87.9933 74.5986C87.8866 74.6919 87.7599 74.7386 87.6133 74.7386H85.0933Z" fill="url(#paint19_linear_120_9)"/>
<path d="M101.696 62.3786L101.636 60.7386C101.636 60.5786 101.689 60.4386 101.796 60.3186C101.903 60.1986 102.036 60.1386 102.196 60.1386H103.996C104.169 60.1386 104.276 60.2119 104.316 60.3586C104.356 60.4919 104.343 60.6186 104.276 60.7386L103.536 62.3786L105.156 61.4786C105.276 61.4119 105.409 61.3852 105.556 61.3986C105.716 61.4119 105.803 61.5119 105.816 61.6986L106.036 63.4386C106.063 63.5986 106.009 63.7319 105.876 63.8386C105.756 63.9319 105.623 63.9852 105.476 63.9986L103.736 64.1386L104.796 65.2186C104.903 65.3119 104.943 65.4319 104.916 65.5786C104.903 65.7252 104.823 65.8452 104.676 65.9386L102.996 67.0186C102.863 67.1119 102.723 67.1386 102.576 67.0986C102.429 67.0586 102.343 66.9519 102.316 66.7786L102.016 65.1986L101.016 66.8186C100.949 66.9252 100.843 67.0186 100.696 67.0986C100.549 67.1652 100.409 67.1452 100.276 67.0386L99.0561 65.9386C98.9361 65.8319 98.9027 65.7052 98.9561 65.5586C99.0227 65.4119 99.1161 65.2986 99.2361 65.2186L100.756 64.1386L99.0761 63.9986C98.9427 63.9986 98.8361 63.9386 98.7561 63.8186C98.6894 63.6986 98.6961 63.5586 98.7761 63.3986L99.7161 61.6786C99.7961 61.5319 99.9094 61.4452 100.056 61.4186C100.203 61.3786 100.323 61.3919 100.416 61.4586L101.696 62.3786Z" fill="url(#paint20_linear_120_9)"/>
<path d="M110.602 62.3786L110.542 60.7386C110.542 60.5786 110.596 60.4386 110.702 60.3186C110.809 60.1986 110.942 60.1386 111.102 60.1386H112.902C113.076 60.1386 113.182 60.2119 113.222 60.3586C113.262 60.4919 113.249 60.6186 113.182 60.7386L112.442 62.3786L114.062 61.4786C114.182 61.4119 114.316 61.3852 114.462 61.3986C114.622 61.4119 114.709 61.5119 114.722 61.6986L114.942 63.4386C114.969 63.5986 114.916 63.7319 114.782 63.8386C114.662 63.9319 114.529 63.9852 114.382 63.9986L112.642 64.1386L113.702 65.2186C113.809 65.3119 113.849 65.4319 113.822 65.5786C113.809 65.7252 113.729 65.8452 113.582 65.9386L111.902 67.0186C111.769 67.1119 111.629 67.1386 111.482 67.0986C111.336 67.0586 111.249 66.9519 111.222 66.7786L110.922 65.1986L109.922 66.8186C109.856 66.9252 109.749 67.0186 109.602 67.0986C109.456 67.1652 109.316 67.1452 109.182 67.0386L107.962 65.9386C107.842 65.8319 107.809 65.7052 107.862 65.5586C107.929 65.4119 108.022 65.2986 108.142 65.2186L109.662 64.1386L107.982 63.9986C107.849 63.9986 107.742 63.9386 107.662 63.8186C107.596 63.6986 107.602 63.5586 107.682 63.3986L108.622 61.6786C108.702 61.5319 108.816 61.4452 108.962 61.4186C109.109 61.3786 109.229 61.3919 109.322 61.4586L110.602 62.3786Z" fill="url(#paint21_linear_120_9)"/>
<path d="M119.509 62.3786L119.449 60.7386C119.449 60.5786 119.502 60.4386 119.609 60.3186C119.715 60.1986 119.849 60.1386 120.009 60.1386H121.809C121.982 60.1386 122.089 60.2119 122.129 60.3586C122.169 60.4919 122.155 60.6186 122.089 60.7386L121.349 62.3786L122.969 61.4786C123.089 61.4119 123.222 61.3852 123.369 61.3986C123.529 61.4119 123.615 61.5119 123.629 61.6986L123.849 63.4386C123.875 63.5986 123.822 63.7319 123.689 63.8386C123.569 63.9319 123.435 63.9852 123.289 63.9986L121.549 64.1386L122.609 65.2186C122.715 65.3119 122.755 65.4319 122.729 65.5786C122.715 65.7252 122.635 65.8452 122.489 65.9386L120.809 67.0186C120.675 67.1119 120.535 67.1386 120.389 67.0986C120.242 67.0586 120.155 66.9519 120.129 66.7786L119.829 65.1986L118.829 66.8186C118.762 66.9252 118.655 67.0186 118.509 67.0986C118.362 67.1652 118.222 67.1452 118.089 67.0386L116.869 65.9386C116.749 65.8319 116.715 65.7052 116.769 65.5586C116.835 65.4119 116.929 65.2986 117.049 65.2186L118.569 64.1386L116.889 63.9986C116.755 63.9986 116.649 63.9386 116.569 63.8186C116.502 63.6986 116.509 63.5586 116.589 63.3986L117.529 61.6786C117.609 61.5319 117.722 61.4452 117.869 61.4186C118.015 61.3786 118.135 61.3919 118.229 61.4586L119.509 62.3786Z" fill="url(#paint22_linear_120_9)"/>
<path d="M128.415 62.3786L128.355 60.7386C128.355 60.5786 128.408 60.4386 128.515 60.3186C128.621 60.1986 128.755 60.1386 128.915 60.1386H130.715C130.888 60.1386 130.995 60.2119 131.035 60.3586C131.075 60.4919 131.061 60.6186 130.995 60.7386L130.255 62.3786L131.875 61.4786C131.995 61.4119 132.128 61.3852 132.275 61.3986C132.435 61.4119 132.521 61.5119 132.535 61.6986L132.755 63.4386C132.781 63.5986 132.728 63.7319 132.595 63.8386C132.475 63.9319 132.341 63.9852 132.195 63.9986L130.455 64.1386L131.515 65.2186C131.621 65.3119 131.661 65.4319 131.635 65.5786C131.621 65.7252 131.541 65.8452 131.395 65.9386L129.715 67.0186C129.581 67.1119 129.441 67.1386 129.295 67.0986C129.148 67.0586 129.061 66.9519 129.035 66.7786L128.735 65.1986L127.735 66.8186C127.668 66.9252 127.561 67.0186 127.415 67.0986C127.268 67.1652 127.128 67.1452 126.995 67.0386L125.775 65.9386C125.655 65.8319 125.621 65.7052 125.675 65.5586C125.741 65.4119 125.835 65.2986 125.955 65.2186L127.475 64.1386L125.795 63.9986C125.661 63.9986 125.555 63.9386 125.475 63.8186C125.408 63.6986 125.415 63.5586 125.495 63.3986L126.435 61.6786C126.515 61.5319 126.628 61.4452 126.775 61.4186C126.921 61.3786 127.041 61.3919 127.135 61.4586L128.415 62.3786Z" fill="url(#paint23_linear_120_9)"/>
<path d="M133.101 74.7386C132.968 74.7386 132.861 74.6919 132.781 74.5986C132.701 74.5052 132.674 74.3852 132.701 74.2386L135.461 61.2386C135.488 61.0919 135.554 60.9719 135.661 60.8786C135.781 60.7852 135.914 60.7386 136.061 60.7386H138.181C138.394 60.7386 138.541 60.7852 138.621 60.8786C138.701 60.9719 138.754 61.0519 138.781 61.1186L142.041 68.8586L143.661 61.2386C143.688 61.0919 143.761 60.9719 143.881 60.8786C144.001 60.7852 144.128 60.7386 144.261 60.7386H146.661C146.808 60.7386 146.914 60.7852 146.981 60.8786C147.061 60.9719 147.088 61.0919 147.061 61.2386L144.301 74.2386C144.274 74.3719 144.201 74.4919 144.081 74.5986C143.974 74.6919 143.848 74.7386 143.701 74.7386H141.581C141.368 74.7386 141.221 74.6919 141.141 74.5986C141.061 74.4919 141.008 74.4119 140.981 74.3586L137.681 66.8986L136.101 74.2386C136.074 74.3852 136.001 74.5052 135.881 74.5986C135.774 74.6919 135.648 74.7386 135.501 74.7386H133.101Z" fill="url(#paint24_linear_120_9)"/>
<path d="M151.812 74.7386C151.679 74.7386 151.572 74.6919 151.492 74.5986C151.412 74.5052 151.385 74.3852 151.412 74.2386L154.172 61.2386C154.199 61.0919 154.272 60.9719 154.392 60.8786C154.512 60.7852 154.639 60.7386 154.772 60.7386H160.092C160.905 60.7386 161.639 60.8319 162.292 61.0186C162.959 61.2052 163.512 61.4919 163.952 61.8786C164.392 62.2652 164.699 62.7519 164.872 63.3386C165.045 63.9119 165.052 64.5852 164.892 65.3586C164.559 66.8919 163.879 68.0252 162.852 68.7586C161.839 69.4919 160.472 69.8586 158.752 69.8586H156.052L155.132 74.2386C155.105 74.3852 155.032 74.5052 154.912 74.5986C154.805 74.6919 154.679 74.7386 154.532 74.7386H151.812ZM156.572 67.0986H158.872C159.419 67.0986 159.905 66.9519 160.332 66.6586C160.772 66.3652 161.059 65.9186 161.192 65.3186C161.259 64.9719 161.272 64.6652 161.232 64.3986C161.192 64.1319 161.052 63.9186 160.812 63.7586C160.585 63.5986 160.232 63.5186 159.752 63.5186H157.352L156.572 67.0986Z" fill="url(#paint25_linear_120_9)"/>
<path d="M165.328 74.7386C165.194 74.7386 165.088 74.6919 165.008 74.5986C164.928 74.5052 164.901 74.3852 164.928 74.2386L167.688 61.2386C167.714 61.0919 167.788 60.9719 167.908 60.8786C168.028 60.7852 168.154 60.7386 168.288 60.7386H170.928C171.074 60.7386 171.188 60.7852 171.268 60.8786C171.348 60.9719 171.374 61.0919 171.348 61.2386L169.108 71.7186H175.148C175.294 71.7186 175.401 71.7719 175.468 71.8786C175.548 71.9719 175.574 72.0919 175.548 72.2386L175.128 74.2386C175.101 74.3852 175.028 74.5052 174.908 74.5986C174.801 74.6919 174.674 74.7386 174.528 74.7386H165.328Z" fill="url(#paint26_linear_120_9)"/>
<path d="M175.904 74.7386C175.744 74.7386 175.63 74.6719 175.564 74.5386C175.497 74.4052 175.504 74.2719 175.584 74.1386L183.004 61.2986C183.084 61.1519 183.197 61.0252 183.344 60.9186C183.49 60.7986 183.677 60.7386 183.904 60.7386H186.984C187.21 60.7386 187.37 60.7986 187.464 60.9186C187.57 61.0252 187.63 61.1519 187.644 61.2986L189.604 74.1386C189.644 74.3252 189.61 74.4719 189.504 74.5786C189.397 74.6852 189.277 74.7386 189.144 74.7386H186.724C186.524 74.7386 186.377 74.6919 186.284 74.5986C186.204 74.5052 186.15 74.3986 186.124 74.2786L185.784 72.2786H180.444L179.244 74.3186C179.177 74.4119 179.084 74.5052 178.964 74.5986C178.857 74.6919 178.704 74.7386 178.504 74.7386H175.904ZM181.864 69.3986H185.584L184.844 64.1186L181.864 69.3986Z" fill="url(#paint27_linear_120_9)"/>
<path d="M191.558 74.7386C191.425 74.7386 191.318 74.6919 191.238 74.5986C191.158 74.5052 191.131 74.3852 191.158 74.2386L193.918 61.2386C193.945 61.0919 194.011 60.9719 194.118 60.8786C194.238 60.7852 194.371 60.7386 194.518 60.7386H196.638C196.851 60.7386 196.998 60.7852 197.078 60.8786C197.158 60.9719 197.211 61.0519 197.238 61.1186L200.498 68.8586L202.118 61.2386C202.145 61.0919 202.218 60.9719 202.338 60.8786C202.458 60.7852 202.585 60.7386 202.718 60.7386H205.118C205.265 60.7386 205.371 60.7852 205.438 60.8786C205.518 60.9719 205.545 61.0919 205.518 61.2386L202.758 74.2386C202.731 74.3719 202.658 74.4919 202.538 74.5986C202.431 74.6919 202.305 74.7386 202.158 74.7386H200.038C199.825 74.7386 199.678 74.6919 199.598 74.5986C199.518 74.4919 199.465 74.4119 199.438 74.3586L196.138 66.8986L194.558 74.2386C194.531 74.3852 194.458 74.5052 194.338 74.5986C194.231 74.6919 194.105 74.7386 193.958 74.7386H191.558Z" fill="url(#paint28_linear_120_9)"/>
<path d="M205.933 74.7386C205.8 74.7386 205.693 74.6919 205.613 74.5986C205.533 74.5052 205.506 74.3852 205.533 74.2386L208.293 61.2386C208.32 61.0919 208.393 60.9719 208.513 60.8786C208.633 60.7852 208.76 60.7386 208.893 60.7386H218.233C218.38 60.7386 218.486 60.7852 218.553 60.8786C218.633 60.9719 218.66 61.0919 218.633 61.2386L218.253 63.1186C218.226 63.2652 218.153 63.3852 218.033 63.4786C217.913 63.5719 217.78 63.6186 217.633 63.6186H211.253L210.673 66.3186H216.593C216.74 66.3186 216.853 66.3719 216.933 66.4786C217.013 66.5719 217.04 66.6919 217.013 66.8386L216.633 68.5786C216.606 68.7119 216.533 68.8319 216.413 68.9386C216.306 69.0319 216.18 69.0786 216.033 69.0786H210.093L209.513 71.8586H216.033C216.18 71.8586 216.286 71.9052 216.353 71.9986C216.433 72.0919 216.46 72.2119 216.433 72.3586L216.033 74.2386C216.006 74.3852 215.933 74.5052 215.813 74.5986C215.706 74.6919 215.58 74.7386 215.433 74.7386H205.933Z" fill="url(#paint29_linear_120_9)"/>
<path d="M221.747 74.7386C221.6 74.7386 221.487 74.6919 221.407 74.5986C221.327 74.5052 221.3 74.3852 221.327 74.2386L223.547 63.8786H219.987C219.854 63.8786 219.747 63.8319 219.667 63.7386C219.587 63.6319 219.56 63.5119 219.587 63.3786L220.047 61.2386C220.074 61.0919 220.14 60.9719 220.247 60.8786C220.367 60.7852 220.5 60.7386 220.647 60.7386H231.407C231.554 60.7386 231.66 60.7852 231.727 60.8786C231.807 60.9719 231.834 61.0919 231.807 61.2386L231.347 63.3786C231.32 63.5119 231.247 63.6319 231.127 63.7386C231.02 63.8319 230.894 63.8786 230.747 63.8786H227.187L224.987 74.2386C224.96 74.3852 224.887 74.5052 224.767 74.5986C224.66 74.6919 224.534 74.7386 224.387 74.7386H221.747Z" fill="url(#paint30_linear_120_9)"/>
<path d="M33.2441 20.5024C33.0761 20.5024 32.9641 20.4254 32.9081 20.2714C32.8381 20.1314 32.8521 19.9914 32.9501 19.8514L43.5971 2.86242C43.6951 2.70842 43.8281 2.56842 43.9961 2.44242C44.1781 2.30242 44.4021 2.23242 44.6681 2.23242H47.5451C47.7691 2.23242 47.8881 2.30942 47.9021 2.46342C47.9301 2.60342 47.9021 2.74342 47.8181 2.88342L37.1081 19.8724C37.0241 20.0124 36.8981 20.1524 36.7301 20.2924C36.5621 20.4324 36.3381 20.5024 36.0581 20.5024H33.2441Z" fill="url(#paint31_linear_120_9)"/>
<path d="M45.5078 20.5024C45.3398 20.5024 45.2278 20.4254 45.1718 20.2714C45.1018 20.1314 45.1158 19.9914 45.2138 19.8514L55.8608 2.86242C55.9588 2.70842 56.0918 2.56842 56.2598 2.44242C56.4418 2.30242 56.6658 2.23242 56.9318 2.23242H59.8088C60.0328 2.23242 60.1518 2.30942 60.1658 2.46342C60.1938 2.60342 60.1658 2.74342 60.0818 2.88342L49.3718 19.8724C49.2878 20.0124 49.1618 20.1524 48.9938 20.2924C48.8258 20.4324 48.6018 20.5024 48.3218 20.5024H45.5078Z" fill="url(#paint32_linear_120_9)"/>
<path d="M14.0003 14.4838C16.0687 14.4838 17.7454 12.8071 17.7454 10.7387C17.7454 8.67037 16.0687 6.99365 14.0003 6.99365C11.932 6.99365 10.2552 8.67037 10.2552 10.7387C10.2552 12.8071 11.932 14.4838 14.0003 14.4838Z" stroke="url(#paint33_linear_120_9)" stroke-width="3" stroke-linecap="round" stroke-linejoin="round"/>
<path d="M25.5563 9.44269C26.1481 10.2167 26.1481 11.2615 25.5563 12.0343C23.6925 14.4673 19.2209 19.477 14.0003 19.477C8.77969 19.477 4.30809 14.4673 2.44429 12.0343C2.1564 11.6637 2.00012 11.2078 2.00012 10.7385C2.00012 10.2692 2.1564 9.81329 2.44429 9.44269C4.30809 7.00965 8.77969 2 14.0003 2C19.2209 2 23.6925 7.00965 25.5563 9.44269V9.44269Z" stroke="url(#paint34_linear_120_9)" stroke-width="3" stroke-linecap="round" stroke-linejoin="round"/>
<defs>
<linearGradient id="paint0_linear_120_9" x1="-27.1631" y1="24.2593" x2="-22.0753" y2="100.339" gradientUnits="userSpaceOnUse">
<stop offset="0.153796" stop-color="#B4D109"/>
<stop offset="0.684991" stop-color="#87CC00"/>
</linearGradient>
<linearGradient id="paint1_linear_120_9" x1="-27.1631" y1="24.2593" x2="-22.0753" y2="100.339" gradientUnits="userSpaceOnUse">
<stop offset="0.153796" stop-color="#B4D109"/>
<stop offset="0.684991" stop-color="#87CC00"/>
</linearGradient>
<linearGradient id="paint2_linear_120_9" x1="-27.1631" y1="24.2593" x2="-22.0753" y2="100.339" gradientUnits="userSpaceOnUse">
<stop offset="0.153796" stop-color="#B4D109"/>
<stop offset="0.684991" stop-color="#87CC00"/>
</linearGradient>
<linearGradient id="paint3_linear_120_9" x1="-27.1631" y1="24.2593" x2="-22.0753" y2="100.339" gradientUnits="userSpaceOnUse">
<stop offset="0.153796" stop-color="#B4D109"/>
<stop offset="0.684991" stop-color="#87CC00"/>
</linearGradient>
<linearGradient id="paint4_linear_120_9" x1="-27.1631" y1="24.2593" x2="-22.0753" y2="100.339" gradientUnits="userSpaceOnUse">
<stop offset="0.153796" stop-color="#B4D109"/>
<stop offset="0.684991" stop-color="#87CC00"/>
</linearGradient>
<linearGradient id="paint5_linear_120_9" x1="-27.1631" y1="24.2593" x2="-22.0753" y2="100.339" gradientUnits="userSpaceOnUse">
<stop offset="0.153796" stop-color="#B4D109"/>
<stop offset="0.684991" stop-color="#87CC00"/>
</linearGradient>
<linearGradient id="paint6_linear_120_9" x1="-27.1631" y1="24.2593" x2="-22.0753" y2="100.339" gradientUnits="userSpaceOnUse">
<stop offset="0.153796" stop-color="#B4D109"/>
<stop offset="0.684991" stop-color="#87CC00"/>
</linearGradient>
<linearGradient id="paint7_linear_120_9" x1="-27.1631" y1="24.2593" x2="-22.0753" y2="100.339" gradientUnits="userSpaceOnUse">
<stop offset="0.153796" stop-color="#B4D109"/>
<stop offset="0.684991" stop-color="#87CC00"/>
</linearGradient>
<linearGradient id="paint8_linear_120_9" x1="-27.1631" y1="24.2593" x2="-22.0753" y2="100.339" gradientUnits="userSpaceOnUse">
<stop offset="0.153796" stop-color="#B4D109"/>
<stop offset="0.684991" stop-color="#87CC00"/>
</linearGradient>
<linearGradient id="paint9_linear_120_9" x1="-27.1631" y1="24.2593" x2="-22.0753" y2="100.339" gradientUnits="userSpaceOnUse">
<stop offset="0.153796" stop-color="#B4D109"/>
<stop offset="0.684991" stop-color="#87CC00"/>
</linearGradient>
<linearGradient id="paint10_linear_120_9" x1="-27.1631" y1="24.2593" x2="-22.0753" y2="100.339" gradientUnits="userSpaceOnUse">
<stop offset="0.153796" stop-color="#B4D109"/>
<stop offset="0.684991" stop-color="#87CC00"/>
</linearGradient>
<linearGradient id="paint11_linear_120_9" x1="-27.1631" y1="24.2593" x2="-22.0753" y2="100.339" gradientUnits="userSpaceOnUse">
<stop offset="0.153796" stop-color="#B4D109"/>
<stop offset="0.684991" stop-color="#87CC00"/>
</linearGradient>
<linearGradient id="paint12_linear_120_9" x1="-27.1631" y1="24.2593" x2="-22.0753" y2="100.339" gradientUnits="userSpaceOnUse">
<stop offset="0.153796" stop-color="#B4D109"/>
<stop offset="0.684991" stop-color="#87CC00"/>
</linearGradient>
<linearGradient id="paint13_linear_120_9" x1="-27.1631" y1="24.2593" x2="-22.0753" y2="100.339" gradientUnits="userSpaceOnUse">
<stop offset="0.153796" stop-color="#B4D109"/>
<stop offset="0.684991" stop-color="#87CC00"/>
</linearGradient>
<linearGradient id="paint14_linear_120_9" x1="-27.1631" y1="24.2593" x2="-22.0753" y2="100.339" gradientUnits="userSpaceOnUse">
<stop offset="0.153796" stop-color="#B4D109"/>
<stop offset="0.684991" stop-color="#87CC00"/>
</linearGradient>
<linearGradient id="paint15_linear_120_9" x1="-27.1631" y1="24.2593" x2="-22.0753" y2="100.339" gradientUnits="userSpaceOnUse">
<stop offset="0.153796" stop-color="#B4D109"/>
<stop offset="0.684991" stop-color="#87CC00"/>
</linearGradient>
<linearGradient id="paint16_linear_120_9" x1="-27.1631" y1="24.2593" x2="-22.0753" y2="100.339" gradientUnits="userSpaceOnUse">
<stop offset="0.153796" stop-color="#B4D109"/>
<stop offset="0.684991" stop-color="#87CC00"/>
</linearGradient>
<linearGradient id="paint17_linear_120_9" x1="-27.1631" y1="24.2593" x2="-22.0753" y2="100.339" gradientUnits="userSpaceOnUse">
<stop offset="0.153796" stop-color="#B4D109"/>
<stop offset="0.684991" stop-color="#87CC00"/>
</linearGradient>
<linearGradient id="paint18_linear_120_9" x1="-27.1631" y1="24.2593" x2="-22.0753" y2="100.339" gradientUnits="userSpaceOnUse">
<stop offset="0.153796" stop-color="#B4D109"/>
<stop offset="0.684991" stop-color="#87CC00"/>
</linearGradient>
<linearGradient id="paint19_linear_120_9" x1="-27.1631" y1="24.2593" x2="-22.0753" y2="100.339" gradientUnits="userSpaceOnUse">
<stop offset="0.153796" stop-color="#B4D109"/>
<stop offset="0.684991" stop-color="#87CC00"/>
</linearGradient>
<linearGradient id="paint20_linear_120_9" x1="-27.1631" y1="24.2593" x2="-22.0753" y2="100.339" gradientUnits="userSpaceOnUse">
<stop offset="0.153796" stop-color="#B4D109"/>
<stop offset="0.684991" stop-color="#87CC00"/>
</linearGradient>
<linearGradient id="paint21_linear_120_9" x1="-27.1631" y1="24.2593" x2="-22.0753" y2="100.339" gradientUnits="userSpaceOnUse">
<stop offset="0.153796" stop-color="#B4D109"/>
<stop offset="0.684991" stop-color="#87CC00"/>
</linearGradient>
<linearGradient id="paint22_linear_120_9" x1="-27.1631" y1="24.2593" x2="-22.0753" y2="100.339" gradientUnits="userSpaceOnUse">
<stop offset="0.153796" stop-color="#B4D109"/>
<stop offset="0.684991" stop-color="#87CC00"/>
</linearGradient>
<linearGradient id="paint23_linear_120_9" x1="-27.1631" y1="24.2593" x2="-22.0753" y2="100.339" gradientUnits="userSpaceOnUse">
<stop offset="0.153796" stop-color="#B4D109"/>
<stop offset="0.684991" stop-color="#87CC00"/>
</linearGradient>
<linearGradient id="paint24_linear_120_9" x1="-27.1631" y1="24.2593" x2="-22.0753" y2="100.339" gradientUnits="userSpaceOnUse">
<stop offset="0.153796" stop-color="#B4D109"/>
<stop offset="0.684991" stop-color="#87CC00"/>
</linearGradient>
<linearGradient id="paint25_linear_120_9" x1="-27.1631" y1="24.2593" x2="-22.0753" y2="100.339" gradientUnits="userSpaceOnUse">
<stop offset="0.153796" stop-color="#B4D109"/>
<stop offset="0.684991" stop-color="#87CC00"/>
</linearGradient>
<linearGradient id="paint26_linear_120_9" x1="-27.1631" y1="24.2593" x2="-22.0753" y2="100.339" gradientUnits="userSpaceOnUse">
<stop offset="0.153796" stop-color="#B4D109"/>
<stop offset="0.684991" stop-color="#87CC00"/>
</linearGradient>
<linearGradient id="paint27_linear_120_9" x1="-27.1631" y1="24.2593" x2="-22.0753" y2="100.339" gradientUnits="userSpaceOnUse">
<stop offset="0.153796" stop-color="#B4D109"/>
<stop offset="0.684991" stop-color="#87CC00"/>
</linearGradient>
<linearGradient id="paint28_linear_120_9" x1="-27.1631" y1="24.2593" x2="-22.0753" y2="100.339" gradientUnits="userSpaceOnUse">
<stop offset="0.153796" stop-color="#B4D109"/>
<stop offset="0.684991" stop-color="#87CC00"/>
</linearGradient>
<linearGradient id="paint29_linear_120_9" x1="-27.1631" y1="24.2593" x2="-22.0753" y2="100.339" gradientUnits="userSpaceOnUse">
<stop offset="0.153796" stop-color="#B4D109"/>
<stop offset="0.684991" stop-color="#87CC00"/>
</linearGradient>
<linearGradient id="paint30_linear_120_9" x1="-27.1631" y1="24.2593" x2="-22.0753" y2="100.339" gradientUnits="userSpaceOnUse">
<stop offset="0.153796" stop-color="#B4D109"/>
<stop offset="0.684991" stop-color="#87CC00"/>
</linearGradient>
<linearGradient id="paint31_linear_120_9" x1="29.5681" y1="-1.86258" x2="37.4951" y2="29.8826" gradientUnits="userSpaceOnUse">
<stop offset="0.153796" stop-color="#B4D109"/>
<stop offset="0.684991" stop-color="#87CC00"/>
</linearGradient>
<linearGradient id="paint32_linear_120_9" x1="29.5681" y1="-1.86258" x2="37.4951" y2="29.8826" gradientUnits="userSpaceOnUse">
<stop offset="0.153796" stop-color="#B4D109"/>
<stop offset="0.684991" stop-color="#87CC00"/>
</linearGradient>
<linearGradient id="paint33_linear_120_9" x1="9.35127" y1="5.31483" x2="13.8811" y2="17.4499" gradientUnits="userSpaceOnUse">
<stop offset="0.153796" stop-color="#B4D109"/>
<stop offset="0.684991" stop-color="#87CC00"/>
</linearGradient>
<linearGradient id="paint34_linear_120_9" x1="-0.896429" y1="-1.91725" x2="7.26962" y2="28.1237" gradientUnits="userSpaceOnUse">
<stop offset="0.153796" stop-color="#B4D109"/>
<stop offset="0.684991" stop-color="#87CC00"/>
</linearGradient>
</defs>
</svg>
