<svg width="1440" height="774" viewBox="0 0 1440 774" fill="none" xmlns="http://www.w3.org/2000/svg">
<g clip-path="url(#clip0_154_27)">
<path d="M1309.46 25.9999C1269.99 8.29469 1228.12 227.997 1186.66 220.659C1163.99 216.674 1150.61 205.516 1129.5 197.809C1109.01 190.245 1084 190.523 1061.65 190.574C968.215 190.943 875.706 237.764 782.771 218.626C739.746 209.725 707.682 192.92 660.298 191.065C611.779 189.16 564.931 197.783 516.847 191.876C476.044 186.864 436.138 170.403 392.996 180.797C382.021 183.416 371.088 187.875 361.474 193.885C338.516 201.836 54.5125 107.579 -3.23057 210.675C1.3977 215.7 -9.85498 239.971 -5.5 244.5C19.5 244.5 36.8145 251.571 48.2544 261.5C184.029 379.341 156.389 199.92 322.162 362.409C334.68 375.942 345.887 384.936 364.651 388.748C384.04 392.703 405.429 385.947 422.417 395.541C455.033 414.093 444.055 461.401 452.066 490.818C460.188 520.585 499.245 578.136 532.395 537.433C557.792 506.269 536.95 456.298 557.006 423.175C581.164 383.111 629.272 402.46 655.2 432.091C683.177 463.88 697.794 495.197 746.457 502.278C766.27 505.218 790.02 496.498 807.157 500.009C829.67 504.676 826.791 520.862 839.131 535.535C866.562 568.22 913.646 568.339 942.067 537.308C966.374 510.691 950.505 454.045 991.47 438.73C1036.03 422.08 1041.26 487.908 1038.96 513.54C1034.08 568.353 986.856 738.827 1067.01 766.939C1128.03 788.349 1156.55 710.565 1151.51 671.169C1144.72 617.566 1123.63 561.839 1110.36 509.214C1104.36 485.515 1097.33 406.512 1146.43 409.476C1186.72 411.938 1170.61 483.489 1181.24 505.21C1198.69 540.787 1256.24 569.168 1275.36 520.38C1290.35 482.21 1296.32 303.335 1352.5 268C1460.04 200.36 1597.48 304.786 1610 268C1759.2 217.503 1346.58 42.6826 1309.46 25.9999Z" fill="#A3CF06"/>
<path d="M-75 -58.2749L1564.94 -257.5L1442 243L-39 211.5L-75 -58.2749Z" fill="#A3CF06"/>
</g>
<defs>
<clipPath id="clip0_154_27">
<rect width="1440" height="774" fill="white"/>
</clipPath>
</defs>
</svg>
