<svg width="397" height="77" viewBox="0 0 397 77" fill="none" xmlns="http://www.w3.org/2000/svg">
<g clip-path="url(#clip0_60_10)">
<path d="M396.426 8.94212C396.987 6.33506 396.625 4.21156 395.341 2.57164C394.057 0.931718 392.056 0.0921352 389.337 0.0528922L24.9241 -0.577201C22.2609 -0.877148 19.923 -0.1525 17.9102 1.59676C15.9535 3.08531 14.6949 5.13312 14.1342 7.74018L1.43539 66.7902C0.874741 69.3972 1.26437 71.3904 2.60434 72.7696C3.88826 74.4095 5.8618 75.3794 8.52493 75.6794L14.252 75.6836C16.9712 75.7228 19.3372 74.8678 21.35 73.1186C23.3067 71.63 24.5654 69.5822 25.126 66.9751L34.545 23.1765L369.456 24.0085L360.037 67.8071C359.476 70.4142 359.838 72.5377 361.122 74.1776C362.462 75.5568 364.491 76.2661 367.21 76.3053L372.938 76.3095C375.657 76.3487 377.995 75.6241 379.951 74.1355C381.908 72.647 383.167 70.5992 383.727 67.9921L396.426 8.94212Z" fill="#FF0420"/>
</g>
<defs>
<clipPath id="clip0_60_10">
<rect width="397" height="77" fill="white"/>
</clipPath>
</defs>
</svg>
