<svg width="397" height="78" viewBox="0 0 397 78" fill="none" xmlns="http://www.w3.org/2000/svg">
<g clip-path="url(#clip0_0_334)">
<path d="M396.426 9.44212C396.987 6.83507 396.625 4.71156 395.341 3.07164C394.057 1.43172 392.056 0.592129 389.337 0.552892L24.9241 -0.0772014C22.2609 -0.377143 19.923 0.347503 17.9102 2.09676C15.9535 3.58531 14.6949 5.63312 14.1342 8.24018L1.43539 67.2902C0.874741 69.8972 1.26436 71.8904 2.60434 73.2696C3.88826 74.9095 5.86181 75.8794 8.52493 76.1794L14.252 76.1836C16.9712 76.2228 19.3372 75.3678 21.35 73.6186C23.3067 72.13 24.5654 70.0822 25.126 67.4751L34.545 23.6765L369.456 24.5085L360.037 68.3071C359.476 70.9142 359.838 73.0377 361.122 74.6776C362.462 76.0568 364.491 76.7661 367.21 76.8053L372.938 76.8095C375.657 76.8487 377.995 76.1241 379.951 74.6355C381.908 73.147 383.167 71.0992 383.727 68.4921L396.426 9.44212Z" fill="url(#paint0_linear_0_334)"/>
</g>
<defs>
<linearGradient id="paint0_linear_0_334" x1="443.587" y1="188.856" x2="144.689" y2="-226.739" gradientUnits="userSpaceOnUse">
<stop offset="0.153796" stop-color="#B4D109"/>
<stop offset="0.684991" stop-color="#87CC00"/>
</linearGradient>
<clipPath id="clip0_0_334">
<rect width="397" height="77" fill="white" transform="translate(0 0.5)"/>
</clipPath>
</defs>
</svg>
